<?xml version="1.0" encoding="utf-8"?>
<!-- Generator: Adobe Illustrator 25.0.0, SVG Export Plug-In . SVG Version: 6.00 Build 0)  -->
<svg version="1.1" id="Layer_1" xmlns="http://www.w3.org/2000/svg" xmlns:xlink="http://www.w3.org/1999/xlink" x="0px" y="0px"
	 viewBox="0 0 8 8" style="enable-background:new 0 0 8 8;" xml:space="preserve">
<style type="text/css">
	.st0{fill:#E21842;}
</style>
<polygon points="-5555,-228.2 -5555,-150.7 -5593.7,-150.7 -5593.7,-228.2 -5671.2,-228.2 -5671.2,-150.7 -5709.9,-150.7 
	-5709.9,-228.2 -5787.3,-228.2 -5787.3,-73.3 -5477.5,-73.3 -5477.5,-228.2 "/>
<g>
	<path class="st0" d="M4,0L4,0C1.8,0,0,1.8,0,4l0,0c0,2.2,1.8,4,4,4l0,0c2.2,0,4-1.8,4-4l0,0l0,0C8,1.8,6.2,0,4,0z"/>
</g>
</svg>
