<?xml version="1.0" encoding="utf-8"?>
<!-- Generator: Adobe Illustrator 25.0.0, SVG Export Plug-In . SVG Version: 6.00 Build 0)  -->
<svg version="1.1" id="Layer_1" xmlns="http://www.w3.org/2000/svg" xmlns:xlink="http://www.w3.org/1999/xlink" x="0px" y="0px"
	 viewBox="0 0 16 15.3" style="enable-background:new 0 0 16 15.3;" xml:space="preserve">
<path d="M16,8L7.8,6.4L7.3,8.9l4,0.7c-0.4,1.8-1.8,3.1-4,3.1c-2.9,0-4.2-2-4.2-5.1s1.3-5.1,4.2-5.1c2,0,3.3,1.1,4,2.7l2.9-0.9
	C13.1,1.6,10.7,0,7.6,0C3.1,0,0,2.9,0,7.8s3.1,7.6,7.3,7.6c1.8,0,3.3-0.7,4.4-2l0.2,1.8h2v-4.9l1.6,0.2L16,8z"/>
</svg>
