<?xml version="1.0" encoding="utf-8"?>
<!-- Generator: Adobe Illustrator 25.0.0, SVG Export Plug-In . SVG Version: 6.00 Build 0)  -->
<svg version="1.1" id="Layer_1" xmlns="http://www.w3.org/2000/svg" xmlns:xlink="http://www.w3.org/1999/xlink" x="0px" y="0px"
	 viewBox="0 0 100 112.1" style="enable-background:new 0 0 100 112.1;" xml:space="preserve">
<g>
	<g>
		<path d="M83.7,83.4l-10,27.4h5l1.9-5.3l12.4,0l1.9,5.3h5L90,83.4H83.7z M82.4,100.8l4.5-12.3l4.5,12.3L82.4,100.8z"/>
		<polygon points="24.7,47.1 24.7,42.4 4.7,42.4 4.7,69.8 24.7,69.8 24.7,65 10.5,65 10.5,57.6 22.6,57.6 22.6,52.9 10.5,52.9 
			10.5,47.1 		"/>
		<path d="M29.5,15.5l-15-2.6l-0.8,4.7l7.4,1.3c-1,3.3-3.4,5.6-7.4,5.6c-5.3,0-7.9-3.7-7.9-9.5s2.6-9.5,7.9-9.5c3.7,0,6.2,1.9,7.2,5
			l5.3-1.9c-2.1-5-6.7-7.8-12.5-7.8C5.8,0.8,0,6.1,0,15s5.8,14.2,13.7,14.2c3.2,0,6-1.4,8-3.6l0.4,3.1h3.7v-9l2.9,0.5L29.5,15.5z"/>
		<path d="M18.8,95.2l-4.7-0.8c-2.5-0.4-4.1-1.4-4.1-3.5c0-2.1,1.9-3.2,4.5-3.2c2.2,0,4,1.2,4.5,2.5l5.2-1.9c-1.3-3-4.9-5.3-9.7-5.3
			h0h0c-6.2,0-10.3,3.2-10.3,7.9c0,4.7,3.6,7.2,7.7,8l4.3,0.8c2.3,0.4,3.8,1.8,3.8,3.4c0,2.6-2.4,3.7-5.5,3.7
			c-2.6,0-4.9-1.5-5.5-2.9l-5.3,1.9c1.4,3.4,5.4,5.8,10.8,5.8c6.7,0,11.3-3.2,11.3-8.4C25.8,98.7,23,95.9,18.8,95.2z"/>
		<path d="M54.6,95.2l-4.7-0.8c-2.5-0.4-4.1-1.4-4.1-3.5c0-2.1,1.9-3.2,4.5-3.2c2.2,0,4,1.2,4.5,2.5l5.2-1.9c-1.3-3-4.9-5.3-9.7-5.3
			h0h0c-6.2,0-10.3,3.2-10.3,7.9c0,4.7,3.6,7.2,7.7,8l4.3,0.8c2.3,0.4,3.8,1.8,3.8,3.4c0,2.6-2.4,3.7-5.5,3.7
			c-2.6,0-4.9-1.5-5.5-2.9l-5.3,1.9c1.4,3.4,5.4,5.8,10.8,5.8c6.7,0,11.3-3.2,11.3-8.4C61.6,98.7,58.8,95.9,54.6,95.2z"/>
	</g>
</g>
</svg>
