<?xml version="1.0" encoding="utf-8"?>
<!-- Generator: Adobe Illustrator 25.0.0, SVG Export Plug-In . SVG Version: 6.00 Build 0)  -->
<svg version="1.1" id="Layer_1" xmlns="http://www.w3.org/2000/svg" xmlns:xlink="http://www.w3.org/1999/xlink" x="0px" y="0px"
	 viewBox="0 0 47.8 15.3" style="enable-background:new 0 0 47.8 15.3;" xml:space="preserve">
<style type="text/css">
	.st0{fill:#FFFFFF;}
</style>
<g>
	<polygon class="st0" points="47.8,15.1 42.9,8 40.7,9.5 44.6,15.1 	"/>
	<rect x="20.4" y="4.4" class="st0" width="2.9" height="10.7"/>
	<rect x="26.2" y="1.5" class="st0" width="2.9" height="13.6"/>
	<rect x="32.5" y="4.4" class="st0" width="2.9" height="10.7"/>
	<rect x="37.4" y="0.5" class="st0" width="2.9" height="14.6"/>
	<rect x="24.8" y="4.4" class="st0" width="6.3" height="2.4"/>
	<path class="st0" d="M35.7,1.7c0,0.9-0.8,1.7-1.7,1.7c-0.9,0-1.7-0.8-1.7-1.7C32.3,0.8,33.1,0,34,0C34.9,0,35.7,0.8,35.7,1.7"/>
	<path class="st0" d="M17.2,4.1c-2.4,0-4.6,2.2-4.6,5.6s2.2,5.6,4.6,5.6c2.9,0,4.6-2.5,4.6-5.6C21.9,6.6,20.2,4.1,17.2,4.1 M18,12.9
		c-1.5,0-2.4-1.2-2.4-3.2s1-3.2,2.4-3.2c1.5,0,2.4,1.2,2.4,3.2S19.4,12.9,18,12.9"/>
	<rect y="0.5" class="st0" width="2.9" height="14.6"/>
	<rect x="2.9" y="12.4" class="st0" width="4.1" height="2.7"/>
	<path class="st0" d="M6.8,5.8c-2.5,0-4.6,3.2-4.6,4.6c0,2.5,2.1,4.6,4.6,4.6s4.6-1.3,4.6-4.6C11.4,7.5,9.3,5.8,6.8,5.8 M6.6,12.4
		H2.9v-0.9l2.3-2.3c0.4-0.4,0.9-0.7,1.4-0.7c1,0,1.9,0.7,1.9,1.9S7.5,12.4,6.6,12.4"/>
	<polygon class="st0" points="8,6.3 2.8,11.5 1.2,9.7 6.3,4.6 	"/>
	<path class="st0" d="M5.8,0.5c-1.7,0-3.1,1.1-3.5,2.7h3.4c0.5,0,0.8,0.4,0.8,0.9c0,0.2-0.1,0.4-0.2,0.6c0,0-1.2,1.4-2.3,2.7
		c0.5,0.3,1.2,0.5,1.9,0.5c2,0,3.6-1.6,3.6-3.6C9.5,2.1,7.8,0.5,5.8,0.5"/>
	<rect x="2.4" y="11.2" class="st0" width="0.5" height="1.2"/>
	<polygon class="st0" points="2.2,3.2 5.6,3.2 5.8,0.5 2.2,0.5 	"/>
	<polygon class="st0" points="44.4,4.4 38,10.8 39.6,12.6 47.8,4.4 	"/>
</g>
</svg>
