<svg xmlns="http://www.w3.org/2000/svg" viewBox="0 0 1920 1080"><defs><style>.cls-1{fill:#fff;}</style></defs><g id="Layer_1" data-name="Layer 1"><rect class="cls-1" x="919.62" y="456" width="156" height="60"/><rect class="cls-1" x="799.62" y="768" width="156" height="60"/><polygon class="cls-1" points="883.62 720 730.3 501.03 680.35 544.77 803.05 720 883.62 720"/><polygon class="cls-1" points="798.77 360 604.38 554.39 643.62 600 883.62 360 798.77 360"/><path class="cls-1" d="M1321.62,786a42,42,0,1,1-42-42,42,42,0,0,1,42,42"/><rect class="cls-1" x="505.62" y="654" width="251.21" height="66"/><rect class="cls-1" x="1123.62" y="360" width="72" height="360"/><rect class="cls-1" x="1243.62" y="564" width="72" height="156"/><rect class="cls-1" x="883.62" y="564" width="72" height="156"/><rect class="cls-1" x="1003.62" y="564" width="72" height="156"/></g></svg>