<svg xmlns="http://www.w3.org/2000/svg" viewBox="0 0 1920 1080"><defs><style>.cls-1{fill:#b8b8b8;}</style></defs><g id="Layer_2" data-name="Layer 2"><rect class="cls-1" width="1920" height="1080"/></g><g id="Layer_1" data-name="Layer 1"><path d="M113.1,989.67l-14.34-2.53L98,991.61l7.13,1.25A7,7,0,0,1,98,998.24c-5,0-7.56-3.53-7.56-9.08s2.52-9.07,7.56-9.07a6.75,6.75,0,0,1,6.93,4.81l5-1.83c-2-4.82-6.44-7.52-12-7.52-7.56,0-13.11,5-13.11,13.61s5.55,13.61,13.11,13.61a10.13,10.13,0,0,0,7.69-3.48l.38,3h3.53v-8.62l2.74.48Z"/><path d="M282.48,989.67l-14.34-2.53-.79,4.47,7.13,1.25a7,7,0,0,1-7.13,5.38c-5,0-7.56-3.53-7.56-9.08s2.52-9.07,7.56-9.07a6.75,6.75,0,0,1,6.93,4.81l5.05-1.83c-2-4.82-6.44-7.52-12-7.52-7.56,0-13.1,5-13.1,13.61s5.54,13.61,13.1,13.61a10.17,10.17,0,0,0,7.7-3.48l.37,3H279v-8.62l2.74.48Z"/><path d="M197.79,935.22l-14.34-2.53-.79,4.47,7.13,1.26a7,7,0,0,1-7.13,5.37c-5,0-7.56-3.53-7.56-9.07s2.52-9.08,7.56-9.08a6.75,6.75,0,0,1,6.93,4.82l5-1.84c-2-4.81-6.44-7.51-12-7.51-7.56,0-13.1,5-13.1,13.61s5.54,13.61,13.1,13.61a10.17,10.17,0,0,0,7.7-3.48l.37,3h3.53v-8.62l2.74.48Z"/><path d="M113.1,880.78l-14.34-2.53L98,882.72,105.1,884A7,7,0,0,1,98,889.35c-5,0-7.56-3.53-7.56-9.08s2.52-9.07,7.56-9.07A6.75,6.75,0,0,1,104.9,876l5-1.84c-2-4.81-6.44-7.52-12-7.52-7.56,0-13.11,5-13.11,13.61S90.41,893.89,98,893.89a10.13,10.13,0,0,0,7.69-3.48l.38,3h3.53v-8.62l2.74.49Z"/><path d="M282.48,880.78l-14.34-2.53-.79,4.47,7.13,1.26a7,7,0,0,1-7.13,5.37c-5,0-7.56-3.53-7.56-9.08s2.52-9.07,7.56-9.07a6.75,6.75,0,0,1,6.93,4.82l5.05-1.84c-2-4.81-6.44-7.52-12-7.52-7.56,0-13.1,5-13.1,13.61s5.54,13.62,13.1,13.62a10.17,10.17,0,0,0,7.7-3.48l.37,3H279v-8.62l2.74.49Z"/><path d="M451.86,989.67l-14.34-2.53-.78,4.47,7.12,1.25a7,7,0,0,1-7.13,5.38c-5,0-7.56-3.53-7.56-9.08s2.52-9.07,7.56-9.07a6.75,6.75,0,0,1,6.93,4.81l5-1.83c-2-4.82-6.44-7.52-12-7.52-7.56,0-13.1,5-13.1,13.61s5.54,13.61,13.1,13.61a10.17,10.17,0,0,0,7.7-3.48l.37,3h3.53v-8.62l2.74.48Z"/><path d="M367.17,935.22l-14.34-2.53-.78,4.47,7.12,1.26a7,7,0,0,1-7.13,5.37c-5,0-7.56-3.53-7.56-9.07s2.52-9.08,7.56-9.08a6.75,6.75,0,0,1,6.93,4.82l5-1.84c-2-4.81-6.44-7.51-12-7.51-7.56,0-13.1,5-13.1,13.61s5.54,13.61,13.1,13.61a10.17,10.17,0,0,0,7.7-3.48l.37,3h3.53v-8.62l2.74.48Z"/><path d="M451.86,880.78l-14.34-2.53-.78,4.47,7.12,1.26a7,7,0,0,1-7.13,5.37c-5,0-7.56-3.53-7.56-9.08s2.52-9.07,7.56-9.07a6.75,6.75,0,0,1,6.93,4.82l5-1.84c-2-4.81-6.44-7.52-12-7.52-7.56,0-13.1,5-13.1,13.61s5.54,13.62,13.1,13.62a10.17,10.17,0,0,0,7.7-3.48l.37,3h3.53v-8.62l2.74.49Z"/><path d="M621.24,989.67l-14.34-2.53-.78,4.47,7.12,1.25a7,7,0,0,1-7.13,5.38c-5,0-7.56-3.53-7.56-9.08s2.52-9.07,7.56-9.07a6.77,6.77,0,0,1,6.94,4.81l5.05-1.83c-2-4.82-6.45-7.52-12-7.52-7.56,0-13.1,5-13.1,13.61s5.54,13.61,13.1,13.61a10.16,10.16,0,0,0,7.7-3.48l.37,3h3.53v-8.62l2.74.48Z"/><path d="M536.55,935.22l-14.34-2.53-.78,4.47,7.12,1.26a7,7,0,0,1-7.13,5.37c-5,0-7.56-3.53-7.56-9.07s2.52-9.08,7.56-9.08a6.77,6.77,0,0,1,6.94,4.82l5-1.84c-2-4.81-6.45-7.51-12-7.51-7.56,0-13.1,5-13.1,13.61s5.54,13.61,13.1,13.61a10.16,10.16,0,0,0,7.7-3.48l.37,3H533v-8.62l2.74.48Z"/><path d="M621.24,880.78l-14.34-2.53-.78,4.47,7.12,1.26a7,7,0,0,1-7.13,5.37c-5,0-7.56-3.53-7.56-9.08s2.52-9.07,7.56-9.07a6.77,6.77,0,0,1,6.94,4.82l5.05-1.84c-2-4.81-6.45-7.52-12-7.52-7.56,0-13.1,5-13.1,13.61s5.54,13.62,13.1,13.62a10.16,10.16,0,0,0,7.7-3.48l.37,3h3.53v-8.62l2.74.49Z"/><path d="M790.62,989.67l-14.33-2.53-.79,4.47,7.12,1.25a7,7,0,0,1-7.12,5.38c-5,0-7.57-3.53-7.57-9.08s2.52-9.07,7.57-9.07a6.77,6.77,0,0,1,6.93,4.81l5.05-1.83c-2-4.82-6.45-7.52-12-7.52-7.57,0-13.11,5-13.11,13.61s5.54,13.61,13.11,13.61a10.15,10.15,0,0,0,7.69-3.48l.37,3h3.53v-8.62l2.74.48Z"/><path d="M705.93,935.22l-14.33-2.53-.79,4.47,7.12,1.26a7,7,0,0,1-7.12,5.37c-5,0-7.57-3.53-7.57-9.07s2.52-9.08,7.57-9.08a6.77,6.77,0,0,1,6.93,4.82l5-1.84c-2-4.81-6.45-7.51-12-7.51-7.57,0-13.11,5-13.11,13.61s5.54,13.61,13.11,13.61a10.15,10.15,0,0,0,7.69-3.48l.37,3h3.53v-8.62l2.74.48Z"/><path d="M790.62,880.78l-14.33-2.53-.79,4.47,7.12,1.26a7,7,0,0,1-7.12,5.37c-5,0-7.57-3.53-7.57-9.08s2.52-9.07,7.57-9.07a6.77,6.77,0,0,1,6.93,4.82l5.05-1.84c-2-4.81-6.45-7.52-12-7.52-7.57,0-13.11,5-13.11,13.61s5.54,13.62,13.11,13.62a10.15,10.15,0,0,0,7.69-3.48l.37,3h3.53v-8.62l2.74.49Z"/><path d="M197.79,826.33l-14.34-2.52-.79,4.47,7.13,1.25a7,7,0,0,1-7.13,5.37c-5,0-7.56-3.52-7.56-9.07s2.52-9.07,7.56-9.07a6.74,6.74,0,0,1,6.93,4.81l5-1.84c-2-4.81-6.44-7.51-12-7.51-7.56,0-13.1,5-13.1,13.61s5.54,13.61,13.1,13.61a10.17,10.17,0,0,0,7.7-3.48l.37,3h3.53v-8.62l2.74.48Z"/><path d="M113.1,771.89l-14.34-2.53L98,773.83l7.13,1.26A7,7,0,0,1,98,780.46c-5,0-7.56-3.53-7.56-9.07s2.52-9.08,7.56-9.08a6.75,6.75,0,0,1,6.93,4.82l5-1.84c-2-4.81-6.44-7.51-12-7.51-7.56,0-13.11,5-13.11,13.61S90.41,785,98,785a10.13,10.13,0,0,0,7.69-3.48l.38,3h3.53v-8.61l2.74.48Z"/><path d="M282.48,771.89l-14.34-2.53-.79,4.47,7.13,1.26a7,7,0,0,1-7.13,5.37c-5,0-7.56-3.53-7.56-9.07s2.52-9.08,7.56-9.08a6.75,6.75,0,0,1,6.93,4.82l5.05-1.84c-2-4.81-6.44-7.51-12-7.51-7.56,0-13.1,5-13.1,13.61S259.79,785,267.35,785a10.17,10.17,0,0,0,7.7-3.48l.37,3H279v-8.61l2.74.48Z"/><path d="M367.17,826.33l-14.34-2.52-.78,4.47,7.12,1.25A7,7,0,0,1,352,834.9c-5,0-7.56-3.52-7.56-9.07s2.52-9.07,7.56-9.07a6.74,6.74,0,0,1,6.93,4.81l5-1.84c-2-4.81-6.44-7.51-12-7.51-7.56,0-13.1,5-13.1,13.61s5.54,13.61,13.1,13.61a10.17,10.17,0,0,0,7.7-3.48l.37,3h3.53v-8.62l2.74.48Z"/><path d="M451.86,771.89l-14.34-2.53-.78,4.47,7.12,1.26a7,7,0,0,1-7.13,5.37c-5,0-7.56-3.53-7.56-9.07s2.52-9.08,7.56-9.08a6.75,6.75,0,0,1,6.93,4.82l5-1.84c-2-4.81-6.44-7.51-12-7.51-7.56,0-13.1,5-13.1,13.61S429.17,785,436.73,785a10.17,10.17,0,0,0,7.7-3.48l.37,3h3.53v-8.61l2.74.48Z"/><path d="M536.55,826.33l-14.34-2.52-.78,4.47,7.12,1.25a7,7,0,0,1-7.13,5.37c-5,0-7.56-3.52-7.56-9.07s2.52-9.07,7.56-9.07a6.76,6.76,0,0,1,6.94,4.81l5-1.84c-2-4.81-6.45-7.51-12-7.51-7.56,0-13.1,5-13.1,13.61s5.54,13.61,13.1,13.61a10.16,10.16,0,0,0,7.7-3.48l.37,3H533v-8.62l2.74.48Z"/><path d="M621.24,771.89l-14.34-2.53-.78,4.47,7.12,1.26a7,7,0,0,1-7.13,5.37c-5,0-7.56-3.53-7.56-9.07s2.52-9.08,7.56-9.08a6.77,6.77,0,0,1,6.94,4.82l5.05-1.84c-2-4.81-6.45-7.51-12-7.51-7.56,0-13.1,5-13.1,13.61S598.55,785,606.11,785a10.16,10.16,0,0,0,7.7-3.48l.37,3h3.53v-8.61l2.74.48Z"/><path d="M705.93,826.33l-14.33-2.52-.79,4.47,7.12,1.25a7,7,0,0,1-7.12,5.37c-5,0-7.57-3.52-7.57-9.07s2.52-9.07,7.57-9.07a6.76,6.76,0,0,1,6.93,4.81l5-1.84c-2-4.81-6.45-7.51-12-7.51-7.57,0-13.11,5-13.11,13.61s5.54,13.61,13.11,13.61A10.15,10.15,0,0,0,698.5,836l.37,3h3.53v-8.62l2.74.48Z"/><path d="M790.62,771.89l-14.33-2.53-.79,4.47,7.12,1.26a7,7,0,0,1-7.12,5.37c-5,0-7.57-3.53-7.57-9.07s2.52-9.08,7.57-9.08a6.77,6.77,0,0,1,6.93,4.82l5.05-1.84c-2-4.81-6.45-7.51-12-7.51-7.57,0-13.11,5-13.11,13.61S767.93,785,775.5,785a10.15,10.15,0,0,0,7.69-3.48l.37,3h3.53v-8.61l2.74.48Z"/><path d="M197.79,717.45l-14.34-2.53-.79,4.47,7.13,1.25a7,7,0,0,1-7.13,5.38c-5,0-7.56-3.53-7.56-9.08s2.52-9.07,7.56-9.07a6.75,6.75,0,0,1,6.93,4.81l5-1.83c-2-4.82-6.44-7.52-12-7.52-7.56,0-13.1,5-13.1,13.61s5.54,13.61,13.1,13.61a10.17,10.17,0,0,0,7.7-3.48l.37,3h3.53v-8.62l2.74.48Z"/><path d="M113.1,663l-14.34-2.52L98,664.94l7.13,1.26A7,7,0,0,1,98,671.57c-5,0-7.56-3.53-7.56-9.07s2.52-9.08,7.56-9.08a6.75,6.75,0,0,1,6.93,4.82l5-1.84c-2-4.81-6.44-7.51-12-7.51-7.56,0-13.11,5-13.11,13.61S90.41,676.11,98,676.11a10.13,10.13,0,0,0,7.69-3.48l.38,3h3.53V667l2.74.48Z"/><path d="M282.48,663l-14.34-2.52-.79,4.46,7.13,1.26a7,7,0,0,1-7.13,5.37c-5,0-7.56-3.53-7.56-9.07s2.52-9.08,7.56-9.08a6.75,6.75,0,0,1,6.93,4.82l5.05-1.84c-2-4.81-6.44-7.51-12-7.51-7.56,0-13.1,5-13.1,13.61s5.54,13.61,13.1,13.61a10.17,10.17,0,0,0,7.7-3.48l.37,3H279V667l2.74.48Z"/><path d="M367.17,717.45l-14.34-2.53-.78,4.47,7.12,1.25A7,7,0,0,1,352,726c-5,0-7.56-3.53-7.56-9.08s2.52-9.07,7.56-9.07a6.75,6.75,0,0,1,6.93,4.81l5-1.83c-2-4.82-6.44-7.52-12-7.52-7.56,0-13.1,5-13.1,13.61s5.54,13.61,13.1,13.61a10.17,10.17,0,0,0,7.7-3.48l.37,3h3.53v-8.62l2.74.48Z"/><path d="M451.86,663l-14.34-2.52-.78,4.46,7.12,1.26a7,7,0,0,1-7.13,5.37c-5,0-7.56-3.53-7.56-9.07s2.52-9.08,7.56-9.08a6.75,6.75,0,0,1,6.93,4.82l5-1.84c-2-4.81-6.44-7.51-12-7.51-7.56,0-13.1,5-13.1,13.61s5.54,13.61,13.1,13.61a10.17,10.17,0,0,0,7.7-3.48l.37,3h3.53V667l2.74.48Z"/><path d="M536.55,717.45l-14.34-2.53-.78,4.47,7.12,1.25a7,7,0,0,1-7.13,5.38c-5,0-7.56-3.53-7.56-9.08s2.52-9.07,7.56-9.07a6.77,6.77,0,0,1,6.94,4.81l5-1.83c-2-4.82-6.45-7.52-12-7.52-7.56,0-13.1,5-13.1,13.61s5.54,13.61,13.1,13.61a10.16,10.16,0,0,0,7.7-3.48l.37,3H533v-8.62l2.74.48Z"/><path d="M621.24,663l-14.34-2.52-.78,4.46,7.12,1.26a7,7,0,0,1-7.13,5.37c-5,0-7.56-3.53-7.56-9.07s2.52-9.08,7.56-9.08a6.77,6.77,0,0,1,6.94,4.82l5.05-1.84c-2-4.81-6.45-7.51-12-7.51-7.56,0-13.1,5-13.1,13.61s5.54,13.61,13.1,13.61a10.16,10.16,0,0,0,7.7-3.48l.37,3h3.53V667l2.74.48Z"/><path d="M705.93,717.45l-14.33-2.53-.79,4.47,7.12,1.25a7,7,0,0,1-7.12,5.38c-5,0-7.57-3.53-7.57-9.08s2.52-9.07,7.57-9.07a6.77,6.77,0,0,1,6.93,4.81l5-1.83c-2-4.82-6.45-7.52-12-7.52-7.57,0-13.11,5-13.11,13.61s5.54,13.61,13.11,13.61a10.15,10.15,0,0,0,7.69-3.48l.37,3h3.53v-8.62l2.74.48Z"/><path d="M790.62,663l-14.33-2.52-.79,4.46,7.12,1.26a7,7,0,0,1-7.12,5.37c-5,0-7.57-3.53-7.57-9.07s2.52-9.08,7.57-9.08a6.77,6.77,0,0,1,6.93,4.82l5.05-1.84c-2-4.81-6.45-7.51-12-7.51-7.57,0-13.11,5-13.11,13.61s5.54,13.61,13.11,13.61a10.15,10.15,0,0,0,7.69-3.48l.37,3h3.53V667l2.74.48Z"/><path d="M960,989.67l-14.33-2.53-.79,4.47,7.13,1.25a7,7,0,0,1-7.13,5.38c-5,0-7.56-3.53-7.56-9.08s2.52-9.07,7.56-9.07a6.77,6.77,0,0,1,6.93,4.81l5.05-1.83c-2-4.82-6.45-7.52-12-7.52-7.56,0-13.11,5-13.11,13.61s5.55,13.61,13.11,13.61a10.15,10.15,0,0,0,7.69-3.48l.37,3h3.53v-8.62l2.74.48Z"/><path d="M875.31,935.22,861,932.69l-.79,4.47,7.12,1.26a7,7,0,0,1-7.12,5.37c-5,0-7.57-3.53-7.57-9.07s2.53-9.08,7.57-9.08a6.77,6.77,0,0,1,6.93,4.82l5-1.84c-2-4.81-6.45-7.51-12-7.51-7.57,0-13.11,5-13.11,13.61s5.54,13.61,13.11,13.61a10.15,10.15,0,0,0,7.69-3.48l.37,3h3.53v-8.62l2.74.48Z"/><path d="M960,880.78l-14.33-2.53-.79,4.47L952,884a7,7,0,0,1-7.13,5.37c-5,0-7.56-3.53-7.56-9.08s2.52-9.07,7.56-9.07a6.77,6.77,0,0,1,6.93,4.82l5.05-1.84c-2-4.81-6.45-7.52-12-7.52-7.56,0-13.11,5-13.11,13.61s5.55,13.62,13.11,13.62a10.15,10.15,0,0,0,7.69-3.48l.37,3h3.53v-8.62l2.74.49Z"/><path d="M875.31,826.33,861,823.81l-.79,4.47,7.12,1.25a7,7,0,0,1-7.12,5.37c-5,0-7.57-3.52-7.57-9.07s2.53-9.07,7.57-9.07a6.76,6.76,0,0,1,6.93,4.81l5-1.84c-2-4.81-6.45-7.51-12-7.51-7.57,0-13.11,5-13.11,13.61s5.54,13.61,13.11,13.61a10.15,10.15,0,0,0,7.69-3.48l.37,3h3.53v-8.62l2.74.48Z"/><path d="M960,771.89l-14.33-2.53-.79,4.47,7.13,1.26a7,7,0,0,1-7.13,5.37c-5,0-7.56-3.53-7.56-9.07s2.52-9.08,7.56-9.08a6.77,6.77,0,0,1,6.93,4.82l5.05-1.84c-2-4.81-6.45-7.51-12-7.51-7.56,0-13.11,5-13.11,13.61S937.32,785,944.88,785a10.15,10.15,0,0,0,7.69-3.48l.37,3h3.53v-8.61l2.74.48Z"/><path d="M875.31,717.45,861,714.92l-.79,4.47,7.12,1.25a7,7,0,0,1-7.12,5.38c-5,0-7.57-3.53-7.57-9.08s2.53-9.07,7.57-9.07a6.77,6.77,0,0,1,6.93,4.81l5-1.83c-2-4.82-6.45-7.52-12-7.52-7.57,0-13.11,5-13.11,13.61s5.54,13.61,13.11,13.61a10.15,10.15,0,0,0,7.69-3.48l.37,3h3.53v-8.62l2.74.48Z"/><path d="M960,663l-14.33-2.52-.79,4.46L952,666.2a7,7,0,0,1-7.13,5.37c-5,0-7.56-3.53-7.56-9.07s2.52-9.08,7.56-9.08a6.77,6.77,0,0,1,6.93,4.82l5.05-1.84c-2-4.81-6.45-7.51-12-7.51-7.56,0-13.11,5-13.11,13.61s5.55,13.61,13.11,13.61a10.15,10.15,0,0,0,7.69-3.48l.37,3h3.53V667l2.74.48Z"/><path d="M197.79,608.56,183.45,606l-.79,4.47,7.13,1.26a7,7,0,0,1-7.13,5.37c-5,0-7.56-3.53-7.56-9.08s2.52-9.07,7.56-9.07a6.75,6.75,0,0,1,6.93,4.82l5-1.84c-2-4.81-6.44-7.52-12-7.52-7.56,0-13.1,5-13.1,13.61s5.54,13.62,13.1,13.62a10.17,10.17,0,0,0,7.7-3.48l.37,3h3.53v-8.62L197,613Z"/><path d="M113.1,554.12l-14.34-2.53L98,556.06l7.13,1.25A7,7,0,0,1,98,562.68c-5,0-7.56-3.52-7.56-9.07s2.52-9.07,7.56-9.07a6.74,6.74,0,0,1,6.93,4.81l5-1.84c-2-4.81-6.44-7.51-12-7.51-7.56,0-13.11,5-13.11,13.61S90.41,567.22,98,567.22a10.13,10.13,0,0,0,7.69-3.48l.38,3h3.53V558.1l2.74.48Z"/><path d="M282.48,554.12l-14.34-2.53-.79,4.47,7.13,1.25a7,7,0,0,1-7.13,5.37c-5,0-7.56-3.52-7.56-9.07s2.52-9.07,7.56-9.07a6.74,6.74,0,0,1,6.93,4.81l5.05-1.84c-2-4.81-6.44-7.51-12-7.51-7.56,0-13.1,5-13.1,13.61s5.54,13.61,13.1,13.61a10.17,10.17,0,0,0,7.7-3.48l.37,3H279V558.1l2.74.48Z"/><path d="M367.17,608.56,352.83,606l-.78,4.47,7.12,1.26a7,7,0,0,1-7.13,5.37c-5,0-7.56-3.53-7.56-9.08S347,599,352,599A6.75,6.75,0,0,1,359,603.8l5-1.84c-2-4.81-6.44-7.52-12-7.52-7.56,0-13.1,5-13.1,13.61s5.54,13.62,13.1,13.62a10.17,10.17,0,0,0,7.7-3.48l.37,3h3.53v-8.62l2.74.49Z"/><path d="M451.86,554.12l-14.34-2.53-.78,4.47,7.12,1.25a7,7,0,0,1-7.13,5.37c-5,0-7.56-3.52-7.56-9.07s2.52-9.07,7.56-9.07a6.74,6.74,0,0,1,6.93,4.81l5-1.84c-2-4.81-6.44-7.51-12-7.51-7.56,0-13.1,5-13.1,13.61s5.54,13.61,13.1,13.61a10.17,10.17,0,0,0,7.7-3.48l.37,3h3.53V558.1l2.74.48Z"/><path d="M536.55,608.56,522.21,606l-.78,4.47,7.12,1.26a7,7,0,0,1-7.13,5.37c-5,0-7.56-3.53-7.56-9.08s2.52-9.07,7.56-9.07a6.77,6.77,0,0,1,6.94,4.82l5-1.84c-2-4.81-6.45-7.52-12-7.52-7.56,0-13.1,5-13.1,13.61s5.54,13.62,13.1,13.62a10.16,10.16,0,0,0,7.7-3.48l.37,3H533v-8.62l2.74.49Z"/><path d="M621.24,554.12l-14.34-2.53-.78,4.47,7.12,1.25a7,7,0,0,1-7.13,5.37c-5,0-7.56-3.52-7.56-9.07s2.52-9.07,7.56-9.07a6.76,6.76,0,0,1,6.94,4.81l5.05-1.84c-2-4.81-6.45-7.51-12-7.51-7.56,0-13.1,5-13.1,13.61s5.54,13.61,13.1,13.61a10.16,10.16,0,0,0,7.7-3.48l.37,3h3.53V558.1l2.74.48Z"/><path d="M705.93,608.56,691.6,606l-.79,4.47,7.12,1.26a7,7,0,0,1-7.12,5.37c-5,0-7.57-3.53-7.57-9.08s2.52-9.07,7.57-9.07a6.77,6.77,0,0,1,6.93,4.82l5-1.84c-2-4.81-6.45-7.52-12-7.52-7.57,0-13.11,5-13.11,13.61s5.54,13.62,13.11,13.62a10.15,10.15,0,0,0,7.69-3.48l.37,3h3.53v-8.62l2.74.49Z"/><path d="M790.62,554.12l-14.33-2.53-.79,4.47,7.12,1.25a7,7,0,0,1-7.12,5.37c-5,0-7.57-3.52-7.57-9.07s2.52-9.07,7.57-9.07a6.76,6.76,0,0,1,6.93,4.81l5.05-1.84c-2-4.81-6.45-7.51-12-7.51-7.57,0-13.11,5-13.11,13.61s5.54,13.61,13.11,13.61a10.15,10.15,0,0,0,7.69-3.48l.37,3h3.53V558.1l2.74.48Z"/><path d="M875.31,608.56,861,606l-.79,4.47,7.12,1.26a7,7,0,0,1-7.12,5.37c-5,0-7.57-3.53-7.57-9.08s2.53-9.07,7.57-9.07a6.77,6.77,0,0,1,6.93,4.82l5-1.84c-2-4.81-6.45-7.52-12-7.52-7.57,0-13.11,5-13.11,13.61s5.54,13.62,13.11,13.62a10.15,10.15,0,0,0,7.69-3.48l.37,3h3.53v-8.62l2.74.49Z"/><path d="M960,554.12l-14.33-2.53-.79,4.47,7.13,1.25a7,7,0,0,1-7.13,5.37c-5,0-7.56-3.52-7.56-9.07s2.52-9.07,7.56-9.07a6.76,6.76,0,0,1,6.93,4.81l5.05-1.84c-2-4.81-6.45-7.51-12-7.51-7.56,0-13.11,5-13.11,13.61s5.55,13.61,13.11,13.61a10.15,10.15,0,0,0,7.69-3.48l.37,3h3.53V558.1l2.74.48Z"/><path d="M1129.38,989.67l-14.33-2.53-.79,4.47,7.13,1.25a7,7,0,0,1-7.13,5.38c-5,0-7.56-3.53-7.56-9.08s2.52-9.07,7.56-9.07a6.77,6.77,0,0,1,6.93,4.81l5-1.83c-2-4.82-6.45-7.52-12-7.52-7.56,0-13.11,5-13.11,13.61s5.55,13.61,13.11,13.61a10.13,10.13,0,0,0,7.69-3.48l.37,3h3.53v-8.62l2.74.48Z"/><path d="M1044.69,935.22l-14.33-2.53-.79,4.47,7.13,1.26a7,7,0,0,1-7.13,5.37c-5,0-7.56-3.53-7.56-9.07s2.52-9.08,7.56-9.08a6.77,6.77,0,0,1,6.93,4.82l5-1.84c-2-4.81-6.45-7.51-12-7.51-7.56,0-13.11,5-13.11,13.61s5.55,13.61,13.11,13.61a10.15,10.15,0,0,0,7.69-3.48l.37,3h3.53v-8.62l2.74.48Z"/><path d="M1129.38,880.78l-14.33-2.53-.79,4.47,7.13,1.26a7,7,0,0,1-7.13,5.37c-5,0-7.56-3.53-7.56-9.08s2.52-9.07,7.56-9.07a6.77,6.77,0,0,1,6.93,4.82l5-1.84c-2-4.81-6.45-7.52-12-7.52-7.56,0-13.11,5-13.11,13.61s5.55,13.62,13.11,13.62a10.13,10.13,0,0,0,7.69-3.48l.37,3h3.53v-8.62l2.74.49Z"/><path d="M1298.76,989.67l-14.33-2.53-.79,4.47,7.13,1.25a7,7,0,0,1-7.13,5.38c-5,0-7.56-3.53-7.56-9.08s2.52-9.07,7.56-9.07a6.76,6.76,0,0,1,6.93,4.81l5-1.83c-2-4.82-6.44-7.52-12-7.52-7.56,0-13.11,5-13.11,13.61s5.55,13.61,13.11,13.61a10.13,10.13,0,0,0,7.69-3.48l.37,3h3.53v-8.62l2.74.48Z"/><path d="M1214.07,935.22l-14.33-2.53-.79,4.47,7.13,1.26a7,7,0,0,1-7.13,5.37c-5,0-7.56-3.53-7.56-9.07s2.52-9.08,7.56-9.08a6.76,6.76,0,0,1,6.93,4.82l5-1.84c-2-4.81-6.45-7.51-12-7.51-7.56,0-13.11,5-13.11,13.61s5.55,13.61,13.11,13.61a10.13,10.13,0,0,0,7.69-3.48l.37,3h3.53v-8.62l2.74.48Z"/><path d="M1298.76,880.78l-14.33-2.53-.79,4.47,7.13,1.26a7,7,0,0,1-7.13,5.37c-5,0-7.56-3.53-7.56-9.08s2.52-9.07,7.56-9.07a6.76,6.76,0,0,1,6.93,4.82l5-1.84c-2-4.81-6.44-7.52-12-7.52-7.56,0-13.11,5-13.11,13.61s5.55,13.62,13.11,13.62a10.13,10.13,0,0,0,7.69-3.48l.37,3h3.53v-8.62l2.74.49Z"/><path d="M1468.14,989.67l-14.33-2.53-.79,4.47,7.13,1.25a7,7,0,0,1-7.13,5.38c-5,0-7.56-3.53-7.56-9.08s2.52-9.07,7.56-9.07a6.75,6.75,0,0,1,6.93,4.81l5-1.83c-2-4.82-6.44-7.52-12-7.52-7.56,0-13.11,5-13.11,13.61s5.55,13.61,13.11,13.61a10.13,10.13,0,0,0,7.69-3.48l.37,3h3.53v-8.62l2.75.48Z"/><path d="M1383.45,935.22l-14.33-2.53-.79,4.47,7.13,1.26a7,7,0,0,1-7.13,5.37c-5,0-7.56-3.53-7.56-9.07s2.52-9.08,7.56-9.08a6.75,6.75,0,0,1,6.93,4.82l5-1.84c-2-4.81-6.44-7.51-12-7.51-7.56,0-13.11,5-13.11,13.61s5.55,13.61,13.11,13.61a10.13,10.13,0,0,0,7.69-3.48l.37,3h3.53v-8.62l2.74.48Z"/><path d="M1468.14,880.78l-14.33-2.53-.79,4.47,7.13,1.26a7,7,0,0,1-7.13,5.37c-5,0-7.56-3.53-7.56-9.08s2.52-9.07,7.56-9.07A6.75,6.75,0,0,1,1460,876l5-1.84c-2-4.81-6.44-7.52-12-7.52-7.56,0-13.11,5-13.11,13.61s5.55,13.62,13.11,13.62a10.13,10.13,0,0,0,7.69-3.48l.37,3h3.53v-8.62l2.75.49Z"/><path d="M1637.52,989.67l-14.33-2.53-.79,4.47,7.13,1.25a7,7,0,0,1-7.13,5.38c-5,0-7.56-3.53-7.56-9.08s2.52-9.07,7.56-9.07a6.75,6.75,0,0,1,6.93,4.81l5.05-1.83c-2-4.82-6.44-7.52-12-7.52-7.56,0-13.11,5-13.11,13.61s5.55,13.61,13.11,13.61a10.13,10.13,0,0,0,7.69-3.48l.37,3H1634v-8.62l2.74.48Z"/><path d="M1552.83,935.22l-14.33-2.53-.79,4.47,7.13,1.26a7,7,0,0,1-7.13,5.37c-5,0-7.56-3.53-7.56-9.07s2.52-9.08,7.56-9.08a6.75,6.75,0,0,1,6.93,4.82l5-1.84c-2-4.81-6.44-7.51-12-7.51-7.56,0-13.11,5-13.11,13.61s5.55,13.61,13.11,13.61a10.13,10.13,0,0,0,7.69-3.48l.37,3h3.53v-8.62l2.75.48Z"/><path d="M1637.52,880.78l-14.33-2.53-.79,4.47,7.13,1.26a7,7,0,0,1-7.13,5.37c-5,0-7.56-3.53-7.56-9.08s2.52-9.07,7.56-9.07a6.75,6.75,0,0,1,6.93,4.82l5.05-1.84c-2-4.81-6.44-7.52-12-7.52-7.56,0-13.11,5-13.11,13.61s5.55,13.62,13.11,13.62a10.13,10.13,0,0,0,7.69-3.48l.37,3H1634v-8.62l2.74.49Z"/><path d="M1044.69,826.33l-14.33-2.52-.79,4.47,7.13,1.25a7,7,0,0,1-7.13,5.37c-5,0-7.56-3.52-7.56-9.07s2.52-9.07,7.56-9.07a6.76,6.76,0,0,1,6.93,4.81l5-1.84c-2-4.81-6.45-7.51-12-7.51-7.56,0-13.11,5-13.11,13.61s5.55,13.61,13.11,13.61a10.15,10.15,0,0,0,7.69-3.48l.37,3h3.53v-8.62l2.74.48Z"/><path d="M1129.38,771.89l-14.33-2.53-.79,4.47,7.13,1.26a7,7,0,0,1-7.13,5.37c-5,0-7.56-3.53-7.56-9.07s2.52-9.08,7.56-9.08a6.77,6.77,0,0,1,6.93,4.82l5-1.84c-2-4.81-6.45-7.51-12-7.51-7.56,0-13.11,5-13.11,13.61S1106.7,785,1114.26,785a10.13,10.13,0,0,0,7.69-3.48l.37,3h3.53v-8.61l2.74.48Z"/><path d="M1214.07,826.33l-14.33-2.52-.79,4.47,7.13,1.25a7,7,0,0,1-7.13,5.37c-5,0-7.56-3.52-7.56-9.07s2.52-9.07,7.56-9.07a6.75,6.75,0,0,1,6.93,4.81l5-1.84c-2-4.81-6.45-7.51-12-7.51-7.56,0-13.11,5-13.11,13.61s5.55,13.61,13.11,13.61a10.13,10.13,0,0,0,7.69-3.48l.37,3h3.53v-8.62l2.74.48Z"/><path d="M1298.76,771.89l-14.33-2.53-.79,4.47,7.13,1.26a7,7,0,0,1-7.13,5.37c-5,0-7.56-3.53-7.56-9.07s2.52-9.08,7.56-9.08a6.76,6.76,0,0,1,6.93,4.82l5-1.84c-2-4.81-6.44-7.51-12-7.51-7.56,0-13.11,5-13.11,13.61s5.55,13.61,13.11,13.61a10.13,10.13,0,0,0,7.69-3.48l.37,3h3.53v-8.61l2.74.48Z"/><path d="M1383.45,826.33l-14.33-2.52-.79,4.47,7.13,1.25a7,7,0,0,1-7.13,5.37c-5,0-7.56-3.52-7.56-9.07s2.52-9.07,7.56-9.07a6.74,6.74,0,0,1,6.93,4.81l5-1.84c-2-4.81-6.44-7.51-12-7.51-7.56,0-13.11,5-13.11,13.61s5.55,13.61,13.11,13.61A10.13,10.13,0,0,0,1376,836l.37,3h3.53v-8.62l2.74.48Z"/><path d="M1468.14,771.89l-14.33-2.53-.79,4.47,7.13,1.26a7,7,0,0,1-7.13,5.37c-5,0-7.56-3.53-7.56-9.07s2.52-9.08,7.56-9.08a6.75,6.75,0,0,1,6.93,4.82l5-1.84c-2-4.81-6.44-7.51-12-7.51-7.56,0-13.11,5-13.11,13.61S1445.46,785,1453,785a10.13,10.13,0,0,0,7.69-3.48l.37,3h3.53v-8.61l2.75.48Z"/><path d="M1552.83,826.33l-14.33-2.52-.79,4.47,7.13,1.25a7,7,0,0,1-7.13,5.37c-5,0-7.56-3.52-7.56-9.07s2.52-9.07,7.56-9.07a6.74,6.74,0,0,1,6.93,4.81l5-1.84c-2-4.81-6.44-7.51-12-7.51-7.56,0-13.11,5-13.11,13.61s5.55,13.61,13.11,13.61a10.13,10.13,0,0,0,7.69-3.48l.37,3h3.53v-8.62l2.75.48Z"/><path d="M1637.52,771.89l-14.33-2.53-.79,4.47,7.13,1.26a7,7,0,0,1-7.13,5.37c-5,0-7.56-3.53-7.56-9.07s2.52-9.08,7.56-9.08a6.75,6.75,0,0,1,6.93,4.82l5.05-1.84c-2-4.81-6.44-7.51-12-7.51-7.56,0-13.11,5-13.11,13.61S1614.84,785,1622.4,785a10.13,10.13,0,0,0,7.69-3.48l.37,3H1634v-8.61l2.74.48Z"/><path d="M1044.69,717.45l-14.33-2.53-.79,4.47,7.13,1.25a7,7,0,0,1-7.13,5.38c-5,0-7.56-3.53-7.56-9.08s2.52-9.07,7.56-9.07a6.77,6.77,0,0,1,6.93,4.81l5-1.83c-2-4.82-6.45-7.52-12-7.52-7.56,0-13.11,5-13.11,13.61s5.55,13.61,13.11,13.61a10.15,10.15,0,0,0,7.69-3.48l.37,3h3.53v-8.62l2.74.48Z"/><path d="M1129.38,663l-14.33-2.52-.79,4.46,7.13,1.26a7,7,0,0,1-7.13,5.37c-5,0-7.56-3.53-7.56-9.07s2.52-9.08,7.56-9.08a6.77,6.77,0,0,1,6.93,4.82l5-1.84c-2-4.81-6.45-7.51-12-7.51-7.56,0-13.11,5-13.11,13.61s5.55,13.61,13.11,13.61a10.13,10.13,0,0,0,7.69-3.48l.37,3h3.53V667l2.74.48Z"/><path d="M1214.07,717.45l-14.33-2.53-.79,4.47,7.13,1.25A7,7,0,0,1,1199,726c-5,0-7.56-3.53-7.56-9.08s2.52-9.07,7.56-9.07a6.76,6.76,0,0,1,6.93,4.81l5-1.83c-2-4.82-6.45-7.52-12-7.52-7.56,0-13.11,5-13.11,13.61s5.55,13.61,13.11,13.61a10.13,10.13,0,0,0,7.69-3.48l.37,3h3.53v-8.62l2.74.48Z"/><path d="M1298.76,663l-14.33-2.52-.79,4.46,7.13,1.26a7,7,0,0,1-7.13,5.37c-5,0-7.56-3.53-7.56-9.07s2.52-9.08,7.56-9.08a6.76,6.76,0,0,1,6.93,4.82l5-1.84c-2-4.81-6.44-7.51-12-7.51-7.56,0-13.11,5-13.11,13.61s5.55,13.61,13.11,13.61a10.13,10.13,0,0,0,7.69-3.48l.37,3h3.53V667l2.74.48Z"/><path d="M1383.45,717.45l-14.33-2.53-.79,4.47,7.13,1.25a7,7,0,0,1-7.13,5.38c-5,0-7.56-3.53-7.56-9.08s2.52-9.07,7.56-9.07a6.75,6.75,0,0,1,6.93,4.81l5-1.83c-2-4.82-6.44-7.52-12-7.52-7.56,0-13.11,5-13.11,13.61s5.55,13.61,13.11,13.61a10.13,10.13,0,0,0,7.69-3.48l.37,3h3.53v-8.62l2.74.48Z"/><path d="M1468.14,663l-14.33-2.52-.79,4.46,7.13,1.26a7,7,0,0,1-7.13,5.37c-5,0-7.56-3.53-7.56-9.07s2.52-9.08,7.56-9.08a6.75,6.75,0,0,1,6.93,4.82l5-1.84c-2-4.81-6.44-7.51-12-7.51-7.56,0-13.11,5-13.11,13.61s5.55,13.61,13.11,13.61a10.13,10.13,0,0,0,7.69-3.48l.37,3h3.53V667l2.75.48Z"/><path d="M1552.83,717.45l-14.33-2.53-.79,4.47,7.13,1.25a7,7,0,0,1-7.13,5.38c-5,0-7.56-3.53-7.56-9.08s2.52-9.07,7.56-9.07a6.75,6.75,0,0,1,6.93,4.81l5-1.83c-2-4.82-6.44-7.52-12-7.52-7.56,0-13.11,5-13.11,13.61s5.55,13.61,13.11,13.61a10.13,10.13,0,0,0,7.69-3.48l.37,3h3.53v-8.62l2.75.48Z"/><path d="M1637.52,663l-14.33-2.52-.79,4.46,7.13,1.26a7,7,0,0,1-7.13,5.37c-5,0-7.56-3.53-7.56-9.07s2.52-9.08,7.56-9.08a6.75,6.75,0,0,1,6.93,4.82l5.05-1.84c-2-4.81-6.44-7.51-12-7.51-7.56,0-13.11,5-13.11,13.61s5.55,13.61,13.11,13.61a10.13,10.13,0,0,0,7.69-3.48l.37,3H1634V667l2.74.48Z"/><path d="M1806.9,989.67l-14.33-2.53-.79,4.47,7.13,1.25a7,7,0,0,1-7.13,5.38c-5,0-7.56-3.53-7.56-9.08s2.52-9.07,7.56-9.07a6.75,6.75,0,0,1,6.93,4.81l5-1.83c-2-4.82-6.44-7.52-12-7.52-7.56,0-13.11,5-13.11,13.61s5.55,13.61,13.11,13.61a10.13,10.13,0,0,0,7.69-3.48l.38,3h3.53v-8.62l2.74.48Z"/><path d="M1722.21,935.22l-14.33-2.53-.79,4.47,7.13,1.26a7,7,0,0,1-7.13,5.37c-5,0-7.56-3.53-7.56-9.07s2.52-9.08,7.56-9.08a6.75,6.75,0,0,1,6.93,4.82l5-1.84c-2-4.81-6.44-7.51-12-7.51-7.56,0-13.11,5-13.11,13.61s5.55,13.61,13.11,13.61a10.13,10.13,0,0,0,7.69-3.48l.38,3h3.53v-8.62l2.74.48Z"/><path d="M1806.9,880.78l-14.33-2.53-.79,4.47,7.13,1.26a7,7,0,0,1-7.13,5.37c-5,0-7.56-3.53-7.56-9.08s2.52-9.07,7.56-9.07a6.75,6.75,0,0,1,6.93,4.82l5-1.84c-2-4.81-6.44-7.52-12-7.52-7.56,0-13.11,5-13.11,13.61s5.55,13.62,13.11,13.62a10.13,10.13,0,0,0,7.69-3.48l.38,3h3.53v-8.62l2.74.49Z"/><path d="M1722.21,826.33l-14.33-2.52-.79,4.47,7.13,1.25a7,7,0,0,1-7.13,5.37c-5,0-7.56-3.52-7.56-9.07s2.52-9.07,7.56-9.07a6.74,6.74,0,0,1,6.93,4.81l5-1.84c-2-4.81-6.44-7.51-12-7.51-7.56,0-13.11,5-13.11,13.61s5.55,13.61,13.11,13.61a10.13,10.13,0,0,0,7.69-3.48l.38,3h3.53v-8.62l2.74.48Z"/><path d="M1806.9,771.89l-14.33-2.53-.79,4.47,7.13,1.26a7,7,0,0,1-7.13,5.37c-5,0-7.56-3.53-7.56-9.07s2.52-9.08,7.56-9.08a6.75,6.75,0,0,1,6.93,4.82l5-1.84c-2-4.81-6.44-7.51-12-7.51-7.56,0-13.11,5-13.11,13.61s5.55,13.61,13.11,13.61a10.13,10.13,0,0,0,7.69-3.48l.38,3h3.53v-8.61l2.74.48Z"/><path d="M1722.21,717.45l-14.33-2.53-.79,4.47,7.13,1.25a7,7,0,0,1-7.13,5.38c-5,0-7.56-3.53-7.56-9.08s2.52-9.07,7.56-9.07a6.75,6.75,0,0,1,6.93,4.81l5-1.83c-2-4.82-6.44-7.52-12-7.52-7.56,0-13.11,5-13.11,13.61s5.55,13.61,13.11,13.61a10.13,10.13,0,0,0,7.69-3.48l.38,3h3.53v-8.62l2.74.48Z"/><path d="M1806.9,663l-14.33-2.52-.79,4.46,7.13,1.26a7,7,0,0,1-7.13,5.37c-5,0-7.56-3.53-7.56-9.07s2.52-9.08,7.56-9.08a6.75,6.75,0,0,1,6.93,4.82l5-1.84c-2-4.81-6.44-7.51-12-7.51-7.56,0-13.11,5-13.11,13.61s5.55,13.61,13.11,13.61a10.13,10.13,0,0,0,7.69-3.48l.38,3h3.53V667l2.74.48Z"/><path d="M1044.69,608.56,1030.36,606l-.79,4.47,7.13,1.26a7,7,0,0,1-7.13,5.37c-5,0-7.56-3.53-7.56-9.08s2.52-9.07,7.56-9.07a6.77,6.77,0,0,1,6.93,4.82l5-1.84c-2-4.81-6.45-7.52-12-7.52-7.56,0-13.11,5-13.11,13.61s5.55,13.62,13.11,13.62a10.15,10.15,0,0,0,7.69-3.48l.37,3h3.53v-8.62l2.74.49Z"/><path d="M1129.38,554.12l-14.33-2.53-.79,4.47,7.13,1.25a7,7,0,0,1-7.13,5.37c-5,0-7.56-3.52-7.56-9.07s2.52-9.07,7.56-9.07a6.76,6.76,0,0,1,6.93,4.81l5-1.84c-2-4.81-6.45-7.51-12-7.51-7.56,0-13.11,5-13.11,13.61s5.55,13.61,13.11,13.61a10.13,10.13,0,0,0,7.69-3.48l.37,3h3.53V558.1l2.74.48Z"/><path d="M1214.07,608.56,1199.74,606l-.79,4.47,7.13,1.26a7,7,0,0,1-7.13,5.37c-5,0-7.56-3.53-7.56-9.08s2.52-9.07,7.56-9.07a6.76,6.76,0,0,1,6.93,4.82l5-1.84c-2-4.81-6.45-7.52-12-7.52-7.56,0-13.11,5-13.11,13.61s5.55,13.62,13.11,13.62a10.13,10.13,0,0,0,7.69-3.48l.37,3h3.53v-8.62l2.74.49Z"/><path d="M1298.76,554.12l-14.33-2.53-.79,4.47,7.13,1.25a7,7,0,0,1-7.13,5.37c-5,0-7.56-3.52-7.56-9.07s2.52-9.07,7.56-9.07a6.75,6.75,0,0,1,6.93,4.81l5-1.84c-2-4.81-6.44-7.51-12-7.51-7.56,0-13.11,5-13.11,13.61s5.55,13.61,13.11,13.61a10.13,10.13,0,0,0,7.69-3.48l.37,3h3.53V558.1l2.74.48Z"/><path d="M1383.45,608.56,1369.12,606l-.79,4.47,7.13,1.26a7,7,0,0,1-7.13,5.37c-5,0-7.56-3.53-7.56-9.08s2.52-9.07,7.56-9.07a6.75,6.75,0,0,1,6.93,4.82l5-1.84c-2-4.81-6.44-7.52-12-7.52-7.56,0-13.11,5-13.11,13.61s5.55,13.62,13.11,13.62a10.13,10.13,0,0,0,7.69-3.48l.37,3h3.53v-8.62l2.74.49Z"/><path d="M1468.14,554.12l-14.33-2.53-.79,4.47,7.13,1.25a7,7,0,0,1-7.13,5.37c-5,0-7.56-3.52-7.56-9.07s2.52-9.07,7.56-9.07a6.74,6.74,0,0,1,6.93,4.81l5-1.84c-2-4.81-6.44-7.51-12-7.51-7.56,0-13.11,5-13.11,13.61s5.55,13.61,13.11,13.61a10.13,10.13,0,0,0,7.69-3.48l.37,3h3.53V558.1l2.75.48Z"/><path d="M1552.83,608.56,1538.5,606l-.79,4.47,7.13,1.26a7,7,0,0,1-7.13,5.37c-5,0-7.56-3.53-7.56-9.08s2.52-9.07,7.56-9.07a6.75,6.75,0,0,1,6.93,4.82l5-1.84c-2-4.81-6.44-7.52-12-7.52-7.56,0-13.11,5-13.11,13.61s5.55,13.62,13.11,13.62a10.13,10.13,0,0,0,7.69-3.48l.37,3h3.53v-8.62l2.75.49Z"/><path d="M1637.52,554.12l-14.33-2.53-.79,4.47,7.13,1.25a7,7,0,0,1-7.13,5.37c-5,0-7.56-3.52-7.56-9.07s2.52-9.07,7.56-9.07a6.74,6.74,0,0,1,6.93,4.81l5.05-1.84c-2-4.81-6.44-7.51-12-7.51-7.56,0-13.11,5-13.11,13.61s5.55,13.61,13.11,13.61a10.13,10.13,0,0,0,7.69-3.48l.37,3H1634V558.1l2.74.48Z"/><path d="M1722.21,608.56,1707.88,606l-.79,4.47,7.13,1.26a7,7,0,0,1-7.13,5.37c-5,0-7.56-3.53-7.56-9.08s2.52-9.07,7.56-9.07a6.75,6.75,0,0,1,6.93,4.82l5-1.84c-2-4.81-6.44-7.52-12-7.52-7.56,0-13.11,5-13.11,13.61s5.55,13.62,13.11,13.62a10.13,10.13,0,0,0,7.69-3.48l.38,3h3.53v-8.62l2.74.49Z"/><path d="M1806.9,554.12l-14.33-2.53-.79,4.47,7.13,1.25a7,7,0,0,1-7.13,5.37c-5,0-7.56-3.52-7.56-9.07s2.52-9.07,7.56-9.07a6.74,6.74,0,0,1,6.93,4.81l5-1.84c-2-4.81-6.44-7.51-12-7.51-7.56,0-13.11,5-13.11,13.61s5.55,13.61,13.11,13.61a10.13,10.13,0,0,0,7.69-3.48l.38,3h3.53V558.1l2.74.48Z"/><path d="M197.79,499.67l-14.34-2.53-.79,4.47,7.13,1.26a7,7,0,0,1-7.13,5.37c-5,0-7.56-3.53-7.56-9.07s2.52-9.08,7.56-9.08a6.75,6.75,0,0,1,6.93,4.82l5-1.84c-2-4.81-6.44-7.51-12-7.51-7.56,0-13.1,5-13.1,13.61s5.54,13.61,13.1,13.61a10.17,10.17,0,0,0,7.7-3.48l.37,3h3.53v-8.61l2.74.48Z"/><path d="M113.1,445.23,98.76,442.7,98,447.17l7.13,1.25A7,7,0,0,1,98,453.8c-5,0-7.56-3.53-7.56-9.08s2.52-9.07,7.56-9.07a6.75,6.75,0,0,1,6.93,4.82l5-1.84c-2-4.81-6.44-7.52-12-7.52-7.56,0-13.11,5-13.11,13.61S90.41,458.33,98,458.33a10.13,10.13,0,0,0,7.69-3.48l.38,3h3.53v-8.62l2.74.49Z"/><path d="M282.48,445.23l-14.34-2.53-.79,4.47,7.13,1.25a7,7,0,0,1-7.13,5.38c-5,0-7.56-3.53-7.56-9.08s2.52-9.07,7.56-9.07a6.75,6.75,0,0,1,6.93,4.82l5.05-1.84c-2-4.81-6.44-7.52-12-7.52-7.56,0-13.1,5-13.1,13.61s5.54,13.61,13.1,13.61a10.17,10.17,0,0,0,7.7-3.48l.37,3H279v-8.62l2.74.49Z"/><path d="M367.17,499.67l-14.34-2.53-.78,4.47,7.12,1.26a7,7,0,0,1-7.13,5.37c-5,0-7.56-3.53-7.56-9.07s2.52-9.08,7.56-9.08a6.75,6.75,0,0,1,6.93,4.82l5-1.84c-2-4.81-6.44-7.51-12-7.51-7.56,0-13.1,5-13.1,13.61s5.54,13.61,13.1,13.61a10.17,10.17,0,0,0,7.7-3.48l.37,3h3.53v-8.61l2.74.48Z"/><path d="M451.86,445.23l-14.34-2.53-.78,4.47,7.12,1.25a7,7,0,0,1-7.13,5.38c-5,0-7.56-3.53-7.56-9.08s2.52-9.07,7.56-9.07a6.75,6.75,0,0,1,6.93,4.82l5-1.84c-2-4.81-6.44-7.52-12-7.52-7.56,0-13.1,5-13.1,13.61s5.54,13.61,13.1,13.61a10.17,10.17,0,0,0,7.7-3.48l.37,3h3.53v-8.62l2.74.49Z"/><path d="M536.55,499.67l-14.34-2.53-.78,4.47,7.12,1.26a7,7,0,0,1-7.13,5.37c-5,0-7.56-3.53-7.56-9.07s2.52-9.08,7.56-9.08a6.77,6.77,0,0,1,6.94,4.82l5-1.84c-2-4.81-6.45-7.51-12-7.51-7.56,0-13.1,5-13.1,13.61s5.54,13.61,13.1,13.61a10.16,10.16,0,0,0,7.7-3.48l.37,3H533v-8.61l2.74.48Z"/><path d="M621.24,445.23,606.9,442.7l-.78,4.47,7.12,1.25a7,7,0,0,1-7.13,5.38c-5,0-7.56-3.53-7.56-9.08s2.52-9.07,7.56-9.07a6.77,6.77,0,0,1,6.94,4.82l5.05-1.84c-2-4.81-6.45-7.52-12-7.52-7.56,0-13.1,5-13.1,13.61s5.54,13.61,13.1,13.61a10.16,10.16,0,0,0,7.7-3.48l.37,3h3.53v-8.62l2.74.49Z"/><path d="M705.93,499.67l-14.33-2.53-.79,4.47,7.12,1.26a7,7,0,0,1-7.12,5.37c-5,0-7.57-3.53-7.57-9.07s2.52-9.08,7.57-9.08a6.77,6.77,0,0,1,6.93,4.82l5-1.84c-2-4.81-6.45-7.51-12-7.51-7.57,0-13.11,5-13.11,13.61s5.54,13.61,13.11,13.61a10.15,10.15,0,0,0,7.69-3.48l.37,3h3.53v-8.61l2.74.48Z"/><path d="M790.62,445.23l-14.33-2.53-.79,4.47,7.12,1.25a7,7,0,0,1-7.12,5.38c-5,0-7.57-3.53-7.57-9.08s2.52-9.07,7.57-9.07a6.77,6.77,0,0,1,6.93,4.82l5.05-1.84c-2-4.81-6.45-7.52-12-7.52-7.57,0-13.11,5-13.11,13.61s5.54,13.61,13.11,13.61a10.15,10.15,0,0,0,7.69-3.48l.37,3h3.53v-8.62l2.74.49Z"/><path d="M197.79,390.78l-14.34-2.52-.79,4.46,7.13,1.26a7,7,0,0,1-7.13,5.37c-5,0-7.56-3.53-7.56-9.07s2.52-9.07,7.56-9.07a6.74,6.74,0,0,1,6.93,4.81l5-1.84c-2-4.81-6.44-7.51-12-7.51-7.56,0-13.1,5-13.1,13.61s5.54,13.61,13.1,13.61a10.17,10.17,0,0,0,7.7-3.48l.37,3h3.53v-8.62l2.74.48Z"/><path d="M113.1,336.34l-14.34-2.53L98,338.28l7.13,1.26A7,7,0,0,1,98,344.91c-5,0-7.56-3.53-7.56-9.07s2.52-9.08,7.56-9.08a6.75,6.75,0,0,1,6.93,4.82l5-1.84c-2-4.81-6.44-7.52-12-7.52-7.56,0-13.11,5-13.11,13.62S90.41,349.45,98,349.45a10.13,10.13,0,0,0,7.69-3.48l.38,3h3.53v-8.62l2.74.49Z"/><path d="M282.48,336.34l-14.34-2.53-.79,4.47,7.13,1.26a7,7,0,0,1-7.13,5.37c-5,0-7.56-3.53-7.56-9.07s2.52-9.08,7.56-9.08a6.75,6.75,0,0,1,6.93,4.82l5.05-1.84c-2-4.81-6.44-7.52-12-7.52-7.56,0-13.1,5-13.1,13.62s5.54,13.61,13.1,13.61a10.17,10.17,0,0,0,7.7-3.48l.37,3H279v-8.62l2.74.49Z"/><path d="M367.17,390.78l-14.34-2.52-.78,4.46,7.12,1.26a7,7,0,0,1-7.13,5.37c-5,0-7.56-3.53-7.56-9.07s2.52-9.07,7.56-9.07A6.74,6.74,0,0,1,359,386l5-1.84c-2-4.81-6.44-7.51-12-7.51-7.56,0-13.1,5-13.1,13.61s5.54,13.61,13.1,13.61a10.17,10.17,0,0,0,7.7-3.48l.37,3h3.53v-8.62l2.74.48Z"/><path d="M451.86,336.34l-14.34-2.53-.78,4.47,7.12,1.26a7,7,0,0,1-7.13,5.37c-5,0-7.56-3.53-7.56-9.07s2.52-9.08,7.56-9.08a6.75,6.75,0,0,1,6.93,4.82l5-1.84c-2-4.81-6.44-7.52-12-7.52-7.56,0-13.1,5-13.1,13.62s5.54,13.61,13.1,13.61a10.17,10.17,0,0,0,7.7-3.48l.37,3h3.53v-8.62l2.74.49Z"/><path d="M536.55,390.78l-14.34-2.52-.78,4.46,7.12,1.26a7,7,0,0,1-7.13,5.37c-5,0-7.56-3.53-7.56-9.07s2.52-9.07,7.56-9.07a6.76,6.76,0,0,1,6.94,4.81l5-1.84c-2-4.81-6.45-7.51-12-7.51-7.56,0-13.1,5-13.1,13.61s5.54,13.61,13.1,13.61a10.16,10.16,0,0,0,7.7-3.48l.37,3H533v-8.62l2.74.48Z"/><path d="M621.24,336.34l-14.34-2.53-.78,4.47,7.12,1.26a7,7,0,0,1-7.13,5.37c-5,0-7.56-3.53-7.56-9.07s2.52-9.08,7.56-9.08a6.77,6.77,0,0,1,6.94,4.82l5.05-1.84c-2-4.81-6.45-7.52-12-7.52-7.56,0-13.1,5-13.1,13.62s5.54,13.61,13.1,13.61a10.16,10.16,0,0,0,7.7-3.48l.37,3h3.53v-8.62l2.74.49Z"/><path d="M705.93,390.78l-14.33-2.52-.79,4.46,7.12,1.26a7,7,0,0,1-7.12,5.37c-5,0-7.57-3.53-7.57-9.07s2.52-9.07,7.57-9.07a6.76,6.76,0,0,1,6.93,4.81l5-1.84c-2-4.81-6.45-7.51-12-7.51-7.57,0-13.11,5-13.11,13.61s5.54,13.61,13.11,13.61a10.15,10.15,0,0,0,7.69-3.48l.37,3h3.53v-8.62l2.74.48Z"/><path d="M790.62,336.34l-14.33-2.53-.79,4.47,7.12,1.26a7,7,0,0,1-7.12,5.37c-5,0-7.57-3.53-7.57-9.07s2.52-9.08,7.57-9.08a6.77,6.77,0,0,1,6.93,4.82l5.05-1.84c-2-4.81-6.45-7.52-12-7.52-7.57,0-13.11,5-13.11,13.62s5.54,13.61,13.11,13.61a10.15,10.15,0,0,0,7.69-3.48l.37,3h3.53v-8.62l2.74.49Z"/><path d="M197.79,281.9l-14.34-2.53-.79,4.47,7.13,1.25a7,7,0,0,1-7.13,5.38c-5,0-7.56-3.53-7.56-9.08s2.52-9.07,7.56-9.07a6.75,6.75,0,0,1,6.93,4.81l5-1.83c-2-4.82-6.44-7.52-12-7.52-7.56,0-13.1,5-13.1,13.61S175.1,295,182.66,295a10.17,10.17,0,0,0,7.7-3.48l.37,3h3.53v-8.62l2.74.48Z"/><path d="M113.1,227.45l-14.34-2.53L98,229.39l7.13,1.26A7,7,0,0,1,98,236c-5,0-7.56-3.53-7.56-9.07s2.52-9.08,7.56-9.08a6.75,6.75,0,0,1,6.93,4.82l5-1.84c-2-4.81-6.44-7.51-12-7.51-7.56,0-13.11,5-13.11,13.61S90.41,240.56,98,240.56a10.13,10.13,0,0,0,7.69-3.48l.38,3h3.53v-8.61l2.74.48Z"/><path d="M282.48,227.45l-14.34-2.53-.79,4.47,7.13,1.26a7,7,0,0,1-7.13,5.37c-5,0-7.56-3.53-7.56-9.07s2.52-9.08,7.56-9.08a6.75,6.75,0,0,1,6.93,4.82l5.05-1.84c-2-4.81-6.44-7.51-12-7.51-7.56,0-13.1,5-13.1,13.61s5.54,13.61,13.1,13.61a10.17,10.17,0,0,0,7.7-3.48l.37,3H279v-8.61l2.74.48Z"/><path d="M367.17,281.9l-14.34-2.53-.78,4.47,7.12,1.25a7,7,0,0,1-7.13,5.38c-5,0-7.56-3.53-7.56-9.08s2.52-9.07,7.56-9.07a6.75,6.75,0,0,1,6.93,4.81l5-1.83c-2-4.82-6.44-7.52-12-7.52-7.56,0-13.1,5-13.1,13.61S344.48,295,352,295a10.17,10.17,0,0,0,7.7-3.48l.37,3h3.53v-8.62l2.74.48Z"/><path d="M451.86,227.45l-14.34-2.53-.78,4.47,7.12,1.26a7,7,0,0,1-7.13,5.37c-5,0-7.56-3.53-7.56-9.07s2.52-9.08,7.56-9.08a6.75,6.75,0,0,1,6.93,4.82l5-1.84c-2-4.81-6.44-7.51-12-7.51-7.56,0-13.1,5-13.1,13.61s5.54,13.61,13.1,13.61a10.17,10.17,0,0,0,7.7-3.48l.37,3h3.53v-8.61l2.74.48Z"/><path d="M536.55,281.9l-14.34-2.53-.78,4.47,7.12,1.25a7,7,0,0,1-7.13,5.38c-5,0-7.56-3.53-7.56-9.08s2.52-9.07,7.56-9.07a6.77,6.77,0,0,1,6.94,4.81l5-1.83c-2-4.82-6.45-7.52-12-7.52-7.56,0-13.1,5-13.1,13.61S513.86,295,521.42,295a10.16,10.16,0,0,0,7.7-3.48l.37,3H533v-8.62l2.74.48Z"/><path d="M621.24,227.45l-14.34-2.53-.78,4.47,7.12,1.26a7,7,0,0,1-7.13,5.37c-5,0-7.56-3.53-7.56-9.07s2.52-9.08,7.56-9.08a6.77,6.77,0,0,1,6.94,4.82l5.05-1.84c-2-4.81-6.45-7.51-12-7.51-7.56,0-13.1,5-13.1,13.61s5.54,13.61,13.1,13.61a10.16,10.16,0,0,0,7.7-3.48l.37,3h3.53v-8.61l2.74.48Z"/><path d="M705.93,281.9l-14.33-2.53-.79,4.47,7.12,1.25a7,7,0,0,1-7.12,5.38c-5,0-7.57-3.53-7.57-9.08s2.52-9.07,7.57-9.07a6.77,6.77,0,0,1,6.93,4.81l5-1.83c-2-4.82-6.45-7.52-12-7.52-7.57,0-13.11,5-13.11,13.61S683.24,295,690.81,295a10.15,10.15,0,0,0,7.69-3.48l.37,3h3.53v-8.62l2.74.48Z"/><path d="M790.62,227.45l-14.33-2.53-.79,4.47,7.12,1.26A7,7,0,0,1,775.5,236c-5,0-7.57-3.53-7.57-9.07s2.52-9.08,7.57-9.08a6.77,6.77,0,0,1,6.93,4.82l5.05-1.84c-2-4.81-6.45-7.51-12-7.51-7.57,0-13.11,5-13.11,13.61s5.54,13.61,13.11,13.61a10.15,10.15,0,0,0,7.69-3.48l.37,3h3.53v-8.61l2.74.48Z"/><path d="M875.31,499.67,861,497.14l-.79,4.47,7.12,1.26a7,7,0,0,1-7.12,5.37c-5,0-7.57-3.53-7.57-9.07s2.53-9.08,7.57-9.08a6.77,6.77,0,0,1,6.93,4.82l5-1.84c-2-4.81-6.45-7.51-12-7.51-7.57,0-13.11,5-13.11,13.61s5.54,13.61,13.11,13.61a10.15,10.15,0,0,0,7.69-3.48l.37,3h3.53v-8.61l2.74.48Z"/><path d="M960,445.23l-14.33-2.53-.79,4.47,7.13,1.25a7,7,0,0,1-7.13,5.38c-5,0-7.56-3.53-7.56-9.08s2.52-9.07,7.56-9.07a6.77,6.77,0,0,1,6.93,4.82l5.05-1.84c-2-4.81-6.45-7.52-12-7.52-7.56,0-13.11,5-13.11,13.61s5.55,13.61,13.11,13.61a10.15,10.15,0,0,0,7.69-3.48l.37,3h3.53v-8.62l2.74.49Z"/><path d="M875.31,390.78,861,388.26l-.79,4.46,7.12,1.26a7,7,0,0,1-7.12,5.37c-5,0-7.57-3.53-7.57-9.07s2.53-9.07,7.57-9.07a6.76,6.76,0,0,1,6.93,4.81l5-1.84c-2-4.81-6.45-7.51-12-7.51-7.57,0-13.11,5-13.11,13.61s5.54,13.61,13.11,13.61a10.15,10.15,0,0,0,7.69-3.48l.37,3h3.53v-8.62l2.74.48Z"/><path d="M960,336.34l-14.33-2.53-.79,4.47,7.13,1.26a7,7,0,0,1-7.13,5.37c-5,0-7.56-3.53-7.56-9.07s2.52-9.08,7.56-9.08a6.77,6.77,0,0,1,6.93,4.82l5.05-1.84c-2-4.81-6.45-7.52-12-7.52-7.56,0-13.11,5-13.11,13.62s5.55,13.61,13.11,13.61a10.15,10.15,0,0,0,7.69-3.48l.37,3h3.53v-8.62l2.74.49Z"/><path d="M875.31,281.9,861,279.37l-.79,4.47,7.12,1.25a7,7,0,0,1-7.12,5.38c-5,0-7.57-3.53-7.57-9.08s2.53-9.07,7.57-9.07a6.77,6.77,0,0,1,6.93,4.81l5-1.83c-2-4.82-6.45-7.52-12-7.52-7.57,0-13.11,5-13.11,13.61S852.62,295,860.19,295a10.15,10.15,0,0,0,7.69-3.48l.37,3h3.53v-8.62l2.74.48Z"/><path d="M960,227.45l-14.33-2.53-.79,4.47,7.13,1.26a7,7,0,0,1-7.13,5.37c-5,0-7.56-3.53-7.56-9.07s2.52-9.08,7.56-9.08a6.77,6.77,0,0,1,6.93,4.82l5.05-1.84c-2-4.81-6.45-7.51-12-7.51-7.56,0-13.11,5-13.11,13.61s5.55,13.61,13.11,13.61a10.15,10.15,0,0,0,7.69-3.48l.37,3h3.53v-8.61l2.74.48Z"/><path d="M197.79,173l-14.34-2.53-.79,4.47,7.13,1.26a7,7,0,0,1-7.13,5.37c-5,0-7.56-3.53-7.56-9.08s2.52-9.07,7.56-9.07a6.75,6.75,0,0,1,6.93,4.82l5-1.84c-2-4.81-6.44-7.52-12-7.52-7.56,0-13.1,5-13.1,13.61s5.54,13.61,13.1,13.61a10.2,10.2,0,0,0,7.7-3.47l.37,3h3.53V177l2.74.49Z"/><path d="M113.1,118.56,98.76,116,98,120.5l7.13,1.26A7,7,0,0,1,98,127.13c-5,0-7.56-3.52-7.56-9.07S92.93,109,98,109a6.74,6.74,0,0,1,6.93,4.81l5-1.84c-2-4.81-6.44-7.51-12-7.51-7.56,0-13.11,5-13.11,13.61S90.41,131.67,98,131.67a10.13,10.13,0,0,0,7.69-3.48l.38,3h3.53v-8.62l2.74.48Z"/><path d="M282.48,118.56,268.14,116l-.79,4.46,7.13,1.26a7,7,0,0,1-7.13,5.37c-5,0-7.56-3.52-7.56-9.07s2.52-9.07,7.56-9.07a6.74,6.74,0,0,1,6.93,4.81l5.05-1.84c-2-4.81-6.44-7.51-12-7.51-7.56,0-13.1,5-13.1,13.61s5.54,13.61,13.1,13.61a10.17,10.17,0,0,0,7.7-3.48l.37,3H279v-8.62l2.74.48Z"/><path d="M367.17,173l-14.34-2.53-.78,4.47,7.12,1.26a7,7,0,0,1-7.13,5.37c-5,0-7.56-3.53-7.56-9.08s2.52-9.07,7.56-9.07a6.75,6.75,0,0,1,6.93,4.82l5-1.84c-2-4.81-6.44-7.52-12-7.52-7.56,0-13.1,5-13.1,13.61s5.54,13.61,13.1,13.61a10.2,10.2,0,0,0,7.7-3.47l.37,3h3.53V177l2.74.49Z"/><path d="M451.86,118.56,437.52,116l-.78,4.46,7.12,1.26a7,7,0,0,1-7.13,5.37c-5,0-7.56-3.52-7.56-9.07s2.52-9.07,7.56-9.07a6.74,6.74,0,0,1,6.93,4.81l5-1.84c-2-4.81-6.44-7.51-12-7.51-7.56,0-13.1,5-13.1,13.61s5.54,13.61,13.1,13.61a10.17,10.17,0,0,0,7.7-3.48l.37,3h3.53v-8.62l2.74.48Z"/><path d="M536.55,173l-14.34-2.53-.78,4.47,7.12,1.26a7,7,0,0,1-7.13,5.37c-5,0-7.56-3.53-7.56-9.08s2.52-9.07,7.56-9.07a6.77,6.77,0,0,1,6.94,4.82l5-1.84c-2-4.81-6.45-7.52-12-7.52-7.56,0-13.1,5-13.1,13.61s5.54,13.61,13.1,13.61a10.18,10.18,0,0,0,7.7-3.47l.37,3H533V177l2.74.49Z"/><path d="M621.24,118.56,606.9,116l-.78,4.46,7.12,1.26a7,7,0,0,1-7.13,5.37c-5,0-7.56-3.52-7.56-9.07s2.52-9.07,7.56-9.07a6.76,6.76,0,0,1,6.94,4.81L618.1,112c-2-4.81-6.45-7.51-12-7.51-7.56,0-13.1,5-13.1,13.61s5.54,13.61,13.1,13.61a10.16,10.16,0,0,0,7.7-3.48l.37,3h3.53v-8.62l2.74.48Z"/><path d="M705.93,173l-14.33-2.53-.79,4.47,7.12,1.26a7,7,0,0,1-7.12,5.37c-5,0-7.57-3.53-7.57-9.08s2.52-9.07,7.57-9.07a6.77,6.77,0,0,1,6.93,4.82l5-1.84c-2-4.81-6.45-7.52-12-7.52-7.57,0-13.11,5-13.11,13.61s5.54,13.61,13.11,13.61a10.18,10.18,0,0,0,7.69-3.47l.37,3h3.53V177l2.74.49Z"/><path d="M790.62,118.56,776.29,116l-.79,4.46,7.12,1.26a7,7,0,0,1-7.12,5.37c-5,0-7.57-3.52-7.57-9.07s2.52-9.07,7.57-9.07a6.76,6.76,0,0,1,6.93,4.81l5.05-1.84c-2-4.81-6.45-7.51-12-7.51-7.57,0-13.11,5-13.11,13.61s5.54,13.61,13.11,13.61a10.15,10.15,0,0,0,7.69-3.48l.37,3h3.53v-8.62l2.74.48Z"/><path d="M875.31,173,861,170.48l-.79,4.47,7.12,1.26a7,7,0,0,1-7.12,5.37c-5,0-7.57-3.53-7.57-9.08s2.53-9.07,7.57-9.07a6.77,6.77,0,0,1,6.93,4.82l5-1.84c-2-4.81-6.45-7.52-12-7.52-7.57,0-13.11,5-13.11,13.61s5.54,13.61,13.11,13.61a10.18,10.18,0,0,0,7.69-3.47l.37,3h3.53V177l2.74.49Z"/><path d="M960,118.56,945.67,116l-.79,4.46,7.13,1.26a7,7,0,0,1-7.13,5.37c-5,0-7.56-3.52-7.56-9.07s2.52-9.07,7.56-9.07a6.76,6.76,0,0,1,6.93,4.81l5.05-1.84c-2-4.81-6.45-7.51-12-7.51-7.56,0-13.11,5-13.11,13.61s5.55,13.61,13.11,13.61a10.15,10.15,0,0,0,7.69-3.48l.37,3h3.53v-8.62l2.74.48Z"/><path d="M1044.69,499.67l-14.33-2.53-.79,4.47,7.13,1.26a7,7,0,0,1-7.13,5.37c-5,0-7.56-3.53-7.56-9.07s2.52-9.08,7.56-9.08a6.77,6.77,0,0,1,6.93,4.82l5-1.84c-2-4.81-6.45-7.51-12-7.51-7.56,0-13.11,5-13.11,13.61s5.55,13.61,13.11,13.61a10.15,10.15,0,0,0,7.69-3.48l.37,3h3.53v-8.61l2.74.48Z"/><path d="M1129.38,445.23l-14.33-2.53-.79,4.47,7.13,1.25a7,7,0,0,1-7.13,5.38c-5,0-7.56-3.53-7.56-9.08s2.52-9.07,7.56-9.07a6.77,6.77,0,0,1,6.93,4.82l5-1.84c-2-4.81-6.45-7.52-12-7.52-7.56,0-13.11,5-13.11,13.61s5.55,13.61,13.11,13.61a10.13,10.13,0,0,0,7.69-3.48l.37,3h3.53v-8.62l2.74.49Z"/><path d="M1214.07,499.67l-14.33-2.53-.79,4.47,7.13,1.26a7,7,0,0,1-7.13,5.37c-5,0-7.56-3.53-7.56-9.07s2.52-9.08,7.56-9.08a6.76,6.76,0,0,1,6.93,4.82l5-1.84c-2-4.81-6.45-7.51-12-7.51-7.56,0-13.11,5-13.11,13.61s5.55,13.61,13.11,13.61a10.13,10.13,0,0,0,7.69-3.48l.37,3h3.53v-8.61l2.74.48Z"/><path d="M1298.76,445.23l-14.33-2.53-.79,4.47,7.13,1.25a7,7,0,0,1-7.13,5.38c-5,0-7.56-3.53-7.56-9.08s2.52-9.07,7.56-9.07a6.76,6.76,0,0,1,6.93,4.82l5-1.84c-2-4.81-6.44-7.52-12-7.52-7.56,0-13.11,5-13.11,13.61s5.55,13.61,13.11,13.61a10.13,10.13,0,0,0,7.69-3.48l.37,3h3.53v-8.62l2.74.49Z"/><path d="M1383.45,499.67l-14.33-2.53-.79,4.47,7.13,1.26a7,7,0,0,1-7.13,5.37c-5,0-7.56-3.53-7.56-9.07s2.52-9.08,7.56-9.08a6.75,6.75,0,0,1,6.93,4.82l5-1.84c-2-4.81-6.44-7.51-12-7.51-7.56,0-13.11,5-13.11,13.61s5.55,13.61,13.11,13.61a10.13,10.13,0,0,0,7.69-3.48l.37,3h3.53v-8.61l2.74.48Z"/><path d="M1468.14,445.23l-14.33-2.53-.79,4.47,7.13,1.25a7,7,0,0,1-7.13,5.38c-5,0-7.56-3.53-7.56-9.08s2.52-9.07,7.56-9.07a6.75,6.75,0,0,1,6.93,4.82l5-1.84c-2-4.81-6.44-7.52-12-7.52-7.56,0-13.11,5-13.11,13.61s5.55,13.61,13.11,13.61a10.13,10.13,0,0,0,7.69-3.48l.37,3h3.53v-8.62l2.75.49Z"/><path d="M1552.83,499.67l-14.33-2.53-.79,4.47,7.13,1.26a7,7,0,0,1-7.13,5.37c-5,0-7.56-3.53-7.56-9.07s2.52-9.08,7.56-9.08a6.75,6.75,0,0,1,6.93,4.82l5-1.84c-2-4.81-6.44-7.51-12-7.51-7.56,0-13.11,5-13.11,13.61s5.55,13.61,13.11,13.61a10.13,10.13,0,0,0,7.69-3.48l.37,3h3.53v-8.61l2.75.48Z"/><path d="M1637.52,445.23l-14.33-2.53-.79,4.47,7.13,1.25a7,7,0,0,1-7.13,5.38c-5,0-7.56-3.53-7.56-9.08s2.52-9.07,7.56-9.07a6.75,6.75,0,0,1,6.93,4.82l5.05-1.84c-2-4.81-6.44-7.52-12-7.52-7.56,0-13.11,5-13.11,13.61s5.55,13.61,13.11,13.61a10.13,10.13,0,0,0,7.69-3.48l.37,3H1634v-8.62l2.74.49Z"/><path d="M1044.69,390.78l-14.33-2.52-.79,4.46,7.13,1.26a7,7,0,0,1-7.13,5.37c-5,0-7.56-3.53-7.56-9.07s2.52-9.07,7.56-9.07a6.76,6.76,0,0,1,6.93,4.81l5-1.84c-2-4.81-6.45-7.51-12-7.51-7.56,0-13.11,5-13.11,13.61s5.55,13.61,13.11,13.61a10.15,10.15,0,0,0,7.69-3.48l.37,3h3.53v-8.62l2.74.48Z"/><path d="M1129.38,336.34l-14.33-2.53-.79,4.47,7.13,1.26a7,7,0,0,1-7.13,5.37c-5,0-7.56-3.53-7.56-9.07s2.52-9.08,7.56-9.08a6.77,6.77,0,0,1,6.93,4.82l5-1.84c-2-4.81-6.45-7.52-12-7.52-7.56,0-13.11,5-13.11,13.62s5.55,13.61,13.11,13.61A10.13,10.13,0,0,0,1122,346l.37,3h3.53v-8.62l2.74.49Z"/><path d="M1214.07,390.78l-14.33-2.52-.79,4.46,7.13,1.26a7,7,0,0,1-7.13,5.37c-5,0-7.56-3.53-7.56-9.07s2.52-9.07,7.56-9.07a6.75,6.75,0,0,1,6.93,4.81l5-1.84c-2-4.81-6.45-7.51-12-7.51-7.56,0-13.11,5-13.11,13.61s5.55,13.61,13.11,13.61a10.13,10.13,0,0,0,7.69-3.48l.37,3h3.53v-8.62l2.74.48Z"/><path d="M1298.76,336.34l-14.33-2.53-.79,4.47,7.13,1.26a7,7,0,0,1-7.13,5.37c-5,0-7.56-3.53-7.56-9.07s2.52-9.08,7.56-9.08a6.76,6.76,0,0,1,6.93,4.82l5-1.84c-2-4.81-6.44-7.52-12-7.52-7.56,0-13.11,5-13.11,13.62s5.55,13.61,13.11,13.61a10.13,10.13,0,0,0,7.69-3.48l.37,3h3.53v-8.62l2.74.49Z"/><path d="M1383.45,390.78l-14.33-2.52-.79,4.46,7.13,1.26a7,7,0,0,1-7.13,5.37c-5,0-7.56-3.53-7.56-9.07s2.52-9.07,7.56-9.07a6.74,6.74,0,0,1,6.93,4.81l5-1.84c-2-4.81-6.44-7.51-12-7.51-7.56,0-13.11,5-13.11,13.61s5.55,13.61,13.11,13.61a10.13,10.13,0,0,0,7.69-3.48l.37,3h3.53v-8.62l2.74.48Z"/><path d="M1468.14,336.34l-14.33-2.53-.79,4.47,7.13,1.26a7,7,0,0,1-7.13,5.37c-5,0-7.56-3.53-7.56-9.07s2.52-9.08,7.56-9.08a6.75,6.75,0,0,1,6.93,4.82l5-1.84c-2-4.81-6.44-7.52-12-7.52-7.56,0-13.11,5-13.11,13.62s5.55,13.61,13.11,13.61a10.13,10.13,0,0,0,7.69-3.48l.37,3h3.53v-8.62l2.75.49Z"/><path d="M1552.83,390.78l-14.33-2.52-.79,4.46,7.13,1.26a7,7,0,0,1-7.13,5.37c-5,0-7.56-3.53-7.56-9.07s2.52-9.07,7.56-9.07a6.74,6.74,0,0,1,6.93,4.81l5-1.84c-2-4.81-6.44-7.51-12-7.51-7.56,0-13.11,5-13.11,13.61s5.55,13.61,13.11,13.61a10.13,10.13,0,0,0,7.69-3.48l.37,3h3.53v-8.62l2.75.48Z"/><path d="M1637.52,336.34l-14.33-2.53-.79,4.47,7.13,1.26a7,7,0,0,1-7.13,5.37c-5,0-7.56-3.53-7.56-9.07s2.52-9.08,7.56-9.08a6.75,6.75,0,0,1,6.93,4.82l5.05-1.84c-2-4.81-6.44-7.52-12-7.52-7.56,0-13.11,5-13.11,13.62s5.55,13.61,13.11,13.61a10.13,10.13,0,0,0,7.69-3.48l.37,3H1634v-8.62l2.74.49Z"/><path d="M1044.69,281.9l-14.33-2.53-.79,4.47,7.13,1.25a7,7,0,0,1-7.13,5.38c-5,0-7.56-3.53-7.56-9.08s2.52-9.07,7.56-9.07a6.77,6.77,0,0,1,6.93,4.81l5-1.83c-2-4.82-6.45-7.52-12-7.52-7.56,0-13.11,5-13.11,13.61S1022,295,1029.57,295a10.15,10.15,0,0,0,7.69-3.48l.37,3h3.53v-8.62l2.74.48Z"/><path d="M1129.38,227.45l-14.33-2.53-.79,4.47,7.13,1.26a7,7,0,0,1-7.13,5.37c-5,0-7.56-3.53-7.56-9.07s2.52-9.08,7.56-9.08a6.77,6.77,0,0,1,6.93,4.82l5-1.84c-2-4.81-6.45-7.51-12-7.51-7.56,0-13.11,5-13.11,13.61s5.55,13.61,13.11,13.61a10.13,10.13,0,0,0,7.69-3.48l.37,3h3.53v-8.61l2.74.48Z"/><path d="M1214.07,281.9l-14.33-2.53-.79,4.47,7.13,1.25a7,7,0,0,1-7.13,5.38c-5,0-7.56-3.53-7.56-9.08s2.52-9.07,7.56-9.07a6.76,6.76,0,0,1,6.93,4.81l5-1.83c-2-4.82-6.45-7.52-12-7.52-7.56,0-13.11,5-13.11,13.61S1191.39,295,1199,295a10.13,10.13,0,0,0,7.69-3.48l.37,3h3.53v-8.62l2.74.48Z"/><path d="M1298.76,227.45l-14.33-2.53-.79,4.47,7.13,1.26a7,7,0,0,1-7.13,5.37c-5,0-7.56-3.53-7.56-9.07s2.52-9.08,7.56-9.08a6.76,6.76,0,0,1,6.93,4.82l5-1.84c-2-4.81-6.44-7.51-12-7.51-7.56,0-13.11,5-13.11,13.61s5.55,13.61,13.11,13.61a10.13,10.13,0,0,0,7.69-3.48l.37,3h3.53v-8.61l2.74.48Z"/><path d="M1383.45,281.9l-14.33-2.53-.79,4.47,7.13,1.25a7,7,0,0,1-7.13,5.38c-5,0-7.56-3.53-7.56-9.08s2.52-9.07,7.56-9.07a6.75,6.75,0,0,1,6.93,4.81l5-1.83c-2-4.82-6.44-7.52-12-7.52-7.56,0-13.11,5-13.11,13.61s5.55,13.61,13.11,13.61a10.13,10.13,0,0,0,7.69-3.48l.37,3h3.53v-8.62l2.74.48Z"/><path d="M1468.14,227.45l-14.33-2.53-.79,4.47,7.13,1.26A7,7,0,0,1,1453,236c-5,0-7.56-3.53-7.56-9.07s2.52-9.08,7.56-9.08a6.75,6.75,0,0,1,6.93,4.82l5-1.84c-2-4.81-6.44-7.51-12-7.51-7.56,0-13.11,5-13.11,13.61s5.55,13.61,13.11,13.61a10.13,10.13,0,0,0,7.69-3.48l.37,3h3.53v-8.61l2.75.48Z"/><path d="M1552.83,281.9l-14.33-2.53-.79,4.47,7.13,1.25a7,7,0,0,1-7.13,5.38c-5,0-7.56-3.53-7.56-9.08s2.52-9.07,7.56-9.07a6.75,6.75,0,0,1,6.93,4.81l5-1.83c-2-4.82-6.44-7.52-12-7.52-7.56,0-13.11,5-13.11,13.61s5.55,13.61,13.11,13.61a10.13,10.13,0,0,0,7.69-3.48l.37,3h3.53v-8.62l2.75.48Z"/><path d="M1637.52,227.45l-14.33-2.53-.79,4.47,7.13,1.26a7,7,0,0,1-7.13,5.37c-5,0-7.56-3.53-7.56-9.07s2.52-9.08,7.56-9.08a6.75,6.75,0,0,1,6.93,4.82l5.05-1.84c-2-4.81-6.44-7.51-12-7.51-7.56,0-13.11,5-13.11,13.61s5.55,13.61,13.11,13.61a10.13,10.13,0,0,0,7.69-3.48l.37,3H1634v-8.61l2.74.48Z"/><path d="M1722.21,499.67l-14.33-2.53-.79,4.47,7.13,1.26a7,7,0,0,1-7.13,5.37c-5,0-7.56-3.53-7.56-9.07s2.52-9.08,7.56-9.08a6.75,6.75,0,0,1,6.93,4.82l5-1.84c-2-4.81-6.44-7.51-12-7.51-7.56,0-13.11,5-13.11,13.61s5.55,13.61,13.11,13.61a10.13,10.13,0,0,0,7.69-3.48l.38,3h3.53v-8.61l2.74.48Z"/><path d="M1806.9,445.23l-14.33-2.53-.79,4.47,7.13,1.25a7,7,0,0,1-7.13,5.38c-5,0-7.56-3.53-7.56-9.08s2.52-9.07,7.56-9.07a6.75,6.75,0,0,1,6.93,4.82l5-1.84c-2-4.81-6.44-7.52-12-7.52-7.56,0-13.11,5-13.11,13.61s5.55,13.61,13.11,13.61a10.13,10.13,0,0,0,7.69-3.48l.38,3h3.53v-8.62l2.74.49Z"/><path d="M1722.21,390.78l-14.33-2.52-.79,4.46,7.13,1.26a7,7,0,0,1-7.13,5.37c-5,0-7.56-3.53-7.56-9.07s2.52-9.07,7.56-9.07A6.74,6.74,0,0,1,1714,386l5-1.84c-2-4.81-6.44-7.51-12-7.51-7.56,0-13.11,5-13.11,13.61s5.55,13.61,13.11,13.61a10.13,10.13,0,0,0,7.69-3.48l.38,3h3.53v-8.62l2.74.48Z"/><path d="M1806.9,336.34l-14.33-2.53-.79,4.47,7.13,1.26a7,7,0,0,1-7.13,5.37c-5,0-7.56-3.53-7.56-9.07s2.52-9.08,7.56-9.08a6.75,6.75,0,0,1,6.93,4.82l5-1.84c-2-4.81-6.44-7.52-12-7.52-7.56,0-13.11,5-13.11,13.62s5.55,13.61,13.11,13.61a10.13,10.13,0,0,0,7.69-3.48l.38,3h3.53v-8.62l2.74.49Z"/><path d="M1722.21,281.9l-14.33-2.53-.79,4.47,7.13,1.25a7,7,0,0,1-7.13,5.38c-5,0-7.56-3.53-7.56-9.08s2.52-9.07,7.56-9.07a6.75,6.75,0,0,1,6.93,4.81l5-1.83c-2-4.82-6.44-7.52-12-7.52-7.56,0-13.11,5-13.11,13.61s5.55,13.61,13.11,13.61a10.13,10.13,0,0,0,7.69-3.48l.38,3h3.53v-8.62l2.74.48Z"/><path d="M1806.9,227.45l-14.33-2.53-.79,4.47,7.13,1.26a7,7,0,0,1-7.13,5.37c-5,0-7.56-3.53-7.56-9.07s2.52-9.08,7.56-9.08a6.75,6.75,0,0,1,6.93,4.82l5-1.84c-2-4.81-6.44-7.51-12-7.51-7.56,0-13.11,5-13.11,13.61s5.55,13.61,13.11,13.61a10.13,10.13,0,0,0,7.69-3.48l.38,3h3.53v-8.61l2.74.48Z"/><path d="M1044.69,173l-14.33-2.53-.79,4.47,7.13,1.26a7,7,0,0,1-7.13,5.37c-5,0-7.56-3.53-7.56-9.08s2.52-9.07,7.56-9.07a6.77,6.77,0,0,1,6.93,4.82l5-1.84c-2-4.81-6.45-7.52-12-7.52-7.56,0-13.11,5-13.11,13.61s5.55,13.61,13.11,13.61a10.18,10.18,0,0,0,7.69-3.47l.37,3h3.53V177l2.74.49Z"/><path d="M1129.38,118.56,1115.05,116l-.79,4.46,7.13,1.26a7,7,0,0,1-7.13,5.37c-5,0-7.56-3.52-7.56-9.07s2.52-9.07,7.56-9.07a6.76,6.76,0,0,1,6.93,4.81l5-1.84c-2-4.81-6.45-7.51-12-7.51-7.56,0-13.11,5-13.11,13.61s5.55,13.61,13.11,13.61a10.13,10.13,0,0,0,7.69-3.48l.37,3h3.53v-8.62l2.74.48Z"/><path d="M1214.07,173l-14.33-2.53L1199,175l7.13,1.26a7,7,0,0,1-7.13,5.37c-5,0-7.56-3.53-7.56-9.08s2.52-9.07,7.56-9.07a6.76,6.76,0,0,1,6.93,4.82l5-1.84c-2-4.81-6.45-7.52-12-7.52-7.56,0-13.11,5-13.11,13.61s5.55,13.61,13.11,13.61a10.16,10.16,0,0,0,7.69-3.47l.37,3h3.53V177l2.74.49Z"/><path d="M1298.76,118.56,1284.43,116l-.79,4.46,7.13,1.26a7,7,0,0,1-7.13,5.37c-5,0-7.56-3.52-7.56-9.07s2.52-9.07,7.56-9.07a6.75,6.75,0,0,1,6.93,4.81l5-1.84c-2-4.81-6.44-7.51-12-7.51-7.56,0-13.11,5-13.11,13.61s5.55,13.61,13.11,13.61a10.13,10.13,0,0,0,7.69-3.48l.37,3h3.53v-8.62l2.74.48Z"/><path d="M1383.45,173l-14.33-2.53-.79,4.47,7.13,1.26a7,7,0,0,1-7.13,5.37c-5,0-7.56-3.53-7.56-9.08s2.52-9.07,7.56-9.07a6.75,6.75,0,0,1,6.93,4.82l5-1.84c-2-4.81-6.44-7.52-12-7.52-7.56,0-13.11,5-13.11,13.61s5.55,13.61,13.11,13.61a10.16,10.16,0,0,0,7.69-3.47l.37,3h3.53V177l2.74.49Z"/><path d="M1468.14,118.56,1453.81,116l-.79,4.46,7.13,1.26a7,7,0,0,1-7.13,5.37c-5,0-7.56-3.52-7.56-9.07S1448,109,1453,109a6.74,6.74,0,0,1,6.93,4.81l5-1.84c-2-4.81-6.44-7.51-12-7.51-7.56,0-13.11,5-13.11,13.61s5.55,13.61,13.11,13.61a10.13,10.13,0,0,0,7.69-3.48l.37,3h3.53v-8.62l2.75.48Z"/><path d="M1552.83,173l-14.33-2.53-.79,4.47,7.13,1.26a7,7,0,0,1-7.13,5.37c-5,0-7.56-3.53-7.56-9.08s2.52-9.07,7.56-9.07a6.75,6.75,0,0,1,6.93,4.82l5-1.84c-2-4.81-6.44-7.52-12-7.52-7.56,0-13.11,5-13.11,13.61s5.55,13.61,13.11,13.61a10.16,10.16,0,0,0,7.69-3.47l.37,3h3.53V177l2.75.49Z"/><path d="M1637.52,118.56,1623.19,116l-.79,4.46,7.13,1.26a7,7,0,0,1-7.13,5.37c-5,0-7.56-3.52-7.56-9.07s2.52-9.07,7.56-9.07a6.74,6.74,0,0,1,6.93,4.81l5.05-1.84c-2-4.81-6.44-7.51-12-7.51-7.56,0-13.11,5-13.11,13.61s5.55,13.61,13.11,13.61a10.13,10.13,0,0,0,7.69-3.48l.37,3H1634v-8.62l2.74.48Z"/><path d="M1722.21,173l-14.33-2.53-.79,4.47,7.13,1.26a7,7,0,0,1-7.13,5.37c-5,0-7.56-3.53-7.56-9.08s2.52-9.07,7.56-9.07a6.75,6.75,0,0,1,6.93,4.82l5-1.84c-2-4.81-6.44-7.52-12-7.52-7.56,0-13.11,5-13.11,13.61s5.55,13.61,13.11,13.61a10.16,10.16,0,0,0,7.69-3.47l.38,3h3.53V177l2.74.49Z"/><path d="M1806.9,118.56,1792.57,116l-.79,4.46,7.13,1.26a7,7,0,0,1-7.13,5.37c-5,0-7.56-3.52-7.56-9.07s2.52-9.07,7.56-9.07a6.74,6.74,0,0,1,6.93,4.81l5-1.84c-2-4.81-6.44-7.51-12-7.51-7.56,0-13.11,5-13.11,13.61s5.55,13.61,13.11,13.61a10.13,10.13,0,0,0,7.69-3.48l.38,3h3.53v-8.62l2.74.48Z"/></g></svg>