<svg xmlns="http://www.w3.org/2000/svg" viewBox="0 0 1920 1080"><defs><style>.cls-1{fill:#fff;}</style></defs><g id="Layer_2" data-name="Layer 2"><rect class="cls-1" width="1920" height="1080"/></g><g id="Layer_1" data-name="Layer 1"><path d="M1362.19,462l-56.78,156h28.73l10.92-30h70.57l10.92,30h28.74l-56.78-156Zm-7.3,99,25.46-69.95L1405.81,561Z"/><polygon points="819.8 489 819.8 462 705.8 462 705.8 618 819.8 618 819.8 591 738.8 591 738.8 549 807.8 549 807.8 522 738.8 522 738.8 489 819.8 489"/><path d="M619.65,543l-85.3-15-4.68,26.59,42.4,7.48c-5.45,18.74-19.58,32-42.42,32-30,0-45-21-45-54s15-54,45-54c21.35,0,35.09,10.64,41.25,28.66L601,503.72C589.12,475.09,562.6,459,529.65,459c-45,0-78,30-78,81s33,81,78,81c18.49,0,34.29-7.86,45.78-20.7l2.21,17.7h21V566.71L615,569.59Z"/><path d="M992.33,528.86l-26.67-4.71c-14-2.46-23.37-8.15-23.37-20.15s10.92-18,25.5-18c12.53,0,23,6.65,25.7,14.24l29.79-10.84c-7.36-17.31-27.72-30.4-55.49-30.4h0c-35.19,0-58.5,18-58.5,45s20.46,41.24,43.61,45.32l24.45,4.31c13.08,2.31,21.94,10.25,21.94,19.37,0,15-13.69,21-31.5,21-14.94,0-27.76-8.65-31.29-16.78l-30.21,11c7.93,19.27,30.93,32.78,61.5,32.78,38.11,0,64.5-18,64.5-48C1032.29,549,1016.52,533.12,992.33,528.86Z"/><path d="M1196.32,528.86l-26.67-4.71c-14-2.46-23.37-8.15-23.37-20.15s10.93-18,25.5-18c12.53,0,23,6.65,25.71,14.24l29.78-10.84c-7.36-17.31-27.72-30.4-55.49-30.4h0c-35.18,0-58.5,18-58.5,45s20.46,41.24,43.61,45.32l24.46,4.31c13.07,2.31,21.93,10.25,21.93,19.37,0,15-13.69,21-31.5,21-14.94,0-27.76-8.65-31.29-16.78l-30.2,11c7.92,19.27,30.93,32.78,61.49,32.78,38.11,0,64.5-18,64.5-48C1236.28,549,1220.51,533.12,1196.32,528.86Z"/></g></svg>