<svg xmlns="http://www.w3.org/2000/svg" viewBox="0 0 1920 1080"><g id="Graphics"><path d="M174.12,203.26,165,177.92H120.5l-9.1,25.34h-13l36-99.4H151.3l36.12,99.4ZM124.28,167h37l-4.62-13q-9.37-25.9-14-40.46-3.23,10.37-5.74,17.78-1.12,3.22-2.8,8.19c-1.12,3.31-1.87,5.44-2.24,6.37l-2.94,8.26Z"/><path d="M258.52,150.76a26.82,26.82,0,0,1,13.93,9q5,6.3,5,15.68,0,12.89-8.33,20.37t-22.19,7.49H201v-99.4h44q13.31,0,21.14,6.58t7.84,18.62a22.8,22.8,0,0,1-4.06,13.65A21.79,21.79,0,0,1,258.52,150.76ZM214,114.22V146h28.28q9,0,14-4.27t5-12q0-7.56-5-11.55t-14.07-4Zm0,78.68h28.84q10.5,0,16.1-4.83t5.6-13.37q0-8.4-5.74-13.37t-15.82-5H214Z"/><path d="M336.63,101.62a47,47,0,0,1,17.78,3.29q8.11,3.28,17.08,11l-7.42,8.82q-7.71-6.59-14.07-9.17A35.47,35.47,0,0,0,336.49,113q-15.83,0-25.2,11.27t-9.38,29.33q0,17.92,9.38,29.26t24.36,11.34a31.62,31.62,0,0,0,14.56-3.29q6.44-3.28,15.26-11.27l7.84,8.68q-9.53,9.38-18.06,13.3a45.9,45.9,0,0,1-19.32,3.92q-21.71,0-34.44-14.49t-12.74-37.59q0-23.1,12.74-37.45T336.63,101.62Z"/><path d="M387.57,103.86h37.24q20.58,0,32.27,13.65t11.69,36.05q0,22.4-11.69,36.05t-32.27,13.65H387.57Zm35.14,10.78H400.59v77.84h22.12q15.68,0,24.29-10.29t8.61-28.63q0-18.19-8.68-28.56T422.71,114.64Z"/><path d="M552.05,103.86v10.78h-53.2V146.7h49.56v10.78H498.85v35h54.46v10.78H485.83v-99.4Z"/><path d="M637.3,103.86v10.78H584.1V148.8h49.14v10.78H584.1v43.68h-13v-99.4Z"/><path d="M691.6,162.1V151.18h43.82v52.08H725.34l-1-12.74q-9.11,14.83-31.08,14.84-21.56,0-34.09-14.28t-12.53-37.52q0-22.68,13.09-37.24t35.07-14.56a50.35,50.35,0,0,1,21.7,4.55q9.66,4.55,19,14.35l-8.26,8.4q-9-8.69-16.17-12.32a36,36,0,0,0-16.45-3.64q-15.67,0-25.27,11.13t-9.59,29.33q0,18.62,9.17,29.61t25,11q13.31,0,21.35-7.63t8-20.51V162.1Z"/><path d="M835.37,103.86v99.4h-13v-46.2H769v46.2H756v-99.4h13v42.42h53.34V103.86Z"/><path d="M872,103.86v99.4H859v-99.4Z"/><path d="M938.37,103.86v73.78q0,27.3-26.88,27.3a53.67,53.67,0,0,1-25.34-6.58l4.48-10.08q12.6,5.33,20.44,5.32,14.41,0,14.42-17.08V103.86Z"/><path d="M1025.3,203.26l-34-51.24-17.78,18.2v33h-13v-99.4h13v50.82l48.44-50.82h16L1000,142.92l40,60.34Z"/><path d="M1065.32,103.86v88.48h46.48v10.92h-59.5v-99.4Z"/><path d="M1205.16,103.86h20.72v99.4h-12.6v-49.7q0-5.33.28-40.32-4.2,12.47-8.82,25.34l-5.18,15-17.36,49.7h-11.48l-17.78-49.7a11,11,0,0,0-.49-1.47q-.5-1.34-1.75-4.9t-2.52-7.07q-.56-1.55-4.34-12.32-3.08-8.68-4.9-14.42.29,17.64.28,40.32v49.56H1126.9v-99.4h20.72l15.54,43.82q8.82,24.36,13.44,40,3.64-12.74,13.16-40Z"/><path d="M1315.61,103.86h12.6v99.4h-14.29L1284.38,158q-3.21-5.32-6-9.38-13.3-20.44-17.92-28.7.69,17.08.7,38.64v44.66h-12.61v-99.4h14.57l29.81,45.92c.47.84,1.08,1.8,1.83,2.87s1.16,1.7,1.25,1.89q8.55,13.31,9,13.86,4.49,7,11.21,18.48-.57-14-.56-37.66Z"/><path d="M1358.22,116.25q12.94-14.62,34.37-14.63t34.3,14.63q12.87,14.63,12.88,37.31t-12.88,37.31q-12.89,14.63-34.3,14.63t-34.37-14.63q-13-14.62-13-37.31T1358.22,116.25Zm34.37-3.29q-15.12,0-24.64,11.41t-9.52,29.19q0,17.92,9.45,29.26t24.71,11.34q15.26,0,24.64-11.27t9.38-29.33q0-17.92-9.38-29.26T1392.59,113Z"/><path d="M1456.83,103.86h42.84q14.83,0,23.59,7.91t8.75,21.77q0,13.86-8.82,21.84t-23.52,8h-29.82v39.9h-13Zm40.88,10.78h-27.86v37.94h27.86q10.08,0,15.75-5t5.67-14.07q0-9.1-5.67-14T1497.71,114.64Z"/><path d="M1636.85,153.56q0,26.88-16.52,41l8.54,11.34-9.38,6.58-8.68-11.62a48.34,48.34,0,0,1-21.14,4.62q-21.42,0-34.37-14.63t-13-37.31q0-22.68,13-37.31t34.37-14.63q21.42,0,34.3,14.63T1636.85,153.56Zm-47.18,40.6a32.37,32.37,0,0,0,13.86-2.94l-13.16-17.36,9.24-6.58,13.16,17.36q10.92-10.92,10.92-31.08,0-17.92-9.38-29.26T1589.67,113q-15.12,0-24.64,11.41t-9.52,29.19q0,17.92,9.45,29.26T1589.67,194.16Z"/><path d="M1731.34,203.26h-14.56l-26.6-39.9h-23.24v39.9h-13v-99.4h41.86q14.13,0,23.17,8t9,21.63q0,11.47-6.44,19.18t-17.5,9.8Zm-64.4-88.62v37.94h26.74q10.08,0,15.75-5t5.67-14.07q0-9.1-5.74-14t-15.82-4.9Z"/><path d="M1779.06,101.76a53.72,53.72,0,0,1,19.88,3.43,63.1,63.1,0,0,1,17.64,11.13l-7.56,9q-7.85-6.86-14.63-9.66a39.85,39.85,0,0,0-15.33-2.8q-10.08,0-16.45,4.55t-6.37,11.69q0,9.24,11.34,12.88a122,122,0,0,0,16,4.2q19.32,4.62,26.74,10.64t7.7,17.92q0,13.73-10.29,22.26t-26.39,8.54q-12.46,0-21.56-4.06a78,78,0,0,1-20.3-13.16l7.7-9.1q10.36,8.69,18.2,11.9a41.25,41.25,0,0,0,16.1,3.22q10.5,0,17.08-5.11a16.54,16.54,0,0,0,6.58-13.79q0-10.08-11.76-14.28-5.33-1.81-16-4.2-19.32-4.33-26.53-10.15t-7.21-17.43q0-12,10.22-19.81T1779.06,101.76Z"/><path d="M175.52,253.86v10.92H144.3v88.48H131.42V264.78H100.2V253.86Z"/><path d="M265.4,253.86v67.76q0,16.51-9.52,25.13t-28,8.61q-18.34,0-27.86-8.61t-9.52-25.13V253.86h12.88v67.06q0,11.34,6.23,17.22T227.88,344q12,0,18.27-5.88t6.23-17.22V253.86Z"/><path d="M349,253.86h13.3l-33.74,99.4H312.16l-33.74-99.4h13.44l16.38,49.28q7.69,22.55,12.32,38.78,4.33-15.41,12-38.64Z"/><path d="M478.9,253.86h12.74l-23.94,99.4H451.88L439.7,307.62q-6.17-23.24-9.24-37.1-4.9,21.42-9.1,37.24L409,353.26h-16L369,253.86h13.16l11.34,47.88q3.21,13.72,8.12,38.36,4.89-22.26,9.66-38.36l13-47.88h13l12.74,47.88q3.36,12.18,9.38,38.22l1.4-6.86q4.2-19.74,6.86-31.36Z"/><path d="M584.46,353.26H569.9l-28.84-43-28.84,43H497.66l35.56-52.36-32.06-47h14.42l25.62,38.08,25.62-38.08h14.42L549,301Z"/><path d="M658.38,253.86h14l-35.29,57v42.42H624.21V310.7l-35-56.84h14.28l27.44,45.5Z"/><path d="M755.81,253.86v10.36l-60.2,78.26h60.06v10.78H680.21V342.9l60.2-78.26H682.87V253.86Z"/><path d="M133.24,432.42q13.15,0,20.58,6.23t7.42,16.73v47.88H150.32v-8.4q-7.14,10.63-23.38,10.64-11.34,0-18-4.9t-6.65-14.42q0-11.06,8.4-16.1t23.66-7.84l15.4-2.8v-3.5a12.21,12.21,0,0,0-4.41-9.94q-4.41-3.64-11.69-3.64A24,24,0,0,0,122.39,445q-5,2.6-11.41,9l-7.7-6.86Q115.75,432.42,133.24,432.42Zm-5,63.14q9.38,0,15.47-5a16.07,16.07,0,0,0,6.09-13.09v-9.1l-12.6,2.52q-12.89,2.65-17.71,5.46t-5.39,9.38a8.27,8.27,0,0,0,3.71,7.28Q121.48,495.56,128.2,495.56Z"/><path d="M214.72,432.56a27.29,27.29,0,0,1,21.91,10.08q8.48,10.08,8.47,26.18T236.49,495a27.41,27.41,0,0,1-21.77,10.08q-16.25,0-23.52-12.32v10.5H179.86v-99.4h12V444Q199.6,432.56,214.72,432.56Zm-1.82,62.16a17.28,17.28,0,0,0,14.42-7.14q5.46-7.14,5.46-18.76t-5.46-18.9a17.28,17.28,0,0,0-14.42-7.14,19.22,19.22,0,0,0-15.54,7.07q-5.88,7.06-5.88,19t5.88,18.9A19.28,19.28,0,0,0,212.9,494.72Z"/><path d="M317.62,445.58l-7.84,7.28a36.63,36.63,0,0,0-9.94-8.05,22.22,22.22,0,0,0-10.08-2.31q-10.23,0-15.4,7.7-5.46,7.69-5.46,18.62t5.46,18.48Q279.82,495,290,495a21.13,21.13,0,0,0,10.15-2.45q4.55-2.44,10.43-9l7.84,6.72q-6.72,8.26-13.16,11.62A32.59,32.59,0,0,1,290,505.22q-15.12,0-24.29-9.94t-9.17-26.46q0-16.38,9.24-26.39t24.22-10a35,35,0,0,1,15,3Q311.46,438.45,317.62,445.58Z"/><path d="M378.52,403.86h12v99.4H379.22V492.48q-7.56,12.6-23.52,12.6A27.34,27.34,0,0,1,333.86,495q-8.53-10.08-8.54-26.18T334,442.64a27.75,27.75,0,0,1,22-10.08q15,0,22.54,11.06Zm-21,91a19.22,19.22,0,0,0,15.54-7.07q5.88-7.07,5.88-19t-5.88-18.9a19.28,19.28,0,0,0-15.54-7,17.28,17.28,0,0,0-14.42,7.14q-5.46,7.14-5.46,18.76t5.39,18.9A17.22,17.22,0,0,0,357.52,494.86Z"/><path d="M462.1,483.66l7.14,7.28Q461.82,498.79,455,502a36.82,36.82,0,0,1-15.82,3.22q-15.54,0-24.78-9.87t-9.24-26.11q0-16.25,9-26.53T438,432.42q14.7,0,22.89,8.82t8.19,24.36c0,1.31-.1,3.08-.28,5.32H417q.56,10.92,6.3,17.57t16,6.65a24.15,24.15,0,0,0,11.2-2.52Q455.1,490.23,462.1,483.66Zm-24.22-41.58q-8.4,0-13.72,5.18T417.44,462H457.2q-.42-9.24-5.53-14.56T437.88,442.08Z"/><path d="M512.08,411.7q-5.75,0-8.19,2.87t-2.45,9.73v10.08H518.8v9.1H501.44v59.78h-12V443.48H476.66v-9.1H489.4V422.9q0-10.22,5.32-15.75t15.4-5.53A45.46,45.46,0,0,1,524,404l-2.38,9.24A45.66,45.66,0,0,0,512.08,411.7Z"/><path d="M576.62,434.38h11.2v67.34q0,13.3-8.4,20.93t-22.82,7.63a52.93,52.93,0,0,1-31.22-10.22l6-8.82A71,71,0,0,0,544.56,518a34.71,34.71,0,0,0,11.9,2q9.09,0,14.28-4.83t5.18-14.49v-9.52q-7.14,11.2-22,11.2a27.42,27.42,0,0,1-21.7-9.87q-8.55-9.87-8.54-25.13t8.54-25.13a27.42,27.42,0,0,1,21.7-9.87q15.54,0,22.68,12Zm-35.21,51a17.52,17.52,0,0,0,14.49,6.79,18,18,0,0,0,14.7-6.93q5.6-6.93,5.6-17.85t-5.6-17.85a18,18,0,0,0-14.7-6.93,17.52,17.52,0,0,0-14.49,6.79q-5.4,6.79-5.39,18T541.41,485.41Z"/><path d="M639.62,432.42q11.61,0,18.13,6.58t6.51,17.08v47.18h-12v-43.4q0-8.4-4.06-12.81t-11.76-4.41a17.18,17.18,0,0,0-12.67,5.11,17.37,17.37,0,0,0-5.11,12.81v42.7h-12v-99.4h12v38.36Q625.34,432.42,639.62,432.42Z"/><path d="M694.92,406.38V420.8h-12V406.38Zm0,28v68.88h-12V434.38Z"/><path d="M693.37,528l2.38-9.24a35.79,35.79,0,0,0,9.52,1.4q4.9,0,6.86-2.73t2-8.89v-74.2h12v74.2q0,21.56-19.46,21.56A44.44,44.44,0,0,1,693.37,528Zm32.76-121.66V420.8h-12V406.38Z"/><path d="M792.63,503.26l-23.1-34.58-12.46,12.6v22H745v-99.4h12V467.7L789,434.38h14.14l-25.34,26.46,28.14,42.42Z"/><path d="M828.61,403.86v99.4h-12v-99.4Z"/><path d="M919.89,432.42q11.05,0,17,6.23t6,16.59v48h-12V458.6q0-16-13.72-16a14.68,14.68,0,0,0-11.48,4.83q-4.33,4.83-4.34,12.53v43.26h-12V458.6q0-16-13.72-16a14.69,14.69,0,0,0-10.85,4.27A17.16,17.16,0,0,0,859.83,458v45.22h-12V434.38h11.34v8.26q6.3-10.22,19.74-10.22,14.28,0,19.88,11.06Q905.61,432.43,919.89,432.42Z"/><path d="M994.51,432.42q11.76,0,18.2,6.58t6.44,17.08v47.18h-12v-43.4q0-8.4-4.06-12.81t-11.76-4.41a17.2,17.2,0,0,0-12.67,5.11,17.37,17.37,0,0,0-5.11,12.81v42.7h-12V434.38h11.34v9Q979.67,432.42,994.51,432.42Z"/><path d="M1043.09,442.57q9.53-10.15,24.5-10.15t24.57,10.15q9.58,10.15,9.59,26.25t-9.59,26.25q-9.59,10.15-24.57,10.15t-24.5-10.15q-9.52-10.15-9.52-26.25T1043.09,442.57Zm40.39,7.21q-6-7.27-15.89-7.28t-15.82,7.21q-5.88,7.21-5.88,19.11t5.88,19.11q5.88,7.21,15.82,7.21t15.89-7.28q6-7.28,6-19T1083.48,449.78Z"/><path d="M1151.17,432.56A27.34,27.34,0,0,1,1173,442.64q8.54,10.08,8.54,26,0,16.24-8.54,26.32a27.34,27.34,0,0,1-21.84,10.08q-15.54,0-22.82-10.92v34.3h-12V434.38h11.34v10.78Q1135.21,432.56,1151.17,432.56Zm-1.82,62.16a17.28,17.28,0,0,0,14.42-7.14q5.46-7.14,5.46-18.9t-5.39-18.83a17.28,17.28,0,0,0-14.49-7.07,19.28,19.28,0,0,0-15.54,7q-5.88,7-5.88,18.9t5.88,19A19.28,19.28,0,0,0,1149.35,494.72Z"/><path d="M1247.21,434.38h11.34v94.08h-12V493.88q-7.42,11.21-22.68,11.2A27.54,27.54,0,0,1,1201.92,495q-8.61-10.08-8.61-26.18t8.61-26.18a27.54,27.54,0,0,1,21.91-10.08q16.23,0,23.38,12.32Zm-21.7,60.48a19.22,19.22,0,0,0,15.54-7.07q5.88-7.07,5.88-19t-5.88-19a19.37,19.37,0,0,0-15.54-6.93,17.28,17.28,0,0,0-14.42,7.14q-5.46,7.14-5.46,18.76t5.46,18.9A17.28,17.28,0,0,0,1225.51,494.86Z"/><path d="M1305.73,433.68a36.51,36.51,0,0,1,10.92,2l-2.24,10.08a32,32,0,0,0-9-1.4,13.83,13.83,0,0,0-11.69,5.95q-4.41,6-4.41,16v37h-12V434.38h11.34v10.5Q1294,433.68,1305.73,433.68Z"/><path d="M1349,432.42a44.35,44.35,0,0,1,15,2.31,47.57,47.57,0,0,1,13.3,7.77l-6.58,8.12a44.07,44.07,0,0,0-11-6.65,30.45,30.45,0,0,0-10.71-1.75q-6.87,0-11,2.87a8.61,8.61,0,0,0-4.13,7.35c.37,2.89,1.58,4.88,3.64,5.95s7,2.5,14.84,4.27q14.28,3.36,20.16,7.91t5.88,13.23a18.72,18.72,0,0,1-7.56,15.54q-7.56,5.88-20,5.88a44.63,44.63,0,0,1-16.59-2.87q-7.21-2.87-15.19-10l7.14-7.84q7.27,6.17,12.81,8.47a30.69,30.69,0,0,0,12,2.31q6.85,0,11.27-2.94a9.13,9.13,0,0,0,4.41-8,7.82,7.82,0,0,0-4.2-7.28q-4.2-2.38-15.12-4.76-14.7-3.36-19.74-7.07t-5.32-12.39a17.73,17.73,0,0,1,7.42-14.77Q1337.08,432.42,1349,432.42Z"/><path d="M1428.08,492.62l1.83,9.52a42,42,0,0,1-14.14,2.38q-9.39,0-13.58-4.27c-2.81-2.85-4.2-7.16-4.2-12.95V443.48h-12.88v-9.1H1398v-23.1h12v23.1h18.62v9.1H1410V485.9q0,4.62,1.89,6.51t6.23,1.89A38.47,38.47,0,0,0,1428.08,492.62Z"/><path d="M1485.62,434.38h12v68.88h-11.2v-8.54q-6.3,10.5-20.86,10.5-12.18,0-18.34-6t-6.16-16.52v-48.3h12v45.36q0,15.12,14.42,15.12,8.13,0,13.09-4.9t5-13.58Z"/><path d="M1559.82,434.38h12.32l-23.94,68.88h-15.26l-23.8-68.88h12.6l8.54,25.34q7.28,22.39,10.5,34.16,4.48-16,10.5-34.16Z"/><path d="M1661.88,434.24h12.32l-19.32,69h-14.56l-6.44-22.12q-5-17.64-8.4-32.2-3.92,16.38-8.4,32.34l-6,22H1596.5l-19.32-69h12.46L1596.5,460q3.49,13.15,7.84,32.76,4.34-17.77,8.4-32.76l7.28-25.76h11.34l7.28,25.76q3.64,12.31,8.54,32.9,2.8-13.72,7.84-32.9Z"/><path d="M1742.66,503.26h-13.3l-18.62-27.72L1692,503.26h-13.16l25.06-36-23-32.9h13.3l16.66,24.5,16.38-24.5h13.16l-22.54,32.48Z"/><path d="M1797.4,434.38h12.18L1782,512.78q-3.49,9.79-7.84,13.65t-12.88,3.85a36.83,36.83,0,0,1-10.64-1.4l2.1-9.24a34.12,34.12,0,0,0,7.42.84,9.84,9.84,0,0,0,6.93-2.38q2.58-2.39,4.69-8.54l.84-2.52-25.9-72.66h12.74l7.7,22.82q7.83,23.24,9.38,27.86l2,5.88,3.08-9.24q3.5-11.2,8.12-24.78Z"/><path d="M156.76,584.38v8.82l-40.6,50.12h40.6v9.94H101.32v-9l40.6-50.12H103.84v-9.8Z"/><path d="M130,708.06h9.38v95.2H127.08V723.74L106.92,738l-6.16-8.54Z"/><path d="M178.32,792.76h55.44v10.5h-68v-4.62q0-17.5,13-28A157.35,157.35,0,0,1,194.28,760l7-4.06a103.58,103.58,0,0,0,11.27-7.07,25.67,25.67,0,0,0,5.95-6.37,17.42,17.42,0,0,0,2.52-9.38q0-7.85-5.18-12.25t-13.3-4.41a25.38,25.38,0,0,0-14,3.85q-6,3.86-13.58,13.23l-9.1-6.44q14.7-21.29,36.4-21.28,14,0,22.61,7.63a24.62,24.62,0,0,1,8.61,19.25q0,14.28-11.62,23.24a132.87,132.87,0,0,1-13.72,8.82l-6.58,3.92-2.66,1.54a123,123,0,0,0-11.13,7.21,28.09,28.09,0,0,0-6.09,6.37A18,18,0,0,0,178.32,792.76Z"/><path d="M279.82,746.42l1.82-.14q13.86,0,22.82,7.56t9,20.58q0,12.32-9.1,21.7t-24.5,9.38q-17.77,0-35.28-11.76l6.3-9.1a86.28,86.28,0,0,0,15.26,7.91,38.31,38.31,0,0,0,13.3,2.31q9.66,0,15.61-5.67A19.3,19.3,0,0,0,301,774.56q0-8.82-6-13.79t-16.8-5q-7.14,0-11.34,1.82l-5.74-7.84,34.3-31.22H249.3v-10.5h61.32v10.22Z"/><path d="M386.64,770.78h14.28V781H386.64v22.26h-12V781H326.3V769.8l39.48-61.74H379.5l-40,62.72H374.6v-21.7h12Z"/><path d="M446.28,741.8q14,0,22.75,8.54t8.75,21.84a32.62,32.62,0,0,1-9.52,23.45q-9.52,9.87-24.36,9.87a54.26,54.26,0,0,1-18.06-2.8q-7-2.52-17.92-9.8l6.16-9.1q9.94,6.59,15.4,8.68a37.23,37.23,0,0,0,13.3,2.38q9.95,0,16.24-6.37a21.53,21.53,0,0,0,6.3-15.75q0-9.37-5.67-15T444,752.16q-11.76,0-19.46,7.56L413.8,758.6l4.2-50.54h55.3v10.5H428.64l-2.52,29.54Q434.1,741.8,446.28,741.8Z"/><path d="M530,741q14.14,0,23,9.24a33.08,33.08,0,0,1-.63,45.64q-9.45,9.52-25,9.52-16.25,0-25.69-10.36t-9.45-26.74a54.15,54.15,0,0,1,7.28-27.3q7.27-12.74,22-26.46l6.86-6.44h16.52v.14l-15.12,13.86q-16,14.28-22.12,27.58Q515.87,741,530,741ZM511.17,788.7q6.23,6.16,16.17,6.16t16-6.09q6-6.09,6-15.75t-5.81-15.61q-5.81-6.09-15.61-6.09-10.36,0-16.66,6.09T504.94,773A21.13,21.13,0,0,0,511.17,788.7Z"/><path d="M566.68,708.06H635v9a194.77,194.77,0,0,0-24.64,40.18,155.47,155.47,0,0,0-14.14,46.06H582.78q2.94-21.13,13.72-44a244.62,244.62,0,0,1,24.22-40.88h-54Z"/><path d="M696.74,751.6a28.74,28.74,0,0,1,13.58,10,25.9,25.9,0,0,1,4.76,15.47,25.32,25.32,0,0,1-9.73,20.37q-9.74,8.06-26.11,8t-26-8a25.32,25.32,0,0,1-9.73-20.37,25.9,25.9,0,0,1,4.76-15.47,28.74,28.74,0,0,1,13.58-10q-13.44-6.3-13.44-20.72A22.24,22.24,0,0,1,657,712.75q8.53-6.93,22.26-6.93t22.4,6.93a22.24,22.24,0,0,1,8.54,18.13Q710.18,745.3,696.74,751.6Zm-17.5,43.54q10.63,0,16.94-5.25a16.78,16.78,0,0,0,6.3-13.51,17.68,17.68,0,0,0-6.23-14.14q-6.22-5.32-17-5.32-10.5,0-16.8,5.32a17.59,17.59,0,0,0-6.3,14.14,16.78,16.78,0,0,0,6.3,13.51Q668.74,795.14,679.24,795.14Zm0-79.38q-8.54,0-13.72,4.27a13.76,13.76,0,0,0-5.18,11.13,14.41,14.41,0,0,0,5.25,11.48q5.25,4.49,13.65,4.48T693,742.64a14.41,14.41,0,0,0,5.25-11.48A13.76,13.76,0,0,0,693.1,720Q687.93,715.75,679.24,715.76Z"/><path d="M759.6,706q16.24,0,25.69,10.36t9.45,26.74a54.15,54.15,0,0,1-7.28,27.3q-7.28,12.74-22,26.46l-6.86,6.44H742.24v-.14l15.12-13.86q15.82-14.41,22.12-27.58-8.26,8.69-22.54,8.68-14,0-22.89-9.31a32.73,32.73,0,0,1,.63-45.5Q744.21,706,759.6,706Zm-.42,54q10.22,0,16.52-6.09T782,738.3a21.13,21.13,0,0,0-6.23-15.68q-6.22-6.17-16.17-6.16t-16,6.09q-6,6.09-6,15.75t5.88,15.61Q749.38,760,759.18,760Z"/><path d="M843.88,705.82q19.88,0,29,17.64,6.72,13,6.72,32.2t-6.72,32.2q-9.11,17.64-29,17.64t-29-17.64q-6.72-13-6.72-32.2t6.72-32.2Q824,705.82,843.88,705.82Zm0,10.64q-12.18,0-18.06,12.32-5,10.37-5,26.88t5,26.88q5.88,12.32,18.06,12.32t18.06-12.32q5-10.37,5-26.88t-5-26.88Q856.06,716.47,843.88,716.46Z"/><path d="M123,938.14v15.12H108.6V938.14Zm-.7-84.28v29.82l-2.8,41.44H112.1l-2.8-41.44V853.86Z"/><path d="M231.38,888.86l-7.84,36.68a30.29,30.29,0,0,0-1,7.28q0,10.21,10.22,10.22,7.69,0,12.67-8t5-21q0-22.39-13.65-34.93T202.12,866.6q-22.68-.29-37.17,15.12t-14.21,38.64q0,23,14.14,37t39.48,14.07h30.52v8.4H202q-28.28,0-44.8-16.52t-16.52-43.26q-.28-26.88,16.8-44.66t44.1-17.5q25.62-.28,42.21,15.33t16.31,40.39q0,16.8-7.77,27.09T232.08,951q-8.4,0-12.88-3.71a15.37,15.37,0,0,1-5.46-9.73Q205.21,951,190.22,951q-9.94,0-15.4-5.81t-5.46-16a47,47,0,0,1,4-19.39,41.21,41.21,0,0,1,12-16,25.21,25.21,0,0,1,17.08-6.09,20.63,20.63,0,0,1,11.41,2.94,13,13,0,0,1,5.81,8.12l1.68-9.94ZM191.62,942.2q7.27.28,12.88-5.6a36,36,0,0,0,8.12-13.23A39.61,39.61,0,0,0,215,909.72q0-6.72-2.8-10t-9-3.29q-9.66-.28-16.45,10a38.21,38.21,0,0,0-6.65,21.91q0,6.72,3,10.29A10.47,10.47,0,0,0,191.62,942.2Z"/><path d="M346,892.22H332.32l-5.6,26.6H340.3l-1.82,8.54H324.9l-5.6,25.9h-9.8l5.46-25.9h-21.7l-5.46,25.9H278l5.46-25.9h-14l1.82-8.54h14l5.6-26.6H277l1.82-8.54H292.7l5.46-25.62H308l-5.46,25.62h21.84l5.32-25.62h9.8l-5.32,25.62h13.72Zm-29.26,26.6,5.74-26.6H300.68l-5.6,26.6Z"/><path d="M426.4,926.8a25.91,25.91,0,0,1-8.12,19.53q-8.11,7.77-21.56,8.89v12h-9.24v-12a47.5,47.5,0,0,1-17.22-4.48,71.74,71.74,0,0,1-16.52-11.62l7.56-8.26q14,12.18,26.18,13.58V908q-16.8-4.62-23-9.94t-6.16-16q0-10.5,8.33-17.78t20.79-8.4v-11.9h9.24v12q15.67,1.39,29.26,13.58l-7.56,8.4q-10.92-9.95-21.7-11.34v32.2q16.51,4.48,23.1,10.57T426.4,926.8Zm-56.28-44.94q0,5.75,3.85,8.89t13.51,5.81v-30q-8,1-12.67,5.18A13.06,13.06,0,0,0,370.12,881.86Zm26.6,28.7v34q8.11-1,12.95-5.6a15.57,15.57,0,0,0,4.83-11.76q0-6.59-4.13-10.29T396.72,910.56Z"/><path d="M448.45,862.82a22.14,22.14,0,0,1,30.94,0,21.77,21.77,0,0,1,6.23,16q0,9.79-6.23,16.1a22.14,22.14,0,0,1-30.94,0q-6.22-6.3-6.23-16.1A21.77,21.77,0,0,1,448.45,862.82Zm24.5,5.81a12.21,12.21,0,0,0-18.06,0,15,15,0,0,0-3.43,10.15q0,6.44,3.36,10.36a12.52,12.52,0,0,0,18.2,0q3.36-3.92,3.36-10.36A15,15,0,0,0,473,868.63ZM524.12,856l7.56,4.62L464.9,955.36l-7.28-4.76Zm-14.91,60.41a21,21,0,0,1,15.47-6.23,21.25,21.25,0,0,1,15.54,6.23q6.3,6.23,6.3,15.89t-6.3,16.1a21.11,21.11,0,0,1-15.54,6.3,20.88,20.88,0,0,1-15.47-6.3q-6.22-6.3-6.23-16.1T509.21,916.37Zm15.47,1.75a11.28,11.28,0,0,0-8.89,3.92,14.93,14.93,0,0,0-3.43,10.22q0,6.43,3.29,10.36a11.16,11.16,0,0,0,9,3.92,11.37,11.37,0,0,0,9.1-3.92q3.36-3.92,3.36-10.36a15,15,0,0,0-3.43-10.15A11.34,11.34,0,0,0,524.68,918.12Z"/><path d="M651.1,953.26H636.26l-12-14a52.71,52.71,0,0,1-14.77,12.18,37.41,37.41,0,0,1-17.57,3.92q-13.73,0-22.4-7.56a24.17,24.17,0,0,1-8.68-19q0-10.37,6-17.36,6.3-7.42,20.3-15.4a73.22,73.22,0,0,1-8.26-12,22.67,22.67,0,0,1-2.66-10.57,19.24,19.24,0,0,1,7.07-15.19,25.58,25.58,0,0,1,17.29-6.09q10.37,0,17.08,5.88a18.58,18.58,0,0,1,6.72,14.56,21.75,21.75,0,0,1-4.2,13.44q-4.33,5.6-16,12.6L624.36,922l14.14-17.78,8.68,6.3L631.5,930.44Zm-58.66-8a24,24,0,0,0,12.6-3.36q5.6-3.36,12.18-10.92L593.7,903.56q-11.9,7.14-16.1,12.18A18.06,18.06,0,0,0,573,927.92a16,16,0,0,0,5.46,12.53Q583.9,945.28,592.44,945.28Zm17.08-80.85a13.42,13.42,0,0,0-9.1-3.15,13,13,0,0,0-9.17,3.43,11.16,11.16,0,0,0-3.57,8.89,14.16,14.16,0,0,0,2.24,7.35,79.92,79.92,0,0,0,7.7,10q9-5.18,12.25-9.1a13.93,13.93,0,0,0,3.29-9.24A10.31,10.31,0,0,0,609.52,864.43Z"/><path d="M686.52,853.86v18.76l17.36-5.88,2.52,7.14-17.92,5.74,11.76,15.12-6.3,4.76L682.18,884,671,899.22l-6.44-4.9,11.9-14.7-17.92-5.88,2.38-7.14,17.36,6V853.86Z"/><path d="M788.44,879.2v11.2l-53.76,19.46,53.76,19.46v11.2l-67.2-25.2V904.4Z"/><path d="M805.1,879.2l67.2,25.2v10.92l-67.2,25.2v-11.2l53.76-19.46L805.1,890.4Z"/><path d="M917,851.62q12.74,0,21.35,6.79t8.61,18.41q0,9.66-7.14,17.5-3.64,3.64-8.12,7.56l-3.22,2.94a53.72,53.72,0,0,0-8.4,8.54,16,16,0,0,0-2.8,8.4l-.42,4.06h-9.94v-5q0-8.12,2.31-12.32T919.76,897l2.52-2.1q6.72-5.46,9.31-9.17a14.63,14.63,0,0,0,2.59-8.61,12.72,12.72,0,0,0-4.76-10.43q-4.75-3.85-12.74-3.85a27.51,27.51,0,0,0-11.83,2.59,67.16,67.16,0,0,0-13.23,8.89L884.34,866Q900.44,851.63,917,851.62Zm2.24,86.52v15.12H904.92V938.14Z"/></g></svg>