<svg xmlns="http://www.w3.org/2000/svg" viewBox="0 0 1920 1080"><defs><style>.cls-1{fill:#fff;}</style></defs><g id="Layer_2" data-name="Layer 2"><rect class="cls-1" width="1920" height="1080"/></g><g id="Layer_1" data-name="Layer 1"><path d="M93.63,171.8H26.51V104.42l67.12,11.83ZM29.35,169H90.79V118.63L29.35,107.79Z"/><path d="M157.91,171.8H90.79V104.42l67.12,11.83ZM93.63,169h61.44V118.63L93.63,107.79Z"/><path d="M222.19,171.8H155.07V104.42l67.12,11.83ZM157.91,169h61.44V118.63l-61.44-10.84Z"/><path d="M286.47,171.8H219.35V104.42l67.12,11.83ZM222.19,169h61.44V118.63l-61.44-10.84Z"/><path d="M350.75,171.8H283.63V104.42l67.12,11.83ZM286.47,169h61.45V118.63l-61.45-10.84Z"/><path d="M415,171.8H347.92V104.42L415,116.25ZM350.75,169H412.2V118.63l-61.45-10.84Z"/><path d="M479.31,171.8H412.2V104.42l67.11,11.83ZM415,169h61.45V118.63L415,107.79Z"/><path d="M543.59,171.8H476.48V104.42l67.11,11.83ZM479.31,169h61.45V118.63l-61.45-10.84Z"/><path d="M607.87,171.8H540.76V104.42l67.11,11.83ZM543.59,169H605V118.63l-61.45-10.84Z"/><path d="M672.15,171.8H605V104.42l67.11,11.83ZM607.87,169h61.45V118.63l-61.45-10.84Z"/><path d="M736.43,171.8H669.32V104.42l67.11,11.83ZM672.15,169H733.6V118.63l-61.45-10.84Z"/><path d="M800.71,171.8H733.6V104.42l67.11,11.83ZM736.43,169h61.45V118.63l-61.45-10.84Z"/><path d="M865,171.8H797.88V104.42L865,116.25ZM800.71,169h61.45V118.63l-61.45-10.84Z"/><path d="M929.28,171.8H862.16V104.42l67.12,11.83ZM865,169h61.44V118.63L865,107.79Z"/><path d="M993.56,171.8H926.44V104.42l67.12,11.83ZM929.28,169h61.44V118.63l-61.44-10.84Z"/><path d="M1057.84,171.8H990.72V104.42l67.12,11.83ZM993.56,169H1055V118.63l-61.44-10.84Z"/><path d="M1122.12,171.8H1055V104.42l67.12,11.83ZM1057.84,169h61.45V118.63l-61.45-10.84Z"/><path d="M1186.4,171.8h-67.11V104.42l67.11,11.83ZM1122.12,169h61.45V118.63l-61.45-10.84Z"/><path d="M1250.68,171.8h-67.11V104.42l67.11,11.83ZM1186.4,169h61.45V118.63l-61.45-10.84Z"/><path d="M1315,171.8h-67.11V104.42L1315,116.25ZM1250.68,169h61.45V118.63l-61.45-10.84Z"/><path d="M1379.24,171.8h-67.11V104.42l67.11,11.83ZM1315,169h61.45V118.63L1315,107.79Z"/><path d="M1443.52,171.8h-67.11V104.42l67.11,11.83ZM1379.24,169h61.45V118.63l-61.45-10.84Z"/><path d="M1507.8,171.8h-67.11V104.42l67.11,11.83ZM1443.52,169H1505V118.63l-61.45-10.84Z"/><path d="M1572.08,171.8H1505V104.42l67.11,11.83ZM1507.8,169h61.45V118.63l-61.45-10.84Z"/><path d="M1636.37,171.8h-67.12V104.42l67.12,11.83ZM1572.08,169h61.45V118.63l-61.45-10.84Z"/><path d="M1700.65,171.8h-67.12V104.42l67.12,11.83ZM1636.37,169h61.44V118.63l-61.44-10.84Z"/><path d="M1764.93,171.8h-67.12V104.42l67.12,11.83ZM1700.65,169h61.44V118.63l-61.44-10.84Z"/><path d="M1829.21,171.8h-67.12V104.42l67.12,11.83ZM1764.93,169h61.44V118.63l-61.44-10.84Z"/><path d="M1893.49,171.8h-67.12V104.42l67.12,11.83ZM1829.21,169h61.44V118.63l-61.44-10.84Z"/><path d="M93.63,203.94H26.51V136.56l67.12,11.83Zm-64.28-2.83H90.79V150.77L29.35,139.93Z"/><path d="M157.91,203.94H90.79V136.56l67.12,11.83Zm-64.28-2.83h61.44V150.77L93.63,139.93Z"/><path d="M222.19,203.94H155.07V136.56l67.12,11.83Zm-64.28-2.83h61.44V150.77l-61.44-10.84Z"/><path d="M286.47,203.94H219.35V136.56l67.12,11.83Zm-64.28-2.83h61.44V150.77l-61.44-10.84Z"/><path d="M350.75,203.94H283.63V136.56l67.12,11.83Zm-64.28-2.83h61.45V150.77l-61.45-10.84Z"/><path d="M415,203.94H347.92V136.56L415,148.39Zm-64.28-2.83H412.2V150.77l-61.45-10.84Z"/><path d="M479.31,203.94H412.2V136.56l67.11,11.83ZM415,201.11h61.45V150.77L415,139.93Z"/><path d="M543.59,203.94H476.48V136.56l67.11,11.83Zm-64.28-2.83h61.45V150.77l-61.45-10.84Z"/><path d="M607.87,203.94H540.76V136.56l67.11,11.83Zm-64.28-2.83H605V150.77l-61.45-10.84Z"/><path d="M672.15,203.94H605V136.56l67.11,11.83Zm-64.28-2.83h61.45V150.77l-61.45-10.84Z"/><path d="M736.43,203.94H669.32V136.56l67.11,11.83Zm-64.28-2.83H733.6V150.77l-61.45-10.84Z"/><path d="M800.71,203.94H733.6V136.56l67.11,11.83Zm-64.28-2.83h61.45V150.77l-61.45-10.84Z"/><path d="M865,203.94H797.88V136.56L865,148.39Zm-64.29-2.83h61.45V150.77l-61.45-10.84Z"/><path d="M929.28,203.94H862.16V136.56l67.12,11.83ZM865,201.11h61.44V150.77L865,139.93Z"/><path d="M993.56,203.94H926.44V136.56l67.12,11.83Zm-64.28-2.83h61.44V150.77l-61.44-10.84Z"/><path d="M1057.84,203.94H990.72V136.56l67.12,11.83Zm-64.28-2.83H1055V150.77l-61.44-10.84Z"/><path d="M1122.12,203.94H1055V136.56l67.12,11.83Zm-64.28-2.83h61.45V150.77l-61.45-10.84Z"/><path d="M1186.4,203.94h-67.11V136.56l67.11,11.83Zm-64.28-2.83h61.45V150.77l-61.45-10.84Z"/><path d="M1250.68,203.94h-67.11V136.56l67.11,11.83Zm-64.28-2.83h61.45V150.77l-61.45-10.84Z"/><path d="M1315,203.94h-67.11V136.56L1315,148.39Zm-64.28-2.83h61.45V150.77l-61.45-10.84Z"/><path d="M1379.24,203.94h-67.11V136.56l67.11,11.83ZM1315,201.11h61.45V150.77L1315,139.93Z"/><path d="M1443.52,203.94h-67.11V136.56l67.11,11.83Zm-64.28-2.83h61.45V150.77l-61.45-10.84Z"/><path d="M1507.8,203.94h-67.11V136.56l67.11,11.83Zm-64.28-2.83H1505V150.77l-61.45-10.84Z"/><path d="M1572.08,203.94H1505V136.56l67.11,11.83Zm-64.28-2.83h61.45V150.77l-61.45-10.84Z"/><path d="M1636.37,203.94h-67.12V136.56l67.12,11.83Zm-64.29-2.83h61.45V150.77l-61.45-10.84Z"/><path d="M1700.65,203.94h-67.12V136.56l67.12,11.83Zm-64.28-2.83h61.44V150.77l-61.44-10.84Z"/><path d="M1764.93,203.94h-67.12V136.56l67.12,11.83Zm-64.28-2.83h61.44V150.77l-61.44-10.84Z"/><path d="M1829.21,203.94h-67.12V136.56l67.12,11.83Zm-64.28-2.83h61.44V150.77l-61.44-10.84Z"/><path d="M1893.49,203.94h-67.12V136.56l67.12,11.83Zm-64.28-2.83h61.44V150.77l-61.44-10.84Z"/><path d="M93.63,268.22H26.51V200.84l67.12,11.83Zm-64.28-2.83H90.79V215.05L29.35,204.21Z"/><path d="M157.91,268.22H90.79V200.84l67.12,11.83Zm-64.28-2.83h61.44V215.05L93.63,204.21Z"/><path d="M222.19,268.22H155.07V200.84l67.12,11.83Zm-64.28-2.83h61.44V215.05l-61.44-10.84Z"/><path d="M286.47,268.22H219.35V200.84l67.12,11.83Zm-64.28-2.83h61.44V215.05l-61.44-10.84Z"/><path d="M350.75,268.22H283.63V200.84l67.12,11.83Zm-64.28-2.83h61.45V215.05l-61.45-10.84Z"/><path d="M415,268.22H347.92V200.84L415,212.67Zm-64.28-2.83H412.2V215.05l-61.45-10.84Z"/><path d="M479.31,268.22H412.2V200.84l67.11,11.83ZM415,265.39h61.45V215.05L415,204.21Z"/><path d="M543.59,268.22H476.48V200.84l67.11,11.83Zm-64.28-2.83h61.45V215.05l-61.45-10.84Z"/><path d="M607.87,268.22H540.76V200.84l67.11,11.83Zm-64.28-2.83H605V215.05l-61.45-10.84Z"/><path d="M672.15,268.22H605V200.84l67.11,11.83Zm-64.28-2.83h61.45V215.05l-61.45-10.84Z"/><path d="M736.43,268.22H669.32V200.84l67.11,11.83Zm-64.28-2.83H733.6V215.05l-61.45-10.84Z"/><path d="M800.71,268.22H733.6V200.84l67.11,11.83Zm-64.28-2.83h61.45V215.05l-61.45-10.84Z"/><path d="M865,268.22H797.88V200.84L865,212.67Zm-64.29-2.83h61.45V215.05l-61.45-10.84Z"/><path d="M929.28,268.22H862.16V200.84l67.12,11.83ZM865,265.39h61.44V215.05L865,204.21Z"/><path d="M993.56,268.22H926.44V200.84l67.12,11.83Zm-64.28-2.83h61.44V215.05l-61.44-10.84Z"/><path d="M1057.84,268.22H990.72V200.84l67.12,11.83Zm-64.28-2.83H1055V215.05l-61.44-10.84Z"/><path d="M1122.12,268.22H1055V200.84l67.12,11.83Zm-64.28-2.83h61.45V215.05l-61.45-10.84Z"/><path d="M1186.4,268.22h-67.11V200.84l67.11,11.83Zm-64.28-2.83h61.45V215.05l-61.45-10.84Z"/><path d="M1250.68,268.22h-67.11V200.84l67.11,11.83Zm-64.28-2.83h61.45V215.05l-61.45-10.84Z"/><path d="M1315,268.22h-67.11V200.84L1315,212.67Zm-64.28-2.83h61.45V215.05l-61.45-10.84Z"/><path d="M1379.24,268.22h-67.11V200.84l67.11,11.83ZM1315,265.39h61.45V215.05L1315,204.21Z"/><path d="M1443.52,268.22h-67.11V200.84l67.11,11.83Zm-64.28-2.83h61.45V215.05l-61.45-10.84Z"/><path d="M1507.8,268.22h-67.11V200.84l67.11,11.83Zm-64.28-2.83H1505V215.05l-61.45-10.84Z"/><path d="M1572.08,268.22H1505V200.84l67.11,11.83Zm-64.28-2.83h61.45V215.05l-61.45-10.84Z"/><path d="M1636.37,268.22h-67.12V200.84l67.12,11.83Zm-64.29-2.83h61.45V215.05l-61.45-10.84Z"/><path d="M1700.65,268.22h-67.12V200.84l67.12,11.83Zm-64.28-2.83h61.44V215.05l-61.44-10.84Z"/><path d="M1764.93,268.22h-67.12V200.84l67.12,11.83Zm-64.28-2.83h61.44V215.05l-61.44-10.84Z"/><path d="M1829.21,268.22h-67.12V200.84l67.12,11.83Zm-64.28-2.83h61.44V215.05l-61.44-10.84Z"/><path d="M1893.49,268.22h-67.12V200.84l67.12,11.83Zm-64.28-2.83h61.44V215.05l-61.44-10.84Z"/><path d="M93.63,300.36H26.51V233l67.12,11.83Zm-64.28-2.83H90.79V247.19L29.35,236.36Z"/><path d="M157.91,300.36H90.79V233l67.12,11.83Zm-64.28-2.83h61.44V247.19L93.63,236.36Z"/><path d="M222.19,300.36H155.07V233l67.12,11.83Zm-64.28-2.83h61.44V247.19l-61.44-10.83Z"/><path d="M286.47,300.36H219.35V233l67.12,11.83Zm-64.28-2.83h61.44V247.19l-61.44-10.83Z"/><path d="M350.75,300.36H283.63V233l67.12,11.83Zm-64.28-2.83h61.45V247.19l-61.45-10.83Z"/><path d="M415,300.36H347.92V233L415,244.81Zm-64.28-2.83H412.2V247.19l-61.45-10.83Z"/><path d="M479.31,300.36H412.2V233l67.11,11.83ZM415,297.53h61.45V247.19L415,236.36Z"/><path d="M543.59,300.36H476.48V233l67.11,11.83Zm-64.28-2.83h61.45V247.19l-61.45-10.83Z"/><path d="M607.87,300.36H540.76V233l67.11,11.83Zm-64.28-2.83H605V247.19l-61.45-10.83Z"/><path d="M672.15,300.36H605V233l67.11,11.83Zm-64.28-2.83h61.45V247.19l-61.45-10.83Z"/><path d="M736.43,300.36H669.32V233l67.11,11.83Zm-64.28-2.83H733.6V247.19l-61.45-10.83Z"/><path d="M800.71,300.36H733.6V233l67.11,11.83Zm-64.28-2.83h61.45V247.19l-61.45-10.83Z"/><path d="M865,300.36H797.88V233L865,244.81Zm-64.29-2.83h61.45V247.19l-61.45-10.83Z"/><path d="M929.28,300.36H862.16V233l67.12,11.83ZM865,297.53h61.44V247.19L865,236.36Z"/><path d="M993.56,300.36H926.44V233l67.12,11.83Zm-64.28-2.83h61.44V247.19l-61.44-10.83Z"/><path d="M1057.84,300.36H990.72V233l67.12,11.83Zm-64.28-2.83H1055V247.19l-61.44-10.83Z"/><path d="M1122.12,300.36H1055V233l67.12,11.83Zm-64.28-2.83h61.45V247.19l-61.45-10.83Z"/><path d="M1186.4,300.36h-67.11V233l67.11,11.83Zm-64.28-2.83h61.45V247.19l-61.45-10.83Z"/><path d="M1250.68,300.36h-67.11V233l67.11,11.83Zm-64.28-2.83h61.45V247.19l-61.45-10.83Z"/><path d="M1315,300.36h-67.11V233L1315,244.81Zm-64.28-2.83h61.45V247.19l-61.45-10.83Z"/><path d="M1379.24,300.36h-67.11V233l67.11,11.83ZM1315,297.53h61.45V247.19L1315,236.36Z"/><path d="M1443.52,300.36h-67.11V233l67.11,11.83Zm-64.28-2.83h61.45V247.19l-61.45-10.83Z"/><path d="M1507.8,300.36h-67.11V233l67.11,11.83Zm-64.28-2.83H1505V247.19l-61.45-10.83Z"/><path d="M1572.08,300.36H1505V233l67.11,11.83Zm-64.28-2.83h61.45V247.19l-61.45-10.83Z"/><path d="M1636.37,300.36h-67.12V233l67.12,11.83Zm-64.29-2.83h61.45V247.19l-61.45-10.83Z"/><path d="M1700.65,300.36h-67.12V233l67.12,11.83Zm-64.28-2.83h61.44V247.19l-61.44-10.83Z"/><path d="M1764.93,300.36h-67.12V233l67.12,11.83Zm-64.28-2.83h61.44V247.19l-61.44-10.83Z"/><path d="M1829.21,300.36h-67.12V233l67.12,11.83Zm-64.28-2.83h61.44V247.19l-61.44-10.83Z"/><path d="M1893.49,300.36h-67.12V233l67.12,11.83Zm-64.28-2.83h61.44V247.19l-61.44-10.83Z"/><path d="M93.63,364.65H26.51V297.26l67.12,11.83Zm-64.28-2.84H90.79V311.47L29.35,300.64Z"/><path d="M157.91,364.65H90.79V297.26l67.12,11.83Zm-64.28-2.84h61.44V311.47L93.63,300.64Z"/><path d="M222.19,364.65H155.07V297.26l67.12,11.83Zm-64.28-2.84h61.44V311.47l-61.44-10.83Z"/><path d="M286.47,364.65H219.35V297.26l67.12,11.83Zm-64.28-2.84h61.44V311.47l-61.44-10.83Z"/><path d="M350.75,364.65H283.63V297.26l67.12,11.83Zm-64.28-2.84h61.45V311.47l-61.45-10.83Z"/><path d="M415,364.65H347.92V297.26L415,309.09Zm-64.28-2.84H412.2V311.47l-61.45-10.83Z"/><path d="M479.31,364.65H412.2V297.26l67.11,11.83ZM415,361.81h61.45V311.47L415,300.64Z"/><path d="M543.59,364.65H476.48V297.26l67.11,11.83Zm-64.28-2.84h61.45V311.47l-61.45-10.83Z"/><path d="M607.87,364.65H540.76V297.26l67.11,11.83Zm-64.28-2.84H605V311.47l-61.45-10.83Z"/><path d="M672.15,364.65H605V297.26l67.11,11.83Zm-64.28-2.84h61.45V311.47l-61.45-10.83Z"/><path d="M736.43,364.65H669.32V297.26l67.11,11.83Zm-64.28-2.84H733.6V311.47l-61.45-10.83Z"/><path d="M800.71,364.65H733.6V297.26l67.11,11.83Zm-64.28-2.84h61.45V311.47l-61.45-10.83Z"/><path d="M865,364.65H797.88V297.26L865,309.09Zm-64.29-2.84h61.45V311.47l-61.45-10.83Z"/><path d="M929.28,364.65H862.16V297.26l67.12,11.83ZM865,361.81h61.44V311.47L865,300.64Z"/><path d="M993.56,364.65H926.44V297.26l67.12,11.83Zm-64.28-2.84h61.44V311.47l-61.44-10.83Z"/><path d="M1057.84,364.65H990.72V297.26l67.12,11.83Zm-64.28-2.84H1055V311.47l-61.44-10.83Z"/><path d="M1122.12,364.65H1055V297.26l67.12,11.83Zm-64.28-2.84h61.45V311.47l-61.45-10.83Z"/><path d="M1186.4,364.65h-67.11V297.26l67.11,11.83Zm-64.28-2.84h61.45V311.47l-61.45-10.83Z"/><path d="M1250.68,364.65h-67.11V297.26l67.11,11.83Zm-64.28-2.84h61.45V311.47l-61.45-10.83Z"/><path d="M1315,364.65h-67.11V297.26L1315,309.09Zm-64.28-2.84h61.45V311.47l-61.45-10.83Z"/><path d="M1379.24,364.65h-67.11V297.26l67.11,11.83ZM1315,361.81h61.45V311.47L1315,300.64Z"/><path d="M1443.52,364.65h-67.11V297.26l67.11,11.83Zm-64.28-2.84h61.45V311.47l-61.45-10.83Z"/><path d="M1507.8,364.65h-67.11V297.26l67.11,11.83Zm-64.28-2.84H1505V311.47l-61.45-10.83Z"/><path d="M1572.08,364.65H1505V297.26l67.11,11.83Zm-64.28-2.84h61.45V311.47l-61.45-10.83Z"/><path d="M1636.37,364.65h-67.12V297.26l67.12,11.83Zm-64.29-2.84h61.45V311.47l-61.45-10.83Z"/><path d="M1700.65,364.65h-67.12V297.26l67.12,11.83Zm-64.28-2.84h61.44V311.47l-61.44-10.83Z"/><path d="M1764.93,364.65h-67.12V297.26l67.12,11.83Zm-64.28-2.84h61.44V311.47l-61.44-10.83Z"/><path d="M1829.21,364.65h-67.12V297.26l67.12,11.83Zm-64.28-2.84h61.44V311.47l-61.44-10.83Z"/><path d="M1893.49,364.65h-67.12V297.26l67.12,11.83Zm-64.28-2.84h61.44V311.47l-61.44-10.83Z"/><path d="M93.63,396.79H26.51V329.4l67.12,11.83ZM29.35,394H90.79V343.61L29.35,332.78Z"/><path d="M157.91,396.79H90.79V329.4l67.12,11.83ZM93.63,394h61.44V343.61L93.63,332.78Z"/><path d="M222.19,396.79H155.07V329.4l67.12,11.83ZM157.91,394h61.44V343.61l-61.44-10.83Z"/><path d="M286.47,396.79H219.35V329.4l67.12,11.83ZM222.19,394h61.44V343.61l-61.44-10.83Z"/><path d="M350.75,396.79H283.63V329.4l67.12,11.83ZM286.47,394h61.45V343.61l-61.45-10.83Z"/><path d="M415,396.79H347.92V329.4L415,341.23ZM350.75,394H412.2V343.61l-61.45-10.83Z"/><path d="M479.31,396.79H412.2V329.4l67.11,11.83ZM415,394h61.45V343.61L415,332.78Z"/><path d="M543.59,396.79H476.48V329.4l67.11,11.83ZM479.31,394h61.45V343.61l-61.45-10.83Z"/><path d="M607.87,396.79H540.76V329.4l67.11,11.83ZM543.59,394H605V343.61l-61.45-10.83Z"/><path d="M672.15,396.79H605V329.4l67.11,11.83ZM607.87,394h61.45V343.61l-61.45-10.83Z"/><path d="M736.43,396.79H669.32V329.4l67.11,11.83ZM672.15,394H733.6V343.61l-61.45-10.83Z"/><path d="M800.71,396.79H733.6V329.4l67.11,11.83ZM736.43,394h61.45V343.61l-61.45-10.83Z"/><path d="M865,396.79H797.88V329.4L865,341.23ZM800.71,394h61.45V343.61l-61.45-10.83Z"/><path d="M929.28,396.79H862.16V329.4l67.12,11.83ZM865,394h61.44V343.61L865,332.78Z"/><path d="M993.56,396.79H926.44V329.4l67.12,11.83ZM929.28,394h61.44V343.61l-61.44-10.83Z"/><path d="M1057.84,396.79H990.72V329.4l67.12,11.83ZM993.56,394H1055V343.61l-61.44-10.83Z"/><path d="M1122.12,396.79H1055V329.4l67.12,11.83ZM1057.84,394h61.45V343.61l-61.45-10.83Z"/><path d="M1186.4,396.79h-67.11V329.4l67.11,11.83ZM1122.12,394h61.45V343.61l-61.45-10.83Z"/><path d="M1250.68,396.79h-67.11V329.4l67.11,11.83ZM1186.4,394h61.45V343.61l-61.45-10.83Z"/><path d="M1315,396.79h-67.11V329.4L1315,341.23ZM1250.68,394h61.45V343.61l-61.45-10.83Z"/><path d="M1379.24,396.79h-67.11V329.4l67.11,11.83ZM1315,394h61.45V343.61L1315,332.78Z"/><path d="M1443.52,396.79h-67.11V329.4l67.11,11.83ZM1379.24,394h61.45V343.61l-61.45-10.83Z"/><path d="M1507.8,396.79h-67.11V329.4l67.11,11.83ZM1443.52,394H1505V343.61l-61.45-10.83Z"/><path d="M1572.08,396.79H1505V329.4l67.11,11.83ZM1507.8,394h61.45V343.61l-61.45-10.83Z"/><path d="M1636.37,396.79h-67.12V329.4l67.12,11.83ZM1572.08,394h61.45V343.61l-61.45-10.83Z"/><path d="M1700.65,396.79h-67.12V329.4l67.12,11.83ZM1636.37,394h61.44V343.61l-61.44-10.83Z"/><path d="M1764.93,396.79h-67.12V329.4l67.12,11.83ZM1700.65,394h61.44V343.61l-61.44-10.83Z"/><path d="M1829.21,396.79h-67.12V329.4l67.12,11.83ZM1764.93,394h61.44V343.61l-61.44-10.83Z"/><path d="M1893.49,396.79h-67.12V329.4l67.12,11.83ZM1829.21,394h61.44V343.61l-61.44-10.83Z"/><path d="M93.63,461.07H26.51V393.68l67.12,11.83Zm-64.28-2.84H90.79V407.89L29.35,397.06Z"/><path d="M157.91,461.07H90.79V393.68l67.12,11.83Zm-64.28-2.84h61.44V407.89L93.63,397.06Z"/><path d="M222.19,461.07H155.07V393.68l67.12,11.83Zm-64.28-2.84h61.44V407.89l-61.44-10.83Z"/><path d="M286.47,461.07H219.35V393.68l67.12,11.83Zm-64.28-2.84h61.44V407.89l-61.44-10.83Z"/><path d="M350.75,461.07H283.63V393.68l67.12,11.83Zm-64.28-2.84h61.45V407.89l-61.45-10.83Z"/><path d="M415,461.07H347.92V393.68L415,405.51Zm-64.28-2.84H412.2V407.89l-61.45-10.83Z"/><path d="M479.31,461.07H412.2V393.68l67.11,11.83ZM415,458.23h61.45V407.89L415,397.06Z"/><path d="M543.59,461.07H476.48V393.68l67.11,11.83Zm-64.28-2.84h61.45V407.89l-61.45-10.83Z"/><path d="M607.87,461.07H540.76V393.68l67.11,11.83Zm-64.28-2.84H605V407.89l-61.45-10.83Z"/><path d="M672.15,461.07H605V393.68l67.11,11.83Zm-64.28-2.84h61.45V407.89l-61.45-10.83Z"/><path d="M736.43,461.07H669.32V393.68l67.11,11.83Zm-64.28-2.84H733.6V407.89l-61.45-10.83Z"/><path d="M800.71,461.07H733.6V393.68l67.11,11.83Zm-64.28-2.84h61.45V407.89l-61.45-10.83Z"/><path d="M865,461.07H797.88V393.68L865,405.51Zm-64.29-2.84h61.45V407.89l-61.45-10.83Z"/><path d="M929.28,461.07H862.16V393.68l67.12,11.83ZM865,458.23h61.44V407.89L865,397.06Z"/><path d="M993.56,461.07H926.44V393.68l67.12,11.83Zm-64.28-2.84h61.44V407.89l-61.44-10.83Z"/><path d="M1057.84,461.07H990.72V393.68l67.12,11.83Zm-64.28-2.84H1055V407.89l-61.44-10.83Z"/><path d="M1122.12,461.07H1055V393.68l67.12,11.83Zm-64.28-2.84h61.45V407.89l-61.45-10.83Z"/><path d="M1186.4,461.07h-67.11V393.68l67.11,11.83Zm-64.28-2.84h61.45V407.89l-61.45-10.83Z"/><path d="M1250.68,461.07h-67.11V393.68l67.11,11.83Zm-64.28-2.84h61.45V407.89l-61.45-10.83Z"/><path d="M1315,461.07h-67.11V393.68L1315,405.51Zm-64.28-2.84h61.45V407.89l-61.45-10.83Z"/><path d="M1379.24,461.07h-67.11V393.68l67.11,11.83ZM1315,458.23h61.45V407.89L1315,397.06Z"/><path d="M1443.52,461.07h-67.11V393.68l67.11,11.83Zm-64.28-2.84h61.45V407.89l-61.45-10.83Z"/><path d="M1507.8,461.07h-67.11V393.68l67.11,11.83Zm-64.28-2.84H1505V407.89l-61.45-10.83Z"/><path d="M1572.08,461.07H1505V393.68l67.11,11.83Zm-64.28-2.84h61.45V407.89l-61.45-10.83Z"/><path d="M1636.37,461.07h-67.12V393.68l67.12,11.83Zm-64.29-2.84h61.45V407.89l-61.45-10.83Z"/><path d="M1700.65,461.07h-67.12V393.68l67.12,11.83Zm-64.28-2.84h61.44V407.89l-61.44-10.83Z"/><path d="M1764.93,461.07h-67.12V393.68l67.12,11.83Zm-64.28-2.84h61.44V407.89l-61.44-10.83Z"/><path d="M1829.21,461.07h-67.12V393.68l67.12,11.83Zm-64.28-2.84h61.44V407.89l-61.44-10.83Z"/><path d="M1893.49,461.07h-67.12V393.68l67.12,11.83Zm-64.28-2.84h61.44V407.89l-61.44-10.83Z"/><path d="M93.63,493.21H26.51V425.82l67.12,11.83Zm-64.28-2.84H90.79V440L29.35,429.2Z"/><path d="M157.91,493.21H90.79V425.82l67.12,11.83Zm-64.28-2.84h61.44V440L93.63,429.2Z"/><path d="M222.19,493.21H155.07V425.82l67.12,11.83Zm-64.28-2.84h61.44V440L157.91,429.2Z"/><path d="M286.47,493.21H219.35V425.82l67.12,11.83Zm-64.28-2.84h61.44V440L222.19,429.2Z"/><path d="M350.75,493.21H283.63V425.82l67.12,11.83Zm-64.28-2.84h61.45V440L286.47,429.2Z"/><path d="M415,493.21H347.92V425.82L415,437.65Zm-64.28-2.84H412.2V440L350.75,429.2Z"/><path d="M479.31,493.21H412.2V425.82l67.11,11.83ZM415,490.37h61.45V440L415,429.2Z"/><path d="M543.59,493.21H476.48V425.82l67.11,11.83Zm-64.28-2.84h61.45V440L479.31,429.2Z"/><path d="M607.87,493.21H540.76V425.82l67.11,11.83Zm-64.28-2.84H605V440L543.59,429.2Z"/><path d="M672.15,493.21H605V425.82l67.11,11.83Zm-64.28-2.84h61.45V440L607.87,429.2Z"/><path d="M736.43,493.21H669.32V425.82l67.11,11.83Zm-64.28-2.84H733.6V440L672.15,429.2Z"/><path d="M800.71,493.21H733.6V425.82l67.11,11.83Zm-64.28-2.84h61.45V440L736.43,429.2Z"/><path d="M865,493.21H797.88V425.82L865,437.65Zm-64.29-2.84h61.45V440L800.71,429.2Z"/><path d="M929.28,493.21H862.16V425.82l67.12,11.83ZM865,490.37h61.44V440L865,429.2Z"/><path d="M993.56,493.21H926.44V425.82l67.12,11.83Zm-64.28-2.84h61.44V440L929.28,429.2Z"/><path d="M1057.84,493.21H990.72V425.82l67.12,11.83Zm-64.28-2.84H1055V440L993.56,429.2Z"/><path d="M1122.12,493.21H1055V425.82l67.12,11.83Zm-64.28-2.84h61.45V440l-61.45-10.83Z"/><path d="M1186.4,493.21h-67.11V425.82l67.11,11.83Zm-64.28-2.84h61.45V440l-61.45-10.83Z"/><path d="M1250.68,493.21h-67.11V425.82l67.11,11.83Zm-64.28-2.84h61.45V440L1186.4,429.2Z"/><path d="M1315,493.21h-67.11V425.82L1315,437.65Zm-64.28-2.84h61.45V440l-61.45-10.83Z"/><path d="M1379.24,493.21h-67.11V425.82l67.11,11.83ZM1315,490.37h61.45V440L1315,429.2Z"/><path d="M1443.52,493.21h-67.11V425.82l67.11,11.83Zm-64.28-2.84h61.45V440l-61.45-10.83Z"/><path d="M1507.8,493.21h-67.11V425.82l67.11,11.83Zm-64.28-2.84H1505V440l-61.45-10.83Z"/><path d="M1572.08,493.21H1505V425.82l67.11,11.83Zm-64.28-2.84h61.45V440L1507.8,429.2Z"/><path d="M1636.37,493.21h-67.12V425.82l67.12,11.83Zm-64.29-2.84h61.45V440l-61.45-10.83Z"/><path d="M1700.65,493.21h-67.12V425.82l67.12,11.83Zm-64.28-2.84h61.44V440l-61.44-10.83Z"/><path d="M1764.93,493.21h-67.12V425.82l67.12,11.83Zm-64.28-2.84h61.44V440l-61.44-10.83Z"/><path d="M1829.21,493.21h-67.12V425.82l67.12,11.83Zm-64.28-2.84h61.44V440l-61.44-10.83Z"/><path d="M1893.49,493.21h-67.12V425.82l67.12,11.83Zm-64.28-2.84h61.44V440l-61.44-10.83Z"/><path d="M93.63,557.49H26.51V490.1l67.12,11.83Zm-64.28-2.84H90.79V504.31L29.35,493.48Z"/><path d="M157.91,557.49H90.79V490.1l67.12,11.83Zm-64.28-2.84h61.44V504.31L93.63,493.48Z"/><path d="M222.19,557.49H155.07V490.1l67.12,11.83Zm-64.28-2.84h61.44V504.31l-61.44-10.83Z"/><path d="M286.47,557.49H219.35V490.1l67.12,11.83Zm-64.28-2.84h61.44V504.31l-61.44-10.83Z"/><path d="M350.75,557.49H283.63V490.1l67.12,11.83Zm-64.28-2.84h61.45V504.31l-61.45-10.83Z"/><path d="M415,557.49H347.92V490.1L415,501.93Zm-64.28-2.84H412.2V504.31l-61.45-10.83Z"/><path d="M479.31,557.49H412.2V490.1l67.11,11.83ZM415,554.65h61.45V504.31L415,493.48Z"/><path d="M543.59,557.49H476.48V490.1l67.11,11.83Zm-64.28-2.84h61.45V504.31l-61.45-10.83Z"/><path d="M607.87,557.49H540.76V490.1l67.11,11.83Zm-64.28-2.84H605V504.31l-61.45-10.83Z"/><path d="M672.15,557.49H605V490.1l67.11,11.83Zm-64.28-2.84h61.45V504.31l-61.45-10.83Z"/><path d="M736.43,557.49H669.32V490.1l67.11,11.83Zm-64.28-2.84H733.6V504.31l-61.45-10.83Z"/><path d="M800.71,557.49H733.6V490.1l67.11,11.83Zm-64.28-2.84h61.45V504.31l-61.45-10.83Z"/><path d="M865,557.49H797.88V490.1L865,501.93Zm-64.29-2.84h61.45V504.31l-61.45-10.83Z"/><path d="M929.28,557.49H862.16V490.1l67.12,11.83ZM865,554.65h61.44V504.31L865,493.48Z"/><path d="M993.56,557.49H926.44V490.1l67.12,11.83Zm-64.28-2.84h61.44V504.31l-61.44-10.83Z"/><path d="M1057.84,557.49H990.72V490.1l67.12,11.83Zm-64.28-2.84H1055V504.31l-61.44-10.83Z"/><path d="M1122.12,557.49H1055V490.1l67.12,11.83Zm-64.28-2.84h61.45V504.31l-61.45-10.83Z"/><path d="M1186.4,557.49h-67.11V490.1l67.11,11.83Zm-64.28-2.84h61.45V504.31l-61.45-10.83Z"/><path d="M1250.68,557.49h-67.11V490.1l67.11,11.83Zm-64.28-2.84h61.45V504.31l-61.45-10.83Z"/><path d="M1315,557.49h-67.11V490.1L1315,501.93Zm-64.28-2.84h61.45V504.31l-61.45-10.83Z"/><path d="M1379.24,557.49h-67.11V490.1l67.11,11.83ZM1315,554.65h61.45V504.31L1315,493.48Z"/><path d="M1443.52,557.49h-67.11V490.1l67.11,11.83Zm-64.28-2.84h61.45V504.31l-61.45-10.83Z"/><path d="M1507.8,557.49h-67.11V490.1l67.11,11.83Zm-64.28-2.84H1505V504.31l-61.45-10.83Z"/><path d="M1572.08,557.49H1505V490.1l67.11,11.83Zm-64.28-2.84h61.45V504.31l-61.45-10.83Z"/><path d="M1636.37,557.49h-67.12V490.1l67.12,11.83Zm-64.29-2.84h61.45V504.31l-61.45-10.83Z"/><path d="M1700.65,557.49h-67.12V490.1l67.12,11.83Zm-64.28-2.84h61.44V504.31l-61.44-10.83Z"/><path d="M1764.93,557.49h-67.12V490.1l67.12,11.83Zm-64.28-2.84h61.44V504.31l-61.44-10.83Z"/><path d="M1829.21,557.49h-67.12V490.1l67.12,11.83Zm-64.28-2.84h61.44V504.31l-61.44-10.83Z"/><path d="M1893.49,557.49h-67.12V490.1l67.12,11.83Zm-64.28-2.84h61.44V504.31l-61.44-10.83Z"/><path d="M93.63,589.63H26.51V522.24l67.12,11.83Zm-64.28-2.84H90.79V536.45L29.35,525.62Z"/><path d="M157.91,589.63H90.79V522.24l67.12,11.83Zm-64.28-2.84h61.44V536.45L93.63,525.62Z"/><path d="M222.19,589.63H155.07V522.24l67.12,11.83Zm-64.28-2.84h61.44V536.45l-61.44-10.83Z"/><path d="M286.47,589.63H219.35V522.24l67.12,11.83Zm-64.28-2.84h61.44V536.45l-61.44-10.83Z"/><path d="M350.75,589.63H283.63V522.24l67.12,11.83Zm-64.28-2.84h61.45V536.45l-61.45-10.83Z"/><path d="M415,589.63H347.92V522.24L415,534.07Zm-64.28-2.84H412.2V536.45l-61.45-10.83Z"/><path d="M479.31,589.63H412.2V522.24l67.11,11.83ZM415,586.79h61.45V536.45L415,525.62Z"/><path d="M543.59,589.63H476.48V522.24l67.11,11.83Zm-64.28-2.84h61.45V536.45l-61.45-10.83Z"/><path d="M607.87,589.63H540.76V522.24l67.11,11.83Zm-64.28-2.84H605V536.45l-61.45-10.83Z"/><path d="M672.15,589.63H605V522.24l67.11,11.83Zm-64.28-2.84h61.45V536.45l-61.45-10.83Z"/><path d="M736.43,589.63H669.32V522.24l67.11,11.83Zm-64.28-2.84H733.6V536.45l-61.45-10.83Z"/><path d="M800.71,589.63H733.6V522.24l67.11,11.83Zm-64.28-2.84h61.45V536.45l-61.45-10.83Z"/><path d="M865,589.63H797.88V522.24L865,534.07Zm-64.29-2.84h61.45V536.45l-61.45-10.83Z"/><path d="M929.28,589.63H862.16V522.24l67.12,11.83ZM865,586.79h61.44V536.45L865,525.62Z"/><path d="M993.56,589.63H926.44V522.24l67.12,11.83Zm-64.28-2.84h61.44V536.45l-61.44-10.83Z"/><path d="M1057.84,589.63H990.72V522.24l67.12,11.83Zm-64.28-2.84H1055V536.45l-61.44-10.83Z"/><path d="M1122.12,589.63H1055V522.24l67.12,11.83Zm-64.28-2.84h61.45V536.45l-61.45-10.83Z"/><path d="M1186.4,589.63h-67.11V522.24l67.11,11.83Zm-64.28-2.84h61.45V536.45l-61.45-10.83Z"/><path d="M1250.68,589.63h-67.11V522.24l67.11,11.83Zm-64.28-2.84h61.45V536.45l-61.45-10.83Z"/><path d="M1315,589.63h-67.11V522.24L1315,534.07Zm-64.28-2.84h61.45V536.45l-61.45-10.83Z"/><path d="M1379.24,589.63h-67.11V522.24l67.11,11.83ZM1315,586.79h61.45V536.45L1315,525.62Z"/><path d="M1443.52,589.63h-67.11V522.24l67.11,11.83Zm-64.28-2.84h61.45V536.45l-61.45-10.83Z"/><path d="M1507.8,589.63h-67.11V522.24l67.11,11.83Zm-64.28-2.84H1505V536.45l-61.45-10.83Z"/><path d="M1572.08,589.63H1505V522.24l67.11,11.83Zm-64.28-2.84h61.45V536.45l-61.45-10.83Z"/><path d="M1636.37,589.63h-67.12V522.24l67.12,11.83Zm-64.29-2.84h61.45V536.45l-61.45-10.83Z"/><path d="M1700.65,589.63h-67.12V522.24l67.12,11.83Zm-64.28-2.84h61.44V536.45l-61.44-10.83Z"/><path d="M1764.93,589.63h-67.12V522.24l67.12,11.83Zm-64.28-2.84h61.44V536.45l-61.44-10.83Z"/><path d="M1829.21,589.63h-67.12V522.24l67.12,11.83Zm-64.28-2.84h61.44V536.45l-61.44-10.83Z"/><path d="M1893.49,589.63h-67.12V522.24l67.12,11.83Zm-64.28-2.84h61.44V536.45l-61.44-10.83Z"/><path d="M93.63,653.91H26.51V586.52l67.12,11.84Zm-64.28-2.84H90.79V600.73L29.35,589.9Z"/><path d="M157.91,653.91H90.79V586.52l67.12,11.84Zm-64.28-2.84h61.44V600.73L93.63,589.9Z"/><path d="M222.19,653.91H155.07V586.52l67.12,11.84Zm-64.28-2.84h61.44V600.73L157.91,589.9Z"/><path d="M286.47,653.91H219.35V586.52l67.12,11.84Zm-64.28-2.84h61.44V600.73L222.19,589.9Z"/><path d="M350.75,653.91H283.63V586.52l67.12,11.84Zm-64.28-2.84h61.45V600.73L286.47,589.9Z"/><path d="M415,653.91H347.92V586.52L415,598.36Zm-64.28-2.84H412.2V600.73L350.75,589.9Z"/><path d="M479.31,653.91H412.2V586.52l67.11,11.84ZM415,651.07h61.45V600.73L415,589.9Z"/><path d="M543.59,653.91H476.48V586.52l67.11,11.84Zm-64.28-2.84h61.45V600.73L479.31,589.9Z"/><path d="M607.87,653.91H540.76V586.52l67.11,11.84Zm-64.28-2.84H605V600.73L543.59,589.9Z"/><path d="M672.15,653.91H605V586.52l67.11,11.84Zm-64.28-2.84h61.45V600.73L607.87,589.9Z"/><path d="M736.43,653.91H669.32V586.52l67.11,11.84Zm-64.28-2.84H733.6V600.73L672.15,589.9Z"/><path d="M800.71,653.91H733.6V586.52l67.11,11.84Zm-64.28-2.84h61.45V600.73L736.43,589.9Z"/><path d="M865,653.91H797.88V586.52L865,598.36Zm-64.29-2.84h61.45V600.73L800.71,589.9Z"/><path d="M929.28,653.91H862.16V586.52l67.12,11.84ZM865,651.07h61.44V600.73L865,589.9Z"/><path d="M993.56,653.91H926.44V586.52l67.12,11.84Zm-64.28-2.84h61.44V600.73L929.28,589.9Z"/><path d="M1057.84,653.91H990.72V586.52l67.12,11.84Zm-64.28-2.84H1055V600.73L993.56,589.9Z"/><path d="M1122.12,653.91H1055V586.52l67.12,11.84Zm-64.28-2.84h61.45V600.73l-61.45-10.83Z"/><path d="M1186.4,653.91h-67.11V586.52l67.11,11.84Zm-64.28-2.84h61.45V600.73l-61.45-10.83Z"/><path d="M1250.68,653.91h-67.11V586.52l67.11,11.84Zm-64.28-2.84h61.45V600.73L1186.4,589.9Z"/><path d="M1315,653.91h-67.11V586.52L1315,598.36Zm-64.28-2.84h61.45V600.73l-61.45-10.83Z"/><path d="M1379.24,653.91h-67.11V586.52l67.11,11.84ZM1315,651.07h61.45V600.73L1315,589.9Z"/><path d="M1443.52,653.91h-67.11V586.52l67.11,11.84Zm-64.28-2.84h61.45V600.73l-61.45-10.83Z"/><path d="M1507.8,653.91h-67.11V586.52l67.11,11.84Zm-64.28-2.84H1505V600.73l-61.45-10.83Z"/><path d="M1572.08,653.91H1505V586.52l67.11,11.84Zm-64.28-2.84h61.45V600.73L1507.8,589.9Z"/><path d="M1636.37,653.91h-67.12V586.52l67.12,11.84Zm-64.29-2.84h61.45V600.73l-61.45-10.83Z"/><path d="M1700.65,653.91h-67.12V586.52l67.12,11.84Zm-64.28-2.84h61.44V600.73l-61.44-10.83Z"/><path d="M1764.93,653.91h-67.12V586.52l67.12,11.84Zm-64.28-2.84h61.44V600.73l-61.44-10.83Z"/><path d="M1829.21,653.91h-67.12V586.52l67.12,11.84Zm-64.28-2.84h61.44V600.73l-61.44-10.83Z"/><path d="M1893.49,653.91h-67.12V586.52l67.12,11.84Zm-64.28-2.84h61.44V600.73l-61.44-10.83Z"/><path d="M93.63,686.05H26.51V618.66L93.63,630.5Zm-64.28-2.84H90.79V632.88L29.35,622Z"/><path d="M157.91,686.05H90.79V618.66l67.12,11.84Zm-64.28-2.84h61.44V632.88L93.63,622Z"/><path d="M222.19,686.05H155.07V618.66l67.12,11.84Zm-64.28-2.84h61.44V632.88L157.91,622Z"/><path d="M286.47,686.05H219.35V618.66l67.12,11.84Zm-64.28-2.84h61.44V632.88L222.19,622Z"/><path d="M350.75,686.05H283.63V618.66l67.12,11.84Zm-64.28-2.84h61.45V632.88L286.47,622Z"/><path d="M415,686.05H347.92V618.66L415,630.5Zm-64.28-2.84H412.2V632.88L350.75,622Z"/><path d="M479.31,686.05H412.2V618.66l67.11,11.84ZM415,683.21h61.45V632.88L415,622Z"/><path d="M543.59,686.05H476.48V618.66l67.11,11.84Zm-64.28-2.84h61.45V632.88L479.31,622Z"/><path d="M607.87,686.05H540.76V618.66l67.11,11.84Zm-64.28-2.84H605V632.88L543.59,622Z"/><path d="M672.15,686.05H605V618.66l67.11,11.84Zm-64.28-2.84h61.45V632.88L607.87,622Z"/><path d="M736.43,686.05H669.32V618.66l67.11,11.84Zm-64.28-2.84H733.6V632.88L672.15,622Z"/><path d="M800.71,686.05H733.6V618.66l67.11,11.84Zm-64.28-2.84h61.45V632.88L736.43,622Z"/><path d="M865,686.05H797.88V618.66L865,630.5Zm-64.29-2.84h61.45V632.88L800.71,622Z"/><path d="M929.28,686.05H862.16V618.66l67.12,11.84ZM865,683.21h61.44V632.88L865,622Z"/><path d="M993.56,686.05H926.44V618.66l67.12,11.84Zm-64.28-2.84h61.44V632.88L929.28,622Z"/><path d="M1057.84,686.05H990.72V618.66l67.12,11.84Zm-64.28-2.84H1055V632.88L993.56,622Z"/><path d="M1122.12,686.05H1055V618.66l67.12,11.84Zm-64.28-2.84h61.45V632.88L1057.84,622Z"/><path d="M1186.4,686.05h-67.11V618.66l67.11,11.84Zm-64.28-2.84h61.45V632.88L1122.12,622Z"/><path d="M1250.68,686.05h-67.11V618.66l67.11,11.84Zm-64.28-2.84h61.45V632.88L1186.4,622Z"/><path d="M1315,686.05h-67.11V618.66L1315,630.5Zm-64.28-2.84h61.45V632.88L1250.68,622Z"/><path d="M1379.24,686.05h-67.11V618.66l67.11,11.84ZM1315,683.21h61.45V632.88L1315,622Z"/><path d="M1443.52,686.05h-67.11V618.66l67.11,11.84Zm-64.28-2.84h61.45V632.88L1379.24,622Z"/><path d="M1507.8,686.05h-67.11V618.66l67.11,11.84Zm-64.28-2.84H1505V632.88L1443.52,622Z"/><path d="M1572.08,686.05H1505V618.66l67.11,11.84Zm-64.28-2.84h61.45V632.88L1507.8,622Z"/><path d="M1636.37,686.05h-67.12V618.66l67.12,11.84Zm-64.29-2.84h61.45V632.88L1572.08,622Z"/><path d="M1700.65,686.05h-67.12V618.66l67.12,11.84Zm-64.28-2.84h61.44V632.88L1636.37,622Z"/><path d="M1764.93,686.05h-67.12V618.66l67.12,11.84Zm-64.28-2.84h61.44V632.88L1700.65,622Z"/><path d="M1829.21,686.05h-67.12V618.66l67.12,11.84Zm-64.28-2.84h61.44V632.88L1764.93,622Z"/><path d="M1893.49,686.05h-67.12V618.66l67.12,11.84Zm-64.28-2.84h61.44V632.88L1829.21,622Z"/><path d="M93.63,750.33H26.51V682.94l67.12,11.84ZM29.35,747.5H90.79V697.16L29.35,686.32Z"/><path d="M157.91,750.33H90.79V682.94l67.12,11.84ZM93.63,747.5h61.44V697.16L93.63,686.32Z"/><path d="M222.19,750.33H155.07V682.94l67.12,11.84Zm-64.28-2.83h61.44V697.16l-61.44-10.84Z"/><path d="M286.47,750.33H219.35V682.94l67.12,11.84Zm-64.28-2.83h61.44V697.16l-61.44-10.84Z"/><path d="M350.75,750.33H283.63V682.94l67.12,11.84Zm-64.28-2.83h61.45V697.16l-61.45-10.84Z"/><path d="M415,750.33H347.92V682.94L415,694.78Zm-64.28-2.83H412.2V697.16l-61.45-10.84Z"/><path d="M479.31,750.33H412.2V682.94l67.11,11.84ZM415,747.5h61.45V697.16L415,686.32Z"/><path d="M543.59,750.33H476.48V682.94l67.11,11.84Zm-64.28-2.83h61.45V697.16l-61.45-10.84Z"/><path d="M607.87,750.33H540.76V682.94l67.11,11.84Zm-64.28-2.83H605V697.16l-61.45-10.84Z"/><path d="M672.15,750.33H605V682.94l67.11,11.84Zm-64.28-2.83h61.45V697.16l-61.45-10.84Z"/><path d="M736.43,750.33H669.32V682.94l67.11,11.84Zm-64.28-2.83H733.6V697.16l-61.45-10.84Z"/><path d="M800.71,750.33H733.6V682.94l67.11,11.84Zm-64.28-2.83h61.45V697.16l-61.45-10.84Z"/><path d="M865,750.33H797.88V682.94L865,694.78Zm-64.29-2.83h61.45V697.16l-61.45-10.84Z"/><path d="M929.28,750.33H862.16V682.94l67.12,11.84ZM865,747.5h61.44V697.16L865,686.32Z"/><path d="M993.56,750.33H926.44V682.94l67.12,11.84Zm-64.28-2.83h61.44V697.16l-61.44-10.84Z"/><path d="M1057.84,750.33H990.72V682.94l67.12,11.84Zm-64.28-2.83H1055V697.16l-61.44-10.84Z"/><path d="M1122.12,750.33H1055V682.94l67.12,11.84Zm-64.28-2.83h61.45V697.16l-61.45-10.84Z"/><path d="M1186.4,750.33h-67.11V682.94l67.11,11.84Zm-64.28-2.83h61.45V697.16l-61.45-10.84Z"/><path d="M1250.68,750.33h-67.11V682.94l67.11,11.84Zm-64.28-2.83h61.45V697.16l-61.45-10.84Z"/><path d="M1315,750.33h-67.11V682.94L1315,694.78Zm-64.28-2.83h61.45V697.16l-61.45-10.84Z"/><path d="M1379.24,750.33h-67.11V682.94l67.11,11.84ZM1315,747.5h61.45V697.16L1315,686.32Z"/><path d="M1443.52,750.33h-67.11V682.94l67.11,11.84Zm-64.28-2.83h61.45V697.16l-61.45-10.84Z"/><path d="M1507.8,750.33h-67.11V682.94l67.11,11.84Zm-64.28-2.83H1505V697.16l-61.45-10.84Z"/><path d="M1572.08,750.33H1505V682.94l67.11,11.84Zm-64.28-2.83h61.45V697.16l-61.45-10.84Z"/><path d="M1636.37,750.33h-67.12V682.94l67.12,11.84Zm-64.29-2.83h61.45V697.16l-61.45-10.84Z"/><path d="M1700.65,750.33h-67.12V682.94l67.12,11.84Zm-64.28-2.83h61.44V697.16l-61.44-10.84Z"/><path d="M1764.93,750.33h-67.12V682.94l67.12,11.84Zm-64.28-2.83h61.44V697.16l-61.44-10.84Z"/><path d="M1829.21,750.33h-67.12V682.94l67.12,11.84Zm-64.28-2.83h61.44V697.16l-61.44-10.84Z"/><path d="M1893.49,750.33h-67.12V682.94l67.12,11.84Zm-64.28-2.83h61.44V697.16l-61.44-10.84Z"/><path d="M93.63,782.47H26.51V715.08l67.12,11.84Zm-64.28-2.83H90.79V729.3L29.35,718.46Z"/><path d="M157.91,782.47H90.79V715.08l67.12,11.84Zm-64.28-2.83h61.44V729.3L93.63,718.46Z"/><path d="M222.19,782.47H155.07V715.08l67.12,11.84Zm-64.28-2.83h61.44V729.3l-61.44-10.84Z"/><path d="M286.47,782.47H219.35V715.08l67.12,11.84Zm-64.28-2.83h61.44V729.3l-61.44-10.84Z"/><path d="M350.75,782.47H283.63V715.08l67.12,11.84Zm-64.28-2.83h61.45V729.3l-61.45-10.84Z"/><path d="M415,782.47H347.92V715.08L415,726.92Zm-64.28-2.83H412.2V729.3l-61.45-10.84Z"/><path d="M479.31,782.47H412.2V715.08l67.11,11.84ZM415,779.64h61.45V729.3L415,718.46Z"/><path d="M543.59,782.47H476.48V715.08l67.11,11.84Zm-64.28-2.83h61.45V729.3l-61.45-10.84Z"/><path d="M607.87,782.47H540.76V715.08l67.11,11.84Zm-64.28-2.83H605V729.3l-61.45-10.84Z"/><path d="M672.15,782.47H605V715.08l67.11,11.84Zm-64.28-2.83h61.45V729.3l-61.45-10.84Z"/><path d="M736.43,782.47H669.32V715.08l67.11,11.84Zm-64.28-2.83H733.6V729.3l-61.45-10.84Z"/><path d="M800.71,782.47H733.6V715.08l67.11,11.84Zm-64.28-2.83h61.45V729.3l-61.45-10.84Z"/><path d="M865,782.47H797.88V715.08L865,726.92Zm-64.29-2.83h61.45V729.3l-61.45-10.84Z"/><path d="M929.28,782.47H862.16V715.08l67.12,11.84ZM865,779.64h61.44V729.3L865,718.46Z"/><path d="M993.56,782.47H926.44V715.08l67.12,11.84Zm-64.28-2.83h61.44V729.3l-61.44-10.84Z"/><path d="M1057.84,782.47H990.72V715.08l67.12,11.84Zm-64.28-2.83H1055V729.3l-61.44-10.84Z"/><path d="M1122.12,782.47H1055V715.08l67.12,11.84Zm-64.28-2.83h61.45V729.3l-61.45-10.84Z"/><path d="M1186.4,782.47h-67.11V715.08l67.11,11.84Zm-64.28-2.83h61.45V729.3l-61.45-10.84Z"/><path d="M1250.68,782.47h-67.11V715.08l67.11,11.84Zm-64.28-2.83h61.45V729.3l-61.45-10.84Z"/><path d="M1315,782.47h-67.11V715.08L1315,726.92Zm-64.28-2.83h61.45V729.3l-61.45-10.84Z"/><path d="M1379.24,782.47h-67.11V715.08l67.11,11.84ZM1315,779.64h61.45V729.3L1315,718.46Z"/><path d="M1443.52,782.47h-67.11V715.08l67.11,11.84Zm-64.28-2.83h61.45V729.3l-61.45-10.84Z"/><path d="M1507.8,782.47h-67.11V715.08l67.11,11.84Zm-64.28-2.83H1505V729.3l-61.45-10.84Z"/><path d="M1572.08,782.47H1505V715.08l67.11,11.84Zm-64.28-2.83h61.45V729.3l-61.45-10.84Z"/><path d="M1636.37,782.47h-67.12V715.08l67.12,11.84Zm-64.29-2.83h61.45V729.3l-61.45-10.84Z"/><path d="M1700.65,782.47h-67.12V715.08l67.12,11.84Zm-64.28-2.83h61.44V729.3l-61.44-10.84Z"/><path d="M1764.93,782.47h-67.12V715.08l67.12,11.84Zm-64.28-2.83h61.44V729.3l-61.44-10.84Z"/><path d="M1829.21,782.47h-67.12V715.08l67.12,11.84Zm-64.28-2.83h61.44V729.3l-61.44-10.84Z"/><path d="M1893.49,782.47h-67.12V715.08l67.12,11.84Zm-64.28-2.83h61.44V729.3l-61.44-10.84Z"/><path d="M93.63,846.75H26.51V779.36L93.63,791.2Zm-64.28-2.83H90.79V793.58L29.35,782.74Z"/><path d="M157.91,846.75H90.79V779.36l67.12,11.84Zm-64.28-2.83h61.44V793.58L93.63,782.74Z"/><path d="M222.19,846.75H155.07V779.36l67.12,11.84Zm-64.28-2.83h61.44V793.58l-61.44-10.84Z"/><path d="M286.47,846.75H219.35V779.36l67.12,11.84Zm-64.28-2.83h61.44V793.58l-61.44-10.84Z"/><path d="M350.75,846.75H283.63V779.36l67.12,11.84Zm-64.28-2.83h61.45V793.58l-61.45-10.84Z"/><path d="M415,846.75H347.92V779.36L415,791.2Zm-64.28-2.83H412.2V793.58l-61.45-10.84Z"/><path d="M479.31,846.75H412.2V779.36l67.11,11.84ZM415,843.92h61.45V793.58L415,782.74Z"/><path d="M543.59,846.75H476.48V779.36l67.11,11.84Zm-64.28-2.83h61.45V793.58l-61.45-10.84Z"/><path d="M607.87,846.75H540.76V779.36l67.11,11.84Zm-64.28-2.83H605V793.58l-61.45-10.84Z"/><path d="M672.15,846.75H605V779.36l67.11,11.84Zm-64.28-2.83h61.45V793.58l-61.45-10.84Z"/><path d="M736.43,846.75H669.32V779.36l67.11,11.84Zm-64.28-2.83H733.6V793.58l-61.45-10.84Z"/><path d="M800.71,846.75H733.6V779.36l67.11,11.84Zm-64.28-2.83h61.45V793.58l-61.45-10.84Z"/><path d="M865,846.75H797.88V779.36L865,791.2Zm-64.29-2.83h61.45V793.58l-61.45-10.84Z"/><path d="M929.28,846.75H862.16V779.36l67.12,11.84ZM865,843.92h61.44V793.58L865,782.74Z"/><path d="M993.56,846.75H926.44V779.36l67.12,11.84Zm-64.28-2.83h61.44V793.58l-61.44-10.84Z"/><path d="M1057.84,846.75H990.72V779.36l67.12,11.84Zm-64.28-2.83H1055V793.58l-61.44-10.84Z"/><path d="M1122.12,846.75H1055V779.36l67.12,11.84Zm-64.28-2.83h61.45V793.58l-61.45-10.84Z"/><path d="M1186.4,846.75h-67.11V779.36l67.11,11.84Zm-64.28-2.83h61.45V793.58l-61.45-10.84Z"/><path d="M1250.68,846.75h-67.11V779.36l67.11,11.84Zm-64.28-2.83h61.45V793.58l-61.45-10.84Z"/><path d="M1315,846.75h-67.11V779.36L1315,791.2Zm-64.28-2.83h61.45V793.58l-61.45-10.84Z"/><path d="M1379.24,846.75h-67.11V779.36l67.11,11.84ZM1315,843.92h61.45V793.58L1315,782.74Z"/><path d="M1443.52,846.75h-67.11V779.36l67.11,11.84Zm-64.28-2.83h61.45V793.58l-61.45-10.84Z"/><path d="M1507.8,846.75h-67.11V779.36l67.11,11.84Zm-64.28-2.83H1505V793.58l-61.45-10.84Z"/><path d="M1572.08,846.75H1505V779.36l67.11,11.84Zm-64.28-2.83h61.45V793.58l-61.45-10.84Z"/><path d="M1636.37,846.75h-67.12V779.36l67.12,11.84Zm-64.29-2.83h61.45V793.58l-61.45-10.84Z"/><path d="M1700.65,846.75h-67.12V779.36l67.12,11.84Zm-64.28-2.83h61.44V793.58l-61.44-10.84Z"/><path d="M1764.93,846.75h-67.12V779.36l67.12,11.84Zm-64.28-2.83h61.44V793.58l-61.44-10.84Z"/><path d="M1829.21,846.75h-67.12V779.36l67.12,11.84Zm-64.28-2.83h61.44V793.58l-61.44-10.84Z"/><path d="M1893.49,846.75h-67.12V779.36l67.12,11.84Zm-64.28-2.83h61.44V793.58l-61.44-10.84Z"/><path d="M93.63,878.89H26.51V811.5l67.12,11.84Zm-64.28-2.83H90.79V825.72L29.35,814.88Z"/><path d="M157.91,878.89H90.79V811.5l67.12,11.84Zm-64.28-2.83h61.44V825.72L93.63,814.88Z"/><path d="M222.19,878.89H155.07V811.5l67.12,11.84Zm-64.28-2.83h61.44V825.72l-61.44-10.84Z"/><path d="M286.47,878.89H219.35V811.5l67.12,11.84Zm-64.28-2.83h61.44V825.72l-61.44-10.84Z"/><path d="M350.75,878.89H283.63V811.5l67.12,11.84Zm-64.28-2.83h61.45V825.72l-61.45-10.84Z"/><path d="M415,878.89H347.92V811.5L415,823.34Zm-64.28-2.83H412.2V825.72l-61.45-10.84Z"/><path d="M479.31,878.89H412.2V811.5l67.11,11.84ZM415,876.06h61.45V825.72L415,814.88Z"/><path d="M543.59,878.89H476.48V811.5l67.11,11.84Zm-64.28-2.83h61.45V825.72l-61.45-10.84Z"/><path d="M607.87,878.89H540.76V811.5l67.11,11.84Zm-64.28-2.83H605V825.72l-61.45-10.84Z"/><path d="M672.15,878.89H605V811.5l67.11,11.84Zm-64.28-2.83h61.45V825.72l-61.45-10.84Z"/><path d="M736.43,878.89H669.32V811.5l67.11,11.84Zm-64.28-2.83H733.6V825.72l-61.45-10.84Z"/><path d="M800.71,878.89H733.6V811.5l67.11,11.84Zm-64.28-2.83h61.45V825.72l-61.45-10.84Z"/><path d="M865,878.89H797.88V811.5L865,823.34Zm-64.29-2.83h61.45V825.72l-61.45-10.84Z"/><path d="M929.28,878.89H862.16V811.5l67.12,11.84ZM865,876.06h61.44V825.72L865,814.88Z"/><path d="M993.56,878.89H926.44V811.5l67.12,11.84Zm-64.28-2.83h61.44V825.72l-61.44-10.84Z"/><path d="M1057.84,878.89H990.72V811.5l67.12,11.84Zm-64.28-2.83H1055V825.72l-61.44-10.84Z"/><path d="M1122.12,878.89H1055V811.5l67.12,11.84Zm-64.28-2.83h61.45V825.72l-61.45-10.84Z"/><path d="M1186.4,878.89h-67.11V811.5l67.11,11.84Zm-64.28-2.83h61.45V825.72l-61.45-10.84Z"/><path d="M1250.68,878.89h-67.11V811.5l67.11,11.84Zm-64.28-2.83h61.45V825.72l-61.45-10.84Z"/><path d="M1315,878.89h-67.11V811.5L1315,823.34Zm-64.28-2.83h61.45V825.72l-61.45-10.84Z"/><path d="M1379.24,878.89h-67.11V811.5l67.11,11.84ZM1315,876.06h61.45V825.72L1315,814.88Z"/><path d="M1443.52,878.89h-67.11V811.5l67.11,11.84Zm-64.28-2.83h61.45V825.72l-61.45-10.84Z"/><path d="M1507.8,878.89h-67.11V811.5l67.11,11.84Zm-64.28-2.83H1505V825.72l-61.45-10.84Z"/><path d="M1572.08,878.89H1505V811.5l67.11,11.84Zm-64.28-2.83h61.45V825.72l-61.45-10.84Z"/><path d="M1636.37,878.89h-67.12V811.5l67.12,11.84Zm-64.29-2.83h61.45V825.72l-61.45-10.84Z"/><path d="M1700.65,878.89h-67.12V811.5l67.12,11.84Zm-64.28-2.83h61.44V825.72l-61.44-10.84Z"/><path d="M1764.93,878.89h-67.12V811.5l67.12,11.84Zm-64.28-2.83h61.44V825.72l-61.44-10.84Z"/><path d="M1829.21,878.89h-67.12V811.5l67.12,11.84Zm-64.28-2.83h61.44V825.72l-61.44-10.84Z"/><path d="M1893.49,878.89h-67.12V811.5l67.12,11.84Zm-64.28-2.83h61.44V825.72l-61.44-10.84Z"/><path d="M93.63,943.17H26.51V875.79l67.12,11.83Zm-64.28-2.83H90.79V890L29.35,879.16Z"/><path d="M157.91,943.17H90.79V875.79l67.12,11.83Zm-64.28-2.83h61.44V890L93.63,879.16Z"/><path d="M222.19,943.17H155.07V875.79l67.12,11.83Zm-64.28-2.83h61.44V890l-61.44-10.84Z"/><path d="M286.47,943.17H219.35V875.79l67.12,11.83Zm-64.28-2.83h61.44V890l-61.44-10.84Z"/><path d="M350.75,943.17H283.63V875.79l67.12,11.83Zm-64.28-2.83h61.45V890l-61.45-10.84Z"/><path d="M415,943.17H347.92V875.79L415,887.62Zm-64.28-2.83H412.2V890l-61.45-10.84Z"/><path d="M479.31,943.17H412.2V875.79l67.11,11.83ZM415,940.34h61.45V890L415,879.16Z"/><path d="M543.59,943.17H476.48V875.79l67.11,11.83Zm-64.28-2.83h61.45V890l-61.45-10.84Z"/><path d="M607.87,943.17H540.76V875.79l67.11,11.83Zm-64.28-2.83H605V890l-61.45-10.84Z"/><path d="M672.15,943.17H605V875.79l67.11,11.83Zm-64.28-2.83h61.45V890l-61.45-10.84Z"/><path d="M736.43,943.17H669.32V875.79l67.11,11.83Zm-64.28-2.83H733.6V890l-61.45-10.84Z"/><path d="M800.71,943.17H733.6V875.79l67.11,11.83Zm-64.28-2.83h61.45V890l-61.45-10.84Z"/><path d="M865,943.17H797.88V875.79L865,887.62Zm-64.29-2.83h61.45V890l-61.45-10.84Z"/><path d="M929.28,943.17H862.16V875.79l67.12,11.83ZM865,940.34h61.44V890L865,879.16Z"/><path d="M993.56,943.17H926.44V875.79l67.12,11.83Zm-64.28-2.83h61.44V890l-61.44-10.84Z"/><path d="M1057.84,943.17H990.72V875.79l67.12,11.83Zm-64.28-2.83H1055V890l-61.44-10.84Z"/><path d="M1122.12,943.17H1055V875.79l67.12,11.83Zm-64.28-2.83h61.45V890l-61.45-10.84Z"/><path d="M1186.4,943.17h-67.11V875.79l67.11,11.83Zm-64.28-2.83h61.45V890l-61.45-10.84Z"/><path d="M1250.68,943.17h-67.11V875.79l67.11,11.83Zm-64.28-2.83h61.45V890l-61.45-10.84Z"/><path d="M1315,943.17h-67.11V875.79L1315,887.62Zm-64.28-2.83h61.45V890l-61.45-10.84Z"/><path d="M1379.24,943.17h-67.11V875.79l67.11,11.83ZM1315,940.34h61.45V890L1315,879.16Z"/><path d="M1443.52,943.17h-67.11V875.79l67.11,11.83Zm-64.28-2.83h61.45V890l-61.45-10.84Z"/><path d="M1507.8,943.17h-67.11V875.79l67.11,11.83Zm-64.28-2.83H1505V890l-61.45-10.84Z"/><path d="M1572.08,943.17H1505V875.79l67.11,11.83Zm-64.28-2.83h61.45V890l-61.45-10.84Z"/><path d="M1636.37,943.17h-67.12V875.79l67.12,11.83Zm-64.29-2.83h61.45V890l-61.45-10.84Z"/><path d="M1700.65,943.17h-67.12V875.79l67.12,11.83Zm-64.28-2.83h61.44V890l-61.44-10.84Z"/><path d="M1764.93,943.17h-67.12V875.79l67.12,11.83Zm-64.28-2.83h61.44V890l-61.44-10.84Z"/><path d="M1829.21,943.17h-67.12V875.79l67.12,11.83Zm-64.28-2.83h61.44V890l-61.44-10.84Z"/><path d="M1893.49,943.17h-67.12V875.79l67.12,11.83Zm-64.28-2.83h61.44V890l-61.44-10.84Z"/><path d="M93.63,975.31H26.51V907.92l67.12,11.84Zm-64.28-2.83H90.79V922.14L29.35,911.3Z"/><path d="M157.91,975.31H90.79V907.92l67.12,11.84Zm-64.28-2.83h61.44V922.14L93.63,911.3Z"/><path d="M222.19,975.31H155.07V907.92l67.12,11.84Zm-64.28-2.83h61.44V922.14L157.91,911.3Z"/><path d="M286.47,975.31H219.35V907.92l67.12,11.84Zm-64.28-2.83h61.44V922.14L222.19,911.3Z"/><path d="M350.75,975.31H283.63V907.92l67.12,11.84Zm-64.28-2.83h61.45V922.14L286.47,911.3Z"/><path d="M415,975.31H347.92V907.92L415,919.76Zm-64.28-2.83H412.2V922.14L350.75,911.3Z"/><path d="M479.31,975.31H412.2V907.92l67.11,11.84ZM415,972.48h61.45V922.14L415,911.3Z"/><path d="M543.59,975.31H476.48V907.92l67.11,11.84Zm-64.28-2.83h61.45V922.14L479.31,911.3Z"/><path d="M607.87,975.31H540.76V907.92l67.11,11.84Zm-64.28-2.83H605V922.14L543.59,911.3Z"/><path d="M672.15,975.31H605V907.92l67.11,11.84Zm-64.28-2.83h61.45V922.14L607.87,911.3Z"/><path d="M736.43,975.31H669.32V907.92l67.11,11.84Zm-64.28-2.83H733.6V922.14L672.15,911.3Z"/><path d="M800.71,975.31H733.6V907.92l67.11,11.84Zm-64.28-2.83h61.45V922.14L736.43,911.3Z"/><path d="M865,975.31H797.88V907.92L865,919.76Zm-64.29-2.83h61.45V922.14L800.71,911.3Z"/><path d="M929.28,975.31H862.16V907.92l67.12,11.84ZM865,972.48h61.44V922.14L865,911.3Z"/><path d="M993.56,975.31H926.44V907.92l67.12,11.84Zm-64.28-2.83h61.44V922.14L929.28,911.3Z"/><path d="M1057.84,975.31H990.72V907.92l67.12,11.84Zm-64.28-2.83H1055V922.14L993.56,911.3Z"/><path d="M1122.12,975.31H1055V907.92l67.12,11.84Zm-64.28-2.83h61.45V922.14l-61.45-10.84Z"/><path d="M1186.4,975.31h-67.11V907.92l67.11,11.84Zm-64.28-2.83h61.45V922.14l-61.45-10.84Z"/><path d="M1250.68,975.31h-67.11V907.92l67.11,11.84Zm-64.28-2.83h61.45V922.14L1186.4,911.3Z"/><path d="M1315,975.31h-67.11V907.92L1315,919.76Zm-64.28-2.83h61.45V922.14l-61.45-10.84Z"/><path d="M1379.24,975.31h-67.11V907.92l67.11,11.84ZM1315,972.48h61.45V922.14L1315,911.3Z"/><path d="M1443.52,975.31h-67.11V907.92l67.11,11.84Zm-64.28-2.83h61.45V922.14l-61.45-10.84Z"/><path d="M1507.8,975.31h-67.11V907.92l67.11,11.84Zm-64.28-2.83H1505V922.14l-61.45-10.84Z"/><path d="M1572.08,975.31H1505V907.92l67.11,11.84Zm-64.28-2.83h61.45V922.14L1507.8,911.3Z"/><path d="M1636.37,975.31h-67.12V907.92l67.12,11.84Zm-64.29-2.83h61.45V922.14l-61.45-10.84Z"/><path d="M1700.65,975.31h-67.12V907.92l67.12,11.84Zm-64.28-2.83h61.44V922.14l-61.44-10.84Z"/><path d="M1764.93,975.31h-67.12V907.92l67.12,11.84Zm-64.28-2.83h61.44V922.14l-61.44-10.84Z"/><path d="M1829.21,975.31h-67.12V907.92l67.12,11.84Zm-64.28-2.83h61.44V922.14l-61.44-10.84Z"/><path d="M1893.49,975.31h-67.12V907.92l67.12,11.84Zm-64.28-2.83h61.44V922.14l-61.44-10.84Z"/><path d="M93.63,1039.59H26.51V972.21L93.63,984Zm-64.28-2.83H90.79V986.42L29.35,975.58Z"/><path d="M157.91,1039.59H90.79V972.21L157.91,984Zm-64.28-2.83h61.44V986.42L93.63,975.58Z"/><path d="M222.19,1039.59H155.07V972.21L222.19,984Zm-64.28-2.83h61.44V986.42l-61.44-10.84Z"/><path d="M286.47,1039.59H219.35V972.21L286.47,984Zm-64.28-2.83h61.44V986.42l-61.44-10.84Z"/><path d="M350.75,1039.59H283.63V972.21L350.75,984Zm-64.28-2.83h61.45V986.42l-61.45-10.84Z"/><path d="M415,1039.59H347.92V972.21L415,984Zm-64.28-2.83H412.2V986.42l-61.45-10.84Z"/><path d="M479.31,1039.59H412.2V972.21L479.31,984ZM415,1036.76h61.45V986.42L415,975.58Z"/><path d="M543.59,1039.59H476.48V972.21L543.59,984Zm-64.28-2.83h61.45V986.42l-61.45-10.84Z"/><path d="M607.87,1039.59H540.76V972.21L607.87,984Zm-64.28-2.83H605V986.42l-61.45-10.84Z"/><path d="M672.15,1039.59H605V972.21L672.15,984Zm-64.28-2.83h61.45V986.42l-61.45-10.84Z"/><path d="M736.43,1039.59H669.32V972.21L736.43,984Zm-64.28-2.83H733.6V986.42l-61.45-10.84Z"/><path d="M800.71,1039.59H733.6V972.21L800.71,984Zm-64.28-2.83h61.45V986.42l-61.45-10.84Z"/><path d="M865,1039.59H797.88V972.21L865,984Zm-64.29-2.83h61.45V986.42l-61.45-10.84Z"/><path d="M929.28,1039.59H862.16V972.21L929.28,984ZM865,1036.76h61.44V986.42L865,975.58Z"/><path d="M993.56,1039.59H926.44V972.21L993.56,984Zm-64.28-2.83h61.44V986.42l-61.44-10.84Z"/><path d="M1057.84,1039.59H990.72V972.21L1057.84,984Zm-64.28-2.83H1055V986.42l-61.44-10.84Z"/><path d="M1122.12,1039.59H1055V972.21L1122.12,984Zm-64.28-2.83h61.45V986.42l-61.45-10.84Z"/><path d="M1186.4,1039.59h-67.11V972.21L1186.4,984Zm-64.28-2.83h61.45V986.42l-61.45-10.84Z"/><path d="M1250.68,1039.59h-67.11V972.21L1250.68,984Zm-64.28-2.83h61.45V986.42l-61.45-10.84Z"/><path d="M1315,1039.59h-67.11V972.21L1315,984Zm-64.28-2.83h61.45V986.42l-61.45-10.84Z"/><path d="M1379.24,1039.59h-67.11V972.21L1379.24,984Zm-64.28-2.83h61.45V986.42L1315,975.58Z"/><path d="M1443.52,1039.59h-67.11V972.21L1443.52,984Zm-64.28-2.83h61.45V986.42l-61.45-10.84Z"/><path d="M1507.8,1039.59h-67.11V972.21L1507.8,984Zm-64.28-2.83H1505V986.42l-61.45-10.84Z"/><path d="M1572.08,1039.59H1505V972.21L1572.08,984Zm-64.28-2.83h61.45V986.42l-61.45-10.84Z"/><path d="M1636.37,1039.59h-67.12V972.21L1636.37,984Zm-64.29-2.83h61.45V986.42l-61.45-10.84Z"/><path d="M1700.65,1039.59h-67.12V972.21L1700.65,984Zm-64.28-2.83h61.44V986.42l-61.44-10.84Z"/><path d="M1764.93,1039.59h-67.12V972.21L1764.93,984Zm-64.28-2.83h61.44V986.42l-61.44-10.84Z"/><path d="M1829.21,1039.59h-67.12V972.21L1829.21,984Zm-64.28-2.83h61.44V986.42l-61.44-10.84Z"/><path d="M1893.49,1039.59h-67.12V972.21L1893.49,984Zm-64.28-2.83h61.44V986.42l-61.44-10.84Z"/><path d="M93.63,107.52H26.51V40.13L93.63,52Zm-64.28-2.83H90.79V54.35L29.35,43.51Z"/><path d="M157.91,107.52H90.79V40.13L157.91,52Zm-64.28-2.83h61.44V54.35L93.63,43.51Z"/><path d="M222.19,107.52H155.07V40.13L222.19,52Zm-64.28-2.83h61.44V54.35L157.91,43.51Z"/><path d="M286.47,107.52H219.35V40.13L286.47,52Zm-64.28-2.83h61.44V54.35L222.19,43.51Z"/><path d="M350.75,107.52H283.63V40.13L350.75,52Zm-64.28-2.83h61.45V54.35L286.47,43.51Z"/><path d="M415,107.52H347.92V40.13L415,52Zm-64.28-2.83H412.2V54.35L350.75,43.51Z"/><path d="M479.31,107.52H412.2V40.13L479.31,52ZM415,104.69h61.45V54.35L415,43.51Z"/><path d="M543.59,107.52H476.48V40.13L543.59,52Zm-64.28-2.83h61.45V54.35L479.31,43.51Z"/><path d="M607.87,107.52H540.76V40.13L607.87,52Zm-64.28-2.83H605V54.35L543.59,43.51Z"/><path d="M672.15,107.52H605V40.13L672.15,52Zm-64.28-2.83h61.45V54.35L607.87,43.51Z"/><path d="M736.43,107.52H669.32V40.13L736.43,52Zm-64.28-2.83H733.6V54.35L672.15,43.51Z"/><path d="M800.71,107.52H733.6V40.13L800.71,52Zm-64.28-2.83h61.45V54.35L736.43,43.51Z"/><path d="M865,107.52H797.88V40.13L865,52Zm-64.29-2.83h61.45V54.35L800.71,43.51Z"/><path d="M929.28,107.52H862.16V40.13L929.28,52ZM865,104.69h61.44V54.35L865,43.51Z"/><path d="M993.56,107.52H926.44V40.13L993.56,52Zm-64.28-2.83h61.44V54.35L929.28,43.51Z"/><path d="M1057.84,107.52H990.72V40.13L1057.84,52Zm-64.28-2.83H1055V54.35L993.56,43.51Z"/><path d="M1122.12,107.52H1055V40.13L1122.12,52Zm-64.28-2.83h61.45V54.35l-61.45-10.84Z"/><path d="M1186.4,107.52h-67.11V40.13L1186.4,52Zm-64.28-2.83h61.45V54.35l-61.45-10.84Z"/><path d="M1250.68,107.52h-67.11V40.13L1250.68,52Zm-64.28-2.83h61.45V54.35L1186.4,43.51Z"/><path d="M1315,107.52h-67.11V40.13L1315,52Zm-64.28-2.83h61.45V54.35l-61.45-10.84Z"/><path d="M1379.24,107.52h-67.11V40.13L1379.24,52ZM1315,104.69h61.45V54.35L1315,43.51Z"/><path d="M1443.52,107.52h-67.11V40.13L1443.52,52Zm-64.28-2.83h61.45V54.35l-61.45-10.84Z"/><path d="M1507.8,107.52h-67.11V40.13L1507.8,52Zm-64.28-2.83H1505V54.35l-61.45-10.84Z"/><path d="M1572.08,107.52H1505V40.13L1572.08,52Zm-64.28-2.83h61.45V54.35L1507.8,43.51Z"/><path d="M1636.37,107.52h-67.12V40.13L1636.37,52Zm-64.29-2.83h61.45V54.35l-61.45-10.84Z"/><path d="M1700.65,107.52h-67.12V40.13L1700.65,52Zm-64.28-2.83h61.44V54.35l-61.44-10.84Z"/><path d="M1764.93,107.52h-67.12V40.13L1764.93,52Zm-64.28-2.83h61.44V54.35l-61.44-10.84Z"/><path d="M1829.21,107.52h-67.12V40.13L1829.21,52Zm-64.28-2.83h61.44V54.35l-61.44-10.84Z"/><path d="M1893.49,107.52h-67.12V40.13L1893.49,52Zm-64.28-2.83h61.44V54.35l-61.44-10.84Z"/></g></svg>