<svg xmlns="http://www.w3.org/2000/svg" viewBox="0 0 1920 1080"><defs><style>.cls-1{fill:#fff;}</style></defs><g id="Layer_1" data-name="Layer 1"><rect class="cls-1" width="1920" height="1080"/><path d="M121.77,1003.07l-5.25,14.42h2.66l1-2.77h6.53l1,2.77h2.65l-5.25-14.42Zm-.68,9.15,2.36-6.46,2.35,6.46Z"/><polygon points="90.73 983.95 90.73 981.45 80.19 981.45 80.19 995.87 90.73 995.87 90.73 993.37 83.24 993.37 83.24 989.49 89.62 989.49 89.62 987 83.24 987 83.24 983.95 90.73 983.95"/><path d="M93.22,967.31l-7.88-1.39-.44,2.46,3.92.69A3.85,3.85,0,0,1,84.9,972c-2.77,0-4.15-1.94-4.15-5s1.38-5,4.15-5a3.73,3.73,0,0,1,3.82,2.65l2.77-1a6.76,6.76,0,0,0-6.59-4.13c-4.15,0-7.2,2.77-7.2,7.48s3,7.49,7.2,7.49a5.6,5.6,0,0,0,4.23-1.91l.21,1.63h1.94V969.5l1.51.27Z"/><path d="M87.59,1009.25l-2.47-.43c-1.29-.23-2.16-.75-2.16-1.86s1-1.67,2.36-1.67a2.51,2.51,0,0,1,2.38,1.32l2.75-1c-.68-1.6-2.56-2.81-5.13-2.81h0c-3.25,0-5.41,1.66-5.41,4.16s1.89,3.81,4,4.18l2.26.4c1.21.22,2,1,2,1.79,0,1.39-1.26,1.94-2.91,1.94a3.26,3.26,0,0,1-2.89-1.55l-2.79,1c.73,1.78,2.86,3,5.68,3,3.52,0,6-1.67,6-4.44A4,4,0,0,0,87.59,1009.25Z"/><path d="M106.44,1009.25l-2.47-.43c-1.29-.23-2.16-.75-2.16-1.86s1-1.67,2.36-1.67a2.51,2.51,0,0,1,2.38,1.32l2.75-1c-.68-1.6-2.56-2.81-5.13-2.81h0c-3.25,0-5.41,1.66-5.41,4.16s1.9,3.81,4,4.18l2.26.4c1.2.22,2,1,2,1.79,0,1.39-1.26,1.94-2.91,1.94a3.27,3.27,0,0,1-2.89-1.55l-2.79,1c.73,1.78,2.86,3,5.68,3,3.52,0,6-1.67,6-4.44A4,4,0,0,0,106.44,1009.25Z"/><path d="M385.14,1003.07l-5.25,14.42h2.66l1-2.77h6.52l1,2.77h2.65l-5.24-14.42Zm-.67,9.15,2.35-6.46,2.35,6.46Z"/><polygon points="354.1 983.95 354.1 981.45 343.56 981.45 343.56 995.87 354.1 995.87 354.1 993.37 346.62 993.37 346.62 989.49 352.99 989.49 352.99 987 346.62 987 346.62 983.95 354.1 983.95"/><path d="M356.6,967.31l-7.89-1.39-.43,2.46,3.92.69a3.86,3.86,0,0,1-3.92,2.95c-2.77,0-4.16-1.94-4.16-5s1.39-5,4.16-5a3.72,3.72,0,0,1,3.81,2.65l2.78-1a6.78,6.78,0,0,0-6.59-4.13c-4.16,0-7.21,2.77-7.21,7.48s3.05,7.49,7.21,7.49a5.6,5.6,0,0,0,4.23-1.91l.2,1.63h1.94V969.5l1.51.27Z"/><path d="M351,1009.25l-2.46-.43c-1.29-.23-2.16-.75-2.16-1.86s1-1.67,2.35-1.67a2.51,2.51,0,0,1,2.38,1.32l2.75-1c-.68-1.6-2.56-2.81-5.13-2.81h0c-3.25,0-5.4,1.66-5.4,4.16s1.89,3.81,4,4.18l2.26.4c1.21.22,2,1,2,1.79,0,1.39-1.27,1.94-2.92,1.94a3.27,3.27,0,0,1-2.89-1.55l-2.79,1c.73,1.78,2.86,3,5.68,3,3.53,0,6-1.67,6-4.44A4,4,0,0,0,351,1009.25Z"/><path d="M369.81,1009.25l-2.46-.43c-1.29-.23-2.16-.75-2.16-1.86s1-1.67,2.36-1.67a2.5,2.5,0,0,1,2.37,1.32l2.75-1c-.68-1.6-2.56-2.81-5.12-2.81h0c-3.26,0-5.41,1.66-5.41,4.16s1.89,3.81,4,4.18l2.26.4c1.21.22,2,1,2,1.79,0,1.39-1.27,1.94-2.91,1.94a3.27,3.27,0,0,1-2.9-1.55l-2.79,1c.73,1.78,2.86,3,5.69,3,3.52,0,6-1.67,6-4.44A4,4,0,0,0,369.81,1009.25Z"/><path d="M648.52,1003.07l-5.25,14.42h2.65l1-2.77h6.53l1,2.77h2.66l-5.25-14.42Zm-.68,9.15,2.35-6.46,2.36,6.46Z"/><polygon points="617.48 983.95 617.48 981.45 606.94 981.45 606.94 995.87 617.48 995.87 617.48 993.37 609.99 993.37 609.99 989.49 616.37 989.49 616.37 987 609.99 987 609.99 983.95 617.48 983.95"/><path d="M620,967.31l-7.88-1.39-.44,2.46,3.92.69a3.85,3.85,0,0,1-3.92,2.95c-2.77,0-4.16-1.94-4.16-5s1.39-5,4.16-5a3.71,3.71,0,0,1,3.81,2.65l2.78-1a6.76,6.76,0,0,0-6.59-4.13c-4.16,0-7.21,2.77-7.21,7.48s3,7.49,7.21,7.49a5.6,5.6,0,0,0,4.23-1.91l.21,1.63H618V969.5l1.51.27Z"/><path d="M614.34,1009.25l-2.47-.43c-1.29-.23-2.16-.75-2.16-1.86s1-1.67,2.36-1.67a2.48,2.48,0,0,1,2.37,1.32l2.76-1c-.68-1.6-2.57-2.81-5.13-2.81h0c-3.25,0-5.41,1.66-5.41,4.16s1.89,3.81,4,4.18l2.26.4c1.21.22,2,1,2,1.79,0,1.39-1.27,1.94-2.91,1.94a3.26,3.26,0,0,1-2.89-1.55l-2.79,1c.73,1.78,2.85,3,5.68,3,3.52,0,6-1.67,6-4.44A4,4,0,0,0,614.34,1009.25Z"/><path d="M633.19,1009.25l-2.47-.43c-1.29-.23-2.16-.75-2.16-1.86s1-1.67,2.36-1.67a2.51,2.51,0,0,1,2.38,1.32l2.75-1c-.68-1.6-2.56-2.81-5.13-2.81h0c-3.25,0-5.41,1.66-5.41,4.16s1.89,3.81,4,4.18l2.26.4c1.21.22,2,1,2,1.79,0,1.39-1.26,1.94-2.91,1.94a3.26,3.26,0,0,1-2.89-1.55l-2.79,1c.73,1.78,2.86,3,5.68,3,3.52,0,6-1.67,6-4.44A4,4,0,0,0,633.19,1009.25Z"/><path d="M911.89,1003.07l-5.25,14.42h2.66l1-2.77h6.52l1,2.77h2.65l-5.24-14.42Zm-.67,9.15,2.35-6.46,2.35,6.46Z"/><polygon points="880.85 983.95 880.85 981.45 870.31 981.45 870.31 995.87 880.85 995.87 880.85 993.37 873.36 993.37 873.36 989.49 879.74 989.49 879.74 987 873.36 987 873.36 983.95 880.85 983.95"/><path d="M883.34,967.31l-7.88-1.39-.43,2.46,3.92.69A3.86,3.86,0,0,1,875,972c-2.78,0-4.16-1.94-4.16-5s1.38-5,4.16-5a3.72,3.72,0,0,1,3.81,2.65l2.78-1a6.78,6.78,0,0,0-6.59-4.13c-4.16,0-7.21,2.77-7.21,7.48s3,7.49,7.21,7.49a5.6,5.6,0,0,0,4.23-1.91l.2,1.63h1.94V969.5l1.51.27Z"/><path d="M877.71,1009.25l-2.46-.43c-1.29-.23-2.16-.75-2.16-1.86s1-1.67,2.35-1.67a2.51,2.51,0,0,1,2.38,1.32l2.75-1c-.68-1.6-2.56-2.81-5.13-2.81h0c-3.25,0-5.4,1.66-5.4,4.16s1.89,3.81,4,4.18l2.26.4c1.21.22,2,1,2,1.79,0,1.39-1.26,1.94-2.91,1.94a3.27,3.27,0,0,1-2.89-1.55l-2.79,1c.73,1.78,2.86,3,5.68,3,3.53,0,6-1.67,6-4.44A4,4,0,0,0,877.71,1009.25Z"/><path d="M896.56,1009.25l-2.46-.43c-1.29-.23-2.16-.75-2.16-1.86s1-1.67,2.35-1.67a2.51,2.51,0,0,1,2.38,1.32l2.75-1c-.68-1.6-2.56-2.81-5.13-2.81h0c-3.25,0-5.4,1.66-5.4,4.16s1.89,3.81,4,4.18l2.26.4c1.21.22,2,1,2,1.79,0,1.39-1.27,1.94-2.92,1.94a3.27,3.27,0,0,1-2.89-1.55l-2.79,1c.73,1.78,2.86,3,5.68,3,3.53,0,6-1.67,6-4.44A4,4,0,0,0,896.56,1009.25Z"/><path d="M1175.26,1003.07l-5.24,14.42h2.65l1-2.77h6.52l1,2.77h2.66l-5.25-14.42Zm-.67,9.15,2.35-6.46,2.36,6.46Z"/><polygon points="1144.22 983.95 1144.22 981.45 1133.69 981.45 1133.69 995.87 1144.22 995.87 1144.22 993.37 1136.74 993.37 1136.74 989.49 1143.12 989.49 1143.12 987 1136.74 987 1136.74 983.95 1144.22 983.95"/><path d="M1146.72,967.31l-7.88-1.39-.44,2.46,3.92.69a3.85,3.85,0,0,1-3.92,2.95c-2.77,0-4.16-1.94-4.16-5s1.39-5,4.16-5a3.72,3.72,0,0,1,3.81,2.65l2.78-1a6.76,6.76,0,0,0-6.59-4.13c-4.16,0-7.21,2.77-7.21,7.48s3,7.49,7.21,7.49a5.6,5.6,0,0,0,4.23-1.91l.21,1.63h1.94V969.5l1.51.27Z"/><path d="M1141.09,1009.25l-2.47-.43c-1.29-.23-2.16-.75-2.16-1.86s1-1.67,2.36-1.67a2.49,2.49,0,0,1,2.37,1.32l2.76-1c-.68-1.6-2.57-2.81-5.13-2.81h0c-3.25,0-5.41,1.66-5.41,4.16s1.89,3.81,4,4.18l2.26.4c1.21.22,2,1,2,1.79,0,1.39-1.27,1.94-2.91,1.94a3.26,3.26,0,0,1-2.89-1.55l-2.8,1c.74,1.78,2.86,3,5.69,3,3.52,0,6-1.67,6-4.44A4,4,0,0,0,1141.09,1009.25Z"/><path d="M1159.94,1009.25l-2.47-.43c-1.29-.23-2.16-.75-2.16-1.86s1-1.67,2.36-1.67a2.48,2.48,0,0,1,2.37,1.32l2.76-1c-.68-1.6-2.57-2.81-5.13-2.81h0c-3.25,0-5.41,1.66-5.41,4.16s1.89,3.81,4,4.18l2.26.4c1.21.22,2,1,2,1.79,0,1.39-1.27,1.94-2.91,1.94a3.26,3.26,0,0,1-2.89-1.55l-2.79,1c.73,1.78,2.85,3,5.68,3,3.52,0,6-1.67,6-4.44A4,4,0,0,0,1159.94,1009.25Z"/><path d="M1438.64,1003.07l-5.25,14.42h2.66l1-2.77h6.52l1,2.77h2.65l-5.24-14.42Zm-.68,9.15,2.36-6.46,2.35,6.46Z"/><polygon points="1407.6 983.95 1407.6 981.45 1397.06 981.45 1397.06 995.87 1407.6 995.87 1407.6 993.37 1400.11 993.37 1400.11 989.49 1406.49 989.49 1406.49 987 1400.11 987 1400.11 983.95 1407.6 983.95"/><path d="M1410.09,967.31l-7.88-1.39-.43,2.46,3.92.69a3.86,3.86,0,0,1-3.92,2.95c-2.78,0-4.16-1.94-4.16-5s1.38-5,4.16-5a3.72,3.72,0,0,1,3.81,2.65l2.78-1a6.78,6.78,0,0,0-6.59-4.13c-4.16,0-7.21,2.77-7.21,7.48s3,7.49,7.21,7.49a5.63,5.63,0,0,0,4.23-1.91l.2,1.63h1.94V969.5l1.51.27Z"/><path d="M1404.46,1009.25l-2.46-.43c-1.3-.23-2.16-.75-2.16-1.86s1-1.67,2.35-1.67a2.51,2.51,0,0,1,2.38,1.32l2.75-1c-.68-1.6-2.56-2.81-5.13-2.81h0c-3.25,0-5.4,1.66-5.4,4.16s1.89,3.81,4,4.18l2.26.4c1.2.22,2,1,2,1.79,0,1.39-1.26,1.94-2.91,1.94a3.27,3.27,0,0,1-2.89-1.55l-2.79,1c.73,1.78,2.86,3,5.68,3,3.52,0,6-1.67,6-4.44A4,4,0,0,0,1404.46,1009.25Z"/><path d="M1423.31,1009.25l-2.46-.43c-1.29-.23-2.16-.75-2.16-1.86s1-1.67,2.35-1.67a2.51,2.51,0,0,1,2.38,1.32l2.75-1c-.68-1.6-2.56-2.81-5.13-2.81h0c-3.25,0-5.4,1.66-5.4,4.16s1.89,3.81,4,4.18l2.26.4c1.21.22,2,1,2,1.79,0,1.39-1.26,1.94-2.91,1.94a3.27,3.27,0,0,1-2.89-1.55l-2.79,1c.73,1.78,2.86,3,5.68,3,3.53,0,6-1.67,6-4.44A4,4,0,0,0,1423.31,1009.25Z"/><path d="M1702,1003.07l-5.24,14.42h2.65l1-2.77H1707l1,2.77h2.66l-5.25-14.42Zm-.67,9.15,2.35-6.46,2.35,6.46Z"/><polygon points="1670.97 983.95 1670.97 981.45 1660.44 981.45 1660.44 995.87 1670.97 995.87 1670.97 993.37 1663.49 993.37 1663.49 989.49 1669.86 989.49 1669.86 987 1663.49 987 1663.49 983.95 1670.97 983.95"/><path d="M1673.47,967.31l-7.89-1.39-.43,2.46,3.92.69a3.85,3.85,0,0,1-3.92,2.95c-2.77,0-4.16-1.94-4.16-5s1.39-5,4.16-5a3.72,3.72,0,0,1,3.81,2.65l2.78-1a6.76,6.76,0,0,0-6.59-4.13c-4.16,0-7.21,2.77-7.21,7.48s3,7.49,7.21,7.49a5.6,5.6,0,0,0,4.23-1.91l.21,1.63h1.94V969.5l1.5.27Z"/><path d="M1667.83,1009.25l-2.46-.43c-1.29-.23-2.16-.75-2.16-1.86s1-1.67,2.36-1.67a2.5,2.5,0,0,1,2.37,1.32l2.75-1c-.68-1.6-2.56-2.81-5.12-2.81h0c-3.25,0-5.41,1.66-5.41,4.16s1.89,3.81,4,4.18l2.26.4c1.21.22,2,1,2,1.79,0,1.39-1.27,1.94-2.91,1.94a3.26,3.26,0,0,1-2.89-1.55l-2.8,1c.74,1.78,2.86,3,5.69,3,3.52,0,6-1.67,6-4.44A4,4,0,0,0,1667.83,1009.25Z"/><path d="M1686.69,1009.25l-2.47-.43c-1.29-.23-2.16-.75-2.16-1.86s1-1.67,2.36-1.67a2.49,2.49,0,0,1,2.37,1.32l2.76-1c-.68-1.6-2.57-2.81-5.13-2.81h0c-3.25,0-5.41,1.66-5.41,4.16s1.89,3.81,4,4.18l2.26.4c1.21.22,2,1,2,1.79,0,1.39-1.27,1.94-2.91,1.94a3.26,3.26,0,0,1-2.89-1.55l-2.79,1c.73,1.78,2.85,3,5.68,3,3.52,0,6-1.67,6-4.44A4,4,0,0,0,1686.69,1009.25Z"/><path d="M253.45,857.53l-5.24,14.41h2.65l1-2.77h6.52l1,2.77h2.66l-5.25-14.41Zm-.67,9.14,2.35-6.46,2.36,6.46Z"/><polygon points="222.41 838.4 222.41 835.9 211.88 835.9 211.88 850.32 222.41 850.32 222.41 847.82 214.93 847.82 214.93 843.94 221.3 843.94 221.3 841.45 214.93 841.45 214.93 838.4 222.41 838.4"/><path d="M224.91,821.76,217,820.37l-.44,2.46,3.92.69a3.86,3.86,0,0,1-3.92,3c-2.77,0-4.16-2-4.16-5s1.39-5,4.16-5a3.72,3.72,0,0,1,3.81,2.65l2.78-1a6.76,6.76,0,0,0-6.59-4.13c-4.16,0-7.21,2.77-7.21,7.49s3.05,7.48,7.21,7.48a5.6,5.6,0,0,0,4.23-1.91l.21,1.63H223V824l1.5.27Z"/><path d="M219.28,863.7l-2.47-.43c-1.29-.23-2.16-.75-2.16-1.86s1-1.67,2.36-1.67a2.5,2.5,0,0,1,2.37,1.32l2.75-1c-.67-1.6-2.56-2.81-5.12-2.81h0c-3.25,0-5.41,1.66-5.41,4.16s1.89,3.81,4,4.19l2.26.39c1.21.22,2,1,2,1.79,0,1.39-1.27,1.94-2.91,1.94a3.26,3.26,0,0,1-2.89-1.55l-2.8,1c.74,1.78,2.86,3,5.69,3,3.52,0,6-1.66,6-4.44A4.05,4.05,0,0,0,219.28,863.7Z"/><path d="M238.13,863.7l-2.47-.43c-1.29-.23-2.16-.75-2.16-1.86s1-1.67,2.36-1.67a2.49,2.49,0,0,1,2.37,1.32l2.76-1c-.68-1.6-2.57-2.81-5.13-2.81h0c-3.25,0-5.41,1.66-5.41,4.16s1.89,3.81,4,4.19l2.26.39c1.21.22,2,1,2,1.79,0,1.39-1.27,1.94-2.91,1.94a3.26,3.26,0,0,1-2.89-1.55l-2.79,1c.73,1.78,2.85,3,5.68,3,3.52,0,6-1.66,6-4.44A4.05,4.05,0,0,0,238.13,863.7Z"/><path d="M516.83,857.53l-5.25,14.41h2.66l1-2.77h6.52l1,2.77h2.65l-5.24-14.41Zm-.68,9.14,2.36-6.46,2.35,6.46Z"/><polygon points="485.79 838.4 485.79 835.9 475.25 835.9 475.25 850.32 485.79 850.32 485.79 847.82 478.3 847.82 478.3 843.94 484.68 843.94 484.68 841.45 478.3 841.45 478.3 838.4 485.79 838.4"/><path d="M488.28,821.76l-7.88-1.39-.43,2.46,3.92.69a3.87,3.87,0,0,1-3.92,3c-2.78,0-4.16-2-4.16-5s1.38-5,4.16-5a3.72,3.72,0,0,1,3.81,2.65l2.77-1A6.76,6.76,0,0,0,480,814c-4.16,0-7.21,2.77-7.21,7.49S475.81,829,480,829a5.63,5.63,0,0,0,4.23-1.91l.2,1.63h1.94V824l1.51.27Z"/><path d="M482.65,863.7l-2.47-.43c-1.29-.23-2.16-.75-2.16-1.86s1-1.67,2.36-1.67a2.51,2.51,0,0,1,2.38,1.32l2.75-1c-.68-1.6-2.56-2.81-5.13-2.81h0c-3.25,0-5.4,1.66-5.4,4.16s1.89,3.81,4,4.19l2.26.39c1.2.22,2,1,2,1.79,0,1.39-1.26,1.94-2.91,1.94a3.27,3.27,0,0,1-2.89-1.55l-2.79,1c.73,1.78,2.86,3,5.68,3,3.52,0,6-1.66,6-4.44A4.05,4.05,0,0,0,482.65,863.7Z"/><path d="M501.5,863.7l-2.46-.43c-1.3-.23-2.16-.75-2.16-1.86s1-1.67,2.35-1.67a2.51,2.51,0,0,1,2.38,1.32l2.75-1c-.68-1.6-2.56-2.81-5.13-2.81h0c-3.25,0-5.4,1.66-5.4,4.16s1.89,3.81,4,4.19l2.26.39c1.2.22,2,1,2,1.79,0,1.39-1.26,1.94-2.91,1.94a3.27,3.27,0,0,1-2.89-1.55l-2.79,1c.73,1.78,2.86,3,5.68,3,3.52,0,6-1.66,6-4.44A4,4,0,0,0,501.5,863.7Z"/><path d="M780.2,857.53,775,871.94h2.65l1-2.77h6.52l1,2.77h2.66l-5.25-14.41Zm-.67,9.14,2.35-6.46,2.35,6.46Z"/><polygon points="749.16 838.4 749.16 835.9 738.63 835.9 738.63 850.32 749.16 850.32 749.16 847.82 741.68 847.82 741.68 843.94 748.05 843.94 748.05 841.45 741.68 841.45 741.68 838.4 749.16 838.4"/><path d="M751.66,821.76l-7.89-1.39-.43,2.46,3.92.69a3.86,3.86,0,0,1-3.92,3c-2.77,0-4.16-2-4.16-5s1.39-5,4.16-5a3.72,3.72,0,0,1,3.81,2.65l2.78-1a6.78,6.78,0,0,0-6.59-4.13c-4.16,0-7.21,2.77-7.21,7.49s3,7.48,7.21,7.48a5.6,5.6,0,0,0,4.23-1.91l.2,1.63h2V824l1.5.27Z"/><path d="M746,863.7l-2.46-.43c-1.29-.23-2.16-.75-2.16-1.86s1-1.67,2.36-1.67a2.5,2.5,0,0,1,2.37,1.32l2.75-1c-.68-1.6-2.56-2.81-5.12-2.81h0c-3.26,0-5.41,1.66-5.41,4.16s1.89,3.81,4,4.19l2.26.39c1.21.22,2,1,2,1.79,0,1.39-1.27,1.94-2.91,1.94a3.29,3.29,0,0,1-2.9-1.55l-2.79,1c.74,1.78,2.86,3,5.69,3,3.52,0,6-1.66,6-4.44A4.05,4.05,0,0,0,746,863.7Z"/><path d="M764.88,863.7l-2.47-.43c-1.29-.23-2.16-.75-2.16-1.86s1-1.67,2.36-1.67a2.5,2.5,0,0,1,2.37,1.32l2.75-1c-.67-1.6-2.56-2.81-5.12-2.81h0c-3.25,0-5.41,1.66-5.41,4.16s1.89,3.81,4,4.19l2.26.39c1.21.22,2,1,2,1.79,0,1.39-1.27,1.94-2.91,1.94a3.26,3.26,0,0,1-2.89-1.55l-2.8,1c.74,1.78,2.86,3,5.69,3,3.52,0,6-1.66,6-4.44A4.05,4.05,0,0,0,764.88,863.7Z"/><path d="M1043.58,857.53l-5.25,14.41H1041l1-2.77h6.53l1,2.77h2.65l-5.25-14.41Zm-.68,9.14,2.36-6.46,2.35,6.46Z"/><polygon points="1012.54 838.4 1012.54 835.9 1002 835.9 1002 850.32 1012.54 850.32 1012.54 847.82 1005.05 847.82 1005.05 843.94 1011.43 843.94 1011.43 841.45 1005.05 841.45 1005.05 838.4 1012.54 838.4"/><path d="M1015,821.76l-7.88-1.39-.43,2.46,3.91.69a3.86,3.86,0,0,1-3.92,3c-2.77,0-4.15-2-4.15-5s1.38-5,4.15-5a3.73,3.73,0,0,1,3.82,2.65l2.77-1a6.76,6.76,0,0,0-6.59-4.13c-4.15,0-7.2,2.77-7.2,7.49s3,7.48,7.2,7.48a5.63,5.63,0,0,0,4.24-1.91l.2,1.63h1.94V824l1.51.27Z"/><path d="M1009.4,863.7l-2.47-.43c-1.29-.23-2.16-.75-2.16-1.86s1-1.67,2.36-1.67a2.51,2.51,0,0,1,2.38,1.32l2.75-1c-.68-1.6-2.56-2.81-5.13-2.81h0c-3.25,0-5.41,1.66-5.41,4.16s1.89,3.81,4,4.19l2.26.39c1.21.22,2,1,2,1.79,0,1.39-1.26,1.94-2.91,1.94a3.27,3.27,0,0,1-2.89-1.55l-2.79,1c.73,1.78,2.86,3,5.68,3,3.52,0,6-1.66,6-4.44A4.05,4.05,0,0,0,1009.4,863.7Z"/><path d="M1028.25,863.7l-2.47-.43c-1.29-.23-2.16-.75-2.16-1.86s1-1.67,2.36-1.67a2.51,2.51,0,0,1,2.38,1.32l2.75-1c-.68-1.6-2.56-2.81-5.13-2.81h0c-3.25,0-5.4,1.66-5.4,4.16s1.89,3.81,4,4.19l2.26.39c1.2.22,2,1,2,1.79,0,1.39-1.26,1.94-2.91,1.94a3.27,3.27,0,0,1-2.89-1.55l-2.79,1c.73,1.78,2.86,3,5.68,3,3.52,0,6-1.66,6-4.44A4,4,0,0,0,1028.25,863.7Z"/><path d="M1307,857.53l-5.25,14.41h2.66l1-2.77h6.52l1,2.77h2.66l-5.25-14.41Zm-.67,9.14,2.35-6.46,2.35,6.46Z"/><polygon points="1275.91 838.4 1275.91 835.9 1265.38 835.9 1265.38 850.32 1275.91 850.32 1275.91 847.82 1268.42 847.82 1268.42 843.94 1274.8 843.94 1274.8 841.45 1268.42 841.45 1268.42 838.4 1275.91 838.4"/><path d="M1278.41,821.76l-7.89-1.39-.43,2.46,3.92.69a3.86,3.86,0,0,1-3.92,3c-2.77,0-4.16-2-4.16-5s1.39-5,4.16-5a3.72,3.72,0,0,1,3.81,2.65l2.78-1a6.78,6.78,0,0,0-6.59-4.13c-4.16,0-7.21,2.77-7.21,7.49s3,7.48,7.21,7.48a5.6,5.6,0,0,0,4.23-1.91l.2,1.63h2V824l1.5.27Z"/><path d="M1272.77,863.7l-2.46-.43c-1.29-.23-2.16-.75-2.16-1.86s1-1.67,2.35-1.67a2.51,2.51,0,0,1,2.38,1.32l2.75-1c-.68-1.6-2.56-2.81-5.13-2.81h0c-3.25,0-5.4,1.66-5.4,4.16s1.89,3.81,4,4.19l2.26.39c1.21.22,2,1,2,1.79,0,1.39-1.27,1.94-2.92,1.94a3.27,3.27,0,0,1-2.89-1.55l-2.79,1c.73,1.78,2.86,3,5.68,3,3.53,0,6-1.66,6-4.44A4.05,4.05,0,0,0,1272.77,863.7Z"/><path d="M1291.62,863.7l-2.46-.43c-1.29-.23-2.16-.75-2.16-1.86s1-1.67,2.36-1.67a2.5,2.5,0,0,1,2.37,1.32l2.75-1c-.68-1.6-2.56-2.81-5.12-2.81h0c-3.26,0-5.41,1.66-5.41,4.16s1.89,3.81,4,4.19l2.26.39c1.21.22,2,1,2,1.79,0,1.39-1.27,1.94-2.91,1.94a3.29,3.29,0,0,1-2.9-1.55l-2.79,1c.74,1.78,2.86,3,5.69,3,3.52,0,6-1.66,6-4.44A4.05,4.05,0,0,0,1291.62,863.7Z"/><path d="M1570.33,857.53l-5.25,14.41h2.65l1-2.77h6.53l1,2.77h2.66l-5.25-14.41Zm-.68,9.14,2.35-6.46,2.36,6.46Z"/><polygon points="1539.29 838.4 1539.29 835.9 1528.75 835.9 1528.75 850.32 1539.29 850.32 1539.29 847.82 1531.8 847.82 1531.8 843.94 1538.18 843.94 1538.18 841.45 1531.8 841.45 1531.8 838.4 1539.29 838.4"/><path d="M1541.78,821.76l-7.88-1.39-.44,2.46,3.92.69a3.86,3.86,0,0,1-3.92,3c-2.77,0-4.16-2-4.16-5s1.39-5,4.16-5a3.71,3.71,0,0,1,3.81,2.65l2.78-1a6.76,6.76,0,0,0-6.59-4.13c-4.16,0-7.2,2.77-7.2,7.49s3,7.48,7.2,7.48a5.6,5.6,0,0,0,4.23-1.91l.21,1.63h1.94V824l1.51.27Z"/><path d="M1536.15,863.7l-2.47-.43c-1.29-.23-2.16-.75-2.16-1.86s1-1.67,2.36-1.67a2.48,2.48,0,0,1,2.37,1.32l2.76-1c-.68-1.6-2.56-2.81-5.13-2.81h0c-3.25,0-5.41,1.66-5.41,4.16s1.89,3.81,4,4.19l2.26.39c1.21.22,2,1,2,1.79,0,1.39-1.26,1.94-2.91,1.94a3.26,3.26,0,0,1-2.89-1.55l-2.79,1c.73,1.78,2.85,3,5.68,3,3.52,0,6-1.66,6-4.44A4.05,4.05,0,0,0,1536.15,863.7Z"/><path d="M1555,863.7l-2.47-.43c-1.29-.23-2.16-.75-2.16-1.86s1-1.67,2.36-1.67a2.51,2.51,0,0,1,2.38,1.32l2.75-1c-.68-1.6-2.56-2.81-5.13-2.81h0c-3.25,0-5.41,1.66-5.41,4.16s1.9,3.81,4,4.19l2.26.39c1.21.22,2,1,2,1.79,0,1.39-1.26,1.94-2.91,1.94a3.27,3.27,0,0,1-2.89-1.55l-2.79,1c.73,1.78,2.86,3,5.68,3,3.52,0,6-1.66,6-4.44A4.05,4.05,0,0,0,1555,863.7Z"/><path d="M1833.7,857.53l-5.25,14.41h2.66l1-2.77h6.52l1,2.77h2.65l-5.24-14.41Zm-.67,9.14,2.35-6.46,2.35,6.46Z"/><polygon points="1802.66 838.4 1802.66 835.9 1792.13 835.9 1792.13 850.32 1802.66 850.32 1802.66 847.82 1795.17 847.82 1795.17 843.94 1801.55 843.94 1801.55 841.45 1795.17 841.45 1795.17 838.4 1802.66 838.4"/><path d="M1805.15,821.76l-7.88-1.39-.43,2.46,3.92.69a3.87,3.87,0,0,1-3.92,3c-2.77,0-4.16-2-4.16-5s1.39-5,4.16-5a3.72,3.72,0,0,1,3.81,2.65l2.78-1a6.78,6.78,0,0,0-6.59-4.13c-4.16,0-7.21,2.77-7.21,7.49s3,7.48,7.21,7.48a5.6,5.6,0,0,0,4.23-1.91l.2,1.63h1.94V824l1.51.27Z"/><path d="M1799.52,863.7l-2.46-.43c-1.29-.23-2.16-.75-2.16-1.86s1-1.67,2.35-1.67a2.51,2.51,0,0,1,2.38,1.32l2.75-1c-.68-1.6-2.56-2.81-5.13-2.81h0c-3.25,0-5.4,1.66-5.4,4.16s1.89,3.81,4,4.19l2.26.39c1.21.22,2,1,2,1.79,0,1.39-1.26,1.94-2.91,1.94a3.27,3.27,0,0,1-2.89-1.55l-2.79,1c.73,1.78,2.86,3,5.68,3,3.53,0,6-1.66,6-4.44A4,4,0,0,0,1799.52,863.7Z"/><path d="M1818.37,863.7l-2.46-.43c-1.29-.23-2.16-.75-2.16-1.86s1-1.67,2.35-1.67a2.51,2.51,0,0,1,2.38,1.32l2.75-1c-.68-1.6-2.56-2.81-5.13-2.81h0c-3.25,0-5.4,1.66-5.4,4.16s1.89,3.81,4,4.19l2.26.39c1.21.22,2,1,2,1.79,0,1.39-1.27,1.94-2.92,1.94a3.27,3.27,0,0,1-2.89-1.55l-2.79,1c.73,1.78,2.86,3,5.68,3,3.53,0,6-1.66,6-4.44A4.05,4.05,0,0,0,1818.37,863.7Z"/><path d="M121.77,688l-5.25,14.42h2.66l1-2.77h6.53l1,2.77h2.65L125.12,688Zm-.68,9.15,2.36-6.46,2.35,6.46Z"/><polygon points="90.73 668.83 90.73 666.33 80.19 666.33 80.19 680.75 90.73 680.75 90.73 678.25 83.24 678.25 83.24 674.37 89.62 674.37 89.62 671.87 83.24 671.87 83.24 668.83 90.73 668.83"/><path d="M93.22,652.19l-7.88-1.39-.44,2.46,3.92.69a3.85,3.85,0,0,1-3.92,2.95c-2.77,0-4.15-1.94-4.15-5s1.38-5,4.15-5a3.73,3.73,0,0,1,3.82,2.65l2.77-1a6.75,6.75,0,0,0-6.59-4.13c-4.15,0-7.2,2.77-7.2,7.48s3,7.49,7.2,7.49a5.6,5.6,0,0,0,4.23-1.91l.21,1.63h1.94v-4.74l1.51.27Z"/><path d="M87.59,694.13l-2.47-.43c-1.29-.23-2.16-.76-2.16-1.86s1-1.67,2.36-1.67a2.51,2.51,0,0,1,2.38,1.32l2.75-1c-.68-1.6-2.56-2.81-5.13-2.81h0c-3.25,0-5.41,1.66-5.41,4.16s1.89,3.81,4,4.18l2.26.4c1.21.21,2,1,2,1.79,0,1.39-1.26,1.94-2.91,1.94a3.26,3.26,0,0,1-2.89-1.55l-2.79,1c.73,1.78,2.86,3,5.68,3,3.52,0,6-1.67,6-4.44A4,4,0,0,0,87.59,694.13Z"/><path d="M106.44,694.13,104,693.7c-1.29-.23-2.16-.76-2.16-1.86s1-1.67,2.36-1.67a2.51,2.51,0,0,1,2.38,1.32l2.75-1c-.68-1.6-2.56-2.81-5.13-2.81h0c-3.25,0-5.41,1.66-5.41,4.16s1.9,3.81,4,4.18l2.26.4c1.2.21,2,1,2,1.79,0,1.39-1.26,1.94-2.91,1.94a3.27,3.27,0,0,1-2.89-1.55l-2.79,1c.73,1.78,2.86,3,5.68,3,3.52,0,6-1.67,6-4.44A4,4,0,0,0,106.44,694.13Z"/><path d="M385.14,712l-5.25,14.41h2.66l1-2.77h6.52l1,2.77h2.65L388.5,712Zm-.67,9.15,2.35-6.47,2.35,6.47Z"/><polygon points="354.1 692.85 354.1 690.35 343.56 690.35 343.56 704.77 354.1 704.77 354.1 702.27 346.62 702.27 346.62 698.39 352.99 698.39 352.99 695.9 346.62 695.9 346.62 692.85 354.1 692.85"/><path d="M356.6,676.21l-7.89-1.39-.43,2.46,3.92.69a3.87,3.87,0,0,1-3.92,3c-2.77,0-4.16-1.94-4.16-5s1.39-5,4.16-5a3.72,3.72,0,0,1,3.81,2.64l2.78-1a6.78,6.78,0,0,0-6.59-4.13c-4.16,0-7.21,2.77-7.21,7.49s3.05,7.48,7.21,7.48a5.56,5.56,0,0,0,4.23-1.91l.2,1.63h1.94V678.4l1.51.27Z"/><path d="M351,718.16l-2.46-.44c-1.29-.23-2.16-.75-2.16-1.86s1-1.67,2.35-1.67a2.51,2.51,0,0,1,2.38,1.32l2.75-1c-.68-1.6-2.56-2.81-5.13-2.81h0c-3.25,0-5.4,1.66-5.4,4.16s1.89,3.81,4,4.19l2.26.39c1.21.22,2,.95,2,1.79,0,1.39-1.27,1.95-2.92,1.95a3.25,3.25,0,0,1-2.89-1.56l-2.79,1c.73,1.78,2.86,3,5.68,3,3.53,0,6-1.66,6-4.44A4,4,0,0,0,351,718.16Z"/><path d="M369.81,718.16l-2.46-.44c-1.29-.23-2.16-.75-2.16-1.86s1-1.67,2.36-1.67a2.5,2.5,0,0,1,2.37,1.32l2.75-1c-.68-1.6-2.56-2.81-5.12-2.81h0c-3.26,0-5.41,1.66-5.41,4.16s1.89,3.81,4,4.19l2.26.39c1.21.22,2,.95,2,1.79,0,1.39-1.27,1.95-2.91,1.95a3.26,3.26,0,0,1-2.9-1.56l-2.79,1c.73,1.78,2.86,3,5.69,3,3.52,0,6-1.66,6-4.44A4,4,0,0,0,369.81,718.16Z"/><path d="M648.52,712l-5.25,14.41h2.65l1-2.77h6.53l1,2.77h2.66L651.87,712Zm-.68,9.15,2.35-6.47,2.36,6.47Z"/><polygon points="617.48 692.85 617.48 690.35 606.94 690.35 606.94 704.77 617.48 704.77 617.48 702.27 609.99 702.27 609.99 698.39 616.37 698.39 616.37 695.9 609.99 695.9 609.99 692.85 617.48 692.85"/><path d="M620,676.21l-7.88-1.39-.44,2.46,3.92.69a3.86,3.86,0,0,1-3.92,3c-2.77,0-4.16-1.94-4.16-5s1.39-5,4.16-5a3.7,3.7,0,0,1,3.81,2.64l2.78-1a6.76,6.76,0,0,0-6.59-4.13c-4.16,0-7.21,2.77-7.21,7.49s3,7.48,7.21,7.48a5.56,5.56,0,0,0,4.23-1.91l.21,1.63H618V678.4l1.51.27Z"/><path d="M614.34,718.16l-2.47-.44c-1.29-.23-2.16-.75-2.16-1.86s1-1.67,2.36-1.67a2.48,2.48,0,0,1,2.37,1.32l2.76-1c-.68-1.6-2.57-2.81-5.13-2.81h0c-3.25,0-5.41,1.66-5.41,4.16s1.89,3.81,4,4.19l2.26.39c1.21.22,2,.95,2,1.79,0,1.39-1.27,1.95-2.91,1.95a3.24,3.24,0,0,1-2.89-1.56l-2.79,1c.73,1.78,2.85,3,5.68,3,3.52,0,6-1.66,6-4.44A4,4,0,0,0,614.34,718.16Z"/><path d="M633.19,718.16l-2.47-.44c-1.29-.23-2.16-.75-2.16-1.86s1-1.67,2.36-1.67a2.51,2.51,0,0,1,2.38,1.32l2.75-1c-.68-1.6-2.56-2.81-5.13-2.81h0c-3.25,0-5.41,1.66-5.41,4.16s1.89,3.81,4,4.19l2.26.39c1.21.22,2,.95,2,1.79,0,1.39-1.26,1.95-2.91,1.95a3.24,3.24,0,0,1-2.89-1.56l-2.79,1c.73,1.78,2.86,3,5.68,3,3.52,0,6-1.66,6-4.44A4,4,0,0,0,633.19,718.16Z"/><path d="M911.89,712l-5.25,14.41h2.66l1-2.77h6.52l1,2.77h2.65L915.25,712Zm-.67,9.15,2.35-6.47,2.35,6.47Z"/><polygon points="880.85 692.85 880.85 690.35 870.31 690.35 870.31 704.77 880.85 704.77 880.85 702.27 873.36 702.27 873.36 698.39 879.74 698.39 879.74 695.9 873.36 695.9 873.36 692.85 880.85 692.85"/><path d="M883.34,676.21l-7.88-1.39-.43,2.46L879,678a3.87,3.87,0,0,1-3.92,3c-2.78,0-4.16-1.94-4.16-5s1.38-5,4.16-5a3.72,3.72,0,0,1,3.81,2.64l2.78-1a6.78,6.78,0,0,0-6.59-4.13c-4.16,0-7.21,2.77-7.21,7.49s3,7.48,7.21,7.48a5.56,5.56,0,0,0,4.23-1.91l.2,1.63h1.94V678.4l1.51.27Z"/><path d="M877.71,718.16l-2.46-.44c-1.29-.23-2.16-.75-2.16-1.86s1-1.67,2.35-1.67a2.51,2.51,0,0,1,2.38,1.32l2.75-1c-.68-1.6-2.56-2.81-5.13-2.81h0c-3.25,0-5.4,1.66-5.4,4.16s1.89,3.81,4,4.19l2.26.39c1.21.22,2,.95,2,1.79,0,1.39-1.26,1.95-2.91,1.95a3.25,3.25,0,0,1-2.89-1.56l-2.79,1c.73,1.78,2.86,3,5.68,3,3.53,0,6-1.66,6-4.44A4,4,0,0,0,877.71,718.16Z"/><path d="M896.56,718.16l-2.46-.44c-1.29-.23-2.16-.75-2.16-1.86s1-1.67,2.35-1.67a2.51,2.51,0,0,1,2.38,1.32l2.75-1c-.68-1.6-2.56-2.81-5.13-2.81h0c-3.25,0-5.4,1.66-5.4,4.16s1.89,3.81,4,4.19l2.26.39c1.21.22,2,.95,2,1.79,0,1.39-1.27,1.95-2.92,1.95a3.25,3.25,0,0,1-2.89-1.56l-2.79,1c.73,1.78,2.86,3,5.68,3,3.53,0,6-1.66,6-4.44A4,4,0,0,0,896.56,718.16Z"/><path d="M1175.26,712,1170,726.39h2.65l1-2.77h6.52l1,2.77h2.66L1178.62,712Zm-.67,9.15,2.35-6.47,2.36,6.47Z"/><polygon points="1144.22 692.85 1144.22 690.35 1133.69 690.35 1133.69 704.77 1144.22 704.77 1144.22 702.27 1136.74 702.27 1136.74 698.39 1143.12 698.39 1143.12 695.9 1136.74 695.9 1136.74 692.85 1144.22 692.85"/><path d="M1146.72,676.21l-7.88-1.39-.44,2.46,3.92.69a3.86,3.86,0,0,1-3.92,3c-2.77,0-4.16-1.94-4.16-5s1.39-5,4.16-5a3.72,3.72,0,0,1,3.81,2.64l2.78-1a6.76,6.76,0,0,0-6.59-4.13c-4.16,0-7.21,2.77-7.21,7.49s3,7.48,7.21,7.48a5.56,5.56,0,0,0,4.23-1.91l.21,1.63h1.94V678.4l1.51.27Z"/><path d="M1141.09,718.16l-2.47-.44c-1.29-.23-2.16-.75-2.16-1.86s1-1.67,2.36-1.67a2.49,2.49,0,0,1,2.37,1.32l2.76-1c-.68-1.6-2.57-2.81-5.13-2.81h0c-3.25,0-5.41,1.66-5.41,4.16s1.89,3.81,4,4.19l2.26.39c1.21.22,2,.95,2,1.79,0,1.39-1.27,1.95-2.91,1.95a3.24,3.24,0,0,1-2.89-1.56l-2.8,1c.74,1.78,2.86,3,5.69,3,3.52,0,6-1.66,6-4.44A4,4,0,0,0,1141.09,718.16Z"/><path d="M1159.94,718.16l-2.47-.44c-1.29-.23-2.16-.75-2.16-1.86s1-1.67,2.36-1.67a2.48,2.48,0,0,1,2.37,1.32l2.76-1c-.68-1.6-2.57-2.81-5.13-2.81h0c-3.25,0-5.41,1.66-5.41,4.16s1.89,3.81,4,4.19l2.26.39c1.21.22,2,.95,2,1.79,0,1.39-1.27,1.95-2.91,1.95a3.24,3.24,0,0,1-2.89-1.56l-2.79,1c.73,1.78,2.85,3,5.68,3,3.52,0,6-1.66,6-4.44A4,4,0,0,0,1159.94,718.16Z"/><path d="M1438.64,712l-5.25,14.41h2.66l1-2.77h6.52l1,2.77h2.65L1442,712Zm-.68,9.15,2.36-6.47,2.35,6.47Z"/><polygon points="1407.6 692.85 1407.6 690.35 1397.06 690.35 1397.06 704.77 1407.6 704.77 1407.6 702.27 1400.11 702.27 1400.11 698.39 1406.49 698.39 1406.49 695.9 1400.11 695.9 1400.11 692.85 1407.6 692.85"/><path d="M1410.09,676.21l-7.88-1.39-.43,2.46,3.92.69a3.87,3.87,0,0,1-3.92,3c-2.78,0-4.16-1.94-4.16-5s1.38-5,4.16-5a3.72,3.72,0,0,1,3.81,2.64l2.78-1a6.78,6.78,0,0,0-6.59-4.13c-4.16,0-7.21,2.77-7.21,7.49s3,7.48,7.21,7.48a5.59,5.59,0,0,0,4.23-1.91l.2,1.63h1.94V678.4l1.51.27Z"/><path d="M1404.46,718.16l-2.46-.44c-1.3-.23-2.16-.75-2.16-1.86s1-1.67,2.35-1.67a2.51,2.51,0,0,1,2.38,1.32l2.75-1c-.68-1.6-2.56-2.81-5.13-2.81h0c-3.25,0-5.4,1.66-5.4,4.16s1.89,3.81,4,4.19l2.26.39c1.2.22,2,.95,2,1.79,0,1.39-1.26,1.95-2.91,1.95a3.25,3.25,0,0,1-2.89-1.56l-2.79,1c.73,1.78,2.86,3,5.68,3,3.52,0,6-1.66,6-4.44A4,4,0,0,0,1404.46,718.16Z"/><path d="M1423.31,718.16l-2.46-.44c-1.29-.23-2.16-.75-2.16-1.86s1-1.67,2.35-1.67a2.51,2.51,0,0,1,2.38,1.32l2.75-1c-.68-1.6-2.56-2.81-5.13-2.81h0c-3.25,0-5.4,1.66-5.4,4.16s1.89,3.81,4,4.19l2.26.39c1.21.22,2,.95,2,1.79,0,1.39-1.26,1.95-2.91,1.95a3.25,3.25,0,0,1-2.89-1.56l-2.79,1c.73,1.78,2.86,3,5.68,3,3.53,0,6-1.66,6-4.44A4,4,0,0,0,1423.31,718.16Z"/><path d="M1702,712l-5.24,14.41h2.65l1-2.77H1707l1,2.77h2.66L1705.37,712Zm-.67,9.15,2.35-6.47,2.35,6.47Z"/><polygon points="1670.97 692.85 1670.97 690.35 1660.44 690.35 1660.44 704.77 1670.97 704.77 1670.97 702.27 1663.49 702.27 1663.49 698.39 1669.86 698.39 1669.86 695.9 1663.49 695.9 1663.49 692.85 1670.97 692.85"/><path d="M1673.47,676.21l-7.89-1.39-.43,2.46,3.92.69a3.86,3.86,0,0,1-3.92,3c-2.77,0-4.16-1.94-4.16-5s1.39-5,4.16-5a3.72,3.72,0,0,1,3.81,2.64l2.78-1a6.76,6.76,0,0,0-6.59-4.13c-4.16,0-7.21,2.77-7.21,7.49s3,7.48,7.21,7.48a5.56,5.56,0,0,0,4.23-1.91l.21,1.63h1.94V678.4l1.5.27Z"/><path d="M1667.83,718.16l-2.46-.44c-1.29-.23-2.16-.75-2.16-1.86s1-1.67,2.36-1.67a2.5,2.5,0,0,1,2.37,1.32l2.75-1c-.68-1.6-2.56-2.81-5.12-2.81h0c-3.25,0-5.41,1.66-5.41,4.16s1.89,3.81,4,4.19l2.26.39c1.21.22,2,.95,2,1.79,0,1.39-1.27,1.95-2.91,1.95a3.24,3.24,0,0,1-2.89-1.56l-2.8,1c.74,1.78,2.86,3,5.69,3,3.52,0,6-1.66,6-4.44A4,4,0,0,0,1667.83,718.16Z"/><path d="M1686.69,718.16l-2.47-.44c-1.29-.23-2.16-.75-2.16-1.86s1-1.67,2.36-1.67a2.49,2.49,0,0,1,2.37,1.32l2.76-1c-.68-1.6-2.57-2.81-5.13-2.81h0c-3.25,0-5.41,1.66-5.41,4.16s1.89,3.81,4,4.19l2.26.39c1.21.22,2,.95,2,1.79,0,1.39-1.27,1.95-2.91,1.95a3.24,3.24,0,0,1-2.89-1.56l-2.79,1c.73,1.78,2.85,3,5.68,3,3.52,0,6-1.66,6-4.44A4,4,0,0,0,1686.69,718.16Z"/><path d="M253.45,566.43l-5.24,14.41h2.65l1-2.77h6.52l1,2.77h2.66l-5.25-14.41Zm-.67,9.15,2.35-6.47,2.36,6.47Z"/><polygon points="222.41 547.3 222.41 544.8 211.88 544.8 211.88 559.22 222.41 559.22 222.41 556.72 214.93 556.72 214.93 552.84 221.3 552.84 221.3 550.35 214.93 550.35 214.93 547.3 222.41 547.3"/><path d="M224.91,530.66,217,529.27l-.44,2.46,3.92.69a3.86,3.86,0,0,1-3.92,3c-2.77,0-4.16-1.94-4.16-5s1.39-5,4.16-5a3.71,3.71,0,0,1,3.81,2.65l2.78-1a6.76,6.76,0,0,0-6.59-4.13c-4.16,0-7.21,2.77-7.21,7.49s3.05,7.48,7.21,7.48a5.56,5.56,0,0,0,4.23-1.91l.21,1.64H223v-4.74l1.5.26Z"/><path d="M219.28,572.61l-2.47-.44c-1.29-.23-2.16-.75-2.16-1.86s1-1.66,2.36-1.66a2.5,2.5,0,0,1,2.37,1.31l2.75-1c-.67-1.6-2.56-2.81-5.12-2.81h0c-3.25,0-5.41,1.66-5.41,4.16s1.89,3.81,4,4.19l2.26.4c1.21.21,2,.94,2,1.79,0,1.38-1.27,1.94-2.91,1.94a3.26,3.26,0,0,1-2.89-1.55l-2.8,1c.74,1.78,2.86,3,5.69,3,3.52,0,6-1.66,6-4.43A4,4,0,0,0,219.28,572.61Z"/><path d="M238.13,572.61l-2.47-.44c-1.29-.23-2.16-.75-2.16-1.86s1-1.66,2.36-1.66a2.49,2.49,0,0,1,2.37,1.31l2.76-1c-.68-1.6-2.57-2.81-5.13-2.81h0c-3.25,0-5.41,1.66-5.41,4.16s1.89,3.81,4,4.19l2.26.4c1.21.21,2,.94,2,1.79,0,1.38-1.27,1.94-2.91,1.94a3.26,3.26,0,0,1-2.89-1.55l-2.79,1c.73,1.78,2.85,3,5.68,3,3.52,0,6-1.66,6-4.43A4,4,0,0,0,238.13,572.61Z"/><path d="M516.83,566.43l-5.25,14.41h2.66l1-2.77h6.52l1,2.77h2.65l-5.24-14.41Zm-.68,9.15,2.36-6.47,2.35,6.47Z"/><polygon points="485.79 547.3 485.79 544.8 475.25 544.8 475.25 559.22 485.79 559.22 485.79 556.72 478.3 556.72 478.3 552.84 484.68 552.84 484.68 550.35 478.3 550.35 478.3 547.3 485.79 547.3"/><path d="M488.28,530.66l-7.88-1.39-.43,2.46,3.92.69a3.87,3.87,0,0,1-3.92,3c-2.78,0-4.16-1.94-4.16-5s1.38-5,4.16-5a3.71,3.71,0,0,1,3.81,2.65l2.77-1A6.76,6.76,0,0,0,480,522.9c-4.16,0-7.21,2.77-7.21,7.49s3.05,7.48,7.21,7.48A5.59,5.59,0,0,0,484.2,536l.2,1.64h1.94v-4.74l1.51.26Z"/><path d="M482.65,572.61l-2.47-.44c-1.29-.23-2.16-.75-2.16-1.86s1-1.66,2.36-1.66a2.5,2.5,0,0,1,2.38,1.31l2.75-1c-.68-1.6-2.56-2.81-5.13-2.81h0c-3.25,0-5.4,1.66-5.4,4.16s1.89,3.81,4,4.19l2.26.4c1.2.21,2,.94,2,1.79,0,1.38-1.26,1.94-2.91,1.94a3.27,3.27,0,0,1-2.89-1.55l-2.79,1c.73,1.78,2.86,3,5.68,3,3.52,0,6-1.66,6-4.43A4,4,0,0,0,482.65,572.61Z"/><path d="M501.5,572.61l-2.46-.44c-1.3-.23-2.16-.75-2.16-1.86s1-1.66,2.35-1.66a2.5,2.5,0,0,1,2.38,1.31l2.75-1c-.68-1.6-2.56-2.81-5.13-2.81h0c-3.25,0-5.4,1.66-5.4,4.16s1.89,3.81,4,4.19l2.26.4c1.2.21,2,.94,2,1.79,0,1.38-1.26,1.94-2.91,1.94a3.27,3.27,0,0,1-2.89-1.55l-2.79,1c.73,1.78,2.86,3,5.68,3,3.52,0,6-1.66,6-4.43A4,4,0,0,0,501.5,572.61Z"/><path d="M780.2,566.43,775,580.84h2.65l1-2.77h6.52l1,2.77h2.66l-5.25-14.41Zm-.67,9.15,2.35-6.47,2.35,6.47Z"/><polygon points="749.16 547.3 749.16 544.8 738.63 544.8 738.63 559.22 749.16 559.22 749.16 556.72 741.68 556.72 741.68 552.84 748.05 552.84 748.05 550.35 741.68 550.35 741.68 547.3 749.16 547.3"/><path d="M751.66,530.66l-7.89-1.39-.43,2.46,3.92.69a3.86,3.86,0,0,1-3.92,3c-2.77,0-4.16-1.94-4.16-5s1.39-5,4.16-5a3.71,3.71,0,0,1,3.81,2.65l2.78-1a6.78,6.78,0,0,0-6.59-4.13c-4.16,0-7.21,2.77-7.21,7.49s3,7.48,7.21,7.48a5.56,5.56,0,0,0,4.23-1.91l.2,1.64h2v-4.74l1.5.26Z"/><path d="M746,572.61l-2.46-.44c-1.29-.23-2.16-.75-2.16-1.86s1-1.66,2.36-1.66a2.5,2.5,0,0,1,2.37,1.31l2.75-1c-.68-1.6-2.56-2.81-5.12-2.81h0c-3.26,0-5.41,1.66-5.41,4.16s1.89,3.81,4,4.19l2.26.4c1.21.21,2,.94,2,1.79,0,1.38-1.27,1.94-2.91,1.94a3.29,3.29,0,0,1-2.9-1.55l-2.79,1c.74,1.78,2.86,3,5.69,3,3.52,0,6-1.66,6-4.43A4,4,0,0,0,746,572.61Z"/><path d="M764.88,572.61l-2.47-.44c-1.29-.23-2.16-.75-2.16-1.86s1-1.66,2.36-1.66A2.5,2.5,0,0,1,765,570l2.75-1c-.67-1.6-2.56-2.81-5.12-2.81h0c-3.25,0-5.41,1.66-5.41,4.16s1.89,3.81,4,4.19l2.26.4c1.21.21,2,.94,2,1.79,0,1.38-1.27,1.94-2.91,1.94a3.26,3.26,0,0,1-2.89-1.55l-2.8,1c.74,1.78,2.86,3,5.69,3,3.52,0,6-1.66,6-4.43A4,4,0,0,0,764.88,572.61Z"/><path d="M1043.58,566.43l-5.25,14.41H1041l1-2.77h6.53l1,2.77h2.65l-5.25-14.41Zm-.68,9.15,2.36-6.47,2.35,6.47Z"/><polygon points="1012.54 547.3 1012.54 544.8 1002 544.8 1002 559.22 1012.54 559.22 1012.54 556.72 1005.05 556.72 1005.05 552.84 1011.43 552.84 1011.43 550.35 1005.05 550.35 1005.05 547.3 1012.54 547.3"/><path d="M1015,530.66l-7.88-1.39-.43,2.46,3.91.69a3.86,3.86,0,0,1-3.92,3c-2.77,0-4.15-1.94-4.15-5s1.38-5,4.15-5a3.72,3.72,0,0,1,3.82,2.65l2.77-1a6.76,6.76,0,0,0-6.59-4.13c-4.15,0-7.2,2.77-7.2,7.49s3,7.48,7.2,7.48A5.6,5.6,0,0,0,1011,536l.2,1.64h1.94v-4.74l1.51.26Z"/><path d="M1009.4,572.61l-2.47-.44c-1.29-.23-2.16-.75-2.16-1.86s1-1.66,2.36-1.66a2.5,2.5,0,0,1,2.38,1.31l2.75-1c-.68-1.6-2.56-2.81-5.13-2.81h0c-3.25,0-5.41,1.66-5.41,4.16s1.89,3.81,4,4.19l2.26.4c1.21.21,2,.94,2,1.79,0,1.38-1.26,1.94-2.91,1.94a3.27,3.27,0,0,1-2.89-1.55l-2.79,1c.73,1.78,2.86,3,5.68,3,3.52,0,6-1.66,6-4.43A4,4,0,0,0,1009.4,572.61Z"/><path d="M1028.25,572.61l-2.47-.44c-1.29-.23-2.16-.75-2.16-1.86s1-1.66,2.36-1.66a2.5,2.5,0,0,1,2.38,1.31l2.75-1c-.68-1.6-2.56-2.81-5.13-2.81h0c-3.25,0-5.4,1.66-5.4,4.16s1.89,3.81,4,4.19l2.26.4c1.2.21,2,.94,2,1.79,0,1.38-1.26,1.94-2.91,1.94a3.27,3.27,0,0,1-2.89-1.55l-2.79,1c.73,1.78,2.86,3,5.68,3,3.52,0,6-1.66,6-4.43A4,4,0,0,0,1028.25,572.61Z"/><path d="M1307,566.43l-5.25,14.41h2.66l1-2.77h6.52l1,2.77h2.66l-5.25-14.41Zm-.67,9.15,2.35-6.47,2.35,6.47Z"/><polygon points="1275.91 547.3 1275.91 544.8 1265.38 544.8 1265.38 559.22 1275.91 559.22 1275.91 556.72 1268.42 556.72 1268.42 552.84 1274.8 552.84 1274.8 550.35 1268.42 550.35 1268.42 547.3 1275.91 547.3"/><path d="M1278.41,530.66l-7.89-1.39-.43,2.46,3.92.69a3.86,3.86,0,0,1-3.92,3c-2.77,0-4.16-1.94-4.16-5s1.39-5,4.16-5a3.71,3.71,0,0,1,3.81,2.65l2.78-1a6.78,6.78,0,0,0-6.59-4.13c-4.16,0-7.21,2.77-7.21,7.49s3,7.48,7.21,7.48a5.56,5.56,0,0,0,4.23-1.91l.2,1.64h2v-4.74l1.5.26Z"/><path d="M1272.77,572.61l-2.46-.44c-1.29-.23-2.16-.75-2.16-1.86s1-1.66,2.35-1.66a2.5,2.5,0,0,1,2.38,1.31l2.75-1c-.68-1.6-2.56-2.81-5.13-2.81h0c-3.25,0-5.4,1.66-5.4,4.16s1.89,3.81,4,4.19l2.26.4c1.21.21,2,.94,2,1.79,0,1.38-1.27,1.94-2.92,1.94a3.27,3.27,0,0,1-2.89-1.55l-2.79,1c.73,1.78,2.86,3,5.68,3,3.53,0,6-1.66,6-4.43A4,4,0,0,0,1272.77,572.61Z"/><path d="M1291.62,572.61l-2.46-.44c-1.29-.23-2.16-.75-2.16-1.86s1-1.66,2.36-1.66a2.5,2.5,0,0,1,2.37,1.31l2.75-1c-.68-1.6-2.56-2.81-5.12-2.81h0c-3.26,0-5.41,1.66-5.41,4.16s1.89,3.81,4,4.19l2.26.4c1.21.21,2,.94,2,1.79,0,1.38-1.27,1.94-2.91,1.94a3.29,3.29,0,0,1-2.9-1.55l-2.79,1c.74,1.78,2.86,3,5.69,3,3.52,0,6-1.66,6-4.43A4,4,0,0,0,1291.62,572.61Z"/><path d="M1570.33,566.43l-5.25,14.41h2.65l1-2.77h6.53l1,2.77h2.66l-5.25-14.41Zm-.68,9.15,2.35-6.47,2.36,6.47Z"/><polygon points="1539.29 547.3 1539.29 544.8 1528.75 544.8 1528.75 559.22 1539.29 559.22 1539.29 556.72 1531.8 556.72 1531.8 552.84 1538.18 552.84 1538.18 550.35 1531.8 550.35 1531.8 547.3 1539.29 547.3"/><path d="M1541.78,530.66l-7.88-1.39-.44,2.46,3.92.69a3.86,3.86,0,0,1-3.92,3c-2.77,0-4.16-1.94-4.16-5s1.39-5,4.16-5a3.7,3.7,0,0,1,3.81,2.65l2.78-1a6.76,6.76,0,0,0-6.59-4.13c-4.16,0-7.2,2.77-7.2,7.49s3,7.48,7.2,7.48a5.56,5.56,0,0,0,4.23-1.91l.21,1.64h1.94v-4.74l1.51.26Z"/><path d="M1536.15,572.61l-2.47-.44c-1.29-.23-2.16-.75-2.16-1.86s1-1.66,2.36-1.66a2.48,2.48,0,0,1,2.37,1.31l2.76-1c-.68-1.6-2.56-2.81-5.13-2.81h0c-3.25,0-5.41,1.66-5.41,4.16s1.89,3.81,4,4.19l2.26.4c1.21.21,2,.94,2,1.79,0,1.38-1.26,1.94-2.91,1.94a3.26,3.26,0,0,1-2.89-1.55l-2.79,1c.73,1.78,2.85,3,5.68,3,3.52,0,6-1.66,6-4.43A4,4,0,0,0,1536.15,572.61Z"/><path d="M1555,572.61l-2.47-.44c-1.29-.23-2.16-.75-2.16-1.86s1-1.66,2.36-1.66a2.5,2.5,0,0,1,2.38,1.31l2.75-1c-.68-1.6-2.56-2.81-5.13-2.81h0c-3.25,0-5.41,1.66-5.41,4.16s1.9,3.81,4,4.19l2.26.4c1.21.21,2,.94,2,1.79,0,1.38-1.26,1.94-2.91,1.94a3.27,3.27,0,0,1-2.89-1.55l-2.79,1c.73,1.78,2.86,3,5.68,3,3.52,0,6-1.66,6-4.43A4,4,0,0,0,1555,572.61Z"/><path d="M1833.7,566.43l-5.25,14.41h2.66l1-2.77h6.52l1,2.77h2.65l-5.24-14.41Zm-.67,9.15,2.35-6.47,2.35,6.47Z"/><polygon points="1802.66 547.3 1802.66 544.8 1792.13 544.8 1792.13 559.22 1802.66 559.22 1802.66 556.72 1795.17 556.72 1795.17 552.84 1801.55 552.84 1801.55 550.35 1795.17 550.35 1795.17 547.3 1802.66 547.3"/><path d="M1805.15,530.66l-7.88-1.39-.43,2.46,3.92.69a3.87,3.87,0,0,1-3.92,3c-2.77,0-4.16-1.94-4.16-5s1.39-5,4.16-5a3.71,3.71,0,0,1,3.81,2.65l2.78-1a6.78,6.78,0,0,0-6.59-4.13c-4.16,0-7.21,2.77-7.21,7.49s3,7.48,7.21,7.48a5.56,5.56,0,0,0,4.23-1.91l.2,1.64h1.94v-4.74l1.51.26Z"/><path d="M1799.52,572.61l-2.46-.44c-1.29-.23-2.16-.75-2.16-1.86s1-1.66,2.35-1.66a2.5,2.5,0,0,1,2.38,1.31l2.75-1c-.68-1.6-2.56-2.81-5.13-2.81h0c-3.25,0-5.4,1.66-5.4,4.16s1.89,3.81,4,4.19l2.26.4c1.21.21,2,.94,2,1.79,0,1.38-1.26,1.94-2.91,1.94a3.27,3.27,0,0,1-2.89-1.55l-2.79,1c.73,1.78,2.86,3,5.68,3,3.53,0,6-1.66,6-4.43A4,4,0,0,0,1799.52,572.61Z"/><path d="M1818.37,572.61l-2.46-.44c-1.29-.23-2.16-.75-2.16-1.86s1-1.66,2.35-1.66a2.5,2.5,0,0,1,2.38,1.31l2.75-1c-.68-1.6-2.56-2.81-5.13-2.81h0c-3.25,0-5.4,1.66-5.4,4.16s1.89,3.81,4,4.19l2.26.4c1.21.21,2,.94,2,1.79,0,1.38-1.27,1.94-2.92,1.94a3.27,3.27,0,0,1-2.89-1.55l-2.79,1c.73,1.78,2.86,3,5.68,3,3.53,0,6-1.66,6-4.43A4,4,0,0,0,1818.37,572.61Z"/><path d="M121.77,396.86l-5.25,14.41h2.66l1-2.77h6.53l1,2.77h2.65l-5.25-14.41Zm-.68,9.14,2.36-6.46L125.8,406Z"/><polygon points="90.73 377.73 90.73 375.23 80.19 375.23 80.19 389.65 90.73 389.65 90.73 387.15 83.24 387.15 83.24 383.27 89.62 383.27 89.62 380.78 83.24 380.78 83.24 377.73 90.73 377.73"/><path d="M93.22,361.09l-7.88-1.39-.44,2.46,3.92.69a3.86,3.86,0,0,1-3.92,3c-2.77,0-4.15-1.95-4.15-5s1.38-5,4.15-5a3.73,3.73,0,0,1,3.82,2.65l2.77-1a6.76,6.76,0,0,0-6.59-4.13c-4.15,0-7.2,2.77-7.2,7.49s3,7.48,7.2,7.48a5.6,5.6,0,0,0,4.23-1.91l.21,1.63h1.94v-4.74l1.51.27Z"/><path d="M87.59,403l-2.47-.43c-1.29-.23-2.16-.75-2.16-1.86s1-1.67,2.36-1.67a2.51,2.51,0,0,1,2.38,1.32l2.75-1c-.68-1.6-2.56-2.81-5.13-2.81h0c-3.25,0-5.41,1.66-5.41,4.16s1.89,3.81,4,4.19l2.26.39c1.21.22,2,.95,2,1.79,0,1.39-1.26,1.94-2.91,1.94a3.26,3.26,0,0,1-2.89-1.55l-2.79,1c.73,1.78,2.86,3,5.68,3,3.52,0,6-1.66,6-4.44A4.05,4.05,0,0,0,87.59,403Z"/><path d="M106.44,403,104,402.6c-1.29-.23-2.16-.75-2.16-1.86s1-1.67,2.36-1.67a2.51,2.51,0,0,1,2.38,1.32l2.75-1c-.68-1.6-2.56-2.81-5.13-2.81h0c-3.25,0-5.41,1.66-5.41,4.16s1.9,3.81,4,4.19l2.26.39c1.2.22,2,.95,2,1.79,0,1.39-1.26,1.94-2.91,1.94a3.27,3.27,0,0,1-2.89-1.55l-2.79,1c.73,1.78,2.86,3,5.68,3,3.52,0,6-1.66,6-4.44A4.05,4.05,0,0,0,106.44,403Z"/><path d="M385.14,420.88l-5.25,14.41h2.66l1-2.77h6.52l1,2.77h2.65l-5.24-14.41Zm-.67,9.15,2.35-6.47,2.35,6.47Z"/><polygon points="354.1 401.75 354.1 399.25 343.56 399.25 343.56 413.67 354.1 413.67 354.1 411.18 346.62 411.18 346.62 407.29 352.99 407.29 352.99 404.8 346.62 404.8 346.62 401.75 354.1 401.75"/><path d="M356.6,385.12l-7.89-1.39-.43,2.45,3.92.69a3.86,3.86,0,0,1-3.92,3c-2.77,0-4.16-1.94-4.16-5s1.39-5,4.16-5a3.71,3.71,0,0,1,3.81,2.65l2.78-1a6.77,6.77,0,0,0-6.59-4.14c-4.16,0-7.21,2.77-7.21,7.49s3.05,7.48,7.21,7.48a5.56,5.56,0,0,0,4.23-1.91l.2,1.64h1.94v-4.74l1.51.26Z"/><path d="M351,427.06l-2.46-.44c-1.29-.23-2.16-.75-2.16-1.86s1-1.66,2.35-1.66a2.5,2.5,0,0,1,2.38,1.31l2.75-1c-.68-1.6-2.56-2.81-5.13-2.81h0c-3.25,0-5.4,1.66-5.4,4.16s1.89,3.81,4,4.19l2.26.4c1.21.21,2,.94,2,1.79,0,1.38-1.27,1.94-2.92,1.94a3.27,3.27,0,0,1-2.89-1.55l-2.79,1c.73,1.78,2.86,3,5.68,3,3.53,0,6-1.66,6-4.43A4,4,0,0,0,351,427.06Z"/><path d="M369.81,427.06l-2.46-.44c-1.29-.23-2.16-.75-2.16-1.86s1-1.66,2.36-1.66a2.5,2.5,0,0,1,2.37,1.31l2.75-1c-.68-1.6-2.56-2.81-5.12-2.81h0c-3.26,0-5.41,1.66-5.41,4.16s1.89,3.81,4,4.19l2.26.4c1.21.21,2,.94,2,1.79,0,1.38-1.27,1.94-2.91,1.94a3.27,3.27,0,0,1-2.9-1.55l-2.79,1c.73,1.78,2.86,3,5.69,3,3.52,0,6-1.66,6-4.43A4,4,0,0,0,369.81,427.06Z"/><path d="M648.52,420.88l-5.25,14.41h2.65l1-2.77h6.53l1,2.77h2.66l-5.25-14.41Zm-.68,9.15,2.35-6.47,2.36,6.47Z"/><polygon points="617.48 401.75 617.48 399.25 606.94 399.25 606.94 413.67 617.48 413.67 617.48 411.18 609.99 411.18 609.99 407.29 616.37 407.29 616.37 404.8 609.99 404.8 609.99 401.75 617.48 401.75"/><path d="M620,385.12l-7.88-1.39-.44,2.45,3.92.69a3.85,3.85,0,0,1-3.92,3c-2.77,0-4.16-1.94-4.16-5s1.39-5,4.16-5a3.7,3.7,0,0,1,3.81,2.65l2.78-1a6.76,6.76,0,0,0-6.59-4.14c-4.16,0-7.21,2.77-7.21,7.49s3,7.48,7.21,7.48a5.56,5.56,0,0,0,4.23-1.91l.21,1.64H618v-4.74l1.51.26Z"/><path d="M614.34,427.06l-2.47-.44c-1.29-.23-2.16-.75-2.16-1.86s1-1.66,2.36-1.66a2.48,2.48,0,0,1,2.37,1.31l2.76-1c-.68-1.6-2.57-2.81-5.13-2.81h0c-3.25,0-5.41,1.66-5.41,4.16s1.89,3.81,4,4.19l2.26.4c1.21.21,2,.94,2,1.79,0,1.38-1.27,1.94-2.91,1.94a3.26,3.26,0,0,1-2.89-1.55l-2.79,1c.73,1.78,2.85,3,5.68,3,3.52,0,6-1.66,6-4.43A4,4,0,0,0,614.34,427.06Z"/><path d="M633.19,427.06l-2.47-.44c-1.29-.23-2.16-.75-2.16-1.86s1-1.66,2.36-1.66a2.5,2.5,0,0,1,2.38,1.31l2.75-1c-.68-1.6-2.56-2.81-5.13-2.81h0c-3.25,0-5.41,1.66-5.41,4.16s1.89,3.81,4,4.19l2.26.4c1.21.21,2,.94,2,1.79,0,1.38-1.26,1.94-2.91,1.94a3.26,3.26,0,0,1-2.89-1.55l-2.79,1c.73,1.78,2.86,3,5.68,3,3.52,0,6-1.66,6-4.43A4,4,0,0,0,633.19,427.06Z"/><path d="M911.89,420.88l-5.25,14.41h2.66l1-2.77h6.52l1,2.77h2.65l-5.24-14.41Zm-.67,9.15,2.35-6.47,2.35,6.47Z"/><polygon points="880.85 401.75 880.85 399.25 870.31 399.25 870.31 413.67 880.85 413.67 880.85 411.18 873.36 411.18 873.36 407.29 879.74 407.29 879.74 404.8 873.36 404.8 873.36 401.75 880.85 401.75"/><path d="M883.34,385.12l-7.88-1.39-.43,2.45,3.92.69a3.86,3.86,0,0,1-3.92,3c-2.78,0-4.16-1.94-4.16-5s1.38-5,4.16-5a3.71,3.71,0,0,1,3.81,2.65l2.78-1a6.77,6.77,0,0,0-6.59-4.14c-4.16,0-7.21,2.77-7.21,7.49s3,7.48,7.21,7.48a5.56,5.56,0,0,0,4.23-1.91l.2,1.64h1.94v-4.74l1.51.26Z"/><path d="M877.71,427.06l-2.46-.44c-1.29-.23-2.16-.75-2.16-1.86s1-1.66,2.35-1.66a2.5,2.5,0,0,1,2.38,1.31l2.75-1c-.68-1.6-2.56-2.81-5.13-2.81h0c-3.25,0-5.4,1.66-5.4,4.16s1.89,3.81,4,4.19l2.26.4c1.21.21,2,.94,2,1.79,0,1.38-1.26,1.94-2.91,1.94a3.27,3.27,0,0,1-2.89-1.55l-2.79,1c.73,1.78,2.86,3,5.68,3,3.53,0,6-1.66,6-4.43A4,4,0,0,0,877.71,427.06Z"/><path d="M896.56,427.06l-2.46-.44c-1.29-.23-2.16-.75-2.16-1.86s1-1.66,2.35-1.66a2.5,2.5,0,0,1,2.38,1.31l2.75-1c-.68-1.6-2.56-2.81-5.13-2.81h0c-3.25,0-5.4,1.66-5.4,4.16s1.89,3.81,4,4.19l2.26.4c1.21.21,2,.94,2,1.79,0,1.38-1.27,1.94-2.92,1.94a3.27,3.27,0,0,1-2.89-1.55l-2.79,1c.73,1.78,2.86,3,5.68,3,3.53,0,6-1.66,6-4.43A4,4,0,0,0,896.56,427.06Z"/><path d="M1175.26,420.88,1170,435.29h2.65l1-2.77h6.52l1,2.77h2.66l-5.25-14.41Zm-.67,9.15,2.35-6.47,2.36,6.47Z"/><polygon points="1144.22 401.75 1144.22 399.25 1133.69 399.25 1133.69 413.67 1144.22 413.67 1144.22 411.18 1136.74 411.18 1136.74 407.29 1143.12 407.29 1143.12 404.8 1136.74 404.8 1136.74 401.75 1144.22 401.75"/><path d="M1146.72,385.12l-7.88-1.39-.44,2.45,3.92.69a3.85,3.85,0,0,1-3.92,3c-2.77,0-4.16-1.94-4.16-5s1.39-5,4.16-5a3.71,3.71,0,0,1,3.81,2.65l2.78-1a6.76,6.76,0,0,0-6.59-4.14c-4.16,0-7.21,2.77-7.21,7.49s3,7.48,7.21,7.48a5.56,5.56,0,0,0,4.23-1.91l.21,1.64h1.94v-4.74l1.51.26Z"/><path d="M1141.09,427.06l-2.47-.44c-1.29-.23-2.16-.75-2.16-1.86s1-1.66,2.36-1.66a2.49,2.49,0,0,1,2.37,1.31l2.76-1c-.68-1.6-2.57-2.81-5.13-2.81h0c-3.25,0-5.41,1.66-5.41,4.16s1.89,3.81,4,4.19l2.26.4c1.21.21,2,.94,2,1.79,0,1.38-1.27,1.94-2.91,1.94a3.26,3.26,0,0,1-2.89-1.55l-2.8,1c.74,1.78,2.86,3,5.69,3,3.52,0,6-1.66,6-4.43A4,4,0,0,0,1141.09,427.06Z"/><path d="M1159.94,427.06l-2.47-.44c-1.29-.23-2.16-.75-2.16-1.86s1-1.66,2.36-1.66a2.48,2.48,0,0,1,2.37,1.31l2.76-1c-.68-1.6-2.57-2.81-5.13-2.81h0c-3.25,0-5.41,1.66-5.41,4.16s1.89,3.81,4,4.19l2.26.4c1.21.21,2,.94,2,1.79,0,1.38-1.27,1.94-2.91,1.94a3.26,3.26,0,0,1-2.89-1.55l-2.79,1c.73,1.78,2.85,3,5.68,3,3.52,0,6-1.66,6-4.43A4,4,0,0,0,1159.94,427.06Z"/><path d="M1438.64,420.88l-5.25,14.41h2.66l1-2.77h6.52l1,2.77h2.65L1442,420.88ZM1438,430l2.36-6.47,2.35,6.47Z"/><polygon points="1407.6 401.75 1407.6 399.25 1397.06 399.25 1397.06 413.67 1407.6 413.67 1407.6 411.18 1400.11 411.18 1400.11 407.29 1406.49 407.29 1406.49 404.8 1400.11 404.8 1400.11 401.75 1407.6 401.75"/><path d="M1410.09,385.12l-7.88-1.39-.43,2.45,3.92.69a3.86,3.86,0,0,1-3.92,3c-2.78,0-4.16-1.94-4.16-5s1.38-5,4.16-5a3.71,3.71,0,0,1,3.81,2.65l2.78-1a6.77,6.77,0,0,0-6.59-4.14c-4.16,0-7.21,2.77-7.21,7.49s3,7.48,7.21,7.48a5.59,5.59,0,0,0,4.23-1.91l.2,1.64h1.94v-4.74l1.51.26Z"/><path d="M1404.46,427.06l-2.46-.44c-1.3-.23-2.16-.75-2.16-1.86s1-1.66,2.35-1.66a2.5,2.5,0,0,1,2.38,1.31l2.75-1c-.68-1.6-2.56-2.81-5.13-2.81h0c-3.25,0-5.4,1.66-5.4,4.16s1.89,3.81,4,4.19l2.26.4c1.2.21,2,.94,2,1.79,0,1.38-1.26,1.94-2.91,1.94a3.27,3.27,0,0,1-2.89-1.55l-2.79,1c.73,1.78,2.86,3,5.68,3,3.52,0,6-1.66,6-4.43A4,4,0,0,0,1404.46,427.06Z"/><path d="M1423.31,427.06l-2.46-.44c-1.29-.23-2.16-.75-2.16-1.86s1-1.66,2.35-1.66a2.5,2.5,0,0,1,2.38,1.31l2.75-1c-.68-1.6-2.56-2.81-5.13-2.81h0c-3.25,0-5.4,1.66-5.4,4.16s1.89,3.81,4,4.19l2.26.4c1.21.21,2,.94,2,1.79,0,1.38-1.26,1.94-2.91,1.94a3.27,3.27,0,0,1-2.89-1.55l-2.79,1c.73,1.78,2.86,3,5.68,3,3.53,0,6-1.66,6-4.43A4,4,0,0,0,1423.31,427.06Z"/><path d="M1702,420.88l-5.24,14.41h2.65l1-2.77H1707l1,2.77h2.66l-5.25-14.41Zm-.67,9.15,2.35-6.47L1706,430Z"/><polygon points="1670.97 401.75 1670.97 399.25 1660.44 399.25 1660.44 413.67 1670.97 413.67 1670.97 411.18 1663.49 411.18 1663.49 407.29 1669.86 407.29 1669.86 404.8 1663.49 404.8 1663.49 401.75 1670.97 401.75"/><path d="M1673.47,385.12l-7.89-1.39-.43,2.45,3.92.69a3.85,3.85,0,0,1-3.92,3c-2.77,0-4.16-1.94-4.16-5s1.39-5,4.16-5a3.71,3.71,0,0,1,3.81,2.65l2.78-1a6.76,6.76,0,0,0-6.59-4.14c-4.16,0-7.21,2.77-7.21,7.49s3,7.48,7.21,7.48a5.56,5.56,0,0,0,4.23-1.91l.21,1.64h1.94v-4.74l1.5.26Z"/><path d="M1667.83,427.06l-2.46-.44c-1.29-.23-2.16-.75-2.16-1.86s1-1.66,2.36-1.66a2.5,2.5,0,0,1,2.37,1.31l2.75-1c-.68-1.6-2.56-2.81-5.12-2.81h0c-3.25,0-5.41,1.66-5.41,4.16s1.89,3.81,4,4.19l2.26.4c1.21.21,2,.94,2,1.79,0,1.38-1.27,1.94-2.91,1.94a3.26,3.26,0,0,1-2.89-1.55l-2.8,1c.74,1.78,2.86,3,5.69,3,3.52,0,6-1.66,6-4.43A4,4,0,0,0,1667.83,427.06Z"/><path d="M1686.69,427.06l-2.47-.44c-1.29-.23-2.16-.75-2.16-1.86s1-1.66,2.36-1.66a2.49,2.49,0,0,1,2.37,1.31l2.76-1c-.68-1.6-2.57-2.81-5.13-2.81h0c-3.25,0-5.41,1.66-5.41,4.16s1.89,3.81,4,4.19l2.26.4c1.21.21,2,.94,2,1.79,0,1.38-1.27,1.94-2.91,1.94a3.26,3.26,0,0,1-2.89-1.55l-2.79,1c.73,1.78,2.85,3,5.68,3,3.52,0,6-1.66,6-4.43A4,4,0,0,0,1686.69,427.06Z"/><path d="M253.45,275.33l-5.24,14.42h2.65l1-2.78h6.52l1,2.78h2.66l-5.25-14.42Zm-.67,9.15,2.35-6.47,2.36,6.47Z"/><polygon points="222.41 256.2 222.41 253.71 211.88 253.71 211.88 268.12 222.41 268.12 222.41 265.63 214.93 265.63 214.93 261.75 221.3 261.75 221.3 259.25 214.93 259.25 214.93 256.2 222.41 256.2"/><path d="M224.91,239.57,217,238.18l-.44,2.45,3.92.69a3.85,3.85,0,0,1-3.92,3c-2.77,0-4.16-1.94-4.16-5s1.39-5,4.16-5A3.71,3.71,0,0,1,220.4,237l2.78-1a6.76,6.76,0,0,0-6.59-4.14c-4.16,0-7.21,2.78-7.21,7.49s3.05,7.48,7.21,7.48a5.56,5.56,0,0,0,4.23-1.91l.21,1.64H223v-4.74l1.5.26Z"/><path d="M219.28,281.51l-2.47-.44c-1.29-.22-2.16-.75-2.16-1.86s1-1.66,2.36-1.66a2.5,2.5,0,0,1,2.37,1.31l2.75-1c-.67-1.6-2.56-2.81-5.12-2.81h0c-3.25,0-5.41,1.67-5.41,4.16s1.89,3.81,4,4.19l2.26.4c1.21.21,2,.94,2,1.79,0,1.38-1.27,1.94-2.91,1.94a3.26,3.26,0,0,1-2.89-1.55l-2.8,1c.74,1.78,2.86,3,5.69,3,3.52,0,6-1.66,6-4.43A4,4,0,0,0,219.28,281.51Z"/><path d="M238.13,281.51l-2.47-.44c-1.29-.22-2.16-.75-2.16-1.86s1-1.66,2.36-1.66a2.49,2.49,0,0,1,2.37,1.31l2.76-1c-.68-1.6-2.57-2.81-5.13-2.81h0c-3.25,0-5.41,1.67-5.41,4.16s1.89,3.81,4,4.19l2.26.4c1.21.21,2,.94,2,1.79,0,1.38-1.27,1.94-2.91,1.94A3.26,3.26,0,0,1,233,286l-2.79,1c.73,1.78,2.85,3,5.68,3,3.52,0,6-1.66,6-4.43A4,4,0,0,0,238.13,281.51Z"/><path d="M516.83,275.33l-5.25,14.42h2.66l1-2.78h6.52l1,2.78h2.65l-5.24-14.42Zm-.68,9.15,2.36-6.47,2.35,6.47Z"/><polygon points="485.79 256.2 485.79 253.71 475.25 253.71 475.25 268.12 485.79 268.12 485.79 265.63 478.3 265.63 478.3 261.75 484.68 261.75 484.68 259.25 478.3 259.25 478.3 256.2 485.79 256.2"/><path d="M488.28,239.57l-7.88-1.39-.43,2.45,3.92.69a3.86,3.86,0,0,1-3.92,3c-2.78,0-4.16-1.94-4.16-5s1.38-5,4.16-5a3.71,3.71,0,0,1,3.81,2.65l2.77-1A6.75,6.75,0,0,0,480,231.8c-4.16,0-7.21,2.78-7.21,7.49s3.05,7.48,7.21,7.48a5.59,5.59,0,0,0,4.23-1.91l.2,1.64h1.94v-4.74l1.51.26Z"/><path d="M482.65,281.51l-2.47-.44c-1.29-.22-2.16-.75-2.16-1.86s1-1.66,2.36-1.66a2.5,2.5,0,0,1,2.38,1.31l2.75-1c-.68-1.6-2.56-2.81-5.13-2.81h0c-3.25,0-5.4,1.67-5.4,4.16s1.89,3.81,4,4.19l2.26.4c1.2.21,2,.94,2,1.79,0,1.38-1.26,1.94-2.91,1.94a3.27,3.27,0,0,1-2.89-1.55l-2.79,1c.73,1.78,2.86,3,5.68,3,3.52,0,6-1.66,6-4.43A4,4,0,0,0,482.65,281.51Z"/><path d="M501.5,281.51l-2.46-.44c-1.3-.22-2.16-.75-2.16-1.86s1-1.66,2.35-1.66a2.5,2.5,0,0,1,2.38,1.31l2.75-1c-.68-1.6-2.56-2.81-5.13-2.81h0c-3.25,0-5.4,1.67-5.4,4.16s1.89,3.81,4,4.19l2.26.4c1.2.21,2,.94,2,1.79,0,1.38-1.26,1.94-2.91,1.94a3.27,3.27,0,0,1-2.89-1.55l-2.79,1c.73,1.78,2.86,3,5.68,3,3.52,0,6-1.66,6-4.43A4,4,0,0,0,501.5,281.51Z"/><path d="M780.2,275.33,775,289.75h2.65l1-2.78h6.52l1,2.78h2.66l-5.25-14.42Zm-.67,9.15,2.35-6.47,2.35,6.47Z"/><polygon points="749.16 256.2 749.16 253.71 738.63 253.71 738.63 268.12 749.16 268.12 749.16 265.63 741.68 265.63 741.68 261.75 748.05 261.75 748.05 259.25 741.68 259.25 741.68 256.2 749.16 256.2"/><path d="M751.66,239.57l-7.89-1.39-.43,2.45,3.92.69a3.85,3.85,0,0,1-3.92,3c-2.77,0-4.16-1.94-4.16-5s1.39-5,4.16-5a3.71,3.71,0,0,1,3.81,2.65l2.78-1a6.77,6.77,0,0,0-6.59-4.14c-4.16,0-7.21,2.78-7.21,7.49s3,7.48,7.21,7.48a5.56,5.56,0,0,0,4.23-1.91l.2,1.64h2v-4.74l1.5.26Z"/><path d="M746,281.51l-2.46-.44c-1.29-.22-2.16-.75-2.16-1.86s1-1.66,2.36-1.66a2.5,2.5,0,0,1,2.37,1.31l2.75-1c-.68-1.6-2.56-2.81-5.12-2.81h0c-3.26,0-5.41,1.67-5.41,4.16s1.89,3.81,4,4.19l2.26.4c1.21.21,2,.94,2,1.79,0,1.38-1.27,1.94-2.91,1.94a3.29,3.29,0,0,1-2.9-1.55l-2.79,1c.74,1.78,2.86,3,5.69,3,3.52,0,6-1.66,6-4.43A4,4,0,0,0,746,281.51Z"/><path d="M764.88,281.51l-2.47-.44c-1.29-.22-2.16-.75-2.16-1.86s1-1.66,2.36-1.66a2.5,2.5,0,0,1,2.37,1.31l2.75-1c-.67-1.6-2.56-2.81-5.12-2.81h0c-3.25,0-5.41,1.67-5.41,4.16s1.89,3.81,4,4.19l2.26.4c1.21.21,2,.94,2,1.79,0,1.38-1.27,1.94-2.91,1.94a3.26,3.26,0,0,1-2.89-1.55l-2.8,1c.74,1.78,2.86,3,5.69,3,3.52,0,6-1.66,6-4.43A4,4,0,0,0,764.88,281.51Z"/><path d="M1043.58,275.33l-5.25,14.42H1041l1-2.78h6.53l1,2.78h2.65l-5.25-14.42Zm-.68,9.15,2.36-6.47,2.35,6.47Z"/><polygon points="1012.54 256.2 1012.54 253.71 1002 253.71 1002 268.12 1012.54 268.12 1012.54 265.63 1005.05 265.63 1005.05 261.75 1011.43 261.75 1011.43 259.25 1005.05 259.25 1005.05 256.2 1012.54 256.2"/><path d="M1015,239.57l-7.88-1.39-.43,2.45,3.91.69a3.85,3.85,0,0,1-3.92,3c-2.77,0-4.15-1.94-4.15-5s1.38-5,4.15-5a3.72,3.72,0,0,1,3.82,2.65l2.77-1a6.76,6.76,0,0,0-6.59-4.14c-4.15,0-7.2,2.78-7.2,7.49s3,7.48,7.2,7.48a5.6,5.6,0,0,0,4.24-1.91l.2,1.64h1.94v-4.74l1.51.26Z"/><path d="M1009.4,281.51l-2.47-.44c-1.29-.22-2.16-.75-2.16-1.86s1-1.66,2.36-1.66a2.5,2.5,0,0,1,2.38,1.31l2.75-1c-.68-1.6-2.56-2.81-5.13-2.81h0c-3.25,0-5.41,1.67-5.41,4.16s1.89,3.81,4,4.19l2.26.4c1.21.21,2,.94,2,1.79,0,1.38-1.26,1.94-2.91,1.94a3.27,3.27,0,0,1-2.89-1.55l-2.79,1c.73,1.78,2.86,3,5.68,3,3.52,0,6-1.66,6-4.43A4,4,0,0,0,1009.4,281.51Z"/><path d="M1028.25,281.51l-2.47-.44c-1.29-.22-2.16-.75-2.16-1.86s1-1.66,2.36-1.66a2.5,2.5,0,0,1,2.38,1.31l2.75-1c-.68-1.6-2.56-2.81-5.13-2.81h0c-3.25,0-5.4,1.67-5.4,4.16s1.89,3.81,4,4.19l2.26.4c1.2.21,2,.94,2,1.79,0,1.38-1.26,1.94-2.91,1.94a3.27,3.27,0,0,1-2.89-1.55l-2.79,1c.73,1.78,2.86,3,5.68,3,3.52,0,6-1.66,6-4.43A4,4,0,0,0,1028.25,281.51Z"/><path d="M1307,275.33l-5.25,14.42h2.66l1-2.78h6.52l1,2.78h2.66l-5.25-14.42Zm-.67,9.15,2.35-6.47,2.35,6.47Z"/><polygon points="1275.91 256.2 1275.91 253.71 1265.38 253.71 1265.38 268.12 1275.91 268.12 1275.91 265.63 1268.42 265.63 1268.42 261.75 1274.8 261.75 1274.8 259.25 1268.42 259.25 1268.42 256.2 1275.91 256.2"/><path d="M1278.41,239.57l-7.89-1.39-.43,2.45,3.92.69a3.85,3.85,0,0,1-3.92,3c-2.77,0-4.16-1.94-4.16-5s1.39-5,4.16-5a3.71,3.71,0,0,1,3.81,2.65l2.78-1a6.77,6.77,0,0,0-6.59-4.14c-4.16,0-7.21,2.78-7.21,7.49s3,7.48,7.21,7.48a5.56,5.56,0,0,0,4.23-1.91l.2,1.64h2v-4.74l1.5.26Z"/><path d="M1272.77,281.51l-2.46-.44c-1.29-.22-2.16-.75-2.16-1.86s1-1.66,2.35-1.66a2.5,2.5,0,0,1,2.38,1.31l2.75-1c-.68-1.6-2.56-2.81-5.13-2.81h0c-3.25,0-5.4,1.67-5.4,4.16s1.89,3.81,4,4.19l2.26.4c1.21.21,2,.94,2,1.79,0,1.38-1.27,1.94-2.92,1.94a3.27,3.27,0,0,1-2.89-1.55l-2.79,1c.73,1.78,2.86,3,5.68,3,3.53,0,6-1.66,6-4.43A4,4,0,0,0,1272.77,281.51Z"/><path d="M1291.62,281.51l-2.46-.44c-1.29-.22-2.16-.75-2.16-1.86s1-1.66,2.36-1.66a2.5,2.5,0,0,1,2.37,1.31l2.75-1c-.68-1.6-2.56-2.81-5.12-2.81h0c-3.26,0-5.41,1.67-5.41,4.16s1.89,3.81,4,4.19l2.26.4c1.21.21,2,.94,2,1.79,0,1.38-1.27,1.94-2.91,1.94a3.29,3.29,0,0,1-2.9-1.55l-2.79,1c.74,1.78,2.86,3,5.69,3,3.52,0,6-1.66,6-4.43A4,4,0,0,0,1291.62,281.51Z"/><path d="M1570.33,275.33l-5.25,14.42h2.65l1-2.78h6.53l1,2.78h2.66l-5.25-14.42Zm-.68,9.15L1572,278l2.36,6.47Z"/><polygon points="1539.29 256.2 1539.29 253.71 1528.75 253.71 1528.75 268.12 1539.29 268.12 1539.29 265.63 1531.8 265.63 1531.8 261.75 1538.18 261.75 1538.18 259.25 1531.8 259.25 1531.8 256.2 1539.29 256.2"/><path d="M1541.78,239.57l-7.88-1.39-.44,2.45,3.92.69a3.85,3.85,0,0,1-3.92,3c-2.77,0-4.16-1.94-4.16-5s1.39-5,4.16-5a3.7,3.7,0,0,1,3.81,2.65l2.78-1a6.76,6.76,0,0,0-6.59-4.14c-4.16,0-7.2,2.78-7.2,7.49s3,7.48,7.2,7.48a5.56,5.56,0,0,0,4.23-1.91l.21,1.64h1.94v-4.74l1.51.26Z"/><path d="M1536.15,281.51l-2.47-.44c-1.29-.22-2.16-.75-2.16-1.86s1-1.66,2.36-1.66a2.48,2.48,0,0,1,2.37,1.31l2.76-1c-.68-1.6-2.56-2.81-5.13-2.81h0c-3.25,0-5.41,1.67-5.41,4.16s1.89,3.81,4,4.19l2.26.4c1.21.21,2,.94,2,1.79,0,1.38-1.26,1.94-2.91,1.94A3.26,3.26,0,0,1,1531,286l-2.79,1c.73,1.78,2.85,3,5.68,3,3.52,0,6-1.66,6-4.43A4,4,0,0,0,1536.15,281.51Z"/><path d="M1555,281.51l-2.47-.44c-1.29-.22-2.16-.75-2.16-1.86s1-1.66,2.36-1.66a2.5,2.5,0,0,1,2.38,1.31l2.75-1c-.68-1.6-2.56-2.81-5.13-2.81h0c-3.25,0-5.41,1.67-5.41,4.16s1.9,3.81,4,4.19l2.26.4c1.21.21,2,.94,2,1.79,0,1.38-1.26,1.94-2.91,1.94a3.27,3.27,0,0,1-2.89-1.55l-2.79,1c.73,1.78,2.86,3,5.68,3,3.52,0,6-1.66,6-4.43A4,4,0,0,0,1555,281.51Z"/><path d="M1833.7,275.33l-5.25,14.42h2.66l1-2.78h6.52l1,2.78h2.65l-5.24-14.42Zm-.67,9.15,2.35-6.47,2.35,6.47Z"/><polygon points="1802.66 256.2 1802.66 253.71 1792.13 253.71 1792.13 268.12 1802.66 268.12 1802.66 265.63 1795.17 265.63 1795.17 261.75 1801.55 261.75 1801.55 259.25 1795.17 259.25 1795.17 256.2 1802.66 256.2"/><path d="M1805.15,239.57l-7.88-1.39-.43,2.45,3.92.69a3.86,3.86,0,0,1-3.92,3c-2.77,0-4.16-1.94-4.16-5s1.39-5,4.16-5a3.71,3.71,0,0,1,3.81,2.65l2.78-1a6.77,6.77,0,0,0-6.59-4.14c-4.16,0-7.21,2.78-7.21,7.49s3,7.48,7.21,7.48a5.56,5.56,0,0,0,4.23-1.91l.2,1.64h1.94v-4.74l1.51.26Z"/><path d="M1799.52,281.51l-2.46-.44c-1.29-.22-2.16-.75-2.16-1.86s1-1.66,2.35-1.66a2.5,2.5,0,0,1,2.38,1.31l2.75-1c-.68-1.6-2.56-2.81-5.13-2.81h0c-3.25,0-5.4,1.67-5.4,4.16s1.89,3.81,4,4.19l2.26.4c1.21.21,2,.94,2,1.79,0,1.38-1.26,1.94-2.91,1.94a3.27,3.27,0,0,1-2.89-1.55l-2.79,1c.73,1.78,2.86,3,5.68,3,3.53,0,6-1.66,6-4.43A4,4,0,0,0,1799.52,281.51Z"/><path d="M1818.37,281.51l-2.46-.44c-1.29-.22-2.16-.75-2.16-1.86s1-1.66,2.35-1.66a2.5,2.5,0,0,1,2.38,1.31l2.75-1c-.68-1.6-2.56-2.81-5.13-2.81h0c-3.25,0-5.4,1.67-5.4,4.16s1.89,3.81,4,4.19l2.26.4c1.21.21,2,.94,2,1.79,0,1.38-1.27,1.94-2.92,1.94a3.27,3.27,0,0,1-2.89-1.55l-2.79,1c.73,1.78,2.86,3,5.68,3,3.53,0,6-1.66,6-4.43A4,4,0,0,0,1818.37,281.51Z"/><path d="M121.77,129.78l-5.25,14.42h2.66l1-2.78h6.53l1,2.78h2.65l-5.25-14.42Zm-.68,9.15,2.36-6.47,2.35,6.47Z"/><polygon points="90.73 110.65 90.73 108.16 80.19 108.16 80.19 122.57 90.73 122.57 90.73 120.08 83.24 120.08 83.24 116.2 89.62 116.2 89.62 113.7 83.24 113.7 83.24 110.65 90.73 110.65"/><path d="M93.22,94l-7.88-1.39-.44,2.45,3.92.7a3.85,3.85,0,0,1-3.92,3c-2.77,0-4.15-1.94-4.15-5s1.38-5,4.15-5a3.72,3.72,0,0,1,3.82,2.65l2.77-1a6.76,6.76,0,0,0-6.59-4.14c-4.15,0-7.2,2.78-7.2,7.49s3,7.49,7.2,7.49a5.57,5.57,0,0,0,4.23-1.92l.21,1.64h1.94V96.21l1.51.26Z"/><path d="M87.59,136l-2.47-.44c-1.29-.22-2.16-.75-2.16-1.86S84,132,85.32,132a2.5,2.5,0,0,1,2.38,1.31l2.75-1c-.68-1.6-2.56-2.81-5.13-2.81h0c-3.25,0-5.41,1.67-5.41,4.16s1.89,3.81,4,4.19l2.26.4c1.21.21,2,.95,2,1.79,0,1.38-1.26,1.94-2.91,1.94a3.26,3.26,0,0,1-2.89-1.55l-2.79,1c.73,1.79,2.86,3,5.68,3,3.52,0,6-1.66,6-4.43A4,4,0,0,0,87.59,136Z"/><path d="M106.44,136l-2.47-.44c-1.29-.22-2.16-.75-2.16-1.86s1-1.66,2.36-1.66a2.5,2.5,0,0,1,2.38,1.31l2.75-1c-.68-1.6-2.56-2.81-5.13-2.81h0c-3.25,0-5.41,1.67-5.41,4.16s1.9,3.81,4,4.19l2.26.4c1.2.21,2,.95,2,1.79,0,1.38-1.26,1.94-2.91,1.94a3.27,3.27,0,0,1-2.89-1.55l-2.79,1c.73,1.79,2.86,3,5.68,3,3.52,0,6-1.66,6-4.43A4,4,0,0,0,106.44,136Z"/><path d="M385.14,129.78l-5.25,14.42h2.66l1-2.78h6.52l1,2.78h2.65l-5.24-14.42Zm-.67,9.15,2.35-6.47,2.35,6.47Z"/><polygon points="354.1 110.65 354.1 108.16 343.56 108.16 343.56 122.57 354.1 122.57 354.1 120.08 346.62 120.08 346.62 116.2 352.99 116.2 352.99 113.7 346.62 113.7 346.62 110.65 354.1 110.65"/><path d="M356.6,94l-7.89-1.39-.43,2.45,3.92.7a3.86,3.86,0,0,1-3.92,3c-2.77,0-4.16-1.94-4.16-5s1.39-5,4.16-5a3.71,3.71,0,0,1,3.81,2.65l2.78-1a6.77,6.77,0,0,0-6.59-4.14c-4.16,0-7.21,2.78-7.21,7.49s3.05,7.49,7.21,7.49a5.57,5.57,0,0,0,4.23-1.92l.2,1.64h1.94V96.21l1.51.26Z"/><path d="M351,136l-2.46-.44c-1.29-.22-2.16-.75-2.16-1.86s1-1.66,2.35-1.66a2.5,2.5,0,0,1,2.38,1.31l2.75-1c-.68-1.6-2.56-2.81-5.13-2.81h0c-3.25,0-5.4,1.67-5.4,4.16s1.89,3.81,4,4.19l2.26.4c1.21.21,2,.95,2,1.79,0,1.38-1.27,1.94-2.92,1.94a3.27,3.27,0,0,1-2.89-1.55l-2.79,1c.73,1.79,2.86,3,5.68,3,3.53,0,6-1.66,6-4.43A4,4,0,0,0,351,136Z"/><path d="M369.81,136l-2.46-.44c-1.29-.22-2.16-.75-2.16-1.86s1-1.66,2.36-1.66a2.5,2.5,0,0,1,2.37,1.31l2.75-1c-.68-1.6-2.56-2.81-5.12-2.81h0c-3.26,0-5.41,1.67-5.41,4.16s1.89,3.81,4,4.19l2.26.4c1.21.21,2,.95,2,1.79,0,1.38-1.27,1.94-2.91,1.94a3.27,3.27,0,0,1-2.9-1.55l-2.79,1c.73,1.79,2.86,3,5.69,3,3.52,0,6-1.66,6-4.43A4,4,0,0,0,369.81,136Z"/><path d="M648.52,129.78l-5.25,14.42h2.65l1-2.78h6.53l1,2.78h2.66l-5.25-14.42Zm-.68,9.15,2.35-6.47,2.36,6.47Z"/><polygon points="617.48 110.65 617.48 108.16 606.94 108.16 606.94 122.57 617.48 122.57 617.48 120.08 609.99 120.08 609.99 116.2 616.37 116.2 616.37 113.7 609.99 113.7 609.99 110.65 617.48 110.65"/><path d="M620,94l-7.88-1.39-.44,2.45,3.92.7a3.85,3.85,0,0,1-3.92,3c-2.77,0-4.16-1.94-4.16-5s1.39-5,4.16-5a3.7,3.7,0,0,1,3.81,2.65l2.78-1a6.76,6.76,0,0,0-6.59-4.14c-4.16,0-7.21,2.78-7.21,7.49s3,7.49,7.21,7.49a5.57,5.57,0,0,0,4.23-1.92l.21,1.64H618V96.21l1.51.26Z"/><path d="M614.34,136l-2.47-.44c-1.29-.22-2.16-.75-2.16-1.86s1-1.66,2.36-1.66a2.48,2.48,0,0,1,2.37,1.31l2.76-1c-.68-1.6-2.57-2.81-5.13-2.81h0c-3.25,0-5.41,1.67-5.41,4.16s1.89,3.81,4,4.19l2.26.4c1.21.21,2,.95,2,1.79,0,1.38-1.27,1.94-2.91,1.94a3.26,3.26,0,0,1-2.89-1.55l-2.79,1c.73,1.79,2.85,3,5.68,3,3.52,0,6-1.66,6-4.43A4,4,0,0,0,614.34,136Z"/><path d="M633.19,136l-2.47-.44c-1.29-.22-2.16-.75-2.16-1.86s1-1.66,2.36-1.66a2.5,2.5,0,0,1,2.38,1.31l2.75-1c-.68-1.6-2.56-2.81-5.13-2.81h0c-3.25,0-5.41,1.67-5.41,4.16s1.89,3.81,4,4.19l2.26.4c1.21.21,2,.95,2,1.79,0,1.38-1.26,1.94-2.91,1.94a3.26,3.26,0,0,1-2.89-1.55l-2.79,1c.73,1.79,2.86,3,5.68,3,3.52,0,6-1.66,6-4.43A4,4,0,0,0,633.19,136Z"/><path d="M911.89,129.78l-5.25,14.42h2.66l1-2.78h6.52l1,2.78h2.65l-5.24-14.42Zm-.67,9.15,2.35-6.47,2.35,6.47Z"/><polygon points="880.85 110.65 880.85 108.16 870.31 108.16 870.31 122.57 880.85 122.57 880.85 120.08 873.36 120.08 873.36 116.2 879.74 116.2 879.74 113.7 873.36 113.7 873.36 110.65 880.85 110.65"/><path d="M883.34,94l-7.88-1.39L875,95.08l3.92.7a3.86,3.86,0,0,1-3.92,3c-2.78,0-4.16-1.94-4.16-5s1.38-5,4.16-5a3.71,3.71,0,0,1,3.81,2.65l2.78-1A6.77,6.77,0,0,0,875,86.25c-4.16,0-7.21,2.78-7.21,7.49s3,7.49,7.21,7.49a5.57,5.57,0,0,0,4.23-1.92l.2,1.64h1.94V96.21l1.51.26Z"/><path d="M877.71,136l-2.46-.44c-1.29-.22-2.16-.75-2.16-1.86s1-1.66,2.35-1.66a2.5,2.5,0,0,1,2.38,1.31l2.75-1c-.68-1.6-2.56-2.81-5.13-2.81h0c-3.25,0-5.4,1.67-5.4,4.16s1.89,3.81,4,4.19l2.26.4c1.21.21,2,.95,2,1.79,0,1.38-1.26,1.94-2.91,1.94a3.27,3.27,0,0,1-2.89-1.55l-2.79,1c.73,1.79,2.86,3,5.68,3,3.53,0,6-1.66,6-4.43A4,4,0,0,0,877.71,136Z"/><path d="M896.56,136l-2.46-.44c-1.29-.22-2.16-.75-2.16-1.86s1-1.66,2.35-1.66a2.5,2.5,0,0,1,2.38,1.31l2.75-1c-.68-1.6-2.56-2.81-5.13-2.81h0c-3.25,0-5.4,1.67-5.4,4.16s1.89,3.81,4,4.19l2.26.4c1.21.21,2,.95,2,1.79,0,1.38-1.27,1.94-2.92,1.94a3.27,3.27,0,0,1-2.89-1.55l-2.79,1c.73,1.79,2.86,3,5.68,3,3.53,0,6-1.66,6-4.43A4,4,0,0,0,896.56,136Z"/><path d="M1175.26,129.78,1170,144.2h2.65l1-2.78h6.52l1,2.78h2.66l-5.25-14.42Zm-.67,9.15,2.35-6.47,2.36,6.47Z"/><polygon points="1144.22 110.65 1144.22 108.16 1133.69 108.16 1133.69 122.57 1144.22 122.57 1144.22 120.08 1136.74 120.08 1136.74 116.2 1143.12 116.2 1143.12 113.7 1136.74 113.7 1136.74 110.65 1144.22 110.65"/><path d="M1146.72,94l-7.88-1.39-.44,2.45,3.92.7a3.85,3.85,0,0,1-3.92,3c-2.77,0-4.16-1.94-4.16-5s1.39-5,4.16-5a3.71,3.71,0,0,1,3.81,2.65l2.78-1a6.76,6.76,0,0,0-6.59-4.14c-4.16,0-7.21,2.78-7.21,7.49s3,7.49,7.21,7.49a5.57,5.57,0,0,0,4.23-1.92l.21,1.64h1.94V96.21l1.51.26Z"/><path d="M1141.09,136l-2.47-.44c-1.29-.22-2.16-.75-2.16-1.86s1-1.66,2.36-1.66a2.49,2.49,0,0,1,2.37,1.31l2.76-1c-.68-1.6-2.57-2.81-5.13-2.81h0c-3.25,0-5.41,1.67-5.41,4.16s1.89,3.81,4,4.19l2.26.4c1.21.21,2,.95,2,1.79,0,1.38-1.27,1.94-2.91,1.94a3.26,3.26,0,0,1-2.89-1.55l-2.8,1c.74,1.79,2.86,3,5.69,3,3.52,0,6-1.66,6-4.43A4,4,0,0,0,1141.09,136Z"/><path d="M1159.94,136l-2.47-.44c-1.29-.22-2.16-.75-2.16-1.86s1-1.66,2.36-1.66a2.48,2.48,0,0,1,2.37,1.31l2.76-1c-.68-1.6-2.57-2.81-5.13-2.81h0c-3.25,0-5.41,1.67-5.41,4.16s1.89,3.81,4,4.19l2.26.4c1.21.21,2,.95,2,1.79,0,1.38-1.27,1.94-2.91,1.94a3.26,3.26,0,0,1-2.89-1.55l-2.79,1c.73,1.79,2.85,3,5.68,3,3.52,0,6-1.66,6-4.43A4,4,0,0,0,1159.94,136Z"/><path d="M1438.64,129.78l-5.25,14.42h2.66l1-2.78h6.52l1,2.78h2.65L1442,129.78Zm-.68,9.15,2.36-6.47,2.35,6.47Z"/><polygon points="1407.6 110.65 1407.6 108.16 1397.06 108.16 1397.06 122.57 1407.6 122.57 1407.6 120.08 1400.11 120.08 1400.11 116.2 1406.49 116.2 1406.49 113.7 1400.11 113.7 1400.11 110.65 1407.6 110.65"/><path d="M1410.09,94l-7.88-1.39-.43,2.45,3.92.7a3.86,3.86,0,0,1-3.92,3c-2.78,0-4.16-1.94-4.16-5s1.38-5,4.16-5a3.71,3.71,0,0,1,3.81,2.65l2.78-1a6.77,6.77,0,0,0-6.59-4.14c-4.16,0-7.21,2.78-7.21,7.49s3,7.49,7.21,7.49a5.6,5.6,0,0,0,4.23-1.92l.2,1.64h1.94V96.21l1.51.26Z"/><path d="M1404.46,136l-2.46-.44c-1.3-.22-2.16-.75-2.16-1.86s1-1.66,2.35-1.66a2.5,2.5,0,0,1,2.38,1.31l2.75-1c-.68-1.6-2.56-2.81-5.13-2.81h0c-3.25,0-5.4,1.67-5.4,4.16s1.89,3.81,4,4.19l2.26.4c1.2.21,2,.95,2,1.79,0,1.38-1.26,1.94-2.91,1.94a3.27,3.27,0,0,1-2.89-1.55l-2.79,1c.73,1.79,2.86,3,5.68,3,3.52,0,6-1.66,6-4.43A4,4,0,0,0,1404.46,136Z"/><path d="M1423.31,136l-2.46-.44c-1.29-.22-2.16-.75-2.16-1.86s1-1.66,2.35-1.66a2.5,2.5,0,0,1,2.38,1.31l2.75-1c-.68-1.6-2.56-2.81-5.13-2.81h0c-3.25,0-5.4,1.67-5.4,4.16s1.89,3.81,4,4.19l2.26.4c1.21.21,2,.95,2,1.79,0,1.38-1.26,1.94-2.91,1.94a3.27,3.27,0,0,1-2.89-1.55l-2.79,1c.73,1.79,2.86,3,5.68,3,3.53,0,6-1.66,6-4.43A4,4,0,0,0,1423.31,136Z"/><path d="M1702,129.78l-5.24,14.42h2.65l1-2.78H1707l1,2.78h2.66l-5.25-14.42Zm-.67,9.15,2.35-6.47,2.35,6.47Z"/><polygon points="1670.97 110.65 1670.97 108.16 1660.44 108.16 1660.44 122.57 1670.97 122.57 1670.97 120.08 1663.49 120.08 1663.49 116.2 1669.86 116.2 1669.86 113.7 1663.49 113.7 1663.49 110.65 1670.97 110.65"/><path d="M1673.47,94l-7.89-1.39-.43,2.45,3.92.7a3.85,3.85,0,0,1-3.92,3c-2.77,0-4.16-1.94-4.16-5s1.39-5,4.16-5A3.71,3.71,0,0,1,1669,91.4l2.78-1a6.76,6.76,0,0,0-6.59-4.14c-4.16,0-7.21,2.78-7.21,7.49s3,7.49,7.21,7.49a5.57,5.57,0,0,0,4.23-1.92l.21,1.64h1.94V96.21l1.5.26Z"/><path d="M1667.83,136l-2.46-.44c-1.29-.22-2.16-.75-2.16-1.86s1-1.66,2.36-1.66a2.5,2.5,0,0,1,2.37,1.31l2.75-1c-.68-1.6-2.56-2.81-5.12-2.81h0c-3.25,0-5.41,1.67-5.41,4.16s1.89,3.81,4,4.19l2.26.4c1.21.21,2,.95,2,1.79,0,1.38-1.27,1.94-2.91,1.94a3.26,3.26,0,0,1-2.89-1.55l-2.8,1c.74,1.79,2.86,3,5.69,3,3.52,0,6-1.66,6-4.43A4,4,0,0,0,1667.83,136Z"/><path d="M1686.69,136l-2.47-.44c-1.29-.22-2.16-.75-2.16-1.86s1-1.66,2.36-1.66a2.49,2.49,0,0,1,2.37,1.31l2.76-1c-.68-1.6-2.57-2.81-5.13-2.81h0c-3.25,0-5.41,1.67-5.41,4.16s1.89,3.81,4,4.19l2.26.4c1.21.21,2,.95,2,1.79,0,1.38-1.27,1.94-2.91,1.94a3.26,3.26,0,0,1-2.89-1.55l-2.79,1c.73,1.79,2.85,3,5.68,3,3.52,0,6-1.66,6-4.43A4,4,0,0,0,1686.69,136Z"/></g></svg>