<svg xmlns="http://www.w3.org/2000/svg" viewBox="0 0 1920 1080"><defs><style>.cls-1{fill:#b8b8b8;}</style></defs><g id="Layer_2" data-name="Layer 2"><rect class="cls-1" width="1920" height="1080"/></g><g id="Layer_1" data-name="Layer 1"><polygon points="1084.09 748.87 1033.62 748.87 1033.62 693.48 1036.46 693.48 1036.46 746.04 1084.09 746.04 1084.09 748.87"/><polygon points="207.48 972.6 157.01 972.6 157.01 917.22 159.85 917.22 159.85 969.77 207.48 969.77 207.48 972.6"/><polygon points="172.03 541.42 121.57 541.42 121.57 486.03 124.4 486.03 124.4 538.58 172.03 538.58 172.03 541.42"/><polygon points="581.51 555.1 307.38 555.1 307.38 253.59 310.22 253.59 310.22 552.27 581.51 552.27 581.51 555.1"/><polygon points="1551.31 405.06 1500.85 405.06 1500.85 349.67 1503.69 349.67 1503.69 402.22 1551.31 402.22 1551.31 405.06"/><polygon points="1169.54 694.9 1051.33 694.9 1051.33 564.96 1054.16 564.96 1054.16 692.07 1169.54 692.07 1169.54 694.9"/><polygon points="1754.99 206.05 1636.78 206.05 1636.78 76.11 1639.61 76.11 1639.61 203.22 1754.99 203.22 1754.99 206.05"/><polygon points="658.5 342.4 608.03 342.4 608.03 287.01 610.87 287.01 610.87 339.57 658.5 339.57 658.5 342.4"/><polygon points="838.65 559.39 788.19 559.39 788.19 504 791.02 504 791.02 556.56 838.65 556.56 838.65 559.39"/><polygon points="1575.84 158.11 1525.38 158.11 1525.38 102.72 1528.21 102.72 1528.21 155.27 1575.84 155.27 1575.84 158.11"/><polygon points="1796.05 640.35 1745.59 640.35 1745.59 584.96 1748.42 584.96 1748.42 637.51 1796.05 637.51 1796.05 640.35"/><polygon points="1548.59 739.06 1466.92 739.06 1466.92 649.33 1469.75 649.33 1469.75 736.22 1548.59 736.22 1548.59 739.06"/><polygon points="1033.25 168.77 982.78 168.77 982.78 113.39 985.62 113.39 985.62 165.94 1033.25 165.94 1033.25 168.77"/><polygon points="245.66 115.73 195.19 115.73 195.19 60.35 198.03 60.35 198.03 112.9 245.66 112.9 245.66 115.73"/><polygon points="580.3 887.12 529.84 887.12 529.84 831.73 532.67 831.73 532.67 884.29 580.3 884.29 580.3 887.12"/><polygon points="1692.01 860.14 1641.55 860.14 1641.55 804.75 1644.38 804.75 1644.38 857.3 1692.01 857.3 1692.01 860.14"/><polygon points="760.39 541.42 709.93 541.42 709.93 486.03 712.76 486.03 712.76 538.58 760.39 538.58 760.39 541.42"/><polygon points="527.55 640.35 477.08 640.35 477.08 584.96 479.92 584.96 479.92 637.51 527.55 637.51 527.55 640.35"/><polygon points="1135.66 972.6 1085.2 972.6 1085.2 917.22 1088.04 917.22 1088.04 969.77 1135.66 969.77 1135.66 972.6"/><polygon points="790.36 586.38 739.9 586.38 739.9 530.99 742.73 530.99 742.73 583.54 790.36 583.54 790.36 586.38"/></g></svg>