<svg xmlns="http://www.w3.org/2000/svg" xmlns:xlink="http://www.w3.org/1999/xlink" viewBox="0 0 1920 1080"><defs><style>.cls-1,.cls-10,.cls-11,.cls-12,.cls-13,.cls-4,.cls-5,.cls-6,.cls-7,.cls-8,.cls-9{fill:none;}.cls-2{fill:#b8b8b8;}.cls-3{clip-path:url(#clip-path);}.cls-10,.cls-11,.cls-12,.cls-13,.cls-4,.cls-5,.cls-6,.cls-7,.cls-8,.cls-9{stroke:#000;stroke-miterlimit:10;}.cls-4{stroke-width:2px;}.cls-6{stroke-width:6px;}.cls-7{stroke-width:7px;}.cls-8{stroke-width:10px;}.cls-9{stroke-width:9px;}.cls-10{stroke-width:8px;}.cls-11{stroke-width:5px;}.cls-12{stroke-width:4px;}.cls-13{stroke-width:3px;}</style><clipPath id="clip-path"><rect class="cls-1" width="1920" height="1080"/></clipPath></defs><g id="Layer_2" data-name="Layer 2"><rect class="cls-2" width="1920" height="1080"/></g><g id="Layer_1" data-name="Layer 1"><g class="cls-3"><polyline class="cls-4" points="-48.67 81.25 -48.67 135.22 0.37 135.22"/><polyline class="cls-5" points="0.37 27.28 0.37 81.25 49.42 81.25"/><polyline class="cls-6" points="-24.15 243.16 -24.15 297.13 24.9 297.13"/><polyline class="cls-7" points="24.9 189.19 24.9 243.16 73.94 243.16"/><polyline class="cls-8" points="172.03 27.28 172.03 81.25 221.08 81.25"/><polyline class="cls-9" points="221.08 -26.69 221.08 27.28 270.12 27.28"/><polyline class="cls-10" points="73.94 135.22 73.94 189.19 122.99 189.19"/><polyline class="cls-9" points="122.99 81.25 122.99 135.22 172.03 135.22"/><polyline class="cls-9" points="-48.67 459.05 -48.67 513.01 0.37 513.01"/><polyline class="cls-10" points="0.37 405.07 0.37 459.05 49.42 459.05"/><polyline class="cls-7" points="49.42 351.11 49.42 405.07 98.46 405.07"/><polyline class="cls-6" points="98.46 297.13 98.46 351.11 147.51 351.11"/><polyline class="cls-11" points="147.51 243.16 147.51 297.13 196.56 297.13"/><polyline class="cls-12" points="196.56 189.19 196.56 243.16 245.6 243.16"/><polyline class="cls-13" points="245.6 135.22 245.6 189.19 294.64 189.19"/><polyline class="cls-4" points="294.64 81.25 294.64 135.22 343.69 135.22"/><polyline class="cls-5" points="343.69 27.28 343.69 81.25 392.74 81.25"/><polyline class="cls-4" points="122.99 459.05 122.99 513.01 172.03 513.01"/><polyline class="cls-13" points="172.03 405.07 172.03 459.05 221.08 459.05"/><polyline class="cls-12" points="221.08 351.11 221.08 405.07 270.12 405.07"/><polyline class="cls-11" points="270.12 297.13 270.12 351.11 319.17 351.11"/><polyline class="cls-6" points="319.17 243.16 319.17 297.13 368.21 297.13"/><polyline class="cls-7" points="368.21 189.19 368.21 243.16 417.26 243.16"/><polyline class="cls-8" points="515.35 27.28 515.35 81.25 564.39 81.25"/><polyline class="cls-9" points="564.39 -26.69 564.39 27.28 613.44 27.28"/><polyline class="cls-10" points="417.26 135.22 417.26 189.19 466.3 189.19"/><polyline class="cls-9" points="466.3 81.25 466.3 135.22 515.35 135.22"/><polyline class="cls-13" points="-24.15 620.96 -24.15 674.92 24.9 674.92"/><polyline class="cls-4" points="24.9 566.99 24.9 620.96 73.94 620.96"/><polyline class="cls-5" points="73.94 513.01 73.94 566.99 122.99 566.99"/><polyline class="cls-12" points="-48.67 836.84 -48.67 890.81 0.37 890.81"/><polyline class="cls-11" points="0.37 782.87 0.37 836.84 49.42 836.84"/><polyline class="cls-6" points="49.42 728.89 49.42 782.87 98.46 782.87"/><polyline class="cls-7" points="98.46 674.92 98.46 728.89 147.51 728.89"/><polyline class="cls-8" points="245.6 513.01 245.6 566.99 294.64 566.99"/><polyline class="cls-9" points="294.64 459.05 294.64 513.01 343.69 513.01"/><polyline class="cls-10" points="147.51 620.96 147.51 674.92 196.56 674.92"/><polyline class="cls-9" points="196.56 566.99 196.56 620.96 245.6 620.96"/><polyline class="cls-10" points="343.69 405.07 343.69 459.05 392.74 459.05"/><polyline class="cls-7" points="392.74 351.11 392.74 405.07 441.78 405.07"/><polyline class="cls-6" points="441.78 297.13 441.78 351.11 490.83 351.11"/><polyline class="cls-11" points="490.83 243.16 490.83 297.13 539.87 297.13"/><polyline class="cls-12" points="539.87 189.19 539.87 243.16 588.92 243.16"/><polyline class="cls-13" points="588.92 135.22 588.92 189.19 637.96 189.19"/><polyline class="cls-4" points="637.96 81.25 637.96 135.22 687.01 135.22"/><polyline class="cls-5" points="687.01 27.28 687.01 81.25 736.05 81.25"/><polyline class="cls-4" points="466.3 459.05 466.3 513.01 515.35 513.01"/><polyline class="cls-13" points="515.35 405.07 515.35 459.05 564.39 459.05"/><polyline class="cls-12" points="564.39 351.11 564.39 405.07 613.44 405.07"/><polyline class="cls-11" points="613.44 297.13 613.44 351.11 662.49 351.11"/><polyline class="cls-6" points="662.49 243.16 662.49 297.13 711.53 297.13"/><polyline class="cls-7" points="711.53 189.19 711.53 243.16 760.58 243.16"/><polyline class="cls-8" points="858.67 27.28 858.67 81.25 907.71 81.25"/><polyline class="cls-9" points="907.71 -26.69 907.71 27.28 956.76 27.28"/><polyline class="cls-10" points="760.58 135.22 760.58 189.19 809.62 189.19"/><polyline class="cls-9" points="809.62 81.25 809.62 135.22 858.67 135.22"/><polyline class="cls-8" points="-24.15 998.75 -24.15 1052.72 24.9 1052.72"/><polyline class="cls-9" points="24.9 944.78 24.9 998.75 73.94 998.75"/><polyline class="cls-10" points="73.94 890.81 73.94 944.78 122.99 944.78"/><polyline class="cls-7" points="122.99 836.84 122.99 890.81 172.03 890.81"/><polyline class="cls-6" points="172.03 782.87 172.03 836.84 221.08 836.84"/><polyline class="cls-11" points="221.08 728.89 221.08 782.87 270.12 782.87"/><polyline class="cls-12" points="270.12 674.92 270.12 728.89 319.17 728.89"/><polyline class="cls-13" points="319.17 620.96 319.17 674.92 368.21 674.92"/><polyline class="cls-4" points="368.21 566.99 368.21 620.96 417.26 620.96"/><polyline class="cls-5" points="417.26 513.01 417.26 566.99 466.3 566.99"/><polyline class="cls-5" points="147.51 998.75 147.51 1052.72 196.56 1052.72"/><polyline class="cls-4" points="196.56 944.78 196.56 998.75 245.6 998.75"/><polyline class="cls-13" points="245.6 890.81 245.6 944.78 294.64 944.78"/><polyline class="cls-12" points="294.64 836.84 294.64 890.81 343.69 890.81"/><polyline class="cls-11" points="343.69 782.87 343.69 836.84 392.74 836.84"/><polyline class="cls-6" points="392.74 728.89 392.74 782.87 441.78 782.87"/><polyline class="cls-7" points="441.78 674.92 441.78 728.89 490.83 728.89"/><polyline class="cls-8" points="588.92 513.01 588.92 566.99 637.96 566.99"/><polyline class="cls-9" points="637.96 459.05 637.96 513.01 687.01 513.01"/><polyline class="cls-10" points="490.83 620.96 490.83 674.92 539.87 674.92"/><polyline class="cls-9" points="539.87 566.99 539.87 620.96 588.92 620.96"/><polyline class="cls-10" points="687.01 405.07 687.01 459.05 736.05 459.05"/><polyline class="cls-7" points="736.05 351.11 736.05 405.07 785.1 405.07"/><polyline class="cls-6" points="785.1 297.13 785.1 351.11 834.14 351.11"/><polyline class="cls-11" points="834.14 243.16 834.14 297.13 883.19 297.13"/><polyline class="cls-12" points="883.19 189.19 883.19 243.16 932.24 243.16"/><polyline class="cls-13" points="932.24 135.22 932.24 189.19 981.28 189.19"/><polyline class="cls-4" points="981.28 81.25 981.28 135.22 1030.33 135.22"/><polyline class="cls-5" points="1030.33 27.28 1030.33 81.25 1079.37 81.25"/><polyline class="cls-4" points="809.62 459.05 809.62 513.01 858.67 513.01"/><polyline class="cls-13" points="858.67 405.07 858.67 459.05 907.71 459.05"/><polyline class="cls-12" points="907.71 351.11 907.71 405.07 956.76 405.07"/><polyline class="cls-11" points="956.76 297.13 956.76 351.11 1005.8 351.11"/><polyline class="cls-6" points="1005.8 243.16 1005.8 297.13 1054.85 297.13"/><polyline class="cls-7" points="1054.85 189.19 1054.85 243.16 1103.89 243.16"/><polyline class="cls-8" points="1201.98 27.28 1201.98 81.25 1251.03 81.25"/><polyline class="cls-9" points="1251.03 -26.69 1251.03 27.28 1300.08 27.28"/><polyline class="cls-10" points="1103.89 135.22 1103.89 189.19 1152.94 189.19"/><polyline class="cls-9" points="1152.94 81.25 1152.94 135.22 1201.98 135.22"/><polyline class="cls-8" points="319.17 998.75 319.17 1052.72 368.21 1052.72"/><polyline class="cls-9" points="368.21 944.78 368.21 998.75 417.26 998.75"/><polyline class="cls-9" points="270.12 1052.72 270.12 1106.69 319.17 1106.69"/><polyline class="cls-10" points="417.26 890.81 417.26 944.78 466.3 944.78"/><polyline class="cls-7" points="466.3 836.84 466.3 890.81 515.35 890.81"/><polyline class="cls-6" points="515.35 782.87 515.35 836.84 564.39 836.84"/><polyline class="cls-11" points="564.39 728.89 564.39 782.87 613.44 782.87"/><polyline class="cls-12" points="613.44 674.92 613.44 728.89 662.49 728.89"/><polyline class="cls-13" points="662.49 620.96 662.49 674.92 711.53 674.92"/><polyline class="cls-4" points="711.53 566.99 711.53 620.96 760.58 620.96"/><polyline class="cls-5" points="760.58 513.01 760.58 566.99 809.62 566.99"/><polyline class="cls-5" points="490.83 998.75 490.83 1052.72 539.87 1052.72"/><polyline class="cls-4" points="539.87 944.78 539.87 998.75 588.92 998.75"/><polyline class="cls-13" points="588.92 890.81 588.92 944.78 637.96 944.78"/><polyline class="cls-12" points="637.96 836.84 637.96 890.81 687.01 890.81"/><polyline class="cls-11" points="687.01 782.87 687.01 836.84 736.05 836.84"/><polyline class="cls-6" points="736.05 728.89 736.05 782.87 785.1 782.87"/><polyline class="cls-7" points="785.1 674.92 785.1 728.89 834.14 728.89"/><polyline class="cls-8" points="932.24 513.01 932.24 566.99 981.28 566.99"/><polyline class="cls-9" points="981.28 459.05 981.28 513.01 1030.33 513.01"/><polyline class="cls-10" points="834.14 620.96 834.14 674.92 883.19 674.92"/><polyline class="cls-9" points="883.19 566.99 883.19 620.96 932.24 620.96"/><polyline class="cls-10" points="1030.33 405.07 1030.33 459.05 1079.37 459.05"/><polyline class="cls-7" points="1079.37 351.11 1079.37 405.07 1128.42 405.07"/><polyline class="cls-6" points="1128.42 297.13 1128.42 351.11 1177.46 351.11"/><polyline class="cls-11" points="1177.46 243.16 1177.46 297.13 1226.51 297.13"/><polyline class="cls-12" points="1226.51 189.19 1226.51 243.16 1275.55 243.16"/><polyline class="cls-13" points="1275.55 135.22 1275.55 189.19 1324.6 189.19"/><polyline class="cls-4" points="1324.6 81.25 1324.6 135.22 1373.64 135.22"/><polyline class="cls-5" points="1373.64 27.28 1373.64 81.25 1422.69 81.25"/><polyline class="cls-4" points="1152.94 459.05 1152.94 513.01 1201.98 513.01"/><polyline class="cls-13" points="1201.98 405.07 1201.98 459.05 1251.03 459.05"/><polyline class="cls-12" points="1251.03 351.11 1251.03 405.07 1300.08 405.07"/><polyline class="cls-11" points="1300.08 297.13 1300.08 351.11 1349.12 351.11"/><polyline class="cls-6" points="1349.12 243.16 1349.12 297.13 1398.17 297.13"/><polyline class="cls-7" points="1398.17 189.19 1398.17 243.16 1447.21 243.16"/><polyline class="cls-8" points="1545.3 27.28 1545.3 81.25 1594.35 81.25"/><polyline class="cls-9" points="1594.35 -26.69 1594.35 27.28 1643.39 27.28"/><polyline class="cls-10" points="1447.21 135.22 1447.21 189.19 1496.26 189.19"/><polyline class="cls-9" points="1496.26 81.25 1496.26 135.22 1545.3 135.22"/><polyline class="cls-8" points="662.49 998.75 662.49 1052.72 711.53 1052.72"/><polyline class="cls-9" points="711.53 944.78 711.53 998.75 760.58 998.75"/><polyline class="cls-9" points="613.44 1052.72 613.44 1106.69 662.49 1106.69"/><polyline class="cls-10" points="760.58 890.81 760.58 944.78 809.62 944.78"/><polyline class="cls-7" points="809.62 836.84 809.62 890.81 858.67 890.81"/><polyline class="cls-6" points="858.67 782.87 858.67 836.84 907.71 836.84"/><polyline class="cls-11" points="907.71 728.89 907.71 782.87 956.76 782.87"/><polyline class="cls-12" points="956.76 674.92 956.76 728.89 1005.8 728.89"/><polyline class="cls-13" points="1005.8 620.96 1005.8 674.92 1054.85 674.92"/><polyline class="cls-4" points="1054.85 566.99 1054.85 620.96 1103.89 620.96"/><polyline class="cls-5" points="1103.89 513.01 1103.89 566.99 1152.94 566.99"/><polyline class="cls-5" points="834.14 998.75 834.14 1052.72 883.19 1052.72"/><polyline class="cls-4" points="883.19 944.78 883.19 998.75 932.24 998.75"/><polyline class="cls-13" points="932.24 890.81 932.24 944.78 981.28 944.78"/><polyline class="cls-12" points="981.28 836.84 981.28 890.81 1030.33 890.81"/><polyline class="cls-11" points="1030.33 782.87 1030.33 836.84 1079.37 836.84"/><polyline class="cls-6" points="1079.37 728.89 1079.37 782.87 1128.42 782.87"/><polyline class="cls-7" points="1128.42 674.92 1128.42 728.89 1177.46 728.89"/><polyline class="cls-8" points="1275.55 513.01 1275.55 566.99 1324.6 566.99"/><polyline class="cls-9" points="1324.6 459.05 1324.6 513.01 1373.64 513.01"/><polyline class="cls-10" points="1177.46 620.96 1177.46 674.92 1226.51 674.92"/><polyline class="cls-9" points="1226.51 566.99 1226.51 620.96 1275.55 620.96"/><polyline class="cls-10" points="1373.64 405.07 1373.64 459.05 1422.69 459.05"/><polyline class="cls-7" points="1422.69 351.11 1422.69 405.07 1471.73 405.07"/><polyline class="cls-6" points="1471.73 297.13 1471.73 351.11 1520.78 351.11"/><polyline class="cls-11" points="1520.78 243.16 1520.78 297.13 1569.83 297.13"/><polyline class="cls-12" points="1569.83 189.19 1569.83 243.16 1618.87 243.16"/><polyline class="cls-13" points="1618.87 135.22 1618.87 189.19 1667.91 189.19"/><polyline class="cls-4" points="1667.91 81.25 1667.91 135.22 1716.96 135.22"/><polyline class="cls-5" points="1716.96 27.28 1716.96 81.25 1766.01 81.25"/><polyline class="cls-4" points="1496.26 459.05 1496.26 513.01 1545.3 513.01"/><polyline class="cls-13" points="1545.3 405.07 1545.3 459.05 1594.35 459.05"/><polyline class="cls-12" points="1594.35 351.11 1594.35 405.07 1643.39 405.07"/><polyline class="cls-11" points="1643.39 297.13 1643.39 351.11 1692.44 351.11"/><polyline class="cls-6" points="1692.44 243.16 1692.44 297.13 1741.48 297.13"/><polyline class="cls-7" points="1741.48 189.19 1741.48 243.16 1790.53 243.16"/><polyline class="cls-8" points="1888.62 27.28 1888.62 81.25 1937.66 81.25"/><polyline class="cls-10" points="1790.53 135.22 1790.53 189.19 1839.57 189.19"/><polyline class="cls-9" points="1839.57 81.25 1839.57 135.22 1888.62 135.22"/><polyline class="cls-8" points="1005.8 998.75 1005.8 1052.72 1054.85 1052.72"/><polyline class="cls-9" points="1054.85 944.78 1054.85 998.75 1103.89 998.75"/><polyline class="cls-9" points="956.76 1052.72 956.76 1106.69 1005.8 1106.69"/><polyline class="cls-10" points="1103.89 890.81 1103.89 944.78 1152.94 944.78"/><polyline class="cls-7" points="1152.94 836.84 1152.94 890.81 1201.98 890.81"/><polyline class="cls-6" points="1201.98 782.87 1201.98 836.84 1251.03 836.84"/><polyline class="cls-11" points="1251.03 728.89 1251.03 782.87 1300.08 782.87"/><polyline class="cls-12" points="1300.08 674.92 1300.08 728.89 1349.12 728.89"/><polyline class="cls-13" points="1349.12 620.96 1349.12 674.92 1398.17 674.92"/><polyline class="cls-4" points="1398.17 566.99 1398.17 620.96 1447.21 620.96"/><polyline class="cls-5" points="1447.21 513.01 1447.21 566.99 1496.26 566.99"/><polyline class="cls-5" points="1177.46 998.75 1177.46 1052.72 1226.51 1052.72"/><polyline class="cls-4" points="1226.51 944.78 1226.51 998.75 1275.55 998.75"/><polyline class="cls-13" points="1275.55 890.81 1275.55 944.78 1324.6 944.78"/><polyline class="cls-12" points="1324.6 836.84 1324.6 890.81 1373.64 890.81"/><polyline class="cls-11" points="1373.64 782.87 1373.64 836.84 1422.69 836.84"/><polyline class="cls-6" points="1422.69 728.89 1422.69 782.87 1471.73 782.87"/><polyline class="cls-7" points="1471.73 674.92 1471.73 728.89 1520.78 728.89"/><polyline class="cls-8" points="1618.87 513.01 1618.87 566.99 1667.91 566.99"/><polyline class="cls-9" points="1667.91 459.05 1667.91 513.01 1716.96 513.01"/><polyline class="cls-10" points="1520.78 620.96 1520.78 674.92 1569.83 674.92"/><polyline class="cls-9" points="1569.83 566.99 1569.83 620.96 1618.87 620.96"/><polyline class="cls-10" points="1716.96 405.07 1716.96 459.05 1766.01 459.05"/><polyline class="cls-7" points="1766.01 351.11 1766.01 405.07 1815.05 405.07"/><polyline class="cls-6" points="1815.05 297.13 1815.05 351.11 1864.1 351.11"/><polyline class="cls-11" points="1864.1 243.16 1864.1 297.13 1913.14 297.13"/><polyline class="cls-12" points="1913.14 189.19 1913.14 243.16 1962.19 243.16"/><polyline class="cls-4" points="1839.57 459.05 1839.57 513.01 1888.62 513.01"/><polyline class="cls-13" points="1888.62 405.07 1888.62 459.05 1937.66 459.05"/><polyline class="cls-8" points="1349.12 998.75 1349.12 1052.72 1398.17 1052.72"/><polyline class="cls-9" points="1398.17 944.78 1398.17 998.75 1447.21 998.75"/><polyline class="cls-9" points="1300.08 1052.72 1300.08 1106.69 1349.12 1106.69"/><polyline class="cls-10" points="1447.21 890.81 1447.21 944.78 1496.26 944.78"/><polyline class="cls-7" points="1496.26 836.84 1496.26 890.81 1545.3 890.81"/><polyline class="cls-6" points="1545.3 782.87 1545.3 836.84 1594.35 836.84"/><polyline class="cls-11" points="1594.35 728.89 1594.35 782.87 1643.39 782.87"/><polyline class="cls-12" points="1643.39 674.92 1643.39 728.89 1692.44 728.89"/><polyline class="cls-13" points="1692.44 620.96 1692.44 674.92 1741.48 674.92"/><polyline class="cls-4" points="1741.48 566.99 1741.48 620.96 1790.53 620.96"/><polyline class="cls-5" points="1790.53 513.01 1790.53 566.99 1839.57 566.99"/><polyline class="cls-5" points="1520.78 998.75 1520.78 1052.72 1569.83 1052.72"/><polyline class="cls-4" points="1569.83 944.78 1569.83 998.75 1618.87 998.75"/><polyline class="cls-13" points="1618.87 890.81 1618.87 944.78 1667.91 944.78"/><polyline class="cls-12" points="1667.91 836.84 1667.91 890.81 1716.96 890.81"/><polyline class="cls-11" points="1716.96 782.87 1716.96 836.84 1766.01 836.84"/><polyline class="cls-6" points="1766.01 728.89 1766.01 782.87 1815.05 782.87"/><polyline class="cls-7" points="1815.05 674.92 1815.05 728.89 1864.1 728.89"/><polyline class="cls-10" points="1864.1 620.96 1864.1 674.92 1913.14 674.92"/><polyline class="cls-9" points="1913.14 566.99 1913.14 620.96 1962.19 620.96"/><polyline class="cls-8" points="1692.44 998.75 1692.44 1052.72 1741.48 1052.72"/><polyline class="cls-9" points="1741.48 944.78 1741.48 998.75 1790.53 998.75"/><polyline class="cls-9" points="1643.39 1052.72 1643.39 1106.69 1692.44 1106.69"/><polyline class="cls-10" points="1790.53 890.81 1790.53 944.78 1839.57 944.78"/><polyline class="cls-7" points="1839.57 836.84 1839.57 890.81 1888.62 890.81"/><polyline class="cls-6" points="1888.62 782.87 1888.62 836.84 1937.66 836.84"/><polyline class="cls-5" points="1864.1 998.75 1864.1 1052.72 1913.14 1052.72"/><polyline class="cls-4" points="1913.14 944.78 1913.14 998.75 1962.19 998.75"/></g></g></svg>