<svg xmlns="http://www.w3.org/2000/svg" viewBox="0 0 1920 1080"><defs><style>.cls-1{fill:#fff;}.cls-2{fill:#d8d8d8;}.cls-3{fill:#b8b8b8;}.cls-4{fill:#20221d;}.cls-5{fill:none;}</style></defs><g id="Layer_2" data-name="Layer 2"><rect class="cls-1" width="1920" height="1080"/></g><g id="Layer_1" data-name="Layer 1"><rect class="cls-2" x="531.61" y="337.63" width="866.41" height="414.37"/><rect class="cls-3" x="521.98" y="328" width="866.41" height="414.37"/><path class="cls-4" d="M664,658l-10.2,28h5.16l2-5.39h12.67l2,5.39h5.16l-10.2-28Zm-1.32,17.77,4.57-12.55,4.58,12.55Z"/><polygon class="cls-4" points="603.67 620.8 603.67 615.96 583.21 615.96 583.21 643.96 603.67 643.96 603.67 639.11 589.13 639.11 589.13 631.58 601.51 631.58 601.51 626.73 589.13 626.73 589.13 620.8 603.67 620.8"/><path class="cls-4" d="M608.52,588.49l-15.32-2.7-.84,4.78,7.62,1.34a7.5,7.5,0,0,1-7.62,5.74c-5.38,0-8.08-3.77-8.08-9.69s2.7-9.7,8.08-9.7a7.21,7.21,0,0,1,7.4,5.15l5.4-2c-2.13-5.14-6.88-8-12.8-8-8.08,0-14,5.38-14,14.54s5.92,14.54,14,14.54a10.85,10.85,0,0,0,8.22-3.72L601,602h3.78v-9.21l2.92.52Z"/><path class="cls-4" d="M597.57,670l-4.78-.84c-2.51-.44-4.2-1.46-4.2-3.62s2-3.23,4.58-3.23c2.25,0,4.13,1.2,4.61,2.56l5.35-2c-1.32-3.11-5-5.46-10-5.46h0c-6.32,0-10.5,3.24-10.5,8.08s3.67,7.4,7.83,8.14l4.39.77c2.34.41,3.93,1.84,3.93,3.48,0,2.69-2.45,3.77-5.65,3.77-2.68,0-5-1.56-5.62-3l-5.42,2c1.42,3.46,5.55,5.88,11,5.88,6.84,0,11.58-3.23,11.58-8.61C604.75,673.58,601.92,670.73,597.57,670Z"/><path class="cls-4" d="M634.19,670l-4.79-.84c-2.5-.44-4.19-1.46-4.19-3.62s2-3.23,4.58-3.23c2.24,0,4.13,1.2,4.61,2.56l5.35-2c-1.32-3.11-5-5.46-10-5.46h0c-6.32,0-10.51,3.24-10.51,8.08s3.68,7.4,7.83,8.14l4.39.77c2.35.41,3.94,1.84,3.94,3.48,0,2.69-2.46,3.77-5.65,3.77-2.69,0-5-1.56-5.62-3l-5.42,2c1.42,3.46,5.55,5.88,11,5.88,6.84,0,11.57-3.23,11.57-8.61C641.36,673.58,638.53,670.73,634.19,670Z"/><path class="cls-4" d="M797.56,384.25a3.35,3.35,0,0,1,2.66,1.11,4.53,4.53,0,0,1,0,5.68,3.35,3.35,0,0,1-2.66,1.11A3.41,3.41,0,0,1,794.9,391a4.48,4.48,0,0,1,0-5.67A3.41,3.41,0,0,1,797.56,384.25Zm1.72,1.89a2.29,2.29,0,0,0-3.44,0,3.59,3.59,0,0,0,0,4.12,2.29,2.29,0,0,0,3.44,0,3.59,3.59,0,0,0,0-4.12Z"/><path class="cls-4" d="M804.75,385.26a.73.73,0,0,0-.55.19.91.91,0,0,0-.17.63v.55h1v.89h-1V392h-1.17v-4.45h-1v-.89h1V386a1.74,1.74,0,0,1,.43-1.28,1.72,1.72,0,0,1,1.25-.43,3.17,3.17,0,0,1,1.11.2l-.22.88A2.47,2.47,0,0,0,804.75,385.26Zm3.52,0a.67.67,0,0,0-.54.18,1,1,0,0,0-.15.63v.55h1.24v.89h-1.24V392h-1.17v-4.45h-.86v-.89h.86V386q0-1.71,1.62-1.71a3.57,3.57,0,0,1,.91.13l-.15.91A3.16,3.16,0,0,0,808.27,385.27Zm1.36-.76h1.17v1.2h-1.17Zm0,7.46v-5.34h1.17V392Z"/><path class="cls-4" d="M816.69,387.49l-.75.71a2.69,2.69,0,0,0-.73-.59,1.73,1.73,0,0,0-.72-.16,1.27,1.27,0,0,0-1.1.54,2.14,2.14,0,0,0-.39,1.31,2.08,2.08,0,0,0,.4,1.32,1.3,1.3,0,0,0,1.09.51,1.6,1.6,0,0,0,.75-.18,3.52,3.52,0,0,0,.77-.67l.76.65a3.17,3.17,0,0,1-1,.93,2.7,2.7,0,0,1-1.24.27,2.52,2.52,0,0,1-1.94-.77,3.25,3.25,0,0,1,0-4.12,2.58,2.58,0,0,1,2-.78,2.7,2.7,0,0,1,1.18.24A3.18,3.18,0,0,1,816.69,387.49Z"/><path class="cls-4" d="M821.59,390.35l.67.71a3.63,3.63,0,0,1-1.12.82,2.92,2.92,0,0,1-1.24.25,2.65,2.65,0,0,1-2-.76,2.82,2.82,0,0,1-.74-2,3,3,0,0,1,.72-2.07,2.4,2.4,0,0,1,1.9-.81,2.36,2.36,0,0,1,1.82.7,2.73,2.73,0,0,1,.64,1.93,4.19,4.19,0,0,1,0,.48h-3.91a1.83,1.83,0,0,0,.47,1.15,1.54,1.54,0,0,0,1.13.43,1.69,1.69,0,0,0,.82-.18A3.81,3.81,0,0,0,821.59,390.35Zm-1.83-3a1.28,1.28,0,0,0-.93.35,1.75,1.75,0,0,0-.48,1h2.75a1.38,1.38,0,0,0-.38-1A1.27,1.27,0,0,0,819.76,387.39Z"/><path class="cls-4" d="M831.17,384.42h.73V392H831l-2.38-3.6c-.78-1.19-1.44-2.2-2-3,0,.74,0,1.7,0,2.88V392H826v-7.55h.86l2.37,3.6.41.62q1.07,1.64,1.56,2.43c0-.74,0-1.7,0-2.88Z"/><path class="cls-4" d="M835.72,386.7a2.33,2.33,0,0,1,1.8.75,3.11,3.11,0,0,1,0,3.91,2.52,2.52,0,0,1-3.59,0,3.11,3.11,0,0,1,0-3.91A2.33,2.33,0,0,1,835.72,386.7Zm1.28,1.16a1.68,1.68,0,0,0-2.56,0,2.39,2.39,0,0,0-.47,1.55,2.35,2.35,0,0,0,.48,1.53,1.67,1.67,0,0,0,2.55,0,2.3,2.3,0,0,0,.49-1.53A2.34,2.34,0,0,0,837,387.86Z"/><path class="cls-4" d="M840.06,391v1h-.89v-1Z"/><path class="cls-4" d="M847.84,389.62H849v.61h-1.12V392h-.7v-1.74h-3.76v-.63l3.1-4.86h.81l-3.12,4.88h3V387.9h.7Z"/><path class="cls-4" d="M851.62,384.74h.53V392h-.72v-6.3l-1.67,1.19-.35-.5Z"/><path class="cls-4" d="M856.84,384.58a2.44,2.44,0,0,1,1.91.78,2.88,2.88,0,0,1,.7,2,4.08,4.08,0,0,1-.56,2.08,9,9,0,0,1-1.71,2l-.55.52h-1l1.11-1a7,7,0,0,0,1.77-2.27,2.33,2.33,0,0,1-1.85.77,2.27,2.27,0,0,1-1.74-.7,2.43,2.43,0,0,1-.68-1.72,2.38,2.38,0,0,1,.71-1.73A2.49,2.49,0,0,1,856.84,384.58Zm-.05,4.26a1.86,1.86,0,0,0,1.38-.52,1.74,1.74,0,0,0,.52-1.3,1.75,1.75,0,0,0-1.85-1.82,1.88,1.88,0,0,0-1.35,3.13A1.69,1.69,0,0,0,856.79,388.84Z"/><path class="cls-4" d="M861.56,391v1L861,393.2h-.44l.5-1.23h-.45v-1Z"/><path class="cls-4" d="M870.2,392l-.77-2.11H866l-.76,2.11h-.76l2.75-7.55h1L871,392Zm-4-2.75h3l-.37-1-.16-.43c-.48-1.36-.8-2.29-1-2.78-.16.54-.49,1.49-1,2.86l-.12.35Z"/><path class="cls-4" d="M874.35,384.26a4,4,0,0,1,1.46.26,4.53,4.53,0,0,1,1.32.82l-.44.52a4,4,0,0,0-1.13-.73,3.16,3.16,0,0,0-1.2-.22,2.3,2.3,0,0,0-1.36.38,1.18,1.18,0,0,0-.52,1c0,.51.3.87.91,1.09.34.11.75.22,1.26.34a5.18,5.18,0,0,1,2,.81,1.67,1.67,0,0,1,.57,1.35,2.05,2.05,0,0,1-.75,1.65,2.93,2.93,0,0,1-1.94.62,4,4,0,0,1-1.59-.29,5.9,5.9,0,0,1-1.52-1l.44-.53a5.31,5.31,0,0,0,1.43.9,3.15,3.15,0,0,0,1.24.24,2.18,2.18,0,0,0,1.41-.44,1.42,1.42,0,0,0,.54-1.17,1.23,1.23,0,0,0-1-1.21,8.34,8.34,0,0,0-1.25-.34,5.32,5.32,0,0,1-2-.74,1.67,1.67,0,0,1-.56-1.3,1.72,1.72,0,0,1,.76-1.46A3,3,0,0,1,874.35,384.26Z"/><path class="cls-4" d="M878.65,384.42h3.07a2.57,2.57,0,0,1,1.77.58,2.31,2.31,0,0,1,0,3.25,2.57,2.57,0,0,1-1.77.59H879.4V392h-.75Zm3,.63H879.4v3.16h2.23a2,2,0,0,0,1.31-.41,1.46,1.46,0,0,0,.47-1.18,1.43,1.43,0,0,0-.47-1.16A2,2,0,0,0,881.63,385.05Z"/><path class="cls-4" d="M891,384.26a3.46,3.46,0,0,1,1.3.24,4.93,4.93,0,0,1,1.28.82l-.42.51a3.49,3.49,0,0,0-2.16-.92,2.53,2.53,0,0,0-2,.92,4,4,0,0,0,0,4.73,2.41,2.41,0,0,0,2,.93,2.36,2.36,0,0,0,1.17-.28,5.36,5.36,0,0,0,1.18-.91l.47.5a5.35,5.35,0,0,1-1.36,1,3.24,3.24,0,0,1-1.45.29,3.16,3.16,0,0,1-2.54-1.09,4.74,4.74,0,0,1,0-5.69A3.27,3.27,0,0,1,891,384.26Z"/><path class="cls-4" d="M897,386.7a2.33,2.33,0,0,1,1.79.75,3.08,3.08,0,0,1,0,3.91,2.51,2.51,0,0,1-3.58,0,3.11,3.11,0,0,1,0-3.91A2.33,2.33,0,0,1,897,386.7Zm1.28,1.16a1.68,1.68,0,0,0-2.56,0,2.39,2.39,0,0,0-.48,1.55,2.35,2.35,0,0,0,.48,1.53,1.68,1.68,0,0,0,2.56,0,2.35,2.35,0,0,0,.48-1.53A2.39,2.39,0,0,0,898.24,387.86Z"/><path class="cls-4" d="M905.89,386.7a1.59,1.59,0,0,1,1.72,1.69V392h-.71v-3.39c0-.86-.38-1.3-1.14-1.3a1.24,1.24,0,0,0-.94.4,1.53,1.53,0,0,0-.35,1V392h-.71v-3.39c0-.86-.37-1.3-1.13-1.3a1.22,1.22,0,0,0-.89.34,1.37,1.37,0,0,0-.4.88V392h-.7v-5.13h.66v.62a1.62,1.62,0,0,1,1.49-.76,1.51,1.51,0,0,1,1.49.86A1.79,1.79,0,0,1,905.89,386.7Z"/><path class="cls-4" d="M911.6,386.71a2,2,0,0,1,1.62.75,3.28,3.28,0,0,1,0,3.89,2,2,0,0,1-1.62.75,1.94,1.94,0,0,1-1.78-.89v2.68h-.7v-7.05h.66v.86A2,2,0,0,1,911.6,386.71Zm-.07,4.8a1.41,1.41,0,0,0,1.17-.59,2.85,2.85,0,0,0,0-3,1.39,1.39,0,0,0-1.17-.59,1.55,1.55,0,0,0-1.26.57,2.71,2.71,0,0,0,0,3.08A1.57,1.57,0,0,0,911.53,391.51Z"/><path class="cls-4" d="M915.81,384.42V392h-.7v-7.55Z"/><path class="cls-4" d="M921.28,390.59l.44.43a3.45,3.45,0,0,1-1.05.84,2.64,2.64,0,0,1-1.17.25,2.32,2.32,0,0,1-1.8-.73,2.8,2.8,0,0,1-.67-1.94,2.92,2.92,0,0,1,.66-2,2.18,2.18,0,0,1,1.74-.76,2.15,2.15,0,0,1,1.66.66,2.49,2.49,0,0,1,.61,1.77,1.94,1.94,0,0,1,0,.33h-3.93a2.54,2.54,0,0,0,.46,1.47,1.49,1.49,0,0,0,1.29.6,1.9,1.9,0,0,0,.88-.2A4.19,4.19,0,0,0,921.28,390.59Zm-1.85-3.32a1.59,1.59,0,0,0-1.13.43,2,2,0,0,0-.53,1.23H921a1.75,1.75,0,0,0-.44-1.21A1.45,1.45,0,0,0,919.43,387.27Z"/><path class="cls-4" d="M926.76,392H926l-1.49-2.21L923,392h-.78l1.86-2.68-1.72-2.45h.79l1.36,2,1.34-2h.77l-1.7,2.42Z"/><path class="cls-4" d="M799.33,403.94l-2.74-4-1.42,1.46v2.57h-.76v-7.55h.76v4.06l3.93-4.06H800l-2.93,3,3.09,4.55Z"/><path class="cls-4" d="M803,398.67a2.33,2.33,0,0,1,1.8.75,3.11,3.11,0,0,1,0,3.91,2.52,2.52,0,0,1-3.59,0,3.11,3.11,0,0,1,0-3.91A2.33,2.33,0,0,1,803,398.67Zm1.28,1.16a1.68,1.68,0,0,0-2.56,0,2.69,2.69,0,0,0,0,3.08,1.56,1.56,0,0,0,1.27.59,1.58,1.58,0,0,0,1.28-.59,2.71,2.71,0,0,0,0-3.08Z"/><path class="cls-4" d="M808.66,398.75a2.49,2.49,0,0,1,.8.15l-.13.56a2.37,2.37,0,0,0-.67-.1,1.07,1.07,0,0,0-.9.46,2.14,2.14,0,0,0-.34,1.26v2.86h-.7V398.8h.66v.8a1.35,1.35,0,0,1,1.28-.85Z"/><path class="cls-4" d="M813.76,396.39h.7v7.55h-.65v-.87a2,2,0,0,1-1.82,1,2,2,0,0,1-1.63-.75,3.26,3.26,0,0,1,0-3.89,2.07,2.07,0,0,1,1.64-.75,1.91,1.91,0,0,1,1.75.89ZM812,403.48a1.59,1.59,0,0,0,1.27-.57,2.26,2.26,0,0,0,.48-1.53,2.33,2.33,0,0,0-.47-1.55,1.59,1.59,0,0,0-1.28-.57,1.4,1.4,0,0,0-1.16.59,2.86,2.86,0,0,0,0,3A1.4,1.4,0,0,0,812,403.48Z"/><path class="cls-4" d="M819.9,402.56l.45.43a3.64,3.64,0,0,1-1.06.84,2.58,2.58,0,0,1-1.17.25,2.29,2.29,0,0,1-1.79-.73,2.76,2.76,0,0,1-.67-1.94,2.91,2.91,0,0,1,.66-2,2.38,2.38,0,0,1,3.39-.1,2.5,2.5,0,0,1,.62,1.77,2,2,0,0,1,0,.33h-3.93a2.6,2.6,0,0,0,.47,1.47,1.48,1.48,0,0,0,1.28.6,1.76,1.76,0,0,0,.88-.21A3.81,3.81,0,0,0,819.9,402.56Zm-1.85-3.32a1.52,1.52,0,0,0-1.12.43,2,2,0,0,0-.54,1.23h3.23a1.8,1.8,0,0,0-.43-1.21A1.48,1.48,0,0,0,818.05,399.24Z"/><path class="cls-4" d="M823.23,398.67a3.1,3.1,0,0,1,1.1.17,3.64,3.64,0,0,1,1,.56l-.39.48a3.77,3.77,0,0,0-.85-.51,2.46,2.46,0,0,0-.81-.13,1.58,1.58,0,0,0-.91.25.76.76,0,0,0-.34.64c0,.28.2.48.59.61q.21.08.87.24a3.71,3.71,0,0,1,1.49.57,1.14,1.14,0,0,1,.44,1,1.36,1.36,0,0,1-.55,1.13,2.27,2.27,0,0,1-1.45.43,3.16,3.16,0,0,1-1.19-.21,4.38,4.38,0,0,1-1.12-.74l.43-.46a4.18,4.18,0,0,0,1,.65,2.24,2.24,0,0,0,.91.18,1.61,1.61,0,0,0,.94-.26.81.81,0,0,0,.37-.69.69.69,0,0,0-.35-.63,4,4,0,0,0-1.18-.38,4.23,4.23,0,0,1-1.46-.51,1,1,0,0,1-.39-.87,1.31,1.31,0,0,1,.54-1.09A2.25,2.25,0,0,1,823.23,398.67Z"/><path class="cls-4" d="M829.07,403.29l.13.56a2.91,2.91,0,0,1-1,.18,1.31,1.31,0,0,1-1-.3,1.25,1.25,0,0,1-.3-.9v-3.5h-1v-.53h1V397h.7v1.79h1.47v.53h-1.47v3.4a.76.76,0,0,0,.15.54.65.65,0,0,0,.5.16A2.31,2.31,0,0,0,829.07,403.29Z"/><path class="cls-4" d="M832.16,398.67a2.28,2.28,0,0,1,1.49.45,1.49,1.49,0,0,1,.54,1.21v3.61h-.65v-.67a1.93,1.93,0,0,1-1.79.83,2.22,2.22,0,0,1-1.34-.36,1.22,1.22,0,0,1-.5-1.05,1.36,1.36,0,0,1,.61-1.18,6.13,6.13,0,0,1,1.87-.61l1.12-.21v-.31a1.06,1.06,0,0,0-.36-.84,1.45,1.45,0,0,0-1-.3,1.93,1.93,0,0,0-.88.2,3.21,3.21,0,0,0-.85.69l-.45-.4A2.76,2.76,0,0,1,832.16,398.67Zm-.38,4.85a1.9,1.9,0,0,0,1.24-.4,1.26,1.26,0,0,0,.49-1v-.86l-1,.19a6.32,6.32,0,0,0-1.49.46.91.91,0,0,0-.45.79.7.7,0,0,0,.32.61A1.46,1.46,0,0,0,831.78,403.52Z"/><path class="cls-4" d="M838,398.67a1.87,1.87,0,0,1,1.36.48,1.73,1.73,0,0,1,.48,1.27v3.52h-.7v-3.28c0-.94-.44-1.41-1.3-1.41a1.38,1.38,0,0,0-1,.43,1.37,1.37,0,0,0-.43,1v3.23h-.7V398.8h.66v.71A1.79,1.79,0,0,1,838,398.67Z"/><path class="cls-4" d="M849.84,396.39v7.55h-.76v-3.58h-4.36v3.58H844v-7.55h.75v3.34h4.36v-3.34Z"/><path class="cls-4" d="M857.32,398.79H858l-1.46,5.15h-.86l-.52-1.77q-.53-1.83-.69-2.55c-.15.64-.38,1.5-.69,2.57l-.5,1.75h-.85L851,398.79h.72l.56,2c.19.71.4,1.55.62,2.52.26-1,.48-1.84.68-2.52l.59-2h.68l.6,2c.09.32.3,1.08.61,2.26l.07.26q.25-1.12.63-2.52Z"/><path class="cls-4" d="M862.33,398.8H863L861,404.72a3.21,3.21,0,0,1-.55,1,1.39,1.39,0,0,1-.9.28,2.84,2.84,0,0,1-.69-.09l.11-.55a3,3,0,0,0,.54.06.71.71,0,0,0,.52-.19,2.08,2.08,0,0,0,.37-.7l.1-.29-1.93-5.43h.74l.64,1.88.22.63.67,2,.9-2.66Z"/><path class="cls-4" d="M864.16,403v1h-.9v-1Z"/><path class="cls-4" d="M866.39,403v1l-.57,1.23h-.44l.5-1.23h-.45v-1Z"/><path class="cls-4" d="M875.16,396.39V397h-2.43v6.92H872V397h-2.44v-.63Z"/><path class="cls-4" d="M879,402.56l.45.43a3.77,3.77,0,0,1-1.06.84,2.61,2.61,0,0,1-1.17.25,2.32,2.32,0,0,1-1.8-.73,2.8,2.8,0,0,1-.67-1.94,2.91,2.91,0,0,1,.66-2,2.18,2.18,0,0,1,1.74-.76,2.14,2.14,0,0,1,1.66.66,2.49,2.49,0,0,1,.61,1.77,1.94,1.94,0,0,1,0,.33h-3.93a2.53,2.53,0,0,0,.47,1.47,1.48,1.48,0,0,0,1.28.6,1.76,1.76,0,0,0,.88-.21A3.81,3.81,0,0,0,879,402.56Zm-1.85-3.32a1.51,1.51,0,0,0-1.12.43,2,2,0,0,0-.54,1.23h3.23a1.8,1.8,0,0,0-.43-1.21A1.48,1.48,0,0,0,877.16,399.24Z"/><path class="cls-4" d="M883,398.67a1.79,1.79,0,0,1,1.35.49,1.7,1.7,0,0,1,.49,1.26v3.52h-.7v-3.28c0-.94-.44-1.41-1.3-1.41a1.47,1.47,0,0,0-1.46,1.46v3.23h-.7v-7.55h.7v3.05A1.81,1.81,0,0,1,883,398.67Z"/><path class="cls-4" d="M888.26,398.75a2.49,2.49,0,0,1,.81.15l-.14.56a2.27,2.27,0,0,0-.67-.1,1.06,1.06,0,0,0-.89.46,2.07,2.07,0,0,0-.34,1.26v2.86h-.7V398.8H887v.8a1.4,1.4,0,0,1,.5-.62A1.37,1.37,0,0,1,888.26,398.75Z"/><path class="cls-4" d="M891.81,398.67a2.28,2.28,0,0,1,1.49.45,1.49,1.49,0,0,1,.54,1.21v3.61h-.65v-.67a1.93,1.93,0,0,1-1.79.83,2.22,2.22,0,0,1-1.34-.36,1.22,1.22,0,0,1-.5-1.05,1.36,1.36,0,0,1,.61-1.18,6.13,6.13,0,0,1,1.87-.61l1.12-.21v-.31a1.06,1.06,0,0,0-.36-.84,1.45,1.45,0,0,0-1-.3,1.93,1.93,0,0,0-.88.2,3.21,3.21,0,0,0-.85.69l-.45-.4A2.77,2.77,0,0,1,891.81,398.67Zm-.38,4.85a1.9,1.9,0,0,0,1.24-.4,1.26,1.26,0,0,0,.49-1v-.86l-1,.19a6.32,6.32,0,0,0-1.49.46.91.91,0,0,0-.45.79.7.7,0,0,0,.32.61A1.46,1.46,0,0,0,891.43,403.52Z"/><path class="cls-4" d="M897.67,398.67a1.87,1.87,0,0,1,1.36.48,1.73,1.73,0,0,1,.48,1.27v3.52h-.7v-3.28c0-.94-.43-1.41-1.3-1.41a1.38,1.38,0,0,0-1,.43,1.37,1.37,0,0,0-.43,1v3.23h-.7V398.8H896v.71A1.79,1.79,0,0,1,897.67,398.67Z"/><path class="cls-4" d="M908.65,397.88v2.47h2.46v.59h-2.46v2.47H908v-2.47h-2.46v-.59H908v-2.47Z"/><path class="cls-4" d="M914.57,396.55a2.42,2.42,0,0,1,1.91.78,2.8,2.8,0,0,1,.7,2,4.08,4.08,0,0,1-.55,2.09,8.8,8.8,0,0,1-1.72,2l-.55.52h-1l1.12-1a7.11,7.11,0,0,0,1.77-2.27,2.36,2.36,0,0,1-1.86.77,2.27,2.27,0,0,1-1.74-.71,2.49,2.49,0,0,1,0-3.44A2.48,2.48,0,0,1,914.57,396.55Zm-.05,4.26a1.89,1.89,0,0,0,1.38-.52,1.74,1.74,0,0,0,.52-1.3,1.79,1.79,0,0,0-.5-1.31,1.82,1.82,0,0,0-1.35-.51,1.76,1.76,0,0,0-1.33.5,2,2,0,0,0,0,2.63A1.69,1.69,0,0,0,914.52,400.81Z"/><path class="cls-4" d="M922.11,400a2.07,2.07,0,0,1,1.06.75,1.92,1.92,0,0,1,.38,1.21,1.9,1.9,0,0,1-.72,1.52,3.42,3.42,0,0,1-3.87,0,1.88,1.88,0,0,1-.73-1.52,1.93,1.93,0,0,1,.39-1.21,2.07,2.07,0,0,1,1.06-.75,1.65,1.65,0,0,1-1.06-1.59,1.68,1.68,0,0,1,.63-1.35,2.52,2.52,0,0,1,1.64-.53,2.49,2.49,0,0,1,1.64.53,1.73,1.73,0,0,1-.42,2.94Zm-2.62,3a2.49,2.49,0,0,0,2.8,0,1.36,1.36,0,0,0,.53-1.11,1.47,1.47,0,0,0-.52-1.17,2.09,2.09,0,0,0-1.41-.44,2.06,2.06,0,0,0-1.4.44A1.44,1.44,0,0,0,919,402,1.35,1.35,0,0,0,919.49,403.06Zm-.17-4.64a1.18,1.18,0,0,0,.43,1,1.7,1.7,0,0,0,1.14.37,1.68,1.68,0,0,0,1.14-.37,1.19,1.19,0,0,0,.44-1,1.11,1.11,0,0,0-.43-.92,1.7,1.7,0,0,0-1.15-.35,1.74,1.74,0,0,0-1.15.35A1.13,1.13,0,0,0,919.32,398.42Z"/><path class="cls-4" d="M925.17,403.33h4.34v.61h-5v-.25a2.58,2.58,0,0,1,1-2.13,10.89,10.89,0,0,1,1.19-.82,4.47,4.47,0,0,1,.53-.31,10.07,10.07,0,0,0,.89-.56,2,2,0,0,0,.48-.52,1.42,1.42,0,0,0,.21-.78,1.28,1.28,0,0,0-.44-1,1.68,1.68,0,0,0-1.12-.37,2.14,2.14,0,0,0-1.14.29,5.31,5.31,0,0,0-1.06,1l-.52-.39a4.16,4.16,0,0,1,1.21-1.17,2.83,2.83,0,0,1,1.49-.39,2.47,2.47,0,0,1,1.66.56,1.82,1.82,0,0,1,.65,1.43,2.07,2.07,0,0,1-.9,1.75,10.67,10.67,0,0,1-1.05.69l-.49.28c-.52.33-.87.55-1,.67a2.5,2.5,0,0,0-.55.57A1.75,1.75,0,0,0,925.17,403.33Z"/><path class="cls-4" d="M933,396.71h.53v7.23h-.72v-6.31l-1.67,1.2-.35-.5Z"/><path class="cls-4" d="M942,400a2.07,2.07,0,0,1,1.06.75,1.93,1.93,0,0,1,.39,1.21,1.91,1.91,0,0,1-.73,1.52,3.42,3.42,0,0,1-3.87,0,1.9,1.9,0,0,1-.72-1.52,1.92,1.92,0,0,1,.38-1.21,2.07,2.07,0,0,1,1.06-.75,1.73,1.73,0,0,1-.42-2.94,2.79,2.79,0,0,1,3.27,0A1.73,1.73,0,0,1,942,400Zm-2.61,3a2.48,2.48,0,0,0,2.79,0,1.33,1.33,0,0,0,.53-1.11,1.44,1.44,0,0,0-.52-1.17,2.46,2.46,0,0,0-2.81,0,1.44,1.44,0,0,0-.52,1.17A1.36,1.36,0,0,0,939.38,403.06Zm-.18-4.64a1.19,1.19,0,0,0,.44,1,1.93,1.93,0,0,0,2.27,0,1.16,1.16,0,0,0,.44-1,1.11,1.11,0,0,0-.43-.92,2,2,0,0,0-2.29,0A1.11,1.11,0,0,0,939.2,398.42Z"/><path class="cls-4" d="M948.37,400a2.09,2.09,0,0,1,1.07.75,2,2,0,0,1,.38,1.21,1.9,1.9,0,0,1-.72,1.52,3.44,3.44,0,0,1-3.88,0,1.9,1.9,0,0,1-.72-1.52,2,2,0,0,1,.38-1.21A2.09,2.09,0,0,1,946,400a1.66,1.66,0,0,1-1.07-1.59,1.69,1.69,0,0,1,.64-1.35,2.8,2.8,0,0,1,3.28,0,1.69,1.69,0,0,1,.64,1.35A1.66,1.66,0,0,1,948.37,400Zm-2.61,3a2.49,2.49,0,0,0,2.8,0,1.36,1.36,0,0,0,.53-1.11,1.44,1.44,0,0,0-.53-1.17,2.45,2.45,0,0,0-2.8,0,1.44,1.44,0,0,0-.53,1.17A1.36,1.36,0,0,0,945.76,403.06Zm-.18-4.64a1.19,1.19,0,0,0,.44,1,1.94,1.94,0,0,0,2.28,0,1.18,1.18,0,0,0,.43-1,1.13,1.13,0,0,0-.42-.92,2.06,2.06,0,0,0-2.3,0A1.14,1.14,0,0,0,945.58,398.42Z"/><path class="cls-4" d="M955.88,396.55a2.27,2.27,0,0,1,2.15,1.31,6.21,6.21,0,0,1,0,4.93,2.42,2.42,0,0,1-4.3,0,6.21,6.21,0,0,1,0-4.93A2.27,2.27,0,0,1,955.88,396.55Zm0,.62a1.61,1.61,0,0,0-1.52,1,5.9,5.9,0,0,0,0,4.27,1.64,1.64,0,0,0,3,0,5.9,5.9,0,0,0,0-4.27A1.61,1.61,0,0,0,955.88,397.17Z"/><path class="cls-4" d="M964,401.59h1.12v.61H964v1.74h-.7V402.2h-3.76v-.63l3.1-4.86h.81l-3.12,4.88h3v-1.72h.7Z"/><path class="cls-4" d="M970.38,401.59h1.12v.61h-1.12v1.74h-.7V402.2h-3.75v-.63l3.09-4.86h.81l-3.12,4.88h3v-1.72h.7Z"/><path class="cls-4" d="M979,401.59h1.12v.61H979v1.74h-.7V402.2h-3.76v-.63l3.1-4.86h.81l-3.12,4.88h3v-1.72h.7Z"/><path class="cls-4" d="M983.15,396.55a2.44,2.44,0,0,1,1.91.78,2.84,2.84,0,0,1,.7,2,4.09,4.09,0,0,1-.56,2.09,9,9,0,0,1-1.71,2l-.55.52h-1l1.11-1a7.11,7.11,0,0,0,1.77-2.27,2.33,2.33,0,0,1-1.85.77,2.24,2.24,0,0,1-1.74-.71,2.48,2.48,0,0,1,0-3.44A2.49,2.49,0,0,1,983.15,396.55Zm0,4.26a1.9,1.9,0,0,0,1.38-.52A1.74,1.74,0,0,0,985,399a1.73,1.73,0,0,0-1.85-1.82,1.78,1.78,0,0,0-1.34.5,2,2,0,0,0,0,2.63A1.69,1.69,0,0,0,983.1,400.81Z"/><path class="cls-4" d="M989.58,396.55a2.26,2.26,0,0,1,2.14,1.31,6.21,6.21,0,0,1,0,4.93,2.41,2.41,0,0,1-4.29,0,6.21,6.21,0,0,1,0-4.93A2.27,2.27,0,0,1,989.58,396.55Zm0,.62a1.61,1.61,0,0,0-1.53,1,5.9,5.9,0,0,0,0,4.27,1.64,1.64,0,0,0,3.05,0,5.9,5.9,0,0,0,0-4.27A1.61,1.61,0,0,0,989.58,397.17Z"/><path class="cls-4" d="M799.49,413.68v1.06h-3.92V417h3.65v1.06h-3.65v3.18H794.3v-7.55Z"/><path class="cls-4" d="M802.57,415.72a2.54,2.54,0,0,1,1.67.5,1.7,1.7,0,0,1,.59,1.36v3.65h-1.06v-.61a2,2,0,0,1-1.76.78,2.34,2.34,0,0,1-1.39-.38,1.32,1.32,0,0,1-.53-1.13,1.4,1.4,0,0,1,.6-1.22,4.57,4.57,0,0,1,1.8-.65l1.22-.23v-.19a.81.81,0,0,0-.3-.67,1.26,1.26,0,0,0-.81-.24,1.67,1.67,0,0,0-.85.2,4,4,0,0,0-.86.68l-.73-.68A3,3,0,0,1,802.57,415.72Zm-.39,4.74a1.67,1.67,0,0,0,1.1-.35,1.19,1.19,0,0,0,.43-1v-.49l-.93.19a4.29,4.29,0,0,0-1.19.39.65.65,0,0,0-.35.6.51.51,0,0,0,.25.46A1.18,1.18,0,0,0,802.18,420.46Z"/><path class="cls-4" d="M810.71,416.74l-.75.71a2.67,2.67,0,0,0-.73-.58,1.58,1.58,0,0,0-.72-.16,1.29,1.29,0,0,0-1.1.53,2.19,2.19,0,0,0-.39,1.32,2.09,2.09,0,0,0,.4,1.32,1.3,1.3,0,0,0,1.09.51,1.49,1.49,0,0,0,.75-.19,3.19,3.19,0,0,0,.77-.66l.76.65a3.17,3.17,0,0,1-1,.93,2.7,2.7,0,0,1-1.24.27,2.58,2.58,0,0,1-1.94-.77,3.25,3.25,0,0,1,0-4.12,2.58,2.58,0,0,1,1.95-.78,2.85,2.85,0,0,1,1.18.23A3.21,3.21,0,0,1,810.71,416.74Z"/><path class="cls-4" d="M814.6,420.22l.15.93a3.52,3.52,0,0,1-1.15.2,1.24,1.24,0,0,1-1.45-1.44v-3.14h-1v-.88h1v-1.72h1.17v1.72h1.35v.88h-1.35v3a.59.59,0,0,0,.13.44.68.68,0,0,0,.44.13A2.82,2.82,0,0,0,814.6,420.22Z"/><path class="cls-4" d="M817.86,415.72a2.59,2.59,0,0,1,1.95.79,3.13,3.13,0,0,1,0,4.09,2.81,2.81,0,0,1-3.91,0,3.13,3.13,0,0,1,0-4.09A2.58,2.58,0,0,1,817.86,415.72Zm0,1a1.39,1.39,0,0,0-1.12.5,2.41,2.41,0,0,0,0,2.69,1.39,1.39,0,0,0,1.12.5,1.35,1.35,0,0,0,1.1-.5,2.36,2.36,0,0,0,0-2.69A1.35,1.35,0,0,0,817.86,416.71Z"/><path class="cls-4" d="M824,415.83a2.62,2.62,0,0,1,.84.16l-.22,1a2.59,2.59,0,0,0-.68-.11,1,1,0,0,0-.87.43,1.91,1.91,0,0,0-.33,1.19v2.73h-1.17v-5.34h1.09v.8A1.39,1.39,0,0,1,824,415.83Z"/><path class="cls-4" d="M829.21,415.89h1.19l-2.09,6a2.39,2.39,0,0,1-.65,1.09,1.73,1.73,0,0,1-1.1.31,3.61,3.61,0,0,1-.94-.11l.2-.89a3.15,3.15,0,0,0,.6.07.84.84,0,0,0,.53-.17,1.07,1.07,0,0,0,.34-.59l0-.08-2-5.63h1.23l.52,1.56.82,2.48c.31-1,.57-1.82.8-2.49Z"/><path class="cls-4" d="M839.06,413.68h.73v7.55h-.86l-2.38-3.61c-.78-1.19-1.43-2.2-2-3,0,.75,0,1.71,0,2.89v3.75h-.74v-7.55h.86l2.38,3.59.4.63c.71,1.09,1.23,1.89,1.56,2.43,0-.75,0-1.71,0-2.89Z"/><path class="cls-4" d="M843.61,416a2.34,2.34,0,0,1,1.8.76,2.79,2.79,0,0,1,.69,2,2.76,2.76,0,0,1-.69,1.94,2.31,2.31,0,0,1-1.8.76,2.28,2.28,0,0,1-1.78-.76,2.76,2.76,0,0,1-.69-1.94,2.79,2.79,0,0,1,.69-2A2.31,2.31,0,0,1,843.61,416Zm1.29,1.17a1.6,1.6,0,0,0-1.29-.59,1.56,1.56,0,0,0-1.27.59,2.37,2.37,0,0,0-.48,1.55,2.33,2.33,0,0,0,.48,1.52,1.68,1.68,0,0,0,2.56,0,2.33,2.33,0,0,0,.48-1.52A2.37,2.37,0,0,0,844.9,417.12Z"/><path class="cls-4" d="M848,420.25v1h-.9v-1Z"/><path class="cls-4" d="M854.2,416.57a2.42,2.42,0,0,1,1.74.64,2.24,2.24,0,0,1,.67,1.69,2.46,2.46,0,0,1-.7,1.74,2.39,2.39,0,0,1-1.82.75,3.69,3.69,0,0,1-1.34-.21,6.76,6.76,0,0,1-1.34-.73l.36-.54a6.11,6.11,0,0,0,1.2.68,3,3,0,0,0,1,.18,1.8,1.8,0,0,0,1.35-.53,1.86,1.86,0,0,0,.51-1.33,1.71,1.71,0,0,0-.47-1.26,1.75,1.75,0,0,0-1.3-.46,2.22,2.22,0,0,0-1.63.65l-.61-.08.32-3.76h4.08v.61h-3.48l-.2,2.48A2.49,2.49,0,0,1,854.2,416.57Z"/><path class="cls-4" d="M858.81,420.25v1l-.58,1.23h-.43l.5-1.23h-.45v-1Z"/><path class="cls-4" d="M867.8,413.68h.73v7.55h-.86l-2.38-3.61c-.79-1.19-1.44-2.2-2-3,0,.75,0,1.71,0,2.89v3.75h-.73v-7.55h.86l2.37,3.59.41.63c.7,1.09,1.23,1.89,1.56,2.43,0-.75,0-1.71,0-2.89Z"/><path class="cls-4" d="M870.7,414v1H870v-1Zm0,2.14v5.14H870v-5.14Z"/><path class="cls-4" d="M874,416a2.27,2.27,0,0,1,1.49.46,1.48,1.48,0,0,1,.54,1.2v3.62h-.65v-.67a1.94,1.94,0,0,1-1.78.83,2.25,2.25,0,0,1-1.35-.36,1.22,1.22,0,0,1-.5-1,1.38,1.38,0,0,1,.61-1.18,5.87,5.87,0,0,1,1.87-.61l1.12-.21v-.31a1,1,0,0,0-.36-.84,1.42,1.42,0,0,0-1-.3,1.81,1.81,0,0,0-.88.2,3.21,3.21,0,0,0-.85.69l-.45-.4A2.78,2.78,0,0,1,874,416Zm-.37,4.86a1.94,1.94,0,0,0,1.24-.4,1.28,1.28,0,0,0,.48-1v-.86l-1,.19a6.32,6.32,0,0,0-1.49.46.88.88,0,0,0-.44.78.71.71,0,0,0,.31.62A1.47,1.47,0,0,0,873.64,420.81Z"/><path class="cls-4" d="M881,416.09v.5l-3.21,4.06H881v.58H877v-.52l3.2-4h-3v-.58Z"/><path class="cls-4" d="M882.76,414v1h-.7v-1Zm0,2.14v5.14h-.7v-5.14Z"/><path class="cls-4" d="M887.3,413.68v7.55h-.76v-7.55Z"/><path class="cls-4" d="M891.16,416a1.83,1.83,0,0,1,1.35.49,1.68,1.68,0,0,1,.49,1.27v3.52h-.7v-3.29c0-.93-.44-1.4-1.3-1.4a1.45,1.45,0,0,0-1.46,1.46v3.23h-.7v-5.14h.66v.7A1.79,1.79,0,0,1,891.16,416Z"/><path class="cls-4" d="M898,413.68h.7v7.55h-.66v-.87a1.94,1.94,0,0,1-1.82,1,2,2,0,0,1-1.62-.76,3.24,3.24,0,0,1,0-3.88,2.06,2.06,0,0,1,1.63-.76,1.91,1.91,0,0,1,1.76.9Zm-1.72,7.08a1.58,1.58,0,0,0,1.27-.56,2.71,2.71,0,0,0,0-3.08,1.57,1.57,0,0,0-1.27-.57,1.4,1.4,0,0,0-1.16.59,2.5,2.5,0,0,0-.44,1.53,2.44,2.44,0,0,0,.44,1.51A1.36,1.36,0,0,0,896.3,420.76Z"/><path class="cls-4" d="M903.39,416.09h.7v5.14h-.65v-.68a1.67,1.67,0,0,1-1.58.82,1.86,1.86,0,0,1-1.37-.46,1.66,1.66,0,0,1-.47-1.24v-3.58h.7v3.43a1.29,1.29,0,0,0,.31.92,1.14,1.14,0,0,0,.87.32,1.49,1.49,0,0,0,1.08-.4,1.51,1.51,0,0,0,.41-1.12Z"/><path class="cls-4" d="M907.05,416a3.34,3.34,0,0,1,1.1.17,4,4,0,0,1,1,.57l-.4.48a3.57,3.57,0,0,0-.85-.51,2.22,2.22,0,0,0-.81-.13,1.51,1.51,0,0,0-.91.25.76.76,0,0,0-.34.64c0,.28.2.48.59.61a8.58,8.58,0,0,0,.88.23,4,4,0,0,1,1.49.58,1.15,1.15,0,0,1,.43,1,1.37,1.37,0,0,1-.55,1.13,2.27,2.27,0,0,1-1.45.43,3.07,3.07,0,0,1-1.18-.21,4.51,4.51,0,0,1-1.13-.74l.43-.47a3.88,3.88,0,0,0,1,.65,2.24,2.24,0,0,0,.91.18,1.54,1.54,0,0,0,.94-.26.78.78,0,0,0,.37-.68.69.69,0,0,0-.35-.63,4,4,0,0,0-1.18-.38,4.16,4.16,0,0,1-1.45-.51,1,1,0,0,1-.4-.88,1.31,1.31,0,0,1,.54-1.08A2.27,2.27,0,0,1,907.05,416Z"/><path class="cls-4" d="M912.68,420.58l.13.56a3,3,0,0,1-1,.18,1.32,1.32,0,0,1-1-.31,1.22,1.22,0,0,1-.3-.9v-3.5h-1v-.52h1v-1.8h.7v1.8h1.47v.52h-1.47V420a.79.79,0,0,0,.15.54.65.65,0,0,0,.5.16A2.64,2.64,0,0,0,912.68,420.58Z"/><path class="cls-4" d="M915.49,416a2.59,2.59,0,0,1,.81.15l-.14.56a2.37,2.37,0,0,0-.67-.1,1.07,1.07,0,0,0-.9.46,2.14,2.14,0,0,0-.34,1.26v2.86h-.7v-5.14h.66v.8a1.42,1.42,0,0,1,.51-.62A1.34,1.34,0,0,1,915.49,416Z"/><path class="cls-4" d="M917.67,414v1H917v-1Zm0,2.14v5.14H917v-5.14Z"/><path class="cls-4" d="M921,416a2.27,2.27,0,0,1,1.49.46,1.48,1.48,0,0,1,.54,1.2v3.62h-.65v-.67a2,2,0,0,1-1.79.83,2.24,2.24,0,0,1-1.34-.36,1.22,1.22,0,0,1-.5-1,1.36,1.36,0,0,1,.61-1.18,5.87,5.87,0,0,1,1.87-.61l1.12-.21v-.31a1,1,0,0,0-.36-.84,1.43,1.43,0,0,0-1-.3,1.81,1.81,0,0,0-.88.2,3.21,3.21,0,0,0-.85.69l-.45-.4A2.78,2.78,0,0,1,921,416Zm-.37,4.86a1.89,1.89,0,0,0,1.23-.4,1.26,1.26,0,0,0,.49-1v-.86l-1,.19a6.32,6.32,0,0,0-1.49.46.91.91,0,0,0-.45.78.72.72,0,0,0,.32.62A1.47,1.47,0,0,0,920.61,420.81Z"/><path class="cls-4" d="M925,413.68v7.55h-.7v-7.55Z"/><path class="cls-4" d="M931.9,413.52a3.46,3.46,0,0,1,1.3.24,5,5,0,0,1,1.29.81l-.43.51a3.43,3.43,0,0,0-2.16-.91,2.52,2.52,0,0,0-2,.91,3.57,3.57,0,0,0-.77,2.37,3.66,3.66,0,0,0,.76,2.37,2.43,2.43,0,0,0,2,.92,2.46,2.46,0,0,0,1.17-.27,5.6,5.6,0,0,0,1.18-.91l.47.5a5.46,5.46,0,0,1-1.36,1,3.26,3.26,0,0,1-1.45.3,3.17,3.17,0,0,1-2.55-1.1,4.76,4.76,0,0,1,0-5.69A3.29,3.29,0,0,1,931.9,413.52Z"/><path class="cls-4" d="M937.65,416a2.34,2.34,0,0,1,1.8.76,2.79,2.79,0,0,1,.69,2,2.76,2.76,0,0,1-.69,1.94,2.5,2.5,0,0,1-3.59,0,2.76,2.76,0,0,1-.69-1.94,2.79,2.79,0,0,1,.69-2A2.33,2.33,0,0,1,937.65,416Zm1.28,1.17a1.68,1.68,0,0,0-2.56,0,2.37,2.37,0,0,0-.48,1.55,2.28,2.28,0,0,0,.49,1.52,1.53,1.53,0,0,0,1.27.59,1.55,1.55,0,0,0,1.28-.59,2.33,2.33,0,0,0,.48-1.52A2.37,2.37,0,0,0,938.93,417.12Z"/><path class="cls-4" d="M946.37,416a1.67,1.67,0,0,1,1.26.47,1.69,1.69,0,0,1,.45,1.23v3.58h-.7v-3.39c0-.87-.38-1.3-1.14-1.3a1.19,1.19,0,0,0-.94.4,1.5,1.5,0,0,0-.35,1v3.27h-.71v-3.39c0-.87-.37-1.3-1.13-1.3a1.22,1.22,0,0,0-.89.34,1.32,1.32,0,0,0-.4.87v3.48h-.7v-5.14h.66v.63a1.63,1.63,0,0,1,1.49-.77,1.48,1.48,0,0,1,1.48.87A1.8,1.8,0,0,1,946.37,416Z"/><path class="cls-4" d="M951.86,416a2.06,2.06,0,0,1,1.63.76,3.26,3.26,0,0,1,0,3.88,2,2,0,0,1-1.63.76,1.93,1.93,0,0,1-1.78-.9v2.69h-.7v-7.06H950V417A2,2,0,0,1,951.86,416Zm-.06,4.8a1.37,1.37,0,0,0,1.16-.58,2.43,2.43,0,0,0,.44-1.52,2.47,2.47,0,0,0-.43-1.52,1.39,1.39,0,0,0-1.17-.59,1.6,1.6,0,0,0-1.27.56,2.32,2.32,0,0,0-.48,1.55,2.25,2.25,0,0,0,.49,1.53A1.57,1.57,0,0,0,951.8,420.76Z"/><path class="cls-4" d="M955.86,413.68v7.55h-.7v-7.55Z"/><path class="cls-4" d="M961.12,419.85l.44.42a3.56,3.56,0,0,1-1.06.85,2.57,2.57,0,0,1-1.16.25,2.36,2.36,0,0,1-1.8-.73,2.8,2.8,0,0,1-.67-1.94,2.93,2.93,0,0,1,.66-2,2.21,2.21,0,0,1,1.74-.76,2.15,2.15,0,0,1,1.66.66,2.52,2.52,0,0,1,.61,1.78,2.06,2.06,0,0,1,0,.33h-3.94a2.68,2.68,0,0,0,.47,1.47,1.48,1.48,0,0,0,1.29.59,1.79,1.79,0,0,0,.88-.2A4.09,4.09,0,0,0,961.12,419.85Zm-1.85-3.32a1.55,1.55,0,0,0-1.13.43,2,2,0,0,0-.53,1.23h3.23a1.73,1.73,0,0,0-.44-1.21A1.45,1.45,0,0,0,959.27,416.53Z"/><path class="cls-4" d="M966.38,421.23h-.78L964.11,419l-1.51,2.21h-.78l1.86-2.68L962,416.09h.79l1.36,2,1.34-2h.76l-1.69,2.43Z"/><path class="cls-4" d="M799.43,433.2l-.76-2.12h-3.44l-.76,2.12h-.76l2.75-7.55h1l2.76,7.55Zm-4-2.76h3l-.37-1-.16-.42c-.48-1.37-.8-2.29-1-2.78-.16.54-.49,1.49-1,2.85l-.12.35Z"/><path class="cls-4" d="M804.88,425.65h.7v7.55h-.66v-.87a2,2,0,0,1-1.82,1,2,2,0,0,1-1.63-.76,2.91,2.91,0,0,1-.63-1.93,2.84,2.84,0,0,1,.65-1.95,2.06,2.06,0,0,1,1.63-.76,1.92,1.92,0,0,1,1.76.9Zm-1.72,7.08a1.62,1.62,0,0,0,1.27-.56,2.71,2.71,0,0,0,0-3.08,1.57,1.57,0,0,0-1.27-.57,1.39,1.39,0,0,0-1.16.58,2.51,2.51,0,0,0-.44,1.54,2.44,2.44,0,0,0,.44,1.51A1.36,1.36,0,0,0,803.16,432.73Z"/><path class="cls-4" d="M811,431.82l.44.42a3.66,3.66,0,0,1-1.05.85,2.79,2.79,0,0,1-1.17.25,2.33,2.33,0,0,1-1.8-.74,2.76,2.76,0,0,1-.67-1.93,2.93,2.93,0,0,1,.66-2,2.21,2.21,0,0,1,1.74-.76,2.15,2.15,0,0,1,1.66.66,2.5,2.5,0,0,1,.61,1.78,2.06,2.06,0,0,1,0,.33h-3.93a2.59,2.59,0,0,0,.46,1.47,1.52,1.52,0,0,0,1.29.59,1.79,1.79,0,0,0,.88-.2A4.09,4.09,0,0,0,811,431.82Zm-1.85-3.32a1.55,1.55,0,0,0-1.13.43,2,2,0,0,0-.53,1.23h3.23a1.82,1.82,0,0,0-.43-1.22A1.51,1.51,0,0,0,809.17,428.5Z"/><path class="cls-4" d="M814.6,428a2.59,2.59,0,0,1,.81.15l-.14.56a2.29,2.29,0,0,0-.67-.11,1.06,1.06,0,0,0-.89.47,2.07,2.07,0,0,0-.34,1.26v2.86h-.7v-5.14h.66v.8a1.4,1.4,0,0,1,.5-.62A1.27,1.27,0,0,1,814.6,428Z"/><path class="cls-4" d="M818.15,427.92a2.23,2.23,0,0,1,1.49.46,1.48,1.48,0,0,1,.54,1.2v3.62h-.65v-.67a2,2,0,0,1-1.79.83,2.22,2.22,0,0,1-1.34-.36,1.23,1.23,0,0,1-.5-1.06,1.33,1.33,0,0,1,.61-1.17,5.78,5.78,0,0,1,1.87-.61l1.12-.22v-.3a1,1,0,0,0-.36-.84,1.45,1.45,0,0,0-1-.3,1.93,1.93,0,0,0-.88.19,3.72,3.72,0,0,0-.86.7L816,429A2.77,2.77,0,0,1,818.15,427.92Zm-.38,4.85a1.9,1.9,0,0,0,1.24-.39,1.26,1.26,0,0,0,.49-1v-.86l-1,.19a6.32,6.32,0,0,0-1.49.46.91.91,0,0,0-.45.78.72.72,0,0,0,.32.62A1.46,1.46,0,0,0,817.77,432.77Z"/><path class="cls-4" d="M824,427.92a1.79,1.79,0,0,1,1.35.49,1.68,1.68,0,0,1,.49,1.27v3.52h-.7v-3.29c0-.93-.44-1.4-1.3-1.4a1.45,1.45,0,0,0-1.46,1.46v3.23h-.7v-5.14h.66v.7A1.79,1.79,0,0,1,824,427.92Z"/><path class="cls-4" d="M835.62,433.2h-.86l-2.13-3.14h-1.92v3.14H830v-7.55h3a2.57,2.57,0,0,1,1.77.58,2.05,2.05,0,0,1,.66,1.62,2.08,2.08,0,0,1-.52,1.47,2.24,2.24,0,0,1-1.39.7Zm-4.91-6.93v3.16h2.12a1.93,1.93,0,0,0,1.32-.41,1.44,1.44,0,0,0,.47-1.17,1.48,1.48,0,0,0-.47-1.17,2,2,0,0,0-1.33-.41Z"/><path class="cls-4" d="M840.33,425.65h.7v7.55h-.66v-.87a2,2,0,0,1-1.82,1,2,2,0,0,1-1.63-.76,3.28,3.28,0,0,1,0-3.88,2.1,2.1,0,0,1,1.64-.76,1.92,1.92,0,0,1,1.76.9Zm-1.73,7.08a1.63,1.63,0,0,0,1.28-.56,2.71,2.71,0,0,0,0-3.08,1.58,1.58,0,0,0-1.28-.57,1.37,1.37,0,0,0-1.15.58,2.51,2.51,0,0,0-.44,1.54,2.44,2.44,0,0,0,.43,1.51A1.39,1.39,0,0,0,838.6,432.73Z"/><path class="cls-4" d="M843.33,432.22v1h-.9v-1Z"/><path class="cls-4" d="M845.56,432.22v1l-.57,1.22h-.44l.5-1.22h-.45v-1Z"/><path class="cls-4" d="M851.7,425.49a4,4,0,0,1,1.46.25,4.76,4.76,0,0,1,1.32.82l-.44.52a4.21,4.21,0,0,0-1.13-.73,3.36,3.36,0,0,0-1.2-.21,2.25,2.25,0,0,0-1.36.38,1.15,1.15,0,0,0-.52,1,1.13,1.13,0,0,0,.91,1.08,10.44,10.44,0,0,0,1.26.34,5.1,5.1,0,0,1,2,.82,1.63,1.63,0,0,1,.57,1.34,2.05,2.05,0,0,1-.75,1.65,2.94,2.94,0,0,1-1.94.63,4.21,4.21,0,0,1-1.59-.29,6,6,0,0,1-1.51-1l.43-.53a5.65,5.65,0,0,0,1.43.91,3.34,3.34,0,0,0,1.24.23,2.13,2.13,0,0,0,1.41-.44,1.42,1.42,0,0,0,.54-1.17,1.24,1.24,0,0,0-1-1.21,9.31,9.31,0,0,0-1.25-.34,5.32,5.32,0,0,1-2-.74,1.63,1.63,0,0,1-.56-1.29,1.78,1.78,0,0,1,.76-1.47A3,3,0,0,1,851.7,425.49Z"/><path class="cls-4" d="M858.17,427.92a1.8,1.8,0,0,1,1.35.5,1.7,1.7,0,0,1,.49,1.26v3.52h-.7v-3.29c0-.93-.44-1.4-1.3-1.4a1.45,1.45,0,0,0-1.46,1.46v3.23h-.7v-7.55h.7v3.05A1.79,1.79,0,0,1,858.17,427.92Z"/><path class="cls-4" d="M863.51,427.92a2.21,2.21,0,0,1,1.49.46,1.48,1.48,0,0,1,.54,1.2v3.62h-.65v-.67a2,2,0,0,1-1.79.83,2.24,2.24,0,0,1-1.34-.36,1.23,1.23,0,0,1-.5-1.06,1.37,1.37,0,0,1,.61-1.17,5.87,5.87,0,0,1,1.87-.61l1.12-.22v-.3a1,1,0,0,0-.36-.84,1.43,1.43,0,0,0-1-.3,1.93,1.93,0,0,0-.88.19,3.5,3.5,0,0,0-.85.7l-.45-.4A2.78,2.78,0,0,1,863.51,427.92Zm-.37,4.85a1.94,1.94,0,0,0,1.24-.39,1.28,1.28,0,0,0,.48-1v-.86l-1,.19a6.32,6.32,0,0,0-1.49.46.88.88,0,0,0-.44.78.71.71,0,0,0,.31.62A1.47,1.47,0,0,0,863.14,432.77Z"/><path class="cls-4" d="M869.37,427.92a1.84,1.84,0,0,1,1.36.5,1.74,1.74,0,0,1,.48,1.26v3.52h-.7v-3.29c0-.93-.43-1.4-1.3-1.4a1.41,1.41,0,0,0-1,.42,1.44,1.44,0,0,0-.43,1v3.23h-.7v-7.55h.7v3.05A1.79,1.79,0,0,1,869.37,427.92Z"/><path class="cls-4" d="M874.66,428a2.59,2.59,0,0,1,.81.15l-.14.56a2.4,2.4,0,0,0-.67-.11,1.08,1.08,0,0,0-.9.47,2.14,2.14,0,0,0-.34,1.26v2.86h-.7v-5.14h.66v.8a1.35,1.35,0,0,1,.51-.62A1.27,1.27,0,0,1,874.66,428Z"/><path class="cls-4" d="M877.05,425.92v1h-.7v-1Zm0,2.14v5.14h-.7v-5.14Z"/><path class="cls-4" d="M880.57,427.92a2.21,2.21,0,0,1,1.49.46,1.48,1.48,0,0,1,.54,1.2v3.62H882v-.67a2,2,0,0,1-1.79.83,2.25,2.25,0,0,1-1.35-.36,1.22,1.22,0,0,1-.49-1.06,1.34,1.34,0,0,1,.6-1.17,5.94,5.94,0,0,1,1.88-.61l1.11-.22v-.3a1.06,1.06,0,0,0-.35-.84,1.46,1.46,0,0,0-1-.3,1.92,1.92,0,0,0-.87.19,3.52,3.52,0,0,0-.86.7l-.45-.4A2.8,2.8,0,0,1,880.57,427.92Zm-.37,4.85a1.92,1.92,0,0,0,1.24-.39,1.28,1.28,0,0,0,.48-1v-.86l-1,.19a6.16,6.16,0,0,0-1.49.46.91.91,0,0,0-.45.78.71.71,0,0,0,.31.62A1.47,1.47,0,0,0,880.2,432.77Z"/><path class="cls-4" d="M886.05,428a2.59,2.59,0,0,1,.81.15l-.14.56a2.34,2.34,0,0,0-.67-.11,1,1,0,0,0-.89.47,2.07,2.07,0,0,0-.34,1.26v2.86h-.71v-5.14h.66v.8a1.49,1.49,0,0,1,.51-.62A1.27,1.27,0,0,1,886.05,428Z"/><path class="cls-4" d="M797.52,668.66h1.08v5.13a2.13,2.13,0,0,1-.68,1.67,2.73,2.73,0,0,1-1.85.6,4.36,4.36,0,0,1-2.49-.78l.58-.85a5.61,5.61,0,0,0,1,.51,2.64,2.64,0,0,0,.89.15,1.41,1.41,0,0,0,1-.35,1.35,1.35,0,0,0,.37-1v-.57a1.83,1.83,0,0,1-1.62.77,2.1,2.1,0,0,1-1.68-.76,2.88,2.88,0,0,1-.66-1.95,2.83,2.83,0,0,1,.66-1.94,2.1,2.1,0,0,1,1.68-.76,1.86,1.86,0,0,1,1.69.85Zm-1.45,4.25a1.25,1.25,0,0,0,1-.48,1.9,1.9,0,0,0,.4-1.24,1.87,1.87,0,0,0-.4-1.23,1.35,1.35,0,0,0-2,0,2.23,2.23,0,0,0,0,2.49A1.26,1.26,0,0,0,796.07,672.91Z"/><path class="cls-4" d="M804,672.37l.67.71a4,4,0,0,1-1.12.83,3.16,3.16,0,0,1-1.24.25,2.64,2.64,0,0,1-2-.77,2.78,2.78,0,0,1-.75-2,3,3,0,0,1,.72-2.07,2.43,2.43,0,0,1,1.91-.8,2.37,2.37,0,0,1,1.82.69,2.79,2.79,0,0,1,.64,1.93c0,.14,0,.3,0,.48h-3.92a1.81,1.81,0,0,0,.48,1.15,1.48,1.48,0,0,0,1.13.43,1.81,1.81,0,0,0,.82-.17A4.26,4.26,0,0,0,804,672.37Zm-1.83-3a1.29,1.29,0,0,0-.93.35,1.73,1.73,0,0,0-.49,1h2.76a1.45,1.45,0,0,0-.38-1A1.3,1.3,0,0,0,802.21,669.41Z"/><path class="cls-4" d="M807.72,668.49a3.69,3.69,0,0,1,1.2.18,3.83,3.83,0,0,1,1.06.62l-.64.78a3,3,0,0,0-.84-.5,2.24,2.24,0,0,0-.8-.14,1.39,1.39,0,0,0-.75.18.55.55,0,0,0-.27.47q0,.34.51.48a7.51,7.51,0,0,0,.82.21,4.28,4.28,0,0,1,1.59.61,1.26,1.26,0,0,1,.46,1.06,1.48,1.48,0,0,1-.61,1.24,2.51,2.51,0,0,1-1.61.48,3.58,3.58,0,0,1-1.32-.23,4.22,4.22,0,0,1-1.22-.77l.69-.77a4,4,0,0,0,1,.64,2.21,2.21,0,0,0,.91.18,1.33,1.33,0,0,0,.75-.19.56.56,0,0,0,.3-.5.58.58,0,0,0-.3-.49,5.59,5.59,0,0,0-1.09-.31,4,4,0,0,1-1.55-.59,1.21,1.21,0,0,1-.41-1,1.44,1.44,0,0,1,.59-1.17A2.46,2.46,0,0,1,807.72,668.49Z"/><path class="cls-4" d="M813,668.49a3.23,3.23,0,0,1,2.25.8l-.64.78a3,3,0,0,0-.83-.5,2.29,2.29,0,0,0-.81-.14,1.33,1.33,0,0,0-.74.18.56.56,0,0,0-.28.47q0,.34.51.48a8.27,8.27,0,0,0,.82.21,4.42,4.42,0,0,1,1.6.61,1.29,1.29,0,0,1,.46,1.06,1.51,1.51,0,0,1-.61,1.24,2.52,2.52,0,0,1-1.62.48,3.65,3.65,0,0,1-1.32-.23,4.32,4.32,0,0,1-1.21-.77l.68-.77a4.18,4.18,0,0,0,1,.64,2.19,2.19,0,0,0,.9.18,1.36,1.36,0,0,0,.76-.19.56.56,0,0,0,.3-.5.58.58,0,0,0-.3-.49,5.53,5.53,0,0,0-1.1-.31,4,4,0,0,1-1.54-.59,1.18,1.18,0,0,1-.41-1,1.41,1.41,0,0,1,.59-1.17A2.45,2.45,0,0,1,813,668.49Z"/><path class="cls-4" d="M818.6,668.49a2.47,2.47,0,0,1,1.67.5,1.69,1.69,0,0,1,.59,1.36V674h-1.05v-.61a2,2,0,0,1-1.77.78,2.27,2.27,0,0,1-1.39-.39,1.3,1.3,0,0,1-.53-1.12,1.39,1.39,0,0,1,.6-1.22,4.86,4.86,0,0,1,1.8-.66l1.22-.22v-.19a.83.83,0,0,0-.3-.68,1.21,1.21,0,0,0-.8-.24,1.79,1.79,0,0,0-.86.2,3.78,3.78,0,0,0-.86.69l-.73-.68A3,3,0,0,1,818.6,668.49Zm-.39,4.74a1.66,1.66,0,0,0,1.1-.36,1.17,1.17,0,0,0,.43-1v-.49l-.92.19a4.38,4.38,0,0,0-1.2.39.67.67,0,0,0-.35.6.55.55,0,0,0,.25.47A1.26,1.26,0,0,0,818.21,673.23Z"/><path class="cls-4" d="M823.39,672.63V674h-1.32v-1.37Z"/><path class="cls-4" d="M829,669.51l-.75.71a2.89,2.89,0,0,0-.73-.59,1.72,1.72,0,0,0-.72-.15,1.25,1.25,0,0,0-1.1.53,2.15,2.15,0,0,0-.39,1.32,2.1,2.1,0,0,0,.39,1.31,1.33,1.33,0,0,0,1.1.52,1.61,1.61,0,0,0,.75-.19,3.43,3.43,0,0,0,.77-.66l.76.64a3.27,3.27,0,0,1-1.05.93,2.62,2.62,0,0,1-1.25.28,2.52,2.52,0,0,1-1.93-.78,3.22,3.22,0,0,1,0-4.12,2.6,2.6,0,0,1,2-.77,2.7,2.7,0,0,1,1.18.23A3.33,3.33,0,0,1,829,669.51Z"/><path class="cls-4" d="M832.21,668.49a2.57,2.57,0,0,1,1.95.79,2.83,2.83,0,0,1,.76,2.05,2.78,2.78,0,0,1-.76,2,2.58,2.58,0,0,1-1.95.8,2.61,2.61,0,0,1-2-.79,3.14,3.14,0,0,1,0-4.1A2.61,2.61,0,0,1,832.21,668.49Zm0,1a1.36,1.36,0,0,0-1.12.5,2.11,2.11,0,0,0-.41,1.35,2.05,2.05,0,0,0,.41,1.33,1.47,1.47,0,0,0,2.23,0,2.05,2.05,0,0,0,.41-1.33,2.11,2.11,0,0,0-.41-1.35A1.36,1.36,0,0,0,832.21,669.48Z"/><path class="cls-4" d="M796.5,680.46a1.9,1.9,0,0,1,1.41.5,1.86,1.86,0,0,1,.5,1.35V686h-1.17v-3.3a1.25,1.25,0,0,0-.29-.9,1,1,0,0,0-.82-.31,1.14,1.14,0,0,0-.86.35,1.25,1.25,0,0,0-.34.89V686h-1.17v-7.56h1.17v2.75A1.83,1.83,0,0,1,796.5,680.46Z"/><path class="cls-4" d="M803.84,684.34l.67.71a3.89,3.89,0,0,1-1.13.83,3.07,3.07,0,0,1-1.23.24,2.64,2.64,0,0,1-2-.76,2.78,2.78,0,0,1-.75-2,3,3,0,0,1,.72-2.07,2.43,2.43,0,0,1,1.91-.8,2.35,2.35,0,0,1,1.81.69,2.75,2.75,0,0,1,.65,1.93c0,.14,0,.3,0,.48h-3.92a1.78,1.78,0,0,0,.48,1.15,1.52,1.52,0,0,0,1.13.43A1.84,1.84,0,0,0,803,685,4.57,4.57,0,0,0,803.84,684.34Zm-1.83-3a1.29,1.29,0,0,0-.93.35,1.69,1.69,0,0,0-.49,1h2.76a1.39,1.39,0,0,0-.39-1A1.26,1.26,0,0,0,802,681.38Z"/><path class="cls-4" d="M806.74,678.41V686h-1.17v-7.56Z"/><path class="cls-4" d="M809.27,678.41V686H808.1v-7.56Z"/><path class="cls-4" d="M813,680.46a2.59,2.59,0,0,1,2,.79,3.12,3.12,0,0,1,0,4.08,2.83,2.83,0,0,1-3.91,0,3.14,3.14,0,0,1,0-4.1A2.61,2.61,0,0,1,813,680.46Zm0,1a1.37,1.37,0,0,0-1.12.51,2.39,2.39,0,0,0,0,2.68,1.37,1.37,0,0,0,1.12.51,1.33,1.33,0,0,0,1.1-.51,2.35,2.35,0,0,0,0-2.68A1.33,1.33,0,0,0,813,681.44Z"/><path class="cls-4" d="M823.66,680.93l-.6,2.82a2.62,2.62,0,0,0-.06.54c0,.49.23.73.71.73a1,1,0,0,0,.89-.59,3.07,3.07,0,0,0,.34-1.55,3.3,3.3,0,0,0-1-2.57,4.1,4.1,0,0,0-5.38.2,4.08,4.08,0,0,0-1,2.89,3.7,3.7,0,0,0,1,2.76,4,4,0,0,0,3,1h2.38V688h-2.6a4.75,4.75,0,0,1-3.48-1.26,4.51,4.51,0,0,1-1.28-3.35,4.76,4.76,0,0,1,1.3-3.48,4.5,4.5,0,0,1,3.46-1.35,4.55,4.55,0,0,1,3.29,1.19,4,4,0,0,1,1.27,3.12,3.39,3.39,0,0,1-.62,2.11,1.92,1.92,0,0,1-1.6.79c-.83,0-1.32-.31-1.48-.94a1.93,1.93,0,0,1-1.71.94,1.62,1.62,0,0,1-1.24-.45,1.83,1.83,0,0,1-.43-1.28,3.79,3.79,0,0,1,.31-1.49,3.09,3.09,0,0,1,.91-1.22,1.87,1.87,0,0,1,1.3-.47,1.57,1.57,0,0,1,.83.21,1,1,0,0,1,.45.58l.12-.71Zm-3.07,4a1.11,1.11,0,0,0,.9-.4,2.31,2.31,0,0,0,.55-.94,2.66,2.66,0,0,0,.16-1,1,1,0,0,0-.19-.7.76.76,0,0,0-.61-.22,1.27,1.27,0,0,0-1.12.71,2.76,2.76,0,0,0-.46,1.57C819.82,684.6,820.08,684.92,820.59,684.92Z"/><path class="cls-4" d="M830.74,680.62h1.09v5.14a2.1,2.1,0,0,1-.69,1.67,2.71,2.71,0,0,1-1.85.6,4.36,4.36,0,0,1-2.48-.78l.57-.85a6,6,0,0,0,1,.51,2.6,2.6,0,0,0,.89.15,1.45,1.45,0,0,0,1-.35,1.39,1.39,0,0,0,.37-1v-.57a1.87,1.87,0,0,1-1.63.77,2.12,2.12,0,0,1-1.68-.76,2.88,2.88,0,0,1-.66-2,2.83,2.83,0,0,1,.66-1.94,2.12,2.12,0,0,1,1.68-.76,1.85,1.85,0,0,1,1.69.85Zm-1.45,4.26a1.28,1.28,0,0,0,1-.48,1.9,1.9,0,0,0,.39-1.24,1.85,1.85,0,0,0-.39-1.23,1.36,1.36,0,0,0-2.05,0,2,2,0,0,0-.38,1.24,2,2,0,0,0,.38,1.25A1.27,1.27,0,0,0,829.29,684.88Z"/><path class="cls-4" d="M837.26,684.34l.67.71a3.85,3.85,0,0,1-1.12.83,3.08,3.08,0,0,1-1.24.24,2.65,2.65,0,0,1-2-.76,2.82,2.82,0,0,1-.74-2,3,3,0,0,1,.72-2.07,2.39,2.39,0,0,1,1.9-.8,2.36,2.36,0,0,1,1.82.69,2.74,2.74,0,0,1,.64,1.93,4.19,4.19,0,0,1,0,.48H834a1.83,1.83,0,0,0,.47,1.15,1.54,1.54,0,0,0,1.13.43,1.81,1.81,0,0,0,.82-.17A4.26,4.26,0,0,0,837.26,684.34Zm-1.83-3a1.33,1.33,0,0,0-.93.35,1.75,1.75,0,0,0-.48,1h2.75a1.43,1.43,0,0,0-.38-1A1.27,1.27,0,0,0,835.43,681.38Z"/><path class="cls-4" d="M840.94,680.46a3.37,3.37,0,0,1,1.2.18,3.56,3.56,0,0,1,1.06.62l-.64.78a3.51,3.51,0,0,0-.83-.51,2.55,2.55,0,0,0-.81-.13,1.33,1.33,0,0,0-.74.18.54.54,0,0,0-.28.47q0,.35.51.48c.1,0,.38.11.82.21a4.42,4.42,0,0,1,1.6.61,1.28,1.28,0,0,1,.46,1.06,1.51,1.51,0,0,1-.61,1.24,2.54,2.54,0,0,1-1.62.47,3.58,3.58,0,0,1-1.32-.22,4.38,4.38,0,0,1-1.21-.78l.68-.76a4.18,4.18,0,0,0,1,.64,2.19,2.19,0,0,0,.9.18,1.36,1.36,0,0,0,.76-.19.55.55,0,0,0,0-1,5.16,5.16,0,0,0-1.09-.31,4.1,4.1,0,0,1-1.55-.59,1.22,1.22,0,0,1-.4-1,1.41,1.41,0,0,1,.59-1.17A2.43,2.43,0,0,1,840.94,680.46Z"/><path class="cls-4" d="M846.21,680.46a3.44,3.44,0,0,1,1.2.18,3.83,3.83,0,0,1,1.06.62l-.64.78a3.35,3.35,0,0,0-.84-.51,2.48,2.48,0,0,0-.8-.13,1.39,1.39,0,0,0-.75.18.55.55,0,0,0-.27.47q0,.35.51.48c.1,0,.37.11.82.21a4.28,4.28,0,0,1,1.59.61,1.25,1.25,0,0,1,.46,1.06,1.48,1.48,0,0,1-.61,1.24,2.51,2.51,0,0,1-1.61.47,3.58,3.58,0,0,1-1.32-.22,4.27,4.27,0,0,1-1.22-.78l.69-.76a4,4,0,0,0,1,.64,2.21,2.21,0,0,0,.91.18,1.33,1.33,0,0,0,.75-.19.56.56,0,0,0,.3-.5.58.58,0,0,0-.3-.49,5.59,5.59,0,0,0-1.09-.31,4,4,0,0,1-1.55-.59,1.22,1.22,0,0,1-.41-1,1.44,1.44,0,0,1,.59-1.17A2.46,2.46,0,0,1,846.21,680.46Z"/><path class="cls-4" d="M851.83,680.46a2.46,2.46,0,0,1,1.66.5,1.66,1.66,0,0,1,.59,1.36V686H853v-.61a2,2,0,0,1-1.77.78,2.26,2.26,0,0,1-1.38-.39,1.28,1.28,0,0,1-.53-1.13,1.4,1.4,0,0,1,.59-1.21,4.86,4.86,0,0,1,1.8-.66l1.23-.22v-.19a.83.83,0,0,0-.3-.68,1.26,1.26,0,0,0-.81-.24,1.82,1.82,0,0,0-.86.2,3.77,3.77,0,0,0-.85.69l-.74-.69A3,3,0,0,1,851.83,680.46Zm-.4,4.74a1.64,1.64,0,0,0,1.1-.36,1.18,1.18,0,0,0,.44-1v-.49l-.93.19a4.17,4.17,0,0,0-1.19.39.65.65,0,0,0-.35.6.53.53,0,0,0,.25.47A1.2,1.2,0,0,0,851.43,685.2Z"/><path class="cls-4" d="M856.61,684.6V686h-1.32V684.6Z"/><path class="cls-4" d="M862.23,681.48l-.74.71a2.92,2.92,0,0,0-.74-.59,1.73,1.73,0,0,0-.72-.16,1.27,1.27,0,0,0-1.1.54,2.14,2.14,0,0,0-.39,1.31,2.06,2.06,0,0,0,.4,1.32,1.32,1.32,0,0,0,1.09.51,1.54,1.54,0,0,0,.75-.18,3.52,3.52,0,0,0,.77-.67l.77.65a3.29,3.29,0,0,1-1.06.93,2.58,2.58,0,0,1-1.24.27,2.54,2.54,0,0,1-1.94-.77,2.85,2.85,0,0,1-.73-2.06,2.89,2.89,0,0,1,.74-2.06,2.58,2.58,0,0,1,1.95-.77,2.78,2.78,0,0,1,1.19.23A3.15,3.15,0,0,1,862.23,681.48Z"/><path class="cls-4" d="M865.43,680.46a2.59,2.59,0,0,1,2,.79,3.12,3.12,0,0,1,0,4.08,2.59,2.59,0,0,1-2,.79,2.62,2.62,0,0,1-2-.78,3.14,3.14,0,0,1,0-4.1A2.62,2.62,0,0,1,865.43,680.46Zm0,1a1.35,1.35,0,0,0-1.11.51,2.35,2.35,0,0,0,0,2.68,1.46,1.46,0,0,0,2.22,0,2.35,2.35,0,0,0,0-2.68A1.37,1.37,0,0,0,865.43,681.44Z"/><rect class="cls-5" x="521.98" y="327.71" width="866.41" height="414.65"/></g></svg>