<svg xmlns="http://www.w3.org/2000/svg" viewBox="0 0 1920 1080"><defs><style>.cls-1{fill:#fff;}</style></defs><g id="Layer_2" data-name="Layer 2"><rect class="cls-1" width="1920" height="1080"/></g><g id="Layer_1" data-name="Layer 1"><rect x="720.51" y="473" width="156" height="33" transform="translate(1288.01 -309.01) rotate(90)"/><rect x="803.01" y="489.5" width="123" height="33" transform="translate(1370.51 -358.51) rotate(90)"/><rect x="1001.01" y="489.5" width="123" height="33" transform="translate(1568.51 -556.51) rotate(90)"/><rect x="935.01" y="489.5" width="123" height="33" transform="translate(1502.51 -490.51) rotate(90)"/><rect x="848.01" y="534.5" width="231" height="33" transform="translate(1927.02 1102) rotate(180)"/><rect x="1111.97" y="534.5" width="156" height="33" transform="translate(2379.94 1102) rotate(180)"/><rect x="1101.44" y="473" width="177.05" height="33" transform="translate(1776.11 1634.95) rotate(-139.46)"/><rect x="1111.97" y="411.5" width="156" height="33" transform="translate(2379.94 856) rotate(180)"/><rect x="1162.74" y="381.5" width="105.23" height="15" transform="translate(2430.71 778) rotate(180)"/><path d="M809,645.5l-18.92,52h9.58l3.63-10h23.53l3.64,10H840l-18.93-52Zm-2.43,33L815,655.18l8.48,23.32Z"/><polygon points="697.01 576.5 697.01 567.5 659.01 567.5 659.01 619.5 697.01 619.5 697.01 610.5 670.01 610.5 670.01 596.5 693.01 596.5 693.01 587.5 670.01 587.5 670.01 576.5 697.01 576.5"/><path d="M706,516.5l-28.44-5L676,520.35l14.14,2.49c-1.82,6.25-6.53,10.66-14.14,10.66-10,0-15-7-15-18s5-18,15-18c7.11,0,11.69,3.55,13.75,9.55l10-3.64C695.83,493.86,687,488.5,676,488.5c-15,0-26,10-26,27s11,27,26,27a20.14,20.14,0,0,0,15.26-6.9l.73,5.9h7V524.4l5.43,1Z"/><path d="M685.69,667.79l-8.89-1.57c-4.66-.82-7.79-2.72-7.79-6.72s3.64-6,8.5-6c4.17,0,7.67,2.22,8.57,4.75l9.92-3.62c-2.45-5.77-9.24-10.13-18.49-10.13h0c-11.73,0-19.5,6-19.5,15s6.82,13.75,14.54,15.11L680.7,676c4.35.77,7.31,3.42,7.31,6.46,0,5-4.57,7-10.5,7-5,0-9.25-2.88-10.43-5.59L657,687.57c2.64,6.43,10.31,10.93,20.5,10.93,12.7,0,21.5-6,21.5-16C699,674.5,693.75,669.21,685.69,667.79Z"/><path d="M753.69,667.79l-8.89-1.57c-4.66-.82-7.8-2.72-7.8-6.72s3.65-6,8.5-6c4.18,0,7.68,2.22,8.57,4.75l9.93-3.62c-2.45-5.77-9.24-10.13-18.5-10.13h0c-11.72,0-19.5,6-19.5,15s6.83,13.75,14.54,15.11l8.15,1.43c4.36.77,7.31,3.42,7.31,6.46,0,5-4.56,7-10.5,7-5,0-9.25-2.88-10.42-5.59L725,687.57c2.64,6.43,10.31,10.93,20.49,10.93,12.71,0,21.5-6,21.5-16C767,674.5,761.75,669.21,753.69,667.79Z"/></g></svg>