<svg xmlns="http://www.w3.org/2000/svg" viewBox="0 0 1920 1080"><defs><style>.cls-1{fill:#fff;}</style></defs><g id="Layer_2" data-name="Layer 2"><rect width="1920" height="1080"/></g><g id="Layer_1" data-name="Layer 1"><polygon class="cls-1" points="1827.79 1016.44 1892.07 1027.77 1892.07 1016.44 1827.79 1016.44"/><polygon class="cls-1" points="1763.51 1016.44 1827.79 1027.77 1827.79 1016.44 1763.51 1016.44"/><polygon class="cls-1" points="1699.23 1016.44 1763.51 1027.77 1763.51 1016.44 1699.23 1016.44"/><polygon class="cls-1" points="1634.95 1016.44 1699.23 1027.77 1699.23 1016.44 1634.95 1016.44"/><polygon class="cls-1" points="1570.67 1016.44 1634.95 1027.77 1634.95 1016.44 1570.67 1016.44"/><polygon class="cls-1" points="1506.39 1016.44 1570.67 1027.77 1570.67 1016.44 1506.39 1016.44"/><polygon class="cls-1" points="1442.11 1016.44 1506.39 1027.77 1506.39 1016.44 1442.11 1016.44"/><polygon class="cls-1" points="1377.83 1016.44 1442.11 1027.77 1442.11 1016.44 1377.83 1016.44"/><polygon class="cls-1" points="1313.55 1016.44 1377.83 1027.77 1377.83 1016.44 1313.55 1016.44"/><polygon class="cls-1" points="1249.26 1016.44 1313.55 1027.77 1313.55 1016.44 1249.26 1016.44"/><polygon class="cls-1" points="1184.98 1016.44 1249.26 1027.77 1249.26 1016.44 1184.98 1016.44"/><polygon class="cls-1" points="1120.7 1016.44 1184.98 1027.77 1184.98 1016.44 1120.7 1016.44"/><polygon class="cls-1" points="1056.42 1016.44 1120.7 1027.77 1120.7 1016.44 1056.42 1016.44"/><polygon class="cls-1" points="992.14 1016.44 1056.42 1027.77 1056.42 1016.44 992.14 1016.44"/><polygon class="cls-1" points="927.86 1016.44 992.14 1027.77 992.14 1016.44 927.86 1016.44"/><polygon class="cls-1" points="863.58 1016.44 927.86 1027.77 927.86 1016.44 863.58 1016.44"/><polygon class="cls-1" points="799.3 1016.44 863.58 1027.77 863.58 1016.44 799.3 1016.44"/><polygon class="cls-1" points="735.02 1016.44 799.3 1027.77 799.3 1016.44 735.02 1016.44"/><polygon class="cls-1" points="670.74 1016.44 735.02 1027.77 735.02 1016.44 670.74 1016.44"/><polygon class="cls-1" points="606.46 1016.44 670.74 1027.77 670.74 1016.44 606.46 1016.44"/><polygon class="cls-1" points="542.17 1016.44 606.46 1027.77 606.46 1016.44 542.17 1016.44"/><polygon class="cls-1" points="477.89 1016.44 542.17 1027.77 542.17 1016.44 477.89 1016.44"/><polygon class="cls-1" points="413.61 1016.44 477.89 1027.77 477.89 1016.44 413.61 1016.44"/><polygon class="cls-1" points="349.33 1016.44 413.61 1027.77 413.61 1016.44 349.33 1016.44"/><polygon class="cls-1" points="285.05 1016.44 349.33 1027.77 349.33 1016.44 285.05 1016.44"/><polygon class="cls-1" points="220.77 1016.44 285.05 1027.77 285.05 1016.44 220.77 1016.44"/><polygon class="cls-1" points="156.49 1016.44 220.77 1027.77 220.77 1016.44 156.49 1016.44"/><polygon class="cls-1" points="92.21 1016.44 156.49 1027.77 156.49 1016.44 92.21 1016.44"/><polygon class="cls-1" points="27.93 1016.44 92.21 1027.77 92.21 1016.44 27.93 1016.44"/><polygon class="cls-1" points="1827.79 952.16 1892.07 963.49 1892.07 952.16 1827.79 952.16"/><polygon class="cls-1" points="1763.51 952.16 1827.79 963.49 1827.79 952.16 1763.51 952.16"/><polygon class="cls-1" points="1699.23 952.16 1763.51 963.49 1763.51 952.16 1699.23 952.16"/><polygon class="cls-1" points="1634.95 952.16 1699.23 963.49 1699.23 952.16 1634.95 952.16"/><polygon class="cls-1" points="1570.67 952.16 1634.95 963.49 1634.95 952.16 1570.67 952.16"/><polygon class="cls-1" points="1506.39 952.16 1570.67 963.49 1570.67 952.16 1506.39 952.16"/><polygon class="cls-1" points="1442.11 952.16 1506.39 963.49 1506.39 952.16 1442.11 952.16"/><polygon class="cls-1" points="1377.83 952.16 1442.11 963.49 1442.11 952.16 1377.83 952.16"/><polygon class="cls-1" points="1313.55 952.16 1377.83 963.49 1377.83 952.16 1313.55 952.16"/><polygon class="cls-1" points="1249.26 952.16 1313.55 963.49 1313.55 952.16 1249.26 952.16"/><polygon class="cls-1" points="1184.98 952.16 1249.26 963.49 1249.26 952.16 1184.98 952.16"/><polygon class="cls-1" points="1120.7 952.16 1184.98 963.49 1184.98 952.16 1120.7 952.16"/><polygon class="cls-1" points="1056.42 952.16 1120.7 963.49 1120.7 952.16 1056.42 952.16"/><polygon class="cls-1" points="992.14 952.16 1056.42 963.49 1056.42 952.16 992.14 952.16"/><polygon class="cls-1" points="927.86 952.16 992.14 963.49 992.14 952.16 927.86 952.16"/><polygon class="cls-1" points="863.58 952.16 927.86 963.49 927.86 952.16 863.58 952.16"/><polygon class="cls-1" points="799.3 952.16 863.58 963.49 863.58 952.16 799.3 952.16"/><polygon class="cls-1" points="735.02 952.16 799.3 963.49 799.3 952.16 735.02 952.16"/><polygon class="cls-1" points="670.74 952.16 735.02 963.49 735.02 952.16 670.74 952.16"/><polygon class="cls-1" points="606.46 952.16 670.74 963.49 670.74 952.16 606.46 952.16"/><polygon class="cls-1" points="542.17 952.16 606.46 963.49 606.46 952.16 542.17 952.16"/><polygon class="cls-1" points="477.89 952.16 542.17 963.49 542.17 952.16 477.89 952.16"/><polygon class="cls-1" points="413.61 952.16 477.89 963.49 477.89 952.16 413.61 952.16"/><polygon class="cls-1" points="349.33 952.16 413.61 963.49 413.61 952.16 349.33 952.16"/><polygon class="cls-1" points="285.05 952.16 349.33 963.49 349.33 952.16 285.05 952.16"/><polygon class="cls-1" points="220.77 952.16 285.05 963.49 285.05 952.16 220.77 952.16"/><polygon class="cls-1" points="156.49 952.16 220.77 963.49 220.77 952.16 156.49 952.16"/><polygon class="cls-1" points="92.21 952.16 156.49 963.49 156.49 952.16 92.21 952.16"/><polygon class="cls-1" points="27.93 952.16 92.21 963.49 92.21 952.16 27.93 952.16"/><polygon class="cls-1" points="1827.79 887.88 1892.07 899.21 1892.07 887.88 1827.79 887.88"/><polygon class="cls-1" points="1763.51 887.88 1827.79 899.21 1827.79 887.88 1763.51 887.88"/><polygon class="cls-1" points="1699.23 887.88 1763.51 899.21 1763.51 887.88 1699.23 887.88"/><polygon class="cls-1" points="1634.95 887.88 1699.23 899.21 1699.23 887.88 1634.95 887.88"/><polygon class="cls-1" points="1570.67 887.88 1634.95 899.21 1634.95 887.88 1570.67 887.88"/><polygon class="cls-1" points="1506.39 887.88 1570.67 899.21 1570.67 887.88 1506.39 887.88"/><polygon class="cls-1" points="1442.11 887.88 1506.39 899.21 1506.39 887.88 1442.11 887.88"/><polygon class="cls-1" points="1377.83 887.88 1442.11 899.21 1442.11 887.88 1377.83 887.88"/><polygon class="cls-1" points="1313.55 887.88 1377.83 899.21 1377.83 887.88 1313.55 887.88"/><polygon class="cls-1" points="1249.26 887.88 1313.55 899.21 1313.55 887.88 1249.26 887.88"/><polygon class="cls-1" points="1184.98 887.88 1249.26 899.21 1249.26 887.88 1184.98 887.88"/><polygon class="cls-1" points="1120.7 887.88 1184.98 899.21 1184.98 887.88 1120.7 887.88"/><polygon class="cls-1" points="1056.42 887.88 1120.7 899.21 1120.7 887.88 1056.42 887.88"/><polygon class="cls-1" points="992.14 887.88 1056.42 899.21 1056.42 887.88 992.14 887.88"/><polygon class="cls-1" points="927.86 887.88 992.14 899.21 992.14 887.88 927.86 887.88"/><polygon class="cls-1" points="863.58 887.88 927.86 899.21 927.86 887.88 863.58 887.88"/><polygon class="cls-1" points="799.3 887.88 863.58 899.21 863.58 887.88 799.3 887.88"/><polygon class="cls-1" points="735.02 887.88 799.3 899.21 799.3 887.88 735.02 887.88"/><polygon class="cls-1" points="670.74 887.88 735.02 899.21 735.02 887.88 670.74 887.88"/><polygon class="cls-1" points="606.46 887.88 670.74 899.21 670.74 887.88 606.46 887.88"/><polygon class="cls-1" points="542.17 887.88 606.46 899.21 606.46 887.88 542.17 887.88"/><polygon class="cls-1" points="477.89 887.88 542.17 899.21 542.17 887.88 477.89 887.88"/><polygon class="cls-1" points="413.61 887.88 477.89 899.21 477.89 887.88 413.61 887.88"/><polygon class="cls-1" points="349.33 887.88 413.61 899.21 413.61 887.88 349.33 887.88"/><polygon class="cls-1" points="285.05 887.88 349.33 899.21 349.33 887.88 285.05 887.88"/><polygon class="cls-1" points="220.77 887.88 285.05 899.21 285.05 887.88 220.77 887.88"/><polygon class="cls-1" points="156.49 887.88 220.77 899.21 220.77 887.88 156.49 887.88"/><polygon class="cls-1" points="92.21 887.88 156.49 899.21 156.49 887.88 92.21 887.88"/><polygon class="cls-1" points="27.93 887.88 92.21 899.21 92.21 887.88 27.93 887.88"/><polygon class="cls-1" points="1827.79 823.6 1892.07 834.93 1892.07 823.6 1827.79 823.6"/><polygon class="cls-1" points="1763.51 823.6 1827.79 834.93 1827.79 823.6 1763.51 823.6"/><polygon class="cls-1" points="1699.23 823.6 1763.51 834.93 1763.51 823.6 1699.23 823.6"/><polygon class="cls-1" points="1634.95 823.6 1699.23 834.93 1699.23 823.6 1634.95 823.6"/><polygon class="cls-1" points="1570.67 823.6 1634.95 834.93 1634.95 823.6 1570.67 823.6"/><polygon class="cls-1" points="1506.39 823.6 1570.67 834.93 1570.67 823.6 1506.39 823.6"/><polygon class="cls-1" points="1442.11 823.6 1506.39 834.93 1506.39 823.6 1442.11 823.6"/><polygon class="cls-1" points="1377.83 823.6 1442.11 834.93 1442.11 823.6 1377.83 823.6"/><polygon class="cls-1" points="1313.55 823.6 1377.83 834.93 1377.83 823.6 1313.55 823.6"/><polygon class="cls-1" points="1249.26 823.6 1313.55 834.93 1313.55 823.6 1249.26 823.6"/><polygon class="cls-1" points="1184.98 823.6 1249.26 834.93 1249.26 823.6 1184.98 823.6"/><polygon class="cls-1" points="1120.7 823.6 1184.98 834.93 1184.98 823.6 1120.7 823.6"/><polygon class="cls-1" points="1056.42 823.6 1120.7 834.93 1120.7 823.6 1056.42 823.6"/><polygon class="cls-1" points="992.14 823.6 1056.42 834.93 1056.42 823.6 992.14 823.6"/><polygon class="cls-1" points="927.86 823.6 992.14 834.93 992.14 823.6 927.86 823.6"/><polygon class="cls-1" points="863.58 823.6 927.86 834.93 927.86 823.6 863.58 823.6"/><polygon class="cls-1" points="799.3 823.6 863.58 834.93 863.58 823.6 799.3 823.6"/><polygon class="cls-1" points="735.02 823.6 799.3 834.93 799.3 823.6 735.02 823.6"/><polygon class="cls-1" points="670.74 823.6 735.02 834.93 735.02 823.6 670.74 823.6"/><polygon class="cls-1" points="606.46 823.6 670.74 834.93 670.74 823.6 606.46 823.6"/><polygon class="cls-1" points="542.17 823.6 606.46 834.93 606.46 823.6 542.17 823.6"/><polygon class="cls-1" points="477.89 823.6 542.17 834.93 542.17 823.6 477.89 823.6"/><polygon class="cls-1" points="413.61 823.6 477.89 834.93 477.89 823.6 413.61 823.6"/><polygon class="cls-1" points="349.33 823.6 413.61 834.93 413.61 823.6 349.33 823.6"/><polygon class="cls-1" points="285.05 823.6 349.33 834.93 349.33 823.6 285.05 823.6"/><polygon class="cls-1" points="220.77 823.6 285.05 834.93 285.05 823.6 220.77 823.6"/><polygon class="cls-1" points="156.49 823.6 220.77 834.93 220.77 823.6 156.49 823.6"/><polygon class="cls-1" points="92.21 823.6 156.49 834.93 156.49 823.6 92.21 823.6"/><polygon class="cls-1" points="27.93 823.6 92.21 834.93 92.21 823.6 27.93 823.6"/><polygon class="cls-1" points="1827.79 759.32 1892.07 770.65 1892.07 759.32 1827.79 759.32"/><polygon class="cls-1" points="1763.51 759.32 1827.79 770.65 1827.79 759.32 1763.51 759.32"/><polygon class="cls-1" points="1699.23 759.32 1763.51 770.65 1763.51 759.32 1699.23 759.32"/><polygon class="cls-1" points="1634.95 759.32 1699.23 770.65 1699.23 759.32 1634.95 759.32"/><polygon class="cls-1" points="1570.67 759.32 1634.95 770.65 1634.95 759.32 1570.67 759.32"/><polygon class="cls-1" points="1506.39 759.32 1570.67 770.65 1570.67 759.32 1506.39 759.32"/><polygon class="cls-1" points="1442.11 759.32 1506.39 770.65 1506.39 759.32 1442.11 759.32"/><polygon class="cls-1" points="1377.83 759.32 1442.11 770.65 1442.11 759.32 1377.83 759.32"/><polygon class="cls-1" points="1313.55 759.32 1377.83 770.65 1377.83 759.32 1313.55 759.32"/><polygon class="cls-1" points="1249.26 759.32 1313.55 770.65 1313.55 759.32 1249.26 759.32"/><polygon class="cls-1" points="1184.98 759.32 1249.26 770.65 1249.26 759.32 1184.98 759.32"/><polygon class="cls-1" points="1120.7 759.32 1184.98 770.65 1184.98 759.32 1120.7 759.32"/><polygon class="cls-1" points="1056.42 759.32 1120.7 770.65 1120.7 759.32 1056.42 759.32"/><polygon class="cls-1" points="992.14 759.32 1056.42 770.65 1056.42 759.32 992.14 759.32"/><polygon class="cls-1" points="927.86 759.32 992.14 770.65 992.14 759.32 927.86 759.32"/><polygon class="cls-1" points="863.58 759.32 927.86 770.65 927.86 759.32 863.58 759.32"/><polygon class="cls-1" points="799.3 759.32 863.58 770.65 863.58 759.32 799.3 759.32"/><polygon class="cls-1" points="735.02 759.32 799.3 770.65 799.3 759.32 735.02 759.32"/><polygon class="cls-1" points="670.74 759.32 735.02 770.65 735.02 759.32 670.74 759.32"/><polygon class="cls-1" points="606.46 759.32 670.74 770.65 670.74 759.32 606.46 759.32"/><polygon class="cls-1" points="542.17 759.32 606.46 770.65 606.46 759.32 542.17 759.32"/><polygon class="cls-1" points="477.89 759.32 542.17 770.65 542.17 759.32 477.89 759.32"/><polygon class="cls-1" points="413.61 759.32 477.89 770.65 477.89 759.32 413.61 759.32"/><polygon class="cls-1" points="349.33 759.32 413.61 770.65 413.61 759.32 349.33 759.32"/><polygon class="cls-1" points="285.05 759.32 349.33 770.65 349.33 759.32 285.05 759.32"/><polygon class="cls-1" points="220.77 759.32 285.05 770.65 285.05 759.32 220.77 759.32"/><polygon class="cls-1" points="156.49 759.32 220.77 770.65 220.77 759.32 156.49 759.32"/><polygon class="cls-1" points="92.21 759.32 156.49 770.65 156.49 759.32 92.21 759.32"/><polygon class="cls-1" points="27.93 759.32 92.21 770.65 92.21 759.32 27.93 759.32"/><polygon class="cls-1" points="1827.79 695.03 1892.07 706.37 1892.07 695.03 1827.79 695.03"/><polygon class="cls-1" points="1763.51 695.03 1827.79 706.37 1827.79 695.03 1763.51 695.03"/><polygon class="cls-1" points="1699.23 695.03 1763.51 706.37 1763.51 695.03 1699.23 695.03"/><polygon class="cls-1" points="1634.95 695.03 1699.23 706.37 1699.23 695.03 1634.95 695.03"/><polygon class="cls-1" points="1570.67 695.03 1634.95 706.37 1634.95 695.03 1570.67 695.03"/><polygon class="cls-1" points="1506.39 695.03 1570.67 706.37 1570.67 695.03 1506.39 695.03"/><polygon class="cls-1" points="1442.11 695.03 1506.39 706.37 1506.39 695.03 1442.11 695.03"/><polygon class="cls-1" points="1377.83 695.03 1442.11 706.37 1442.11 695.03 1377.83 695.03"/><polygon class="cls-1" points="1313.55 695.03 1377.83 706.37 1377.83 695.03 1313.55 695.03"/><polygon class="cls-1" points="1249.26 695.03 1313.55 706.37 1313.55 695.03 1249.26 695.03"/><polygon class="cls-1" points="1184.98 695.03 1249.26 706.37 1249.26 695.03 1184.98 695.03"/><polygon class="cls-1" points="1120.7 695.03 1184.98 706.37 1184.98 695.03 1120.7 695.03"/><polygon class="cls-1" points="1056.42 695.03 1120.7 706.37 1120.7 695.03 1056.42 695.03"/><polygon class="cls-1" points="992.14 695.03 1056.42 706.37 1056.42 695.03 992.14 695.03"/><polygon class="cls-1" points="927.86 695.03 992.14 706.37 992.14 695.03 927.86 695.03"/><polygon class="cls-1" points="863.58 695.03 927.86 706.37 927.86 695.03 863.58 695.03"/><polygon class="cls-1" points="799.3 695.03 863.58 706.37 863.58 695.03 799.3 695.03"/><polygon class="cls-1" points="735.02 695.03 799.3 706.37 799.3 695.03 735.02 695.03"/><polygon class="cls-1" points="670.74 695.03 735.02 706.37 735.02 695.03 670.74 695.03"/><polygon class="cls-1" points="606.46 695.03 670.74 706.37 670.74 695.03 606.46 695.03"/><polygon class="cls-1" points="542.17 695.03 606.46 706.37 606.46 695.03 542.17 695.03"/><polygon class="cls-1" points="477.89 695.03 542.17 706.37 542.17 695.03 477.89 695.03"/><polygon class="cls-1" points="413.61 695.03 477.89 706.37 477.89 695.03 413.61 695.03"/><polygon class="cls-1" points="349.33 695.03 413.61 706.37 413.61 695.03 349.33 695.03"/><polygon class="cls-1" points="285.05 695.03 349.33 706.37 349.33 695.03 285.05 695.03"/><polygon class="cls-1" points="220.77 695.03 285.05 706.37 285.05 695.03 220.77 695.03"/><polygon class="cls-1" points="156.49 695.03 220.77 706.37 220.77 695.03 156.49 695.03"/><polygon class="cls-1" points="92.21 695.03 156.49 706.37 156.49 695.03 92.21 695.03"/><polygon class="cls-1" points="27.93 695.03 92.21 706.37 92.21 695.03 27.93 695.03"/><polygon class="cls-1" points="1827.79 630.75 1892.07 642.09 1892.07 630.75 1827.79 630.75"/><polygon class="cls-1" points="1763.51 630.75 1827.79 642.09 1827.79 630.75 1763.51 630.75"/><polygon class="cls-1" points="1699.23 630.75 1763.51 642.09 1763.51 630.75 1699.23 630.75"/><polygon class="cls-1" points="1634.95 630.75 1699.23 642.09 1699.23 630.75 1634.95 630.75"/><polygon class="cls-1" points="1570.67 630.75 1634.95 642.09 1634.95 630.75 1570.67 630.75"/><polygon class="cls-1" points="1506.39 630.75 1570.67 642.09 1570.67 630.75 1506.39 630.75"/><polygon class="cls-1" points="1442.11 630.75 1506.39 642.09 1506.39 630.75 1442.11 630.75"/><polygon class="cls-1" points="1377.83 630.75 1442.11 642.09 1442.11 630.75 1377.83 630.75"/><polygon class="cls-1" points="1313.55 630.75 1377.83 642.09 1377.83 630.75 1313.55 630.75"/><polygon class="cls-1" points="1249.26 630.75 1313.55 642.09 1313.55 630.75 1249.26 630.75"/><polygon class="cls-1" points="1184.98 630.75 1249.26 642.09 1249.26 630.75 1184.98 630.75"/><polygon class="cls-1" points="1120.7 630.75 1184.98 642.09 1184.98 630.75 1120.7 630.75"/><polygon class="cls-1" points="1056.42 630.75 1120.7 642.09 1120.7 630.75 1056.42 630.75"/><polygon class="cls-1" points="992.14 630.75 1056.42 642.09 1056.42 630.75 992.14 630.75"/><polygon class="cls-1" points="927.86 630.75 992.14 642.09 992.14 630.75 927.86 630.75"/><polygon class="cls-1" points="863.58 630.75 927.86 642.09 927.86 630.75 863.58 630.75"/><polygon class="cls-1" points="799.3 630.75 863.58 642.09 863.58 630.75 799.3 630.75"/><polygon class="cls-1" points="735.02 630.75 799.3 642.09 799.3 630.75 735.02 630.75"/><polygon class="cls-1" points="670.74 630.75 735.02 642.09 735.02 630.75 670.74 630.75"/><polygon class="cls-1" points="606.46 630.75 670.74 642.09 670.74 630.75 606.46 630.75"/><polygon class="cls-1" points="542.17 630.75 606.46 642.09 606.46 630.75 542.17 630.75"/><polygon class="cls-1" points="477.89 630.75 542.17 642.09 542.17 630.75 477.89 630.75"/><polygon class="cls-1" points="413.61 630.75 477.89 642.09 477.89 630.75 413.61 630.75"/><polygon class="cls-1" points="349.33 630.75 413.61 642.09 413.61 630.75 349.33 630.75"/><polygon class="cls-1" points="285.05 630.75 349.33 642.09 349.33 630.75 285.05 630.75"/><polygon class="cls-1" points="220.77 630.75 285.05 642.09 285.05 630.75 220.77 630.75"/><polygon class="cls-1" points="156.49 630.75 220.77 642.09 220.77 630.75 156.49 630.75"/><polygon class="cls-1" points="92.21 630.75 156.49 642.09 156.49 630.75 92.21 630.75"/><polygon class="cls-1" points="27.93 630.75 92.21 642.09 92.21 630.75 27.93 630.75"/><polygon class="cls-1" points="1827.79 566.47 1892.07 577.81 1892.07 566.47 1827.79 566.47"/><polygon class="cls-1" points="1763.51 566.47 1827.79 577.81 1827.79 566.47 1763.51 566.47"/><polygon class="cls-1" points="1699.23 566.47 1763.51 577.81 1763.51 566.47 1699.23 566.47"/><polygon class="cls-1" points="1634.95 566.47 1699.23 577.81 1699.23 566.47 1634.95 566.47"/><polygon class="cls-1" points="1570.67 566.47 1634.95 577.81 1634.95 566.47 1570.67 566.47"/><polygon class="cls-1" points="1506.39 566.47 1570.67 577.81 1570.67 566.47 1506.39 566.47"/><polygon class="cls-1" points="1442.11 566.47 1506.39 577.81 1506.39 566.47 1442.11 566.47"/><polygon class="cls-1" points="1377.83 566.47 1442.11 577.81 1442.11 566.47 1377.83 566.47"/><polygon class="cls-1" points="1313.55 566.47 1377.83 577.81 1377.83 566.47 1313.55 566.47"/><polygon class="cls-1" points="1249.26 566.47 1313.55 577.81 1313.55 566.47 1249.26 566.47"/><polygon class="cls-1" points="1184.98 566.47 1249.26 577.81 1249.26 566.47 1184.98 566.47"/><polygon class="cls-1" points="1120.7 566.47 1184.98 577.81 1184.98 566.47 1120.7 566.47"/><polygon class="cls-1" points="1056.42 566.47 1120.7 577.81 1120.7 566.47 1056.42 566.47"/><polygon class="cls-1" points="992.14 566.47 1056.42 577.81 1056.42 566.47 992.14 566.47"/><polygon class="cls-1" points="927.86 566.47 992.14 577.81 992.14 566.47 927.86 566.47"/><polygon class="cls-1" points="863.58 566.47 927.86 577.81 927.86 566.47 863.58 566.47"/><polygon class="cls-1" points="799.3 566.47 863.58 577.81 863.58 566.47 799.3 566.47"/><polygon class="cls-1" points="735.02 566.47 799.3 577.81 799.3 566.47 735.02 566.47"/><polygon class="cls-1" points="670.74 566.47 735.02 577.81 735.02 566.47 670.74 566.47"/><polygon class="cls-1" points="606.46 566.47 670.74 577.81 670.74 566.47 606.46 566.47"/><polygon class="cls-1" points="542.17 566.47 606.46 577.81 606.46 566.47 542.17 566.47"/><polygon class="cls-1" points="477.89 566.47 542.17 577.81 542.17 566.47 477.89 566.47"/><polygon class="cls-1" points="413.61 566.47 477.89 577.81 477.89 566.47 413.61 566.47"/><polygon class="cls-1" points="349.33 566.47 413.61 577.81 413.61 566.47 349.33 566.47"/><polygon class="cls-1" points="285.05 566.47 349.33 577.81 349.33 566.47 285.05 566.47"/><polygon class="cls-1" points="220.77 566.47 285.05 577.81 285.05 566.47 220.77 566.47"/><polygon class="cls-1" points="156.49 566.47 220.77 577.81 220.77 566.47 156.49 566.47"/><polygon class="cls-1" points="92.21 566.47 156.49 577.81 156.49 566.47 92.21 566.47"/><polygon class="cls-1" points="27.93 566.47 92.21 577.81 92.21 566.47 27.93 566.47"/><polygon class="cls-1" points="1827.79 502.19 1892.07 513.53 1892.07 502.19 1827.79 502.19"/><polygon class="cls-1" points="1763.51 502.19 1827.79 513.53 1827.79 502.19 1763.51 502.19"/><polygon class="cls-1" points="1699.23 502.19 1763.51 513.53 1763.51 502.19 1699.23 502.19"/><polygon class="cls-1" points="1634.95 502.19 1699.23 513.53 1699.23 502.19 1634.95 502.19"/><polygon class="cls-1" points="1570.67 502.19 1634.95 513.53 1634.95 502.19 1570.67 502.19"/><polygon class="cls-1" points="1506.39 502.19 1570.67 513.53 1570.67 502.19 1506.39 502.19"/><polygon class="cls-1" points="1442.11 502.19 1506.39 513.53 1506.39 502.19 1442.11 502.19"/><polygon class="cls-1" points="1377.83 502.19 1442.11 513.53 1442.11 502.19 1377.83 502.19"/><polygon class="cls-1" points="1313.55 502.19 1377.83 513.53 1377.83 502.19 1313.55 502.19"/><polygon class="cls-1" points="1249.26 502.19 1313.55 513.53 1313.55 502.19 1249.26 502.19"/><polygon class="cls-1" points="1184.98 502.19 1249.26 513.53 1249.26 502.19 1184.98 502.19"/><polygon class="cls-1" points="1120.7 502.19 1184.98 513.53 1184.98 502.19 1120.7 502.19"/><polygon class="cls-1" points="1056.42 502.19 1120.7 513.53 1120.7 502.19 1056.42 502.19"/><polygon class="cls-1" points="992.14 502.19 1056.42 513.53 1056.42 502.19 992.14 502.19"/><polygon class="cls-1" points="927.86 502.19 992.14 513.53 992.14 502.19 927.86 502.19"/><polygon class="cls-1" points="863.58 502.19 927.86 513.53 927.86 502.19 863.58 502.19"/><polygon class="cls-1" points="799.3 502.19 863.58 513.53 863.58 502.19 799.3 502.19"/><polygon class="cls-1" points="735.02 502.19 799.3 513.53 799.3 502.19 735.02 502.19"/><polygon class="cls-1" points="670.74 502.19 735.02 513.53 735.02 502.19 670.74 502.19"/><polygon class="cls-1" points="606.46 502.19 670.74 513.53 670.74 502.19 606.46 502.19"/><polygon class="cls-1" points="542.17 502.19 606.46 513.53 606.46 502.19 542.17 502.19"/><polygon class="cls-1" points="477.89 502.19 542.17 513.53 542.17 502.19 477.89 502.19"/><polygon class="cls-1" points="413.61 502.19 477.89 513.53 477.89 502.19 413.61 502.19"/><polygon class="cls-1" points="349.33 502.19 413.61 513.53 413.61 502.19 349.33 502.19"/><polygon class="cls-1" points="285.05 502.19 349.33 513.53 349.33 502.19 285.05 502.19"/><polygon class="cls-1" points="220.77 502.19 285.05 513.53 285.05 502.19 220.77 502.19"/><polygon class="cls-1" points="156.49 502.19 220.77 513.53 220.77 502.19 156.49 502.19"/><polygon class="cls-1" points="92.21 502.19 156.49 513.53 156.49 502.19 92.21 502.19"/><polygon class="cls-1" points="27.93 502.19 92.21 513.53 92.21 502.19 27.93 502.19"/><polygon class="cls-1" points="1827.79 437.91 1892.07 449.25 1892.07 437.91 1827.79 437.91"/><polygon class="cls-1" points="1763.51 437.91 1827.79 449.25 1827.79 437.91 1763.51 437.91"/><polygon class="cls-1" points="1699.23 437.91 1763.51 449.25 1763.51 437.91 1699.23 437.91"/><polygon class="cls-1" points="1634.95 437.91 1699.23 449.25 1699.23 437.91 1634.95 437.91"/><polygon class="cls-1" points="1570.67 437.91 1634.95 449.25 1634.95 437.91 1570.67 437.91"/><polygon class="cls-1" points="1506.39 437.91 1570.67 449.25 1570.67 437.91 1506.39 437.91"/><polygon class="cls-1" points="1442.11 437.91 1506.39 449.25 1506.39 437.91 1442.11 437.91"/><polygon class="cls-1" points="1377.83 437.91 1442.11 449.25 1442.11 437.91 1377.83 437.91"/><polygon class="cls-1" points="1313.55 437.91 1377.83 449.25 1377.83 437.91 1313.55 437.91"/><polygon class="cls-1" points="1249.26 437.91 1313.55 449.25 1313.55 437.91 1249.26 437.91"/><polygon class="cls-1" points="1184.98 437.91 1249.26 449.25 1249.26 437.91 1184.98 437.91"/><polygon class="cls-1" points="1120.7 437.91 1184.98 449.25 1184.98 437.91 1120.7 437.91"/><polygon class="cls-1" points="1056.42 437.91 1120.7 449.25 1120.7 437.91 1056.42 437.91"/><polygon class="cls-1" points="992.14 437.91 1056.42 449.25 1056.42 437.91 992.14 437.91"/><polygon class="cls-1" points="927.86 437.91 992.14 449.25 992.14 437.91 927.86 437.91"/><polygon class="cls-1" points="863.58 437.91 927.86 449.25 927.86 437.91 863.58 437.91"/><polygon class="cls-1" points="799.3 437.91 863.58 449.25 863.58 437.91 799.3 437.91"/><polygon class="cls-1" points="735.02 437.91 799.3 449.25 799.3 437.91 735.02 437.91"/><polygon class="cls-1" points="670.74 437.91 735.02 449.25 735.02 437.91 670.74 437.91"/><polygon class="cls-1" points="606.46 437.91 670.74 449.25 670.74 437.91 606.46 437.91"/><polygon class="cls-1" points="542.17 437.91 606.46 449.25 606.46 437.91 542.17 437.91"/><polygon class="cls-1" points="477.89 437.91 542.17 449.25 542.17 437.91 477.89 437.91"/><polygon class="cls-1" points="413.61 437.91 477.89 449.25 477.89 437.91 413.61 437.91"/><polygon class="cls-1" points="349.33 437.91 413.61 449.25 413.61 437.91 349.33 437.91"/><polygon class="cls-1" points="285.05 437.91 349.33 449.25 349.33 437.91 285.05 437.91"/><polygon class="cls-1" points="220.77 437.91 285.05 449.25 285.05 437.91 220.77 437.91"/><polygon class="cls-1" points="156.49 437.91 220.77 449.25 220.77 437.91 156.49 437.91"/><polygon class="cls-1" points="92.21 437.91 156.49 449.25 156.49 437.91 92.21 437.91"/><polygon class="cls-1" points="27.93 437.91 92.21 449.25 92.21 437.91 27.93 437.91"/><polygon class="cls-1" points="1827.79 373.63 1892.07 384.96 1892.07 373.63 1827.79 373.63"/><polygon class="cls-1" points="1763.51 373.63 1827.79 384.96 1827.79 373.63 1763.51 373.63"/><polygon class="cls-1" points="1699.23 373.63 1763.51 384.96 1763.51 373.63 1699.23 373.63"/><polygon class="cls-1" points="1634.95 373.63 1699.23 384.96 1699.23 373.63 1634.95 373.63"/><polygon class="cls-1" points="1570.67 373.63 1634.95 384.96 1634.95 373.63 1570.67 373.63"/><polygon class="cls-1" points="1506.39 373.63 1570.67 384.96 1570.67 373.63 1506.39 373.63"/><polygon class="cls-1" points="1442.11 373.63 1506.39 384.96 1506.39 373.63 1442.11 373.63"/><polygon class="cls-1" points="1377.83 373.63 1442.11 384.96 1442.11 373.63 1377.83 373.63"/><polygon class="cls-1" points="1313.55 373.63 1377.83 384.96 1377.83 373.63 1313.55 373.63"/><polygon class="cls-1" points="1249.26 373.63 1313.55 384.96 1313.55 373.63 1249.26 373.63"/><polygon class="cls-1" points="1184.98 373.63 1249.26 384.96 1249.26 373.63 1184.98 373.63"/><polygon class="cls-1" points="1120.7 373.63 1184.98 384.96 1184.98 373.63 1120.7 373.63"/><polygon class="cls-1" points="1056.42 373.63 1120.7 384.96 1120.7 373.63 1056.42 373.63"/><polygon class="cls-1" points="992.14 373.63 1056.42 384.96 1056.42 373.63 992.14 373.63"/><polygon class="cls-1" points="927.86 373.63 992.14 384.96 992.14 373.63 927.86 373.63"/><polygon class="cls-1" points="863.58 373.63 927.86 384.96 927.86 373.63 863.58 373.63"/><polygon class="cls-1" points="799.3 373.63 863.58 384.96 863.58 373.63 799.3 373.63"/><polygon class="cls-1" points="735.02 373.63 799.3 384.96 799.3 373.63 735.02 373.63"/><polygon class="cls-1" points="670.74 373.63 735.02 384.96 735.02 373.63 670.74 373.63"/><polygon class="cls-1" points="606.46 373.63 670.74 384.96 670.74 373.63 606.46 373.63"/><polygon class="cls-1" points="542.17 373.63 606.46 384.96 606.46 373.63 542.17 373.63"/><polygon class="cls-1" points="477.89 373.63 542.17 384.96 542.17 373.63 477.89 373.63"/><polygon class="cls-1" points="413.61 373.63 477.89 384.96 477.89 373.63 413.61 373.63"/><polygon class="cls-1" points="349.33 373.63 413.61 384.96 413.61 373.63 349.33 373.63"/><polygon class="cls-1" points="285.05 373.63 349.33 384.96 349.33 373.63 285.05 373.63"/><polygon class="cls-1" points="220.77 373.63 285.05 384.96 285.05 373.63 220.77 373.63"/><polygon class="cls-1" points="156.49 373.63 220.77 384.96 220.77 373.63 156.49 373.63"/><polygon class="cls-1" points="92.21 373.63 156.49 384.96 156.49 373.63 92.21 373.63"/><polygon class="cls-1" points="27.93 373.63 92.21 384.96 92.21 373.63 27.93 373.63"/><polygon class="cls-1" points="1827.79 309.35 1892.07 320.68 1892.07 309.35 1827.79 309.35"/><polygon class="cls-1" points="1763.51 309.35 1827.79 320.68 1827.79 309.35 1763.51 309.35"/><polygon class="cls-1" points="1699.23 309.35 1763.51 320.68 1763.51 309.35 1699.23 309.35"/><polygon class="cls-1" points="1634.95 309.35 1699.23 320.68 1699.23 309.35 1634.95 309.35"/><polygon class="cls-1" points="1570.67 309.35 1634.95 320.68 1634.95 309.35 1570.67 309.35"/><polygon class="cls-1" points="1506.39 309.35 1570.67 320.68 1570.67 309.35 1506.39 309.35"/><polygon class="cls-1" points="1442.11 309.35 1506.39 320.68 1506.39 309.35 1442.11 309.35"/><polygon class="cls-1" points="1377.83 309.35 1442.11 320.68 1442.11 309.35 1377.83 309.35"/><polygon class="cls-1" points="1313.55 309.35 1377.83 320.68 1377.83 309.35 1313.55 309.35"/><polygon class="cls-1" points="1249.26 309.35 1313.55 320.68 1313.55 309.35 1249.26 309.35"/><polygon class="cls-1" points="1184.98 309.35 1249.26 320.68 1249.26 309.35 1184.98 309.35"/><polygon class="cls-1" points="1120.7 309.35 1184.98 320.68 1184.98 309.35 1120.7 309.35"/><polygon class="cls-1" points="1056.42 309.35 1120.7 320.68 1120.7 309.35 1056.42 309.35"/><polygon class="cls-1" points="992.14 309.35 1056.42 320.68 1056.42 309.35 992.14 309.35"/><polygon class="cls-1" points="927.86 309.35 992.14 320.68 992.14 309.35 927.86 309.35"/><polygon class="cls-1" points="863.58 309.35 927.86 320.68 927.86 309.35 863.58 309.35"/><polygon class="cls-1" points="799.3 309.35 863.58 320.68 863.58 309.35 799.3 309.35"/><polygon class="cls-1" points="735.02 309.35 799.3 320.68 799.3 309.35 735.02 309.35"/><polygon class="cls-1" points="670.74 309.35 735.02 320.68 735.02 309.35 670.74 309.35"/><polygon class="cls-1" points="606.46 309.35 670.74 320.68 670.74 309.35 606.46 309.35"/><polygon class="cls-1" points="542.17 309.35 606.46 320.68 606.46 309.35 542.17 309.35"/><polygon class="cls-1" points="477.89 309.35 542.17 320.68 542.17 309.35 477.89 309.35"/><polygon class="cls-1" points="413.61 309.35 477.89 320.68 477.89 309.35 413.61 309.35"/><polygon class="cls-1" points="349.33 309.35 413.61 320.68 413.61 309.35 349.33 309.35"/><polygon class="cls-1" points="285.05 309.35 349.33 320.68 349.33 309.35 285.05 309.35"/><polygon class="cls-1" points="220.77 309.35 285.05 320.68 285.05 309.35 220.77 309.35"/><polygon class="cls-1" points="156.49 309.35 220.77 320.68 220.77 309.35 156.49 309.35"/><polygon class="cls-1" points="92.21 309.35 156.49 320.68 156.49 309.35 92.21 309.35"/><polygon class="cls-1" points="27.93 309.35 92.21 320.68 92.21 309.35 27.93 309.35"/><polygon class="cls-1" points="1827.79 245.07 1892.07 256.4 1892.07 245.07 1827.79 245.07"/><polygon class="cls-1" points="1763.51 245.07 1827.79 256.4 1827.79 245.07 1763.51 245.07"/><polygon class="cls-1" points="1699.23 245.07 1763.51 256.4 1763.51 245.07 1699.23 245.07"/><polygon class="cls-1" points="1634.95 245.07 1699.23 256.4 1699.23 245.07 1634.95 245.07"/><polygon class="cls-1" points="1570.67 245.07 1634.95 256.4 1634.95 245.07 1570.67 245.07"/><polygon class="cls-1" points="1506.39 245.07 1570.67 256.4 1570.67 245.07 1506.39 245.07"/><polygon class="cls-1" points="1442.11 245.07 1506.39 256.4 1506.39 245.07 1442.11 245.07"/><polygon class="cls-1" points="1377.83 245.07 1442.11 256.4 1442.11 245.07 1377.83 245.07"/><polygon class="cls-1" points="1313.55 245.07 1377.83 256.4 1377.83 245.07 1313.55 245.07"/><polygon class="cls-1" points="1249.26 245.07 1313.55 256.4 1313.55 245.07 1249.26 245.07"/><polygon class="cls-1" points="1184.98 245.07 1249.26 256.4 1249.26 245.07 1184.98 245.07"/><polygon class="cls-1" points="1120.7 245.07 1184.98 256.4 1184.98 245.07 1120.7 245.07"/><polygon class="cls-1" points="1056.42 245.07 1120.7 256.4 1120.7 245.07 1056.42 245.07"/><polygon class="cls-1" points="992.14 245.07 1056.42 256.4 1056.42 245.07 992.14 245.07"/><polygon class="cls-1" points="927.86 245.07 992.14 256.4 992.14 245.07 927.86 245.07"/><polygon class="cls-1" points="863.58 245.07 927.86 256.4 927.86 245.07 863.58 245.07"/><polygon class="cls-1" points="799.3 245.07 863.58 256.4 863.58 245.07 799.3 245.07"/><polygon class="cls-1" points="735.02 245.07 799.3 256.4 799.3 245.07 735.02 245.07"/><polygon class="cls-1" points="670.74 245.07 735.02 256.4 735.02 245.07 670.74 245.07"/><polygon class="cls-1" points="606.46 245.07 670.74 256.4 670.74 245.07 606.46 245.07"/><polygon class="cls-1" points="542.17 245.07 606.46 256.4 606.46 245.07 542.17 245.07"/><polygon class="cls-1" points="477.89 245.07 542.17 256.4 542.17 245.07 477.89 245.07"/><polygon class="cls-1" points="413.61 245.07 477.89 256.4 477.89 245.07 413.61 245.07"/><polygon class="cls-1" points="349.33 245.07 413.61 256.4 413.61 245.07 349.33 245.07"/><polygon class="cls-1" points="285.05 245.07 349.33 256.4 349.33 245.07 285.05 245.07"/><polygon class="cls-1" points="220.77 245.07 285.05 256.4 285.05 245.07 220.77 245.07"/><polygon class="cls-1" points="156.49 245.07 220.77 256.4 220.77 245.07 156.49 245.07"/><polygon class="cls-1" points="92.21 245.07 156.49 256.4 156.49 245.07 92.21 245.07"/><polygon class="cls-1" points="27.93 245.07 92.21 256.4 92.21 245.07 27.93 245.07"/><polygon class="cls-1" points="1827.79 180.79 1892.07 192.12 1892.07 180.79 1827.79 180.79"/><polygon class="cls-1" points="1763.51 180.79 1827.79 192.12 1827.79 180.79 1763.51 180.79"/><polygon class="cls-1" points="1699.23 180.79 1763.51 192.12 1763.51 180.79 1699.23 180.79"/><polygon class="cls-1" points="1634.95 180.79 1699.23 192.12 1699.23 180.79 1634.95 180.79"/><polygon class="cls-1" points="1570.67 180.79 1634.95 192.12 1634.95 180.79 1570.67 180.79"/><polygon class="cls-1" points="1506.39 180.79 1570.67 192.12 1570.67 180.79 1506.39 180.79"/><polygon class="cls-1" points="1442.11 180.79 1506.39 192.12 1506.39 180.79 1442.11 180.79"/><polygon class="cls-1" points="1377.83 180.79 1442.11 192.12 1442.11 180.79 1377.83 180.79"/><polygon class="cls-1" points="1313.55 180.79 1377.83 192.12 1377.83 180.79 1313.55 180.79"/><polygon class="cls-1" points="1249.26 180.79 1313.55 192.12 1313.55 180.79 1249.26 180.79"/><polygon class="cls-1" points="1184.98 180.79 1249.26 192.12 1249.26 180.79 1184.98 180.79"/><polygon class="cls-1" points="1120.7 180.79 1184.98 192.12 1184.98 180.79 1120.7 180.79"/><polygon class="cls-1" points="1056.42 180.79 1120.7 192.12 1120.7 180.79 1056.42 180.79"/><polygon class="cls-1" points="992.14 180.79 1056.42 192.12 1056.42 180.79 992.14 180.79"/><polygon class="cls-1" points="927.86 180.79 992.14 192.12 992.14 180.79 927.86 180.79"/><polygon class="cls-1" points="863.58 180.79 927.86 192.12 927.86 180.79 863.58 180.79"/><polygon class="cls-1" points="799.3 180.79 863.58 192.12 863.58 180.79 799.3 180.79"/><polygon class="cls-1" points="735.02 180.79 799.3 192.12 799.3 180.79 735.02 180.79"/><polygon class="cls-1" points="670.74 180.79 735.02 192.12 735.02 180.79 670.74 180.79"/><polygon class="cls-1" points="606.46 180.79 670.74 192.12 670.74 180.79 606.46 180.79"/><polygon class="cls-1" points="542.17 180.79 606.46 192.12 606.46 180.79 542.17 180.79"/><polygon class="cls-1" points="477.89 180.79 542.17 192.12 542.17 180.79 477.89 180.79"/><polygon class="cls-1" points="413.61 180.79 477.89 192.12 477.89 180.79 413.61 180.79"/><polygon class="cls-1" points="349.33 180.79 413.61 192.12 413.61 180.79 349.33 180.79"/><polygon class="cls-1" points="285.05 180.79 349.33 192.12 349.33 180.79 285.05 180.79"/><polygon class="cls-1" points="220.77 180.79 285.05 192.12 285.05 180.79 220.77 180.79"/><polygon class="cls-1" points="156.49 180.79 220.77 192.12 220.77 180.79 156.49 180.79"/><polygon class="cls-1" points="92.21 180.79 156.49 192.12 156.49 180.79 92.21 180.79"/><polygon class="cls-1" points="27.93 180.79 92.21 192.12 92.21 180.79 27.93 180.79"/><polygon class="cls-1" points="1827.79 116.51 1892.07 127.84 1892.07 116.51 1827.79 116.51"/><polygon class="cls-1" points="1763.51 116.51 1827.79 127.84 1827.79 116.51 1763.51 116.51"/><polygon class="cls-1" points="1699.23 116.51 1763.51 127.84 1763.51 116.51 1699.23 116.51"/><polygon class="cls-1" points="1634.95 116.51 1699.23 127.84 1699.23 116.51 1634.95 116.51"/><polygon class="cls-1" points="1570.67 116.51 1634.95 127.84 1634.95 116.51 1570.67 116.51"/><polygon class="cls-1" points="1506.39 116.51 1570.67 127.84 1570.67 116.51 1506.39 116.51"/><polygon class="cls-1" points="1442.11 116.51 1506.39 127.84 1506.39 116.51 1442.11 116.51"/><polygon class="cls-1" points="1377.83 116.51 1442.11 127.84 1442.11 116.51 1377.83 116.51"/><polygon class="cls-1" points="1313.55 116.51 1377.83 127.84 1377.83 116.51 1313.55 116.51"/><polygon class="cls-1" points="1249.26 116.51 1313.55 127.84 1313.55 116.51 1249.26 116.51"/><polygon class="cls-1" points="1184.98 116.51 1249.26 127.84 1249.26 116.51 1184.98 116.51"/><polygon class="cls-1" points="1120.7 116.51 1184.98 127.84 1184.98 116.51 1120.7 116.51"/><polygon class="cls-1" points="1056.42 116.51 1120.7 127.84 1120.7 116.51 1056.42 116.51"/><polygon class="cls-1" points="992.14 116.51 1056.42 127.84 1056.42 116.51 992.14 116.51"/><polygon class="cls-1" points="927.86 116.51 992.14 127.84 992.14 116.51 927.86 116.51"/><polygon class="cls-1" points="863.58 116.51 927.86 127.84 927.86 116.51 863.58 116.51"/><polygon class="cls-1" points="799.3 116.51 863.58 127.84 863.58 116.51 799.3 116.51"/><polygon class="cls-1" points="735.02 116.51 799.3 127.84 799.3 116.51 735.02 116.51"/><polygon class="cls-1" points="670.74 116.51 735.02 127.84 735.02 116.51 670.74 116.51"/><polygon class="cls-1" points="606.46 116.51 670.74 127.84 670.74 116.51 606.46 116.51"/><polygon class="cls-1" points="542.17 116.51 606.46 127.84 606.46 116.51 542.17 116.51"/><polygon class="cls-1" points="477.89 116.51 542.17 127.84 542.17 116.51 477.89 116.51"/><polygon class="cls-1" points="413.61 116.51 477.89 127.84 477.89 116.51 413.61 116.51"/><polygon class="cls-1" points="349.33 116.51 413.61 127.84 413.61 116.51 349.33 116.51"/><polygon class="cls-1" points="285.05 116.51 349.33 127.84 349.33 116.51 285.05 116.51"/><polygon class="cls-1" points="220.77 116.51 285.05 127.84 285.05 116.51 220.77 116.51"/><polygon class="cls-1" points="156.49 116.51 220.77 127.84 220.77 116.51 156.49 116.51"/><polygon class="cls-1" points="92.21 116.51 156.49 127.84 156.49 116.51 92.21 116.51"/><polygon class="cls-1" points="27.93 116.51 92.21 127.84 92.21 116.51 27.93 116.51"/><polygon class="cls-1" points="1827.79 52.23 1892.07 63.56 1892.07 52.23 1827.79 52.23"/><polygon class="cls-1" points="1763.51 52.23 1827.79 63.56 1827.79 52.23 1763.51 52.23"/><polygon class="cls-1" points="1699.23 52.23 1763.51 63.56 1763.51 52.23 1699.23 52.23"/><polygon class="cls-1" points="1634.95 52.23 1699.23 63.56 1699.23 52.23 1634.95 52.23"/><polygon class="cls-1" points="1570.67 52.23 1634.95 63.56 1634.95 52.23 1570.67 52.23"/><polygon class="cls-1" points="1506.39 52.23 1570.67 63.56 1570.67 52.23 1506.39 52.23"/><polygon class="cls-1" points="1442.11 52.23 1506.39 63.56 1506.39 52.23 1442.11 52.23"/><polygon class="cls-1" points="1377.83 52.23 1442.11 63.56 1442.11 52.23 1377.83 52.23"/><polygon class="cls-1" points="1313.55 52.23 1377.83 63.56 1377.83 52.23 1313.55 52.23"/><polygon class="cls-1" points="1249.26 52.23 1313.55 63.56 1313.55 52.23 1249.26 52.23"/><polygon class="cls-1" points="1184.98 52.23 1249.26 63.56 1249.26 52.23 1184.98 52.23"/><polygon class="cls-1" points="1120.7 52.23 1184.98 63.56 1184.98 52.23 1120.7 52.23"/><polygon class="cls-1" points="1056.42 52.23 1120.7 63.56 1120.7 52.23 1056.42 52.23"/><polygon class="cls-1" points="992.14 52.23 1056.42 63.56 1056.42 52.23 992.14 52.23"/><polygon class="cls-1" points="927.86 52.23 992.14 63.56 992.14 52.23 927.86 52.23"/><polygon class="cls-1" points="863.58 52.23 927.86 63.56 927.86 52.23 863.58 52.23"/><polygon class="cls-1" points="799.3 52.23 863.58 63.56 863.58 52.23 799.3 52.23"/><polygon class="cls-1" points="735.02 52.23 799.3 63.56 799.3 52.23 735.02 52.23"/><polygon class="cls-1" points="670.74 52.23 735.02 63.56 735.02 52.23 670.74 52.23"/><polygon class="cls-1" points="606.46 52.23 670.74 63.56 670.74 52.23 606.46 52.23"/><polygon class="cls-1" points="542.17 52.23 606.46 63.56 606.46 52.23 542.17 52.23"/><polygon class="cls-1" points="477.89 52.23 542.17 63.56 542.17 52.23 477.89 52.23"/><polygon class="cls-1" points="413.61 52.23 477.89 63.56 477.89 52.23 413.61 52.23"/><polygon class="cls-1" points="349.33 52.23 413.61 63.56 413.61 52.23 349.33 52.23"/><polygon class="cls-1" points="285.05 52.23 349.33 63.56 349.33 52.23 285.05 52.23"/><polygon class="cls-1" points="220.77 52.23 285.05 63.56 285.05 52.23 220.77 52.23"/><polygon class="cls-1" points="156.49 52.23 220.77 63.56 220.77 52.23 156.49 52.23"/><polygon class="cls-1" points="92.21 52.23 156.49 63.56 156.49 52.23 92.21 52.23"/><polygon class="cls-1" points="27.93 52.23 92.21 63.56 92.21 52.23 27.93 52.23"/></g></svg>