<svg xmlns="http://www.w3.org/2000/svg" xmlns:xlink="http://www.w3.org/1999/xlink" viewBox="0 0 1920 1080"><defs><style>.cls-1,.cls-10,.cls-11,.cls-12,.cls-4,.cls-5,.cls-6,.cls-7,.cls-8,.cls-9{fill:none;}.cls-2{fill:#fff;}.cls-3{clip-path:url(#clip-path);}.cls-10,.cls-11,.cls-12,.cls-4,.cls-5,.cls-6,.cls-7,.cls-8,.cls-9{stroke:#000;stroke-miterlimit:10;}.cls-4{stroke-width:2px;}.cls-6{stroke-width:9px;}.cls-7{stroke-width:8px;}.cls-8{stroke-width:7px;}.cls-9{stroke-width:6px;}.cls-10{stroke-width:5px;}.cls-11{stroke-width:4px;}.cls-12{stroke-width:3px;}</style><clipPath id="clip-path"><rect class="cls-1" x="-1940" y="1100" width="1920" height="1080"/></clipPath></defs><g id="Layer_2" data-name="Layer 2"><rect class="cls-2" width="1920" height="1080"/></g><g id="Layer_1" data-name="Layer 1"><path d="M1128,546,957.4,515.92,948,569.1l84.81,14.95c-10.9,37.48-39.17,64-84.84,64-60,0-90-42-90-108s30-108,90-108c42.69,0,70.18,21.28,82.49,57.32l60.11-21.88C1066.93,410.17,1013.9,378,948,378c-90,0-156,60-156,162s66,162,156,162c37,0,68.57-15.71,91.56-41.41L1044,696h42V593.43l32.62,5.75Z"/><g class="cls-3"><polyline class="cls-4" points="-2.33 695.52 -2.33 749.49 46.71 749.49"/><polyline class="cls-5" points="46.71 641.55 46.71 695.52 95.76 695.52"/><polyline class="cls-6" points="-2.33 1073.31 -2.33 1127.28 46.71 1127.28"/><polyline class="cls-7" points="46.71 1019.34 46.71 1073.31 95.76 1073.31"/><polyline class="cls-8" points="95.76 965.37 95.76 1019.34 144.8 1019.34"/><polyline class="cls-9" points="144.8 911.4 144.8 965.37 193.85 965.37"/><polyline class="cls-10" points="193.85 857.43 193.85 911.4 242.89 911.4"/><polyline class="cls-11" points="242.89 803.46 242.89 857.43 291.94 857.43"/><polyline class="cls-12" points="291.94 749.49 291.94 803.46 340.98 803.46"/><polyline class="cls-4" points="340.98 695.52 340.98 749.49 390.03 749.49"/><polyline class="cls-5" points="390.03 641.55 390.03 695.52 439.07 695.52"/><polyline class="cls-6" points="340.98 1073.31 340.98 1127.28 390.03 1127.28"/><polyline class="cls-7" points="390.03 1019.34 390.03 1073.31 439.07 1073.31"/><polyline class="cls-8" points="439.07 965.37 439.07 1019.34 488.12 1019.34"/><polyline class="cls-9" points="488.12 911.4 488.12 965.37 537.16 965.37"/><polyline class="cls-10" points="537.16 857.43 537.16 911.4 586.21 911.4"/><polyline class="cls-11" points="586.21 803.46 586.21 857.43 635.25 857.43"/><polyline class="cls-12" points="635.25 749.49 635.25 803.46 684.3 803.46"/><polyline class="cls-4" points="684.3 695.52 684.3 749.49 733.35 749.49"/><polyline class="cls-5" points="733.35 641.55 733.35 695.52 782.39 695.52"/><polyline class="cls-6" points="684.3 1073.31 684.3 1127.28 733.35 1127.28"/><polyline class="cls-7" points="733.35 1019.34 733.35 1073.31 782.39 1073.31"/><polyline class="cls-8" points="782.39 965.37 782.39 1019.34 831.44 1019.34"/><polyline class="cls-9" points="831.44 911.4 831.44 965.37 880.48 965.37"/><polyline class="cls-10" points="880.48 857.43 880.48 911.4 929.53 911.4"/><polyline class="cls-11" points="929.53 803.46 929.53 857.43 978.57 857.43"/><polyline class="cls-12" points="978.57 749.49 978.57 803.46 1027.62 803.46"/><polyline class="cls-4" points="1027.62 695.52 1027.62 749.49 1076.66 749.49"/><polyline class="cls-5" points="1076.66 641.55 1076.66 695.52 1125.71 695.52"/><polyline class="cls-6" points="1027.62 1073.31 1027.62 1127.28 1076.66 1127.28"/><polyline class="cls-7" points="1076.66 1019.34 1076.66 1073.31 1125.71 1073.31"/><polyline class="cls-8" points="1125.71 965.37 1125.71 1019.34 1174.75 1019.34"/><polyline class="cls-9" points="1174.75 911.4 1174.75 965.37 1223.8 965.37"/><polyline class="cls-10" points="1223.8 857.43 1223.8 911.4 1272.84 911.4"/><polyline class="cls-11" points="1272.84 803.46 1272.84 857.43 1321.89 857.43"/><polyline class="cls-12" points="1321.89 749.49 1321.89 803.46 1370.93 803.46"/><polyline class="cls-4" points="1370.93 695.52 1370.93 749.49 1419.98 749.49"/><polyline class="cls-5" points="1419.98 641.55 1419.98 695.52 1469.03 695.52"/><polyline class="cls-6" points="1370.93 1073.31 1370.93 1127.28 1419.98 1127.28"/><polyline class="cls-7" points="1419.98 1019.34 1419.98 1073.31 1469.03 1073.31"/><polyline class="cls-8" points="1469.03 965.37 1469.03 1019.34 1518.07 1019.34"/><polyline class="cls-9" points="1518.07 911.4 1518.07 965.37 1567.12 965.37"/><polyline class="cls-10" points="1567.12 857.43 1567.12 911.4 1616.16 911.4"/><polyline class="cls-11" points="1616.16 803.46 1616.16 857.43 1665.21 857.43"/><polyline class="cls-12" points="1665.21 749.49 1665.21 803.46 1714.25 803.46"/><polyline class="cls-4" points="1714.25 695.52 1714.25 749.49 1763.3 749.49"/><polyline class="cls-5" points="1763.3 641.55 1763.3 695.52 1812.34 695.52"/><polyline class="cls-6" points="1714.25 1073.31 1714.25 1127.28 1763.3 1127.28"/><polyline class="cls-7" points="1763.3 1019.34 1763.3 1073.31 1812.34 1073.31"/><polyline class="cls-8" points="1812.34 965.37 1812.34 1019.34 1861.39 1019.34"/><polyline class="cls-9" points="1861.39 911.4 1861.39 965.37 1910.43 965.37"/><polyline class="cls-10" points="1910.43 857.43 1910.43 911.4 1959.48 911.4"/></g></g></svg>