<?xml version="1.0" encoding="utf-8"?>
<!-- Generator: Adobe Illustrator 25.0.0, SVG Export Plug-In . SVG Version: 6.00 Build 0)  -->
<svg version="1.1" id="Layer_1" xmlns="http://www.w3.org/2000/svg" xmlns:xlink="http://www.w3.org/1999/xlink" x="0px" y="0px"
	 viewBox="0 0 1920 1080" style="enable-background:new 0 0 1920 1080;" xml:space="preserve">
<style type="text/css">
	.st0{fill:#B8B8B8;}
	.st1{fill:#FFFFFF;}
	.st2{enable-background:new    ;}
	.st3{fill:#7F7F7F;}
</style>
<g id="Layer_2_1_">
	<rect class="st0" width="1920" height="1080"/>
</g>
<g id="Layer_1_1_">
	<path class="st1" d="M1147.4,604.6l-56.8,156h28.7l10.9-30h70.6l10.9,30h28.7l-56.8-156H1147.4z M1140.1,703.6l25.5-70l25.5,70
		H1140.1z"/>
	<polygon class="st1" points="811.5,397.6 811.5,370.6 697.5,370.6 697.5,526.6 811.5,526.6 811.5,499.6 730.5,499.6 730.5,457.6 
		799.5,457.6 799.5,430.6 730.5,430.6 730.5,397.6 	"/>
	<path class="st1" d="M838.5,217.6l-85.3-15l-4.7,26.6l42.4,7.5c-5.5,18.7-19.6,32-42.4,32c-30,0-45-21-45-54s15-54,45-54
		c21.3,0,35.1,10.6,41.2,28.7l30-10.9c-11.8-28.6-38.3-44.7-71.3-44.7c-45,0-78,30-78,81s33,81,78,81c18.5,0,34.3-7.9,45.8-20.7
		l2.2,17.7h21v-51.4l16.3,2.9L838.5,217.6z"/>
	<path class="st1" d="M777.5,671.5l-26.7-4.7c-14-2.5-23.4-8.2-23.4-20.2s10.9-18,25.5-18c12.5,0,23,6.7,25.7,14.2l29.8-10.9
		c-7.3-17.3-27.7-30.4-55.5-30.4l0,0c-35.2,0-58.5,18-58.5,45s20.5,41.2,43.6,45.3l24.5,4.3c13.1,2.3,21.9,10.2,21.9,19.4
		c0,15-13.7,21-31.5,21c-14.9,0-27.8-8.7-31.3-16.8l-30.2,11c7.9,19.3,30.9,32.8,61.5,32.8c38.1,0,64.5-18,64.5-48
		C817.5,691.6,801.7,675.8,777.5,671.5z"/>
	<path class="st1" d="M981.5,671.5l-26.7-4.7c-14-2.5-23.4-8.2-23.4-20.2s10.9-18,25.5-18c12.5,0,23,6.7,25.7,14.2l29.8-10.9
		c-7.3-17.3-27.7-30.4-55.5-30.4l0,0c-35.2,0-58.5,18-58.5,45s20.5,41.2,43.6,45.3l24.5,4.3c13.1,2.3,21.9,10.2,21.9,19.4
		c0,15-13.7,21-31.5,21c-14.9,0-27.8-8.7-31.3-16.8l-30.2,11c7.9,19.3,30.9,32.8,61.5,32.8c38.1,0,64.5-18,64.5-48
		C1021.5,691.6,1005.7,675.8,981.5,671.5z"/>
	<g class="st2">
		<path class="st1" d="M691.4,917.6h11.2c2.6,0,4.6,0.7,6.1,2.1s2.3,3.3,2.3,5.7s-0.8,4.3-2.3,5.7c-1.5,1.4-3.6,2.1-6.1,2.1h-7.8
			v10.4h-3.4V917.6z M702,920.4h-7.3v9.9h7.3c1.8,0,3.1-0.4,4.1-1.3c1-0.9,1.5-2.1,1.5-3.7s-0.5-2.8-1.5-3.6S703.8,920.4,702,920.4z
			"/>
		<path class="st1" d="M735.3,943.5h-3.8l-6.9-10.4h-6.1v10.4h-3.4v-25.9H726c2.5,0,4.5,0.7,6,2.1c1.6,1.4,2.4,3.3,2.4,5.6
			c0,2-0.6,3.7-1.7,5c-1.1,1.3-2.6,2.2-4.6,2.6L735.3,943.5z M718.5,920.4v9.9h7c1.8,0,3.1-0.4,4.1-1.3c1-0.9,1.5-2.1,1.5-3.7
			s-0.5-2.8-1.5-3.6c-1-0.9-2.4-1.3-4.1-1.3H718.5z"/>
		<path class="st1" d="M756.7,917.6v2.8h-13.9v8.3h12.9v2.8h-12.9v9.1H757v2.8h-17.6v-25.9H756.7z"/>
		<path class="st1" d="M769.9,917c1.9,0,3.7,0.3,5.2,0.9c1.5,0.6,3,1.6,4.6,2.9l-2,2.3c-1.4-1.2-2.6-2-3.8-2.5
			c-1.2-0.5-2.5-0.7-4-0.7c-1.8,0-3.2,0.4-4.3,1.2c-1.1,0.8-1.7,1.8-1.7,3c0,1.6,1,2.7,3,3.4c0.9,0.3,2.3,0.7,4.2,1.1
			c3.4,0.8,5.7,1.7,7,2.8c1.3,1,2,2.6,2,4.7c0,2.4-0.9,4.3-2.7,5.8c-1.8,1.5-4.1,2.2-6.9,2.2c-2.2,0-4-0.4-5.6-1.1
			c-1.7-0.7-3.5-1.9-5.3-3.4l2-2.4c1.8,1.5,3.4,2.5,4.7,3.1c1.3,0.6,2.7,0.8,4.2,0.8c1.8,0,3.3-0.4,4.4-1.3c1.1-0.9,1.7-2.1,1.7-3.6
			c0-1.8-1-3-3.1-3.7c-0.9-0.3-2.3-0.7-4.2-1.1c-3.4-0.8-5.7-1.6-6.9-2.6c-1.3-1-1.9-2.5-1.9-4.5c0-2.1,0.9-3.8,2.7-5.2
			C765.1,917.7,767.3,917,769.9,917z"/>
		<path class="st1" d="M801.8,917.6v2.8h-13.9v8.3h12.9v2.8h-12.9v9.1h14.2v2.8h-17.6v-25.9H801.8z"/>
		<path class="st1" d="M824.2,917.6h3.3v25.9h-3.7l-7.7-11.8c-0.6-0.9-1.1-1.7-1.6-2.4c-2.3-3.5-3.9-6-4.7-7.5
			c0.1,3,0.2,6.3,0.2,10.1v11.6h-3.3v-25.9h3.8l7.8,12c0.1,0.2,0.3,0.5,0.5,0.7c0.2,0.3,0.3,0.4,0.3,0.5c1.5,2.3,2.3,3.5,2.3,3.6
			c0.8,1.2,1.8,2.8,2.9,4.8c-0.1-2.4-0.1-5.7-0.1-9.8V917.6z"/>
		<path class="st1" d="M844.4,917c1.7,0,3.2,0.3,4.6,0.9c1.4,0.6,2.9,1.5,4.4,2.9l-1.9,2.3c-1.3-1.1-2.6-1.9-3.7-2.4
			c-1.1-0.5-2.3-0.7-3.5-0.7c-2.7,0-4.9,1-6.6,2.9c-1.6,2-2.4,4.5-2.4,7.6c0,3.1,0.8,5.7,2.4,7.6s3.7,3,6.3,3c1.4,0,2.7-0.3,3.8-0.9
			c1.1-0.6,2.4-1.5,4-2.9l2,2.3c-1.7,1.6-3.2,2.8-4.7,3.5c-1.5,0.7-3.2,1-5,1c-3.8,0-6.8-1.3-9-3.8s-3.3-5.8-3.3-9.8
			s1.1-7.3,3.3-9.8S840.5,917,844.4,917z"/>
		<path class="st1" d="M874.9,917.6v2.8h-13.9v8.3H874v2.8h-12.9v9.1h14.2v2.8h-17.6v-25.9H874.9z"/>
		<path class="st1" d="M891.8,917.6v25.9h-3.4v-25.9H891.8z"/>
		<path class="st1" d="M915.5,917.6h3.3v25.9H915l-7.7-11.8c-0.6-0.9-1.1-1.7-1.6-2.4c-2.3-3.5-3.9-6-4.7-7.5
			c0.1,3,0.2,6.3,0.2,10.1v11.6H898v-25.9h3.8l7.8,12c0.1,0.2,0.3,0.5,0.5,0.7c0.2,0.3,0.3,0.4,0.3,0.5c1.5,2.3,2.3,3.5,2.3,3.6
			c0.8,1.2,1.8,2.8,2.9,4.8c-0.1-2.4-0.1-5.7-0.1-9.8V917.6z"/>
		<path class="st1" d="M950.2,917.6v2.8h-13.9v8.3h12.9v2.8h-12.9v9.1h14.2v2.8h-17.6v-25.9H950.2z"/>
		<path class="st1" d="M971.2,917.6h3.5l-8.8,25.9h-4.3l-8.8-25.9h3.5l4.3,12.8c1.3,3.9,2.4,7.3,3.2,10.1c0.8-2.7,1.8-6,3.1-10.1
			L971.2,917.6z"/>
		<path class="st1" d="M995.5,917.6v2.8h-13.9v8.3h12.9v2.8h-12.9v9.1h14.2v2.8h-17.6v-25.9H995.5z"/>
		<path class="st1" d="M1020.6,943.5h-3.8l-6.9-10.4h-6.1v10.4h-3.4v-25.9h10.9c2.5,0,4.5,0.7,6,2.1s2.4,3.3,2.4,5.6
			c0,2-0.6,3.7-1.7,5c-1.1,1.3-2.6,2.2-4.6,2.6L1020.6,943.5z M1003.8,920.4v9.9h7c1.8,0,3.1-0.4,4.1-1.3c1-0.9,1.5-2.1,1.5-3.7
			s-0.5-2.8-1.5-3.6c-1-0.9-2.4-1.3-4.1-1.3H1003.8z"/>
		<path class="st1" d="M1039.8,917.6h3.6l-9.2,14.8v11h-3.4v-11.1l-9.1-14.8h3.7l7.1,11.8L1039.8,917.6z"/>
		<path class="st1" d="M1054.5,917.6h9.7c3.6,0,6.4,1.2,8.4,3.6c2,2.4,3,5.5,3,9.4c0,3.9-1,7-3,9.4c-2,2.4-4.8,3.6-8.4,3.6h-9.7
			V917.6z M1063.7,920.4h-5.8v20.3h5.8c2.7,0,4.8-0.9,6.3-2.7c1.5-1.8,2.2-4.3,2.2-7.5c0-3.2-0.8-5.6-2.3-7.4
			C1068.5,921.3,1066.4,920.4,1063.7,920.4z"/>
		<path class="st1" d="M1097.4,917.6v2.8h-13.9v8.3h12.9v2.8h-12.9v9.1h14.2v2.8h-17.6v-25.9H1097.4z"/>
		<path class="st1" d="M1120.1,917.6v2.8h-8.1v23h-3.4v-23h-8.1v-2.8H1120.1z"/>
		<path class="st1" d="M1138.5,943.5l-2.4-6.6h-11.6l-2.4,6.6h-3.4l9.4-25.9h4.4l9.4,25.9H1138.5z M1125.6,934h9.6l-1.2-3.4
			c-1.6-4.5-2.8-8-3.6-10.5c-0.6,1.8-1.1,3.3-1.5,4.6c-0.2,0.6-0.4,1.3-0.7,2.1c-0.3,0.9-0.5,1.4-0.6,1.7l-0.8,2.2L1125.6,934z"/>
		<path class="st1" d="M1149.2,917.6v25.9h-3.4v-25.9H1149.2z"/>
		<path class="st1" d="M1158.8,917.6v23h12.1v2.8h-15.5v-25.9H1158.8z"/>
	</g>
	<path class="st3" d="M1244,761.1h-157v-157h157V761.1z M1088,760.1h155v-155h-155V760.1z"/>
	<path class="st3" d="M1037,761.1H880v-157h157V761.1z M881,760.1h155v-155H881V760.1z"/>
	<path class="st3" d="M1915,917.1h-5v-1h5V917.1z M1905,917.1h-5v-1h5V917.1z M1895,917.1h-5v-1h5V917.1z M1885,917.1h-5v-1h5V917.1
		z M1875,917.1h-5v-1h5V917.1z M1865,917.1h-5v-1h5V917.1z M1855,917.1h-5v-1h5V917.1z M1845,917.1h-5v-1h5V917.1z M1835,917.1h-5
		v-1h5V917.1z M1825,917.1h-5v-1h5V917.1z M1815,917.1h-5v-1h5V917.1z M1805,917.1h-5v-1h5V917.1z M1795,917.1h-5v-1h5V917.1z
		 M1785,917.1h-5v-1h5V917.1z M1775,917.1h-5v-1h5V917.1z M1765,917.1h-5v-1h5V917.1z M1755,917.1h-5v-1h5V917.1z M1745,917.1h-5v-1
		h5V917.1z M1735,917.1h-5v-1h5V917.1z M1725,917.1h-5v-1h5V917.1z M1715,917.1h-5v-1h5V917.1z M1705,917.1h-5v-1h5V917.1z
		 M1695,917.1h-5v-1h5V917.1z M1685,917.1h-5v-1h5V917.1z M1675,917.1h-5v-1h5V917.1z M1665,917.1h-5v-1h5V917.1z M1655,917.1h-5v-1
		h5V917.1z M1645,917.1h-5v-1h5V917.1z M1635,917.1h-5v-1h5V917.1z M1625,917.1h-5v-1h5V917.1z M1615,917.1h-5v-1h5V917.1z
		 M1605,917.1h-5v-1h5V917.1z M1595,917.1h-5v-1h5V917.1z M1585,917.1h-5v-1h5V917.1z M1575,917.1h-5v-1h5V917.1z M1565,917.1h-5v-1
		h5V917.1z M1555,917.1h-5v-1h5V917.1z M1545,917.1h-5v-1h5V917.1z M1535,917.1h-5v-1h5V917.1z M1525,917.1h-5v-1h5V917.1z
		 M1515,917.1h-5v-1h5V917.1z M1505,917.1h-5v-1h5V917.1z M1495,917.1h-5v-1h5V917.1z M1485,917.1h-5v-1h5V917.1z M1475,917.1h-5v-1
		h5V917.1z M1465,917.1h-5v-1h5V917.1z M1455,917.1h-5v-1h5V917.1z M1445,917.1h-5v-1h5V917.1z M1435,917.1h-5v-1h5V917.1z
		 M1425,917.1h-5v-1h5V917.1z M1415,917.1h-5v-1h5V917.1z M1405,917.1h-5v-1h5V917.1z M1395,917.1h-5v-1h5V917.1z M1385,917.1h-5v-1
		h5V917.1z M1375,917.1h-5v-1h5V917.1z M1365,917.1h-5v-1h5V917.1z M1355,917.1h-5v-1h5V917.1z M1345,917.1h-5v-1h5V917.1z
		 M1335,917.1h-5v-1h5V917.1z M1325,917.1h-5v-1h5V917.1z M1315,917.1h-5v-1h5V917.1z M1305,917.1h-5v-1h5V917.1z M1295,917.1h-5v-1
		h5V917.1z M1285,917.1h-5v-1h5V917.1z M1275,917.1h-5v-1h5V917.1z M1265,917.1h-5v-1h5V917.1z M1255,917.1h-5v-1h5V917.1z
		 M1245,917.1h-5v-1h5V917.1z M1235,917.1h-5v-1h5V917.1z M1225,917.1h-5v-1h5V917.1z M1215,917.1h-5v-1h5V917.1z M1205,917.1h-5v-1
		h5V917.1z M1195,917.1h-5v-1h5V917.1z M1185,917.1h-5v-1h5V917.1z M1175,917.1h-5v-1h5V917.1z M1165,917.1h-5v-1h5V917.1z
		 M1155,917.1h-5v-1h5V917.1z M1145,917.1h-5v-1h5V917.1z M1135,917.1h-5v-1h5V917.1z M1125,917.1h-5v-1h5V917.1z M1115,917.1h-5v-1
		h5V917.1z M1105,917.1h-5v-1h5V917.1z M1095,917.1h-5v-1h5V917.1z M1085,917.1h-5v-1h5V917.1z M1075,917.1h-5v-1h5V917.1z
		 M1065,917.1h-5v-1h5V917.1z M1055,917.1h-5v-1h5V917.1z M1045,917.1h-5v-1h5V917.1z M1035,917.1h-5v-1h5V917.1z M1025,917.1h-5v-1
		h5V917.1z M1015,917.1h-5v-1h5V917.1z M1005,917.1h-5v-1h5V917.1z M995,917.1h-5v-1h5V917.1z M985,917.1h-5v-1h5V917.1z M975,917.1
		h-5v-1h5V917.1z M965,917.1h-5v-1h5V917.1z M955,917.1h-5v-1h5V917.1z M945,917.1h-5v-1h5V917.1z M935,917.1h-5v-1h5V917.1z
		 M925,917.1h-5v-1h5V917.1z M915,917.1h-5v-1h5V917.1z M905,917.1h-5v-1h5V917.1z M895,917.1h-5v-1h5V917.1z M885,917.1h-5v-1h5
		V917.1z M875,917.1h-5v-1h5V917.1z M865,917.1h-5v-1h5V917.1z M855,917.1h-5v-1h5V917.1z M845,917.1h-5v-1h5V917.1z M835,917.1h-5
		v-1h5V917.1z M825,917.1h-5v-1h5V917.1z M815,917.1h-5v-1h5V917.1z M805,917.1h-5v-1h5V917.1z M795,917.1h-5v-1h5V917.1z
		 M785,917.1h-5v-1h5V917.1z M775,917.1h-5v-1h5V917.1z M765,917.1h-5v-1h5V917.1z M755,917.1h-5v-1h5V917.1z M745,917.1h-5v-1h5
		V917.1z M735,917.1h-5v-1h5V917.1z M725,917.1h-5v-1h5V917.1z M715,917.1h-5v-1h5V917.1z M705,917.1h-5v-1h5V917.1z M695,917.1h-5
		v-1h5V917.1z M685,917.1h-5v-1h5V917.1z M675,917.1h-5v-1h5V917.1z M665,917.1h-5v-1h5V917.1z M655,917.1h-5v-1h5V917.1z
		 M645,917.1h-5v-1h5V917.1z M635,917.1h-5v-1h5V917.1z M625,917.1h-5v-1h5V917.1z M615,917.1h-5v-1h5V917.1z M605,917.1h-5v-1h5
		V917.1z M595,917.1h-5v-1h5V917.1z M585,917.1h-5v-1h5V917.1z M575,917.1h-5v-1h5V917.1z M565,917.1h-5v-1h5V917.1z M555,917.1h-5
		v-1h5V917.1z M545,917.1h-5v-1h5V917.1z M535,917.1h-5v-1h5V917.1z M525,917.1h-5v-1h5V917.1z M515,917.1h-5v-1h5V917.1z
		 M505,917.1h-5v-1h5V917.1z M495,917.1h-5v-1h5V917.1z M485,917.1h-5v-1h5V917.1z M475,917.1h-5v-1h5V917.1z M465,917.1h-5v-1h5
		V917.1z M455,917.1h-5v-1h5V917.1z M445,917.1h-5v-1h5V917.1z M435,917.1h-5v-1h5V917.1z M425,917.1h-5v-1h5V917.1z M415,917.1h-5
		v-1h5V917.1z M405,917.1h-5v-1h5V917.1z M395,917.1h-5v-1h5V917.1z M385,917.1h-5v-1h5V917.1z M375,917.1h-5v-1h5V917.1z
		 M365,917.1h-5v-1h5V917.1z M355,917.1h-5v-1h5V917.1z M345,917.1h-5v-1h5V917.1z M335,917.1h-5v-1h5V917.1z M325,917.1h-5v-1h5
		V917.1z M315,917.1h-5v-1h5V917.1z M305,917.1h-5v-1h5V917.1z M295,917.1h-5v-1h5V917.1z M285,917.1h-5v-1h5V917.1z M275,917.1h-5
		v-1h5V917.1z M265,917.1h-5v-1h5V917.1z M255,917.1h-5v-1h5V917.1z M245,917.1h-5v-1h5V917.1z M235,917.1h-5v-1h5V917.1z
		 M225,917.1h-5v-1h5V917.1z M215,917.1h-5v-1h5V917.1z M205,917.1h-5v-1h5V917.1z M195,917.1h-5v-1h5V917.1z M185,917.1h-5v-1h5
		V917.1z M175,917.1h-5v-1h5V917.1z M165,917.1h-5v-1h5V917.1z M155,917.1h-5v-1h5V917.1z M145,917.1h-5v-1h5V917.1z M135,917.1h-5
		v-1h5V917.1z M125,917.1h-5v-1h5V917.1z M115,917.1h-5v-1h5V917.1z M105,917.1h-5v-1h5V917.1z M95,917.1h-5v-1h5V917.1z M85,917.1
		h-5v-1h5V917.1z M75,917.1h-5v-1h5V917.1z M65,917.1h-5v-1h5V917.1z M55,917.1h-5v-1h5V917.1z M45,917.1h-5v-1h5V917.1z M35,917.1
		h-5v-1h5V917.1z M25,917.1h-5v-1h5V917.1z M15,917.1h-5v-1h5V917.1z M5,917.1H0v-1h5V917.1z"/>
	<path class="st3" d="M1915,605.1h-5v-1h5V605.1z M1905,605.1h-5v-1h5V605.1z M1895,605.1h-5v-1h5V605.1z M1885,605.1h-5v-1h5V605.1
		z M1875,605.1h-5v-1h5V605.1z M1865,605.1h-5v-1h5V605.1z M1855,605.1h-5v-1h5V605.1z M1845,605.1h-5v-1h5V605.1z M1835,605.1h-5
		v-1h5V605.1z M1825,605.1h-5v-1h5V605.1z M1815,605.1h-5v-1h5V605.1z M1805,605.1h-5v-1h5V605.1z M1795,605.1h-5v-1h5V605.1z
		 M1785,605.1h-5v-1h5V605.1z M1775,605.1h-5v-1h5V605.1z M1765,605.1h-5v-1h5V605.1z M1755,605.1h-5v-1h5V605.1z M1745,605.1h-5v-1
		h5V605.1z M1735,605.1h-5v-1h5V605.1z M1725,605.1h-5v-1h5V605.1z M1715,605.1h-5v-1h5V605.1z M1705,605.1h-5v-1h5V605.1z
		 M1695,605.1h-5v-1h5V605.1z M1685,605.1h-5v-1h5V605.1z M1675,605.1h-5v-1h5V605.1z M1665,605.1h-5v-1h5V605.1z M1655,605.1h-5v-1
		h5V605.1z M1645,605.1h-5v-1h5V605.1z M1635,605.1h-5v-1h5V605.1z M1625,605.1h-5v-1h5V605.1z M1615,605.1h-5v-1h5V605.1z
		 M1605,605.1h-5v-1h5V605.1z M1595,605.1h-5v-1h5V605.1z M1585,605.1h-5v-1h5V605.1z M1575,605.1h-5v-1h5V605.1z M1565,605.1h-5v-1
		h5V605.1z M1555,605.1h-5v-1h5V605.1z M1545,605.1h-5v-1h5V605.1z M1535,605.1h-5v-1h5V605.1z M1525,605.1h-5v-1h5V605.1z
		 M1515,605.1h-5v-1h5V605.1z M1505,605.1h-5v-1h5V605.1z M1495,605.1h-5v-1h5V605.1z M1485,605.1h-5v-1h5V605.1z M1475,605.1h-5v-1
		h5V605.1z M1465,605.1h-5v-1h5V605.1z M1455,605.1h-5v-1h5V605.1z M1445,605.1h-5v-1h5V605.1z M1435,605.1h-5v-1h5V605.1z
		 M1425,605.1h-5v-1h5V605.1z M1415,605.1h-5v-1h5V605.1z M1405,605.1h-5v-1h5V605.1z M1395,605.1h-5v-1h5V605.1z M1385,605.1h-5v-1
		h5V605.1z M1375,605.1h-5v-1h5V605.1z M1365,605.1h-5v-1h5V605.1z M1355,605.1h-5v-1h5V605.1z M1345,605.1h-5v-1h5V605.1z
		 M1335,605.1h-5v-1h5V605.1z M1325,605.1h-5v-1h5V605.1z M1315,605.1h-5v-1h5V605.1z M1305,605.1h-5v-1h5V605.1z M1295,605.1h-5v-1
		h5V605.1z M1285,605.1h-5v-1h5V605.1z M1275,605.1h-5v-1h5V605.1z M1265,605.1h-5v-1h5V605.1z M1255,605.1h-5v-1h5V605.1z
		 M1245,605.1h-5v-1h5V605.1z M1235,605.1h-5v-1h5V605.1z M1225,605.1h-5v-1h5V605.1z M1215,605.1h-5v-1h5V605.1z M1205,605.1h-5v-1
		h5V605.1z M1195,605.1h-5v-1h5V605.1z M1185,605.1h-5v-1h5V605.1z M1175,605.1h-5v-1h5V605.1z M1165,605.1h-5v-1h5V605.1z
		 M1155,605.1h-5v-1h5V605.1z M1145,605.1h-5v-1h5V605.1z M1135,605.1h-5v-1h5V605.1z M1125,605.1h-5v-1h5V605.1z M1115,605.1h-5v-1
		h5V605.1z M1105,605.1h-5v-1h5V605.1z M1095,605.1h-5v-1h5V605.1z M1085,605.1h-5v-1h5V605.1z M1075,605.1h-5v-1h5V605.1z
		 M1065,605.1h-5v-1h5V605.1z M1055,605.1h-5v-1h5V605.1z M1045,605.1h-5v-1h5V605.1z M1035,605.1h-5v-1h5V605.1z M1025,605.1h-5v-1
		h5V605.1z M1015,605.1h-5v-1h5V605.1z M1005,605.1h-5v-1h5V605.1z M995,605.1h-5v-1h5V605.1z M985,605.1h-5v-1h5V605.1z M975,605.1
		h-5v-1h5V605.1z M965,605.1h-5v-1h5V605.1z M955,605.1h-5v-1h5V605.1z M945,605.1h-5v-1h5V605.1z M935,605.1h-5v-1h5V605.1z
		 M925,605.1h-5v-1h5V605.1z M915,605.1h-5v-1h5V605.1z M905,605.1h-5v-1h5V605.1z M895,605.1h-5v-1h5V605.1z M885,605.1h-5v-1h5
		V605.1z M875,605.1h-5v-1h5V605.1z M865,605.1h-5v-1h5V605.1z M855,605.1h-5v-1h5V605.1z M845,605.1h-5v-1h5V605.1z M835,605.1h-5
		v-1h5V605.1z M825,605.1h-5v-1h5V605.1z M815,605.1h-5v-1h5V605.1z M805,605.1h-5v-1h5V605.1z M795,605.1h-5v-1h5V605.1z
		 M785,605.1h-5v-1h5V605.1z M775,605.1h-5v-1h5V605.1z M765,605.1h-5v-1h5V605.1z M755,605.1h-5v-1h5V605.1z M745,605.1h-5v-1h5
		V605.1z M735,605.1h-5v-1h5V605.1z M725,605.1h-5v-1h5V605.1z M715,605.1h-5v-1h5V605.1z M705,605.1h-5v-1h5V605.1z M695,605.1h-5
		v-1h5V605.1z M685,605.1h-5v-1h5V605.1z M675,605.1h-5v-1h5V605.1z M665,605.1h-5v-1h5V605.1z M655,605.1h-5v-1h5V605.1z
		 M645,605.1h-5v-1h5V605.1z M635,605.1h-5v-1h5V605.1z M625,605.1h-5v-1h5V605.1z M615,605.1h-5v-1h5V605.1z M605,605.1h-5v-1h5
		V605.1z M595,605.1h-5v-1h5V605.1z M585,605.1h-5v-1h5V605.1z M575,605.1h-5v-1h5V605.1z M565,605.1h-5v-1h5V605.1z M555,605.1h-5
		v-1h5V605.1z M545,605.1h-5v-1h5V605.1z M535,605.1h-5v-1h5V605.1z M525,605.1h-5v-1h5V605.1z M515,605.1h-5v-1h5V605.1z
		 M505,605.1h-5v-1h5V605.1z M495,605.1h-5v-1h5V605.1z M485,605.1h-5v-1h5V605.1z M475,605.1h-5v-1h5V605.1z M465,605.1h-5v-1h5
		V605.1z M455,605.1h-5v-1h5V605.1z M445,605.1h-5v-1h5V605.1z M435,605.1h-5v-1h5V605.1z M425,605.1h-5v-1h5V605.1z M415,605.1h-5
		v-1h5V605.1z M405,605.1h-5v-1h5V605.1z M395,605.1h-5v-1h5V605.1z M385,605.1h-5v-1h5V605.1z M375,605.1h-5v-1h5V605.1z
		 M365,605.1h-5v-1h5V605.1z M355,605.1h-5v-1h5V605.1z M345,605.1h-5v-1h5V605.1z M335,605.1h-5v-1h5V605.1z M325,605.1h-5v-1h5
		V605.1z M315,605.1h-5v-1h5V605.1z M305,605.1h-5v-1h5V605.1z M295,605.1h-5v-1h5V605.1z M285,605.1h-5v-1h5V605.1z M275,605.1h-5
		v-1h5V605.1z M265,605.1h-5v-1h5V605.1z M255,605.1h-5v-1h5V605.1z M245,605.1h-5v-1h5V605.1z M235,605.1h-5v-1h5V605.1z
		 M225,605.1h-5v-1h5V605.1z M215,605.1h-5v-1h5V605.1z M205,605.1h-5v-1h5V605.1z M195,605.1h-5v-1h5V605.1z M185,605.1h-5v-1h5
		V605.1z M175,605.1h-5v-1h5V605.1z M165,605.1h-5v-1h5V605.1z M155,605.1h-5v-1h5V605.1z M145,605.1h-5v-1h5V605.1z M135,605.1h-5
		v-1h5V605.1z M125,605.1h-5v-1h5V605.1z M115,605.1h-5v-1h5V605.1z M105,605.1h-5v-1h5V605.1z M95,605.1h-5v-1h5V605.1z M85,605.1
		h-5v-1h5V605.1z M75,605.1h-5v-1h5V605.1z M65,605.1h-5v-1h5V605.1z M55,605.1h-5v-1h5V605.1z M45,605.1h-5v-1h5V605.1z M35,605.1
		h-5v-1h5V605.1z M25,605.1h-5v-1h5V605.1z M15,605.1h-5v-1h5V605.1z M5,605.1H0v-1h5V605.1z"/>
	<path class="st3" d="M1920,761.1h-5v-1h5V761.1z M1910,761.1h-5v-1h5V761.1z M1900,761.1h-5v-1h5V761.1z M1890,761.1h-5v-1h5V761.1
		z M1880,761.1h-5v-1h5V761.1z M1870,761.1h-5v-1h5V761.1z M1860,761.1h-5v-1h5V761.1z M1850,761.1h-5v-1h5V761.1z M1840,761.1h-5
		v-1h5V761.1z M1830,761.1h-5v-1h5V761.1z M1820,761.1h-5v-1h5V761.1z M1810,761.1h-5v-1h5V761.1z M1800,761.1h-5v-1h5V761.1z
		 M1790,761.1h-5v-1h5V761.1z M1780,761.1h-5v-1h5V761.1z M1770,761.1h-5v-1h5V761.1z M1760,761.1h-5v-1h5V761.1z M1750,761.1h-5v-1
		h5V761.1z M1740,761.1h-5v-1h5V761.1z M1730,761.1h-5v-1h5V761.1z M1720,761.1h-5v-1h5V761.1z M1710,761.1h-5v-1h5V761.1z
		 M1700,761.1h-5v-1h5V761.1z M1690,761.1h-5v-1h5V761.1z M1680,761.1h-5v-1h5V761.1z M1670,761.1h-5v-1h5V761.1z M1660,761.1h-5v-1
		h5V761.1z M1650,761.1h-5v-1h5V761.1z M1640,761.1h-5v-1h5V761.1z M1630,761.1h-5v-1h5V761.1z M1620,761.1h-5v-1h5V761.1z
		 M1610,761.1h-5v-1h5V761.1z M1600,761.1h-5v-1h5V761.1z M1590,761.1h-5v-1h5V761.1z M1580,761.1h-5v-1h5V761.1z M1570,761.1h-5v-1
		h5V761.1z M1560,761.1h-5v-1h5V761.1z M1550,761.1h-5v-1h5V761.1z M1540,761.1h-5v-1h5V761.1z M1530,761.1h-5v-1h5V761.1z
		 M1520,761.1h-5v-1h5V761.1z M1510,761.1h-5v-1h5V761.1z M1500,761.1h-5v-1h5V761.1z M1490,761.1h-5v-1h5V761.1z M1480,761.1h-5v-1
		h5V761.1z M1470,761.1h-5v-1h5V761.1z M1460,761.1h-5v-1h5V761.1z M1450,761.1h-5v-1h5V761.1z M1440,761.1h-5v-1h5V761.1z
		 M1430,761.1h-5v-1h5V761.1z M1420,761.1h-5v-1h5V761.1z M1410,761.1h-5v-1h5V761.1z M1400,761.1h-5v-1h5V761.1z M1390,761.1h-5v-1
		h5V761.1z M1380,761.1h-5v-1h5V761.1z M1370,761.1h-5v-1h5V761.1z M1360,761.1h-5v-1h5V761.1z M1350,761.1h-5v-1h5V761.1z
		 M1340,761.1h-5v-1h5V761.1z M1330,761.1h-5v-1h5V761.1z M1320,761.1h-5v-1h5V761.1z M1310,761.1h-5v-1h5V761.1z M1300,761.1h-5v-1
		h5V761.1z M1290,761.1h-5v-1h5V761.1z M1280,761.1h-5v-1h5V761.1z M1270,761.1h-5v-1h5V761.1z M1260,761.1h-5v-1h5V761.1z
		 M1250,761.1h-5v-1h5V761.1z M1240,761.1h-5v-1h5V761.1z M1230,761.1h-5v-1h5V761.1z M1220,761.1h-5v-1h5V761.1z M1210,761.1h-5v-1
		h5V761.1z M1200,761.1h-5v-1h5V761.1z M1190,761.1h-5v-1h5V761.1z M1180,761.1h-5v-1h5V761.1z M1170,761.1h-5v-1h5V761.1z
		 M1160,761.1h-5v-1h5V761.1z M1150,761.1h-5v-1h5V761.1z M1140,761.1h-5v-1h5V761.1z M1130,761.1h-5v-1h5V761.1z M1120,761.1h-5v-1
		h5V761.1z M1110,761.1h-5v-1h5V761.1z M1100,761.1h-5v-1h5V761.1z M1090,761.1h-5v-1h5V761.1z M1080,761.1h-5v-1h5V761.1z
		 M1070,761.1h-5v-1h5V761.1z M1060,761.1h-5v-1h5V761.1z M1050,761.1h-5v-1h5V761.1z M1040,761.1h-5v-1h5V761.1z M1030,761.1h-5v-1
		h5V761.1z M1020,761.1h-5v-1h5V761.1z M1010,761.1h-5v-1h5V761.1z M1000,761.1h-5v-1h5V761.1z M990,761.1h-5v-1h5V761.1z
		 M980,761.1h-5v-1h5V761.1z M970,761.1h-5v-1h5V761.1z M960,761.1h-5v-1h5V761.1z M950,761.1h-5v-1h5V761.1z M940,761.1h-5v-1h5
		V761.1z M930,761.1h-5v-1h5V761.1z M920,761.1h-5v-1h5V761.1z M910,761.1h-5v-1h5V761.1z M900,761.1h-5v-1h5V761.1z M890,761.1h-5
		v-1h5V761.1z M880,761.1h-5v-1h5V761.1z M870,761.1h-5v-1h5V761.1z M860,761.1h-5v-1h5V761.1z M850,761.1h-5v-1h5V761.1z
		 M840,761.1h-5v-1h5V761.1z M830,761.1h-5v-1h5V761.1z M820,761.1h-5v-1h5V761.1z M810,761.1h-5v-1h5V761.1z M800,761.1h-5v-1h5
		V761.1z M790,761.1h-5v-1h5V761.1z M780,761.1h-5v-1h5V761.1z M770,761.1h-5v-1h5V761.1z M760,761.1h-5v-1h5V761.1z M750,761.1h-5
		v-1h5V761.1z M740,761.1h-5v-1h5V761.1z M730,761.1h-5v-1h5V761.1z M720,761.1h-5v-1h5V761.1z M710,761.1h-5v-1h5V761.1z
		 M700,761.1h-5v-1h5V761.1z M690,761.1h-5v-1h5V761.1z M680,761.1h-5v-1h5V761.1z M670,761.1h-5v-1h5V761.1z M660,761.1h-5v-1h5
		V761.1z M650,761.1h-5v-1h5V761.1z M640,761.1h-5v-1h5V761.1z M630,761.1h-5v-1h5V761.1z M620,761.1h-5v-1h5V761.1z M610,761.1h-5
		v-1h5V761.1z M600,761.1h-5v-1h5V761.1z M590,761.1h-5v-1h5V761.1z M580,761.1h-5v-1h5V761.1z M570,761.1h-5v-1h5V761.1z
		 M560,761.1h-5v-1h5V761.1z M550,761.1h-5v-1h5V761.1z M540,761.1h-5v-1h5V761.1z M530,761.1h-5v-1h5V761.1z M520,761.1h-5v-1h5
		V761.1z M510,761.1h-5v-1h5V761.1z M500,761.1h-5v-1h5V761.1z M490,761.1h-5v-1h5V761.1z M480,761.1h-5v-1h5V761.1z M470,761.1h-5
		v-1h5V761.1z M460,761.1h-5v-1h5V761.1z M450,761.1h-5v-1h5V761.1z M440,761.1h-5v-1h5V761.1z M430,761.1h-5v-1h5V761.1z
		 M420,761.1h-5v-1h5V761.1z M410,761.1h-5v-1h5V761.1z M400,761.1h-5v-1h5V761.1z M390,761.1h-5v-1h5V761.1z M380,761.1h-5v-1h5
		V761.1z M370,761.1h-5v-1h5V761.1z M360,761.1h-5v-1h5V761.1z M350,761.1h-5v-1h5V761.1z M340,761.1h-5v-1h5V761.1z M330,761.1h-5
		v-1h5V761.1z M320,761.1h-5v-1h5V761.1z M310,761.1h-5v-1h5V761.1z M300,761.1h-5v-1h5V761.1z M290,761.1h-5v-1h5V761.1z
		 M280,761.1h-5v-1h5V761.1z M270,761.1h-5v-1h5V761.1z M260,761.1h-5v-1h5V761.1z M250,761.1h-5v-1h5V761.1z M240,761.1h-5v-1h5
		V761.1z M230,761.1h-5v-1h5V761.1z M220,761.1h-5v-1h5V761.1z M210,761.1h-5v-1h5V761.1z M200,761.1h-5v-1h5V761.1z M190,761.1h-5
		v-1h5V761.1z M180,761.1h-5v-1h5V761.1z M170,761.1h-5v-1h5V761.1z M160,761.1h-5v-1h5V761.1z M150,761.1h-5v-1h5V761.1z
		 M140,761.1h-5v-1h5V761.1z M130,761.1h-5v-1h5V761.1z M120,761.1h-5v-1h5V761.1z M110,761.1h-5v-1h5V761.1z M100,761.1h-5v-1h5
		V761.1z M90,761.1h-5v-1h5V761.1z M80,761.1h-5v-1h5V761.1z M70,761.1h-5v-1h5V761.1z M60,761.1h-5v-1h5V761.1z M50,761.1h-5v-1h5
		V761.1z M40,761.1h-5v-1h5V761.1z M30,761.1h-5v-1h5V761.1z M20,761.1h-5v-1h5V761.1z M10,761.1H5v-1h5V761.1z"/>
	<path class="st3" d="M833,761.1H676v-157h157V761.1z M677,760.1h155v-155H677V760.1z"/>
	<path class="st3" d="M833,527.1H676v-157h157V527.1z M677,526.1h155v-155H677V526.1z"/>
	<path class="st3" d="M833,293.1H676v-157h157V293.1z M677,292.1h155v-155H677V292.1z"/>
	<path class="st3" d="M1244,761.1H676v-625h568V761.1z M676.9,760.1H1243v-623H677L676.9,760.1z"/>
	<path class="st3" d="M573,687.4h-2.5l-3-4.4l-3,4.4H562l4.1-6l-3.7-5.3h2.6l2.5,3.8l2.5-3.8h2.5l-3.7,5.3L573,687.4z"/>
	<rect x="594.6" y="604.6" class="st3" width="5.9" height="156"/>
	<path class="st3" d="M578.9,843.4h-2.5l-3-4.4l-3,4.4h-2.5l4.1-6l-3.7-5.3h2.5l2.5,3.8l2.6-3.8h2.5l-3.7,5.3L578.9,843.4z"/>
	<rect x="600.6" y="760.6" class="st3" width="5.9" height="156"/>
</g>
</svg>
