<svg xmlns="http://www.w3.org/2000/svg" viewBox="0 0 1920 1080"><defs><style>.cls-1{fill:#eae3da;}.cls-2{fill:#9e8a3c;}.cls-3{fill:#7a8892;}.cls-4{fill:#854a1c;}.cls-5{fill:#8b3f2b;}.cls-6{fill:#3e2c1f;}.cls-7{fill:#eecab1;}.cls-8{fill:#c88e4f;}.cls-9{fill:#afa395;}.cls-10{fill:#867761;}</style></defs><g id="Layer_1" data-name="Layer 1"><rect class="cls-1" width="1920" height="1080"/><polygon class="cls-2" points="604.75 144.13 604.75 328.04 788.66 328.04 788.66 176.56 604.75 144.13"/><rect class="cls-3" x="696.7" y="224.26" width="568.02" height="568.02"/><rect class="cls-4" x="946.93" y="293.78" width="546.37" height="102.54"/><polygon class="cls-5" points="1424.04 923.44 1424.04 604.81 1105.4 604.81 1105.4 867.26 1424.04 923.44"/><polygon class="cls-6" points="337.27 328.04 337.27 794.79 804.03 794.79 804.03 410.34 337.27 328.04"/><polygon class="cls-7" points="564.92 529.19 1659.9 722.26 1659.9 529.19 564.92 529.19"/><circle class="cls-8" cx="804.03" cy="794.8" r="139.82"/><circle class="cls-9" cx="1493.3" cy="293.78" r="59.89"/><path class="cls-10" d="M258.87,625.73a115.4,115.4,0,0,0,115.4,115.4V510.33A115.39,115.39,0,0,0,258.87,625.73Z"/></g></svg>