<svg xmlns="http://www.w3.org/2000/svg" viewBox="0 0 1920 1080"><defs><style>.cls-1{fill:#fff;}</style></defs><g id="Layer_2" data-name="Layer 2"><rect class="cls-1" width="1920" height="1080"/></g><g id="Layer_1" data-name="Layer 1"><path d="M93.63,1023.52H26.51V956.14L93.63,968Zm-64.28-2.83H90.79V970.35L29.35,959.51Z"/><path d="M157.91,1023.52H90.79V956.14L157.91,968Zm-64.28-2.83h61.44V970.35L93.63,959.51Z"/><path d="M222.19,1023.52H155.07V956.14L222.19,968Zm-64.28-2.83h61.44V970.35l-61.44-10.84Z"/><path d="M286.47,1023.52H219.35V956.14L286.47,968Zm-64.28-2.83h61.44V970.35l-61.44-10.84Z"/><path d="M350.75,1023.52H283.63V956.14L350.75,968Zm-64.28-2.83h61.45V970.35l-61.45-10.84Z"/><path d="M415,1023.52H347.92V956.14L415,968Zm-64.28-2.83H412.2V970.35l-61.45-10.84Z"/><path d="M479.31,1023.52H412.2V956.14L479.31,968ZM415,1020.69h61.45V970.35L415,959.51Z"/><path d="M543.59,1023.52H476.48V956.14L543.59,968Zm-64.28-2.83h61.45V970.35l-61.45-10.84Z"/><path d="M607.87,1023.52H540.76V956.14L607.87,968Zm-64.28-2.83H605V970.35l-61.45-10.84Z"/><path d="M672.15,1023.52H605V956.14L672.15,968Zm-64.28-2.83h61.45V970.35l-61.45-10.84Z"/><path d="M736.43,1023.52H669.32V956.14L736.43,968Zm-64.28-2.83H733.6V970.35l-61.45-10.84Z"/><path d="M800.71,1023.52H733.6V956.14L800.71,968Zm-64.28-2.83h61.45V970.35l-61.45-10.84Z"/><path d="M865,1023.52H797.88V956.14L865,968Zm-64.29-2.83h61.45V970.35l-61.45-10.84Z"/><path d="M929.28,1023.52H862.16V956.14L929.28,968ZM865,1020.69h61.44V970.35L865,959.51Z"/><path d="M993.56,1023.52H926.44V956.14L993.56,968Zm-64.28-2.83h61.44V970.35l-61.44-10.84Z"/><path d="M1057.84,1023.52H990.72V956.14L1057.84,968Zm-64.28-2.83H1055V970.35l-61.44-10.84Z"/><path d="M1122.12,1023.52H1055V956.14L1122.12,968Zm-64.28-2.83h61.45V970.35l-61.45-10.84Z"/><path d="M1186.4,1023.52h-67.11V956.14L1186.4,968Zm-64.28-2.83h61.45V970.35l-61.45-10.84Z"/><path d="M1250.68,1023.52h-67.11V956.14L1250.68,968Zm-64.28-2.83h61.45V970.35l-61.45-10.84Z"/><path d="M1315,1023.52h-67.11V956.14L1315,968Zm-64.28-2.83h61.45V970.35l-61.45-10.84Z"/><path d="M1379.24,1023.52h-67.11V956.14L1379.24,968Zm-64.28-2.83h61.45V970.35L1315,959.51Z"/><path d="M1443.52,1023.52h-67.11V956.14L1443.52,968Zm-64.28-2.83h61.45V970.35l-61.45-10.84Z"/><path d="M1507.8,1023.52h-67.11V956.14L1507.8,968Zm-64.28-2.83H1505V970.35l-61.45-10.84Z"/><path d="M1572.08,1023.52H1505V956.14L1572.08,968Zm-64.28-2.83h61.45V970.35l-61.45-10.84Z"/><path d="M1636.37,1023.52h-67.12V956.14L1636.37,968Zm-64.29-2.83h61.45V970.35l-61.45-10.84Z"/><path d="M1700.65,1023.52h-67.12V956.14L1700.65,968Zm-64.28-2.83h61.44V970.35l-61.44-10.84Z"/><path d="M1764.93,1023.52h-67.12V956.14L1764.93,968Zm-64.28-2.83h61.44V970.35l-61.44-10.84Z"/><path d="M1829.21,1023.52h-67.12V956.14L1829.21,968Zm-64.28-2.83h61.44V970.35l-61.44-10.84Z"/><path d="M1893.49,1023.52h-67.12V956.14L1893.49,968Zm-64.28-2.83h61.44V970.35l-61.44-10.84Z"/><path d="M93.63,959.24H26.51V891.85l67.12,11.84Zm-64.28-2.83H90.79V906.07L29.35,895.23Z"/><path d="M157.91,959.24H90.79V891.85l67.12,11.84Zm-64.28-2.83h61.44V906.07L93.63,895.23Z"/><path d="M222.19,959.24H155.07V891.85l67.12,11.84Zm-64.28-2.83h61.44V906.07l-61.44-10.84Z"/><path d="M286.47,959.24H219.35V891.85l67.12,11.84Zm-64.28-2.83h61.44V906.07l-61.44-10.84Z"/><path d="M350.75,959.24H283.63V891.85l67.12,11.84Zm-64.28-2.83h61.45V906.07l-61.45-10.84Z"/><path d="M415,959.24H347.92V891.85L415,903.69Zm-64.28-2.83H412.2V906.07l-61.45-10.84Z"/><path d="M479.31,959.24H412.2V891.85l67.11,11.84ZM415,956.41h61.45V906.07L415,895.23Z"/><path d="M543.59,959.24H476.48V891.85l67.11,11.84Zm-64.28-2.83h61.45V906.07l-61.45-10.84Z"/><path d="M607.87,959.24H540.76V891.85l67.11,11.84Zm-64.28-2.83H605V906.07l-61.45-10.84Z"/><path d="M672.15,959.24H605V891.85l67.11,11.84Zm-64.28-2.83h61.45V906.07l-61.45-10.84Z"/><path d="M736.43,959.24H669.32V891.85l67.11,11.84Zm-64.28-2.83H733.6V906.07l-61.45-10.84Z"/><path d="M800.71,959.24H733.6V891.85l67.11,11.84Zm-64.28-2.83h61.45V906.07l-61.45-10.84Z"/><path d="M865,959.24H797.88V891.85L865,903.69Zm-64.29-2.83h61.45V906.07l-61.45-10.84Z"/><path d="M929.28,959.24H862.16V891.85l67.12,11.84ZM865,956.41h61.44V906.07L865,895.23Z"/><path d="M993.56,959.24H926.44V891.85l67.12,11.84Zm-64.28-2.83h61.44V906.07l-61.44-10.84Z"/><path d="M1057.84,959.24H990.72V891.85l67.12,11.84Zm-64.28-2.83H1055V906.07l-61.44-10.84Z"/><path d="M1122.12,959.24H1055V891.85l67.12,11.84Zm-64.28-2.83h61.45V906.07l-61.45-10.84Z"/><path d="M1186.4,959.24h-67.11V891.85l67.11,11.84Zm-64.28-2.83h61.45V906.07l-61.45-10.84Z"/><path d="M1250.68,959.24h-67.11V891.85l67.11,11.84Zm-64.28-2.83h61.45V906.07l-61.45-10.84Z"/><path d="M1315,959.24h-67.11V891.85L1315,903.69Zm-64.28-2.83h61.45V906.07l-61.45-10.84Z"/><path d="M1379.24,959.24h-67.11V891.85l67.11,11.84ZM1315,956.41h61.45V906.07L1315,895.23Z"/><path d="M1443.52,959.24h-67.11V891.85l67.11,11.84Zm-64.28-2.83h61.45V906.07l-61.45-10.84Z"/><path d="M1507.8,959.24h-67.11V891.85l67.11,11.84Zm-64.28-2.83H1505V906.07l-61.45-10.84Z"/><path d="M1572.08,959.24H1505V891.85l67.11,11.84Zm-64.28-2.83h61.45V906.07l-61.45-10.84Z"/><path d="M1636.37,959.24h-67.12V891.85l67.12,11.84Zm-64.29-2.83h61.45V906.07l-61.45-10.84Z"/><path d="M1700.65,959.24h-67.12V891.85l67.12,11.84Zm-64.28-2.83h61.44V906.07l-61.44-10.84Z"/><path d="M1764.93,959.24h-67.12V891.85l67.12,11.84Zm-64.28-2.83h61.44V906.07l-61.44-10.84Z"/><path d="M1829.21,959.24h-67.12V891.85l67.12,11.84Zm-64.28-2.83h61.44V906.07l-61.44-10.84Z"/><path d="M1893.49,959.24h-67.12V891.85l67.12,11.84Zm-64.28-2.83h61.44V906.07l-61.44-10.84Z"/><path d="M93.63,895H26.51V827.57l67.12,11.84Zm-64.28-2.83H90.79V841.79L29.35,831Z"/><path d="M157.91,895H90.79V827.57l67.12,11.84Zm-64.28-2.83h61.44V841.79L93.63,831Z"/><path d="M222.19,895H155.07V827.57l67.12,11.84Zm-64.28-2.83h61.44V841.79L157.91,831Z"/><path d="M286.47,895H219.35V827.57l67.12,11.84Zm-64.28-2.83h61.44V841.79L222.19,831Z"/><path d="M350.75,895H283.63V827.57l67.12,11.84Zm-64.28-2.83h61.45V841.79L286.47,831Z"/><path d="M415,895H347.92V827.57L415,839.41Zm-64.28-2.83H412.2V841.79L350.75,831Z"/><path d="M479.31,895H412.2V827.57l67.11,11.84ZM415,892.13h61.45V841.79L415,831Z"/><path d="M543.59,895H476.48V827.57l67.11,11.84Zm-64.28-2.83h61.45V841.79L479.31,831Z"/><path d="M607.87,895H540.76V827.57l67.11,11.84Zm-64.28-2.83H605V841.79L543.59,831Z"/><path d="M672.15,895H605V827.57l67.11,11.84Zm-64.28-2.83h61.45V841.79L607.87,831Z"/><path d="M736.43,895H669.32V827.57l67.11,11.84Zm-64.28-2.83H733.6V841.79L672.15,831Z"/><path d="M800.71,895H733.6V827.57l67.11,11.84Zm-64.28-2.83h61.45V841.79L736.43,831Z"/><path d="M865,895H797.88V827.57L865,839.41Zm-64.29-2.83h61.45V841.79L800.71,831Z"/><path d="M929.28,895H862.16V827.57l67.12,11.84ZM865,892.13h61.44V841.79L865,831Z"/><path d="M993.56,895H926.44V827.57l67.12,11.84Zm-64.28-2.83h61.44V841.79L929.28,831Z"/><path d="M1057.84,895H990.72V827.57l67.12,11.84Zm-64.28-2.83H1055V841.79L993.56,831Z"/><path d="M1122.12,895H1055V827.57l67.12,11.84Zm-64.28-2.83h61.45V841.79L1057.84,831Z"/><path d="M1186.4,895h-67.11V827.57l67.11,11.84Zm-64.28-2.83h61.45V841.79L1122.12,831Z"/><path d="M1250.68,895h-67.11V827.57l67.11,11.84Zm-64.28-2.83h61.45V841.79L1186.4,831Z"/><path d="M1315,895h-67.11V827.57L1315,839.41Zm-64.28-2.83h61.45V841.79L1250.68,831Z"/><path d="M1379.24,895h-67.11V827.57l67.11,11.84ZM1315,892.13h61.45V841.79L1315,831Z"/><path d="M1443.52,895h-67.11V827.57l67.11,11.84Zm-64.28-2.83h61.45V841.79L1379.24,831Z"/><path d="M1507.8,895h-67.11V827.57l67.11,11.84Zm-64.28-2.83H1505V841.79L1443.52,831Z"/><path d="M1572.08,895H1505V827.57l67.11,11.84Zm-64.28-2.83h61.45V841.79L1507.8,831Z"/><path d="M1636.37,895h-67.12V827.57l67.12,11.84Zm-64.29-2.83h61.45V841.79L1572.08,831Z"/><path d="M1700.65,895h-67.12V827.57l67.12,11.84Zm-64.28-2.83h61.44V841.79L1636.37,831Z"/><path d="M1764.93,895h-67.12V827.57l67.12,11.84Zm-64.28-2.83h61.44V841.79L1700.65,831Z"/><path d="M1829.21,895h-67.12V827.57l67.12,11.84Zm-64.28-2.83h61.44V841.79L1764.93,831Z"/><path d="M1893.49,895h-67.12V827.57l67.12,11.84Zm-64.28-2.83h61.44V841.79L1829.21,831Z"/><path d="M93.63,830.68H26.51V763.29l67.12,11.84Zm-64.28-2.83H90.79V777.51L29.35,766.67Z"/><path d="M157.91,830.68H90.79V763.29l67.12,11.84Zm-64.28-2.83h61.44V777.51L93.63,766.67Z"/><path d="M222.19,830.68H155.07V763.29l67.12,11.84Zm-64.28-2.83h61.44V777.51l-61.44-10.84Z"/><path d="M286.47,830.68H219.35V763.29l67.12,11.84Zm-64.28-2.83h61.44V777.51l-61.44-10.84Z"/><path d="M350.75,830.68H283.63V763.29l67.12,11.84Zm-64.28-2.83h61.45V777.51l-61.45-10.84Z"/><path d="M415,830.68H347.92V763.29L415,775.13Zm-64.28-2.83H412.2V777.51l-61.45-10.84Z"/><path d="M479.31,830.68H412.2V763.29l67.11,11.84ZM415,827.85h61.45V777.51L415,766.67Z"/><path d="M543.59,830.68H476.48V763.29l67.11,11.84Zm-64.28-2.83h61.45V777.51l-61.45-10.84Z"/><path d="M607.87,830.68H540.76V763.29l67.11,11.84Zm-64.28-2.83H605V777.51l-61.45-10.84Z"/><path d="M672.15,830.68H605V763.29l67.11,11.84Zm-64.28-2.83h61.45V777.51l-61.45-10.84Z"/><path d="M736.43,830.68H669.32V763.29l67.11,11.84Zm-64.28-2.83H733.6V777.51l-61.45-10.84Z"/><path d="M800.71,830.68H733.6V763.29l67.11,11.84Zm-64.28-2.83h61.45V777.51l-61.45-10.84Z"/><path d="M865,830.68H797.88V763.29L865,775.13Zm-64.29-2.83h61.45V777.51l-61.45-10.84Z"/><path d="M929.28,830.68H862.16V763.29l67.12,11.84ZM865,827.85h61.44V777.51L865,766.67Z"/><path d="M993.56,830.68H926.44V763.29l67.12,11.84Zm-64.28-2.83h61.44V777.51l-61.44-10.84Z"/><path d="M1057.84,830.68H990.72V763.29l67.12,11.84Zm-64.28-2.83H1055V777.51l-61.44-10.84Z"/><path d="M1122.12,830.68H1055V763.29l67.12,11.84Zm-64.28-2.83h61.45V777.51l-61.45-10.84Z"/><path d="M1186.4,830.68h-67.11V763.29l67.11,11.84Zm-64.28-2.83h61.45V777.51l-61.45-10.84Z"/><path d="M1250.68,830.68h-67.11V763.29l67.11,11.84Zm-64.28-2.83h61.45V777.51l-61.45-10.84Z"/><path d="M1315,830.68h-67.11V763.29L1315,775.13Zm-64.28-2.83h61.45V777.51l-61.45-10.84Z"/><path d="M1379.24,830.68h-67.11V763.29l67.11,11.84ZM1315,827.85h61.45V777.51L1315,766.67Z"/><path d="M1443.52,830.68h-67.11V763.29l67.11,11.84Zm-64.28-2.83h61.45V777.51l-61.45-10.84Z"/><path d="M1507.8,830.68h-67.11V763.29l67.11,11.84Zm-64.28-2.83H1505V777.51l-61.45-10.84Z"/><path d="M1572.08,830.68H1505V763.29l67.11,11.84Zm-64.28-2.83h61.45V777.51l-61.45-10.84Z"/><path d="M1636.37,830.68h-67.12V763.29l67.12,11.84Zm-64.29-2.83h61.45V777.51l-61.45-10.84Z"/><path d="M1700.65,830.68h-67.12V763.29l67.12,11.84Zm-64.28-2.83h61.44V777.51l-61.44-10.84Z"/><path d="M1764.93,830.68h-67.12V763.29l67.12,11.84Zm-64.28-2.83h61.44V777.51l-61.44-10.84Z"/><path d="M1829.21,830.68h-67.12V763.29l67.12,11.84Zm-64.28-2.83h61.44V777.51l-61.44-10.84Z"/><path d="M1893.49,830.68h-67.12V763.29l67.12,11.84Zm-64.28-2.83h61.44V777.51l-61.44-10.84Z"/><path d="M93.63,766.4H26.51V699l67.12,11.84Zm-64.28-2.83H90.79V713.23L29.35,702.39Z"/><path d="M157.91,766.4H90.79V699l67.12,11.84Zm-64.28-2.83h61.44V713.23L93.63,702.39Z"/><path d="M222.19,766.4H155.07V699l67.12,11.84Zm-64.28-2.83h61.44V713.23l-61.44-10.84Z"/><path d="M286.47,766.4H219.35V699l67.12,11.84Zm-64.28-2.83h61.44V713.23l-61.44-10.84Z"/><path d="M350.75,766.4H283.63V699l67.12,11.84Zm-64.28-2.83h61.45V713.23l-61.45-10.84Z"/><path d="M415,766.4H347.92V699L415,710.85Zm-64.28-2.83H412.2V713.23l-61.45-10.84Z"/><path d="M479.31,766.4H412.2V699l67.11,11.84ZM415,763.57h61.45V713.23L415,702.39Z"/><path d="M543.59,766.4H476.48V699l67.11,11.84Zm-64.28-2.83h61.45V713.23l-61.45-10.84Z"/><path d="M607.87,766.4H540.76V699l67.11,11.84Zm-64.28-2.83H605V713.23l-61.45-10.84Z"/><path d="M672.15,766.4H605V699l67.11,11.84Zm-64.28-2.83h61.45V713.23l-61.45-10.84Z"/><path d="M736.43,766.4H669.32V699l67.11,11.84Zm-64.28-2.83H733.6V713.23l-61.45-10.84Z"/><path d="M800.71,766.4H733.6V699l67.11,11.84Zm-64.28-2.83h61.45V713.23l-61.45-10.84Z"/><path d="M865,766.4H797.88V699L865,710.85Zm-64.29-2.83h61.45V713.23l-61.45-10.84Z"/><path d="M929.28,766.4H862.16V699l67.12,11.84ZM865,763.57h61.44V713.23L865,702.39Z"/><path d="M993.56,766.4H926.44V699l67.12,11.84Zm-64.28-2.83h61.44V713.23l-61.44-10.84Z"/><path d="M1057.84,766.4H990.72V699l67.12,11.84Zm-64.28-2.83H1055V713.23l-61.44-10.84Z"/><path d="M1122.12,766.4H1055V699l67.12,11.84Zm-64.28-2.83h61.45V713.23l-61.45-10.84Z"/><path d="M1186.4,766.4h-67.11V699l67.11,11.84Zm-64.28-2.83h61.45V713.23l-61.45-10.84Z"/><path d="M1250.68,766.4h-67.11V699l67.11,11.84Zm-64.28-2.83h61.45V713.23l-61.45-10.84Z"/><path d="M1315,766.4h-67.11V699L1315,710.85Zm-64.28-2.83h61.45V713.23l-61.45-10.84Z"/><path d="M1379.24,766.4h-67.11V699l67.11,11.84ZM1315,763.57h61.45V713.23L1315,702.39Z"/><path d="M1443.52,766.4h-67.11V699l67.11,11.84Zm-64.28-2.83h61.45V713.23l-61.45-10.84Z"/><path d="M1507.8,766.4h-67.11V699l67.11,11.84Zm-64.28-2.83H1505V713.23l-61.45-10.84Z"/><path d="M1572.08,766.4H1505V699l67.11,11.84Zm-64.28-2.83h61.45V713.23l-61.45-10.84Z"/><path d="M1636.37,766.4h-67.12V699l67.12,11.84Zm-64.29-2.83h61.45V713.23l-61.45-10.84Z"/><path d="M1700.65,766.4h-67.12V699l67.12,11.84Zm-64.28-2.83h61.44V713.23l-61.44-10.84Z"/><path d="M1764.93,766.4h-67.12V699l67.12,11.84Zm-64.28-2.83h61.44V713.23l-61.44-10.84Z"/><path d="M1829.21,766.4h-67.12V699l67.12,11.84Zm-64.28-2.83h61.44V713.23l-61.44-10.84Z"/><path d="M1893.49,766.4h-67.12V699l67.12,11.84Zm-64.28-2.83h61.44V713.23l-61.44-10.84Z"/><path d="M93.63,702.12H26.51V634.73l67.12,11.84Zm-64.28-2.83H90.79V649L29.35,638.11Z"/><path d="M157.91,702.12H90.79V634.73l67.12,11.84Zm-64.28-2.83h61.44V649L93.63,638.11Z"/><path d="M222.19,702.12H155.07V634.73l67.12,11.84Zm-64.28-2.83h61.44V649l-61.44-10.84Z"/><path d="M286.47,702.12H219.35V634.73l67.12,11.84Zm-64.28-2.83h61.44V649l-61.44-10.84Z"/><path d="M350.75,702.12H283.63V634.73l67.12,11.84Zm-64.28-2.83h61.45V649l-61.45-10.84Z"/><path d="M415,702.12H347.92V634.73L415,646.57Zm-64.28-2.83H412.2V649l-61.45-10.84Z"/><path d="M479.31,702.12H412.2V634.73l67.11,11.84ZM415,699.29h61.45V649L415,638.11Z"/><path d="M543.59,702.12H476.48V634.73l67.11,11.84Zm-64.28-2.83h61.45V649l-61.45-10.84Z"/><path d="M607.87,702.12H540.76V634.73l67.11,11.84Zm-64.28-2.83H605V649l-61.45-10.84Z"/><path d="M672.15,702.12H605V634.73l67.11,11.84Zm-64.28-2.83h61.45V649l-61.45-10.84Z"/><path d="M736.43,702.12H669.32V634.73l67.11,11.84Zm-64.28-2.83H733.6V649l-61.45-10.84Z"/><path d="M800.71,702.12H733.6V634.73l67.11,11.84Zm-64.28-2.83h61.45V649l-61.45-10.84Z"/><path d="M865,702.12H797.88V634.73L865,646.57Zm-64.29-2.83h61.45V649l-61.45-10.84Z"/><path d="M929.28,702.12H862.16V634.73l67.12,11.84ZM865,699.29h61.44V649L865,638.11Z"/><path d="M993.56,702.12H926.44V634.73l67.12,11.84Zm-64.28-2.83h61.44V649l-61.44-10.84Z"/><path d="M1057.84,702.12H990.72V634.73l67.12,11.84Zm-64.28-2.83H1055V649l-61.44-10.84Z"/><path d="M1122.12,702.12H1055V634.73l67.12,11.84Zm-64.28-2.83h61.45V649l-61.45-10.84Z"/><path d="M1186.4,702.12h-67.11V634.73l67.11,11.84Zm-64.28-2.83h61.45V649l-61.45-10.84Z"/><path d="M1250.68,702.12h-67.11V634.73l67.11,11.84Zm-64.28-2.83h61.45V649l-61.45-10.84Z"/><path d="M1315,702.12h-67.11V634.73L1315,646.57Zm-64.28-2.83h61.45V649l-61.45-10.84Z"/><path d="M1379.24,702.12h-67.11V634.73l67.11,11.84ZM1315,699.29h61.45V649L1315,638.11Z"/><path d="M1443.52,702.12h-67.11V634.73l67.11,11.84Zm-64.28-2.83h61.45V649l-61.45-10.84Z"/><path d="M1507.8,702.12h-67.11V634.73l67.11,11.84Zm-64.28-2.83H1505V649l-61.45-10.84Z"/><path d="M1572.08,702.12H1505V634.73l67.11,11.84Zm-64.28-2.83h61.45V649l-61.45-10.84Z"/><path d="M1636.37,702.12h-67.12V634.73l67.12,11.84Zm-64.29-2.83h61.45V649l-61.45-10.84Z"/><path d="M1700.65,702.12h-67.12V634.73l67.12,11.84Zm-64.28-2.83h61.44V649l-61.44-10.84Z"/><path d="M1764.93,702.12h-67.12V634.73l67.12,11.84Zm-64.28-2.83h61.44V649l-61.44-10.84Z"/><path d="M1829.21,702.12h-67.12V634.73l67.12,11.84Zm-64.28-2.83h61.44V649l-61.44-10.84Z"/><path d="M1893.49,702.12h-67.12V634.73l67.12,11.84Zm-64.28-2.83h61.44V649l-61.44-10.84Z"/><path d="M93.63,637.84H26.51V570.45l67.12,11.84ZM29.35,635H90.79V584.66L29.35,573.83Z"/><path d="M157.91,637.84H90.79V570.45l67.12,11.84ZM93.63,635h61.44V584.66L93.63,573.83Z"/><path d="M222.19,637.84H155.07V570.45l67.12,11.84ZM157.91,635h61.44V584.66l-61.44-10.83Z"/><path d="M286.47,637.84H219.35V570.45l67.12,11.84ZM222.19,635h61.44V584.66l-61.44-10.83Z"/><path d="M350.75,637.84H283.63V570.45l67.12,11.84ZM286.47,635h61.45V584.66l-61.45-10.83Z"/><path d="M415,637.84H347.92V570.45L415,582.29ZM350.75,635H412.2V584.66l-61.45-10.83Z"/><path d="M479.31,637.84H412.2V570.45l67.11,11.84ZM415,635h61.45V584.66L415,573.83Z"/><path d="M543.59,637.84H476.48V570.45l67.11,11.84ZM479.31,635h61.45V584.66l-61.45-10.83Z"/><path d="M607.87,637.84H540.76V570.45l67.11,11.84ZM543.59,635H605V584.66l-61.45-10.83Z"/><path d="M672.15,637.84H605V570.45l67.11,11.84ZM607.87,635h61.45V584.66l-61.45-10.83Z"/><path d="M736.43,637.84H669.32V570.45l67.11,11.84ZM672.15,635H733.6V584.66l-61.45-10.83Z"/><path d="M800.71,637.84H733.6V570.45l67.11,11.84ZM736.43,635h61.45V584.66l-61.45-10.83Z"/><path d="M865,637.84H797.88V570.45L865,582.29ZM800.71,635h61.45V584.66l-61.45-10.83Z"/><path d="M929.28,637.84H862.16V570.45l67.12,11.84ZM865,635h61.44V584.66L865,573.83Z"/><path d="M993.56,637.84H926.44V570.45l67.12,11.84ZM929.28,635h61.44V584.66l-61.44-10.83Z"/><path d="M1057.84,637.84H990.72V570.45l67.12,11.84ZM993.56,635H1055V584.66l-61.44-10.83Z"/><path d="M1122.12,637.84H1055V570.45l67.12,11.84ZM1057.84,635h61.45V584.66l-61.45-10.83Z"/><path d="M1186.4,637.84h-67.11V570.45l67.11,11.84ZM1122.12,635h61.45V584.66l-61.45-10.83Z"/><path d="M1250.68,637.84h-67.11V570.45l67.11,11.84ZM1186.4,635h61.45V584.66l-61.45-10.83Z"/><path d="M1315,637.84h-67.11V570.45L1315,582.29ZM1250.68,635h61.45V584.66l-61.45-10.83Z"/><path d="M1379.24,637.84h-67.11V570.45l67.11,11.84ZM1315,635h61.45V584.66L1315,573.83Z"/><path d="M1443.52,637.84h-67.11V570.45l67.11,11.84ZM1379.24,635h61.45V584.66l-61.45-10.83Z"/><path d="M1507.8,637.84h-67.11V570.45l67.11,11.84ZM1443.52,635H1505V584.66l-61.45-10.83Z"/><path d="M1572.08,637.84H1505V570.45l67.11,11.84ZM1507.8,635h61.45V584.66l-61.45-10.83Z"/><path d="M1636.37,637.84h-67.12V570.45l67.12,11.84ZM1572.08,635h61.45V584.66l-61.45-10.83Z"/><path d="M1700.65,637.84h-67.12V570.45l67.12,11.84ZM1636.37,635h61.44V584.66l-61.44-10.83Z"/><path d="M1764.93,637.84h-67.12V570.45l67.12,11.84ZM1700.65,635h61.44V584.66l-61.44-10.83Z"/><path d="M1829.21,637.84h-67.12V570.45l67.12,11.84ZM1764.93,635h61.44V584.66l-61.44-10.83Z"/><path d="M1893.49,637.84h-67.12V570.45l67.12,11.84ZM1829.21,635h61.44V584.66l-61.44-10.83Z"/><path d="M93.63,573.56H26.51V506.17L93.63,518Zm-64.28-2.84H90.79V520.38L29.35,509.55Z"/><path d="M157.91,573.56H90.79V506.17L157.91,518Zm-64.28-2.84h61.44V520.38L93.63,509.55Z"/><path d="M222.19,573.56H155.07V506.17L222.19,518Zm-64.28-2.84h61.44V520.38l-61.44-10.83Z"/><path d="M286.47,573.56H219.35V506.17L286.47,518Zm-64.28-2.84h61.44V520.38l-61.44-10.83Z"/><path d="M350.75,573.56H283.63V506.17L350.75,518Zm-64.28-2.84h61.45V520.38l-61.45-10.83Z"/><path d="M415,573.56H347.92V506.17L415,518Zm-64.28-2.84H412.2V520.38l-61.45-10.83Z"/><path d="M479.31,573.56H412.2V506.17L479.31,518ZM415,570.72h61.45V520.38L415,509.55Z"/><path d="M543.59,573.56H476.48V506.17L543.59,518Zm-64.28-2.84h61.45V520.38l-61.45-10.83Z"/><path d="M607.87,573.56H540.76V506.17L607.87,518Zm-64.28-2.84H605V520.38l-61.45-10.83Z"/><path d="M672.15,573.56H605V506.17L672.15,518Zm-64.28-2.84h61.45V520.38l-61.45-10.83Z"/><path d="M736.43,573.56H669.32V506.17L736.43,518Zm-64.28-2.84H733.6V520.38l-61.45-10.83Z"/><path d="M800.71,573.56H733.6V506.17L800.71,518Zm-64.28-2.84h61.45V520.38l-61.45-10.83Z"/><path d="M865,573.56H797.88V506.17L865,518Zm-64.29-2.84h61.45V520.38l-61.45-10.83Z"/><path d="M929.28,573.56H862.16V506.17L929.28,518ZM865,570.72h61.44V520.38L865,509.55Z"/><path d="M993.56,573.56H926.44V506.17L993.56,518Zm-64.28-2.84h61.44V520.38l-61.44-10.83Z"/><path d="M1057.84,573.56H990.72V506.17L1057.84,518Zm-64.28-2.84H1055V520.38l-61.44-10.83Z"/><path d="M1122.12,573.56H1055V506.17L1122.12,518Zm-64.28-2.84h61.45V520.38l-61.45-10.83Z"/><path d="M1186.4,573.56h-67.11V506.17L1186.4,518Zm-64.28-2.84h61.45V520.38l-61.45-10.83Z"/><path d="M1250.68,573.56h-67.11V506.17L1250.68,518Zm-64.28-2.84h61.45V520.38l-61.45-10.83Z"/><path d="M1315,573.56h-67.11V506.17L1315,518Zm-64.28-2.84h61.45V520.38l-61.45-10.83Z"/><path d="M1379.24,573.56h-67.11V506.17L1379.24,518ZM1315,570.72h61.45V520.38L1315,509.55Z"/><path d="M1443.52,573.56h-67.11V506.17L1443.52,518Zm-64.28-2.84h61.45V520.38l-61.45-10.83Z"/><path d="M1507.8,573.56h-67.11V506.17L1507.8,518Zm-64.28-2.84H1505V520.38l-61.45-10.83Z"/><path d="M1572.08,573.56H1505V506.17L1572.08,518Zm-64.28-2.84h61.45V520.38l-61.45-10.83Z"/><path d="M1636.37,573.56h-67.12V506.17L1636.37,518Zm-64.29-2.84h61.45V520.38l-61.45-10.83Z"/><path d="M1700.65,573.56h-67.12V506.17L1700.65,518Zm-64.28-2.84h61.44V520.38l-61.44-10.83Z"/><path d="M1764.93,573.56h-67.12V506.17L1764.93,518Zm-64.28-2.84h61.44V520.38l-61.44-10.83Z"/><path d="M1829.21,573.56h-67.12V506.17L1829.21,518Zm-64.28-2.84h61.44V520.38l-61.44-10.83Z"/><path d="M1893.49,573.56h-67.12V506.17L1893.49,518Zm-64.28-2.84h61.44V520.38l-61.44-10.83Z"/><path d="M93.63,509.28H26.51V441.89l67.12,11.83Zm-64.28-2.84H90.79V456.1L29.35,445.27Z"/><path d="M157.91,509.28H90.79V441.89l67.12,11.83Zm-64.28-2.84h61.44V456.1L93.63,445.27Z"/><path d="M222.19,509.28H155.07V441.89l67.12,11.83Zm-64.28-2.84h61.44V456.1l-61.44-10.83Z"/><path d="M286.47,509.28H219.35V441.89l67.12,11.83Zm-64.28-2.84h61.44V456.1l-61.44-10.83Z"/><path d="M350.75,509.28H283.63V441.89l67.12,11.83Zm-64.28-2.84h61.45V456.1l-61.45-10.83Z"/><path d="M415,509.28H347.92V441.89L415,453.72Zm-64.28-2.84H412.2V456.1l-61.45-10.83Z"/><path d="M479.31,509.28H412.2V441.89l67.11,11.83ZM415,506.44h61.45V456.1L415,445.27Z"/><path d="M543.59,509.28H476.48V441.89l67.11,11.83Zm-64.28-2.84h61.45V456.1l-61.45-10.83Z"/><path d="M607.87,509.28H540.76V441.89l67.11,11.83Zm-64.28-2.84H605V456.1l-61.45-10.83Z"/><path d="M672.15,509.28H605V441.89l67.11,11.83Zm-64.28-2.84h61.45V456.1l-61.45-10.83Z"/><path d="M736.43,509.28H669.32V441.89l67.11,11.83Zm-64.28-2.84H733.6V456.1l-61.45-10.83Z"/><path d="M800.71,509.28H733.6V441.89l67.11,11.83Zm-64.28-2.84h61.45V456.1l-61.45-10.83Z"/><path d="M865,509.28H797.88V441.89L865,453.72Zm-64.29-2.84h61.45V456.1l-61.45-10.83Z"/><path d="M929.28,509.28H862.16V441.89l67.12,11.83ZM865,506.44h61.44V456.1L865,445.27Z"/><path d="M993.56,509.28H926.44V441.89l67.12,11.83Zm-64.28-2.84h61.44V456.1l-61.44-10.83Z"/><path d="M1057.84,509.28H990.72V441.89l67.12,11.83Zm-64.28-2.84H1055V456.1l-61.44-10.83Z"/><path d="M1122.12,509.28H1055V441.89l67.12,11.83Zm-64.28-2.84h61.45V456.1l-61.45-10.83Z"/><path d="M1186.4,509.28h-67.11V441.89l67.11,11.83Zm-64.28-2.84h61.45V456.1l-61.45-10.83Z"/><path d="M1250.68,509.28h-67.11V441.89l67.11,11.83Zm-64.28-2.84h61.45V456.1l-61.45-10.83Z"/><path d="M1315,509.28h-67.11V441.89L1315,453.72Zm-64.28-2.84h61.45V456.1l-61.45-10.83Z"/><path d="M1379.24,509.28h-67.11V441.89l67.11,11.83ZM1315,506.44h61.45V456.1L1315,445.27Z"/><path d="M1443.52,509.28h-67.11V441.89l67.11,11.83Zm-64.28-2.84h61.45V456.1l-61.45-10.83Z"/><path d="M1507.8,509.28h-67.11V441.89l67.11,11.83Zm-64.28-2.84H1505V456.1l-61.45-10.83Z"/><path d="M1572.08,509.28H1505V441.89l67.11,11.83Zm-64.28-2.84h61.45V456.1l-61.45-10.83Z"/><path d="M1636.37,509.28h-67.12V441.89l67.12,11.83Zm-64.29-2.84h61.45V456.1l-61.45-10.83Z"/><path d="M1700.65,509.28h-67.12V441.89l67.12,11.83Zm-64.28-2.84h61.44V456.1l-61.44-10.83Z"/><path d="M1764.93,509.28h-67.12V441.89l67.12,11.83Zm-64.28-2.84h61.44V456.1l-61.44-10.83Z"/><path d="M1829.21,509.28h-67.12V441.89l67.12,11.83Zm-64.28-2.84h61.44V456.1l-61.44-10.83Z"/><path d="M1893.49,509.28h-67.12V441.89l67.12,11.83Zm-64.28-2.84h61.44V456.1l-61.44-10.83Z"/><path d="M93.63,445H26.51V377.61l67.12,11.83Zm-64.28-2.84H90.79V391.82L29.35,381Z"/><path d="M157.91,445H90.79V377.61l67.12,11.83Zm-64.28-2.84h61.44V391.82L93.63,381Z"/><path d="M222.19,445H155.07V377.61l67.12,11.83Zm-64.28-2.84h61.44V391.82L157.91,381Z"/><path d="M286.47,445H219.35V377.61l67.12,11.83Zm-64.28-2.84h61.44V391.82L222.19,381Z"/><path d="M350.75,445H283.63V377.61l67.12,11.83Zm-64.28-2.84h61.45V391.82L286.47,381Z"/><path d="M415,445H347.92V377.61L415,389.44Zm-64.28-2.84H412.2V391.82L350.75,381Z"/><path d="M479.31,445H412.2V377.61l67.11,11.83ZM415,442.16h61.45V391.82L415,381Z"/><path d="M543.59,445H476.48V377.61l67.11,11.83Zm-64.28-2.84h61.45V391.82L479.31,381Z"/><path d="M607.87,445H540.76V377.61l67.11,11.83Zm-64.28-2.84H605V391.82L543.59,381Z"/><path d="M672.15,445H605V377.61l67.11,11.83Zm-64.28-2.84h61.45V391.82L607.87,381Z"/><path d="M736.43,445H669.32V377.61l67.11,11.83Zm-64.28-2.84H733.6V391.82L672.15,381Z"/><path d="M800.71,445H733.6V377.61l67.11,11.83Zm-64.28-2.84h61.45V391.82L736.43,381Z"/><path d="M865,445H797.88V377.61L865,389.44Zm-64.29-2.84h61.45V391.82L800.71,381Z"/><path d="M929.28,445H862.16V377.61l67.12,11.83ZM865,442.16h61.44V391.82L865,381Z"/><path d="M993.56,445H926.44V377.61l67.12,11.83Zm-64.28-2.84h61.44V391.82L929.28,381Z"/><path d="M1057.84,445H990.72V377.61l67.12,11.83Zm-64.28-2.84H1055V391.82L993.56,381Z"/><path d="M1122.12,445H1055V377.61l67.12,11.83Zm-64.28-2.84h61.45V391.82L1057.84,381Z"/><path d="M1186.4,445h-67.11V377.61l67.11,11.83Zm-64.28-2.84h61.45V391.82L1122.12,381Z"/><path d="M1250.68,445h-67.11V377.61l67.11,11.83Zm-64.28-2.84h61.45V391.82L1186.4,381Z"/><path d="M1315,445h-67.11V377.61L1315,389.44Zm-64.28-2.84h61.45V391.82L1250.68,381Z"/><path d="M1379.24,445h-67.11V377.61l67.11,11.83ZM1315,442.16h61.45V391.82L1315,381Z"/><path d="M1443.52,445h-67.11V377.61l67.11,11.83Zm-64.28-2.84h61.45V391.82L1379.24,381Z"/><path d="M1507.8,445h-67.11V377.61l67.11,11.83Zm-64.28-2.84H1505V391.82L1443.52,381Z"/><path d="M1572.08,445H1505V377.61l67.11,11.83Zm-64.28-2.84h61.45V391.82L1507.8,381Z"/><path d="M1636.37,445h-67.12V377.61l67.12,11.83Zm-64.29-2.84h61.45V391.82L1572.08,381Z"/><path d="M1700.65,445h-67.12V377.61l67.12,11.83Zm-64.28-2.84h61.44V391.82L1636.37,381Z"/><path d="M1764.93,445h-67.12V377.61l67.12,11.83Zm-64.28-2.84h61.44V391.82L1700.65,381Z"/><path d="M1829.21,445h-67.12V377.61l67.12,11.83Zm-64.28-2.84h61.44V391.82L1764.93,381Z"/><path d="M1893.49,445h-67.12V377.61l67.12,11.83Zm-64.28-2.84h61.44V391.82L1829.21,381Z"/><path d="M93.63,380.72H26.51V313.33l67.12,11.83Zm-64.28-2.84H90.79V327.54L29.35,316.71Z"/><path d="M157.91,380.72H90.79V313.33l67.12,11.83Zm-64.28-2.84h61.44V327.54L93.63,316.71Z"/><path d="M222.19,380.72H155.07V313.33l67.12,11.83Zm-64.28-2.84h61.44V327.54l-61.44-10.83Z"/><path d="M286.47,380.72H219.35V313.33l67.12,11.83Zm-64.28-2.84h61.44V327.54l-61.44-10.83Z"/><path d="M350.75,380.72H283.63V313.33l67.12,11.83Zm-64.28-2.84h61.45V327.54l-61.45-10.83Z"/><path d="M415,380.72H347.92V313.33L415,325.16Zm-64.28-2.84H412.2V327.54l-61.45-10.83Z"/><path d="M479.31,380.72H412.2V313.33l67.11,11.83ZM415,377.88h61.45V327.54L415,316.71Z"/><path d="M543.59,380.72H476.48V313.33l67.11,11.83Zm-64.28-2.84h61.45V327.54l-61.45-10.83Z"/><path d="M607.87,380.72H540.76V313.33l67.11,11.83Zm-64.28-2.84H605V327.54l-61.45-10.83Z"/><path d="M672.15,380.72H605V313.33l67.11,11.83Zm-64.28-2.84h61.45V327.54l-61.45-10.83Z"/><path d="M736.43,380.72H669.32V313.33l67.11,11.83Zm-64.28-2.84H733.6V327.54l-61.45-10.83Z"/><path d="M800.71,380.72H733.6V313.33l67.11,11.83Zm-64.28-2.84h61.45V327.54l-61.45-10.83Z"/><path d="M865,380.72H797.88V313.33L865,325.16Zm-64.29-2.84h61.45V327.54l-61.45-10.83Z"/><path d="M929.28,380.72H862.16V313.33l67.12,11.83ZM865,377.88h61.44V327.54L865,316.71Z"/><path d="M993.56,380.72H926.44V313.33l67.12,11.83Zm-64.28-2.84h61.44V327.54l-61.44-10.83Z"/><path d="M1057.84,380.72H990.72V313.33l67.12,11.83Zm-64.28-2.84H1055V327.54l-61.44-10.83Z"/><path d="M1122.12,380.72H1055V313.33l67.12,11.83Zm-64.28-2.84h61.45V327.54l-61.45-10.83Z"/><path d="M1186.4,380.72h-67.11V313.33l67.11,11.83Zm-64.28-2.84h61.45V327.54l-61.45-10.83Z"/><path d="M1250.68,380.72h-67.11V313.33l67.11,11.83Zm-64.28-2.84h61.45V327.54l-61.45-10.83Z"/><path d="M1315,380.72h-67.11V313.33L1315,325.16Zm-64.28-2.84h61.45V327.54l-61.45-10.83Z"/><path d="M1379.24,380.72h-67.11V313.33l67.11,11.83ZM1315,377.88h61.45V327.54L1315,316.71Z"/><path d="M1443.52,380.72h-67.11V313.33l67.11,11.83Zm-64.28-2.84h61.45V327.54l-61.45-10.83Z"/><path d="M1507.8,380.72h-67.11V313.33l67.11,11.83Zm-64.28-2.84H1505V327.54l-61.45-10.83Z"/><path d="M1572.08,380.72H1505V313.33l67.11,11.83Zm-64.28-2.84h61.45V327.54l-61.45-10.83Z"/><path d="M1636.37,380.72h-67.12V313.33l67.12,11.83Zm-64.29-2.84h61.45V327.54l-61.45-10.83Z"/><path d="M1700.65,380.72h-67.12V313.33l67.12,11.83Zm-64.28-2.84h61.44V327.54l-61.44-10.83Z"/><path d="M1764.93,380.72h-67.12V313.33l67.12,11.83Zm-64.28-2.84h61.44V327.54l-61.44-10.83Z"/><path d="M1829.21,380.72h-67.12V313.33l67.12,11.83Zm-64.28-2.84h61.44V327.54l-61.44-10.83Z"/><path d="M1893.49,380.72h-67.12V313.33l67.12,11.83Zm-64.28-2.84h61.44V327.54l-61.44-10.83Z"/><path d="M93.63,316.43H26.51V249.05l67.12,11.83ZM29.35,313.6H90.79V263.26L29.35,252.43Z"/><path d="M157.91,316.43H90.79V249.05l67.12,11.83ZM93.63,313.6h61.44V263.26L93.63,252.43Z"/><path d="M222.19,316.43H155.07V249.05l67.12,11.83Zm-64.28-2.83h61.44V263.26l-61.44-10.83Z"/><path d="M286.47,316.43H219.35V249.05l67.12,11.83Zm-64.28-2.83h61.44V263.26l-61.44-10.83Z"/><path d="M350.75,316.43H283.63V249.05l67.12,11.83Zm-64.28-2.83h61.45V263.26l-61.45-10.83Z"/><path d="M415,316.43H347.92V249.05L415,260.88Zm-64.28-2.83H412.2V263.26l-61.45-10.83Z"/><path d="M479.31,316.43H412.2V249.05l67.11,11.83ZM415,313.6h61.45V263.26L415,252.43Z"/><path d="M543.59,316.43H476.48V249.05l67.11,11.83Zm-64.28-2.83h61.45V263.26l-61.45-10.83Z"/><path d="M607.87,316.43H540.76V249.05l67.11,11.83Zm-64.28-2.83H605V263.26l-61.45-10.83Z"/><path d="M672.15,316.43H605V249.05l67.11,11.83Zm-64.28-2.83h61.45V263.26l-61.45-10.83Z"/><path d="M736.43,316.43H669.32V249.05l67.11,11.83Zm-64.28-2.83H733.6V263.26l-61.45-10.83Z"/><path d="M800.71,316.43H733.6V249.05l67.11,11.83Zm-64.28-2.83h61.45V263.26l-61.45-10.83Z"/><path d="M865,316.43H797.88V249.05L865,260.88Zm-64.29-2.83h61.45V263.26l-61.45-10.83Z"/><path d="M929.28,316.43H862.16V249.05l67.12,11.83ZM865,313.6h61.44V263.26L865,252.43Z"/><path d="M993.56,316.43H926.44V249.05l67.12,11.83Zm-64.28-2.83h61.44V263.26l-61.44-10.83Z"/><path d="M1057.84,316.43H990.72V249.05l67.12,11.83Zm-64.28-2.83H1055V263.26l-61.44-10.83Z"/><path d="M1122.12,316.43H1055V249.05l67.12,11.83Zm-64.28-2.83h61.45V263.26l-61.45-10.83Z"/><path d="M1186.4,316.43h-67.11V249.05l67.11,11.83Zm-64.28-2.83h61.45V263.26l-61.45-10.83Z"/><path d="M1250.68,316.43h-67.11V249.05l67.11,11.83Zm-64.28-2.83h61.45V263.26l-61.45-10.83Z"/><path d="M1315,316.43h-67.11V249.05L1315,260.88Zm-64.28-2.83h61.45V263.26l-61.45-10.83Z"/><path d="M1379.24,316.43h-67.11V249.05l67.11,11.83ZM1315,313.6h61.45V263.26L1315,252.43Z"/><path d="M1443.52,316.43h-67.11V249.05l67.11,11.83Zm-64.28-2.83h61.45V263.26l-61.45-10.83Z"/><path d="M1507.8,316.43h-67.11V249.05l67.11,11.83Zm-64.28-2.83H1505V263.26l-61.45-10.83Z"/><path d="M1572.08,316.43H1505V249.05l67.11,11.83Zm-64.28-2.83h61.45V263.26l-61.45-10.83Z"/><path d="M1636.37,316.43h-67.12V249.05l67.12,11.83Zm-64.29-2.83h61.45V263.26l-61.45-10.83Z"/><path d="M1700.65,316.43h-67.12V249.05l67.12,11.83Zm-64.28-2.83h61.44V263.26l-61.44-10.83Z"/><path d="M1764.93,316.43h-67.12V249.05l67.12,11.83Zm-64.28-2.83h61.44V263.26l-61.44-10.83Z"/><path d="M1829.21,316.43h-67.12V249.05l67.12,11.83Zm-64.28-2.83h61.44V263.26l-61.44-10.83Z"/><path d="M1893.49,316.43h-67.12V249.05l67.12,11.83Zm-64.28-2.83h61.44V263.26l-61.44-10.83Z"/><path d="M93.63,252.15H26.51V184.77L93.63,196.6Zm-64.28-2.83H90.79V199L29.35,188.14Z"/><path d="M157.91,252.15H90.79V184.77l67.12,11.83Zm-64.28-2.83h61.44V199L93.63,188.14Z"/><path d="M222.19,252.15H155.07V184.77l67.12,11.83Zm-64.28-2.83h61.44V199l-61.44-10.84Z"/><path d="M286.47,252.15H219.35V184.77l67.12,11.83Zm-64.28-2.83h61.44V199l-61.44-10.84Z"/><path d="M350.75,252.15H283.63V184.77l67.12,11.83Zm-64.28-2.83h61.45V199l-61.45-10.84Z"/><path d="M415,252.15H347.92V184.77L415,196.6Zm-64.28-2.83H412.2V199l-61.45-10.84Z"/><path d="M479.31,252.15H412.2V184.77l67.11,11.83ZM415,249.32h61.45V199L415,188.14Z"/><path d="M543.59,252.15H476.48V184.77l67.11,11.83Zm-64.28-2.83h61.45V199l-61.45-10.84Z"/><path d="M607.87,252.15H540.76V184.77l67.11,11.83Zm-64.28-2.83H605V199l-61.45-10.84Z"/><path d="M672.15,252.15H605V184.77l67.11,11.83Zm-64.28-2.83h61.45V199l-61.45-10.84Z"/><path d="M736.43,252.15H669.32V184.77l67.11,11.83Zm-64.28-2.83H733.6V199l-61.45-10.84Z"/><path d="M800.71,252.15H733.6V184.77l67.11,11.83Zm-64.28-2.83h61.45V199l-61.45-10.84Z"/><path d="M865,252.15H797.88V184.77L865,196.6Zm-64.29-2.83h61.45V199l-61.45-10.84Z"/><path d="M929.28,252.15H862.16V184.77l67.12,11.83ZM865,249.32h61.44V199L865,188.14Z"/><path d="M993.56,252.15H926.44V184.77l67.12,11.83Zm-64.28-2.83h61.44V199l-61.44-10.84Z"/><path d="M1057.84,252.15H990.72V184.77l67.12,11.83Zm-64.28-2.83H1055V199l-61.44-10.84Z"/><path d="M1122.12,252.15H1055V184.77l67.12,11.83Zm-64.28-2.83h61.45V199l-61.45-10.84Z"/><path d="M1186.4,252.15h-67.11V184.77l67.11,11.83Zm-64.28-2.83h61.45V199l-61.45-10.84Z"/><path d="M1250.68,252.15h-67.11V184.77l67.11,11.83Zm-64.28-2.83h61.45V199l-61.45-10.84Z"/><path d="M1315,252.15h-67.11V184.77L1315,196.6Zm-64.28-2.83h61.45V199l-61.45-10.84Z"/><path d="M1379.24,252.15h-67.11V184.77l67.11,11.83ZM1315,249.32h61.45V199L1315,188.14Z"/><path d="M1443.52,252.15h-67.11V184.77l67.11,11.83Zm-64.28-2.83h61.45V199l-61.45-10.84Z"/><path d="M1507.8,252.15h-67.11V184.77l67.11,11.83Zm-64.28-2.83H1505V199l-61.45-10.84Z"/><path d="M1572.08,252.15H1505V184.77l67.11,11.83Zm-64.28-2.83h61.45V199l-61.45-10.84Z"/><path d="M1636.37,252.15h-67.12V184.77l67.12,11.83Zm-64.29-2.83h61.45V199l-61.45-10.84Z"/><path d="M1700.65,252.15h-67.12V184.77l67.12,11.83Zm-64.28-2.83h61.44V199l-61.44-10.84Z"/><path d="M1764.93,252.15h-67.12V184.77l67.12,11.83Zm-64.28-2.83h61.44V199l-61.44-10.84Z"/><path d="M1829.21,252.15h-67.12V184.77l67.12,11.83Zm-64.28-2.83h61.44V199l-61.44-10.84Z"/><path d="M1893.49,252.15h-67.12V184.77l67.12,11.83Zm-64.28-2.83h61.44V199l-61.44-10.84Z"/><path d="M93.63,187.87H26.51V120.49l67.12,11.83ZM29.35,185H90.79V134.7L29.35,123.86Z"/><path d="M157.91,187.87H90.79V120.49l67.12,11.83ZM93.63,185h61.44V134.7L93.63,123.86Z"/><path d="M222.19,187.87H155.07V120.49l67.12,11.83ZM157.91,185h61.44V134.7l-61.44-10.84Z"/><path d="M286.47,187.87H219.35V120.49l67.12,11.83ZM222.19,185h61.44V134.7l-61.44-10.84Z"/><path d="M350.75,187.87H283.63V120.49l67.12,11.83ZM286.47,185h61.45V134.7l-61.45-10.84Z"/><path d="M415,187.87H347.92V120.49L415,132.32ZM350.75,185H412.2V134.7l-61.45-10.84Z"/><path d="M479.31,187.87H412.2V120.49l67.11,11.83ZM415,185h61.45V134.7L415,123.86Z"/><path d="M543.59,187.87H476.48V120.49l67.11,11.83ZM479.31,185h61.45V134.7l-61.45-10.84Z"/><path d="M607.87,187.87H540.76V120.49l67.11,11.83ZM543.59,185H605V134.7l-61.45-10.84Z"/><path d="M672.15,187.87H605V120.49l67.11,11.83ZM607.87,185h61.45V134.7l-61.45-10.84Z"/><path d="M736.43,187.87H669.32V120.49l67.11,11.83ZM672.15,185H733.6V134.7l-61.45-10.84Z"/><path d="M800.71,187.87H733.6V120.49l67.11,11.83ZM736.43,185h61.45V134.7l-61.45-10.84Z"/><path d="M865,187.87H797.88V120.49L865,132.32ZM800.71,185h61.45V134.7l-61.45-10.84Z"/><path d="M929.28,187.87H862.16V120.49l67.12,11.83ZM865,185h61.44V134.7L865,123.86Z"/><path d="M993.56,187.87H926.44V120.49l67.12,11.83ZM929.28,185h61.44V134.7l-61.44-10.84Z"/><path d="M1057.84,187.87H990.72V120.49l67.12,11.83ZM993.56,185H1055V134.7l-61.44-10.84Z"/><path d="M1122.12,187.87H1055V120.49l67.12,11.83ZM1057.84,185h61.45V134.7l-61.45-10.84Z"/><path d="M1186.4,187.87h-67.11V120.49l67.11,11.83ZM1122.12,185h61.45V134.7l-61.45-10.84Z"/><path d="M1250.68,187.87h-67.11V120.49l67.11,11.83ZM1186.4,185h61.45V134.7l-61.45-10.84Z"/><path d="M1315,187.87h-67.11V120.49L1315,132.32ZM1250.68,185h61.45V134.7l-61.45-10.84Z"/><path d="M1379.24,187.87h-67.11V120.49l67.11,11.83ZM1315,185h61.45V134.7L1315,123.86Z"/><path d="M1443.52,187.87h-67.11V120.49l67.11,11.83ZM1379.24,185h61.45V134.7l-61.45-10.84Z"/><path d="M1507.8,187.87h-67.11V120.49l67.11,11.83ZM1443.52,185H1505V134.7l-61.45-10.84Z"/><path d="M1572.08,187.87H1505V120.49l67.11,11.83ZM1507.8,185h61.45V134.7l-61.45-10.84Z"/><path d="M1636.37,187.87h-67.12V120.49l67.12,11.83ZM1572.08,185h61.45V134.7l-61.45-10.84Z"/><path d="M1700.65,187.87h-67.12V120.49l67.12,11.83ZM1636.37,185h61.44V134.7l-61.44-10.84Z"/><path d="M1764.93,187.87h-67.12V120.49l67.12,11.83ZM1700.65,185h61.44V134.7l-61.44-10.84Z"/><path d="M1829.21,187.87h-67.12V120.49l67.12,11.83ZM1764.93,185h61.44V134.7l-61.44-10.84Z"/><path d="M1893.49,187.87h-67.12V120.49l67.12,11.83ZM1829.21,185h61.44V134.7l-61.44-10.84Z"/><path d="M93.63,123.59H26.51V56.21L93.63,68Zm-64.28-2.83H90.79V70.42L29.35,59.58Z"/><path d="M157.91,123.59H90.79V56.21L157.91,68Zm-64.28-2.83h61.44V70.42L93.63,59.58Z"/><path d="M222.19,123.59H155.07V56.21L222.19,68Zm-64.28-2.83h61.44V70.42L157.91,59.58Z"/><path d="M286.47,123.59H219.35V56.21L286.47,68Zm-64.28-2.83h61.44V70.42L222.19,59.58Z"/><path d="M350.75,123.59H283.63V56.21L350.75,68Zm-64.28-2.83h61.45V70.42L286.47,59.58Z"/><path d="M415,123.59H347.92V56.21L415,68Zm-64.28-2.83H412.2V70.42L350.75,59.58Z"/><path d="M479.31,123.59H412.2V56.21L479.31,68ZM415,120.76h61.45V70.42L415,59.58Z"/><path d="M543.59,123.59H476.48V56.21L543.59,68Zm-64.28-2.83h61.45V70.42L479.31,59.58Z"/><path d="M607.87,123.59H540.76V56.21L607.87,68Zm-64.28-2.83H605V70.42L543.59,59.58Z"/><path d="M672.15,123.59H605V56.21L672.15,68Zm-64.28-2.83h61.45V70.42L607.87,59.58Z"/><path d="M736.43,123.59H669.32V56.21L736.43,68Zm-64.28-2.83H733.6V70.42L672.15,59.58Z"/><path d="M800.71,123.59H733.6V56.21L800.71,68Zm-64.28-2.83h61.45V70.42L736.43,59.58Z"/><path d="M865,123.59H797.88V56.21L865,68Zm-64.29-2.83h61.45V70.42L800.71,59.58Z"/><path d="M929.28,123.59H862.16V56.21L929.28,68ZM865,120.76h61.44V70.42L865,59.58Z"/><path d="M993.56,123.59H926.44V56.21L993.56,68Zm-64.28-2.83h61.44V70.42L929.28,59.58Z"/><path d="M1057.84,123.59H990.72V56.21L1057.84,68Zm-64.28-2.83H1055V70.42L993.56,59.58Z"/><path d="M1122.12,123.59H1055V56.21L1122.12,68Zm-64.28-2.83h61.45V70.42l-61.45-10.84Z"/><path d="M1186.4,123.59h-67.11V56.21L1186.4,68Zm-64.28-2.83h61.45V70.42l-61.45-10.84Z"/><path d="M1250.68,123.59h-67.11V56.21L1250.68,68Zm-64.28-2.83h61.45V70.42L1186.4,59.58Z"/><path d="M1315,123.59h-67.11V56.21L1315,68Zm-64.28-2.83h61.45V70.42l-61.45-10.84Z"/><path d="M1379.24,123.59h-67.11V56.21L1379.24,68ZM1315,120.76h61.45V70.42L1315,59.58Z"/><path d="M1443.52,123.59h-67.11V56.21L1443.52,68Zm-64.28-2.83h61.45V70.42l-61.45-10.84Z"/><path d="M1507.8,123.59h-67.11V56.21L1507.8,68Zm-64.28-2.83H1505V70.42l-61.45-10.84Z"/><path d="M1572.08,123.59H1505V56.21L1572.08,68Zm-64.28-2.83h61.45V70.42L1507.8,59.58Z"/><path d="M1636.37,123.59h-67.12V56.21L1636.37,68Zm-64.29-2.83h61.45V70.42l-61.45-10.84Z"/><path d="M1700.65,123.59h-67.12V56.21L1700.65,68Zm-64.28-2.83h61.44V70.42l-61.44-10.84Z"/><path d="M1764.93,123.59h-67.12V56.21L1764.93,68Zm-64.28-2.83h61.44V70.42l-61.44-10.84Z"/><path d="M1829.21,123.59h-67.12V56.21L1829.21,68Zm-64.28-2.83h61.44V70.42l-61.44-10.84Z"/><path d="M1893.49,123.59h-67.12V56.21L1893.49,68Zm-64.28-2.83h61.44V70.42l-61.44-10.84Z"/></g></svg>