<svg xmlns="http://www.w3.org/2000/svg" viewBox="0 0 1920 1080"><defs><style>.cls-1{fill:#fff;}</style></defs><g id="Layer_2" data-name="Layer 2"><rect class="cls-1" width="1920" height="1080"/></g><g id="Layer_1" data-name="Layer 1"><path d="M1147.37,696l-56.78,156h28.73l10.92-30h70.58l10.92,30h28.73l-56.78-156Zm-7.3,99,25.46-70L1191,795Z"/><polygon points="811.47 489 811.47 462 697.47 462 697.47 618 811.47 618 811.47 591 730.47 591 730.47 549 799.47 549 799.47 522 730.47 522 730.47 489 811.47 489"/><path d="M838.47,309l-85.3-15-4.69,26.59L790.89,328c-5.45,18.74-19.59,32-42.42,32-30,0-45-21-45-54s15-54,45-54c21.35,0,35.09,10.64,41.25,28.66l30-10.94C807.93,241.09,781.42,225,748.47,225c-45,0-78,30-78,81s33,81,78,81c18.49,0,34.28-7.86,45.78-20.7l2.21,17.7h21V332.71l16.31,2.88Z"/><path d="M777.52,762.86l-26.68-4.71c-14-2.46-23.37-8.15-23.37-20.15s10.93-18,25.5-18c12.53,0,23,6.65,25.71,14.24l29.78-10.84C801.11,706.09,780.74,693,753,693h0c-35.18,0-58.5,18-58.5,45s20.46,41.24,43.61,45.32l24.46,4.31c13.07,2.31,21.93,10.25,21.93,19.37,0,15-13.69,21-31.5,21-14.94,0-27.76-8.65-31.29-16.78l-30.2,11C699.4,841.49,722.41,855,753,855c38.11,0,64.5-18,64.5-48C817.47,783,801.7,767.12,777.52,762.86Z"/><path d="M981.51,762.86l-26.68-4.71c-14-2.46-23.37-8.15-23.37-20.15s10.93-18,25.5-18c12.53,0,23,6.65,25.71,14.24l29.78-10.84C1005.1,706.09,984.73,693,957,693h0c-35.18,0-58.5,18-58.5,45s20.46,41.24,43.62,45.32l24.45,4.31c13.07,2.31,21.93,10.25,21.93,19.37,0,15-13.69,21-31.5,21-14.94,0-27.76-8.65-31.28-16.78l-30.21,11C903.39,841.49,926.4,855,957,855c38.12,0,64.5-18,64.5-48C1021.46,783,1005.69,767.12,981.51,762.86Z"/></g></svg>