<svg xmlns="http://www.w3.org/2000/svg" viewBox="0 0 1920 1080"><defs><style>.cls-1{fill:#b8b8b8;}.cls-2{fill:#fff;}.cls-3{fill:#7f7f7f;}</style></defs><g id="Layer_2" data-name="Layer 2"><rect class="cls-1" width="1920" height="1080"/></g><g id="Layer_1" data-name="Layer 1"><path class="cls-2" d="M1362.19,462l-56.78,156h28.73l10.92-30h70.57l10.92,30h28.74l-56.78-156Zm-7.3,99,25.46-69.95L1405.81,561Z"/><polygon class="cls-2" points="819.8 489 819.8 462 705.8 462 705.8 618 819.8 618 819.8 591 738.8 591 738.8 549 807.8 549 807.8 522 738.8 522 738.8 489 819.8 489"/><path class="cls-2" d="M619.65,543l-85.3-15-4.68,26.59,42.4,7.48c-5.45,18.74-19.58,32-42.42,32-30,0-45-21-45-54s15-54,45-54c21.35,0,35.09,10.64,41.25,28.66L601,503.72C589.12,475.09,562.6,459,529.65,459c-45,0-78,30-78,81s33,81,78,81c18.49,0,34.29-7.86,45.78-20.7l2.21,17.7h21V566.71L615,569.59Z"/><path class="cls-2" d="M992.33,528.86l-26.67-4.71c-14-2.46-23.37-8.15-23.37-20.15s10.92-18,25.5-18c12.53,0,23,6.65,25.7,14.24l29.79-10.84c-7.36-17.31-27.72-30.4-55.49-30.4h0c-35.19,0-58.5,18-58.5,45s20.46,41.24,43.61,45.32l24.45,4.31c13.08,2.31,21.94,10.25,21.94,19.37,0,15-13.69,21-31.5,21-14.94,0-27.76-8.65-31.29-16.78l-30.21,11c7.93,19.27,30.93,32.78,61.5,32.78,38.11,0,64.5-18,64.5-48C1032.29,549,1016.52,533.12,992.33,528.86Z"/><path class="cls-2" d="M1196.32,528.86l-26.67-4.71c-14-2.46-23.37-8.15-23.37-20.15s10.93-18,25.5-18c12.53,0,23,6.65,25.71,14.24l29.78-10.84c-7.36-17.31-27.72-30.4-55.49-30.4h0c-35.18,0-58.5,18-58.5,45s20.46,41.24,43.61,45.32l24.46,4.31c13.07,2.31,21.93,10.25,21.93,19.37,0,15-13.69,21-31.5,21-14.94,0-27.76-8.65-31.29-16.78l-30.2,11c7.92,19.27,30.93,32.78,61.49,32.78,38.11,0,64.5-18,64.5-48C1236.28,549,1220.51,533.12,1196.32,528.86Z"/><path class="cls-3" d="M363.69,544.75h-2.51l-3-4.4-3,4.4h-2.48l4.13-6-3.7-5.33h2.53l2.54,3.76,2.53-3.76h2.5l-3.72,5.34Z"/><rect class="cls-3" x="385.38" y="461.99" width="5.94" height="156"/><rect class="cls-3" x="1918" y="461.5" width="2" height="1"/><path class="cls-3" d="M1915,462.5h-4v-1h4Zm-7,0h-4v-1h4Zm-7,0h-4v-1h4Zm-7,0h-4v-1h4Zm-7,0h-4v-1h4Zm-7,0h-4v-1h4Zm-7,0h-4v-1h4Zm-7,0h-4v-1h4Zm-7,0h-4v-1h4Zm-7,0h-4v-1h4Zm-7,0h-4v-1h4Zm-7,0h-4v-1h4Zm-7,0h-4v-1h4Zm-7,0h-4v-1h4Zm-7,0h-4v-1h4Zm-7,0h-4v-1h4Zm-7,0h-4v-1h4Zm-7,0h-4v-1h4Zm-7,0h-4v-1h4Zm-7,0h-4v-1h4Zm-7,0h-4v-1h4Zm-7,0h-4v-1h4Zm-7,0h-4v-1h4Zm-7,0h-4v-1h4Zm-7,0h-4v-1h4Zm-7,0h-4v-1h4Zm-7,0h-4v-1h4Zm-7,0h-4v-1h4Zm-7,0h-4v-1h4Zm-7,0h-4v-1h4Zm-7,0h-4v-1h4Zm-7,0h-4v-1h4Zm-7,0h-4v-1h4Zm-7,0h-4v-1h4Zm-7,0h-4v-1h4Zm-7,0h-4v-1h4Zm-7,0h-4v-1h4Zm-7,0h-4v-1h4Zm-7,0h-4v-1h4Zm-7,0h-4v-1h4Zm-7,0h-4v-1h4Zm-7,0h-4v-1h4Zm-7,0h-4v-1h4Zm-7,0h-4v-1h4Zm-7,0h-4v-1h4Zm-7,0h-4v-1h4Zm-7,0h-4v-1h4Zm-7,0h-4v-1h4Zm-7,0h-4v-1h4Zm-7,0h-4v-1h4Zm-7,0h-4v-1h4Zm-7,0h-4v-1h4Zm-7,0h-4v-1h4Zm-7,0h-4v-1h4Zm-7,0h-4v-1h4Zm-7,0h-4v-1h4Zm-7,0h-4v-1h4Zm-7,0h-4v-1h4Zm-7,0h-4v-1h4Zm-7,0h-4v-1h4Zm-7,0h-4v-1h4Zm-7,0h-4v-1h4Zm-7,0h-4v-1h4Zm-7,0h-4v-1h4Zm-7,0h-4v-1h4Zm-7,0h-4v-1h4Zm-7,0h-4v-1h4Zm-7,0h-4v-1h4Zm-7,0h-4v-1h4Zm-7,0h-4v-1h4Zm-7,0h-4v-1h4Zm-7,0h-4v-1h4Zm-7,0h-4v-1h4Zm-7,0h-4v-1h4Zm-7,0h-4v-1h4Zm-7,0h-4v-1h4Zm-7,0h-4v-1h4Zm-7,0h-4v-1h4Zm-7,0h-4v-1h4Zm-7,0h-4v-1h4Zm-7,0h-4v-1h4Zm-7,0h-4v-1h4Zm-7,0h-4v-1h4Zm-7,0h-4v-1h4Zm-7,0h-4v-1h4Zm-7,0h-4v-1h4Zm-7,0h-4v-1h4Zm-7,0h-4v-1h4Zm-7,0h-4v-1h4Zm-7,0h-4v-1h4Zm-7,0h-4v-1h4Zm-7,0h-4v-1h4Zm-7,0h-4v-1h4Zm-7,0h-4v-1h4Zm-7,0h-4v-1h4Zm-7,0h-4v-1h4Zm-7,0h-4v-1h4Zm-7,0h-4v-1h4Zm-7,0h-4v-1h4Zm-7,0h-4v-1h4Zm-7,0h-4v-1h4Zm-7,0h-4v-1h4Zm-7,0h-4v-1h4Zm-7,0h-4v-1h4Zm-7,0h-4v-1h4Zm-7,0h-4v-1h4Zm-7,0h-4v-1h4Zm-7,0h-4v-1h4Zm-7,0h-4v-1h4Zm-7,0h-4v-1h4Zm-7,0h-4v-1h4Zm-7,0h-4v-1h4Zm-7,0h-4v-1h4Zm-7,0h-4v-1h4Zm-7,0h-4v-1h4Zm-7,0h-4v-1h4Zm-7,0h-4v-1h4Zm-7,0h-4v-1h4Zm-7,0h-4v-1h4Zm-7,0h-4v-1h4Zm-7,0h-4v-1h4Zm-7,0h-4v-1h4Zm-7,0h-4v-1h4Zm-7,0h-4v-1h4Zm-7,0h-4v-1h4Zm-7,0h-4v-1h4Zm-7,0h-4v-1h4Zm-7,0h-4v-1h4Zm-7,0h-4v-1h4Zm-7,0h-4v-1h4Zm-7,0h-4v-1h4Zm-7,0h-4v-1h4Zm-7,0h-4v-1h4Zm-7,0h-4v-1h4Zm-7,0h-4v-1h4Zm-7,0h-4v-1h4Zm-7,0h-4v-1h4Zm-7,0h-4v-1h4Zm-7,0h-4v-1h4Zm-7,0h-4v-1h4Zm-7,0h-4v-1h4Zm-7,0h-4v-1h4Zm-7,0h-4v-1h4Zm-7,0h-4v-1h4Zm-7,0h-4v-1h4Zm-7,0h-4v-1h4Zm-7,0h-4v-1h4Zm-7,0h-4v-1h4Zm-7,0h-4v-1h4Zm-7,0h-4v-1h4Zm-7,0h-4v-1h4Zm-7,0h-4v-1h4Zm-7,0h-4v-1h4Zm-7,0h-4v-1h4Zm-7,0h-4v-1h4Zm-7,0h-4v-1h4Zm-7,0h-4v-1h4Zm-7,0h-4v-1h4Zm-7,0h-4v-1h4Zm-7,0h-4v-1h4Zm-7,0h-4v-1h4Zm-7,0h-4v-1h4Zm-7,0h-4v-1h4Zm-7,0h-4v-1h4Zm-7,0h-4v-1h4Zm-7,0h-4v-1h4Zm-7,0h-4v-1h4Zm-7,0h-4v-1h4Zm-7,0h-4v-1h4Zm-7,0h-4v-1h4Zm-7,0h-4v-1h4Zm-7,0h-4v-1h4Zm-7,0h-4v-1h4Zm-7,0h-4v-1h4Zm-7,0h-4v-1h4Zm-7,0h-4v-1h4Zm-7,0h-4v-1h4Zm-7,0h-4v-1h4Zm-7,0h-4v-1h4Zm-7,0h-4v-1h4Zm-7,0h-4v-1h4Zm-7,0h-4v-1h4Zm-7,0h-4v-1h4Zm-7,0h-4v-1h4Zm-7,0h-4v-1h4Zm-7,0h-4v-1h4Zm-7,0h-4v-1h4Zm-7,0h-4v-1h4Zm-7,0h-4v-1h4Zm-7,0h-4v-1h4Zm-7,0h-4v-1h4Zm-7,0h-4v-1h4Zm-7,0h-4v-1h4Zm-7,0h-4v-1h4Zm-7,0h-4v-1h4Zm-7,0h-4v-1h4Zm-7,0h-4v-1h4Zm-7,0h-4v-1h4Zm-7,0h-4v-1h4Zm-7,0h-4v-1h4Zm-7,0h-4v-1h4Zm-7,0h-4v-1h4Zm-7,0h-4v-1h4Zm-7,0h-4v-1h4Zm-7,0h-4v-1h4Zm-7,0h-4v-1h4Zm-7,0h-4v-1h4Zm-7,0h-4v-1h4Zm-7,0h-4v-1h4Zm-7,0h-4v-1h4Zm-7,0h-4v-1h4Zm-7,0h-4v-1h4Zm-7,0h-4v-1h4Zm-7,0h-4v-1h4Zm-7,0h-4v-1h4Zm-7,0h-4v-1h4Zm-7,0h-4v-1h4Zm-7,0h-4v-1h4Zm-7,0h-4v-1h4Zm-7,0h-4v-1h4Zm-7,0h-4v-1h4Zm-7,0h-4v-1h4Zm-7,0h-4v-1h4Zm-7,0h-4v-1h4Zm-7,0h-4v-1h4Zm-7,0h-4v-1h4Zm-7,0h-4v-1h4Zm-7,0h-4v-1h4Zm-7,0h-4v-1h4Zm-7,0h-4v-1h4Zm-7,0h-4v-1h4Zm-7,0h-4v-1h4Zm-7,0h-4v-1h4Zm-7,0h-4v-1h4Zm-7,0h-4v-1h4Zm-7,0h-4v-1h4Zm-7,0h-4v-1h4Zm-7,0h-4v-1h4Zm-7,0h-4v-1h4Zm-7,0h-4v-1h4Zm-7,0h-4v-1h4Zm-7,0h-4v-1h4Zm-7,0h-4v-1h4Zm-7,0h-4v-1h4Zm-7,0h-4v-1h4Zm-7,0h-4v-1h4Zm-7,0h-4v-1h4Zm-7,0h-4v-1h4Zm-7,0h-4v-1h4Zm-7,0h-4v-1h4Zm-7,0h-4v-1h4Zm-7,0h-4v-1h4Zm-7,0h-4v-1h4Zm-7,0h-4v-1h4Zm-7,0h-4v-1h4Zm-7,0h-4v-1h4Zm-7,0h-4v-1h4Zm-7,0h-4v-1h4Zm-7,0h-4v-1h4Zm-7,0h-4v-1h4Zm-7,0h-4v-1h4Zm-7,0h-4v-1h4Zm-7,0h-4v-1h4Zm-7,0h-4v-1h4Zm-7,0h-4v-1h4Zm-7,0h-4v-1h4Zm-7,0H47v-1h4Zm-7,0H40v-1h4Zm-7,0H33v-1h4Zm-7,0H26v-1h4Zm-7,0H19v-1h4Zm-7,0H12v-1h4Zm-7,0H5v-1H9Z"/><rect class="cls-3" y="461.5" width="2" height="1"/><rect class="cls-3" x="1918" y="617.49" width="2" height="1"/><path class="cls-3" d="M1915,618.49h-4v-1h4Zm-7,0h-4v-1h4Zm-7,0h-4v-1h4Zm-7,0h-4v-1h4Zm-7,0h-4v-1h4Zm-7,0h-4v-1h4Zm-7,0h-4v-1h4Zm-7,0h-4v-1h4Zm-7,0h-4v-1h4Zm-7,0h-4v-1h4Zm-7,0h-4v-1h4Zm-7,0h-4v-1h4Zm-7,0h-4v-1h4Zm-7,0h-4v-1h4Zm-7,0h-4v-1h4Zm-7,0h-4v-1h4Zm-7,0h-4v-1h4Zm-7,0h-4v-1h4Zm-7,0h-4v-1h4Zm-7,0h-4v-1h4Zm-7,0h-4v-1h4Zm-7,0h-4v-1h4Zm-7,0h-4v-1h4Zm-7,0h-4v-1h4Zm-7,0h-4v-1h4Zm-7,0h-4v-1h4Zm-7,0h-4v-1h4Zm-7,0h-4v-1h4Zm-7,0h-4v-1h4Zm-7,0h-4v-1h4Zm-7,0h-4v-1h4Zm-7,0h-4v-1h4Zm-7,0h-4v-1h4Zm-7,0h-4v-1h4Zm-7,0h-4v-1h4Zm-7,0h-4v-1h4Zm-7,0h-4v-1h4Zm-7,0h-4v-1h4Zm-7,0h-4v-1h4Zm-7,0h-4v-1h4Zm-7,0h-4v-1h4Zm-7,0h-4v-1h4Zm-7,0h-4v-1h4Zm-7,0h-4v-1h4Zm-7,0h-4v-1h4Zm-7,0h-4v-1h4Zm-7,0h-4v-1h4Zm-7,0h-4v-1h4Zm-7,0h-4v-1h4Zm-7,0h-4v-1h4Zm-7,0h-4v-1h4Zm-7,0h-4v-1h4Zm-7,0h-4v-1h4Zm-7,0h-4v-1h4Zm-7,0h-4v-1h4Zm-7,0h-4v-1h4Zm-7,0h-4v-1h4Zm-7,0h-4v-1h4Zm-7,0h-4v-1h4Zm-7,0h-4v-1h4Zm-7,0h-4v-1h4Zm-7,0h-4v-1h4Zm-7,0h-4v-1h4Zm-7,0h-4v-1h4Zm-7,0h-4v-1h4Zm-7,0h-4v-1h4Zm-7,0h-4v-1h4Zm-7,0h-4v-1h4Zm-7,0h-4v-1h4Zm-7,0h-4v-1h4Zm-7,0h-4v-1h4Zm-7,0h-4v-1h4Zm-7,0h-4v-1h4Zm-7,0h-4v-1h4Zm-7,0h-4v-1h4Zm-7,0h-4v-1h4Zm-7,0h-4v-1h4Zm-7,0h-4v-1h4Zm-7,0h-4v-1h4Zm-7,0h-4v-1h4Zm-7,0h-4v-1h4Zm-7,0h-4v-1h4Zm-7,0h-4v-1h4Zm-7,0h-4v-1h4Zm-7,0h-4v-1h4Zm-7,0h-4v-1h4Zm-7,0h-4v-1h4Zm-7,0h-4v-1h4Zm-7,0h-4v-1h4Zm-7,0h-4v-1h4Zm-7,0h-4v-1h4Zm-7,0h-4v-1h4Zm-7,0h-4v-1h4Zm-7,0h-4v-1h4Zm-7,0h-4v-1h4Zm-7,0h-4v-1h4Zm-7,0h-4v-1h4Zm-7,0h-4v-1h4Zm-7,0h-4v-1h4Zm-7,0h-4v-1h4Zm-7,0h-4v-1h4Zm-7,0h-4v-1h4Zm-7,0h-4v-1h4Zm-7,0h-4v-1h4Zm-7,0h-4v-1h4Zm-7,0h-4v-1h4Zm-7,0h-4v-1h4Zm-7,0h-4v-1h4Zm-7,0h-4v-1h4Zm-7,0h-4v-1h4Zm-7,0h-4v-1h4Zm-7,0h-4v-1h4Zm-7,0h-4v-1h4Zm-7,0h-4v-1h4Zm-7,0h-4v-1h4Zm-7,0h-4v-1h4Zm-7,0h-4v-1h4Zm-7,0h-4v-1h4Zm-7,0h-4v-1h4Zm-7,0h-4v-1h4Zm-7,0h-4v-1h4Zm-7,0h-4v-1h4Zm-7,0h-4v-1h4Zm-7,0h-4v-1h4Zm-7,0h-4v-1h4Zm-7,0h-4v-1h4Zm-7,0h-4v-1h4Zm-7,0h-4v-1h4Zm-7,0h-4v-1h4Zm-7,0h-4v-1h4Zm-7,0h-4v-1h4Zm-7,0h-4v-1h4Zm-7,0h-4v-1h4Zm-7,0h-4v-1h4Zm-7,0h-4v-1h4Zm-7,0h-4v-1h4Zm-7,0h-4v-1h4Zm-7,0h-4v-1h4Zm-7,0h-4v-1h4Zm-7,0h-4v-1h4Zm-7,0h-4v-1h4Zm-7,0h-4v-1h4Zm-7,0h-4v-1h4Zm-7,0h-4v-1h4Zm-7,0h-4v-1h4Zm-7,0h-4v-1h4Zm-7,0h-4v-1h4Zm-7,0h-4v-1h4Zm-7,0h-4v-1h4Zm-7,0h-4v-1h4Zm-7,0h-4v-1h4Zm-7,0h-4v-1h4Zm-7,0h-4v-1h4Zm-7,0h-4v-1h4Zm-7,0h-4v-1h4Zm-7,0h-4v-1h4Zm-7,0h-4v-1h4Zm-7,0h-4v-1h4Zm-7,0h-4v-1h4Zm-7,0h-4v-1h4Zm-7,0h-4v-1h4Zm-7,0h-4v-1h4Zm-7,0h-4v-1h4Zm-7,0h-4v-1h4Zm-7,0h-4v-1h4Zm-7,0h-4v-1h4Zm-7,0h-4v-1h4Zm-7,0h-4v-1h4Zm-7,0h-4v-1h4Zm-7,0h-4v-1h4Zm-7,0h-4v-1h4Zm-7,0h-4v-1h4Zm-7,0h-4v-1h4Zm-7,0h-4v-1h4Zm-7,0h-4v-1h4Zm-7,0h-4v-1h4Zm-7,0h-4v-1h4Zm-7,0h-4v-1h4Zm-7,0h-4v-1h4Zm-7,0h-4v-1h4Zm-7,0h-4v-1h4Zm-7,0h-4v-1h4Zm-7,0h-4v-1h4Zm-7,0h-4v-1h4Zm-7,0h-4v-1h4Zm-7,0h-4v-1h4Zm-7,0h-4v-1h4Zm-7,0h-4v-1h4Zm-7,0h-4v-1h4Zm-7,0h-4v-1h4Zm-7,0h-4v-1h4Zm-7,0h-4v-1h4Zm-7,0h-4v-1h4Zm-7,0h-4v-1h4Zm-7,0h-4v-1h4Zm-7,0h-4v-1h4Zm-7,0h-4v-1h4Zm-7,0h-4v-1h4Zm-7,0h-4v-1h4Zm-7,0h-4v-1h4Zm-7,0h-4v-1h4Zm-7,0h-4v-1h4Zm-7,0h-4v-1h4Zm-7,0h-4v-1h4Zm-7,0h-4v-1h4Zm-7,0h-4v-1h4Zm-7,0h-4v-1h4Zm-7,0h-4v-1h4Zm-7,0h-4v-1h4Zm-7,0h-4v-1h4Zm-7,0h-4v-1h4Zm-7,0h-4v-1h4Zm-7,0h-4v-1h4Zm-7,0h-4v-1h4Zm-7,0h-4v-1h4Zm-7,0h-4v-1h4Zm-7,0h-4v-1h4Zm-7,0h-4v-1h4Zm-7,0h-4v-1h4Zm-7,0h-4v-1h4Zm-7,0h-4v-1h4Zm-7,0h-4v-1h4Zm-7,0h-4v-1h4Zm-7,0h-4v-1h4Zm-7,0h-4v-1h4Zm-7,0h-4v-1h4Zm-7,0h-4v-1h4Zm-7,0h-4v-1h4Zm-7,0h-4v-1h4Zm-7,0h-4v-1h4Zm-7,0h-4v-1h4Zm-7,0h-4v-1h4Zm-7,0h-4v-1h4Zm-7,0h-4v-1h4Zm-7,0h-4v-1h4Zm-7,0h-4v-1h4Zm-7,0h-4v-1h4Zm-7,0h-4v-1h4Zm-7,0h-4v-1h4Zm-7,0h-4v-1h4Zm-7,0h-4v-1h4Zm-7,0h-4v-1h4Zm-7,0h-4v-1h4Zm-7,0h-4v-1h4Zm-7,0h-4v-1h4Zm-7,0h-4v-1h4Zm-7,0h-4v-1h4Zm-7,0h-4v-1h4Zm-7,0h-4v-1h4Zm-7,0h-4v-1h4Zm-7,0h-4v-1h4Zm-7,0h-4v-1h4Zm-7,0h-4v-1h4Zm-7,0h-4v-1h4Zm-7,0h-4v-1h4Zm-7,0h-4v-1h4Zm-7,0h-4v-1h4Zm-7,0h-4v-1h4Zm-7,0h-4v-1h4Zm-7,0h-4v-1h4Zm-7,0h-4v-1h4Zm-7,0h-4v-1h4Zm-7,0h-4v-1h4Zm-7,0h-4v-1h4Zm-7,0h-4v-1h4Zm-7,0h-4v-1h4Zm-7,0H47v-1h4Zm-7,0H40v-1h4Zm-7,0H33v-1h4Zm-7,0H26v-1h4Zm-7,0H19v-1h4Zm-7,0H12v-1h4Zm-7,0H5v-1H9Z"/><rect class="cls-3" y="617.49" width="2" height="1"/></g><g id="Layer_3" data-name="Layer 3"><path class="cls-3" d="M841.3,618.5h-157v-157h157Zm-156-1h155v-155h-155Z"/><path class="cls-3" d="M614.15,618.5h-157v-157h157Zm-156-1h155v-155h-155Z"/><path class="cls-3" d="M1047.79,618.5h-157v-157h157Zm-156-1h155v-155h-155Z"/><path class="cls-3" d="M1251.78,618.5h-157v-157h157Zm-156-1h155v-155h-155Z"/><path class="cls-3" d="M1458.85,618.5h-157v-157h157Zm-156-1h155v-155h-155Z"/></g></svg>