<svg xmlns="http://www.w3.org/2000/svg" viewBox="0 0 1080 1080"><defs><style>.cls-1{fill:#fff;}</style></defs><g id="Layer_1" data-name="Layer 1"><rect class="cls-1" x="399" y="360" width="72" height="360"/><rect class="cls-1" x="471" y="654" width="102" height="66"/><path class="cls-1" d="M567,492c-63,0-114,78-114,114A114,114,0,0,0,567,720c63,0,114-33,114-114,0-72-51-114-114-114m-6,162H470.66V631l56.4-56.4C536.43,565.2,548.72,558,561,558c24,0,48,18,48,48s-24,48-48,48"/><polygon class="cls-1" points="597.28 504.27 469.31 632.24 428.85 587.85 554.85 461.85 597.28 504.27"/><path class="cls-1" d="M543,360a90,90,0,0,0-86.76,66H540a21,21,0,0,1,14.85,35.85l-57.6,65.67A90,90,0,1,0,543,360"/><rect class="cls-1" x="459" y="624" width="12" height="30"/><polygon class="cls-1" points="447 426 531 426 537 360 447 360 447 426"/></g></svg>