<svg xmlns="http://www.w3.org/2000/svg" viewBox="0 0 1920 1080"><defs><style>.cls-1{fill:#fff;}.cls-2,.cls-3{fill:none;stroke:#7f7f7f;stroke-miterlimit:10;}.cls-3{stroke-dasharray:5 5;}.cls-4{fill:#7f7f7f;}</style></defs><g id="Layer_1" data-name="Layer 1"><rect class="cls-1" x="721.01" y="473" width="156" height="33" transform="translate(1288.51 -309.51) rotate(90)"/><rect class="cls-1" x="803.51" y="489.5" width="123" height="33" transform="translate(1371.01 -359.01) rotate(90)"/><rect class="cls-1" x="1001.51" y="489.5" width="123" height="33" transform="translate(1569.01 -557.01) rotate(90)"/><rect class="cls-1" x="935.51" y="489.5" width="123" height="33" transform="translate(1503.01 -491.01) rotate(90)"/><rect class="cls-1" x="848.51" y="534.5" width="231" height="33" transform="translate(1928.02 1102) rotate(180)"/><rect class="cls-1" x="1112.47" y="534.5" width="156" height="33" transform="translate(2380.94 1102) rotate(180)"/><rect class="cls-1" x="1101.94" y="473" width="177.05" height="33" transform="translate(1776.99 1635.28) rotate(-139.46)"/><rect class="cls-1" x="1112.47" y="411.5" width="156" height="33" transform="translate(2380.94 856) rotate(180)"/><rect class="cls-1" x="1163.24" y="381.5" width="105.23" height="15" transform="translate(2431.71 778) rotate(180)"/><path class="cls-1" d="M809.47,645.5l-18.92,52h9.58l3.63-10h23.53l3.64,10h9.58l-18.93-52Zm-2.43,33,8.49-23.32L824,678.5Z"/><polygon class="cls-1" points="697.51 576.5 697.51 567.5 659.51 567.5 659.51 619.5 697.51 619.5 697.51 610.5 670.51 610.5 670.51 596.5 693.51 596.5 693.51 587.5 670.51 587.5 670.51 576.5 697.51 576.5"/><path class="cls-1" d="M706.51,516.5l-28.44-5-1.56,8.86,14.14,2.49c-1.82,6.25-6.53,10.66-14.14,10.66-10,0-15-7-15-18s5-18,15-18c7.11,0,11.69,3.55,13.75,9.55l10-3.64c-3.94-9.55-12.78-14.91-23.76-14.91-15,0-26,10-26,27s11,27,26,27a20.14,20.14,0,0,0,15.26-6.9l.73,5.9h7V524.4l5.43,1Z"/><path class="cls-1" d="M686.19,667.79l-8.89-1.57c-4.66-.82-7.79-2.72-7.79-6.72s3.64-6,8.5-6c4.17,0,7.67,2.22,8.57,4.75l9.92-3.62c-2.45-5.77-9.24-10.13-18.49-10.13h0c-11.73,0-19.5,6-19.5,15s6.82,13.75,14.54,15.11L681.2,676c4.35.77,7.31,3.42,7.31,6.46,0,5-4.57,7-10.5,7-5,0-9.25-2.88-10.43-5.59l-10.07,3.66c2.64,6.43,10.31,10.93,20.5,10.93,12.7,0,21.5-6,21.5-16C699.51,674.5,694.25,669.21,686.19,667.79Z"/><path class="cls-1" d="M754.19,667.79l-8.89-1.57c-4.66-.82-7.8-2.72-7.8-6.72s3.65-6,8.5-6c4.18,0,7.68,2.22,8.57,4.75l9.93-3.62c-2.45-5.77-9.24-10.13-18.5-10.13h0c-11.72,0-19.5,6-19.5,15s6.83,13.75,14.54,15.11l8.15,1.43c4.36.77,7.31,3.42,7.31,6.46,0,5-4.56,7-10.5,7-5,0-9.25-2.88-10.42-5.59l-10.07,3.66C728.15,694,735.82,698.5,746,698.5c12.71,0,21.5-6,21.5-16C767.5,674.5,762.25,669.21,754.19,667.79Z"/><rect class="cls-2" x="652.53" y="645.51" width="51.99" height="51.99"/><rect class="cls-2" x="652.53" y="567.5" width="51.99" height="51.99"/><rect class="cls-2" x="704.53" y="567.5" width="77.98" height="77.98"/><rect class="cls-2" x="652.53" y="489.5" width="51.99" height="51.99"/><rect class="cls-2" x="789.51" y="645.51" width="51.99" height="51.99"/><rect class="cls-2" x="720.51" y="645.51" width="51.99" height="51.99"/><line class="cls-3" y1="567.5" x2="1920" y2="567.5"/><path class="cls-4" d="M573,598.3h-2.51l-3-4.4-3,4.4H562l4.13-6-3.7-5.32H565l2.54,3.76,2.53-3.76h2.5l-3.72,5.34Z"/><rect class="cls-4" x="594.64" y="567.5" width="5.94" height="51.99"/><line class="cls-3" y1="619.5" x2="1920" y2="619.5"/><line class="cls-3" y1="645.49" x2="1920" y2="645.49"/><line class="cls-3" x1="1920" y1="411.5" y2="411.5"/><line class="cls-3" x1="1920" y1="444.5" y2="444.5"/><path class="cls-4" d="M455.32,599.94H457v10.88h-2.16v-8.24l-1.88,1.3-1-1.48Z"/><path class="cls-4" d="M461.73,608.5v2.32h-2.27V608.5Z"/><path class="cls-4" d="M467.92,603.75a3.42,3.42,0,0,1,2.55,1,3.31,3.31,0,0,1,1,2.41A3.75,3.75,0,0,1,470.3,610a4,4,0,0,1-2.9,1.11,6.44,6.44,0,0,1-2.13-.33,10.63,10.63,0,0,1-2.15-1.16l1.06-1.52a12.27,12.27,0,0,0,1.7.92,3.56,3.56,0,0,0,1.37.25,2.12,2.12,0,0,0,1.47-.53,1.93,1.93,0,0,0,.08-2.72,2,2,0,0,0-1.43-.49,2.48,2.48,0,0,0-1.69.62l-1.9-.17.48-6h6.66v1.79h-4.84l-.22,2.61A3.5,3.5,0,0,1,467.92,603.75Z"/><path class="cls-4" d="M483.25,610.82h-2.51l-3-4.4-3,4.4h-2.48l4.13-6-3.7-5.33h2.53l2.55,3.76,2.52-3.76h2.5l-3.71,5.34Z"/><rect class="cls-4" x="504.26" y="567.5" width="5.94" height="77.98"/></g></svg>