<?xml version="1.0" encoding="utf-8"?>
<!-- Generator: Adobe Illustrator 25.0.0, SVG Export Plug-In . SVG Version: 6.00 Build 0)  -->
<svg version="1.1" id="Layer_1" xmlns="http://www.w3.org/2000/svg" xmlns:xlink="http://www.w3.org/1999/xlink" x="0px" y="0px"
	 viewBox="0 0 1920 1080" style="enable-background:new 0 0 1920 1080;" xml:space="preserve">
<style type="text/css">
	.st0{fill:#FFFFFF;}
	.st1{enable-background:new    ;}
</style>
<g id="Layer_2_1_">
	<rect class="st0" width="1920" height="1080"/>
</g>
<g id="Layer_1_1_">
	<path d="M1147.4,604.6l-56.8,156h28.7l10.9-30h70.6l10.9,30h28.7l-56.8-156H1147.4z M1140.1,703.6l25.5-70l25.5,70H1140.1z"/>
	<polygon points="811.5,397.6 811.5,370.6 697.5,370.6 697.5,526.6 811.5,526.6 811.5,499.6 730.5,499.6 730.5,457.6 799.5,457.6 
		799.5,430.6 730.5,430.6 730.5,397.6 	"/>
	<path d="M838.5,217.6l-85.3-15l-4.7,26.6l42.4,7.5c-5.5,18.7-19.6,32-42.4,32c-30,0-45-21-45-54s15-54,45-54
		c21.3,0,35.1,10.6,41.2,28.7l30-10.9c-11.8-28.6-38.3-44.7-71.3-44.7c-45,0-78,30-78,81s33,81,78,81c18.5,0,34.3-7.9,45.8-20.7
		l2.2,17.7h21v-51.4l16.3,2.9L838.5,217.6z"/>
	<path d="M777.5,671.5l-26.7-4.7c-14-2.5-23.4-8.2-23.4-20.2s10.9-18,25.5-18c12.5,0,23,6.7,25.7,14.2l29.8-10.9
		c-7.3-17.3-27.7-30.4-55.5-30.4l0,0c-35.2,0-58.5,18-58.5,45s20.5,41.2,43.6,45.3l24.5,4.3c13.1,2.3,21.9,10.2,21.9,19.4
		c0,15-13.7,21-31.5,21c-14.9,0-27.8-8.7-31.3-16.8l-30.2,11c7.9,19.3,30.9,32.8,61.5,32.8c38.1,0,64.5-18,64.5-48
		C817.5,691.6,801.7,675.8,777.5,671.5z"/>
	<path d="M981.5,671.5l-26.7-4.7c-14-2.5-23.4-8.2-23.4-20.2s10.9-18,25.5-18c12.5,0,23,6.7,25.7,14.2l29.8-10.9
		c-7.3-17.3-27.7-30.4-55.5-30.4l0,0c-35.2,0-58.5,18-58.5,45s20.5,41.2,43.6,45.3l24.5,4.3c13.1,2.3,21.9,10.2,21.9,19.4
		c0,15-13.7,21-31.5,21c-14.9,0-27.8-8.7-31.3-16.8l-30.2,11c7.9,19.3,30.9,32.8,61.5,32.8c38.1,0,64.5-18,64.5-48
		C1021.5,691.6,1005.7,675.8,981.5,671.5z"/>
	<g class="st1">
		<path d="M691.4,917.6h11.2c2.6,0,4.6,0.7,6.1,2.1s2.3,3.3,2.3,5.7s-0.8,4.3-2.3,5.7c-1.5,1.4-3.6,2.1-6.1,2.1h-7.8v10.4h-3.4
			V917.6z M702,920.4h-7.3v9.9h7.3c1.8,0,3.1-0.4,4.1-1.3c1-0.9,1.5-2.1,1.5-3.7s-0.5-2.8-1.5-3.6S703.8,920.4,702,920.4z"/>
		<path d="M735.3,943.5h-3.8l-6.9-10.4h-6.1v10.4h-3.4v-25.9H726c2.5,0,4.5,0.7,6,2.1c1.6,1.4,2.4,3.3,2.4,5.6c0,2-0.6,3.7-1.7,5
			c-1.1,1.3-2.6,2.2-4.6,2.6L735.3,943.5z M718.5,920.4v9.9h7c1.8,0,3.1-0.4,4.1-1.3c1-0.9,1.5-2.1,1.5-3.7s-0.5-2.8-1.5-3.6
			c-1-0.9-2.4-1.3-4.1-1.3H718.5z"/>
		<path d="M756.7,917.6v2.8h-13.9v8.3h12.9v2.8h-12.9v9.1H757v2.8h-17.6v-25.9H756.7z"/>
		<path d="M769.9,917c1.9,0,3.7,0.3,5.2,0.9c1.5,0.6,3,1.6,4.6,2.9l-2,2.3c-1.4-1.2-2.6-2-3.8-2.5c-1.2-0.5-2.5-0.7-4-0.7
			c-1.8,0-3.2,0.4-4.3,1.2c-1.1,0.8-1.7,1.8-1.7,3c0,1.6,1,2.7,3,3.4c0.9,0.3,2.3,0.7,4.2,1.1c3.4,0.8,5.7,1.7,7,2.8
			c1.3,1,2,2.6,2,4.7c0,2.4-0.9,4.3-2.7,5.8c-1.8,1.5-4.1,2.2-6.9,2.2c-2.2,0-4-0.4-5.6-1.1c-1.7-0.7-3.5-1.9-5.3-3.4l2-2.4
			c1.8,1.5,3.4,2.5,4.7,3.1c1.3,0.6,2.7,0.8,4.2,0.8c1.8,0,3.3-0.4,4.4-1.3c1.1-0.9,1.7-2.1,1.7-3.6c0-1.8-1-3-3.1-3.7
			c-0.9-0.3-2.3-0.7-4.2-1.1c-3.4-0.8-5.7-1.6-6.9-2.6c-1.3-1-1.9-2.5-1.9-4.5c0-2.1,0.9-3.8,2.7-5.2
			C765.1,917.7,767.3,917,769.9,917z"/>
		<path d="M801.8,917.6v2.8h-13.9v8.3h12.9v2.8h-12.9v9.1h14.2v2.8h-17.6v-25.9H801.8z"/>
		<path d="M824.2,917.6h3.3v25.9h-3.7l-7.7-11.8c-0.6-0.9-1.1-1.7-1.6-2.4c-2.3-3.5-3.9-6-4.7-7.5c0.1,3,0.2,6.3,0.2,10.1v11.6h-3.3
			v-25.9h3.8l7.8,12c0.1,0.2,0.3,0.5,0.5,0.7c0.2,0.3,0.3,0.4,0.3,0.5c1.5,2.3,2.3,3.5,2.3,3.6c0.8,1.2,1.8,2.8,2.9,4.8
			c-0.1-2.4-0.1-5.7-0.1-9.8V917.6z"/>
		<path d="M844.4,917c1.7,0,3.2,0.3,4.6,0.9c1.4,0.6,2.9,1.5,4.4,2.9l-1.9,2.3c-1.3-1.1-2.6-1.9-3.7-2.4c-1.1-0.5-2.3-0.7-3.5-0.7
			c-2.7,0-4.9,1-6.6,2.9c-1.6,2-2.4,4.5-2.4,7.6c0,3.1,0.8,5.7,2.4,7.6s3.7,3,6.3,3c1.4,0,2.7-0.3,3.8-0.9c1.1-0.6,2.4-1.5,4-2.9
			l2,2.3c-1.7,1.6-3.2,2.8-4.7,3.5c-1.5,0.7-3.2,1-5,1c-3.8,0-6.8-1.3-9-3.8s-3.3-5.8-3.3-9.8s1.1-7.3,3.3-9.8S840.5,917,844.4,917z
			"/>
		<path d="M874.9,917.6v2.8h-13.9v8.3H874v2.8h-12.9v9.1h14.2v2.8h-17.6v-25.9H874.9z"/>
		<path d="M891.8,917.6v25.9h-3.4v-25.9H891.8z"/>
		<path d="M915.5,917.6h3.3v25.9H915l-7.7-11.8c-0.6-0.9-1.1-1.7-1.6-2.4c-2.3-3.5-3.9-6-4.7-7.5c0.1,3,0.2,6.3,0.2,10.1v11.6H898
			v-25.9h3.8l7.8,12c0.1,0.2,0.3,0.5,0.5,0.7c0.2,0.3,0.3,0.4,0.3,0.5c1.5,2.3,2.3,3.5,2.3,3.6c0.8,1.2,1.8,2.8,2.9,4.8
			c-0.1-2.4-0.1-5.7-0.1-9.8V917.6z"/>
		<path d="M950.2,917.6v2.8h-13.9v8.3h12.9v2.8h-12.9v9.1h14.2v2.8h-17.6v-25.9H950.2z"/>
		<path d="M971.2,917.6h3.5l-8.8,25.9h-4.3l-8.8-25.9h3.5l4.3,12.8c1.3,3.9,2.4,7.3,3.2,10.1c0.8-2.7,1.8-6,3.1-10.1L971.2,917.6z"
			/>
		<path d="M995.5,917.6v2.8h-13.9v8.3h12.9v2.8h-12.9v9.1h14.2v2.8h-17.6v-25.9H995.5z"/>
		<path d="M1020.6,943.5h-3.8l-6.9-10.4h-6.1v10.4h-3.4v-25.9h10.9c2.5,0,4.5,0.7,6,2.1s2.4,3.3,2.4,5.6c0,2-0.6,3.7-1.7,5
			c-1.1,1.3-2.6,2.2-4.6,2.6L1020.6,943.5z M1003.8,920.4v9.9h7c1.8,0,3.1-0.4,4.1-1.3c1-0.9,1.5-2.1,1.5-3.7s-0.5-2.8-1.5-3.6
			c-1-0.9-2.4-1.3-4.1-1.3H1003.8z"/>
		<path d="M1039.8,917.6h3.6l-9.2,14.8v11h-3.4v-11.1l-9.1-14.8h3.7l7.1,11.8L1039.8,917.6z"/>
		<path d="M1054.5,917.6h9.7c3.6,0,6.4,1.2,8.4,3.6c2,2.4,3,5.5,3,9.4c0,3.9-1,7-3,9.4c-2,2.4-4.8,3.6-8.4,3.6h-9.7V917.6z
			 M1063.7,920.4h-5.8v20.3h5.8c2.7,0,4.8-0.9,6.3-2.7c1.5-1.8,2.2-4.3,2.2-7.5c0-3.2-0.8-5.6-2.3-7.4
			C1068.5,921.3,1066.4,920.4,1063.7,920.4z"/>
		<path d="M1097.4,917.6v2.8h-13.9v8.3h12.9v2.8h-12.9v9.1h14.2v2.8h-17.6v-25.9H1097.4z"/>
		<path d="M1120.1,917.6v2.8h-8.1v23h-3.4v-23h-8.1v-2.8H1120.1z"/>
		<path d="M1138.5,943.5l-2.4-6.6h-11.6l-2.4,6.6h-3.4l9.4-25.9h4.4l9.4,25.9H1138.5z M1125.6,934h9.6l-1.2-3.4
			c-1.6-4.5-2.8-8-3.6-10.5c-0.6,1.8-1.1,3.3-1.5,4.6c-0.2,0.6-0.4,1.3-0.7,2.1c-0.3,0.9-0.5,1.4-0.6,1.7l-0.8,2.2L1125.6,934z"/>
		<path d="M1149.2,917.6v25.9h-3.4v-25.9H1149.2z"/>
		<path d="M1158.8,917.6v23h12.1v2.8h-15.5v-25.9H1158.8z"/>
	</g>
</g>
</svg>
