<?xml version="1.0" encoding="utf-8"?>
<!-- Generator: Adobe Illustrator 25.0.0, SVG Export Plug-In . SVG Version: 6.00 Build 0)  -->
<svg version="1.1" id="Layer_1" xmlns="http://www.w3.org/2000/svg" xmlns:xlink="http://www.w3.org/1999/xlink" x="0px" y="0px"
	 viewBox="0 0 1920 1080" style="enable-background:new 0 0 1920 1080;" xml:space="preserve">
<style type="text/css">
	.st0{fill:#FFFFFF;}
	.st1{enable-background:new    ;}
</style>
<g id="Layer_2_1_">
	<rect class="st0" width="1920" height="1080"/>
</g>
<g id="Layer_1_1_">
	<rect x="782.5" y="411.5" width="33" height="156"/>
	<rect x="848.5" y="444.5" width="33" height="123"/>
	<rect x="1046.5" y="444.5" width="33" height="123"/>
	<rect x="980.5" y="444.5" width="33" height="123"/>
	<rect x="848.5" y="534.5" width="231" height="33"/>
	<rect x="1112.5" y="534.5" width="156" height="33"/>
	<rect x="1174" y="401" transform="matrix(0.65 -0.76 0.76 0.65 44.684 1076.0291)" width="33" height="177.1"/>
	<rect x="1112.5" y="411.5" width="156" height="33"/>
	<rect x="1163.2" y="381.5" width="105.2" height="15"/>
	<path d="M809.5,645.5l-18.9,52h9.6l3.6-10h23.5l3.6,10h9.6l-18.9-52H809.5z M807,678.5l8.5-23.3l8.5,23.3H807z"/>
	<polygon points="697.5,576.5 697.5,567.5 659.5,567.5 659.5,619.5 697.5,619.5 697.5,610.5 670.5,610.5 670.5,596.5 693.5,596.5 
		693.5,587.5 670.5,587.5 670.5,576.5 	"/>
	<path d="M706.5,516.5l-28.4-5l-1.6,8.9l14.1,2.5c-1.8,6.2-6.5,10.7-14.1,10.7c-10,0-15-7-15-18s5-18,15-18c7.1,0,11.7,3.5,13.8,9.5
		l10-3.6c-3.9-9.5-12.8-14.9-23.8-14.9c-15,0-26,10-26,27c0,17,11,27,26,27c5.8,0,11.4-2.5,15.3-6.9l0.7,5.9h7v-17.1l5.4,1
		L706.5,516.5z"/>
	<path d="M686.2,667.8l-8.9-1.6c-4.7-0.8-7.8-2.7-7.8-6.7s3.6-6,8.5-6c4.2,0,7.7,2.2,8.6,4.8l9.9-3.6c-2.5-5.8-9.2-10.1-18.5-10.1
		l0,0c-11.7,0-19.5,6-19.5,15s6.8,13.8,14.5,15.1l8.2,1.4c4.3,0.8,7.3,3.4,7.3,6.5c0,5-4.6,7-10.5,7c-5,0-9.2-2.9-10.4-5.6
		l-10.1,3.7c2.6,6.4,10.3,10.9,20.5,10.9c12.7,0,21.5-6,21.5-16C699.5,674.5,694.2,669.2,686.2,667.8z"/>
	<path d="M754.2,667.8l-8.9-1.6c-4.7-0.8-7.8-2.7-7.8-6.7s3.7-6,8.5-6c4.2,0,7.7,2.2,8.6,4.8l9.9-3.6c-2.5-5.8-9.2-10.1-18.5-10.1
		l0,0c-11.7,0-19.5,6-19.5,15s6.8,13.8,14.5,15.1l8.2,1.4c4.4,0.8,7.3,3.4,7.3,6.5c0,5-4.6,7-10.5,7c-5,0-9.2-2.9-10.4-5.6
		l-10.1,3.7c2.6,6.4,10.3,10.9,20.5,10.9c12.7,0,21.5-6,21.5-16C767.5,674.5,762.2,669.2,754.2,667.8z"/>
	<g class="st1">
		<path d="M657.5,775.6h11.2c2.6,0,4.6,0.7,6.1,2.1s2.3,3.3,2.3,5.7s-0.8,4.3-2.3,5.7c-1.5,1.4-3.6,2.1-6.1,2.1h-7.8v10.4h-3.4
			V775.6z M668.2,778.4h-7.3v9.9h7.3c1.8,0,3.1-0.4,4.1-1.3c1-0.9,1.5-2.1,1.5-3.7s-0.5-2.8-1.5-3.6S669.9,778.4,668.2,778.4z"/>
		<path d="M701.4,801.5h-3.8l-6.9-10.4h-6.1v10.4h-3.4v-25.9h10.9c2.5,0,4.5,0.7,6,2.1c1.6,1.4,2.4,3.3,2.4,5.6c0,2-0.6,3.7-1.7,5
			c-1.1,1.3-2.6,2.2-4.6,2.6L701.4,801.5z M684.6,778.4v9.9h7c1.8,0,3.1-0.4,4.1-1.3c1-0.9,1.5-2.1,1.5-3.7s-0.5-2.8-1.5-3.6
			c-1-0.9-2.4-1.3-4.1-1.3H684.6z"/>
		<path d="M722.8,775.6v2.8H709v8.3h12.9v2.8H709v9.1h14.2v2.8h-17.6v-25.9H722.8z"/>
		<path d="M736,775.1c1.9,0,3.7,0.3,5.2,0.9c1.5,0.6,3,1.6,4.6,2.9l-2,2.3c-1.4-1.2-2.6-2-3.8-2.5c-1.2-0.5-2.5-0.7-4-0.7
			c-1.8,0-3.2,0.4-4.3,1.2c-1.1,0.8-1.7,1.8-1.7,3c0,1.6,1,2.7,3,3.4c0.9,0.3,2.3,0.7,4.2,1.1c3.4,0.8,5.7,1.7,7,2.8
			c1.3,1,2,2.6,2,4.7c0,2.4-0.9,4.3-2.7,5.8c-1.8,1.5-4.1,2.2-6.9,2.2c-2.2,0-4-0.4-5.6-1.1c-1.7-0.7-3.5-1.9-5.3-3.4l2-2.4
			c1.8,1.5,3.4,2.5,4.7,3.1c1.3,0.6,2.7,0.8,4.2,0.8c1.8,0,3.3-0.4,4.4-1.3c1.1-0.9,1.7-2.1,1.7-3.6c0-1.8-1-3-3.1-3.7
			c-0.9-0.3-2.3-0.7-4.2-1.1c-3.4-0.8-5.7-1.6-6.9-2.6c-1.3-1-1.9-2.5-1.9-4.5c0-2.1,0.9-3.8,2.7-5.2
			C731.3,775.8,733.4,775.1,736,775.1z"/>
		<path d="M767.9,775.6v2.8h-13.9v8.3H767v2.8h-12.9v9.1h14.2v2.8h-17.6v-25.9H767.9z"/>
		<path d="M790.4,775.6h3.3v25.9h-3.7l-7.7-11.8c-0.6-0.9-1.1-1.7-1.6-2.4c-2.3-3.5-3.9-6-4.7-7.5c0.1,3,0.2,6.3,0.2,10.1v11.6h-3.3
			v-25.9h3.8l7.8,12c0.1,0.2,0.3,0.5,0.5,0.7c0.2,0.3,0.3,0.4,0.3,0.5c1.5,2.3,2.3,3.5,2.3,3.6c0.8,1.2,1.8,2.8,2.9,4.8
			c-0.1-2.4-0.1-5.7-0.1-9.8V775.6z"/>
		<path d="M810.6,775c1.7,0,3.2,0.3,4.6,0.9c1.4,0.6,2.9,1.5,4.4,2.9l-1.9,2.3c-1.3-1.1-2.6-1.9-3.7-2.4c-1.1-0.5-2.3-0.7-3.5-0.7
			c-2.7,0-4.9,1-6.6,2.9c-1.6,2-2.4,4.5-2.4,7.6c0,3.1,0.8,5.7,2.4,7.6s3.7,3,6.3,3c1.4,0,2.7-0.3,3.8-0.9c1.1-0.6,2.4-1.5,4-2.9
			l2,2.3c-1.7,1.6-3.2,2.8-4.7,3.5c-1.5,0.7-3.2,1-5,1c-3.8,0-6.8-1.3-9-3.8s-3.3-5.8-3.3-9.8s1.1-7.3,3.3-9.8S806.7,775,810.6,775z
			"/>
		<path d="M841.1,775.6v2.8h-13.9v8.3h12.9v2.8h-12.9v9.1h14.2v2.8h-17.6v-25.9H841.1z"/>
		<path d="M858,775.6v25.9h-3.4v-25.9H858z"/>
		<path d="M881.6,775.6h3.3v25.9h-3.7l-7.7-11.8c-0.6-0.9-1.1-1.7-1.6-2.4c-2.3-3.5-3.9-6-4.7-7.5c0.1,3,0.2,6.3,0.2,10.1v11.6h-3.3
			v-25.9h3.8l7.8,12c0.1,0.2,0.3,0.5,0.5,0.7c0.2,0.3,0.3,0.4,0.3,0.5c1.5,2.3,2.3,3.5,2.3,3.6c0.8,1.2,1.8,2.8,2.9,4.8
			c-0.1-2.4-0.1-5.7-0.1-9.8V775.6z"/>
		<path d="M916.3,775.6v2.8h-13.9v8.3h12.9v2.8h-12.9v9.1h14.2v2.8h-17.6v-25.9H916.3z"/>
		<path d="M937.3,775.6h3.5l-8.8,25.9h-4.3l-8.8-25.9h3.5l4.3,12.8c1.3,3.9,2.4,7.3,3.2,10.1c0.8-2.7,1.8-6,3.1-10.1L937.3,775.6z"
			/>
		<path d="M961.6,775.6v2.8h-13.9v8.3h12.9v2.8h-12.9v9.1h14.2v2.8h-17.6v-25.9H961.6z"/>
		<path d="M986.7,801.5H983l-6.9-10.4H970v10.4h-3.4v-25.9h10.9c2.5,0,4.5,0.7,6,2.1c1.6,1.4,2.4,3.3,2.4,5.6c0,2-0.6,3.7-1.7,5
			s-2.6,2.2-4.6,2.6L986.7,801.5z M970,778.4v9.9h7c1.8,0,3.1-0.4,4.1-1.3c1-0.9,1.5-2.1,1.5-3.7s-0.5-2.8-1.5-3.6
			c-1-0.9-2.4-1.3-4.1-1.3H970z"/>
		<path d="M1006,775.6h3.6l-9.2,14.8v11h-3.4v-11.1l-9.1-14.8h3.7l7.1,11.8L1006,775.6z"/>
		<path d="M1020.7,775.6h9.7c3.6,0,6.4,1.2,8.4,3.6c2,2.4,3,5.5,3,9.4c0,3.9-1,7-3,9.4s-4.8,3.6-8.4,3.6h-9.7V775.6z M1029.8,778.4
			h-5.8v20.3h5.8c2.7,0,4.8-0.9,6.3-2.7s2.2-4.3,2.2-7.5c0-3.2-0.8-5.6-2.3-7.4S1032.5,778.4,1029.8,778.4z"/>
		<path d="M1063.5,775.6v2.8h-13.9v8.3h12.9v2.8h-12.9v9.1h14.2v2.8h-17.6v-25.9H1063.5z"/>
		<path d="M1086.2,775.6v2.8h-8.1v23h-3.4v-23h-8.1v-2.8H1086.2z"/>
		<path d="M1104.7,801.5l-2.4-6.6h-11.6l-2.4,6.6h-3.4l9.4-25.9h4.4l9.4,25.9H1104.7z M1091.7,792.1h9.6l-1.2-3.4
			c-1.6-4.5-2.8-8-3.6-10.5c-0.6,1.8-1.1,3.3-1.5,4.6c-0.2,0.6-0.4,1.3-0.7,2.1c-0.3,0.9-0.5,1.4-0.6,1.7l-0.8,2.2L1091.7,792.1z"/>
		<path d="M1115.3,775.6v25.9h-3.4v-25.9H1115.3z"/>
		<path d="M1124.9,775.6v23h12.1v2.8h-15.5v-25.9H1124.9z"/>
	</g>
</g>
</svg>
