<svg xmlns="http://www.w3.org/2000/svg" viewBox="0 0 1920 1080"><defs><style>.cls-1{fill:#fff;}</style></defs><g id="Layer_1" data-name="Layer 1"><path class="cls-1" d="M873,483.35C853.83,462.57,827.47,450,795,450c-60,0-114,54-114,138s54,138,114,138c32.47,0,58.83-12.57,78-33.35V720h72V456H873ZM813,666c-36,0-60-30-60-78s24-78,60-78,60,30,60,78S849,666,813,666Z"/><polygon class="cls-1" points="1089 384 1017 384 1017 456 981 456 981 516 1017 516 1017 720 1089 720 1089 516 1137 516 1137 456 1089 456 1089 384"/><rect class="cls-1" x="1173" y="456" width="72" height="264"/><circle class="cls-1" cx="1209" cy="390" r="42"/><path class="cls-1" d="M586.61,501.78A90,90,0,0,0,513,360H369V720H543v-.1c60.17-2.06,108-35.49,108-113.9C651,554.34,624.72,518.12,586.61,501.78ZM510,426a21,21,0,0,1,14.85,35.85h0L441,545.7V426Zm21,228H441V630.63l56.06-56.06C506.43,565.2,518.72,558,531,558c24,0,48,18,48,48S555,654,531,654Z"/><polygon class="cls-1" points="1551 456 1466.15 456 1365 557.15 1365 360 1293 360 1293 720 1365 720 1365 642 1394.89 612.11 1470.43 720 1551 720 1442.28 564.73 1551 456"/></g></svg>