<svg xmlns="http://www.w3.org/2000/svg" viewBox="0 0 1920 1080"><g id="Layer_1" data-name="Layer 1"><polygon points="152.67 947.67 138.47 945.17 137.7 949.56 148.82 951.52 152.67 947.67"/><rect x="124.19" y="946.36" width="4.86" height="22.67" transform="translate(-640.1 370.03) rotate(-45)"/><rect x="131.06" y="937.53" width="4.86" height="24.29" transform="translate(-632.43 372.54) rotate(-45)"/><rect x="118.49" y="952.23" width="10.52" height="4.05" transform="translate(-638.51 367) rotate(-45)"/><rect x="107.87" y="960.72" width="4.86" height="24.29" transform="translate(-655.61 362.94) rotate(-45)"/><rect x="118.03" y="973.5" width="6.88" height="4.45" transform="translate(-654.37 371.67) rotate(-45)"/><path d="M114.31,964.28c-3,3-1.72,9.16,0,10.87a7.68,7.68,0,0,0,10.88,0c3-3,3.86-7,0-10.87a7.32,7.32,0,0,0-10.88,0m7.44,8-4.31,4.31-1.1-1.1v-5.38a3.47,3.47,0,0,1,.83-2.41,3.24,3.24,0,1,1,4.58,4.58"/><polygon points="116.34 963.42 116.34 975.63 112.29 975.44 112.29 963.42 116.34 963.42"/><path d="M106.87,959.12a6.06,6.06,0,0,0-1,7.29l4-4a1.42,1.42,0,0,1,2.42,1s.2,3.07.39,5.88a6.08,6.08,0,1,0-5.81-10.18"/><rect x="116.05" y="975.14" width="0.81" height="2.02" transform="translate(-656.14 368.26) rotate(-45)"/><polygon points="105.44 966.85 109.44 962.85 106.58 959.41 102.29 963.7 105.44 966.85"/><polygon points="136.02 939.13 136.02 954.24 140.07 954.54 140.07 935.08 136.02 939.13"/><polygon points="430.56 947.67 416.36 945.17 415.58 949.56 426.71 951.52 430.56 947.67"/><rect x="402.08" y="946.36" width="4.86" height="22.67" transform="translate(-558.71 566.53) rotate(-45)"/><rect x="408.95" y="937.53" width="4.86" height="24.29" transform="translate(-551.03 569.04) rotate(-45)"/><rect x="396.38" y="952.23" width="10.52" height="4.05" transform="translate(-557.12 563.5) rotate(-45)"/><rect x="385.76" y="960.72" width="4.86" height="24.29" transform="translate(-574.22 559.44) rotate(-45)"/><rect x="395.91" y="973.5" width="6.88" height="4.45" transform="translate(-572.97 568.17) rotate(-45)"/><path d="M392.2,964.28c-3,3-1.72,9.16,0,10.87a7.68,7.68,0,0,0,10.88,0c3-3,3.86-7,0-10.87a7.32,7.32,0,0,0-10.88,0m7.44,8-4.31,4.31-1.1-1.1v-5.38a3.47,3.47,0,0,1,.83-2.41,3.24,3.24,0,1,1,4.58,4.58"/><polygon points="394.23 963.42 394.23 975.63 390.18 975.44 390.18 963.42 394.23 963.42"/><path d="M384.76,959.12a6.06,6.06,0,0,0-1,7.29l4-4a1.42,1.42,0,0,1,2.42,1s.2,3.07.39,5.88a6,6,0,0,0,2.77-1.59,6.07,6.07,0,1,0-8.58-8.59"/><rect x="393.94" y="975.14" width="0.81" height="2.02" transform="translate(-574.74 564.75) rotate(-45)"/><polygon points="383.33 966.85 387.33 962.85 384.47 959.41 380.18 963.7 383.33 966.85"/><polygon points="413.91 939.13 413.91 954.24 417.96 954.54 417.96 935.08 413.91 939.13"/><polygon points="708.45 947.67 694.25 945.17 693.47 949.56 704.6 951.52 708.45 947.67"/><rect x="679.97" y="946.36" width="4.86" height="22.67" transform="translate(-477.32 763.03) rotate(-45)"/><rect x="686.84" y="937.53" width="4.86" height="24.29" transform="translate(-469.64 765.54) rotate(-45)"/><rect x="674.27" y="952.23" width="10.52" height="4.05" transform="translate(-475.73 760) rotate(-45)"/><rect x="663.65" y="960.72" width="4.86" height="24.29" transform="translate(-492.83 755.94) rotate(-45)"/><rect x="673.8" y="973.5" width="6.88" height="4.45" transform="translate(-491.58 764.67) rotate(-45)"/><path d="M670.09,964.28c-3,3-1.72,9.16,0,10.87a7.68,7.68,0,0,0,10.88,0c3-3,3.86-7,0-10.87a7.32,7.32,0,0,0-10.88,0m7.44,8-4.31,4.31-1.1-1.1v-5.38a3.47,3.47,0,0,1,.83-2.41,3.24,3.24,0,0,1,4.58,4.58"/><polygon points="672.12 963.42 672.12 975.63 668.07 975.44 668.07 963.42 672.12 963.42"/><path d="M662.65,959.12a6.06,6.06,0,0,0-1,7.29l4-4a1.42,1.42,0,0,1,2.42,1s.2,3.07.39,5.88a6,6,0,0,0,2.77-1.59,6.07,6.07,0,1,0-8.58-8.59"/><rect x="671.83" y="975.14" width="0.81" height="2.02" transform="translate(-493.35 761.25) rotate(-45)"/><polygon points="661.22 966.85 665.22 962.85 662.36 959.41 658.07 963.7 661.22 966.85"/><polygon points="691.8 939.13 691.8 954.24 695.85 954.54 695.85 935.08 691.8 939.13"/><polygon points="274.44 844.22 276.94 830.02 272.56 829.25 270.59 840.38 274.44 844.22"/><rect x="253.08" y="815.75" width="22.67" height="4.86" transform="translate(-501.09 426.61) rotate(-45)"/><rect x="260.29" y="822.62" width="24.29" height="4.86" transform="translate(-503.6 434.29) rotate(-45)"/><rect x="265.83" y="810.05" width="4.05" height="10.52" transform="translate(-498.06 428.2) rotate(-45)"/><rect x="237.1" y="799.43" width="24.29" height="4.86" transform="translate(-494 411.1) rotate(-45)"/><rect x="244.16" y="809.58" width="4.45" height="6.88" transform="translate(-502.73 412.35) rotate(-45)"/><path d="M257.84,805.87c-3-3-9.16-1.72-10.88,0a7.67,7.67,0,0,0,0,10.87c3,3,7,3.87,10.88,0a7.33,7.33,0,0,0,0-10.87m-8,7.44L245.51,809l1.1-1.1H252a3.42,3.42,0,0,1,2.41.83,3.24,3.24,0,1,1-4.58,4.58"/><polygon points="258.69 807.9 246.48 807.9 246.67 803.85 258.69 803.85 258.69 807.9"/><path d="M263,798.42a6.09,6.09,0,0,0-7.29-1l4,4a1.42,1.42,0,0,1-1,2.42l-5.88.38A6,6,0,0,0,254.4,807a6.07,6.07,0,0,0,8.59-8.59"/><rect x="244.94" y="807.61" width="2.02" height="0.81" transform="translate(-499.31 410.58) rotate(-45)"/><polygon points="255.26 796.99 259.27 801 262.7 798.14 258.41 793.85 255.26 796.99"/><polygon points="282.98 827.58 267.87 827.58 267.57 831.63 287.03 831.63 282.98 827.58"/><polygon points="552.33 844.22 554.83 830.02 550.44 829.25 548.48 840.38 552.33 844.22"/><rect x="530.97" y="815.75" width="22.67" height="4.86" transform="translate(-419.7 623.11) rotate(-45)"/><rect x="538.18" y="822.62" width="24.29" height="4.86" transform="translate(-422.21 630.79) rotate(-45)"/><rect x="543.72" y="810.05" width="4.05" height="10.52" transform="translate(-416.67 624.7) rotate(-45)"/><rect x="514.99" y="799.43" width="24.29" height="4.86" transform="translate(-412.61 607.6) rotate(-45)"/><rect x="522.05" y="809.58" width="4.45" height="6.88" transform="translate(-421.34 608.85) rotate(-45)"/><path d="M535.72,805.87c-3-3-9.16-1.72-10.87,0a7.67,7.67,0,0,0,0,10.87c3,3,7,3.87,10.87,0a7.31,7.31,0,0,0,0-10.87m-8,7.44L523.4,809l1.1-1.1h5.38a3.42,3.42,0,0,1,2.41.83,3.24,3.24,0,0,1-4.58,4.58"/><polygon points="536.58 807.9 524.37 807.9 524.56 803.85 536.58 803.85 536.58 807.9"/><path d="M540.88,798.42a6.09,6.09,0,0,0-7.29-1l4,4a1.4,1.4,0,0,1,0,2,1.38,1.38,0,0,1-1,.42l-5.88.38a6,6,0,0,0,1.59,2.78,6.07,6.07,0,0,0,8.59-8.59"/><rect x="522.83" y="807.61" width="2.02" height="0.81" transform="translate(-417.92 607.08) rotate(-45)"/><polygon points="533.15 796.99 537.15 801 540.59 798.14 536.3 793.85 533.15 796.99"/><polygon points="560.87 827.58 545.76 827.58 545.46 831.63 564.92 831.63 560.87 827.58"/><polygon points="830.22 844.22 832.72 830.02 828.33 829.25 826.37 840.38 830.22 844.22"/><rect x="808.86" y="815.75" width="22.67" height="4.86" transform="translate(-338.31 819.6) rotate(-45)"/><rect x="816.07" y="822.62" width="24.29" height="4.86" transform="translate(-340.82 827.28) rotate(-45)"/><rect x="821.61" y="810.05" width="4.05" height="10.52" transform="translate(-335.28 821.2) rotate(-45)"/><rect x="792.88" y="799.43" width="24.29" height="4.86" transform="translate(-331.21 804.1) rotate(-45)"/><rect x="799.94" y="809.58" width="4.45" height="6.88" transform="translate(-339.95 805.34) rotate(-45)"/><path d="M813.61,805.87c-3-3-9.16-1.72-10.87,0a7.67,7.67,0,0,0,0,10.87c3,3,7,3.87,10.87,0a7.31,7.31,0,0,0,0-10.87m-8,7.44L801.29,809l1.1-1.1h5.38a3.42,3.42,0,0,1,2.41.83,3.24,3.24,0,0,1-4.58,4.58"/><polygon points="814.47 807.9 802.26 807.9 802.45 803.85 814.47 803.85 814.47 807.9"/><path d="M818.77,798.42a6.09,6.09,0,0,0-7.29-1l4,4a1.42,1.42,0,0,1-1,2.42l-5.88.38a6,6,0,0,0,1.59,2.78,6.07,6.07,0,0,0,8.59-8.59"/><rect x="800.72" y="807.61" width="2.02" height="0.81" transform="translate(-336.53 803.57) rotate(-45)"/><polygon points="811.04 796.99 815.04 801 818.48 798.14 814.19 793.85 811.04 796.99"/><polygon points="838.76 827.58 823.65 827.58 823.35 831.63 842.81 831.63 838.76 827.58"/><polygon points="986.33 947.67 972.14 945.17 971.36 949.56 982.49 951.52 986.33 947.67"/><rect x="957.86" y="946.36" width="4.86" height="22.67" transform="translate(-395.93 959.53) rotate(-45)"/><rect x="964.73" y="937.53" width="4.86" height="24.29" transform="translate(-388.25 962.04) rotate(-45)"/><rect x="952.16" y="952.23" width="10.52" height="4.05" transform="translate(-394.34 956.5) rotate(-45)"/><rect x="941.54" y="960.72" width="4.86" height="24.29" transform="translate(-411.44 952.43) rotate(-45)"/><rect x="951.69" y="973.5" width="6.88" height="4.45" transform="translate(-410.19 961.17) rotate(-45)"/><path d="M948,964.28c-3,3-1.72,9.16,0,10.87a7.68,7.68,0,0,0,10.88,0c3-3,3.86-7,0-10.87a7.32,7.32,0,0,0-10.88,0m7.44,8-4.31,4.31-1.1-1.1v-5.38a3.42,3.42,0,0,1,.83-2.41,3.24,3.24,0,0,1,4.58,4.58"/><polygon points="950.01 963.42 950.01 975.63 945.96 975.44 945.96 963.42 950.01 963.42"/><path d="M940.54,959.12a6.06,6.06,0,0,0-1,7.29l4-4a1.4,1.4,0,0,1,2,0,1.38,1.38,0,0,1,.42,1s.2,3.07.38,5.88a6,6,0,0,0,2.78-1.59,6.07,6.07,0,0,0-8.58-8.59"/><rect x="949.72" y="975.14" width="0.81" height="2.02" transform="translate(-411.96 957.75) rotate(-45)"/><polygon points="939.11 966.85 943.11 962.85 940.25 959.41 935.96 963.7 939.11 966.85"/><polygon points="969.69 939.13 969.69 954.24 973.74 954.54 973.74 935.08 969.69 939.13"/><polygon points="1264.22 947.67 1250.03 945.17 1249.25 949.56 1260.38 951.52 1264.22 947.67"/><rect x="1235.75" y="946.36" width="4.86" height="22.67" transform="translate(-314.54 1156.02) rotate(-45)"/><rect x="1242.62" y="937.53" width="4.86" height="24.29" transform="translate(-306.86 1158.53) rotate(-45)"/><rect x="1230.05" y="952.23" width="10.52" height="4.05" transform="translate(-312.95 1152.99) rotate(-45)"/><rect x="1219.43" y="960.72" width="4.86" height="24.29" transform="translate(-330.04 1148.93) rotate(-45)"/><rect x="1229.58" y="973.5" width="6.88" height="4.45" transform="translate(-328.8 1157.66) rotate(-45)"/><path d="M1225.87,964.28c-3,3-1.72,9.16,0,10.87a7.67,7.67,0,0,0,10.87,0c3-3,3.87-7,0-10.87a7.31,7.31,0,0,0-10.87,0m7.44,8L1229,976.6l-1.1-1.1v-5.38a3.42,3.42,0,0,1,.83-2.41,3.24,3.24,0,0,1,4.58,4.58"/><polygon points="1227.9 963.42 1227.9 975.63 1223.85 975.44 1223.85 963.42 1227.9 963.42"/><path d="M1218.42,959.12a6.09,6.09,0,0,0-1,7.29l4-4a1.4,1.4,0,0,1,2,0,1.38,1.38,0,0,1,.42,1s.2,3.07.38,5.88a6,6,0,0,0,2.78-1.59,6.07,6.07,0,1,0-8.59-8.59"/><rect x="1227.61" y="975.14" width="0.81" height="2.02" transform="translate(-330.57 1154.25) rotate(-45)"/><polygon points="1216.99 966.85 1221 962.85 1218.14 959.41 1213.85 963.7 1216.99 966.85"/><polygon points="1247.58 939.13 1247.58 954.24 1251.63 954.54 1251.63 935.08 1247.58 939.13"/><polygon points="1108.1 844.22 1110.61 830.02 1106.22 829.25 1104.26 840.38 1108.1 844.22"/><rect x="1086.75" y="815.75" width="22.67" height="4.86" transform="translate(-256.92 1016.1) rotate(-45)"/><rect x="1093.96" y="822.62" width="24.29" height="4.86" transform="translate(-259.43 1023.78) rotate(-45)"/><rect x="1099.5" y="810.05" width="4.05" height="10.52" transform="translate(-253.89 1017.69) rotate(-45)"/><rect x="1070.77" y="799.43" width="24.29" height="4.86" transform="translate(-249.82 1000.6) rotate(-45)"/><rect x="1077.83" y="809.58" width="4.45" height="6.88" transform="translate(-258.55 1001.84) rotate(-45)"/><path d="M1091.5,805.87c-3-3-9.16-1.72-10.87,0a7.67,7.67,0,0,0,0,10.87c3,3,7,3.87,10.87,0a7.31,7.31,0,0,0,0-10.87m-8,7.44-4.31-4.31,1.1-1.1h5.38a3.42,3.42,0,0,1,2.41.83,3.24,3.24,0,0,1-4.58,4.58"/><polygon points="1092.36 807.9 1080.15 807.9 1080.34 803.85 1092.36 803.85 1092.36 807.9"/><path d="M1096.65,798.42a6.08,6.08,0,0,0-7.28-1l4,4a1.42,1.42,0,0,1-1,2.42l-5.88.38a6,6,0,0,0,1.59,2.78,6.07,6.07,0,1,0,8.58-8.59"/><rect x="1078.61" y="807.61" width="2.02" height="0.81" transform="translate(-255.14 1000.07) rotate(-45)"/><polygon points="1088.93 796.99 1092.93 801 1096.37 798.14 1092.08 793.85 1088.93 796.99"/><polygon points="1116.65 827.58 1101.54 827.58 1101.23 831.63 1120.7 831.63 1116.65 827.58"/><polygon points="1385.99 844.22 1388.5 830.02 1384.11 829.25 1382.15 840.38 1385.99 844.22"/><rect x="1364.64" y="815.75" width="22.67" height="4.86" transform="translate(-175.52 1212.6) rotate(-45)"/><rect x="1371.85" y="822.62" width="24.29" height="4.86" transform="translate(-178.03 1220.28) rotate(-45)"/><rect x="1377.39" y="810.05" width="4.05" height="10.52" transform="translate(-172.49 1214.19) rotate(-45)"/><rect x="1348.66" y="799.43" width="24.29" height="4.86" transform="translate(-168.43 1197.09) rotate(-45)"/><rect x="1355.72" y="809.58" width="4.45" height="6.88" transform="translate(-177.16 1198.34) rotate(-45)"/><path d="M1369.39,805.87c-3-3-9.16-1.72-10.88,0a7.69,7.69,0,0,0,0,10.87c3,3,7,3.87,10.88,0a7.32,7.32,0,0,0,0-10.87m-8,7.44-4.31-4.31,1.1-1.1h5.38a3.42,3.42,0,0,1,2.41.83,3.24,3.24,0,0,1-4.58,4.58"/><polygon points="1370.25 807.9 1358.04 807.9 1358.23 803.85 1370.25 803.85 1370.25 807.9"/><path d="M1374.54,798.42a6.08,6.08,0,0,0-7.28-1l4,4a1.42,1.42,0,0,1-1,2.42l-5.88.38A6,6,0,0,0,1366,807a6.07,6.07,0,0,0,8.58-8.59"/><rect x="1356.5" y="807.61" width="2.02" height="0.81" transform="translate(-173.75 1196.57) rotate(-45)"/><polygon points="1366.82 796.99 1370.82 801 1374.26 798.14 1369.96 793.85 1366.82 796.99"/><polygon points="1394.54 827.58 1379.43 827.58 1379.12 831.63 1398.59 831.63 1394.54 827.58"/><polygon points="430.56 669.78 416.36 667.28 415.58 671.67 426.71 673.63 430.56 669.78"/><rect x="402.08" y="668.47" width="4.86" height="22.67" transform="translate(-362.22 485.14) rotate(-45)"/><rect x="408.95" y="659.64" width="4.86" height="24.29" transform="translate(-354.54 487.65) rotate(-45)"/><rect x="396.38" y="674.34" width="10.52" height="4.05" transform="translate(-360.63 482.11) rotate(-45)"/><rect x="385.76" y="682.83" width="4.86" height="24.29" transform="translate(-377.72 478.05) rotate(-45)"/><rect x="395.91" y="695.61" width="6.88" height="4.45" transform="translate(-376.48 486.78) rotate(-45)"/><path d="M392.2,686.39c-3,3-1.72,9.16,0,10.87a7.68,7.68,0,0,0,10.88,0c3-3,3.86-7,0-10.87a7.32,7.32,0,0,0-10.88,0m7.44,8-4.31,4.31-1.1-1.1v-5.38a3.47,3.47,0,0,1,.83-2.41,3.24,3.24,0,1,1,4.58,4.58"/><polygon points="394.23 685.53 394.23 697.74 390.18 697.55 390.18 685.53 394.23 685.53"/><path d="M384.76,681.23a6.06,6.06,0,0,0-1,7.29l4-4a1.42,1.42,0,0,1,2.42,1s.2,3.07.39,5.88a6,6,0,0,0,2.77-1.59,6.07,6.07,0,0,0-8.58-8.59"/><rect x="393.94" y="697.25" width="0.81" height="2.02" transform="translate(-378.25 483.36) rotate(-45)"/><polygon points="383.33 688.96 387.33 684.96 384.47 681.52 380.18 685.81 383.33 688.96"/><polygon points="413.91 661.24 413.91 676.35 417.96 676.65 417.96 657.19 413.91 661.24"/><polygon points="708.45 669.78 694.25 667.28 693.47 671.67 704.6 673.63 708.45 669.78"/><rect x="679.97" y="668.47" width="4.86" height="22.67" transform="translate(-280.82 681.64) rotate(-45)"/><rect x="686.84" y="659.64" width="4.86" height="24.29" transform="translate(-273.14 684.15) rotate(-45)"/><rect x="674.27" y="674.34" width="10.52" height="4.05" transform="translate(-279.23 678.61) rotate(-45)"/><rect x="663.65" y="682.83" width="4.86" height="24.29" transform="translate(-296.33 674.54) rotate(-45)"/><rect x="673.8" y="695.61" width="6.88" height="4.45" transform="translate(-295.08 683.28) rotate(-45)"/><path d="M670.09,686.39c-3,3-1.72,9.16,0,10.87a7.68,7.68,0,0,0,10.88,0c3-3,3.86-7,0-10.87a7.32,7.32,0,0,0-10.88,0m7.44,8-4.31,4.31-1.1-1.1v-5.38a3.47,3.47,0,0,1,.83-2.41,3.24,3.24,0,0,1,4.58,4.58"/><polygon points="672.12 685.53 672.12 697.74 668.07 697.55 668.07 685.53 672.12 685.53"/><path d="M662.65,681.23a6.06,6.06,0,0,0-1,7.29l4-4a1.42,1.42,0,0,1,2.42,1s.2,3.07.39,5.88a6,6,0,0,0,2.77-1.59,6.07,6.07,0,0,0-8.58-8.59"/><rect x="671.83" y="697.25" width="0.81" height="2.02" transform="translate(-296.86 679.86) rotate(-45)"/><polygon points="661.22 688.96 665.22 684.96 662.36 681.52 658.07 685.81 661.22 688.96"/><polygon points="691.8 661.24 691.8 676.35 695.85 676.65 695.85 657.19 691.8 661.24"/><polygon points="152.67 669.78 138.47 667.28 137.7 671.67 148.82 673.63 152.67 669.78"/><rect x="124.19" y="668.47" width="4.86" height="22.67" transform="translate(-443.61 288.64) rotate(-45)"/><rect x="131.06" y="659.64" width="4.86" height="24.29" transform="translate(-435.93 291.15) rotate(-45)"/><rect x="118.49" y="674.34" width="10.52" height="4.05" transform="translate(-442.02 285.61) rotate(-45)"/><rect x="107.87" y="682.83" width="4.86" height="24.29" transform="translate(-459.11 281.55) rotate(-45)"/><rect x="118.03" y="695.61" width="6.88" height="4.45" transform="translate(-457.87 290.28) rotate(-45)"/><path d="M114.31,686.39c-3,3-1.72,9.16,0,10.87a7.68,7.68,0,0,0,10.88,0c3-3,3.86-7,0-10.87a7.32,7.32,0,0,0-10.88,0m7.44,8-4.31,4.31-1.1-1.1v-5.38a3.47,3.47,0,0,1,.83-2.41,3.24,3.24,0,1,1,4.58,4.58"/><polygon points="116.34 685.53 116.34 697.74 112.29 697.55 112.29 685.53 116.34 685.53"/><path d="M106.87,681.23a6.06,6.06,0,0,0-1,7.29l4-4a1.42,1.42,0,0,1,2.42,1s.2,3.07.39,5.88a6.08,6.08,0,1,0-5.81-10.18"/><rect x="116.05" y="697.25" width="0.81" height="2.02" transform="translate(-459.64 286.87) rotate(-45)"/><polygon points="105.44 688.96 109.44 684.96 106.58 681.52 102.29 685.81 105.44 688.96"/><polygon points="136.02 661.24 136.02 676.35 140.07 676.65 140.07 657.19 136.02 661.24"/><polygon points="986.33 669.78 972.14 667.28 971.36 671.67 982.49 673.63 986.33 669.78"/><rect x="957.86" y="668.47" width="4.86" height="22.67" transform="translate(-199.43 878.13) rotate(-45)"/><rect x="964.73" y="659.64" width="4.86" height="24.29" transform="translate(-191.75 880.64) rotate(-45)"/><rect x="952.16" y="674.34" width="10.52" height="4.05" transform="translate(-197.84 875.1) rotate(-45)"/><rect x="941.54" y="682.83" width="4.86" height="24.29" transform="translate(-214.94 871.04) rotate(-45)"/><rect x="951.69" y="695.61" width="6.88" height="4.45" transform="translate(-213.69 879.77) rotate(-45)"/><path d="M948,686.39c-3,3-1.72,9.16,0,10.87a7.68,7.68,0,0,0,10.88,0c3-3,3.86-7,0-10.87a7.32,7.32,0,0,0-10.88,0m7.44,8-4.31,4.31-1.1-1.1v-5.38a3.42,3.42,0,0,1,.83-2.41,3.24,3.24,0,0,1,4.58,4.58"/><polygon points="950.01 685.53 950.01 697.74 945.96 697.55 945.96 685.53 950.01 685.53"/><path d="M940.54,681.23a6.06,6.06,0,0,0-1,7.29l4-4a1.42,1.42,0,0,1,2.42,1s.2,3.07.38,5.88a6,6,0,0,0,2.78-1.59,6.07,6.07,0,0,0-8.58-8.59"/><rect x="949.72" y="697.25" width="0.81" height="2.02" transform="translate(-215.46 876.36) rotate(-45)"/><polygon points="939.11 688.96 943.11 684.96 940.25 681.52 935.96 685.81 939.11 688.96"/><polygon points="969.69 661.24 969.69 676.35 973.74 676.65 973.74 657.19 969.69 661.24"/><polygon points="1264.22 669.78 1250.03 667.28 1249.25 671.67 1260.38 673.63 1264.22 669.78"/><rect x="1235.75" y="668.47" width="4.86" height="22.67" transform="translate(-118.04 1074.63) rotate(-45)"/><rect x="1242.62" y="659.64" width="4.86" height="24.29" transform="translate(-110.36 1077.14) rotate(-45)"/><rect x="1230.05" y="674.34" width="10.52" height="4.05" transform="translate(-116.45 1071.6) rotate(-45)"/><rect x="1219.43" y="682.83" width="4.86" height="24.29" transform="translate(-133.55 1067.54) rotate(-45)"/><rect x="1229.58" y="695.61" width="6.88" height="4.45" transform="translate(-132.3 1076.27) rotate(-45)"/><path d="M1225.87,686.39c-3,3-1.72,9.16,0,10.87a7.67,7.67,0,0,0,10.87,0c3-3,3.87-7,0-10.87a7.31,7.31,0,0,0-10.87,0m7.44,8-4.31,4.31-1.1-1.1v-5.38a3.42,3.42,0,0,1,.83-2.41,3.24,3.24,0,0,1,4.58,4.58"/><polygon points="1227.9 685.53 1227.9 697.74 1223.85 697.55 1223.85 685.53 1227.9 685.53"/><path d="M1218.42,681.23a6.09,6.09,0,0,0-1,7.29l4-4a1.42,1.42,0,0,1,2.42,1s.2,3.07.38,5.88a6,6,0,0,0,2.78-1.59,6.07,6.07,0,1,0-8.59-8.59"/><rect x="1227.61" y="697.25" width="0.81" height="2.02" transform="translate(-134.07 1072.85) rotate(-45)"/><polygon points="1216.99 688.96 1221 684.96 1218.14 681.52 1213.85 685.81 1216.99 688.96"/><polygon points="1247.58 661.24 1247.58 676.35 1251.63 676.65 1251.63 657.19 1247.58 661.24"/><polygon points="1542.11 947.67 1527.91 945.17 1527.14 949.56 1538.27 951.52 1542.11 947.67"/><rect x="1513.64" y="946.36" width="4.86" height="22.67" transform="translate(-233.15 1352.52) rotate(-45)"/><rect x="1520.51" y="937.53" width="4.86" height="24.29" transform="translate(-225.47 1355.03) rotate(-45)"/><rect x="1507.94" y="952.23" width="10.52" height="4.05" transform="translate(-231.56 1349.49) rotate(-45)"/><rect x="1497.32" y="960.72" width="4.86" height="24.29" transform="translate(-248.65 1345.43) rotate(-45)"/><rect x="1507.47" y="973.5" width="6.88" height="4.45" transform="translate(-247.41 1354.16) rotate(-45)"/><path d="M1503.76,964.28c-3,3-1.72,9.16,0,10.87a7.67,7.67,0,0,0,10.87,0c3-3,3.87-7,0-10.87a7.31,7.31,0,0,0-10.87,0m7.44,8-4.31,4.31-1.1-1.1v-5.38a3.42,3.42,0,0,1,.83-2.41,3.24,3.24,0,0,1,4.58,4.58"/><polygon points="1505.79 963.42 1505.79 975.63 1501.74 975.44 1501.74 963.42 1505.79 963.42"/><path d="M1496.31,959.12a6.09,6.09,0,0,0-1,7.29l4-4a1.4,1.4,0,0,1,2,0,1.38,1.38,0,0,1,.42,1s.2,3.07.38,5.88a6.08,6.08,0,1,0-5.81-10.18"/><rect x="1505.5" y="975.14" width="0.81" height="2.02" transform="translate(-249.18 1350.74) rotate(-45)"/><polygon points="1494.88 966.85 1498.89 962.85 1496.03 959.41 1491.73 963.7 1494.88 966.85"/><polygon points="1525.47 939.13 1525.47 954.24 1529.52 954.54 1529.52 935.08 1525.47 939.13"/><polygon points="1663.88 844.22 1666.39 830.02 1662 829.25 1660.04 840.38 1663.88 844.22"/><rect x="1642.53" y="815.75" width="22.67" height="4.86" transform="translate(-94.13 1409.1) rotate(-45)"/><rect x="1649.73" y="822.62" width="24.29" height="4.86" transform="translate(-96.64 1416.78) rotate(-45)"/><rect x="1655.27" y="810.05" width="4.05" height="10.52" transform="translate(-91.1 1410.69) rotate(-45)"/><rect x="1626.55" y="799.43" width="24.29" height="4.86" transform="translate(-87.04 1393.59) rotate(-45)"/><rect x="1633.6" y="809.58" width="4.45" height="6.88" transform="translate(-95.77 1394.84) rotate(-45)"/><path d="M1647.28,805.87c-3-3-9.16-1.72-10.88,0a7.69,7.69,0,0,0,0,10.87c3,3,7,3.87,10.88,0a7.32,7.32,0,0,0,0-10.87m-8,7.44L1635,809l1.09-1.1h5.39a3.42,3.42,0,0,1,2.41.83,3.24,3.24,0,0,1-4.58,4.58"/><polygon points="1648.14 807.9 1635.93 807.9 1636.12 803.85 1648.14 803.85 1648.14 807.9"/><path d="M1652.43,798.42a6.08,6.08,0,0,0-7.28-1l4,4a1.42,1.42,0,0,1-1,2.42l-5.88.38a6,6,0,0,0,1.59,2.78,6.07,6.07,0,0,0,8.58-8.59"/><rect x="1634.39" y="807.61" width="2.02" height="0.81" transform="translate(-92.35 1393.07) rotate(-45)"/><polygon points="1644.7 796.99 1648.71 801 1652.15 798.14 1647.85 793.85 1644.7 796.99"/><polygon points="1672.43 827.58 1657.32 827.58 1657.01 831.63 1676.48 831.63 1672.43 827.58"/><polygon points="1542.11 669.78 1527.91 667.28 1527.14 671.67 1538.27 673.63 1542.11 669.78"/><rect x="1513.64" y="668.47" width="4.86" height="22.67" transform="translate(-36.65 1271.13) rotate(-45)"/><rect x="1520.51" y="659.64" width="4.86" height="24.29" transform="translate(-28.97 1273.64) rotate(-45)"/><rect x="1507.94" y="674.34" width="10.52" height="4.05" transform="translate(-35.06 1268.1) rotate(-45)"/><rect x="1497.32" y="682.83" width="4.86" height="24.29" transform="translate(-52.15 1264.04) rotate(-45)"/><rect x="1507.47" y="695.61" width="6.88" height="4.45" transform="translate(-50.91 1272.77) rotate(-45)"/><path d="M1503.76,686.39c-3,3-1.72,9.16,0,10.87a7.67,7.67,0,0,0,10.87,0c3-3,3.87-7,0-10.87a7.31,7.31,0,0,0-10.87,0m7.44,8-4.31,4.31-1.1-1.1v-5.38a3.42,3.42,0,0,1,.83-2.41,3.24,3.24,0,0,1,4.58,4.58"/><polygon points="1505.79 685.53 1505.79 697.74 1501.74 697.55 1501.74 685.53 1505.79 685.53"/><path d="M1496.31,681.23a6.09,6.09,0,0,0-1,7.29l4-4a1.42,1.42,0,0,1,2.42,1s.2,3.07.38,5.88a6.08,6.08,0,1,0-5.81-10.18"/><rect x="1505.5" y="697.25" width="0.81" height="2.02" transform="translate(-52.68 1269.35) rotate(-45)"/><polygon points="1494.88 688.96 1498.89 684.96 1496.03 681.52 1491.73 685.81 1494.88 688.96"/><polygon points="1525.47 661.24 1525.47 676.35 1529.52 676.65 1529.52 657.19 1525.47 661.24"/><polygon points="1820 947.67 1805.8 945.17 1805.03 949.56 1816.16 951.52 1820 947.67"/><rect x="1791.52" y="946.36" width="4.86" height="22.67" transform="translate(-151.75 1549.02) rotate(-45)"/><rect x="1798.39" y="937.53" width="4.86" height="24.29" transform="translate(-144.07 1551.53) rotate(-45)"/><rect x="1785.83" y="952.23" width="10.52" height="4.05" transform="translate(-150.16 1545.99) rotate(-45)"/><rect x="1775.21" y="960.72" width="4.86" height="24.29" transform="translate(-167.26 1541.92) rotate(-45)"/><rect x="1785.36" y="973.5" width="6.88" height="4.45" transform="translate(-166.01 1550.66) rotate(-45)"/><path d="M1781.65,964.28c-3,3-1.72,9.16,0,10.87a7.67,7.67,0,0,0,10.87,0c3-3,3.87-7,0-10.87a7.31,7.31,0,0,0-10.87,0m7.44,8-4.31,4.31-1.1-1.1v-5.38a3.42,3.42,0,0,1,.83-2.41,3.24,3.24,0,0,1,4.58,4.58"/><polygon points="1783.67 963.42 1783.67 975.63 1779.63 975.44 1779.63 963.42 1783.67 963.42"/><path d="M1774.2,959.12a6.09,6.09,0,0,0-1,7.29l4-4a1.4,1.4,0,0,1,2,0,1.38,1.38,0,0,1,.42,1s.2,3.07.38,5.88a6.08,6.08,0,1,0-5.81-10.18"/><rect x="1783.39" y="975.14" width="0.81" height="2.02" transform="translate(-167.79 1547.24) rotate(-45)"/><polygon points="1772.77 966.85 1776.78 962.85 1773.92 959.41 1769.62 963.7 1772.77 966.85"/><polygon points="1803.36 939.13 1803.36 954.24 1807.41 954.54 1807.41 935.08 1803.36 939.13"/><polygon points="1820 669.78 1805.8 667.28 1805.03 671.67 1816.16 673.63 1820 669.78"/><rect x="1791.52" y="668.47" width="4.86" height="22.67" transform="translate(44.74 1467.63) rotate(-45)"/><rect x="1798.39" y="659.64" width="4.86" height="24.29" transform="translate(52.42 1470.14) rotate(-45)"/><rect x="1785.83" y="674.34" width="10.52" height="4.05" transform="translate(46.33 1464.6) rotate(-45)"/><rect x="1775.21" y="682.83" width="4.86" height="24.29" transform="translate(29.24 1460.53) rotate(-45)"/><rect x="1785.36" y="695.61" width="6.88" height="4.45" transform="translate(30.48 1469.26) rotate(-45)"/><path d="M1781.65,686.39c-3,3-1.72,9.16,0,10.87a7.67,7.67,0,0,0,10.87,0c3-3,3.87-7,0-10.87a7.31,7.31,0,0,0-10.87,0m7.44,8-4.31,4.31-1.1-1.1v-5.38a3.42,3.42,0,0,1,.83-2.41,3.24,3.24,0,0,1,4.58,4.58"/><polygon points="1783.67 685.53 1783.67 697.74 1779.63 697.55 1779.63 685.53 1783.67 685.53"/><path d="M1774.2,681.23a6.09,6.09,0,0,0-1,7.29l4-4a1.42,1.42,0,0,1,2.42,1s.2,3.07.38,5.88a6.08,6.08,0,1,0-5.81-10.18"/><rect x="1783.39" y="697.25" width="0.81" height="2.02" transform="translate(28.71 1465.85) rotate(-45)"/><polygon points="1772.77 688.96 1776.78 684.96 1773.92 681.52 1769.62 685.81 1772.77 688.96"/><polygon points="1803.36 661.24 1803.36 676.35 1807.41 676.65 1807.41 657.19 1803.36 661.24"/><polygon points="274.44 566.33 276.94 552.14 272.56 551.36 270.59 562.49 274.44 566.33"/><rect x="253.08" y="537.86" width="22.67" height="4.86" transform="translate(-304.59 345.22) rotate(-45)"/><rect x="260.29" y="544.73" width="24.29" height="4.86" transform="translate(-307.1 352.9) rotate(-45)"/><rect x="265.83" y="532.16" width="4.05" height="10.52" transform="translate(-301.56 346.81) rotate(-45)"/><rect x="237.1" y="521.54" width="24.29" height="4.86" transform="translate(-297.5 329.71) rotate(-45)"/><rect x="244.16" y="531.69" width="4.45" height="6.88" transform="translate(-306.23 330.96) rotate(-45)"/><path d="M257.84,528c-3-3-9.16-1.72-10.88,0a7.68,7.68,0,0,0,0,10.88c3,3,7,3.86,10.88,0a7.34,7.34,0,0,0,0-10.88m-8,7.44-4.31-4.31,1.1-1.1H252a3.42,3.42,0,0,1,2.41.83,3.24,3.24,0,1,1-4.58,4.58"/><polygon points="258.69 530.01 246.48 530.01 246.67 525.96 258.69 525.96 258.69 530.01"/><path d="M263,520.54a6.06,6.06,0,0,0-7.29-1l4,4a1.42,1.42,0,0,1-1,2.42l-5.88.38a6,6,0,0,0,1.59,2.78,6.07,6.07,0,0,0,8.59-8.58"/><rect x="244.94" y="529.72" width="2.02" height="0.81" transform="translate(-302.82 329.19) rotate(-45)"/><polygon points="255.26 519.11 259.27 523.11 262.7 520.25 258.41 515.96 255.26 519.11"/><polygon points="282.98 549.69 267.87 549.69 267.57 553.74 287.03 553.74 282.98 549.69"/><polygon points="552.33 566.33 554.83 552.14 550.44 551.36 548.48 562.49 552.33 566.33"/><rect x="530.97" y="537.86" width="22.67" height="4.86" transform="translate(-223.2 541.72) rotate(-45)"/><rect x="538.18" y="544.73" width="24.29" height="4.86" transform="translate(-225.71 549.39) rotate(-45)"/><rect x="543.72" y="532.16" width="4.05" height="10.52" transform="translate(-220.17 543.31) rotate(-45)"/><rect x="514.99" y="521.54" width="24.29" height="4.86" transform="translate(-216.11 526.21) rotate(-45)"/><rect x="522.05" y="531.69" width="4.45" height="6.88" transform="translate(-224.84 527.46) rotate(-45)"/><path d="M535.72,528c-3-3-9.16-1.72-10.87,0a7.68,7.68,0,0,0,0,10.88c3,3,7,3.86,10.87,0a7.32,7.32,0,0,0,0-10.88m-8,7.44-4.31-4.31,1.1-1.1h5.38a3.42,3.42,0,0,1,2.41.83,3.24,3.24,0,0,1-4.58,4.58"/><polygon points="536.58 530.01 524.37 530.01 524.56 525.96 536.58 525.96 536.58 530.01"/><path d="M540.88,520.54a6.06,6.06,0,0,0-7.29-1l4,4a1.4,1.4,0,0,1,0,2,1.38,1.38,0,0,1-1,.42l-5.88.38a6,6,0,0,0,1.59,2.78,6.07,6.07,0,0,0,8.59-8.58"/><rect x="522.83" y="529.72" width="2.02" height="0.81" transform="translate(-221.42 525.68) rotate(-45)"/><polygon points="533.15 519.11 537.15 523.11 540.59 520.25 536.3 515.96 533.15 519.11"/><polygon points="560.87 549.69 545.76 549.69 545.46 553.74 564.92 553.74 560.87 549.69"/><polygon points="830.22 566.33 832.72 552.14 828.33 551.36 826.37 562.49 830.22 566.33"/><rect x="808.86" y="537.86" width="22.67" height="4.86" transform="translate(-141.81 738.21) rotate(-45)"/><rect x="816.07" y="544.73" width="24.29" height="4.86" transform="translate(-144.32 745.89) rotate(-45)"/><rect x="821.61" y="532.16" width="4.05" height="10.52" transform="translate(-138.78 739.8) rotate(-45)"/><rect x="792.88" y="521.54" width="24.29" height="4.86" transform="translate(-134.72 722.71) rotate(-45)"/><rect x="799.94" y="531.69" width="4.45" height="6.88" transform="translate(-143.45 723.95) rotate(-45)"/><path d="M813.61,528c-3-3-9.16-1.72-10.87,0a7.68,7.68,0,0,0,0,10.88c3,3,7,3.86,10.87,0a7.32,7.32,0,0,0,0-10.88m-8,7.44-4.31-4.31,1.1-1.1h5.38a3.42,3.42,0,0,1,2.41.83,3.24,3.24,0,0,1-4.58,4.58"/><polygon points="814.47 530.01 802.26 530.01 802.45 525.96 814.47 525.96 814.47 530.01"/><path d="M818.77,520.54a6.06,6.06,0,0,0-7.29-1l4,4a1.42,1.42,0,0,1-1,2.42l-5.88.38a6,6,0,0,0,1.59,2.78,6.07,6.07,0,0,0,8.59-8.58"/><rect x="800.72" y="529.72" width="2.02" height="0.81" transform="translate(-140.03 722.18) rotate(-45)"/><polygon points="811.04 519.11 815.04 523.11 818.48 520.25 814.19 515.96 811.04 519.11"/><polygon points="838.76 549.69 823.65 549.69 823.35 553.74 842.81 553.74 838.76 549.69"/><polygon points="1108.1 566.33 1110.61 552.14 1106.22 551.36 1104.26 562.49 1108.1 566.33"/><rect x="1086.75" y="537.86" width="22.67" height="4.86" transform="translate(-60.42 934.71) rotate(-45)"/><rect x="1093.96" y="544.73" width="24.29" height="4.86" transform="translate(-62.93 942.39) rotate(-45)"/><rect x="1099.5" y="532.16" width="4.05" height="10.52" transform="translate(-57.39 936.3) rotate(-45)"/><rect x="1070.77" y="521.54" width="24.29" height="4.86" transform="translate(-53.32 919.2) rotate(-45)"/><rect x="1077.83" y="531.69" width="4.45" height="6.88" transform="translate(-62.06 920.45) rotate(-45)"/><path d="M1091.5,528c-3-3-9.16-1.72-10.87,0a7.68,7.68,0,0,0,0,10.88c3,3,7,3.86,10.87,0a7.32,7.32,0,0,0,0-10.88m-8,7.44-4.31-4.31,1.1-1.1h5.38a3.42,3.42,0,0,1,2.41.83,3.24,3.24,0,0,1-4.58,4.58"/><polygon points="1092.36 530.01 1080.15 530.01 1080.34 525.96 1092.36 525.96 1092.36 530.01"/><path d="M1096.65,520.54a6,6,0,0,0-7.28-1l4,4a1.42,1.42,0,0,1-1,2.42l-5.88.38a6,6,0,0,0,1.59,2.78,6.07,6.07,0,1,0,8.58-8.58"/><rect x="1078.61" y="529.72" width="2.02" height="0.81" transform="translate(-58.64 918.68) rotate(-45)"/><polygon points="1088.93 519.11 1092.93 523.11 1096.37 520.25 1092.08 515.96 1088.93 519.11"/><polygon points="1116.65 549.69 1101.54 549.69 1101.23 553.74 1120.7 553.74 1116.65 549.69"/><polygon points="1385.99 566.33 1388.5 552.14 1384.11 551.36 1382.15 562.49 1385.99 566.33"/><rect x="1364.64" y="537.86" width="22.67" height="4.86" transform="translate(20.97 1131.21) rotate(-45)"/><rect x="1371.85" y="544.73" width="24.29" height="4.86" transform="translate(18.46 1138.89) rotate(-45)"/><rect x="1377.39" y="532.16" width="4.05" height="10.52" transform="translate(24 1132.8) rotate(-45)"/><rect x="1348.66" y="521.54" width="24.29" height="4.86" transform="translate(28.07 1115.7) rotate(-45)"/><rect x="1355.72" y="531.69" width="4.45" height="6.88" transform="translate(19.34 1116.95) rotate(-45)"/><path d="M1369.39,528c-3-3-9.16-1.72-10.88,0a7.7,7.7,0,0,0,0,10.88c3,3,7,3.86,10.88,0a7.33,7.33,0,0,0,0-10.88m-8,7.44-4.31-4.31,1.1-1.1h5.38a3.42,3.42,0,0,1,2.41.83,3.24,3.24,0,0,1-4.58,4.58"/><polygon points="1370.25 530.01 1358.04 530.01 1358.23 525.96 1370.25 525.96 1370.25 530.01"/><path d="M1374.54,520.54a6,6,0,0,0-7.28-1l4,4a1.42,1.42,0,0,1-1,2.42l-5.88.38a6,6,0,0,0,1.59,2.78,6.07,6.07,0,0,0,8.58-8.58"/><rect x="1356.5" y="529.72" width="2.02" height="0.81" transform="translate(22.75 1115.18) rotate(-45)"/><polygon points="1366.82 519.11 1370.82 523.11 1374.26 520.25 1369.96 515.96 1366.82 519.11"/><polygon points="1394.54 549.69 1379.43 549.69 1379.12 553.74 1398.59 553.74 1394.54 549.69"/><polygon points="430.56 391.9 416.36 389.39 415.58 393.78 426.71 395.74 430.56 391.9"/><rect x="402.08" y="390.58" width="4.86" height="22.67" transform="translate(-165.72 403.75) rotate(-45)"/><rect x="408.95" y="381.76" width="4.86" height="24.29" transform="translate(-158.04 406.26) rotate(-45)"/><rect x="396.38" y="396.46" width="10.52" height="4.05" transform="translate(-164.13 400.72) rotate(-45)"/><rect x="385.76" y="404.94" width="4.86" height="24.29" transform="translate(-181.22 396.65) rotate(-45)"/><rect x="395.91" y="417.72" width="6.88" height="4.45" transform="translate(-179.98 405.39) rotate(-45)"/><path d="M392.2,408.5c-3,3-1.72,9.16,0,10.87a7.68,7.68,0,0,0,10.88,0c3-3,3.86-7,0-10.87a7.32,7.32,0,0,0-10.88,0m7.44,8-4.31,4.31-1.1-1.1v-5.38a3.47,3.47,0,0,1,.83-2.41,3.24,3.24,0,0,1,4.58,4.58"/><polygon points="394.23 407.64 394.23 419.85 390.18 419.66 390.18 407.64 394.23 407.64"/><path d="M384.76,403.35a6,6,0,0,0-1,7.28l4-4a1.42,1.42,0,0,1,2.42,1s.2,3.07.39,5.88a6.07,6.07,0,1,0-5.81-10.17"/><rect x="393.94" y="419.36" width="0.81" height="2.02" transform="translate(-181.75 401.97) rotate(-45)"/><polygon points="383.33 411.07 387.33 407.07 384.47 403.63 380.18 407.93 383.33 411.07"/><polygon points="413.91 383.35 413.91 398.46 417.96 398.77 417.96 379.3 413.91 383.35"/><polygon points="708.45 391.9 694.25 389.39 693.47 393.78 704.6 395.74 708.45 391.9"/><rect x="679.97" y="390.58" width="4.86" height="22.67" transform="translate(-84.33 600.25) rotate(-45)"/><rect x="686.84" y="381.76" width="4.86" height="24.29" transform="translate(-76.65 602.76) rotate(-45)"/><rect x="674.27" y="396.46" width="10.52" height="4.05" transform="translate(-82.74 597.22) rotate(-45)"/><rect x="663.65" y="404.94" width="4.86" height="24.29" transform="translate(-99.83 593.15) rotate(-45)"/><rect x="673.8" y="417.72" width="6.88" height="4.45" transform="translate(-98.59 601.88) rotate(-45)"/><path d="M670.09,408.5c-3,3-1.72,9.16,0,10.87a7.68,7.68,0,0,0,10.88,0c3-3,3.86-7,0-10.87a7.32,7.32,0,0,0-10.88,0m7.44,8-4.31,4.31-1.1-1.1v-5.38a3.47,3.47,0,0,1,.83-2.41,3.24,3.24,0,0,1,4.58,4.58"/><polygon points="672.12 407.64 672.12 419.85 668.07 419.66 668.07 407.64 672.12 407.64"/><path d="M662.65,403.35a6,6,0,0,0-1,7.28l4-4a1.42,1.42,0,0,1,2.42,1s.2,3.07.39,5.88a6.07,6.07,0,1,0-5.81-10.17"/><rect x="671.83" y="419.36" width="0.81" height="2.02" transform="translate(-100.36 598.47) rotate(-45)"/><polygon points="661.22 411.07 665.22 407.07 662.36 403.63 658.07 407.93 661.22 411.07"/><polygon points="691.8 383.35 691.8 398.46 695.85 398.77 695.85 379.3 691.8 383.35"/><polygon points="152.67 391.9 138.47 389.39 137.7 393.78 148.82 395.74 152.67 391.9"/><rect x="124.19" y="390.58" width="4.86" height="22.67" transform="translate(-247.11 207.25) rotate(-45)"/><rect x="131.06" y="381.76" width="4.86" height="24.29" transform="translate(-239.43 209.76) rotate(-45)"/><rect x="118.49" y="396.46" width="10.52" height="4.05" transform="translate(-245.52 204.22) rotate(-45)"/><rect x="107.87" y="404.94" width="4.86" height="24.29" transform="translate(-262.62 200.16) rotate(-45)"/><rect x="118.03" y="417.72" width="6.88" height="4.45" transform="translate(-261.37 208.89) rotate(-45)"/><path d="M114.31,408.5c-3,3-1.72,9.16,0,10.87a7.68,7.68,0,0,0,10.88,0c3-3,3.86-7,0-10.87a7.32,7.32,0,0,0-10.88,0m7.44,8-4.31,4.31-1.1-1.1v-5.38a3.47,3.47,0,0,1,.83-2.41,3.24,3.24,0,0,1,4.58,4.58"/><polygon points="116.34 407.64 116.34 419.85 112.29 419.66 112.29 407.64 116.34 407.64"/><path d="M106.87,403.35a6,6,0,0,0-1,7.28l4-4a1.42,1.42,0,0,1,2.42,1s.2,3.07.39,5.88a6.07,6.07,0,1,0-5.81-10.17"/><rect x="116.05" y="419.36" width="0.81" height="2.02" transform="translate(-263.14 205.47) rotate(-45)"/><polygon points="105.44 411.07 109.44 407.07 106.58 403.63 102.29 407.93 105.44 411.07"/><polygon points="136.02 383.35 136.02 398.46 140.07 398.77 140.07 379.3 136.02 383.35"/><polygon points="986.33 391.9 972.14 389.39 971.36 393.78 982.49 395.74 986.33 391.9"/><rect x="957.86" y="390.58" width="4.86" height="22.67" transform="translate(-2.93 796.74) rotate(-45)"/><rect x="964.73" y="381.76" width="4.86" height="24.29" transform="translate(4.74 799.25) rotate(-45)"/><rect x="952.16" y="396.46" width="10.52" height="4.05" transform="translate(-1.34 793.71) rotate(-45)"/><rect x="941.54" y="404.94" width="4.86" height="24.29" transform="translate(-18.44 789.65) rotate(-45)"/><rect x="951.69" y="417.72" width="6.88" height="4.45" transform="translate(-17.2 798.38) rotate(-45)"/><path d="M948,408.5c-3,3-1.72,9.16,0,10.87a7.68,7.68,0,0,0,10.88,0c3-3,3.86-7,0-10.87a7.32,7.32,0,0,0-10.88,0m7.44,8-4.31,4.31-1.1-1.1v-5.38a3.42,3.42,0,0,1,.83-2.41,3.24,3.24,0,0,1,4.58,4.58"/><polygon points="950.01 407.64 950.01 419.85 945.96 419.66 945.96 407.64 950.01 407.64"/><path d="M940.54,403.35a6,6,0,0,0-1,7.28l4-4a1.42,1.42,0,0,1,2.42,1s.2,3.07.38,5.88a6,6,0,0,0,2.78-1.59,6.07,6.07,0,0,0-8.58-8.58"/><rect x="949.72" y="419.36" width="0.81" height="2.02" transform="translate(-18.97 794.97) rotate(-45)"/><polygon points="939.11 411.07 943.11 407.07 940.25 403.63 935.96 407.93 939.11 411.07"/><polygon points="969.69 383.35 969.69 398.46 973.74 398.77 973.74 379.3 969.69 383.35"/><polygon points="1264.22 391.9 1250.03 389.39 1249.25 393.78 1260.38 395.74 1264.22 391.9"/><rect x="1235.75" y="390.58" width="4.86" height="22.67" transform="translate(78.46 993.24) rotate(-45)"/><rect x="1242.62" y="381.76" width="4.86" height="24.29" transform="translate(86.14 995.75) rotate(-45)"/><rect x="1230.05" y="396.46" width="10.52" height="4.05" transform="translate(80.05 990.21) rotate(-45)"/><rect x="1219.43" y="404.94" width="4.86" height="24.29" transform="translate(62.95 986.15) rotate(-45)"/><rect x="1229.58" y="417.72" width="6.88" height="4.45" transform="translate(64.2 994.88) rotate(-45)"/><path d="M1225.87,408.5c-3,3-1.72,9.16,0,10.87a7.67,7.67,0,0,0,10.87,0c3-3,3.87-7,0-10.87a7.31,7.31,0,0,0-10.87,0m7.44,8-4.31,4.31-1.1-1.1v-5.38a3.42,3.42,0,0,1,.83-2.41,3.24,3.24,0,0,1,4.58,4.58"/><polygon points="1227.9 407.64 1227.9 419.85 1223.85 419.66 1223.85 407.64 1227.9 407.64"/><path d="M1218.42,403.35a6.08,6.08,0,0,0-1,7.28l4-4a1.42,1.42,0,0,1,2.42,1s.2,3.07.38,5.88a6,6,0,0,0,2.78-1.59,6.07,6.07,0,1,0-8.59-8.58"/><rect x="1227.61" y="419.36" width="0.81" height="2.02" transform="translate(62.43 991.46) rotate(-45)"/><polygon points="1216.99 411.07 1221 407.07 1218.14 403.63 1213.85 407.93 1216.99 411.07"/><polygon points="1247.58 383.35 1247.58 398.46 1251.63 398.77 1251.63 379.3 1247.58 383.35"/><polygon points="1663.88 566.33 1666.39 552.14 1662 551.36 1660.04 562.49 1663.88 566.33"/><rect x="1642.53" y="537.86" width="22.67" height="4.86" transform="translate(102.37 1327.7) rotate(-45)"/><rect x="1649.73" y="544.73" width="24.29" height="4.86" transform="translate(99.86 1335.38) rotate(-45)"/><rect x="1655.27" y="532.16" width="4.05" height="10.52" transform="translate(105.4 1329.3) rotate(-45)"/><rect x="1626.55" y="521.54" width="24.29" height="4.86" transform="translate(109.46 1312.2) rotate(-45)"/><rect x="1633.6" y="531.69" width="4.45" height="6.88" transform="translate(100.73 1313.44) rotate(-45)"/><path d="M1647.28,528c-3-3-9.16-1.72-10.88,0a7.7,7.7,0,0,0,0,10.88c3,3,7,3.86,10.88,0a7.33,7.33,0,0,0,0-10.88m-8,7.44-4.31-4.31,1.09-1.1h5.39a3.42,3.42,0,0,1,2.41.83,3.24,3.24,0,0,1-4.58,4.58"/><polygon points="1648.14 530.01 1635.93 530.01 1636.12 525.96 1648.14 525.96 1648.14 530.01"/><path d="M1652.43,520.54a6,6,0,0,0-7.28-1l4,4a1.42,1.42,0,0,1-1,2.42l-5.88.38a6,6,0,0,0,1.59,2.78,6.07,6.07,0,0,0,8.58-8.58"/><rect x="1634.39" y="529.72" width="2.02" height="0.81" transform="translate(104.14 1311.67) rotate(-45)"/><polygon points="1644.7 519.11 1648.71 523.11 1652.15 520.25 1647.85 515.96 1644.7 519.11"/><polygon points="1672.43 549.69 1657.32 549.69 1657.01 553.74 1676.48 553.74 1672.43 549.69"/><polygon points="1542.11 391.9 1527.91 389.39 1527.14 393.78 1538.27 395.74 1542.11 391.9"/><rect x="1513.64" y="390.58" width="4.86" height="22.67" transform="translate(159.85 1189.74) rotate(-45)"/><rect x="1520.51" y="381.76" width="4.86" height="24.29" transform="translate(167.53 1192.25) rotate(-45)"/><rect x="1507.94" y="396.46" width="10.52" height="4.05" transform="translate(161.44 1186.71) rotate(-45)"/><rect x="1497.32" y="404.94" width="4.86" height="24.29" transform="translate(144.34 1182.64) rotate(-45)"/><rect x="1507.47" y="417.72" width="6.88" height="4.45" transform="translate(145.59 1191.38) rotate(-45)"/><path d="M1503.76,408.5c-3,3-1.72,9.16,0,10.87a7.67,7.67,0,0,0,10.87,0c3-3,3.87-7,0-10.87a7.31,7.31,0,0,0-10.87,0m7.44,8-4.31,4.31-1.1-1.1v-5.38a3.42,3.42,0,0,1,.83-2.41,3.24,3.24,0,0,1,4.58,4.58"/><polygon points="1505.79 407.64 1505.79 419.85 1501.74 419.66 1501.74 407.64 1505.79 407.64"/><path d="M1496.31,403.35a6.08,6.08,0,0,0-1,7.28l4-4a1.42,1.42,0,0,1,2.42,1s.2,3.07.38,5.88a6.07,6.07,0,1,0-5.81-10.17"/><rect x="1505.5" y="419.36" width="0.81" height="2.02" transform="translate(143.82 1187.96) rotate(-45)"/><polygon points="1494.88 411.07 1498.89 407.07 1496.03 403.63 1491.73 407.93 1494.88 411.07"/><polygon points="1525.47 383.35 1525.47 398.46 1529.52 398.77 1529.52 379.3 1525.47 383.35"/><polygon points="1820 391.9 1805.8 389.39 1805.03 393.78 1816.16 395.74 1820 391.9"/><rect x="1791.52" y="390.58" width="4.86" height="22.67" transform="translate(241.24 1386.23) rotate(-45)"/><rect x="1798.39" y="381.76" width="4.86" height="24.29" transform="translate(248.92 1388.74) rotate(-45)"/><rect x="1785.83" y="396.46" width="10.52" height="4.05" transform="translate(242.83 1383.2) rotate(-45)"/><rect x="1775.21" y="404.94" width="4.86" height="24.29" transform="translate(225.73 1379.14) rotate(-45)"/><rect x="1785.36" y="417.72" width="6.88" height="4.45" transform="translate(226.98 1387.87) rotate(-45)"/><path d="M1781.65,408.5c-3,3-1.72,9.16,0,10.87a7.67,7.67,0,0,0,10.87,0c3-3,3.87-7,0-10.87a7.31,7.31,0,0,0-10.87,0m7.44,8-4.31,4.31-1.1-1.1v-5.38a3.42,3.42,0,0,1,.83-2.41,3.24,3.24,0,0,1,4.58,4.58"/><polygon points="1783.67 407.64 1783.67 419.85 1779.63 419.66 1779.63 407.64 1783.67 407.64"/><path d="M1774.2,403.35a6.08,6.08,0,0,0-1,7.28l4-4a1.42,1.42,0,0,1,2.42,1s.2,3.07.38,5.88a6.07,6.07,0,1,0-5.81-10.17"/><rect x="1783.39" y="419.36" width="0.81" height="2.02" transform="translate(225.21 1384.46) rotate(-45)"/><polygon points="1772.77 411.07 1776.78 407.07 1773.92 403.63 1769.62 407.93 1772.77 411.07"/><polygon points="1803.36 383.35 1803.36 398.46 1807.41 398.77 1807.41 379.3 1803.36 383.35"/><polygon points="274.44 288.44 276.94 274.25 272.56 273.47 270.59 284.6 274.44 288.44"/><rect x="253.08" y="259.97" width="22.67" height="4.86" transform="translate(-108.1 263.83) rotate(-45)"/><rect x="260.29" y="266.84" width="24.29" height="4.86" transform="translate(-110.61 271.51) rotate(-45)"/><rect x="265.83" y="254.27" width="4.05" height="10.52" transform="translate(-105.07 265.42) rotate(-45)"/><rect x="237.1" y="243.65" width="24.29" height="4.86" transform="translate(-101 248.32) rotate(-45)"/><rect x="244.16" y="253.8" width="4.45" height="6.88" transform="translate(-109.73 249.57) rotate(-45)"/><path d="M257.84,250.09c-3-3-9.16-1.72-10.88,0A7.68,7.68,0,0,0,247,261c3,3,7,3.86,10.88,0a7.34,7.34,0,0,0,0-10.88m-8,7.44-4.31-4.31,1.1-1.1H252a3.47,3.47,0,0,1,2.41.83,3.24,3.24,0,1,1-4.58,4.58"/><polygon points="258.69 252.12 246.48 252.12 246.67 248.07 258.69 248.07 258.69 252.12"/><path d="M263,242.65a6.06,6.06,0,0,0-7.29-1l4,4a1.43,1.43,0,0,1,0,2,1.45,1.45,0,0,1-1,.41l-5.88.39a6,6,0,0,0,1.59,2.77,6.07,6.07,0,0,0,8.59-8.58"/><rect x="244.94" y="251.83" width="2.02" height="0.81" transform="translate(-106.32 247.8) rotate(-45)"/><polygon points="255.26 241.22 259.27 245.22 262.7 242.36 258.41 238.07 255.26 241.22"/><polygon points="282.98 271.8 267.87 271.8 267.57 275.85 287.03 275.85 282.98 271.8"/><polygon points="552.33 288.44 554.83 274.25 550.44 273.47 548.48 284.6 552.33 288.44"/><rect x="530.97" y="259.97" width="22.67" height="4.86" transform="translate(-26.7 460.32) rotate(-45)"/><rect x="538.18" y="266.84" width="24.29" height="4.86" transform="translate(-29.21 468) rotate(-45)"/><rect x="543.72" y="254.27" width="4.05" height="10.52" transform="translate(-23.67 461.91) rotate(-45)"/><rect x="514.99" y="243.65" width="24.29" height="4.86" transform="translate(-19.61 444.82) rotate(-45)"/><rect x="522.05" y="253.8" width="4.45" height="6.88" transform="translate(-28.34 446.06) rotate(-45)"/><path d="M535.72,250.09c-3-3-9.16-1.72-10.87,0a7.68,7.68,0,0,0,0,10.88c3,3,7,3.86,10.87,0a7.32,7.32,0,0,0,0-10.88m-8,7.44-4.31-4.31,1.1-1.1h5.38a3.47,3.47,0,0,1,2.41.83,3.24,3.24,0,0,1-4.58,4.58"/><polygon points="536.58 252.12 524.37 252.12 524.56 248.07 536.58 248.07 536.58 252.12"/><path d="M540.88,242.65a6.06,6.06,0,0,0-7.29-1l4,4a1.42,1.42,0,0,1-1,2.42l-5.88.39a6,6,0,0,0,1.59,2.77,6.07,6.07,0,1,0,8.59-8.58"/><rect x="522.83" y="251.83" width="2.02" height="0.81" transform="translate(-24.93 444.29) rotate(-45)"/><polygon points="533.15 241.22 537.15 245.22 540.59 242.36 536.3 238.07 533.15 241.22"/><polygon points="560.87 271.8 545.76 271.8 545.46 275.85 564.92 275.85 560.87 271.8"/><polygon points="830.22 288.44 832.72 274.25 828.33 273.47 826.37 284.6 830.22 288.44"/><rect x="808.86" y="259.97" width="22.67" height="4.86" transform="translate(54.69 656.82) rotate(-45)"/><rect x="816.07" y="266.84" width="24.29" height="4.86" transform="translate(52.18 664.5) rotate(-45)"/><rect x="821.61" y="254.27" width="4.05" height="10.52" transform="translate(57.72 658.41) rotate(-45)"/><rect x="792.88" y="243.65" width="24.29" height="4.86" transform="translate(61.78 641.31) rotate(-45)"/><rect x="799.94" y="253.8" width="4.45" height="6.88" transform="translate(53.05 642.56) rotate(-45)"/><path d="M813.61,250.09c-3-3-9.16-1.72-10.87,0a7.68,7.68,0,0,0,0,10.88c3,3,7,3.86,10.87,0a7.32,7.32,0,0,0,0-10.88m-8,7.44-4.31-4.31,1.1-1.1h5.38a3.47,3.47,0,0,1,2.41.83,3.24,3.24,0,0,1-4.58,4.58"/><polygon points="814.47 252.12 802.26 252.12 802.45 248.07 814.47 248.07 814.47 252.12"/><path d="M818.77,242.65a6.06,6.06,0,0,0-7.29-1l4,4a1.42,1.42,0,0,1-1,2.42l-5.88.39a6,6,0,0,0,1.59,2.77,6.07,6.07,0,0,0,8.59-8.58"/><rect x="800.72" y="251.83" width="2.02" height="0.81" transform="translate(56.46 640.79) rotate(-45)"/><polygon points="811.04 241.22 815.04 245.22 818.48 242.36 814.19 238.07 811.04 241.22"/><polygon points="838.76 271.8 823.65 271.8 823.35 275.85 842.81 275.85 838.76 271.8"/><polygon points="1108.1 288.44 1110.61 274.25 1106.22 273.47 1104.26 284.6 1108.1 288.44"/><rect x="1086.75" y="259.97" width="22.67" height="4.86" transform="translate(136.08 853.32) rotate(-45)"/><rect x="1093.96" y="266.84" width="24.29" height="4.86" transform="translate(133.57 861) rotate(-45)"/><rect x="1099.5" y="254.27" width="4.05" height="10.52" transform="translate(139.11 854.91) rotate(-45)"/><rect x="1070.77" y="243.65" width="24.29" height="4.86" transform="translate(143.17 837.81) rotate(-45)"/><rect x="1077.83" y="253.8" width="4.45" height="6.88" transform="translate(134.44 839.06) rotate(-45)"/><path d="M1091.5,250.09c-3-3-9.16-1.72-10.87,0a7.68,7.68,0,0,0,0,10.88c3,3,7,3.86,10.87,0a7.32,7.32,0,0,0,0-10.88m-8,7.44-4.31-4.31,1.1-1.1h5.38a3.47,3.47,0,0,1,2.41.83,3.24,3.24,0,0,1-4.58,4.58"/><polygon points="1092.36 252.12 1080.15 252.12 1080.34 248.07 1092.36 248.07 1092.36 252.12"/><path d="M1096.65,242.65a6,6,0,0,0-7.28-1l4,4a1.42,1.42,0,0,1-1,2.42l-5.88.39a6.07,6.07,0,1,0,10.17-5.81"/><rect x="1078.61" y="251.83" width="2.02" height="0.81" transform="translate(137.86 837.29) rotate(-45)"/><polygon points="1088.93 241.22 1092.93 245.22 1096.37 242.36 1092.08 238.07 1088.93 241.22"/><polygon points="1116.65 271.8 1101.54 271.8 1101.23 275.85 1120.7 275.85 1116.65 271.8"/><polygon points="1385.99 288.44 1388.5 274.25 1384.11 273.47 1382.15 284.6 1385.99 288.44"/><rect x="1364.64" y="259.97" width="22.67" height="4.86" transform="translate(217.47 1049.82) rotate(-45)"/><rect x="1371.85" y="266.84" width="24.29" height="4.86" transform="translate(214.96 1057.49) rotate(-45)"/><rect x="1377.39" y="254.27" width="4.05" height="10.52" transform="translate(220.5 1051.41) rotate(-45)"/><rect x="1348.66" y="243.65" width="24.29" height="4.86" transform="translate(224.56 1034.31) rotate(-45)"/><rect x="1355.72" y="253.8" width="4.45" height="6.88" transform="translate(215.83 1035.56) rotate(-45)"/><path d="M1369.39,250.09c-3-3-9.16-1.72-10.88,0a7.7,7.7,0,0,0,0,10.88c3,3,7,3.86,10.88,0a7.33,7.33,0,0,0,0-10.88m-8,7.44-4.31-4.31,1.1-1.1h5.38a3.47,3.47,0,0,1,2.41.83,3.24,3.24,0,0,1-4.58,4.58"/><polygon points="1370.25 252.12 1358.04 252.12 1358.23 248.07 1370.25 248.07 1370.25 252.12"/><path d="M1374.54,242.65a6,6,0,0,0-7.28-1l4,4a1.42,1.42,0,0,1-1,2.42l-5.88.39a6.08,6.08,0,0,0,10.17,2.77,6.07,6.07,0,0,0,0-8.58"/><rect x="1356.5" y="251.83" width="2.02" height="0.81" transform="translate(219.25 1033.78) rotate(-45)"/><polygon points="1366.82 241.22 1370.82 245.22 1374.26 242.36 1369.96 238.07 1366.82 241.22"/><polygon points="1394.54 271.8 1379.43 271.8 1379.12 275.85 1398.59 275.85 1394.54 271.8"/><polygon points="430.56 114.01 416.36 111.5 415.58 115.89 426.71 117.85 430.56 114.01"/><rect x="402.08" y="112.69" width="4.86" height="22.67" transform="translate(30.78 322.36) rotate(-45)"/><rect x="408.95" y="103.87" width="4.86" height="24.29" transform="translate(38.46 324.87) rotate(-45)"/><rect x="396.38" y="118.57" width="10.52" height="4.05" transform="translate(32.37 319.33) rotate(-45)"/><rect x="385.76" y="127.05" width="4.86" height="24.29" transform="translate(15.27 315.26) rotate(-45)"/><rect x="395.91" y="139.83" width="6.88" height="4.45" transform="translate(16.52 324) rotate(-45)"/><path d="M392.2,130.61c-3,3-1.72,9.16,0,10.88a7.7,7.7,0,0,0,10.88,0c3-3,3.86-7,0-10.88a7.33,7.33,0,0,0-10.88,0m7.44,8-4.31,4.31-1.1-1.1v-5.38a3.47,3.47,0,0,1,.83-2.41,3.24,3.24,0,1,1,4.58,4.58"/><polygon points="394.23 129.75 394.23 141.96 390.18 141.77 390.18 129.75 394.23 129.75"/><path d="M384.76,125.46a6,6,0,0,0-1,7.28l4-4a1.42,1.42,0,0,1,2.42,1s.2,3.08.39,5.88a6.08,6.08,0,0,0,2.77-10.17,6.07,6.07,0,0,0-8.58,0"/><rect x="393.94" y="141.48" width="0.81" height="2.02" transform="translate(14.75 320.58) rotate(-45)"/><polygon points="383.33 133.19 387.33 129.18 384.47 125.74 380.18 130.04 383.33 133.19"/><polygon points="413.91 105.46 413.91 120.57 417.96 120.88 417.96 101.41 413.91 105.46"/><polygon points="708.45 114.01 694.25 111.5 693.47 115.89 704.6 117.85 708.45 114.01"/><rect x="679.97" y="112.69" width="4.86" height="22.67" transform="translate(112.17 518.85) rotate(-45)"/><rect x="686.84" y="103.87" width="4.86" height="24.29" transform="translate(119.85 521.36) rotate(-45)"/><rect x="674.27" y="118.57" width="10.52" height="4.05" transform="translate(113.76 515.82) rotate(-45)"/><rect x="663.65" y="127.05" width="4.86" height="24.29" transform="translate(96.66 511.76) rotate(-45)"/><rect x="673.8" y="139.83" width="6.88" height="4.45" transform="translate(97.91 520.49) rotate(-45)"/><path d="M670.09,130.61c-3,3-1.72,9.16,0,10.88a7.7,7.7,0,0,0,10.88,0c3-3,3.86-7,0-10.88a7.33,7.33,0,0,0-10.88,0m7.44,8-4.31,4.31-1.1-1.1v-5.38A3.47,3.47,0,0,1,673,134a3.24,3.24,0,1,1,4.58,4.58"/><polygon points="672.12 129.75 672.12 141.96 668.07 141.77 668.07 129.75 672.12 129.75"/><path d="M662.65,125.46a6,6,0,0,0-1,7.28l4-4a1.42,1.42,0,0,1,2.42,1s.2,3.08.39,5.88a6.08,6.08,0,0,0,2.77-10.17,6.07,6.07,0,0,0-8.58,0"/><rect x="671.83" y="141.48" width="0.81" height="2.02" transform="translate(96.14 517.08) rotate(-45)"/><polygon points="661.22 133.19 665.22 129.18 662.36 125.74 658.07 130.04 661.22 133.19"/><polygon points="691.8 105.46 691.8 120.57 695.85 120.88 695.85 101.41 691.8 105.46"/><polygon points="152.67 114.01 138.47 111.5 137.7 115.89 148.82 117.85 152.67 114.01"/><rect x="124.19" y="112.69" width="4.86" height="22.67" transform="translate(-50.61 125.86) rotate(-45)"/><rect x="131.06" y="103.87" width="4.86" height="24.29" transform="translate(-42.93 128.37) rotate(-45)"/><rect x="118.49" y="118.57" width="10.52" height="4.05" transform="translate(-49.02 122.83) rotate(-45)"/><rect x="107.87" y="127.05" width="4.86" height="24.29" transform="translate(-66.12 118.77) rotate(-45)"/><rect x="118.03" y="139.83" width="6.88" height="4.45" transform="translate(-64.87 127.5) rotate(-45)"/><path d="M114.31,130.61c-3,3-1.72,9.16,0,10.88a7.7,7.7,0,0,0,10.88,0c3-3,3.86-7,0-10.88a7.33,7.33,0,0,0-10.88,0m7.44,8-4.31,4.31-1.1-1.1v-5.38a3.47,3.47,0,0,1,.83-2.41,3.24,3.24,0,1,1,4.58,4.58"/><polygon points="116.34 129.75 116.34 141.96 112.29 141.77 112.29 129.75 116.34 129.75"/><path d="M106.87,125.46a6,6,0,0,0-1,7.28l4-4a1.42,1.42,0,0,1,2.42,1s.2,3.08.39,5.88a6.07,6.07,0,1,0-5.81-10.17"/><rect x="116.05" y="141.48" width="0.81" height="2.02" transform="translate(-66.64 124.08) rotate(-45)"/><polygon points="105.44 133.19 109.44 129.18 106.58 125.74 102.29 130.04 105.44 133.19"/><polygon points="136.02 105.46 136.02 120.57 140.07 120.88 140.07 101.41 136.02 105.46"/><polygon points="986.33 114.01 972.14 111.5 971.36 115.89 982.49 117.85 986.33 114.01"/><rect x="957.86" y="112.69" width="4.86" height="22.67" transform="translate(193.56 715.35) rotate(-45)"/><rect x="964.73" y="103.87" width="4.86" height="24.29" transform="translate(201.24 717.86) rotate(-45)"/><rect x="952.16" y="118.57" width="10.52" height="4.05" transform="translate(195.15 712.32) rotate(-45)"/><rect x="941.54" y="127.05" width="4.86" height="24.29" transform="translate(178.06 708.26) rotate(-45)"/><rect x="951.69" y="139.83" width="6.88" height="4.45" transform="translate(179.3 716.99) rotate(-45)"/><path d="M948,130.61c-3,3-1.72,9.16,0,10.88a7.7,7.7,0,0,0,10.88,0c3-3,3.86-7,0-10.88a7.33,7.33,0,0,0-10.88,0m7.44,8-4.31,4.31-1.1-1.1v-5.38a3.42,3.42,0,0,1,.83-2.41,3.24,3.24,0,1,1,4.58,4.58"/><polygon points="950.01 129.75 950.01 141.96 945.96 141.77 945.96 129.75 950.01 129.75"/><path d="M940.54,125.46a6,6,0,0,0-1,7.28l4-4a1.42,1.42,0,0,1,2.42,1s.2,3.08.38,5.88a6,6,0,0,0,2.78-1.59,6.07,6.07,0,0,0-8.58-8.58"/><rect x="949.72" y="141.48" width="0.81" height="2.02" transform="translate(177.53 713.57) rotate(-45)"/><polygon points="939.11 133.19 943.11 129.18 940.25 125.74 935.96 130.04 939.11 133.19"/><polygon points="969.69 105.46 969.69 120.57 973.74 120.88 973.74 101.41 969.69 105.46"/><polygon points="1264.22 114.01 1250.03 111.5 1249.25 115.89 1260.38 117.85 1264.22 114.01"/><rect x="1235.75" y="112.69" width="4.86" height="22.67" transform="translate(274.95 911.85) rotate(-45)"/><rect x="1242.62" y="103.87" width="4.86" height="24.29" transform="translate(282.63 914.36) rotate(-45)"/><rect x="1230.05" y="118.57" width="10.52" height="4.05" transform="translate(276.54 908.82) rotate(-45)"/><rect x="1219.43" y="127.05" width="4.86" height="24.29" transform="translate(259.45 904.75) rotate(-45)"/><rect x="1229.58" y="139.83" width="6.88" height="4.45" transform="translate(260.69 913.49) rotate(-45)"/><path d="M1225.87,130.61c-3,3-1.72,9.16,0,10.88a7.69,7.69,0,0,0,10.87,0c3-3,3.87-7,0-10.88a7.32,7.32,0,0,0-10.87,0m7.44,8-4.31,4.31-1.1-1.1v-5.38a3.42,3.42,0,0,1,.83-2.41,3.24,3.24,0,1,1,4.58,4.58"/><polygon points="1227.9 129.75 1227.9 141.96 1223.85 141.77 1223.85 129.75 1227.9 129.75"/><path d="M1218.42,125.46a6.08,6.08,0,0,0-1,7.28l4-4a1.42,1.42,0,0,1,2.42,1s.2,3.08.38,5.88A6,6,0,0,0,1227,134a6.07,6.07,0,1,0-8.59-8.58"/><rect x="1227.61" y="141.48" width="0.81" height="2.02" transform="translate(258.92 910.07) rotate(-45)"/><polygon points="1216.99 133.19 1221 129.18 1218.14 125.74 1213.85 130.04 1216.99 133.19"/><polygon points="1247.58 105.46 1247.58 120.57 1251.63 120.88 1251.63 101.41 1247.58 105.46"/><polygon points="1663.88 288.44 1666.39 274.25 1662 273.47 1660.04 284.6 1663.88 288.44"/><rect x="1642.53" y="259.97" width="22.67" height="4.86" transform="translate(298.86 1246.31) rotate(-45)"/><rect x="1649.73" y="266.84" width="24.29" height="4.86" transform="translate(296.35 1253.99) rotate(-45)"/><rect x="1655.27" y="254.27" width="4.05" height="10.52" transform="translate(301.89 1247.9) rotate(-45)"/><rect x="1626.55" y="243.65" width="24.29" height="4.86" transform="translate(305.96 1230.81) rotate(-45)"/><rect x="1633.6" y="253.8" width="4.45" height="6.88" transform="translate(297.22 1232.05) rotate(-45)"/><path d="M1647.28,250.09c-3-3-9.16-1.72-10.88,0a7.7,7.7,0,0,0,0,10.88c3,3,7,3.86,10.88,0a7.33,7.33,0,0,0,0-10.88m-8,7.44-4.31-4.31,1.09-1.1h5.39a3.47,3.47,0,0,1,2.41.83,3.24,3.24,0,0,1-4.58,4.58"/><polygon points="1648.14 252.12 1635.93 252.12 1636.12 248.07 1648.14 248.07 1648.14 252.12"/><path d="M1652.43,242.65a6,6,0,0,0-7.28-1l4,4a1.42,1.42,0,0,1-1,2.42l-5.88.39a6.08,6.08,0,0,0,10.17,2.77,6.07,6.07,0,0,0,0-8.58"/><rect x="1634.39" y="251.83" width="2.02" height="0.81" transform="translate(300.64 1230.28) rotate(-45)"/><polygon points="1644.7 241.22 1648.71 245.22 1652.15 242.36 1647.85 238.07 1644.7 241.22"/><polygon points="1672.43 271.8 1657.32 271.8 1657.01 275.85 1676.48 275.85 1672.43 271.8"/><polygon points="1542.11 114.01 1527.91 111.5 1527.14 115.89 1538.27 117.85 1542.11 114.01"/><rect x="1513.64" y="112.69" width="4.86" height="22.67" transform="translate(356.35 1108.35) rotate(-45)"/><rect x="1520.51" y="103.87" width="4.86" height="24.29" transform="translate(364.03 1110.86) rotate(-45)"/><rect x="1507.94" y="118.57" width="10.52" height="4.05" transform="translate(357.94 1105.32) rotate(-45)"/><rect x="1497.32" y="127.05" width="4.86" height="24.29" transform="translate(340.84 1101.25) rotate(-45)"/><rect x="1507.47" y="139.83" width="6.88" height="4.45" transform="translate(342.09 1109.98) rotate(-45)"/><path d="M1503.76,130.61c-3,3-1.72,9.16,0,10.88a7.69,7.69,0,0,0,10.87,0c3-3,3.87-7,0-10.88a7.32,7.32,0,0,0-10.87,0m7.44,8-4.31,4.31-1.1-1.1v-5.38a3.42,3.42,0,0,1,.83-2.41,3.24,3.24,0,0,1,4.58,4.58"/><polygon points="1505.79 129.75 1505.79 141.96 1501.74 141.77 1501.74 129.75 1505.79 129.75"/><path d="M1496.31,125.46a6.08,6.08,0,0,0-1,7.28l4-4a1.42,1.42,0,0,1,2.42,1s.2,3.08.38,5.88a6.07,6.07,0,1,0-5.81-10.17"/><rect x="1505.5" y="141.48" width="0.81" height="2.02" transform="translate(340.31 1106.57) rotate(-45)"/><polygon points="1494.88 133.19 1498.89 129.18 1496.03 125.74 1491.73 130.04 1494.88 133.19"/><polygon points="1525.47 105.46 1525.47 120.57 1529.52 120.88 1529.52 101.41 1525.47 105.46"/><polygon points="1820 114.01 1805.8 111.5 1805.03 115.89 1816.16 117.85 1820 114.01"/><rect x="1791.52" y="112.69" width="4.86" height="22.67" transform="translate(437.74 1304.84) rotate(-45)"/><rect x="1798.39" y="103.87" width="4.86" height="24.29" transform="translate(445.42 1307.35) rotate(-45)"/><rect x="1785.83" y="118.57" width="10.52" height="4.05" transform="translate(439.33 1301.81) rotate(-45)"/><rect x="1775.21" y="127.05" width="4.86" height="24.29" transform="translate(422.23 1297.75) rotate(-45)"/><rect x="1785.36" y="139.83" width="6.88" height="4.45" transform="translate(423.48 1306.48) rotate(-45)"/><path d="M1781.65,130.61c-3,3-1.72,9.16,0,10.88a7.69,7.69,0,0,0,10.87,0c3-3,3.87-7,0-10.88a7.32,7.32,0,0,0-10.87,0m7.44,8-4.31,4.31-1.1-1.1v-5.38a3.42,3.42,0,0,1,.83-2.41,3.24,3.24,0,1,1,4.58,4.58"/><polygon points="1783.67 129.75 1783.67 141.96 1779.63 141.77 1779.63 129.75 1783.67 129.75"/><path d="M1774.2,125.46a6.08,6.08,0,0,0-1,7.28l4-4a1.42,1.42,0,0,1,2.42,1s.2,3.08.38,5.88a6.07,6.07,0,1,0-5.81-10.17"/><rect x="1783.39" y="141.48" width="0.81" height="2.02" transform="translate(421.71 1303.07) rotate(-45)"/><polygon points="1772.77 133.19 1776.78 129.18 1773.92 125.74 1769.62 130.04 1772.77 133.19"/><polygon points="1803.36 105.46 1803.36 120.57 1807.41 120.88 1807.41 101.41 1803.36 105.46"/></g></svg>