<svg xmlns="http://www.w3.org/2000/svg" viewBox="0 0 1920 1080"><g id="Graphics"><path d="M136.74,103.86h16L191.06,208H175.38L165,177.64H124L113.36,208H98.66Zm-8.82,62.58h33.32l-9.94-29.12q-1.4-3.78-2.52-7.7t-2-7.14c-.65-2.43-1.26-4.85-1.82-7.28h-.42c-.65,2.43-1.31,4.9-2,7.42q-1,3.22-2.1,7.14t-2.38,7.56Z"/><path d="M206.74,103.86h44.8q16.1,0,24.92,8.82a25.67,25.67,0,0,1,5.11,7.84,26.09,26.09,0,0,1,1.89,10.22q0,8.53-4.62,14t-13,7.84V153a37,37,0,0,1,8.75,3.22,25.87,25.87,0,0,1,6.93,5.25,22.73,22.73,0,0,1,4.55,7.28,25.53,25.53,0,0,1,1.61,9.31,29.77,29.77,0,0,1-2.1,11.41,26.84,26.84,0,0,1-5.88,8.89,30.28,30.28,0,0,1-11.06,7.14,41.68,41.68,0,0,1-15,2.52h-46.9Zm42.84,44.38q9.24,0,14.35-4.27T269,131.72q0-7.43-4.69-11.48t-13.09-4.06H221v32.06Zm3.22,47.18q10.5,0,15.68-5.18,4.62-4.34,4.62-11.76,0-9.37-6-14T252,159.86H221v35.56Z"/><path d="M351.5,210.12a48.81,48.81,0,0,1-20.24-4.06,44.78,44.78,0,0,1-15.39-11.27A51.2,51.2,0,0,1,306,177.64a64.77,64.77,0,0,1-3.5-21.7,66.5,66.5,0,0,1,3.36-21.42,50.11,50.11,0,0,1,9.72-17.22,45.69,45.69,0,0,1,15.54-11.48,49.44,49.44,0,0,1,20.8-4.2,51.13,51.13,0,0,1,16.45,2.45,39.88,39.88,0,0,1,12.52,6.79,33.92,33.92,0,0,1,8.9,10.71,42.82,42.82,0,0,1,4.41,13.79H379.92a25.16,25.16,0,0,0-9-15.47q-7.2-5.81-19.25-5.81a33.08,33.08,0,0,0-14.7,3.15A31.09,31.09,0,0,0,326.08,126a39.65,39.65,0,0,0-6.71,13.3,57.73,57.73,0,0,0-2.32,16.66A56.24,56.24,0,0,0,319.5,173a38.75,38.75,0,0,0,7,13.16,31.57,31.57,0,0,0,11,8.47,33.24,33.24,0,0,0,14.28,3,31.47,31.47,0,0,0,12.39-2.24,25.91,25.91,0,0,0,8.82-6,28,28,0,0,0,5.59-8.75A34.73,34.73,0,0,0,381,170.08h14.28a35.9,35.9,0,0,1-.91,7.91,43.21,43.21,0,0,1-2.59,7.77,50.74,50.74,0,0,1-3.93,7.21,33.84,33.84,0,0,1-5,6.09Q371.79,210.12,351.5,210.12Z"/><path d="M414.49,103.86H453a51,51,0,0,1,20.37,3.78,38.62,38.62,0,0,1,14.56,10.71,45.74,45.74,0,0,1,8.68,16.59,74.81,74.81,0,0,1,2.87,21.42,69.79,69.79,0,0,1-3,21.14,44.21,44.21,0,0,1-9,16.31,40.4,40.4,0,0,1-14.84,10.5A52.84,52.84,0,0,1,452,208H414.49Zm37,91.7a37.89,37.89,0,0,0,15.12-2.73A25.79,25.79,0,0,0,476.86,185a33.61,33.61,0,0,0,5.88-12.39,64.65,64.65,0,0,0,1.89-16.24A71.25,71.25,0,0,0,482.88,140a34.56,34.56,0,0,0-5.6-12.67,25.53,25.53,0,0,0-10-8.12,35.33,35.33,0,0,0-15-2.87H428.91v79.24Z"/><path d="M519.21,103.86h74.06v12.6H533.49V148h54v11.9h-54V195h61.32v13h-75.6Z"/><path d="M614.69,103.86H686v12.6H629v31.22h47.46v12.18H629V208H614.69Z"/><path d="M778.77,193.32h-.42a36.3,36.3,0,0,1-13.79,12.74,39.76,39.76,0,0,1-18.41,4.2,48.32,48.32,0,0,1-19.88-4,45.21,45.21,0,0,1-15.4-11.13,48.75,48.75,0,0,1-10.08-17,64.6,64.6,0,0,1-3.5-21.77,68.48,68.48,0,0,1,3.36-21.91A49.84,49.84,0,0,1,710.59,117a44.15,44.15,0,0,1,15.47-11.2,58.11,58.11,0,0,1,37.8-1.68,39.77,39.77,0,0,1,12.53,6.65A35.25,35.25,0,0,1,785.07,121,46.43,46.43,0,0,1,790,134.1H775.13a27.65,27.65,0,0,0-9.1-14.42q-6.72-5.59-18.76-5.6a36.2,36.2,0,0,0-15.82,3.22,30,30,0,0,0-11.06,8.89A38.15,38.15,0,0,0,714,139.63a63.94,63.94,0,0,0-2.1,16.73,52.15,52.15,0,0,0,2.59,16.87,39.69,39.69,0,0,0,7.21,13.09,32.16,32.16,0,0,0,11.06,8.47,32.9,32.9,0,0,0,14.14,3,34.65,34.65,0,0,0,13.51-2.45A26.53,26.53,0,0,0,770,188.7a27.79,27.79,0,0,0,5.67-9.73,35.9,35.9,0,0,0,1.89-11.69V165H747.27V152.86h44.38V208h-9.1Z"/><path d="M812.79,103.86h14.27v43.82h53.77V103.86h14.42V208H880.83V159.3H827.06V208H812.79Z"/><path d="M919.32,103.86H933.6V208H919.32Z"/><path d="M982.46,210.12q-14.57,0-22.89-8.19t-8.33-26.11v-2.24h14v1.82a48.4,48.4,0,0,0,1,11,16.8,16.8,0,0,0,3.22,7A12.07,12.07,0,0,0,975,197.1a23.58,23.58,0,0,0,7.63,1.12q7.7,0,11.9-4.2t4.2-13.58V103.86H1013v77.42a34.51,34.51,0,0,1-1.82,11.48,23.5,23.5,0,0,1-5.6,9,26.23,26.23,0,0,1-9.52,6.16A37.37,37.37,0,0,1,982.46,210.12Z"/><path d="M1035.38,103.86h14.28v32.2q0,5.33-.14,10.36t-.42,8.82l50.26-51.52h17.92l-41.86,41.86L1120.64,208H1104l-38.5-53.2-15.82,15.54V208h-14.28Z"/><path d="M1133.66,103.86h14.28V195h53.89v13h-68.17Z"/><path d="M1219.19,103.86h18.48l21.7,56.56q1.55,4.34,3.43,9.94t3.43,10.64q1.82,5.88,3.64,12h.28q2-6.16,3.78-12,1.54-5,3.43-10.64t3.43-9.94l21.28-56.56h19V208h-13.72V145c0-2.33,0-5,.07-8.05s.16-5.95.35-8.75c.09-3.17.23-6.49.42-9.94H1308l-2.52,8.82q-1.12,3.65-2.38,7.77c-.84,2.75-1.63,5.16-2.38,7.21L1275.33,208h-11.2l-25.34-65.94c-.75-2.05-1.54-4.46-2.38-7.21s-1.63-5.34-2.38-7.77l-2.52-8.82h-.28c.09,3.45.23,6.77.42,9.94.09,2.8.19,5.72.28,8.75s.14,5.72.14,8.05v63h-12.88Z"/><path d="M1344.77,103.86h15l42.7,65.24q2,2.94,4,6.51t3.71,6.79c1.31,2.43,2.61,4.9,3.92,7.42h.42c-.19-2.61-.37-5.23-.56-7.84-.19-2.24-.3-4.67-.35-7.28s-.07-5-.07-7.14v-63.7H1427V208h-14.84l-42.56-65.24q-2-2.94-4-6.44c-1.35-2.33-2.64-4.57-3.85-6.72q-2.1-3.65-4.06-7.42h-.28c.09,2.61.23,5.23.42,7.84.09,2.24.19,4.62.28,7.14s.14,4.85.14,7V208h-13.44Z"/><path d="M1497.79,210.26a52.49,52.49,0,0,1-21.21-4.13,47,47,0,0,1-16.1-11.41,49.43,49.43,0,0,1-10.15-17.22,68.59,68.59,0,0,1,0-43.26,48.76,48.76,0,0,1,10.15-17.15,47.33,47.33,0,0,1,16.1-11.34,56.53,56.53,0,0,1,42.42,0,47.33,47.33,0,0,1,16.1,11.34,49.83,49.83,0,0,1,10.22,17.15,67.31,67.31,0,0,1,0,43.26,50.52,50.52,0,0,1-10.22,17.22,47,47,0,0,1-16.1,11.41A52.49,52.49,0,0,1,1497.79,210.26Zm0-12.6a36.72,36.72,0,0,0,15.61-3.15,32.17,32.17,0,0,0,11.41-8.75,37.62,37.62,0,0,0,6.93-13.23,57.05,57.05,0,0,0,2.31-16.59,57.74,57.74,0,0,0-2.31-16.66,37.6,37.6,0,0,0-6.93-13.3,32.93,32.93,0,0,0-11.41-8.82,39.45,39.45,0,0,0-31.22,0,32.84,32.84,0,0,0-11.41,8.82,38.38,38.38,0,0,0-7,13.3,56,56,0,0,0-2.38,16.66,55.39,55.39,0,0,0,2.38,16.59,38.41,38.41,0,0,0,7,13.23,32.08,32.08,0,0,0,11.41,8.75A36.72,36.72,0,0,0,1497.79,197.66Z"/><path d="M1568.63,103.86h43.82a37.9,37.9,0,0,1,14.63,2.59,26.19,26.19,0,0,1,10.29,7.49,30.12,30.12,0,0,1,7.42,20.44q0,14.42-8.4,22.61t-25.34,8.19h-28V208h-14.42Zm14.42,49.7h26.6q10.63,0,15.75-5t5.11-13.79q0-9.24-5.32-13.86t-15-4.62h-27.16Z"/><path d="M1736.34,203.54a49.94,49.94,0,0,1-12.25,5,55.49,55.49,0,0,1-14.21,1.75,52.49,52.49,0,0,1-21.21-4.13,47,47,0,0,1-16.1-11.41,49.59,49.59,0,0,1-10.15-17.22,68.59,68.59,0,0,1,0-43.26,48.91,48.91,0,0,1,10.15-17.15,47.33,47.33,0,0,1,16.1-11.34,56.53,56.53,0,0,1,42.42,0,46.66,46.66,0,0,1,16,11.34,50.31,50.31,0,0,1,10.15,17.15,63.78,63.78,0,0,1,3.57,21.7,63,63,0,0,1-4,22.82,50.38,50.38,0,0,1-11.41,17.78l15,12-7.14,8.68Zm-26.46-5.6a36.08,36.08,0,0,0,15.54-3.22L1712,183.8l7-8.68,16,12.88a38.24,38.24,0,0,0,8.33-13.93,54.59,54.59,0,0,0,2.87-18.13,57.74,57.74,0,0,0-2.31-16.66,37.6,37.6,0,0,0-6.93-13.3,32.84,32.84,0,0,0-11.41-8.82,39.45,39.45,0,0,0-31.22,0,32.84,32.84,0,0,0-11.41,8.82,38.55,38.55,0,0,0-7,13.3,56,56,0,0,0-2.38,16.66,55.39,55.39,0,0,0,2.38,16.59,39.38,39.38,0,0,0,7,13.3,32.44,32.44,0,0,0,11.41,8.89A36,36,0,0,0,1709.88,197.94Z"/><path d="M106.78,253.86H155.5a38.09,38.09,0,0,1,12.74,2,28.38,28.38,0,0,1,9.87,5.81,25.65,25.65,0,0,1,6.37,9.1,30.09,30.09,0,0,1,2.24,11.76q0,9.53-4.34,16.17t-14.7,9.87V309a24,24,0,0,1,7.28,3.36,17,17,0,0,1,4.76,5.11,23.66,23.66,0,0,1,2.73,7.21,71.89,71.89,0,0,1,1.33,9.8q.42,6.17,1,10.29c.37,2.75.75,5,1.12,6.72a18.82,18.82,0,0,0,1.19,3.92,4.48,4.48,0,0,0,1.47,1.89v.7H173.28a5.18,5.18,0,0,1-1.4-2.1,20.07,20.07,0,0,1-1-4.06c-.28-1.77-.51-4-.7-6.79s-.42-6.23-.7-10.43q-.7-11.06-5.6-15.54t-15.12-4.48H121.06V358H106.78Zm14.28,49.28h29.82q10.63,0,15.89-5T172,284.66q0-9.24-4.69-13.86t-15.75-4.62H121.06Z"/><path d="M245.24,360.12a59,59,0,0,1-19.11-2.8,40.48,40.48,0,0,1-13.72-7.63,32.65,32.65,0,0,1-8.47-11.41,39.49,39.49,0,0,1-3.36-14h14.14q1.26,11.89,9,18.13t22,6.23a36.88,36.88,0,0,0,9.59-1.19,22.54,22.54,0,0,0,7.56-3.5,16.7,16.7,0,0,0,5-5.81,17.72,17.72,0,0,0,1.82-8.26,15.24,15.24,0,0,0-2.17-8.4,17.11,17.11,0,0,0-6.16-5.6,43.51,43.51,0,0,0-9.52-3.78q-5.53-1.55-12.39-3.08a125.17,125.17,0,0,1-13.23-3.36,40.69,40.69,0,0,1-11-5.25,24,24,0,0,1-7.49-8.19q-2.73-4.91-2.73-12.46A24.7,24.7,0,0,1,215,259.25a34.46,34.46,0,0,1,11.41-5.46,59.47,59.47,0,0,1,31.29.42,35.4,35.4,0,0,1,11.83,6.37,28.58,28.58,0,0,1,7.49,9.66,43.29,43.29,0,0,1,3.64,12.32H266.8q-1.41-9.53-8-14.49t-17.64-5q-10.37,0-16.52,4.06t-6.16,11.9a11.88,11.88,0,0,0,2,7.07,16.36,16.36,0,0,0,5.6,4.83,38.26,38.26,0,0,0,8.54,3.29q5,1.33,10.85,2.59,7.56,1.55,14.49,3.5a43.84,43.84,0,0,1,12.32,5.53,26.41,26.41,0,0,1,8.54,9.17q3.15,5.59,3.15,14.28a29.09,29.09,0,0,1-2.87,13.16,27.31,27.31,0,0,1-8,9.66,37,37,0,0,1-12.32,5.95A56.78,56.78,0,0,1,245.24,360.12Z"/><path d="M292,253.86h82.88v12.6h-34.3V358H326.16V266.46H292Z"/><path d="M430.74,359.56a60.76,60.76,0,0,1-16.17-2,34.59,34.59,0,0,1-12.67-6.3,29,29,0,0,1-8.33-11,39.14,39.14,0,0,1-3-16.1V253.86h14.28v69q0,12.89,6.79,18.69T431,347.38q12.18,0,18.9-5.81t6.72-18.69v-69h14.28v70.28a38.47,38.47,0,0,1-3.08,16.1,29.48,29.48,0,0,1-8.47,11,35.39,35.39,0,0,1-12.74,6.3A59.65,59.65,0,0,1,430.74,359.56Z"/><path d="M484.77,253.86h15.4L523,323.3c.66,1.87,1.33,4.08,2,6.65s1.38,5,2,7.35q1.13,4.06,2.1,8.26h.28q1-4.33,2.1-8.4,1-3.5,2-7.28t2-6.58L558,253.86h14.84L536.43,358H520.75Z"/><path d="M582.07,253.86h15l15,61.32c.65,2.61,1.26,5.51,1.82,8.68s1.07,6.16,1.54,9q.71,4.9,1.54,9.94h.28q.84-5.17,1.68-10.08.71-4.2,1.68-9c.65-3.17,1.35-6.07,2.1-8.68l16.8-61.18h15.12L670.83,315c.65,2.61,1.33,5.51,2,8.68s1.28,6.16,1.75,9q.84,4.9,1.68,10.08h.28q.84-5,1.68-9.94c.47-2.8,1-5.79,1.61-9s1.24-6.07,1.89-8.68l15.54-61.32H712L683,358H669.15l-17.08-66.64q-1-3.5-1.82-8c-.56-3-1.07-5.83-1.54-8.54q-.84-4.62-1.54-9.52h-.28q-.84,4.91-1.68,9.52c-.47,2.71-1,5.55-1.61,8.54s-1.19,5.6-1.75,7.84L623.51,358H609.23Z"/><path d="M756,304.54l-33.18-50.68h16.52l15.54,25.06c1,1.68,2.1,3.5,3.22,5.46s2.15,3.83,3.08,5.6q1.54,3.07,3.22,6h.28q1.68-2.94,3.36-6c1-1.77,2.1-3.64,3.22-5.6s2.19-3.78,3.22-5.46l15.68-25.06h15.68l-33.74,50.82,35,53.34H790l-16.52-27.16q-1.55-2.52-3.22-5.53t-3.08-5.67c-1-2.05-2.1-4.11-3.22-6.16h-.28c-1.22,2.05-2.38,4.11-3.5,6.16q-1.54,2.65-3.36,5.67t-3.36,5.53L736.35,358H720.11Z"/><path d="M852.55,314.34,815,253.86h16l18.76,31.36,3.36,6.16q1.82,3.36,3.36,6.3l3.5,7h.28c1.12-2.33,2.28-4.67,3.5-7q1.53-2.94,3.36-6.3t3.5-6.16l18.9-31.36h15.26L866.83,315v43H852.55Z"/><path d="M913.73,344.72l50.81-64.82q1.69-2.1,3.79-4.55t4.06-4.55q2.24-2.52,4.62-4.9v-.42l-6.58.28q-2.8.14-6.1.21t-5.94.07H917.51V253.86H993v11.2l-50.11,64.82q-2,2.39-4.34,5T934,340q-2.52,2.66-4.91,5.46v.42l6.87-.28c2-.09,4-.16,6.3-.21s4.33-.07,6.29-.07h46.77V358H913.73Z"/><path d="M127.36,509.56a36.41,36.41,0,0,1-10-1.33,23.71,23.71,0,0,1-8.12-4,18.73,18.73,0,0,1-5.39-6.65,21.17,21.17,0,0,1-2-9.45,22.23,22.23,0,0,1,2.31-10.78,17.47,17.47,0,0,1,6.58-6.72A36.37,36.37,0,0,1,121,466.72a117.14,117.14,0,0,1,13.23-2.24,72,72,0,0,0,7.56-1.12,24,24,0,0,0,5.74-1.89,9.41,9.41,0,0,0,3.64-3,8.19,8.19,0,0,0,1.26-4.76,12,12,0,0,0-4.13-9.66q-4.12-3.5-12-3.5-9,0-13.37,3.92a14.37,14.37,0,0,0-4.69,10.64h-12.6a23.46,23.46,0,0,1,2.1-9.1,22.88,22.88,0,0,1,5.74-7.7A27.66,27.66,0,0,1,123,433a40.41,40.41,0,0,1,13.23-2,48.07,48.07,0,0,1,9.94,1,28,28,0,0,1,8.26,3.08,19.41,19.41,0,0,1,7.42,7.84,26.84,26.84,0,0,1,2.66,12.6v35.14q0,4.48,1.54,6.72c1,1.49,3.17,1.87,6.44,1.12H173v9.1c-.93.28-1.94.54-3,.77a19.36,19.36,0,0,1-4,.35c-4,0-7.05-1-9.1-2.87s-3.45-4.88-4.2-8.89h-.14a32.78,32.78,0,0,1-4.2,4.76,28.86,28.86,0,0,1-5.46,4,29.62,29.62,0,0,1-6.93,2.8A32.76,32.76,0,0,1,127.36,509.56Zm3.22-9.52a23.2,23.2,0,0,0,9.73-1.89,22,22,0,0,0,6.86-4.76,19,19,0,0,0,4.06-6.37,18.79,18.79,0,0,0,1.33-6.72V468a28.3,28.3,0,0,1-7.35,3.15A89,89,0,0,1,136,473.3q-4.62.84-8.4,1.75a22.78,22.78,0,0,0-6.44,2.52,11.9,11.9,0,0,0-4.13,4.06,14.6,14.6,0,0,0-.21,12.32,10.28,10.28,0,0,0,3.36,3.71,12.72,12.72,0,0,0,4.83,1.89A30.9,30.9,0,0,0,130.58,500Z"/><path d="M220.46,510.26A28.71,28.71,0,0,1,206.74,507a24.48,24.48,0,0,1-9.8-9.59h-.42V508H183.64V403.86h13v26.6q0,4.34-.14,8.12c-.09,2.52-.19,4.57-.28,6.16h.42a29.63,29.63,0,0,1,9.8-9.87A26.61,26.61,0,0,1,220.88,431a30.54,30.54,0,0,1,13,2.73,29,29,0,0,1,10.15,7.84,36,36,0,0,1,6.58,12.46,55.24,55.24,0,0,1,2.31,16.59,56.42,56.42,0,0,1-2.24,16.45,35.78,35.78,0,0,1-6.44,12.46A28.79,28.79,0,0,1,234,507.46,31.77,31.77,0,0,1,220.46,510.26Zm-1.4-10.78a18.07,18.07,0,0,0,9-2.17,18.87,18.87,0,0,0,6.44-6,27.71,27.71,0,0,0,3.85-9.1,48.82,48.82,0,0,0,1.26-11.41,49.74,49.74,0,0,0-1.26-11.48,28.67,28.67,0,0,0-3.78-9.17,17.51,17.51,0,0,0-15.4-8.19,22.37,22.37,0,0,0-10.36,2.24,20.42,20.42,0,0,0-7.21,6.16,27.2,27.2,0,0,0-4.27,9.17,43.77,43.77,0,0,0-1.4,11.27,42.18,42.18,0,0,0,1.47,11.41,27.53,27.53,0,0,0,4.34,9.1,20,20,0,0,0,7.21,6A22.2,22.2,0,0,0,219.06,499.48Z"/><path d="M299.42,510.12A36.39,36.39,0,0,1,284.23,507a33.8,33.8,0,0,1-11.55-8.47,38.15,38.15,0,0,1-7.35-12.6,47.08,47.08,0,0,1,0-30.8,38.15,38.15,0,0,1,7.35-12.6,33.8,33.8,0,0,1,11.55-8.47A36.39,36.39,0,0,1,299.42,431q13.57,0,22.05,7.07t10.43,19.25h-13a19.54,19.54,0,0,0-6.3-11.62q-4.9-4.2-13.16-4.2a22.14,22.14,0,0,0-10.15,2.24,20.88,20.88,0,0,0-7.35,6.16,27.32,27.32,0,0,0-4.41,9.24,44.75,44.75,0,0,0,0,22.75,27.42,27.42,0,0,0,4.41,9.17,20.88,20.88,0,0,0,7.35,6.16,22.14,22.14,0,0,0,10.15,2.24q8.82,0,13.93-4.83t5.81-13.23H332q-1.26,13.57-9.73,21.14T299.42,510.12Z"/><path d="M374.32,510.26a32.7,32.7,0,0,1-13.72-2.8,29.7,29.7,0,0,1-10.5-7.91,35.28,35.28,0,0,1-6.65-12.46,54.72,54.72,0,0,1-2.31-16.45,51,51,0,0,1,2.52-16.59,37.41,37.41,0,0,1,6.93-12.46A29.92,29.92,0,0,1,361,433.75,31.13,31.13,0,0,1,374,431a26.86,26.86,0,0,1,14.07,3.64,28,28,0,0,1,9.73,9.66h.28q-.28-2.52-.35-6.3t-.07-7.56v-26.6h13V508H397.84V497.24h-.28a25.53,25.53,0,0,1-23.24,13Zm1-10.78a22.92,22.92,0,0,0,10.36-2.17,20.13,20.13,0,0,0,7.21-6,25.67,25.67,0,0,0,4.2-9.1,46.69,46.69,0,0,0,1.33-11.41,43.54,43.54,0,0,0-1.47-11.62,26.6,26.6,0,0,0-4.41-9.17,20,20,0,0,0-7.28-5.95,22.58,22.58,0,0,0-9.94-2.1,18,18,0,0,0-15.61,8.19,28.58,28.58,0,0,0-3.92,9.17,47.07,47.07,0,0,0-1.33,11.48,46.21,46.21,0,0,0,1.33,11.41,28.66,28.66,0,0,0,3.92,9.1,18,18,0,0,0,15.61,8.19Z"/><path d="M461.26,510.12A37.09,37.09,0,0,1,445.79,507a33.8,33.8,0,0,1-11.55-8.47A36.36,36.36,0,0,1,427,486a47.59,47.59,0,0,1-2.45-15.47,45,45,0,0,1,2.59-15.33,38.88,38.88,0,0,1,7.28-12.6,33.38,33.38,0,0,1,11.34-8.47A34.74,34.74,0,0,1,460.56,431a34.08,34.08,0,0,1,14.84,3.08,31.58,31.58,0,0,1,10.92,8.54,37.42,37.42,0,0,1,6.93,13.44,61.84,61.84,0,0,1,2.31,17.5H437.88A39.71,39.71,0,0,0,440,483.8a26.32,26.32,0,0,0,4.62,8.26,20.64,20.64,0,0,0,7.14,5.46,22.55,22.55,0,0,0,9.66,2q7.83,0,13-3.43a17,17,0,0,0,6.93-9.45H494a29.29,29.29,0,0,1-11.13,17Q474.28,510.12,461.26,510.12Zm-.7-69a21.71,21.71,0,0,0-9,1.75,19.93,19.93,0,0,0-6.72,4.83A23.79,23.79,0,0,0,440.4,455a35.14,35.14,0,0,0-2.24,9.24H481.7q-.57-10.92-5.95-17T460.56,441.1Z"/><path d="M503.4,432.84H515V422.48q0-10.37,5.32-15a16.17,16.17,0,0,1,6.93-3.36,42,42,0,0,1,9.59-1c1,0,2.1,0,3.22.07s2.28.12,3.5.21v10.78a60,60,0,0,0-7.63-.07,10.68,10.68,0,0,0-4.76,1.26,5.61,5.61,0,0,0-2.45,2.87A13.4,13.4,0,0,0,528,423v9.8h15.4v10.22H528v65H515v-65H503.4Z"/><path d="M586,534.34q-14.85,0-23-5.53a20.69,20.69,0,0,1-9.31-15.61h12.18a10.56,10.56,0,0,0,6.16,8.47q5.31,2.6,13.72,2.59,10.08,0,15.47-4.55t5.39-14.21v-2.1q0-3.22.07-6.09c0-1.91.11-3.48.21-4.69h-.28a31.16,31.16,0,0,1-9.17,8.82q-5.25,3.22-13.23,3.22A32.75,32.75,0,0,1,571,502a29.45,29.45,0,0,1-10.43-7.56,35.67,35.67,0,0,1-6.79-11.62,43.31,43.31,0,0,1-2.45-15,44.83,44.83,0,0,1,2.52-15.54,33.51,33.51,0,0,1,6.93-11.55A30.4,30.4,0,0,1,571,433.54,31.29,31.29,0,0,1,583.48,431a28.23,28.23,0,0,1,13.65,3,25,25,0,0,1,9.17,8.75h.28v-9.94h12.88v72.1A33.08,33.08,0,0,1,617.08,518a24.35,24.35,0,0,1-6.72,9.17,29.46,29.46,0,0,1-10.64,5.39A50,50,0,0,1,586,534.34ZM585.44,494a23.77,23.77,0,0,0,10.36-2,17.77,17.77,0,0,0,6.79-5.6,23.09,23.09,0,0,0,3.71-8.47,48.12,48.12,0,0,0,1.12-10.64q0-11.89-5.39-18.69T585.3,441.8q-10.37,0-15.54,7.14t-5.18,19q0,12,5.32,19T585.44,494Z"/><path d="M650.4,437.46q-.15,3.5-.28,6.3h.42a31.26,31.26,0,0,1,10-9.38A27.65,27.65,0,0,1,674.62,431q11.89,0,18.62,6.3t6.72,18.2V508H687.08v-51q0-7.28-4.41-11.2t-12.11-3.92a21.62,21.62,0,0,0-8,1.47,18.5,18.5,0,0,0-6.37,4.13A18.29,18.29,0,0,0,652,454a22.59,22.59,0,0,0-1.47,8.26V508h-13V403.86h13v27.3Q650.54,434,650.4,437.46Z"/><path d="M717.18,403.86h13.58V419H717.18Zm.28,29h13V508h-13Z"/><path d="M743.63,531.82a34.37,34.37,0,0,1-3.92-.21c-1.21-.14-2.33-.3-3.36-.49V520.76h.42a20.74,20.74,0,0,0,4.06.42,9.08,9.08,0,0,0,5.67-1.75q1.89-1.6,1.89-5.67V432.84h13v81.62a23.68,23.68,0,0,1-1.34,8.75,12.93,12.93,0,0,1-3.7,5.25,14.12,14.12,0,0,1-5.75,2.66A32.69,32.69,0,0,1,743.63,531.82Zm4.49-128H761.7V419H748.12Z"/><path d="M803.13,468.4l-10.64,10.08V508h-13V403.86h13v49.42c0,1.31,0,3.1-.14,5.39s-.23,4.36-.42,6.23l32.62-32.06h16.24l-28.7,27L844.15,508H828.89Z"/><path d="M855.77,403.86h13V508h-13Z"/><path d="M887.13,432.84H900V444h.42a25.66,25.66,0,0,1,9.24-9.59,24.87,24.87,0,0,1,13-3.43,20.7,20.7,0,0,1,12,3.5,20,20,0,0,1,7.49,10.5h.28a26.93,26.93,0,0,1,10.22-10.57,26.35,26.35,0,0,1,13-3.43q10.37,0,16.8,6.3t6.44,18.2V508h-13V456.64q0-7-3.92-10.85a13.23,13.23,0,0,0-9.66-3.85,16.32,16.32,0,0,0-6.86,1.47,16.85,16.85,0,0,0-5.6,4.13,21.44,21.44,0,0,0-3.85,6.23,20.6,20.6,0,0,0-1.47,7.91V508H931.65V456.64q0-7-3.5-10.85a12,12,0,0,0-9.38-3.85,16.65,16.65,0,0,0-6.72,1.47,18.78,18.78,0,0,0-5.95,4.13,22.58,22.58,0,0,0-4.27,6.23,18.36,18.36,0,0,0-1.68,7.91V508h-13Z"/><path d="M1019.29,443.48h.42a31.29,31.29,0,0,1,9.8-9.1,27.25,27.25,0,0,1,14-3.36q11.9,0,18.62,6.3t6.72,18.2V508H1056v-51q0-7.28-4.41-11.2t-12.11-3.92a21.62,21.62,0,0,0-8,1.47,18.5,18.5,0,0,0-6.37,4.13,18.29,18.29,0,0,0-4.13,6.44,22.59,22.59,0,0,0-1.47,8.26V508h-13V432.84h12.88Z"/><path d="M1119.11,510.12a36.72,36.72,0,0,1-15.33-3.08,33.8,33.8,0,0,1-11.55-8.47,38.15,38.15,0,0,1-7.35-12.6,47.08,47.08,0,0,1,0-30.8,38.15,38.15,0,0,1,7.35-12.6,33.8,33.8,0,0,1,11.55-8.47,36.72,36.72,0,0,1,15.33-3.08,36.29,36.29,0,0,1,15.26,3.08,34.11,34.11,0,0,1,11.48,8.47,37.49,37.49,0,0,1,7.28,12.6,48.31,48.31,0,0,1,0,30.8,37.49,37.49,0,0,1-7.28,12.6,34.11,34.11,0,0,1-11.48,8.47A36.29,36.29,0,0,1,1119.11,510.12Zm-.14-10.64a22.17,22.17,0,0,0,10.15-2.24,20.88,20.88,0,0,0,7.35-6.16,27.42,27.42,0,0,0,4.41-9.17,44.75,44.75,0,0,0,0-22.75,28.14,28.14,0,0,0-4.41-9.31,20.56,20.56,0,0,0-7.35-6.23,24.12,24.12,0,0,0-20.3,0,20.56,20.56,0,0,0-7.35,6.23,28.14,28.14,0,0,0-4.41,9.31,44.75,44.75,0,0,0,0,22.75,27.42,27.42,0,0,0,4.41,9.17,20.88,20.88,0,0,0,7.35,6.16A22.14,22.14,0,0,0,1119,499.48Z"/><path d="M1169.51,432.84h12.88V444.6h.42a32,32,0,0,1,10-10,26.07,26.07,0,0,1,13.93-3.57,31,31,0,0,1,13.09,2.73,28.91,28.91,0,0,1,10.22,7.84,37.14,37.14,0,0,1,6.65,12.46,53.94,53.94,0,0,1,2.38,16.59,55.69,55.69,0,0,1-2.24,16.38,36.19,36.19,0,0,1-6.51,12.46,29,29,0,0,1-10.36,8,32.25,32.25,0,0,1-13.65,2.8,29.71,29.71,0,0,1-13.72-3.08,25.69,25.69,0,0,1-9.94-9.1h-.42c.09,1.31.16,3,.21,5.11s.07,4.6.07,7.49V533.5h-13Zm35.42,66.64a18.47,18.47,0,0,0,9.1-2.17,19,19,0,0,0,6.51-5.95,28.21,28.21,0,0,0,3.92-9,46.69,46.69,0,0,0,1.33-11.41,49.74,49.74,0,0,0-1.26-11.48,27.86,27.86,0,0,0-3.85-9.17,18.72,18.72,0,0,0-6.51-6,18.47,18.47,0,0,0-9.1-2.17,22.34,22.34,0,0,0-10.36,2.24,20.34,20.34,0,0,0-7.21,6.16,27,27,0,0,0-4.27,9.17,43.33,43.33,0,0,0-1.4,11.27,47.56,47.56,0,0,0,1.26,11.13,25.3,25.3,0,0,0,4.06,9.1,19.89,19.89,0,0,0,7.14,6.09A23,23,0,0,0,1204.93,499.48Z"/><path d="M1305.45,510.68c0-.28,0-.89.07-1.82s.09-2,.14-3.22.09-2.5.14-3.85.07-2.59.07-3.71h-.42a30.82,30.82,0,0,1-9.87,9.1,27.45,27.45,0,0,1-13.51,3.08,32.25,32.25,0,0,1-13.65-2.8,28.93,28.93,0,0,1-10.36-8,35.85,35.85,0,0,1-6.51-12.46,55.36,55.36,0,0,1-2.24-16.38,52.13,52.13,0,0,1,2.45-16.59,37.79,37.79,0,0,1,6.72-12.46,28.74,28.74,0,0,1,10.22-7.84,30.65,30.65,0,0,1,13-2.73,27.28,27.28,0,0,1,14,3.43,26.45,26.45,0,0,1,9.52,9.59h.42v-11.2h12.74V533.5h-12.88Zm-22.26-11.2a23.7,23.7,0,0,0,10.57-2.17,19,19,0,0,0,7.14-5.95,25.34,25.34,0,0,0,4-9,48.82,48.82,0,0,0,1.26-11.41,45.75,45.75,0,0,0-1.4-11.62,27.44,27.44,0,0,0-4.2-9.17,18.69,18.69,0,0,0-7.21-5.95,23.69,23.69,0,0,0-10.29-2.1,18,18,0,0,0-9,2.17,18.78,18.78,0,0,0-6.44,6,27.65,27.65,0,0,0-3.85,9.17,49.74,49.74,0,0,0-1.26,11.48,48.82,48.82,0,0,0,1.26,11.41,26.88,26.88,0,0,0,3.85,9,19.06,19.06,0,0,0,6.44,5.95A18.32,18.32,0,0,0,1283.19,499.48Z"/><path d="M1349.27,446.42h.42a29.91,29.91,0,0,1,9.1-10.57,22.08,22.08,0,0,1,13.16-4,13.53,13.53,0,0,1,2.59.21,14.13,14.13,0,0,1,2.17.63V445h-.42a15.59,15.59,0,0,0-2.52-.56,24,24,0,0,0-2.8-.14,21.56,21.56,0,0,0-8.26,1.61,20.62,20.62,0,0,0-6.86,4.55,21.73,21.73,0,0,0-4.69,7.14,24.48,24.48,0,0,0-1.75,9.52V508h-13V432.84h12.88Z"/><path d="M1418.29,510.26q-15.69,0-24.22-6.79t-9.38-18.27h13.16a16.45,16.45,0,0,0,2.38,6.86,14.3,14.3,0,0,0,4.55,4.48A19.83,19.83,0,0,0,1411,499a35.33,35.33,0,0,0,7.56.77q9,0,13-3.43a10.74,10.74,0,0,0,4-8.47q0-6.17-4.83-8.61t-14.77-4.41q-5.46-1.12-10.58-2.52a33.78,33.78,0,0,1-8.95-3.78,18.24,18.24,0,0,1-6.17-6.3,19.74,19.74,0,0,1-2.3-10.08q0-9.66,7.21-15.33t20.37-5.67q14.13,0,21.42,6a23.68,23.68,0,0,1,8.54,15.82h-13a12.91,12.91,0,0,0-5-9q-4.14-3.07-12.25-3.08-7.71,0-11.13,3.08a9.62,9.62,0,0,0-3.43,7.42,8.18,8.18,0,0,0,1.33,4.83,9.93,9.93,0,0,0,3.92,3.15,29,29,0,0,0,6.3,2.1q3.71.84,8.47,1.82,5.6,1.13,10.64,2.52a31.47,31.47,0,0,1,8.89,3.92,18.3,18.3,0,0,1,6.09,6.65,22.41,22.41,0,0,1,2.24,10.71,21.7,21.7,0,0,1-2.24,10.08,20.31,20.31,0,0,1-6.23,7.21,28.82,28.82,0,0,1-9.6,4.34A47.81,47.81,0,0,1,1418.29,510.26Z"/><path d="M1456.5,432.84h11.76V409.18h12.88v23.66h15.54v10.08h-15.54v47.46q0,4.06,2,5.53a9.55,9.55,0,0,0,5.67,1.47,19.94,19.94,0,0,0,3.57-.35c1.26-.23,2.27-.44,3-.63h.42v10.92a45.36,45.36,0,0,1-10.5,1.26q-7.56-.13-12.32-3.57t-4.76-11.69v-50.4H1456.5Z"/><path d="M1558.28,508v-10.5H1558a33.44,33.44,0,0,1-9.31,8.89q-5.25,3.29-13.37,3.29-11.76,0-18.62-6.58t-6.86-18.48v-51.8h13v51.1q0,7.14,4.27,11.13t12.11,4a19.18,19.18,0,0,0,7.84-1.54,17.13,17.13,0,0,0,6-4.27,18.91,18.91,0,0,0,3.78-6.51,24.22,24.22,0,0,0,1.33-8.12V432.84h13V508Z"/><path d="M1581,432.84h13.86l13.16,40.6q1.13,3.78,2.38,8t2.24,7.84q1.13,4.2,2.24,8.12h.28q.84-3.92,2-8.12,1-3.64,2.17-7.84t2.45-8l13.44-40.6h13.44l-27,75.18h-14.42Z"/><path d="M1652.78,432.84h13.86l11.76,41.72q.84,3.22,1.75,7c.61,2.52,1.14,4.9,1.61,7.14.56,2.61,1.07,5.23,1.54,7.84h.28q.7-3.65,1.54-7.42c.47-2.15,1-4.48,1.61-7s1.24-4.95,1.89-7.28l11.34-42h12.32l11.2,42c.47,2.05,1,4.32,1.61,6.79s1.14,4.83,1.61,7.07q.84,3.92,1.54,8h.28c.47-2.52.93-5,1.4-7.56q.7-3.22,1.54-7.14c.56-2.61,1.21-5.09,2-7.42l12.46-41.72h13.44L1734.82,508h-13l-11.06-41.44q-.71-2.81-1.54-6.37t-1.54-6.79q-.84-3.78-1.68-7.84h-.28q-.84,4.07-1.68,7.84c-.47,2.15-1,4.43-1.47,6.86s-1,4.53-1.47,6.3L1689.74,508h-13.16Z"/><path d="M127.08,618.68,102,582.84h15.12l11.2,17.22c.56,1,1.19,2.12,1.89,3.29s1.38,2.26,2,3.29q1.13,1.82,2.1,3.78h.28c.75-1.31,1.49-2.57,2.24-3.78.65-1,1.31-2.15,2-3.36a32.49,32.49,0,0,1,2-3.22l11.62-17.22h14.14l-24.5,34.58L171,658H155.92L141.5,636.74c-.75-1-1.49-2.17-2.24-3.43s-1.49-2.5-2.24-3.71q-1.26-2.1-2.38-4.2h-.28q-1.12,2.1-2.38,4.2c-.75,1.21-1.49,2.45-2.24,3.71s-1.45,2.4-2.1,3.43L113.36,658H98.8Z"/><path d="M192,684.2a48.11,48.11,0,0,1-6.37-.42,17.54,17.54,0,0,1-4.69-1.12v-11.2h.56a8.94,8.94,0,0,0,3.29,1,29,29,0,0,0,4.55.35A11.07,11.07,0,0,0,196,671q2.65-1.89,4.62-7.21a13.05,13.05,0,0,1,.42-1.47c.28-.89.61-1.89,1-3s.7-2.19,1-3.22a4.19,4.19,0,0,0,.28-1.82l-28.7-71.4h14.14l15.54,41.72c.75,2.15,1.49,4.39,2.24,6.72s1.45,4.53,2.1,6.58c.65,2.43,1.31,4.76,2,7h.28q1-3.36,2.1-7c.65-2.05,1.35-4.25,2.1-6.58s1.49-4.57,2.24-6.72l15-41.72H245.8l-31.92,82a67.42,67.42,0,0,1-4.69,9.66,24,24,0,0,1-4.9,6,14,14,0,0,1-5.6,2.94A27,27,0,0,1,192,684.2Z"/><path d="M251.26,647.94l33.6-43.82c.75-1,1.63-2.12,2.66-3.29s2-2.26,2.94-3.29c1-1.21,2.15-2.43,3.36-3.64v-.42l-5.18.28c-1.49.09-3,.14-4.62.14H253.78V582.84H310.2V591L276,635.62q-1.26,1.54-2.87,3.43T270,642.62c-1.12,1.31-2.29,2.61-3.5,3.92V647c1.87,0,3.69-.05,5.46-.14,1.59-.09,3.22-.16,4.9-.21s3.22-.07,4.62-.07h30.38V658H251.26Z"/><path d="M125.12,736.2H102v-9a48.83,48.83,0,0,0,9.17-1.12,24.15,24.15,0,0,0,8-3.29,19.87,19.87,0,0,0,6-6,21.94,21.94,0,0,0,3.08-9.17h10.5V808H125.12Z"/><path d="M159.91,792.34a45.59,45.59,0,0,1,7.35-11.76,63.88,63.88,0,0,1,13-10.92q7.28-4.62,14.42-9,4.62-2.66,8.33-5.11a35.55,35.55,0,0,0,6.23-5.11,19.11,19.11,0,0,0,3.85-5.88,19.68,19.68,0,0,0,1.33-7.56q0-8.82-5.53-14.28t-15.19-5.46q-9.79,0-15.26,6.16a18.39,18.39,0,0,0-4.27,7.35,35.91,35.91,0,0,0-1.33,10.57H159a40.28,40.28,0,0,1,2.38-14.56A31.71,31.71,0,0,1,168.24,716a29.44,29.44,0,0,1,11.48-7.42,43.53,43.53,0,0,1,15.12-2.52,39.27,39.27,0,0,1,13.86,2.31,31.39,31.39,0,0,1,10.57,6.44,28.45,28.45,0,0,1,6.79,9.73,30.73,30.73,0,0,1,2.38,12.18,28.74,28.74,0,0,1-2.17,11.83,30.1,30.1,0,0,1-5.81,8.61,42.54,42.54,0,0,1-8.61,6.79q-5,3-10.57,6.23l-8.19,5a89.57,89.57,0,0,0-8.19,5.6,54.67,54.67,0,0,0-7,6.37,21.42,21.42,0,0,0-4.48,7.28l-.28,1.12h53.48V808h-70A44.3,44.3,0,0,1,159.91,792.34Z"/><path d="M278.42,810.26A52.49,52.49,0,0,1,262.81,808a35.49,35.49,0,0,1-12.53-6.72,31.71,31.71,0,0,1-8.54-10.85,34.93,34.93,0,0,1-3.22-14.77h13.16q.28,11.05,7.21,17.29T278,799.2q9.94,0,16.31-5t6.37-15.26q0-9.24-6.51-13.93t-18.69-4.69h-6.3V749.92h6.16q11.21,0,16.87-4.41t5.67-12.25a15.06,15.06,0,0,0-6.09-12.39,20.59,20.59,0,0,0-6.65-3.29,28.36,28.36,0,0,0-8.12-1.12,25.39,25.39,0,0,0-9.38,1.61,20.12,20.12,0,0,0-6.93,4.48,19.56,19.56,0,0,0-4.41,6.86,23.64,23.64,0,0,0-1.54,8.61h-13a33.21,33.21,0,0,1,2.45-12.88A28.65,28.65,0,0,1,251.26,715a32.58,32.58,0,0,1,11.2-6.65,43.81,43.81,0,0,1,15-2.38,44.64,44.64,0,0,1,13.16,1.89,33.49,33.49,0,0,1,10.71,5.39A24.63,24.63,0,0,1,311,733.4q0,8.4-4.55,13.44a26.71,26.71,0,0,1-12,7.42v.42q10.5,2.8,15.26,9.24t4.76,16.1a28.84,28.84,0,0,1-2.8,13,27.75,27.75,0,0,1-7.63,9.52,33.32,33.32,0,0,1-11.48,5.81A49.9,49.9,0,0,1,278.42,810.26Z"/><path d="M374.46,783.8h-48.3v-12l50.4-64.54h11.06V773.3h16.24v10.5H387.62V808H374.46Zm-37.38-9.94,5.32-.28c1.49-.09,3.08-.16,4.76-.21s3.27-.07,4.76-.07h22.54V739.42c0-1.31,0-2.8.07-4.48s.12-3.31.21-4.9.23-3.45.42-5.32h-.28q-1.26,2.24-2.8,4.62-1.26,2-2.8,4.2c-1,1.49-2,2.89-3.08,4.2l-18.48,23.52q-1.55,2-3.43,4t-3.43,4q-2,2.24-3.78,4.34Z"/><path d="M448.1,810.12a43.94,43.94,0,0,1-14.35-2.24,35.07,35.07,0,0,1-11.2-6.16,30.65,30.65,0,0,1-7.49-9.17,27.75,27.75,0,0,1-3.22-11.27h13.3a21.9,21.9,0,0,0,7,12.39q5.46,4.83,15.68,4.83,10.5,0,16.59-6.37t6.09-17a26.43,26.43,0,0,0-1.68-9.73,20.79,20.79,0,0,0-4.62-7.21,19.94,19.94,0,0,0-6.86-4.48,22.67,22.67,0,0,0-8.4-1.54q-8.4,0-13.72,2.8a24.31,24.31,0,0,0-8.12,6.44H414.22L425,708.34h53.2V720.1H434.52l-6.44,29.68h.28a28.83,28.83,0,0,1,9.8-6.65,34.77,34.77,0,0,1,13.3-2.31,33,33,0,0,1,12.18,2.31,31.7,31.7,0,0,1,17.85,17.57,37.34,37.34,0,0,1,2.73,14.7,36.59,36.59,0,0,1-2.73,14.42,32.1,32.1,0,0,1-7.56,11,32.6,32.6,0,0,1-11.48,6.93A42.2,42.2,0,0,1,448.1,810.12Z"/><path d="M536.58,810.26a39.42,39.42,0,0,1-14.7-2.52,31.65,31.65,0,0,1-10.78-7,37.26,37.26,0,0,1-10.85-17.57q-3-10.42-3-25.55a83.21,83.21,0,0,1,2.52-21.28A49.71,49.71,0,0,1,507.18,720a33.45,33.45,0,0,1,12.18-10.36A37.36,37.36,0,0,1,536.3,706a35.37,35.37,0,0,1,13.16,2.24,29.73,29.73,0,0,1,9.52,5.95,28.94,28.94,0,0,1,6.16,8.26,31.5,31.5,0,0,1,2.94,9.17h-13.3a18.76,18.76,0,0,0-1.68-5.11,15.44,15.44,0,0,0-3.57-4.69,18.82,18.82,0,0,0-5.53-3.43,19.26,19.26,0,0,0-7.42-1.33,24,24,0,0,0-12,2.8,22.06,22.06,0,0,0-8.12,8,40.56,40.56,0,0,0-4.69,12.88A103,103,0,0,0,510,758h.28q4.9-8.26,11.62-12a32.25,32.25,0,0,1,15.82-3.71A31.56,31.56,0,0,1,550.58,745a33.76,33.76,0,0,1,10.5,7.21,34.78,34.78,0,0,1,7.14,10.64A32.39,32.39,0,0,1,570.88,776a33.73,33.73,0,0,1-2.66,13.37,34.11,34.11,0,0,1-7.28,10.85A34.88,34.88,0,0,1,550,807.53,33.44,33.44,0,0,1,536.58,810.26Zm-.28-10.78a22.34,22.34,0,0,0,8.75-1.68,20.88,20.88,0,0,0,6.93-4.69,21.58,21.58,0,0,0,4.62-7.28,25.63,25.63,0,0,0,1.68-9.45A25.07,25.07,0,0,0,556.6,767a21.87,21.87,0,0,0-4.69-7.28,21,21,0,0,0-7.14-4.76,23.37,23.37,0,0,0-8.89-1.68q-10.5,0-16.94,6.23t-6.44,16.73a23.94,23.94,0,0,0,1.82,9.45,21.79,21.79,0,0,0,5,7.35,22.74,22.74,0,0,0,7.56,4.76A25.75,25.75,0,0,0,536.3,799.48Z"/><path d="M598.32,782.05a141.51,141.51,0,0,1,9.38-24.36,126.45,126.45,0,0,1,13.23-21.21A101.12,101.12,0,0,1,636.82,720v-.28c-1.59.09-3.31.19-5.18.28-1.59.09-3.52.16-5.81.21s-4.74.07-7.35.07H579.7v-11.9h70.14v10.78a120.41,120.41,0,0,0-14.77,16,125.37,125.37,0,0,0-13,20.58,139.05,139.05,0,0,0-9.52,24.5A121.7,121.7,0,0,0,608.12,808H593.84A123.37,123.37,0,0,1,598.32,782.05Z"/><path d="M695.76,810.26a59.51,59.51,0,0,1-14.07-1.68,37.65,37.65,0,0,1-12.39-5.39,28.5,28.5,0,0,1-8.82-9.59,28,28,0,0,1-3.36-14.14,26.5,26.5,0,0,1,1.61-9.52,23.19,23.19,0,0,1,4.55-7.42,27.44,27.44,0,0,1,6.93-5.46,37.47,37.47,0,0,1,8.75-3.5v-.42q-8.12-2.39-12.46-7.84a20.52,20.52,0,0,1-4.34-13.16,23.11,23.11,0,0,1,2.52-10.85,24.71,24.71,0,0,1,7-8.26,33.54,33.54,0,0,1,10.57-5.32,43.93,43.93,0,0,1,13.09-1.89,46.14,46.14,0,0,1,13.23,1.82,32.41,32.41,0,0,1,10.57,5.25,24.71,24.71,0,0,1,7,8.26A23.11,23.11,0,0,1,728.66,732a20.52,20.52,0,0,1-4.34,13.16,24.71,24.71,0,0,1-12.32,8v.42a29.38,29.38,0,0,1,15.54,9.1q5.88,6.72,5.88,16.8a28.9,28.9,0,0,1-3.22,14.21,28.27,28.27,0,0,1-8.47,9.52,35.38,35.38,0,0,1-12,5.39A57.8,57.8,0,0,1,695.76,810.26Zm0-11.06q11.34,0,17.78-5.25T720,779.32q0-9.52-6.51-15.05t-18.13-5.53q-11.48,0-17.92,5.53T671,779.32q0,9.52,6.51,14.7T695.76,799.2Zm-.42-50.68q9.38,0,14.77-4.2t5.39-11.76q0-7.56-5.39-11.69t-14.77-4.13q-9.37,0-14.77,4.13t-5.39,11.69q0,7.56,5.39,11.76T695.34,748.52Z"/><path d="M780.46,810.26a41.87,41.87,0,0,1-13.58-2.1,33.44,33.44,0,0,1-10.64-5.81,30.06,30.06,0,0,1-7.21-8.61,25,25,0,0,1-3.15-10.36h13.58a17.44,17.44,0,0,0,2,6,17.14,17.14,0,0,0,4.13,5,20.61,20.61,0,0,0,6.23,3.5,24.36,24.36,0,0,0,8.4,1.33q10.79,0,16.66-6.72a29.23,29.23,0,0,0,6.37-12.74,96.27,96.27,0,0,0,2.45-19.88h-.28a35.24,35.24,0,0,1-11.76,10.43A32.46,32.46,0,0,1,777.94,774a31.88,31.88,0,0,1-13-2.66,33.89,33.89,0,0,1-10.57-7.28,34.91,34.91,0,0,1-7.21-10.78,32.89,32.89,0,0,1-2.66-13.16,33.73,33.73,0,0,1,10-24.22,34.16,34.16,0,0,1,11.2-7.28,40.48,40.48,0,0,1,27.51-.49,41.3,41.3,0,0,1,10.22,5.53,33.42,33.42,0,0,1,11.76,17.43q3.23,10.85,3.22,27.37,0,15-3.22,25.83a37.19,37.19,0,0,1-10.5,17.43Q795.44,810.25,780.46,810.26Zm-.7-47.18a27.54,27.54,0,0,0,9.87-1.68,21,21,0,0,0,7.49-4.76,21.25,21.25,0,0,0,4.76-7.35,25.63,25.63,0,0,0,1.68-9.45,23.42,23.42,0,0,0-1.82-9.38,22,22,0,0,0-5-7.28,22.74,22.74,0,0,0-7.56-4.76,25.34,25.34,0,0,0-9.24-1.68,24.66,24.66,0,0,0-9.24,1.68,20.76,20.76,0,0,0-7.21,4.76,21.87,21.87,0,0,0-4.69,7.28,25.07,25.07,0,0,0-1.68,9.38,24.27,24.27,0,0,0,1.75,9.31,22.16,22.16,0,0,0,4.83,7.35,22.55,22.55,0,0,0,16.1,6.58Z"/><path d="M871.88,810.26a35.9,35.9,0,0,1-16.52-3.71A34.94,34.94,0,0,1,843,796.05a49.21,49.21,0,0,1-7.7-16.45A81.33,81.33,0,0,1,832.68,758a77.76,77.76,0,0,1,2.8-21.7A49.58,49.58,0,0,1,843.39,720a35.29,35.29,0,0,1,12.39-10.36A35.76,35.76,0,0,1,872,706a36.39,36.39,0,0,1,16.24,3.57,34.57,34.57,0,0,1,12.39,10.29,48.54,48.54,0,0,1,7.84,16.38A80.35,80.35,0,0,1,911.22,758a83.13,83.13,0,0,1-2.59,21.56A48.36,48.36,0,0,1,901,796.05a34.73,34.73,0,0,1-12.39,10.5A36.67,36.67,0,0,1,871.88,810.26Zm.14-11.48q13,0,19.11-10.92T897.22,758a84.15,84.15,0,0,0-1.54-16.8A41.49,41.49,0,0,0,891,728.36a23,23,0,0,0-7.91-8.19A21,21,0,0,0,872,717.3a21.3,21.3,0,0,0-11.2,2.87,23.17,23.17,0,0,0-7.91,8.12,41.58,41.58,0,0,0-4.76,12.81,89.19,89.19,0,0,0,0,33.74,42.53,42.53,0,0,0,4.76,12.88,23,23,0,0,0,7.91,8.19A21.3,21.3,0,0,0,872,798.78Z"/><path d="M106.92,942.62h15.26V958H106.92Zm.42-56.14V853.86h14.14v32.62l-3.36,41.3H111Z"/><path d="M193,944.72a23.92,23.92,0,0,1-9.66-1.89,21.19,21.19,0,0,1-7.42-5.32,23.16,23.16,0,0,1-4.69-8.26,33.33,33.33,0,0,1-1.61-10.57,43.14,43.14,0,0,1,2.17-14.14,33.47,33.47,0,0,1,5.95-10.78,26.45,26.45,0,0,1,8.89-6.93,25.15,25.15,0,0,1,11-2.45,18.53,18.53,0,0,1,10.43,2.73A17.75,17.75,0,0,1,214.3,894h.28l1-8.4h12.32l-4.62,37.94c-.47,3.55-.09,6.28,1.12,8.19s3.17,2.87,5.88,2.87a14.91,14.91,0,0,0,6.09-1.33,14.08,14.08,0,0,0,5.39-4.41,25.39,25.39,0,0,0,3.92-8,42.33,42.33,0,0,0,1.54-12.39,50.2,50.2,0,0,0-3.57-19.74,38,38,0,0,0-9.87-13.93,41.2,41.2,0,0,0-14.84-8.26,59.9,59.9,0,0,0-18.34-2.73,53.54,53.54,0,0,0-19.46,3.57,47.81,47.81,0,0,0-16.24,10.36,49.41,49.41,0,0,0-11.13,16.66,57.42,57.42,0,0,0-4.13,22.33,56.25,56.25,0,0,0,3.08,18.9,42.13,42.13,0,0,0,9.1,15,41.46,41.46,0,0,0,14.84,9.94,53.38,53.38,0,0,0,20.16,3.57A73.68,73.68,0,0,0,224.52,959l3.5,8.12A63.68,63.68,0,0,1,213,972a85.11,85.11,0,0,1-15.61,1.4,66.55,66.55,0,0,1-23.66-4.06,54.08,54.08,0,0,1-18.55-11.48,51.05,51.05,0,0,1-12-17.92,61.46,61.46,0,0,1-4.27-23.38q0-15,5.32-26.6a59.53,59.53,0,0,1,14-19.53,60.27,60.27,0,0,1,19.81-12,66.14,66.14,0,0,1,44-.7,53.83,53.83,0,0,1,18.13,10.22,50.94,50.94,0,0,1,12.74,16.87q4.83,10.08,4.83,23.38a51.63,51.63,0,0,1-2.1,15.4,33.4,33.4,0,0,1-5.81,11.27,24.69,24.69,0,0,1-8.89,6.93,26.76,26.76,0,0,1-11.34,2.38,19.13,19.13,0,0,1-10.85-2.94,14.4,14.4,0,0,1-6-8.12h-.14a24.18,24.18,0,0,1-8.26,8.54A21.34,21.34,0,0,1,193,944.72Zm1.82-9.52a15,15,0,0,0,7.63-1.89,16.47,16.47,0,0,0,5.53-5.25,25,25,0,0,0,3.36-7.91,41,41,0,0,0,1.12-9.87q0-7.56-3.5-12t-10.22-4.41a13.63,13.63,0,0,0-7.28,1.89,15.54,15.54,0,0,0-5.11,5.18,24.71,24.71,0,0,0-3,7.77,45.43,45.43,0,0,0-1,9.66q0,7.27,2.94,12T194.84,935.2Z"/><path d="M275.76,885.36h14.42l3.92-27.16h10.36l-3.92,27.16h19.32l3.92-27.16h10.5l-3.92,27.16h14.7l-1.82,11.2H328.82l-3.08,21.7h14.42l-1.82,11.34H324.2L320.14,958h-10.5l4.06-28.42H294.38L290.46,958H280L284,929.6H269.18L271,918.26h14.56l3.08-21.7H274.08Zm20.3,32.9h19.18l3.08-21.7H299Z"/><path d="M391.54,958.72a47.07,47.07,0,0,1-16.1-3.5,34.91,34.91,0,0,1-11.06-7.35,30.25,30.25,0,0,1-6.58-9.94,34.75,34.75,0,0,1-2.52-11.41h13.44q1,9.11,6.3,14.77t16.52,6.79v-36.4q-6.85-1.54-12.67-3.43a37.52,37.52,0,0,1-10.08-4.9,20.79,20.79,0,0,1-6.65-7.7A25.64,25.64,0,0,1,359.76,884a26.07,26.07,0,0,1,2.31-11.13,23.53,23.53,0,0,1,6.51-8.4,32.62,32.62,0,0,1,10-5.46,44.61,44.61,0,0,1,13-2.31V846.44h8.26v10.22q14.7,1.13,22.4,8t9.24,18.2H418.28a16.1,16.1,0,0,0-5.53-10.71q-4.69-4-12.95-5V900.9q7.14,1.54,13.37,3.43a38.38,38.38,0,0,1,10.78,5,22.6,22.6,0,0,1,7.14,8q2.6,4.83,2.59,12.25a26.33,26.33,0,0,1-2.59,11.83,26.69,26.69,0,0,1-7.14,9,35.34,35.34,0,0,1-10.78,5.88,49.1,49.1,0,0,1-13.37,2.59v14.56h-8.26Zm-19-75.46q0,6.72,4.62,10.22t14.42,5.74V867q-8.54.71-13.79,4.83A13.71,13.71,0,0,0,372.5,883.26Zm47.88,46.9a14.22,14.22,0,0,0-1.33-6.44,11.84,11.84,0,0,0-4-4.48,25.89,25.89,0,0,0-6.44-3.08q-3.78-1.26-8.82-2.52v34.44a32.92,32.92,0,0,0,7.91-1.75,22.59,22.59,0,0,0,6.58-3.64,16.74,16.74,0,0,0,4.48-5.46A15.36,15.36,0,0,0,420.38,930.16Z"/><path d="M469,913.78a22.55,22.55,0,0,1-9.66-2,21.53,21.53,0,0,1-7.49-5.81,27.42,27.42,0,0,1-4.9-9.17,38.49,38.49,0,0,1-1.75-12A36.7,36.7,0,0,1,447,872.9a27.52,27.52,0,0,1,5-9.1,22.24,22.24,0,0,1,7.56-5.81,21.9,21.9,0,0,1,9.38-2,22.81,22.81,0,0,1,9.52,2,20.87,20.87,0,0,1,7.49,5.74,28.32,28.32,0,0,1,5,9.1,37.19,37.19,0,0,1,1.82,12,38.49,38.49,0,0,1-1.75,12,27.42,27.42,0,0,1-4.9,9.17,21.53,21.53,0,0,1-7.49,5.81A22.55,22.55,0,0,1,469,913.78Zm0-9.24a9.91,9.91,0,0,0,9.31-5.53q3-5.53,3-14.21a33.9,33.9,0,0,0-.84-7.77,22.65,22.65,0,0,0-2.38-6.23,12.51,12.51,0,0,0-3.85-4.2,9.22,9.22,0,0,0-5.25-1.54q-5.88,0-9,5.6t-3.08,14.14q0,8.4,3.08,14.07T469,904.54Zm57.12-46.2H536.3L479.46,958H469.1Zm10.36,101.78a22.55,22.55,0,0,1-9.66-2,21.53,21.53,0,0,1-7.49-5.81,27.45,27.45,0,0,1-4.9-9.1,37.86,37.86,0,0,1-1.75-11.9,37.19,37.19,0,0,1,1.82-12,26.68,26.68,0,0,1,5-9,22.67,22.67,0,0,1,7.56-5.74,21.9,21.9,0,0,1,9.38-2,22.81,22.81,0,0,1,9.52,2,21.25,21.25,0,0,1,7.49,5.67,27.4,27.4,0,0,1,5,9.1,41.27,41.27,0,0,1,.07,24,27.45,27.45,0,0,1-4.9,9.1,21.53,21.53,0,0,1-7.49,5.81A22.55,22.55,0,0,1,536.44,960.12Zm0-9.24a9.79,9.79,0,0,0,9.24-5.46q2.94-5.46,2.94-14.14a29.07,29.07,0,0,0-3.15-14.14q-3.15-5.75-9-5.74t-9,5.6q-3.08,5.6-3.08,14.28,0,8.4,3.08,14T536.44,950.88Z"/><path d="M604.48,960.12a38.82,38.82,0,0,1-12.46-2,33.53,33.53,0,0,1-10.64-5.81,29,29,0,0,1-7.42-9.17,25.82,25.82,0,0,1-2.8-12.11A28,28,0,0,1,573,920.57a28.73,28.73,0,0,1,5-8.26,42.79,42.79,0,0,1,7.56-6.79q4.33-3.07,9.38-6l-1.54-2.1a50.09,50.09,0,0,1-7.35-11.9,30.19,30.19,0,0,1-2.31-11.62,20.55,20.55,0,0,1,1.82-8.61,21.1,21.1,0,0,1,5-6.93,23.72,23.72,0,0,1,7.63-4.62,26.73,26.73,0,0,1,9.59-1.68,29.09,29.09,0,0,1,9,1.4,21.15,21.15,0,0,1,13,11.41,22.81,22.81,0,0,1,2,9.87,22.56,22.56,0,0,1-1.61,8.75,24.62,24.62,0,0,1-4.34,6.93,37.71,37.71,0,0,1-6.37,5.67q-3.65,2.59-7.56,5c.93,1.12,2.29,2.8,4.06,5s3.71,4.67,5.81,7.28,4.2,5.2,6.3,7.77,3.85,4.74,5.25,6.51a50.74,50.74,0,0,0,2.8-9.66,68.2,68.2,0,0,0,1.12-11.06h11.34a77.89,77.89,0,0,1-1.89,16.1,56.37,56.37,0,0,1-5.39,14.42L657.82,958h-16L634,948.08l-.28-.28A38.52,38.52,0,0,1,621,956.9,40.38,40.38,0,0,1,604.48,960.12Zm.7-11.48a26.58,26.58,0,0,0,11.69-2.59,31.17,31.17,0,0,0,9.59-7.21l-25.2-31.5a80.64,80.64,0,0,0-6.65,4.83,34.28,34.28,0,0,0-5.25,5.25,22.88,22.88,0,0,0-3.5,6.09,20.39,20.39,0,0,0-1.26,7.35,16.1,16.1,0,0,0,1.61,7.28,17.23,17.23,0,0,0,4.48,5.6,20.5,20.5,0,0,0,6.58,3.64A24.42,24.42,0,0,0,605.18,948.64Zm-9-74.76a19.22,19.22,0,0,0,2,8.61,41.91,41.91,0,0,0,5.6,8.33l2,2.52a38.92,38.92,0,0,0,10-8.68A16.45,16.45,0,0,0,619,874.44,11.85,11.85,0,0,0,616,865.9a10.7,10.7,0,0,0-8.12-3.22,11.55,11.55,0,0,0-8.33,3.15A10.67,10.67,0,0,0,596.22,873.88Z"/><path d="M669.16,893.34l9.8-14.42-15.26-5.18,2.8-7.42,15.12,4.76V853.86h9v17.22l15-4.76,2.8,7.42-15.12,5.18,9.94,14.42L696.32,898,686.24,882.7,676,898Z"/><path d="M722.78,919.24v-13L782.14,881v11.62l-32.06,13c-1.87.75-3.9,1.49-6.09,2.24s-4.22,1.49-6.09,2.24q-3.36,1.26-6.58,2.38v.28c2.15.75,4.34,1.49,6.58,2.24,1.87.65,3.9,1.38,6.09,2.17s4.22,1.56,6.09,2.31l32.06,13v11.9Z"/><path d="M859.28,906.22v13l-59.36,25.2V932.68l32.2-12.88c1.77-.75,3.76-1.49,6-2.24s4.22-1.49,6.09-2.24q3.36-1.26,6.58-2.38v-.28c-2.15-.75-4.34-1.49-6.58-2.24-1.87-.65-3.9-1.38-6.09-2.17s-4.18-1.56-6-2.31l-32.2-13V881Z"/><path d="M897.64,927.78a44.84,44.84,0,0,1,.84-9.17,27.14,27.14,0,0,1,2.66-7.35,32.53,32.53,0,0,1,4.55-6.37,76.33,76.33,0,0,1,6.79-6.51q2.38-2.1,4.62-4.13a37.22,37.22,0,0,0,4-4.2,18.43,18.43,0,0,0,2.8-4.83,16.27,16.27,0,0,0,1.05-6,14.76,14.76,0,0,0-4.76-11.2q-4.75-4.49-13.58-4.48A25.31,25.31,0,0,0,897,865.2a18.5,18.5,0,0,0-6.86,4.69A21.08,21.08,0,0,0,886,877a28.13,28.13,0,0,0-1.61,8.82H871.18a39.11,39.11,0,0,1,2.31-12.39,31.11,31.11,0,0,1,17.43-18.48A39.1,39.1,0,0,1,906.6,852a40,40,0,0,1,13.37,2.1,30.93,30.93,0,0,1,10.08,5.67,24.45,24.45,0,0,1,6.37,8.54,25.48,25.48,0,0,1,2.24,10.57,24.91,24.91,0,0,1-1.12,7.77,27.9,27.9,0,0,1-7.14,11.48q-2.39,2.31-4.9,4.41-4.49,3.78-7.42,6.51a45.2,45.2,0,0,0-4.9,5.25,14.44,14.44,0,0,0-2.59,5.74,46,46,0,0,0-.77,7.7Zm-1.54,14.84h15.26V958H896.1Z"/></g></svg>