<?xml version="1.0" encoding="utf-8"?>
<!-- Generator: Adobe Illustrator 25.0.0, SVG Export Plug-In . SVG Version: 6.00 Build 0)  -->
<svg version="1.1" id="Layer_1" xmlns="http://www.w3.org/2000/svg" xmlns:xlink="http://www.w3.org/1999/xlink" x="0px" y="0px"
	 viewBox="0 0 1920 1080" style="enable-background:new 0 0 1920 1080;" xml:space="preserve">
<style type="text/css">
	.st0{fill:#B8B8B8;}
	.st1{fill:#FFFFFF;}
	.st2{fill:#7F7F7F;}
	.st3{enable-background:new    ;}
</style>
<g id="Layer_2_1_">
	<rect class="st0" width="1920" height="1080"/>
</g>
<g id="Layer_1_1_">
	<rect x="782.5" y="411.5" class="st1" width="33" height="156"/>
	<rect x="848.5" y="444.5" class="st1" width="33" height="123"/>
	<rect x="1046.5" y="444.5" class="st1" width="33" height="123"/>
	<rect x="980.5" y="444.5" class="st1" width="33" height="123"/>
	<rect x="848.5" y="534.5" class="st1" width="231" height="33"/>
	<rect x="1112.5" y="534.5" class="st1" width="156" height="33"/>
	<rect x="1174" y="401" transform="matrix(0.65 -0.76 0.76 0.65 44.684 1076.0291)" class="st1" width="33" height="177.1"/>
	<rect x="1112.5" y="411.5" class="st1" width="156" height="33"/>
	<rect x="1163.2" y="381.5" class="st1" width="105.2" height="15"/>
	<path class="st1" d="M809.5,645.5l-18.9,52h9.6l3.6-10h23.5l3.6,10h9.6l-18.9-52H809.5z M807,678.5l8.5-23.3l8.5,23.3H807z"/>
	<polygon class="st1" points="697.5,576.5 697.5,567.5 659.5,567.5 659.5,619.5 697.5,619.5 697.5,610.5 670.5,610.5 670.5,596.5 
		693.5,596.5 693.5,587.5 670.5,587.5 670.5,576.5 	"/>
	<path class="st1" d="M706.5,516.5l-28.4-5l-1.6,8.9l14.1,2.5c-1.8,6.2-6.5,10.7-14.1,10.7c-10,0-15-7-15-18s5-18,15-18
		c7.1,0,11.7,3.5,13.8,9.5l10-3.6c-3.9-9.5-12.8-14.9-23.8-14.9c-15,0-26,10-26,27c0,17,11,27,26,27c5.8,0,11.4-2.5,15.3-6.9
		l0.7,5.9h7v-17.1l5.4,1L706.5,516.5z"/>
	<path class="st1" d="M686.2,667.8l-8.9-1.6c-4.7-0.8-7.8-2.7-7.8-6.7s3.6-6,8.5-6c4.2,0,7.7,2.2,8.6,4.8l9.9-3.6
		c-2.5-5.8-9.2-10.1-18.5-10.1l0,0c-11.7,0-19.5,6-19.5,15s6.8,13.8,14.5,15.1l8.2,1.4c4.3,0.8,7.3,3.4,7.3,6.5c0,5-4.6,7-10.5,7
		c-5,0-9.2-2.9-10.4-5.6l-10.1,3.7c2.6,6.4,10.3,10.9,20.5,10.9c12.7,0,21.5-6,21.5-16C699.5,674.5,694.2,669.2,686.2,667.8z"/>
	<path class="st1" d="M754.2,667.8l-8.9-1.6c-4.7-0.8-7.8-2.7-7.8-6.7s3.7-6,8.5-6c4.2,0,7.7,2.2,8.6,4.8l9.9-3.6
		c-2.5-5.8-9.2-10.1-18.5-10.1l0,0c-11.7,0-19.5,6-19.5,15s6.8,13.8,14.5,15.1l8.2,1.4c4.4,0.8,7.3,3.4,7.3,6.5c0,5-4.6,7-10.5,7
		c-5,0-9.2-2.9-10.4-5.6l-10.1,3.7c2.6,6.4,10.3,10.9,20.5,10.9c12.7,0,21.5-6,21.5-16C767.5,674.5,762.2,669.2,754.2,667.8z"/>
	<path class="st2" d="M705,698h-53v-53h53V698z M653,697h51v-51h-51V697z"/>
	<path class="st2" d="M705,620h-53v-53h53V620z M653,619h51v-51h-51V619z"/>
	<path class="st2" d="M783,646h-79v-79h79V646z M705,645h77v-77h-77V645z"/>
	<path class="st2" d="M783,776h-79v-79h79V776z M705,775h77v-77h-77V775z"/>
	<path class="st2" d="M705,542h-53v-53h53V542z M653,541h51v-51h-51V541z"/>
	<path class="st2" d="M842,698h-53v-53h53V698z M790,697h51v-51h-51V697z"/>
	<path class="st2" d="M773,698h-53v-53h53V698z M721,697h51v-51h-51V697z"/>
	<path class="st2" d="M1915,568h-5v-1h5V568z M1905,568h-5v-1h5V568z M1895,568h-5v-1h5V568z M1885,568h-5v-1h5V568z M1875,568h-5
		v-1h5V568z M1865,568h-5v-1h5V568z M1855,568h-5v-1h5V568z M1845,568h-5v-1h5V568z M1835,568h-5v-1h5V568z M1825,568h-5v-1h5V568z
		 M1815,568h-5v-1h5V568z M1805,568h-5v-1h5V568z M1795,568h-5v-1h5V568z M1785,568h-5v-1h5V568z M1775,568h-5v-1h5V568z M1765,568
		h-5v-1h5V568z M1755,568h-5v-1h5V568z M1745,568h-5v-1h5V568z M1735,568h-5v-1h5V568z M1725,568h-5v-1h5V568z M1715,568h-5v-1h5
		V568z M1705,568h-5v-1h5V568z M1695,568h-5v-1h5V568z M1685,568h-5v-1h5V568z M1675,568h-5v-1h5V568z M1665,568h-5v-1h5V568z
		 M1655,568h-5v-1h5V568z M1645,568h-5v-1h5V568z M1635,568h-5v-1h5V568z M1625,568h-5v-1h5V568z M1615,568h-5v-1h5V568z M1605,568
		h-5v-1h5V568z M1595,568h-5v-1h5V568z M1585,568h-5v-1h5V568z M1575,568h-5v-1h5V568z M1565,568h-5v-1h5V568z M1555,568h-5v-1h5
		V568z M1545,568h-5v-1h5V568z M1535,568h-5v-1h5V568z M1525,568h-5v-1h5V568z M1515,568h-5v-1h5V568z M1505,568h-5v-1h5V568z
		 M1495,568h-5v-1h5V568z M1485,568h-5v-1h5V568z M1475,568h-5v-1h5V568z M1465,568h-5v-1h5V568z M1455,568h-5v-1h5V568z M1445,568
		h-5v-1h5V568z M1435,568h-5v-1h5V568z M1425,568h-5v-1h5V568z M1415,568h-5v-1h5V568z M1405,568h-5v-1h5V568z M1395,568h-5v-1h5
		V568z M1385,568h-5v-1h5V568z M1375,568h-5v-1h5V568z M1365,568h-5v-1h5V568z M1355,568h-5v-1h5V568z M1345,568h-5v-1h5V568z
		 M1335,568h-5v-1h5V568z M1325,568h-5v-1h5V568z M1315,568h-5v-1h5V568z M1305,568h-5v-1h5V568z M1295,568h-5v-1h5V568z M1285,568
		h-5v-1h5V568z M1275,568h-5v-1h5V568z M1265,568h-5v-1h5V568z M1255,568h-5v-1h5V568z M1245,568h-5v-1h5V568z M1235,568h-5v-1h5
		V568z M1225,568h-5v-1h5V568z M1215,568h-5v-1h5V568z M1205,568h-5v-1h5V568z M1195,568h-5v-1h5V568z M1185,568h-5v-1h5V568z
		 M1175,568h-5v-1h5V568z M1165,568h-5v-1h5V568z M1155,568h-5v-1h5V568z M1145,568h-5v-1h5V568z M1135,568h-5v-1h5V568z M1125,568
		h-5v-1h5V568z M1115,568h-5v-1h5V568z M1105,568h-5v-1h5V568z M1095,568h-5v-1h5V568z M1085,568h-5v-1h5V568z M1075,568h-5v-1h5
		V568z M1065,568h-5v-1h5V568z M1055,568h-5v-1h5V568z M1045,568h-5v-1h5V568z M1035,568h-5v-1h5V568z M1025,568h-5v-1h5V568z
		 M1015,568h-5v-1h5V568z M1005,568h-5v-1h5V568z M995,568h-5v-1h5V568z M985,568h-5v-1h5V568z M975,568h-5v-1h5V568z M965,568h-5
		v-1h5V568z M955,568h-5v-1h5V568z M945,568h-5v-1h5V568z M935,568h-5v-1h5V568z M925,568h-5v-1h5V568z M915,568h-5v-1h5V568z
		 M905,568h-5v-1h5V568z M895,568h-5v-1h5V568z M885,568h-5v-1h5V568z M875,568h-5v-1h5V568z M865,568h-5v-1h5V568z M855,568h-5v-1
		h5V568z M845,568h-5v-1h5V568z M835,568h-5v-1h5V568z M825,568h-5v-1h5V568z M815,568h-5v-1h5V568z M805,568h-5v-1h5V568z M795,568
		h-5v-1h5V568z M785,568h-5v-1h5V568z M775,568h-5v-1h5V568z M765,568h-5v-1h5V568z M755,568h-5v-1h5V568z M745,568h-5v-1h5V568z
		 M735,568h-5v-1h5V568z M725,568h-5v-1h5V568z M715,568h-5v-1h5V568z M705,568h-5v-1h5V568z M695,568h-5v-1h5V568z M685,568h-5v-1
		h5V568z M675,568h-5v-1h5V568z M665,568h-5v-1h5V568z M655,568h-5v-1h5V568z M645,568h-5v-1h5V568z M635,568h-5v-1h5V568z M625,568
		h-5v-1h5V568z M615,568h-5v-1h5V568z M605,568h-5v-1h5V568z M595,568h-5v-1h5V568z M585,568h-5v-1h5V568z M575,568h-5v-1h5V568z
		 M565,568h-5v-1h5V568z M555,568h-5v-1h5V568z M545,568h-5v-1h5V568z M535,568h-5v-1h5V568z M525,568h-5v-1h5V568z M515,568h-5v-1
		h5V568z M505,568h-5v-1h5V568z M495,568h-5v-1h5V568z M485,568h-5v-1h5V568z M475,568h-5v-1h5V568z M465,568h-5v-1h5V568z M455,568
		h-5v-1h5V568z M445,568h-5v-1h5V568z M435,568h-5v-1h5V568z M425,568h-5v-1h5V568z M415,568h-5v-1h5V568z M405,568h-5v-1h5V568z
		 M395,568h-5v-1h5V568z M385,568h-5v-1h5V568z M375,568h-5v-1h5V568z M365,568h-5v-1h5V568z M355,568h-5v-1h5V568z M345,568h-5v-1
		h5V568z M335,568h-5v-1h5V568z M325,568h-5v-1h5V568z M315,568h-5v-1h5V568z M305,568h-5v-1h5V568z M295,568h-5v-1h5V568z M285,568
		h-5v-1h5V568z M275,568h-5v-1h5V568z M265,568h-5v-1h5V568z M255,568h-5v-1h5V568z M245,568h-5v-1h5V568z M235,568h-5v-1h5V568z
		 M225,568h-5v-1h5V568z M215,568h-5v-1h5V568z M205,568h-5v-1h5V568z M195,568h-5v-1h5V568z M185,568h-5v-1h5V568z M175,568h-5v-1
		h5V568z M165,568h-5v-1h5V568z M155,568h-5v-1h5V568z M145,568h-5v-1h5V568z M135,568h-5v-1h5V568z M125,568h-5v-1h5V568z M115,568
		h-5v-1h5V568z M105,568h-5v-1h5V568z M95,568h-5v-1h5V568z M85,568h-5v-1h5V568z M75,568h-5v-1h5V568z M65,568h-5v-1h5V568z
		 M55,568h-5v-1h5V568z M45,568h-5v-1h5V568z M35,568h-5v-1h5V568z M25,568h-5v-1h5V568z M15,568h-5v-1h5V568z M5,568H0v-1h5V568z"
		/>
	<path class="st2" d="M1920,412h-5v-1h5V412z M1910,412h-5v-1h5V412z M1900,412h-5v-1h5V412z M1890,412h-5v-1h5V412z M1880,412h-5
		v-1h5V412z M1870,412h-5v-1h5V412z M1860,412h-5v-1h5V412z M1850,412h-5v-1h5V412z M1840,412h-5v-1h5V412z M1830,412h-5v-1h5V412z
		 M1820,412h-5v-1h5V412z M1810,412h-5v-1h5V412z M1800,412h-5v-1h5V412z M1790,412h-5v-1h5V412z M1780,412h-5v-1h5V412z M1770,412
		h-5v-1h5V412z M1760,412h-5v-1h5V412z M1750,412h-5v-1h5V412z M1740,412h-5v-1h5V412z M1730,412h-5v-1h5V412z M1720,412h-5v-1h5
		V412z M1710,412h-5v-1h5V412z M1700,412h-5v-1h5V412z M1690,412h-5v-1h5V412z M1680,412h-5v-1h5V412z M1670,412h-5v-1h5V412z
		 M1660,412h-5v-1h5V412z M1650,412h-5v-1h5V412z M1640,412h-5v-1h5V412z M1630,412h-5v-1h5V412z M1620,412h-5v-1h5V412z M1610,412
		h-5v-1h5V412z M1600,412h-5v-1h5V412z M1590,412h-5v-1h5V412z M1580,412h-5v-1h5V412z M1570,412h-5v-1h5V412z M1560,412h-5v-1h5
		V412z M1550,412h-5v-1h5V412z M1540,412h-5v-1h5V412z M1530,412h-5v-1h5V412z M1520,412h-5v-1h5V412z M1510,412h-5v-1h5V412z
		 M1500,412h-5v-1h5V412z M1490,412h-5v-1h5V412z M1480,412h-5v-1h5V412z M1470,412h-5v-1h5V412z M1460,412h-5v-1h5V412z M1450,412
		h-5v-1h5V412z M1440,412h-5v-1h5V412z M1430,412h-5v-1h5V412z M1420,412h-5v-1h5V412z M1410,412h-5v-1h5V412z M1400,412h-5v-1h5
		V412z M1390,412h-5v-1h5V412z M1380,412h-5v-1h5V412z M1370,412h-5v-1h5V412z M1360,412h-5v-1h5V412z M1350,412h-5v-1h5V412z
		 M1340,412h-5v-1h5V412z M1330,412h-5v-1h5V412z M1320,412h-5v-1h5V412z M1310,412h-5v-1h5V412z M1300,412h-5v-1h5V412z M1290,412
		h-5v-1h5V412z M1280,412h-5v-1h5V412z M1270,412h-5v-1h5V412z M1260,412h-5v-1h5V412z M1250,412h-5v-1h5V412z M1240,412h-5v-1h5
		V412z M1230,412h-5v-1h5V412z M1220,412h-5v-1h5V412z M1210,412h-5v-1h5V412z M1200,412h-5v-1h5V412z M1190,412h-5v-1h5V412z
		 M1180,412h-5v-1h5V412z M1170,412h-5v-1h5V412z M1160,412h-5v-1h5V412z M1150,412h-5v-1h5V412z M1140,412h-5v-1h5V412z M1130,412
		h-5v-1h5V412z M1120,412h-5v-1h5V412z M1110,412h-5v-1h5V412z M1100,412h-5v-1h5V412z M1090,412h-5v-1h5V412z M1080,412h-5v-1h5
		V412z M1070,412h-5v-1h5V412z M1060,412h-5v-1h5V412z M1050,412h-5v-1h5V412z M1040,412h-5v-1h5V412z M1030,412h-5v-1h5V412z
		 M1020,412h-5v-1h5V412z M1010,412h-5v-1h5V412z M1000,412h-5v-1h5V412z M990,412h-5v-1h5V412z M980,412h-5v-1h5V412z M970,412h-5
		v-1h5V412z M960,412h-5v-1h5V412z M950,412h-5v-1h5V412z M940,412h-5v-1h5V412z M930,412h-5v-1h5V412z M920,412h-5v-1h5V412z
		 M910,412h-5v-1h5V412z M900,412h-5v-1h5V412z M890,412h-5v-1h5V412z M880,412h-5v-1h5V412z M870,412h-5v-1h5V412z M860,412h-5v-1
		h5V412z M850,412h-5v-1h5V412z M840,412h-5v-1h5V412z M830,412h-5v-1h5V412z M820,412h-5v-1h5V412z M810,412h-5v-1h5V412z M800,412
		h-5v-1h5V412z M790,412h-5v-1h5V412z M780,412h-5v-1h5V412z M770,412h-5v-1h5V412z M760,412h-5v-1h5V412z M750,412h-5v-1h5V412z
		 M740,412h-5v-1h5V412z M730,412h-5v-1h5V412z M720,412h-5v-1h5V412z M710,412h-5v-1h5V412z M700,412h-5v-1h5V412z M690,412h-5v-1
		h5V412z M680,412h-5v-1h5V412z M670,412h-5v-1h5V412z M660,412h-5v-1h5V412z M650,412h-5v-1h5V412z M640,412h-5v-1h5V412z M630,412
		h-5v-1h5V412z M620,412h-5v-1h5V412z M610,412h-5v-1h5V412z M600,412h-5v-1h5V412z M590,412h-5v-1h5V412z M580,412h-5v-1h5V412z
		 M570,412h-5v-1h5V412z M560,412h-5v-1h5V412z M550,412h-5v-1h5V412z M540,412h-5v-1h5V412z M530,412h-5v-1h5V412z M520,412h-5v-1
		h5V412z M510,412h-5v-1h5V412z M500,412h-5v-1h5V412z M490,412h-5v-1h5V412z M480,412h-5v-1h5V412z M470,412h-5v-1h5V412z M460,412
		h-5v-1h5V412z M450,412h-5v-1h5V412z M440,412h-5v-1h5V412z M430,412h-5v-1h5V412z M420,412h-5v-1h5V412z M410,412h-5v-1h5V412z
		 M400,412h-5v-1h5V412z M390,412h-5v-1h5V412z M380,412h-5v-1h5V412z M370,412h-5v-1h5V412z M360,412h-5v-1h5V412z M350,412h-5v-1
		h5V412z M340,412h-5v-1h5V412z M330,412h-5v-1h5V412z M320,412h-5v-1h5V412z M310,412h-5v-1h5V412z M300,412h-5v-1h5V412z M290,412
		h-5v-1h5V412z M280,412h-5v-1h5V412z M270,412h-5v-1h5V412z M260,412h-5v-1h5V412z M250,412h-5v-1h5V412z M240,412h-5v-1h5V412z
		 M230,412h-5v-1h5V412z M220,412h-5v-1h5V412z M210,412h-5v-1h5V412z M200,412h-5v-1h5V412z M190,412h-5v-1h5V412z M180,412h-5v-1
		h5V412z M170,412h-5v-1h5V412z M160,412h-5v-1h5V412z M150,412h-5v-1h5V412z M140,412h-5v-1h5V412z M130,412h-5v-1h5V412z M120,412
		h-5v-1h5V412z M110,412h-5v-1h5V412z M100,412h-5v-1h5V412z M90,412h-5v-1h5V412z M80,412h-5v-1h5V412z M70,412h-5v-1h5V412z
		 M60,412h-5v-1h5V412z M50,412h-5v-1h5V412z M40,412h-5v-1h5V412z M30,412h-5v-1h5V412z M20,412h-5v-1h5V412z M10,412H5v-1h5V412z"
		/>
	<path class="st2" d="M1920,445h-5v-1h5V445z M1910,445h-5v-1h5V445z M1900,445h-5v-1h5V445z M1890,445h-5v-1h5V445z M1880,445h-5
		v-1h5V445z M1870,445h-5v-1h5V445z M1860,445h-5v-1h5V445z M1850,445h-5v-1h5V445z M1840,445h-5v-1h5V445z M1830,445h-5v-1h5V445z
		 M1820,445h-5v-1h5V445z M1810,445h-5v-1h5V445z M1800,445h-5v-1h5V445z M1790,445h-5v-1h5V445z M1780,445h-5v-1h5V445z M1770,445
		h-5v-1h5V445z M1760,445h-5v-1h5V445z M1750,445h-5v-1h5V445z M1740,445h-5v-1h5V445z M1730,445h-5v-1h5V445z M1720,445h-5v-1h5
		V445z M1710,445h-5v-1h5V445z M1700,445h-5v-1h5V445z M1690,445h-5v-1h5V445z M1680,445h-5v-1h5V445z M1670,445h-5v-1h5V445z
		 M1660,445h-5v-1h5V445z M1650,445h-5v-1h5V445z M1640,445h-5v-1h5V445z M1630,445h-5v-1h5V445z M1620,445h-5v-1h5V445z M1610,445
		h-5v-1h5V445z M1600,445h-5v-1h5V445z M1590,445h-5v-1h5V445z M1580,445h-5v-1h5V445z M1570,445h-5v-1h5V445z M1560,445h-5v-1h5
		V445z M1550,445h-5v-1h5V445z M1540,445h-5v-1h5V445z M1530,445h-5v-1h5V445z M1520,445h-5v-1h5V445z M1510,445h-5v-1h5V445z
		 M1500,445h-5v-1h5V445z M1490,445h-5v-1h5V445z M1480,445h-5v-1h5V445z M1470,445h-5v-1h5V445z M1460,445h-5v-1h5V445z M1450,445
		h-5v-1h5V445z M1440,445h-5v-1h5V445z M1430,445h-5v-1h5V445z M1420,445h-5v-1h5V445z M1410,445h-5v-1h5V445z M1400,445h-5v-1h5
		V445z M1390,445h-5v-1h5V445z M1380,445h-5v-1h5V445z M1370,445h-5v-1h5V445z M1360,445h-5v-1h5V445z M1350,445h-5v-1h5V445z
		 M1340,445h-5v-1h5V445z M1330,445h-5v-1h5V445z M1320,445h-5v-1h5V445z M1310,445h-5v-1h5V445z M1300,445h-5v-1h5V445z M1290,445
		h-5v-1h5V445z M1280,445h-5v-1h5V445z M1270,445h-5v-1h5V445z M1260,445h-5v-1h5V445z M1250,445h-5v-1h5V445z M1240,445h-5v-1h5
		V445z M1230,445h-5v-1h5V445z M1220,445h-5v-1h5V445z M1210,445h-5v-1h5V445z M1200,445h-5v-1h5V445z M1190,445h-5v-1h5V445z
		 M1180,445h-5v-1h5V445z M1170,445h-5v-1h5V445z M1160,445h-5v-1h5V445z M1150,445h-5v-1h5V445z M1140,445h-5v-1h5V445z M1130,445
		h-5v-1h5V445z M1120,445h-5v-1h5V445z M1110,445h-5v-1h5V445z M1100,445h-5v-1h5V445z M1090,445h-5v-1h5V445z M1080,445h-5v-1h5
		V445z M1070,445h-5v-1h5V445z M1060,445h-5v-1h5V445z M1050,445h-5v-1h5V445z M1040,445h-5v-1h5V445z M1030,445h-5v-1h5V445z
		 M1020,445h-5v-1h5V445z M1010,445h-5v-1h5V445z M1000,445h-5v-1h5V445z M990,445h-5v-1h5V445z M980,445h-5v-1h5V445z M970,445h-5
		v-1h5V445z M960,445h-5v-1h5V445z M950,445h-5v-1h5V445z M940,445h-5v-1h5V445z M930,445h-5v-1h5V445z M920,445h-5v-1h5V445z
		 M910,445h-5v-1h5V445z M900,445h-5v-1h5V445z M890,445h-5v-1h5V445z M880,445h-5v-1h5V445z M870,445h-5v-1h5V445z M860,445h-5v-1
		h5V445z M850,445h-5v-1h5V445z M840,445h-5v-1h5V445z M830,445h-5v-1h5V445z M820,445h-5v-1h5V445z M810,445h-5v-1h5V445z M800,445
		h-5v-1h5V445z M790,445h-5v-1h5V445z M780,445h-5v-1h5V445z M770,445h-5v-1h5V445z M760,445h-5v-1h5V445z M750,445h-5v-1h5V445z
		 M740,445h-5v-1h5V445z M730,445h-5v-1h5V445z M720,445h-5v-1h5V445z M710,445h-5v-1h5V445z M700,445h-5v-1h5V445z M690,445h-5v-1
		h5V445z M680,445h-5v-1h5V445z M670,445h-5v-1h5V445z M660,445h-5v-1h5V445z M650,445h-5v-1h5V445z M640,445h-5v-1h5V445z M630,445
		h-5v-1h5V445z M620,445h-5v-1h5V445z M610,445h-5v-1h5V445z M600,445h-5v-1h5V445z M590,445h-5v-1h5V445z M580,445h-5v-1h5V445z
		 M570,445h-5v-1h5V445z M560,445h-5v-1h5V445z M550,445h-5v-1h5V445z M540,445h-5v-1h5V445z M530,445h-5v-1h5V445z M520,445h-5v-1
		h5V445z M510,445h-5v-1h5V445z M500,445h-5v-1h5V445z M490,445h-5v-1h5V445z M480,445h-5v-1h5V445z M470,445h-5v-1h5V445z M460,445
		h-5v-1h5V445z M450,445h-5v-1h5V445z M440,445h-5v-1h5V445z M430,445h-5v-1h5V445z M420,445h-5v-1h5V445z M410,445h-5v-1h5V445z
		 M400,445h-5v-1h5V445z M390,445h-5v-1h5V445z M380,445h-5v-1h5V445z M370,445h-5v-1h5V445z M360,445h-5v-1h5V445z M350,445h-5v-1
		h5V445z M340,445h-5v-1h5V445z M330,445h-5v-1h5V445z M320,445h-5v-1h5V445z M310,445h-5v-1h5V445z M300,445h-5v-1h5V445z M290,445
		h-5v-1h5V445z M280,445h-5v-1h5V445z M270,445h-5v-1h5V445z M260,445h-5v-1h5V445z M250,445h-5v-1h5V445z M240,445h-5v-1h5V445z
		 M230,445h-5v-1h5V445z M220,445h-5v-1h5V445z M210,445h-5v-1h5V445z M200,445h-5v-1h5V445z M190,445h-5v-1h5V445z M180,445h-5v-1
		h5V445z M170,445h-5v-1h5V445z M160,445h-5v-1h5V445z M150,445h-5v-1h5V445z M140,445h-5v-1h5V445z M130,445h-5v-1h5V445z M120,445
		h-5v-1h5V445z M110,445h-5v-1h5V445z M100,445h-5v-1h5V445z M90,445h-5v-1h5V445z M80,445h-5v-1h5V445z M70,445h-5v-1h5V445z
		 M60,445h-5v-1h5V445z M50,445h-5v-1h5V445z M40,445h-5v-1h5V445z M30,445h-5v-1h5V445z M20,445h-5v-1h5V445z M10,445H5v-1h5V445z"
		/>
	<path class="st2" d="M1915,568h-5v-1h5V568z M1905,568h-5v-1h5V568z M1895,568h-5v-1h5V568z M1885,568h-5v-1h5V568z M1875,568h-5
		v-1h5V568z M1865,568h-5v-1h5V568z M1855,568h-5v-1h5V568z M1845,568h-5v-1h5V568z M1835,568h-5v-1h5V568z M1825,568h-5v-1h5V568z
		 M1815,568h-5v-1h5V568z M1805,568h-5v-1h5V568z M1795,568h-5v-1h5V568z M1785,568h-5v-1h5V568z M1775,568h-5v-1h5V568z M1765,568
		h-5v-1h5V568z M1755,568h-5v-1h5V568z M1745,568h-5v-1h5V568z M1735,568h-5v-1h5V568z M1725,568h-5v-1h5V568z M1715,568h-5v-1h5
		V568z M1705,568h-5v-1h5V568z M1695,568h-5v-1h5V568z M1685,568h-5v-1h5V568z M1675,568h-5v-1h5V568z M1665,568h-5v-1h5V568z
		 M1655,568h-5v-1h5V568z M1645,568h-5v-1h5V568z M1635,568h-5v-1h5V568z M1625,568h-5v-1h5V568z M1615,568h-5v-1h5V568z M1605,568
		h-5v-1h5V568z M1595,568h-5v-1h5V568z M1585,568h-5v-1h5V568z M1575,568h-5v-1h5V568z M1565,568h-5v-1h5V568z M1555,568h-5v-1h5
		V568z M1545,568h-5v-1h5V568z M1535,568h-5v-1h5V568z M1525,568h-5v-1h5V568z M1515,568h-5v-1h5V568z M1505,568h-5v-1h5V568z
		 M1495,568h-5v-1h5V568z M1485,568h-5v-1h5V568z M1475,568h-5v-1h5V568z M1465,568h-5v-1h5V568z M1455,568h-5v-1h5V568z M1445,568
		h-5v-1h5V568z M1435,568h-5v-1h5V568z M1425,568h-5v-1h5V568z M1415,568h-5v-1h5V568z M1405,568h-5v-1h5V568z M1395,568h-5v-1h5
		V568z M1385,568h-5v-1h5V568z M1375,568h-5v-1h5V568z M1365,568h-5v-1h5V568z M1355,568h-5v-1h5V568z M1345,568h-5v-1h5V568z
		 M1335,568h-5v-1h5V568z M1325,568h-5v-1h5V568z M1315,568h-5v-1h5V568z M1305,568h-5v-1h5V568z M1295,568h-5v-1h5V568z M1285,568
		h-5v-1h5V568z M1275,568h-5v-1h5V568z M1265,568h-5v-1h5V568z M1255,568h-5v-1h5V568z M1245,568h-5v-1h5V568z M1235,568h-5v-1h5
		V568z M1225,568h-5v-1h5V568z M1215,568h-5v-1h5V568z M1205,568h-5v-1h5V568z M1195,568h-5v-1h5V568z M1185,568h-5v-1h5V568z
		 M1175,568h-5v-1h5V568z M1165,568h-5v-1h5V568z M1155,568h-5v-1h5V568z M1145,568h-5v-1h5V568z M1135,568h-5v-1h5V568z M1125,568
		h-5v-1h5V568z M1115,568h-5v-1h5V568z M1105,568h-5v-1h5V568z M1095,568h-5v-1h5V568z M1085,568h-5v-1h5V568z M1075,568h-5v-1h5
		V568z M1065,568h-5v-1h5V568z M1055,568h-5v-1h5V568z M1045,568h-5v-1h5V568z M1035,568h-5v-1h5V568z M1025,568h-5v-1h5V568z
		 M1015,568h-5v-1h5V568z M1005,568h-5v-1h5V568z M995,568h-5v-1h5V568z M985,568h-5v-1h5V568z M975,568h-5v-1h5V568z M965,568h-5
		v-1h5V568z M955,568h-5v-1h5V568z M945,568h-5v-1h5V568z M935,568h-5v-1h5V568z M925,568h-5v-1h5V568z M915,568h-5v-1h5V568z
		 M905,568h-5v-1h5V568z M895,568h-5v-1h5V568z M885,568h-5v-1h5V568z M875,568h-5v-1h5V568z M865,568h-5v-1h5V568z M855,568h-5v-1
		h5V568z M845,568h-5v-1h5V568z M835,568h-5v-1h5V568z M825,568h-5v-1h5V568z M815,568h-5v-1h5V568z M805,568h-5v-1h5V568z M795,568
		h-5v-1h5V568z M785,568h-5v-1h5V568z M775,568h-5v-1h5V568z M765,568h-5v-1h5V568z M755,568h-5v-1h5V568z M745,568h-5v-1h5V568z
		 M735,568h-5v-1h5V568z M725,568h-5v-1h5V568z M715,568h-5v-1h5V568z M705,568h-5v-1h5V568z M695,568h-5v-1h5V568z M685,568h-5v-1
		h5V568z M675,568h-5v-1h5V568z M665,568h-5v-1h5V568z M655,568h-5v-1h5V568z M645,568h-5v-1h5V568z M635,568h-5v-1h5V568z M625,568
		h-5v-1h5V568z M615,568h-5v-1h5V568z M605,568h-5v-1h5V568z M595,568h-5v-1h5V568z M585,568h-5v-1h5V568z M575,568h-5v-1h5V568z
		 M565,568h-5v-1h5V568z M555,568h-5v-1h5V568z M545,568h-5v-1h5V568z M535,568h-5v-1h5V568z M525,568h-5v-1h5V568z M515,568h-5v-1
		h5V568z M505,568h-5v-1h5V568z M495,568h-5v-1h5V568z M485,568h-5v-1h5V568z M475,568h-5v-1h5V568z M465,568h-5v-1h5V568z M455,568
		h-5v-1h5V568z M445,568h-5v-1h5V568z M435,568h-5v-1h5V568z M425,568h-5v-1h5V568z M415,568h-5v-1h5V568z M405,568h-5v-1h5V568z
		 M395,568h-5v-1h5V568z M385,568h-5v-1h5V568z M375,568h-5v-1h5V568z M365,568h-5v-1h5V568z M355,568h-5v-1h5V568z M345,568h-5v-1
		h5V568z M335,568h-5v-1h5V568z M325,568h-5v-1h5V568z M315,568h-5v-1h5V568z M305,568h-5v-1h5V568z M295,568h-5v-1h5V568z M285,568
		h-5v-1h5V568z M275,568h-5v-1h5V568z M265,568h-5v-1h5V568z M255,568h-5v-1h5V568z M245,568h-5v-1h5V568z M235,568h-5v-1h5V568z
		 M225,568h-5v-1h5V568z M215,568h-5v-1h5V568z M205,568h-5v-1h5V568z M195,568h-5v-1h5V568z M185,568h-5v-1h5V568z M175,568h-5v-1
		h5V568z M165,568h-5v-1h5V568z M155,568h-5v-1h5V568z M145,568h-5v-1h5V568z M135,568h-5v-1h5V568z M125,568h-5v-1h5V568z M115,568
		h-5v-1h5V568z M105,568h-5v-1h5V568z M95,568h-5v-1h5V568z M85,568h-5v-1h5V568z M75,568h-5v-1h5V568z M65,568h-5v-1h5V568z
		 M55,568h-5v-1h5V568z M45,568h-5v-1h5V568z M35,568h-5v-1h5V568z M25,568h-5v-1h5V568z M15,568h-5v-1h5V568z M5,568H0v-1h5V568z"
		/>
	<path class="st2" d="M573,598.3h-2.5l-3-4.4l-3,4.4H562l4.1-6l-3.7-5.3h2.6l2.5,3.8l2.5-3.8h2.5l-3.7,5.3L573,598.3z"/>
	<rect x="594.6" y="567.5" class="st2" width="5.9" height="52"/>
	<path class="st2" d="M455.3,599.9h1.7v10.9h-2.2v-8.2l-1.9,1.3l-1-1.5L455.3,599.9z"/>
	<path class="st2" d="M461.7,608.5v2.3h-2.3v-2.3H461.7z"/>
	<path class="st2" d="M467.9,603.8c1,0,1.9,0.3,2.5,1c0.6,0.6,1,1.5,1,2.4c0,1.1-0.4,2.1-1.2,2.8c-0.8,0.7-1.8,1.1-2.9,1.1
		c-0.7,0-1.4-0.1-2.1-0.3c-0.8-0.3-1.5-0.7-2.1-1.2l1.1-1.5c0.5,0.3,1.1,0.7,1.7,0.9c0.4,0.2,0.9,0.3,1.4,0.2c0.5,0,1.1-0.2,1.5-0.5
		c0.8-0.7,0.8-1.9,0.1-2.7c-0.4-0.3-0.9-0.5-1.4-0.5c-0.6,0-1.2,0.2-1.7,0.6l-1.9-0.2l0.5-6h6.7v1.8h-4.8l-0.2,2.6
		C466.5,604,467.2,603.7,467.9,603.8z"/>
	<path class="st2" d="M483.2,610.8h-2.5l-3-4.4l-3,4.4h-2.5l4.1-6l-3.7-5.3h2.5l2.5,3.8l2.5-3.8h2.5l-3.7,5.3L483.2,610.8z"/>
	<rect x="504.3" y="567.5" class="st2" width="5.9" height="78"/>
	<path class="st2" d="M455.3,730.5h1.7v10.9h-2.2v-8.2l-1.9,1.3l-1-1.5L455.3,730.5z"/>
	<path class="st2" d="M461.7,739v2.3h-2.3V739H461.7z"/>
	<path class="st2" d="M467.9,734.3c1,0,1.9,0.3,2.5,1c0.6,0.6,1,1.5,1,2.4c0,1.1-0.4,2.1-1.2,2.8c-0.8,0.7-1.8,1.1-2.9,1.1
		c-0.7,0-1.4-0.1-2.1-0.3c-0.8-0.3-1.5-0.7-2.1-1.2l1.1-1.5c0.5,0.3,1.1,0.6,1.7,0.9c0.4,0.2,0.9,0.3,1.4,0.2c0.5,0,1.1-0.2,1.5-0.5
		c0.8-0.7,0.8-1.9,0.1-2.7c-0.4-0.3-0.9-0.5-1.4-0.5c-0.6,0-1.2,0.2-1.7,0.6l-1.9-0.2l0.5-6h6.7v1.8h-4.8l-0.2,2.6
		C466.5,734.5,467.2,734.2,467.9,734.3z"/>
	<path class="st2" d="M483.2,741.3h-2.5l-3-4.4l-3,4.4h-2.5l4.1-6l-3.7-5.3h2.5l2.5,3.8l2.5-3.8h2.5l-3.7,5.3L483.2,741.3z"/>
	<rect x="504.3" y="698" class="st2" width="5.9" height="77"/>
	<path class="st2" d="M1915,620h-5v-1h5V620z M1905,620h-5v-1h5V620z M1895,620h-5v-1h5V620z M1885,620h-5v-1h5V620z M1875,620h-5
		v-1h5V620z M1865,620h-5v-1h5V620z M1855,620h-5v-1h5V620z M1845,620h-5v-1h5V620z M1835,620h-5v-1h5V620z M1825,620h-5v-1h5V620z
		 M1815,620h-5v-1h5V620z M1805,620h-5v-1h5V620z M1795,620h-5v-1h5V620z M1785,620h-5v-1h5V620z M1775,620h-5v-1h5V620z M1765,620
		h-5v-1h5V620z M1755,620h-5v-1h5V620z M1745,620h-5v-1h5V620z M1735,620h-5v-1h5V620z M1725,620h-5v-1h5V620z M1715,620h-5v-1h5
		V620z M1705,620h-5v-1h5V620z M1695,620h-5v-1h5V620z M1685,620h-5v-1h5V620z M1675,620h-5v-1h5V620z M1665,620h-5v-1h5V620z
		 M1655,620h-5v-1h5V620z M1645,620h-5v-1h5V620z M1635,620h-5v-1h5V620z M1625,620h-5v-1h5V620z M1615,620h-5v-1h5V620z M1605,620
		h-5v-1h5V620z M1595,620h-5v-1h5V620z M1585,620h-5v-1h5V620z M1575,620h-5v-1h5V620z M1565,620h-5v-1h5V620z M1555,620h-5v-1h5
		V620z M1545,620h-5v-1h5V620z M1535,620h-5v-1h5V620z M1525,620h-5v-1h5V620z M1515,620h-5v-1h5V620z M1505,620h-5v-1h5V620z
		 M1495,620h-5v-1h5V620z M1485,620h-5v-1h5V620z M1475,620h-5v-1h5V620z M1465,620h-5v-1h5V620z M1455,620h-5v-1h5V620z M1445,620
		h-5v-1h5V620z M1435,620h-5v-1h5V620z M1425,620h-5v-1h5V620z M1415,620h-5v-1h5V620z M1405,620h-5v-1h5V620z M1395,620h-5v-1h5
		V620z M1385,620h-5v-1h5V620z M1375,620h-5v-1h5V620z M1365,620h-5v-1h5V620z M1355,620h-5v-1h5V620z M1345,620h-5v-1h5V620z
		 M1335,620h-5v-1h5V620z M1325,620h-5v-1h5V620z M1315,620h-5v-1h5V620z M1305,620h-5v-1h5V620z M1295,620h-5v-1h5V620z M1285,620
		h-5v-1h5V620z M1275,620h-5v-1h5V620z M1265,620h-5v-1h5V620z M1255,620h-5v-1h5V620z M1245,620h-5v-1h5V620z M1235,620h-5v-1h5
		V620z M1225,620h-5v-1h5V620z M1215,620h-5v-1h5V620z M1205,620h-5v-1h5V620z M1195,620h-5v-1h5V620z M1185,620h-5v-1h5V620z
		 M1175,620h-5v-1h5V620z M1165,620h-5v-1h5V620z M1155,620h-5v-1h5V620z M1145,620h-5v-1h5V620z M1135,620h-5v-1h5V620z M1125,620
		h-5v-1h5V620z M1115,620h-5v-1h5V620z M1105,620h-5v-1h5V620z M1095,620h-5v-1h5V620z M1085,620h-5v-1h5V620z M1075,620h-5v-1h5
		V620z M1065,620h-5v-1h5V620z M1055,620h-5v-1h5V620z M1045,620h-5v-1h5V620z M1035,620h-5v-1h5V620z M1025,620h-5v-1h5V620z
		 M1015,620h-5v-1h5V620z M1005,620h-5v-1h5V620z M995,620h-5v-1h5V620z M985,620h-5v-1h5V620z M975,620h-5v-1h5V620z M965,620h-5
		v-1h5V620z M955,620h-5v-1h5V620z M945,620h-5v-1h5V620z M935,620h-5v-1h5V620z M925,620h-5v-1h5V620z M915,620h-5v-1h5V620z
		 M905,620h-5v-1h5V620z M895,620h-5v-1h5V620z M885,620h-5v-1h5V620z M875,620h-5v-1h5V620z M865,620h-5v-1h5V620z M855,620h-5v-1
		h5V620z M845,620h-5v-1h5V620z M835,620h-5v-1h5V620z M825,620h-5v-1h5V620z M815,620h-5v-1h5V620z M805,620h-5v-1h5V620z M795,620
		h-5v-1h5V620z M785,620h-5v-1h5V620z M775,620h-5v-1h5V620z M765,620h-5v-1h5V620z M755,620h-5v-1h5V620z M745,620h-5v-1h5V620z
		 M735,620h-5v-1h5V620z M725,620h-5v-1h5V620z M715,620h-5v-1h5V620z M705,620h-5v-1h5V620z M695,620h-5v-1h5V620z M685,620h-5v-1
		h5V620z M675,620h-5v-1h5V620z M665,620h-5v-1h5V620z M655,620h-5v-1h5V620z M645,620h-5v-1h5V620z M635,620h-5v-1h5V620z M625,620
		h-5v-1h5V620z M615,620h-5v-1h5V620z M605,620h-5v-1h5V620z M595,620h-5v-1h5V620z M585,620h-5v-1h5V620z M575,620h-5v-1h5V620z
		 M565,620h-5v-1h5V620z M555,620h-5v-1h5V620z M545,620h-5v-1h5V620z M535,620h-5v-1h5V620z M525,620h-5v-1h5V620z M515,620h-5v-1
		h5V620z M505,620h-5v-1h5V620z M495,620h-5v-1h5V620z M485,620h-5v-1h5V620z M475,620h-5v-1h5V620z M465,620h-5v-1h5V620z M455,620
		h-5v-1h5V620z M445,620h-5v-1h5V620z M435,620h-5v-1h5V620z M425,620h-5v-1h5V620z M415,620h-5v-1h5V620z M405,620h-5v-1h5V620z
		 M395,620h-5v-1h5V620z M385,620h-5v-1h5V620z M375,620h-5v-1h5V620z M365,620h-5v-1h5V620z M355,620h-5v-1h5V620z M345,620h-5v-1
		h5V620z M335,620h-5v-1h5V620z M325,620h-5v-1h5V620z M315,620h-5v-1h5V620z M305,620h-5v-1h5V620z M295,620h-5v-1h5V620z M285,620
		h-5v-1h5V620z M275,620h-5v-1h5V620z M265,620h-5v-1h5V620z M255,620h-5v-1h5V620z M245,620h-5v-1h5V620z M235,620h-5v-1h5V620z
		 M225,620h-5v-1h5V620z M215,620h-5v-1h5V620z M205,620h-5v-1h5V620z M195,620h-5v-1h5V620z M185,620h-5v-1h5V620z M175,620h-5v-1
		h5V620z M165,620h-5v-1h5V620z M155,620h-5v-1h5V620z M145,620h-5v-1h5V620z M135,620h-5v-1h5V620z M125,620h-5v-1h5V620z M115,620
		h-5v-1h5V620z M105,620h-5v-1h5V620z M95,620h-5v-1h5V620z M85,620h-5v-1h5V620z M75,620h-5v-1h5V620z M65,620h-5v-1h5V620z
		 M55,620h-5v-1h5V620z M45,620h-5v-1h5V620z M35,620h-5v-1h5V620z M25,620h-5v-1h5V620z M15,620h-5v-1h5V620z M5,620H0v-1h5V620z"
		/>
	<path class="st2" d="M1915,646h-5v-1h5V646z M1905,646h-5v-1h5V646z M1895,646h-5v-1h5V646z M1885,646h-5v-1h5V646z M1875,646h-5
		v-1h5V646z M1865,646h-5v-1h5V646z M1855,646h-5v-1h5V646z M1845,646h-5v-1h5V646z M1835,646h-5v-1h5V646z M1825,646h-5v-1h5V646z
		 M1815,646h-5v-1h5V646z M1805,646h-5v-1h5V646z M1795,646h-5v-1h5V646z M1785,646h-5v-1h5V646z M1775,646h-5v-1h5V646z M1765,646
		h-5v-1h5V646z M1755,646h-5v-1h5V646z M1745,646h-5v-1h5V646z M1735,646h-5v-1h5V646z M1725,646h-5v-1h5V646z M1715,646h-5v-1h5
		V646z M1705,646h-5v-1h5V646z M1695,646h-5v-1h5V646z M1685,646h-5v-1h5V646z M1675,646h-5v-1h5V646z M1665,646h-5v-1h5V646z
		 M1655,646h-5v-1h5V646z M1645,646h-5v-1h5V646z M1635,646h-5v-1h5V646z M1625,646h-5v-1h5V646z M1615,646h-5v-1h5V646z M1605,646
		h-5v-1h5V646z M1595,646h-5v-1h5V646z M1585,646h-5v-1h5V646z M1575,646h-5v-1h5V646z M1565,646h-5v-1h5V646z M1555,646h-5v-1h5
		V646z M1545,646h-5v-1h5V646z M1535,646h-5v-1h5V646z M1525,646h-5v-1h5V646z M1515,646h-5v-1h5V646z M1505,646h-5v-1h5V646z
		 M1495,646h-5v-1h5V646z M1485,646h-5v-1h5V646z M1475,646h-5v-1h5V646z M1465,646h-5v-1h5V646z M1455,646h-5v-1h5V646z M1445,646
		h-5v-1h5V646z M1435,646h-5v-1h5V646z M1425,646h-5v-1h5V646z M1415,646h-5v-1h5V646z M1405,646h-5v-1h5V646z M1395,646h-5v-1h5
		V646z M1385,646h-5v-1h5V646z M1375,646h-5v-1h5V646z M1365,646h-5v-1h5V646z M1355,646h-5v-1h5V646z M1345,646h-5v-1h5V646z
		 M1335,646h-5v-1h5V646z M1325,646h-5v-1h5V646z M1315,646h-5v-1h5V646z M1305,646h-5v-1h5V646z M1295,646h-5v-1h5V646z M1285,646
		h-5v-1h5V646z M1275,646h-5v-1h5V646z M1265,646h-5v-1h5V646z M1255,646h-5v-1h5V646z M1245,646h-5v-1h5V646z M1235,646h-5v-1h5
		V646z M1225,646h-5v-1h5V646z M1215,646h-5v-1h5V646z M1205,646h-5v-1h5V646z M1195,646h-5v-1h5V646z M1185,646h-5v-1h5V646z
		 M1175,646h-5v-1h5V646z M1165,646h-5v-1h5V646z M1155,646h-5v-1h5V646z M1145,646h-5v-1h5V646z M1135,646h-5v-1h5V646z M1125,646
		h-5v-1h5V646z M1115,646h-5v-1h5V646z M1105,646h-5v-1h5V646z M1095,646h-5v-1h5V646z M1085,646h-5v-1h5V646z M1075,646h-5v-1h5
		V646z M1065,646h-5v-1h5V646z M1055,646h-5v-1h5V646z M1045,646h-5v-1h5V646z M1035,646h-5v-1h5V646z M1025,646h-5v-1h5V646z
		 M1015,646h-5v-1h5V646z M1005,646h-5v-1h5V646z M995,646h-5v-1h5V646z M985,646h-5v-1h5V646z M975,646h-5v-1h5V646z M965,646h-5
		v-1h5V646z M955,646h-5v-1h5V646z M945,646h-5v-1h5V646z M935,646h-5v-1h5V646z M925,646h-5v-1h5V646z M915,646h-5v-1h5V646z
		 M905,646h-5v-1h5V646z M895,646h-5v-1h5V646z M885,646h-5v-1h5V646z M875,646h-5v-1h5V646z M865,646h-5v-1h5V646z M855,646h-5v-1
		h5V646z M845,646h-5v-1h5V646z M835,646h-5v-1h5V646z M825,646h-5v-1h5V646z M815,646h-5v-1h5V646z M805,646h-5v-1h5V646z M795,646
		h-5v-1h5V646z M785,646h-5v-1h5V646z M775,646h-5v-1h5V646z M765,646h-5v-1h5V646z M755,646h-5v-1h5V646z M745,646h-5v-1h5V646z
		 M735,646h-5v-1h5V646z M725,646h-5v-1h5V646z M715,646h-5v-1h5V646z M705,646h-5v-1h5V646z M695,646h-5v-1h5V646z M685,646h-5v-1
		h5V646z M675,646h-5v-1h5V646z M665,646h-5v-1h5V646z M655,646h-5v-1h5V646z M645,646h-5v-1h5V646z M635,646h-5v-1h5V646z M625,646
		h-5v-1h5V646z M615,646h-5v-1h5V646z M605,646h-5v-1h5V646z M595,646h-5v-1h5V646z M585,646h-5v-1h5V646z M575,646h-5v-1h5V646z
		 M565,646h-5v-1h5V646z M555,646h-5v-1h5V646z M545,646h-5v-1h5V646z M535,646h-5v-1h5V646z M525,646h-5v-1h5V646z M515,646h-5v-1
		h5V646z M505,646h-5v-1h5V646z M495,646h-5v-1h5V646z M485,646h-5v-1h5V646z M475,646h-5v-1h5V646z M465,646h-5v-1h5V646z M455,646
		h-5v-1h5V646z M445,646h-5v-1h5V646z M435,646h-5v-1h5V646z M425,646h-5v-1h5V646z M415,646h-5v-1h5V646z M405,646h-5v-1h5V646z
		 M395,646h-5v-1h5V646z M385,646h-5v-1h5V646z M375,646h-5v-1h5V646z M365,646h-5v-1h5V646z M355,646h-5v-1h5V646z M345,646h-5v-1
		h5V646z M335,646h-5v-1h5V646z M325,646h-5v-1h5V646z M315,646h-5v-1h5V646z M305,646h-5v-1h5V646z M295,646h-5v-1h5V646z M285,646
		h-5v-1h5V646z M275,646h-5v-1h5V646z M265,646h-5v-1h5V646z M255,646h-5v-1h5V646z M245,646h-5v-1h5V646z M235,646h-5v-1h5V646z
		 M225,646h-5v-1h5V646z M215,646h-5v-1h5V646z M205,646h-5v-1h5V646z M195,646h-5v-1h5V646z M185,646h-5v-1h5V646z M175,646h-5v-1
		h5V646z M165,646h-5v-1h5V646z M155,646h-5v-1h5V646z M145,646h-5v-1h5V646z M135,646h-5v-1h5V646z M125,646h-5v-1h5V646z M115,646
		h-5v-1h5V646z M105,646h-5v-1h5V646z M95,646h-5v-1h5V646z M85,646h-5v-1h5V646z M75,646h-5v-1h5V646z M65,646h-5v-1h5V646z
		 M55,646h-5v-1h5V646z M45,646h-5v-1h5V646z M35,646h-5v-1h5V646z M25,646h-5v-1h5V646z M15,646h-5v-1h5V646z M5,646H0v-1h5V646z"
		/>
	<path class="st2" d="M1915,698h-5v-1h5V698z M1905,698h-5v-1h5V698z M1895,698h-5v-1h5V698z M1885,698h-5v-1h5V698z M1875,698h-5
		v-1h5V698z M1865,698h-5v-1h5V698z M1855,698h-5v-1h5V698z M1845,698h-5v-1h5V698z M1835,698h-5v-1h5V698z M1825,698h-5v-1h5V698z
		 M1815,698h-5v-1h5V698z M1805,698h-5v-1h5V698z M1795,698h-5v-1h5V698z M1785,698h-5v-1h5V698z M1775,698h-5v-1h5V698z M1765,698
		h-5v-1h5V698z M1755,698h-5v-1h5V698z M1745,698h-5v-1h5V698z M1735,698h-5v-1h5V698z M1725,698h-5v-1h5V698z M1715,698h-5v-1h5
		V698z M1705,698h-5v-1h5V698z M1695,698h-5v-1h5V698z M1685,698h-5v-1h5V698z M1675,698h-5v-1h5V698z M1665,698h-5v-1h5V698z
		 M1655,698h-5v-1h5V698z M1645,698h-5v-1h5V698z M1635,698h-5v-1h5V698z M1625,698h-5v-1h5V698z M1615,698h-5v-1h5V698z M1605,698
		h-5v-1h5V698z M1595,698h-5v-1h5V698z M1585,698h-5v-1h5V698z M1575,698h-5v-1h5V698z M1565,698h-5v-1h5V698z M1555,698h-5v-1h5
		V698z M1545,698h-5v-1h5V698z M1535,698h-5v-1h5V698z M1525,698h-5v-1h5V698z M1515,698h-5v-1h5V698z M1505,698h-5v-1h5V698z
		 M1495,698h-5v-1h5V698z M1485,698h-5v-1h5V698z M1475,698h-5v-1h5V698z M1465,698h-5v-1h5V698z M1455,698h-5v-1h5V698z M1445,698
		h-5v-1h5V698z M1435,698h-5v-1h5V698z M1425,698h-5v-1h5V698z M1415,698h-5v-1h5V698z M1405,698h-5v-1h5V698z M1395,698h-5v-1h5
		V698z M1385,698h-5v-1h5V698z M1375,698h-5v-1h5V698z M1365,698h-5v-1h5V698z M1355,698h-5v-1h5V698z M1345,698h-5v-1h5V698z
		 M1335,698h-5v-1h5V698z M1325,698h-5v-1h5V698z M1315,698h-5v-1h5V698z M1305,698h-5v-1h5V698z M1295,698h-5v-1h5V698z M1285,698
		h-5v-1h5V698z M1275,698h-5v-1h5V698z M1265,698h-5v-1h5V698z M1255,698h-5v-1h5V698z M1245,698h-5v-1h5V698z M1235,698h-5v-1h5
		V698z M1225,698h-5v-1h5V698z M1215,698h-5v-1h5V698z M1205,698h-5v-1h5V698z M1195,698h-5v-1h5V698z M1185,698h-5v-1h5V698z
		 M1175,698h-5v-1h5V698z M1165,698h-5v-1h5V698z M1155,698h-5v-1h5V698z M1145,698h-5v-1h5V698z M1135,698h-5v-1h5V698z M1125,698
		h-5v-1h5V698z M1115,698h-5v-1h5V698z M1105,698h-5v-1h5V698z M1095,698h-5v-1h5V698z M1085,698h-5v-1h5V698z M1075,698h-5v-1h5
		V698z M1065,698h-5v-1h5V698z M1055,698h-5v-1h5V698z M1045,698h-5v-1h5V698z M1035,698h-5v-1h5V698z M1025,698h-5v-1h5V698z
		 M1015,698h-5v-1h5V698z M1005,698h-5v-1h5V698z M995,698h-5v-1h5V698z M985,698h-5v-1h5V698z M975,698h-5v-1h5V698z M965,698h-5
		v-1h5V698z M955,698h-5v-1h5V698z M945,698h-5v-1h5V698z M935,698h-5v-1h5V698z M925,698h-5v-1h5V698z M915,698h-5v-1h5V698z
		 M905,698h-5v-1h5V698z M895,698h-5v-1h5V698z M885,698h-5v-1h5V698z M875,698h-5v-1h5V698z M865,698h-5v-1h5V698z M855,698h-5v-1
		h5V698z M845,698h-5v-1h5V698z M835,698h-5v-1h5V698z M825,698h-5v-1h5V698z M815,698h-5v-1h5V698z M805,698h-5v-1h5V698z M795,698
		h-5v-1h5V698z M785,698h-5v-1h5V698z M775,698h-5v-1h5V698z M765,698h-5v-1h5V698z M755,698h-5v-1h5V698z M745,698h-5v-1h5V698z
		 M735,698h-5v-1h5V698z M725,698h-5v-1h5V698z M715,698h-5v-1h5V698z M705,698h-5v-1h5V698z M695,698h-5v-1h5V698z M685,698h-5v-1
		h5V698z M675,698h-5v-1h5V698z M665,698h-5v-1h5V698z M655,698h-5v-1h5V698z M645,698h-5v-1h5V698z M635,698h-5v-1h5V698z M625,698
		h-5v-1h5V698z M615,698h-5v-1h5V698z M605,698h-5v-1h5V698z M595,698h-5v-1h5V698z M585,698h-5v-1h5V698z M575,698h-5v-1h5V698z
		 M565,698h-5v-1h5V698z M555,698h-5v-1h5V698z M545,698h-5v-1h5V698z M535,698h-5v-1h5V698z M525,698h-5v-1h5V698z M515,698h-5v-1
		h5V698z M505,698h-5v-1h5V698z M495,698h-5v-1h5V698z M485,698h-5v-1h5V698z M475,698h-5v-1h5V698z M465,698h-5v-1h5V698z M455,698
		h-5v-1h5V698z M445,698h-5v-1h5V698z M435,698h-5v-1h5V698z M425,698h-5v-1h5V698z M415,698h-5v-1h5V698z M405,698h-5v-1h5V698z
		 M395,698h-5v-1h5V698z M385,698h-5v-1h5V698z M375,698h-5v-1h5V698z M365,698h-5v-1h5V698z M355,698h-5v-1h5V698z M345,698h-5v-1
		h5V698z M335,698h-5v-1h5V698z M325,698h-5v-1h5V698z M315,698h-5v-1h5V698z M305,698h-5v-1h5V698z M295,698h-5v-1h5V698z M285,698
		h-5v-1h5V698z M275,698h-5v-1h5V698z M265,698h-5v-1h5V698z M255,698h-5v-1h5V698z M245,698h-5v-1h5V698z M235,698h-5v-1h5V698z
		 M225,698h-5v-1h5V698z M215,698h-5v-1h5V698z M205,698h-5v-1h5V698z M195,698h-5v-1h5V698z M185,698h-5v-1h5V698z M175,698h-5v-1
		h5V698z M165,698h-5v-1h5V698z M155,698h-5v-1h5V698z M145,698h-5v-1h5V698z M135,698h-5v-1h5V698z M125,698h-5v-1h5V698z M115,698
		h-5v-1h5V698z M105,698h-5v-1h5V698z M95,698h-5v-1h5V698z M85,698h-5v-1h5V698z M75,698h-5v-1h5V698z M65,698h-5v-1h5V698z
		 M55,698h-5v-1h5V698z M45,698h-5v-1h5V698z M35,698h-5v-1h5V698z M25,698h-5v-1h5V698z M15,698h-5v-1h5V698z M5,698H0v-1h5V698z"
		/>
	<path class="st2" d="M1915,776h-5v-1h5V776z M1905,776h-5v-1h5V776z M1895,776h-5v-1h5V776z M1885,776h-5v-1h5V776z M1875,776h-5
		v-1h5V776z M1865,776h-5v-1h5V776z M1855,776h-5v-1h5V776z M1845,776h-5v-1h5V776z M1835,776h-5v-1h5V776z M1825,776h-5v-1h5V776z
		 M1815,776h-5v-1h5V776z M1805,776h-5v-1h5V776z M1795,776h-5v-1h5V776z M1785,776h-5v-1h5V776z M1775,776h-5v-1h5V776z M1765,776
		h-5v-1h5V776z M1755,776h-5v-1h5V776z M1745,776h-5v-1h5V776z M1735,776h-5v-1h5V776z M1725,776h-5v-1h5V776z M1715,776h-5v-1h5
		V776z M1705,776h-5v-1h5V776z M1695,776h-5v-1h5V776z M1685,776h-5v-1h5V776z M1675,776h-5v-1h5V776z M1665,776h-5v-1h5V776z
		 M1655,776h-5v-1h5V776z M1645,776h-5v-1h5V776z M1635,776h-5v-1h5V776z M1625,776h-5v-1h5V776z M1615,776h-5v-1h5V776z M1605,776
		h-5v-1h5V776z M1595,776h-5v-1h5V776z M1585,776h-5v-1h5V776z M1575,776h-5v-1h5V776z M1565,776h-5v-1h5V776z M1555,776h-5v-1h5
		V776z M1545,776h-5v-1h5V776z M1535,776h-5v-1h5V776z M1525,776h-5v-1h5V776z M1515,776h-5v-1h5V776z M1505,776h-5v-1h5V776z
		 M1495,776h-5v-1h5V776z M1485,776h-5v-1h5V776z M1475,776h-5v-1h5V776z M1465,776h-5v-1h5V776z M1455,776h-5v-1h5V776z M1445,776
		h-5v-1h5V776z M1435,776h-5v-1h5V776z M1425,776h-5v-1h5V776z M1415,776h-5v-1h5V776z M1405,776h-5v-1h5V776z M1395,776h-5v-1h5
		V776z M1385,776h-5v-1h5V776z M1375,776h-5v-1h5V776z M1365,776h-5v-1h5V776z M1355,776h-5v-1h5V776z M1345,776h-5v-1h5V776z
		 M1335,776h-5v-1h5V776z M1325,776h-5v-1h5V776z M1315,776h-5v-1h5V776z M1305,776h-5v-1h5V776z M1295,776h-5v-1h5V776z M1285,776
		h-5v-1h5V776z M1275,776h-5v-1h5V776z M1265,776h-5v-1h5V776z M1255,776h-5v-1h5V776z M1245,776h-5v-1h5V776z M1235,776h-5v-1h5
		V776z M1225,776h-5v-1h5V776z M1215,776h-5v-1h5V776z M1205,776h-5v-1h5V776z M1195,776h-5v-1h5V776z M1185,776h-5v-1h5V776z
		 M1175,776h-5v-1h5V776z M1165,776h-5v-1h5V776z M1155,776h-5v-1h5V776z M1145,776h-5v-1h5V776z M1135,776h-5v-1h5V776z M1125,776
		h-5v-1h5V776z M1115,776h-5v-1h5V776z M1105,776h-5v-1h5V776z M1095,776h-5v-1h5V776z M1085,776h-5v-1h5V776z M1075,776h-5v-1h5
		V776z M1065,776h-5v-1h5V776z M1055,776h-5v-1h5V776z M1045,776h-5v-1h5V776z M1035,776h-5v-1h5V776z M1025,776h-5v-1h5V776z
		 M1015,776h-5v-1h5V776z M1005,776h-5v-1h5V776z M995,776h-5v-1h5V776z M985,776h-5v-1h5V776z M975,776h-5v-1h5V776z M965,776h-5
		v-1h5V776z M955,776h-5v-1h5V776z M945,776h-5v-1h5V776z M935,776h-5v-1h5V776z M925,776h-5v-1h5V776z M915,776h-5v-1h5V776z
		 M905,776h-5v-1h5V776z M895,776h-5v-1h5V776z M885,776h-5v-1h5V776z M875,776h-5v-1h5V776z M865,776h-5v-1h5V776z M855,776h-5v-1
		h5V776z M845,776h-5v-1h5V776z M835,776h-5v-1h5V776z M825,776h-5v-1h5V776z M815,776h-5v-1h5V776z M805,776h-5v-1h5V776z M795,776
		h-5v-1h5V776z M785,776h-5v-1h5V776z M775,776h-5v-1h5V776z M765,776h-5v-1h5V776z M755,776h-5v-1h5V776z M745,776h-5v-1h5V776z
		 M735,776h-5v-1h5V776z M725,776h-5v-1h5V776z M715,776h-5v-1h5V776z M705,776h-5v-1h5V776z M695,776h-5v-1h5V776z M685,776h-5v-1
		h5V776z M675,776h-5v-1h5V776z M665,776h-5v-1h5V776z M655,776h-5v-1h5V776z M645,776h-5v-1h5V776z M635,776h-5v-1h5V776z M625,776
		h-5v-1h5V776z M615,776h-5v-1h5V776z M605,776h-5v-1h5V776z M595,776h-5v-1h5V776z M585,776h-5v-1h5V776z M575,776h-5v-1h5V776z
		 M565,776h-5v-1h5V776z M555,776h-5v-1h5V776z M545,776h-5v-1h5V776z M535,776h-5v-1h5V776z M525,776h-5v-1h5V776z M515,776h-5v-1
		h5V776z M505,776h-5v-1h5V776z M495,776h-5v-1h5V776z M485,776h-5v-1h5V776z M475,776h-5v-1h5V776z M465,776h-5v-1h5V776z M455,776
		h-5v-1h5V776z M445,776h-5v-1h5V776z M435,776h-5v-1h5V776z M425,776h-5v-1h5V776z M415,776h-5v-1h5V776z M405,776h-5v-1h5V776z
		 M395,776h-5v-1h5V776z M385,776h-5v-1h5V776z M375,776h-5v-1h5V776z M365,776h-5v-1h5V776z M355,776h-5v-1h5V776z M345,776h-5v-1
		h5V776z M335,776h-5v-1h5V776z M325,776h-5v-1h5V776z M315,776h-5v-1h5V776z M305,776h-5v-1h5V776z M295,776h-5v-1h5V776z M285,776
		h-5v-1h5V776z M275,776h-5v-1h5V776z M265,776h-5v-1h5V776z M255,776h-5v-1h5V776z M245,776h-5v-1h5V776z M235,776h-5v-1h5V776z
		 M225,776h-5v-1h5V776z M215,776h-5v-1h5V776z M205,776h-5v-1h5V776z M195,776h-5v-1h5V776z M185,776h-5v-1h5V776z M175,776h-5v-1
		h5V776z M165,776h-5v-1h5V776z M155,776h-5v-1h5V776z M145,776h-5v-1h5V776z M135,776h-5v-1h5V776z M125,776h-5v-1h5V776z M115,776
		h-5v-1h5V776z M105,776h-5v-1h5V776z M95,776h-5v-1h5V776z M85,776h-5v-1h5V776z M75,776h-5v-1h5V776z M65,776h-5v-1h5V776z
		 M55,776h-5v-1h5V776z M45,776h-5v-1h5V776z M35,776h-5v-1h5V776z M25,776h-5v-1h5V776z M15,776h-5v-1h5V776z M5,776H0v-1h5V776z"
		/>
	<g class="st3">
		<path class="st1" d="M657.5,775.6h11.2c2.6,0,4.6,0.7,6.1,2.1s2.3,3.3,2.3,5.7s-0.8,4.3-2.3,5.7c-1.5,1.4-3.6,2.1-6.1,2.1h-7.8
			v10.4h-3.4V775.6z M668.2,778.4h-7.3v9.9h7.3c1.8,0,3.1-0.4,4.1-1.3c1-0.9,1.5-2.1,1.5-3.7s-0.5-2.8-1.5-3.6
			S669.9,778.4,668.2,778.4z"/>
		<path class="st1" d="M701.4,801.5h-3.8l-6.9-10.4h-6.1v10.4h-3.4v-25.9h10.9c2.5,0,4.5,0.7,6,2.1c1.6,1.4,2.4,3.3,2.4,5.6
			c0,2-0.6,3.7-1.7,5c-1.1,1.3-2.6,2.2-4.6,2.6L701.4,801.5z M684.6,778.4v9.9h7c1.8,0,3.1-0.4,4.1-1.3c1-0.9,1.5-2.1,1.5-3.7
			s-0.5-2.8-1.5-3.6c-1-0.9-2.4-1.3-4.1-1.3H684.6z"/>
		<path class="st1" d="M722.8,775.6v2.8H709v8.3h12.9v2.8H709v9.1h14.2v2.8h-17.6v-25.9H722.8z"/>
		<path class="st1" d="M736,775.1c1.9,0,3.7,0.3,5.2,0.9c1.5,0.6,3,1.6,4.6,2.9l-2,2.3c-1.4-1.2-2.6-2-3.8-2.5
			c-1.2-0.5-2.5-0.7-4-0.7c-1.8,0-3.2,0.4-4.3,1.2c-1.1,0.8-1.7,1.8-1.7,3c0,1.6,1,2.7,3,3.4c0.9,0.3,2.3,0.7,4.2,1.1
			c3.4,0.8,5.7,1.7,7,2.8c1.3,1,2,2.6,2,4.7c0,2.4-0.9,4.3-2.7,5.8c-1.8,1.5-4.1,2.2-6.9,2.2c-2.2,0-4-0.4-5.6-1.1
			c-1.7-0.7-3.5-1.9-5.3-3.4l2-2.4c1.8,1.5,3.4,2.5,4.7,3.1c1.3,0.6,2.7,0.8,4.2,0.8c1.8,0,3.3-0.4,4.4-1.3c1.1-0.9,1.7-2.1,1.7-3.6
			c0-1.8-1-3-3.1-3.7c-0.9-0.3-2.3-0.7-4.2-1.1c-3.4-0.8-5.7-1.6-6.9-2.6c-1.3-1-1.9-2.5-1.9-4.5c0-2.1,0.9-3.8,2.7-5.2
			C731.3,775.8,733.4,775.1,736,775.1z"/>
		<path class="st1" d="M767.9,775.6v2.8h-13.9v8.3H767v2.8h-12.9v9.1h14.2v2.8h-17.6v-25.9H767.9z"/>
		<path class="st1" d="M790.4,775.6h3.3v25.9h-3.7l-7.7-11.8c-0.6-0.9-1.1-1.7-1.6-2.4c-2.3-3.5-3.9-6-4.7-7.5
			c0.1,3,0.2,6.3,0.2,10.1v11.6h-3.3v-25.9h3.8l7.8,12c0.1,0.2,0.3,0.5,0.5,0.7c0.2,0.3,0.3,0.4,0.3,0.5c1.5,2.3,2.3,3.5,2.3,3.6
			c0.8,1.2,1.8,2.8,2.9,4.8c-0.1-2.4-0.1-5.7-0.1-9.8V775.6z"/>
		<path class="st1" d="M810.6,775c1.7,0,3.2,0.3,4.6,0.9c1.4,0.6,2.9,1.5,4.4,2.9l-1.9,2.3c-1.3-1.1-2.6-1.9-3.7-2.4
			c-1.1-0.5-2.3-0.7-3.5-0.7c-2.7,0-4.9,1-6.6,2.9c-1.6,2-2.4,4.5-2.4,7.6c0,3.1,0.8,5.7,2.4,7.6s3.7,3,6.3,3c1.4,0,2.7-0.3,3.8-0.9
			c1.1-0.6,2.4-1.5,4-2.9l2,2.3c-1.7,1.6-3.2,2.8-4.7,3.5c-1.5,0.7-3.2,1-5,1c-3.8,0-6.8-1.3-9-3.8s-3.3-5.8-3.3-9.8
			s1.1-7.3,3.3-9.8S806.7,775,810.6,775z"/>
		<path class="st1" d="M841.1,775.6v2.8h-13.9v8.3h12.9v2.8h-12.9v9.1h14.2v2.8h-17.6v-25.9H841.1z"/>
		<path class="st1" d="M858,775.6v25.9h-3.4v-25.9H858z"/>
		<path class="st1" d="M881.6,775.6h3.3v25.9h-3.7l-7.7-11.8c-0.6-0.9-1.1-1.7-1.6-2.4c-2.3-3.5-3.9-6-4.7-7.5
			c0.1,3,0.2,6.3,0.2,10.1v11.6h-3.3v-25.9h3.8l7.8,12c0.1,0.2,0.3,0.5,0.5,0.7c0.2,0.3,0.3,0.4,0.3,0.5c1.5,2.3,2.3,3.5,2.3,3.6
			c0.8,1.2,1.8,2.8,2.9,4.8c-0.1-2.4-0.1-5.7-0.1-9.8V775.6z"/>
		<path class="st1" d="M916.3,775.6v2.8h-13.9v8.3h12.9v2.8h-12.9v9.1h14.2v2.8h-17.6v-25.9H916.3z"/>
		<path class="st1" d="M937.3,775.6h3.5l-8.8,25.9h-4.3l-8.8-25.9h3.5l4.3,12.8c1.3,3.9,2.4,7.3,3.2,10.1c0.8-2.7,1.8-6,3.1-10.1
			L937.3,775.6z"/>
		<path class="st1" d="M961.6,775.6v2.8h-13.9v8.3h12.9v2.8h-12.9v9.1h14.2v2.8h-17.6v-25.9H961.6z"/>
		<path class="st1" d="M986.7,801.5H983l-6.9-10.4H970v10.4h-3.4v-25.9h10.9c2.5,0,4.5,0.7,6,2.1c1.6,1.4,2.4,3.3,2.4,5.6
			c0,2-0.6,3.7-1.7,5s-2.6,2.2-4.6,2.6L986.7,801.5z M970,778.4v9.9h7c1.8,0,3.1-0.4,4.1-1.3c1-0.9,1.5-2.1,1.5-3.7
			s-0.5-2.8-1.5-3.6c-1-0.9-2.4-1.3-4.1-1.3H970z"/>
		<path class="st1" d="M1006,775.6h3.6l-9.2,14.8v11h-3.4v-11.1l-9.1-14.8h3.7l7.1,11.8L1006,775.6z"/>
		<path class="st1" d="M1020.7,775.6h9.7c3.6,0,6.4,1.2,8.4,3.6c2,2.4,3,5.5,3,9.4c0,3.9-1,7-3,9.4s-4.8,3.6-8.4,3.6h-9.7V775.6z
			 M1029.8,778.4h-5.8v20.3h5.8c2.7,0,4.8-0.9,6.3-2.7s2.2-4.3,2.2-7.5c0-3.2-0.8-5.6-2.3-7.4S1032.5,778.4,1029.8,778.4z"/>
		<path class="st1" d="M1063.5,775.6v2.8h-13.9v8.3h12.9v2.8h-12.9v9.1h14.2v2.8h-17.6v-25.9H1063.5z"/>
		<path class="st1" d="M1086.2,775.6v2.8h-8.1v23h-3.4v-23h-8.1v-2.8H1086.2z"/>
		<path class="st1" d="M1104.7,801.5l-2.4-6.6h-11.6l-2.4,6.6h-3.4l9.4-25.9h4.4l9.4,25.9H1104.7z M1091.7,792.1h9.6l-1.2-3.4
			c-1.6-4.5-2.8-8-3.6-10.5c-0.6,1.8-1.1,3.3-1.5,4.6c-0.2,0.6-0.4,1.3-0.7,2.1c-0.3,0.9-0.5,1.4-0.6,1.7l-0.8,2.2L1091.7,792.1z"/>
		<path class="st1" d="M1115.3,775.6v25.9h-3.4v-25.9H1115.3z"/>
		<path class="st1" d="M1124.9,775.6v23h12.1v2.8h-15.5v-25.9H1124.9z"/>
	</g>
</g>
</svg>
