<svg xmlns="http://www.w3.org/2000/svg" viewBox="0 0 1080 1080"><defs><style>.cls-1{fill:#fff;}</style></defs><g id="Layer_1" data-name="Layer 1"><polygon class="cls-1" points="912 720 789.43 544.96 735.37 582.81 831.43 720 912 720"/><rect class="cls-1" x="498" y="384" width="72" height="336"/><rect class="cls-1" x="654" y="360" width="72" height="360"/><rect class="cls-1" x="462" y="456" width="156" height="60"/><rect class="cls-1" x="168" y="360" width="72" height="360"/><rect class="cls-1" x="240" y="654" width="102" height="66"/><path class="cls-1" d="M336,492c-63,0-114,78-114,114A114,114,0,0,0,336,720c63,0,114-33,114-114,0-72-51-114-114-114m-6,162H239.66V631l56.4-56.4C305.43,565.2,317.72,558,330,558c24,0,48,18,48,48s-24,48-48,48"/><polygon class="cls-1" points="366.28 504.27 238.31 632.24 197.85 587.85 323.85 461.85 366.28 504.27"/><path class="cls-1" d="M312,360a90,90,0,0,0-86.76,66H309a21,21,0,0,1,14.85,35.85l-57.6,65.67A90,90,0,1,0,312,360"/><rect class="cls-1" x="228" y="624" width="12" height="30"/><polygon class="cls-1" points="216 426 300 426 306 360 216 360 216 426"/><polygon class="cls-1" points="827.15 456 668.75 614.39 708 660 912 456 827.15 456"/></g></svg>