<svg xmlns="http://www.w3.org/2000/svg" xmlns:xlink="http://www.w3.org/1999/xlink" viewBox="0 0 1920 1080"><defs><style>.cls-1,.cls-10,.cls-11,.cls-12,.cls-13,.cls-4,.cls-5,.cls-6,.cls-7,.cls-8,.cls-9{fill:none;}.cls-2{fill:#fff;}.cls-3{clip-path:url(#clip-path);}.cls-10,.cls-11,.cls-12,.cls-13,.cls-4,.cls-5,.cls-6,.cls-7,.cls-8,.cls-9{stroke:#000;stroke-miterlimit:10;}.cls-4{stroke-width:10px;}.cls-5{stroke-width:9px;}.cls-6{stroke-width:8px;}.cls-7{stroke-width:6px;}.cls-8{stroke-width:5px;}.cls-9{stroke-width:4px;}.cls-10{stroke-width:3px;}.cls-11{stroke-width:2px;}.cls-13{stroke-width:7px;}.cls-14{fill:#d8d8d8;}.cls-15{fill:#b8b8b8;}.cls-16{fill:#20221d;}</style><clipPath id="clip-path"><rect class="cls-1" x="-3880" width="1920" height="1080"/></clipPath></defs><g id="Layer_2" data-name="Layer 2"><rect class="cls-2" width="1920" height="1080"/></g><g id="Layer_1" data-name="Layer 1"><g class="cls-3"><polyline class="cls-4" points="68.52 27.28 68.52 81.25 117.57 81.25"/><polyline class="cls-5" points="117.57 -26.69 117.57 27.28 166.62 27.28"/><polyline class="cls-6" points="-29.57 135.22 -29.57 189.19 19.48 189.19"/><polyline class="cls-5" points="19.48 81.25 19.48 135.22 68.52 135.22"/><polyline class="cls-7" points="-5.04 297.13 -5.04 351.11 44 351.11"/><polyline class="cls-8" points="44 243.16 44 297.13 93.05 297.13"/><polyline class="cls-9" points="93.05 189.19 93.05 243.16 142.09 243.16"/><polyline class="cls-10" points="142.09 135.22 142.09 189.19 191.14 189.19"/><polyline class="cls-11" points="191.14 81.25 191.14 135.22 240.18 135.22"/><polyline class="cls-12" points="240.18 27.28 240.18 81.25 289.23 81.25"/><polyline class="cls-11" points="19.48 459.05 19.48 513.01 68.52 513.01"/><polyline class="cls-10" points="68.52 405.07 68.52 459.05 117.57 459.05"/><polyline class="cls-9" points="117.57 351.11 117.57 405.07 166.62 405.07"/><polyline class="cls-8" points="166.62 297.13 166.62 351.11 215.66 351.11"/><polyline class="cls-7" points="215.66 243.16 215.66 297.13 264.71 297.13"/><polyline class="cls-13" points="264.71 189.19 264.71 243.16 313.75 243.16"/><polyline class="cls-4" points="411.84 27.28 411.84 81.25 460.89 81.25"/><polyline class="cls-5" points="460.89 -26.69 460.89 27.28 509.93 27.28"/><polyline class="cls-6" points="313.75 135.22 313.75 189.19 362.8 189.19"/><polyline class="cls-5" points="362.8 81.25 362.8 135.22 411.84 135.22"/><polyline class="cls-12" points="-29.57 513.01 -29.57 566.99 19.48 566.99"/><polyline class="cls-13" points="-5.04 674.92 -5.04 728.89 44 728.89"/><polyline class="cls-4" points="142.09 513.01 142.09 566.99 191.14 566.99"/><polyline class="cls-5" points="191.14 459.05 191.14 513.01 240.18 513.01"/><polyline class="cls-6" points="44 620.96 44 674.92 93.05 674.92"/><polyline class="cls-5" points="93.05 566.99 93.05 620.96 142.09 620.96"/><polyline class="cls-6" points="240.18 405.07 240.18 459.05 289.23 459.05"/><polyline class="cls-13" points="289.23 351.11 289.23 405.07 338.27 405.07"/><polyline class="cls-7" points="338.27 297.13 338.27 351.11 387.32 351.11"/><polyline class="cls-8" points="387.32 243.16 387.32 297.13 436.36 297.13"/><polyline class="cls-9" points="436.36 189.19 436.36 243.16 485.41 243.16"/><polyline class="cls-10" points="485.41 135.22 485.41 189.19 534.46 189.19"/><polyline class="cls-11" points="534.46 81.25 534.46 135.22 583.5 135.22"/><polyline class="cls-12" points="583.5 27.28 583.5 81.25 632.55 81.25"/><polyline class="cls-11" points="362.8 459.05 362.8 513.01 411.84 513.01"/><polyline class="cls-10" points="411.84 405.07 411.84 459.05 460.89 459.05"/><polyline class="cls-9" points="460.89 351.11 460.89 405.07 509.93 405.07"/><polyline class="cls-8" points="509.93 297.13 509.93 351.11 558.98 351.11"/><polyline class="cls-7" points="558.98 243.16 558.98 297.13 608.02 297.13"/><polyline class="cls-13" points="608.02 189.19 608.02 243.16 657.07 243.16"/><polyline class="cls-4" points="755.16 27.28 755.16 81.25 804.21 81.25"/><polyline class="cls-5" points="804.21 -26.69 804.21 27.28 853.25 27.28"/><polyline class="cls-6" points="657.07 135.22 657.07 189.19 706.11 189.19"/><polyline class="cls-5" points="706.11 81.25 706.11 135.22 755.16 135.22"/><polyline class="cls-6" points="-29.57 890.81 -29.57 944.78 19.48 944.78"/><polyline class="cls-13" points="19.48 836.84 19.48 890.81 68.52 890.81"/><polyline class="cls-7" points="68.52 782.87 68.52 836.84 117.57 836.84"/><polyline class="cls-8" points="117.57 728.89 117.57 782.87 166.62 782.87"/><polyline class="cls-9" points="166.62 674.92 166.62 728.89 215.66 728.89"/><polyline class="cls-10" points="215.66 620.96 215.66 674.92 264.71 674.92"/><polyline class="cls-11" points="264.71 566.99 264.71 620.96 313.75 620.96"/><polyline class="cls-12" points="313.75 513.01 313.75 566.99 362.8 566.99"/><polyline class="cls-12" points="44 998.75 44 1052.72 93.05 1052.72"/><polyline class="cls-11" points="93.05 944.78 93.05 998.75 142.09 998.75"/><polyline class="cls-10" points="142.09 890.81 142.09 944.78 191.14 944.78"/><polyline class="cls-9" points="191.14 836.84 191.14 890.81 240.18 890.81"/><polyline class="cls-8" points="240.18 782.87 240.18 836.84 289.23 836.84"/><polyline class="cls-7" points="289.23 728.89 289.23 782.87 338.27 782.87"/><polyline class="cls-13" points="338.27 674.92 338.27 728.89 387.32 728.89"/><polyline class="cls-4" points="485.41 513.01 485.41 566.99 534.46 566.99"/><polyline class="cls-5" points="534.46 459.05 534.46 513.01 583.5 513.01"/><polyline class="cls-6" points="387.32 620.96 387.32 674.92 436.36 674.92"/><polyline class="cls-5" points="436.36 566.99 436.36 620.96 485.41 620.96"/><polyline class="cls-6" points="583.5 405.07 583.5 459.05 632.55 459.05"/><polyline class="cls-13" points="632.55 351.11 632.55 405.07 681.59 405.07"/><polyline class="cls-7" points="681.59 297.13 681.59 351.11 730.64 351.11"/><polyline class="cls-8" points="730.64 243.16 730.64 297.13 779.68 297.13"/><polyline class="cls-9" points="779.68 189.19 779.68 243.16 828.73 243.16"/><polyline class="cls-10" points="828.73 135.22 828.73 189.19 877.77 189.19"/><polyline class="cls-11" points="877.77 81.25 877.77 135.22 926.82 135.22"/><polyline class="cls-12" points="926.82 27.28 926.82 81.25 975.86 81.25"/><polyline class="cls-11" points="706.11 459.05 706.11 513.01 755.16 513.01"/><polyline class="cls-10" points="755.16 405.07 755.16 459.05 804.21 459.05"/><polyline class="cls-9" points="804.21 351.11 804.21 405.07 853.25 405.07"/><polyline class="cls-8" points="853.25 297.13 853.25 351.11 902.29 351.11"/><polyline class="cls-7" points="902.29 243.16 902.29 297.13 951.34 297.13"/><polyline class="cls-13" points="951.34 189.19 951.34 243.16 1000.39 243.16"/><polyline class="cls-4" points="1098.48 27.28 1098.48 81.25 1147.52 81.25"/><polyline class="cls-5" points="1147.52 -26.69 1147.52 27.28 1196.57 27.28"/><polyline class="cls-6" points="1000.39 135.22 1000.39 189.19 1049.43 189.19"/><polyline class="cls-5" points="1049.43 81.25 1049.43 135.22 1098.48 135.22"/><polyline class="cls-4" points="215.66 998.75 215.66 1052.72 264.71 1052.72"/><polyline class="cls-5" points="264.71 944.78 264.71 998.75 313.75 998.75"/><polyline class="cls-5" points="166.62 1052.72 166.62 1106.69 215.66 1106.69"/><polyline class="cls-6" points="313.75 890.81 313.75 944.78 362.8 944.78"/><polyline class="cls-13" points="362.8 836.84 362.8 890.81 411.84 890.81"/><polyline class="cls-7" points="411.84 782.87 411.84 836.84 460.89 836.84"/><polyline class="cls-8" points="460.89 728.89 460.89 782.87 509.93 782.87"/><polyline class="cls-9" points="509.93 674.92 509.93 728.89 558.98 728.89"/><polyline class="cls-10" points="558.98 620.96 558.98 674.92 608.02 674.92"/><polyline class="cls-11" points="608.02 566.99 608.02 620.96 657.07 620.96"/><polyline class="cls-12" points="657.07 513.01 657.07 566.99 706.11 566.99"/></g><rect class="cls-14" x="425.14" y="202.29" width="1093.83" height="699.54"/><rect class="cls-15" x="410.69" y="189.14" width="1097.24" height="701.73"/><path class="cls-16" d="M1169.48,286.47h3.67v17.39a7.11,7.11,0,0,1-2.32,5.64,9.18,9.18,0,0,1-6.25,2,14.77,14.77,0,0,1-8.42-2.63l1.94-2.88a19,19,0,0,0,3.44,1.73,8.85,8.85,0,0,0,3,.51,4.84,4.84,0,0,0,3.45-1.19,4.62,4.62,0,0,0,1.26-3.53v-1.91a6.3,6.3,0,0,1-5.51,2.59,7.19,7.19,0,0,1-5.68-2.57,10.81,10.81,0,0,1,0-13.18,7.16,7.16,0,0,1,5.68-2.57,6.3,6.3,0,0,1,5.73,2.88Zm-4.9,14.4a4.27,4.27,0,0,0,3.46-1.62,6.4,6.4,0,0,0,1.33-4.21,6.29,6.29,0,0,0-1.33-4.16,4.28,4.28,0,0,0-3.46-1.6,4.24,4.24,0,0,0-3.45,1.58,6.37,6.37,0,0,0-1.3,4.18,6.5,6.5,0,0,0,1.3,4.23A4.2,4.2,0,0,0,1164.58,300.87Z"/><path class="cls-16" d="M1191.55,299l2.27,2.41a12.59,12.59,0,0,1-3.8,2.79,10.22,10.22,0,0,1-4.19.85,9,9,0,0,1-6.74-2.6,9.43,9.43,0,0,1-2.52-6.87,10.14,10.14,0,0,1,2.43-7,8.26,8.26,0,0,1,6.47-2.71,8,8,0,0,1,6.14,2.35,9.29,9.29,0,0,1,2.18,6.54c0,.46,0,1-.08,1.62h-13.25a6.22,6.22,0,0,0,1.62,3.89,5.1,5.1,0,0,0,3.82,1.44,5.92,5.92,0,0,0,2.77-.58A14.07,14.07,0,0,0,1191.55,299Zm-6.19-10a4.42,4.42,0,0,0-3.15,1.17,5.84,5.84,0,0,0-1.64,3.33h9.33a4.9,4.9,0,0,0-1.3-3.3A4.35,4.35,0,0,0,1185.36,289Z"/><path class="cls-16" d="M1204,285.9a12.15,12.15,0,0,1,4,.61,11.8,11.8,0,0,1,3.58,2.12l-2.16,2.63a11.35,11.35,0,0,0-2.82-1.71,7.76,7.76,0,0,0-2.72-.45,4.52,4.52,0,0,0-2.52.61,1.83,1.83,0,0,0-.94,1.59c0,.76.58,1.3,1.73,1.62.34.12,1.26.36,2.77.72a14.09,14.09,0,0,1,5.4,2.07,4.24,4.24,0,0,1,1.55,3.58,5,5,0,0,1-2,4.19,8.64,8.64,0,0,1-5.47,1.61,12.39,12.39,0,0,1-4.47-.76,14.38,14.38,0,0,1-4.1-2.63l2.3-2.59a14.59,14.59,0,0,0,3.28,2.18,7.7,7.7,0,0,0,3.06.59,4.79,4.79,0,0,0,2.56-.63,1.93,1.93,0,0,0,1-1.71,1.91,1.91,0,0,0-1-1.65,19.66,19.66,0,0,0-3.69-1.05,13.69,13.69,0,0,1-5.24-2,4.1,4.1,0,0,1-1.39-3.42,4.86,4.86,0,0,1,2-4A8.39,8.39,0,0,1,1204,285.9Z"/><path class="cls-16" d="M1221.83,285.9a12.25,12.25,0,0,1,4.06.61,12,12,0,0,1,3.58,2.12l-2.16,2.63a11.21,11.21,0,0,0-2.83-1.71,7.72,7.72,0,0,0-2.72-.45,4.56,4.56,0,0,0-2.52.61,1.84,1.84,0,0,0-.93,1.59c0,.76.57,1.3,1.72,1.62.34.12,1.26.36,2.78.72a14.09,14.09,0,0,1,5.4,2.07,4.26,4.26,0,0,1,1.55,3.58,5.05,5.05,0,0,1-2.06,4.19,8.62,8.62,0,0,1-5.47,1.61,12.29,12.29,0,0,1-4.46-.76,14.28,14.28,0,0,1-4.11-2.63l2.3-2.59a14.81,14.81,0,0,0,3.28,2.18,7.7,7.7,0,0,0,3.06.59,4.76,4.76,0,0,0,2.56-.63,1.89,1.89,0,0,0,0-3.36,19.66,19.66,0,0,0-3.69-1.05,13.69,13.69,0,0,1-5.24-2,4.13,4.13,0,0,1-1.38-3.42,4.85,4.85,0,0,1,2-4A8.42,8.42,0,0,1,1221.83,285.9Z"/><path class="cls-16" d="M1240.85,285.9a8.45,8.45,0,0,1,5.63,1.69,5.73,5.73,0,0,1,2,4.61v12.35h-3.56v-2.06c-1.21,1.76-3.2,2.63-6,2.63a7.83,7.83,0,0,1-4.7-1.29,4.43,4.43,0,0,1-1.78-3.82,4.73,4.73,0,0,1,2-4.12,16.16,16.16,0,0,1,6.09-2.22l4.14-.75v-.65a2.77,2.77,0,0,0-1-2.29,4.23,4.23,0,0,0-2.73-.81,5.94,5.94,0,0,0-2.9.67,13.12,13.12,0,0,0-2.9,2.32l-2.49-2.3A10.27,10.27,0,0,1,1240.85,285.9ZM1239.51,302a5.66,5.66,0,0,0,3.73-1.2,4.06,4.06,0,0,0,1.46-3.3V295.8l-3.13.65a14.41,14.41,0,0,0-4,1.31,2.23,2.23,0,0,0-1.18,2,1.83,1.83,0,0,0,.84,1.59A4.13,4.13,0,0,0,1239.51,302Z"/><path class="cls-16" d="M1257.05,299.94v4.61h-4.47v-4.61Z"/><path class="cls-16" d="M1276.06,289.35l-2.52,2.41a9.19,9.19,0,0,0-2.48-2,5.57,5.57,0,0,0-2.45-.54,4.29,4.29,0,0,0-3.71,1.8,7.29,7.29,0,0,0-1.33,4.47,7.08,7.08,0,0,0,1.35,4.45,4.42,4.42,0,0,0,3.69,1.74,5.17,5.17,0,0,0,2.54-.63,11.4,11.4,0,0,0,2.61-2.25l2.59,2.2a11.24,11.24,0,0,1-3.56,3.15,9.24,9.24,0,0,1-4.22.92,8.62,8.62,0,0,1-6.55-2.61,11,11,0,0,1,0-14,8.72,8.72,0,0,1,6.59-2.62,9.45,9.45,0,0,1,4,.79A10.88,10.88,0,0,1,1276.06,289.35Z"/><path class="cls-16" d="M1286.9,285.9a8.76,8.76,0,0,1,6.61,2.68,10.57,10.57,0,0,1,0,13.82,9.53,9.53,0,0,1-13.25,0,10.6,10.6,0,0,1,0-13.86A8.8,8.8,0,0,1,1286.9,285.9Zm0,3.34a4.65,4.65,0,0,0-3.78,1.71,8,8,0,0,0,0,9.08,5,5,0,0,0,7.53,0,8.06,8.06,0,0,0,0-9.08A4.62,4.62,0,0,0,1286.9,289.24Z"/><path class="cls-16" d="M1166,335.41a6.45,6.45,0,0,1,4.77,1.71,6.14,6.14,0,0,1,1.71,4.55v12.39h-4V342.9a4.36,4.36,0,0,0-1-3,3.59,3.59,0,0,0-2.77-1.06,3.9,3.9,0,0,0-2.92,1.19,4.15,4.15,0,0,0-1.15,3v11.06h-4V328.49h4v9.29A6.18,6.18,0,0,1,1166,335.41Z"/><path class="cls-16" d="M1190.87,348.55l2.27,2.41a12.72,12.72,0,0,1-3.8,2.79,10.07,10.07,0,0,1-4.2.85,9,9,0,0,1-6.73-2.59,9.47,9.47,0,0,1-2.52-6.88,10.14,10.14,0,0,1,2.43-7,8.24,8.24,0,0,1,6.46-2.71,7.94,7.94,0,0,1,6.14,2.35,9.26,9.26,0,0,1,2.18,6.54c0,.46,0,1-.07,1.62h-13.25a6.11,6.11,0,0,0,1.62,3.89,5.08,5.08,0,0,0,3.82,1.44,5.94,5.94,0,0,0,2.77-.58A14.07,14.07,0,0,0,1190.87,348.55Zm-6.19-10a4.43,4.43,0,0,0-3.16,1.17,5.9,5.9,0,0,0-1.63,3.33h9.32a4.9,4.9,0,0,0-1.29-3.3A4.38,4.38,0,0,0,1184.68,338.54Z"/><path class="cls-16" d="M1200.7,328.49v25.57h-4V328.49Z"/><path class="cls-16" d="M1209.27,328.49v25.57h-4V328.49Z"/><path class="cls-16" d="M1222,335.41a8.76,8.76,0,0,1,6.61,2.68,10.59,10.59,0,0,1,0,13.83,9.55,9.55,0,0,1-13.26,0,10.63,10.63,0,0,1,0-13.86A8.84,8.84,0,0,1,1222,335.41Zm0,3.34a4.62,4.62,0,0,0-3.78,1.71,8,8,0,0,0,0,9.08,5,5,0,0,0,7.52,0,8,8,0,0,0,0-9.08A4.58,4.58,0,0,0,1222,338.75Z"/><path class="cls-16" d="M1258,337l-2,9.54a8.29,8.29,0,0,0-.21,1.83,2.14,2.14,0,0,0,2.41,2.45,3.44,3.44,0,0,0,3-2,10.26,10.26,0,0,0,1.17-5.23q0-5.65-3.37-8.72a12.53,12.53,0,0,0-8.77-3.06,12.34,12.34,0,0,0-9.43,3.76,13.74,13.74,0,0,0-3.53,9.78,12.52,12.52,0,0,0,3.51,9.33q3.51,3.45,10,3.45h8.06v2.74H1250q-7.41,0-11.75-4.27t-4.34-11.32a16,16,0,0,1,4.41-11.79A15.14,15.14,0,0,1,1250,329a15.42,15.42,0,0,1,11.15,4,13.58,13.58,0,0,1,4.3,10.56,11.34,11.34,0,0,1-2.09,7.13,6.55,6.55,0,0,1-5.44,2.7c-2.78,0-4.45-1.06-5-3.2a6.5,6.5,0,0,1-5.8,3.2,5.44,5.44,0,0,1-4.18-1.54,6.14,6.14,0,0,1-1.44-4.33,12.34,12.34,0,0,1,1-5,10.69,10.69,0,0,1,3.08-4.16,6.45,6.45,0,0,1,4.39-1.58,5.19,5.19,0,0,1,2.81.72,3.56,3.56,0,0,1,1.55,1.94l.4-2.37Zm-10.37,13.5a3.78,3.78,0,0,0,3-1.35,8.45,8.45,0,0,0,1.88-3.19,10.23,10.23,0,0,0,.52-3.27,3.6,3.6,0,0,0-.65-2.38,2.54,2.54,0,0,0-2-.76c-1.47-.07-2.73.73-3.8,2.42a9.48,9.48,0,0,0-1.57,5.29C1245,349.45,1245.83,350.53,1247.58,350.53Z"/><path class="cls-16" d="M1281.93,336h3.67v17.39a7.11,7.11,0,0,1-2.32,5.64,9.18,9.18,0,0,1-6.25,2,14.77,14.77,0,0,1-8.42-2.63l1.94-2.88a19,19,0,0,0,3.44,1.73,8.85,8.85,0,0,0,3,.51,4.84,4.84,0,0,0,3.45-1.19,4.62,4.62,0,0,0,1.26-3.53v-1.91a6.29,6.29,0,0,1-5.5,2.59,7.16,7.16,0,0,1-5.69-2.57,10.81,10.81,0,0,1,0-13.18,7.16,7.16,0,0,1,5.69-2.57,6.29,6.29,0,0,1,5.72,2.88Zm-4.9,14.4a4.27,4.27,0,0,0,3.46-1.62,6.4,6.4,0,0,0,1.33-4.21,6.29,6.29,0,0,0-1.33-4.16,4.28,4.28,0,0,0-3.46-1.6,4.24,4.24,0,0,0-3.45,1.58,6.37,6.37,0,0,0-1.3,4.18,6.5,6.5,0,0,0,1.3,4.23A4.2,4.2,0,0,0,1277,350.38Z"/><path class="cls-16" d="M1304,348.55l2.27,2.41a12.59,12.59,0,0,1-3.8,2.79,10.06,10.06,0,0,1-4.19.85,9,9,0,0,1-6.74-2.59,9.47,9.47,0,0,1-2.52-6.88,10.1,10.1,0,0,1,2.44-7,8.24,8.24,0,0,1,6.46-2.71,8,8,0,0,1,6.14,2.35,9.31,9.31,0,0,1,2.18,6.54c0,.46,0,1-.08,1.62h-13.25a6.22,6.22,0,0,0,1.62,3.89,5.1,5.1,0,0,0,3.82,1.44,5.92,5.92,0,0,0,2.77-.58A14.07,14.07,0,0,0,1304,348.55Zm-6.19-10a4.42,4.42,0,0,0-3.15,1.17A5.91,5.91,0,0,0,1293,343h9.33a4.9,4.9,0,0,0-1.3-3.3A4.35,4.35,0,0,0,1297.81,338.54Z"/><path class="cls-16" d="M1316.46,335.41a12.15,12.15,0,0,1,4,.61,11.8,11.8,0,0,1,3.58,2.12l-2.16,2.63a11.35,11.35,0,0,0-2.82-1.71,7.76,7.76,0,0,0-2.72-.45,4.52,4.52,0,0,0-2.52.61,1.83,1.83,0,0,0-.94,1.59c0,.77.58,1.31,1.73,1.62.34.12,1.26.36,2.77.72a14.09,14.09,0,0,1,5.4,2.07,4.24,4.24,0,0,1,1.55,3.58,5.07,5.07,0,0,1-2.05,4.2,8.7,8.7,0,0,1-5.47,1.6,12.18,12.18,0,0,1-4.47-.76,14.38,14.38,0,0,1-4.1-2.63l2.3-2.59a14.59,14.59,0,0,0,3.28,2.18,7.7,7.7,0,0,0,3.06.59,4.79,4.79,0,0,0,2.56-.63,1.93,1.93,0,0,0,1-1.71,1.91,1.91,0,0,0-1-1.65,19.66,19.66,0,0,0-3.69-1,13.52,13.52,0,0,1-5.24-2,4.1,4.1,0,0,1-1.39-3.42,4.86,4.86,0,0,1,2-4A8.39,8.39,0,0,1,1316.46,335.41Z"/><path class="cls-16" d="M1334.29,335.41a12.23,12.23,0,0,1,4,.61,12,12,0,0,1,3.58,2.12l-2.16,2.63a11.21,11.21,0,0,0-2.83-1.71,7.72,7.72,0,0,0-2.72-.45,4.56,4.56,0,0,0-2.52.61,1.84,1.84,0,0,0-.93,1.59c0,.77.57,1.31,1.72,1.62.34.12,1.27.36,2.78.72a14.09,14.09,0,0,1,5.4,2.07,4.26,4.26,0,0,1,1.55,3.58,5.08,5.08,0,0,1-2.06,4.2,8.68,8.68,0,0,1-5.47,1.6,12.08,12.08,0,0,1-4.46-.76,14.28,14.28,0,0,1-4.11-2.63l2.31-2.59a14.56,14.56,0,0,0,3.27,2.18,7.7,7.7,0,0,0,3.06.59,4.74,4.74,0,0,0,2.56-.63,1.89,1.89,0,0,0,0-3.36,19.66,19.66,0,0,0-3.69-1,13.59,13.59,0,0,1-5.24-2A4.13,4.13,0,0,1,1327,341a4.85,4.85,0,0,1,2-4A8.43,8.43,0,0,1,1334.29,335.41Z"/><path class="cls-16" d="M1353.3,335.41a8.45,8.45,0,0,1,5.63,1.69,5.73,5.73,0,0,1,2,4.61v12.35h-3.56V352c-1.2,1.75-3.2,2.62-6,2.62a7.83,7.83,0,0,1-4.7-1.29,4.43,4.43,0,0,1-1.78-3.82,4.73,4.73,0,0,1,2-4.12,16.16,16.16,0,0,1,6.09-2.22l4.14-.75v-.65a2.77,2.77,0,0,0-1-2.29,4.23,4.23,0,0,0-2.73-.81,5.94,5.94,0,0,0-2.9.67,13.12,13.12,0,0,0-2.9,2.32l-2.49-2.3A10.27,10.27,0,0,1,1353.3,335.41Zm-1.34,16a5.66,5.66,0,0,0,3.73-1.2,4.06,4.06,0,0,0,1.46-3.3v-1.65L1354,346a14.41,14.41,0,0,0-4,1.31,2.23,2.23,0,0,0-1.18,2,1.82,1.82,0,0,0,.84,1.59A4.13,4.13,0,0,0,1352,351.46Z"/><path class="cls-16" d="M1369.5,349.45v4.61H1365v-4.61Z"/><path class="cls-16" d="M1388.51,338.86l-2.52,2.41a9.19,9.19,0,0,0-2.48-2,5.57,5.57,0,0,0-2.45-.54,4.29,4.29,0,0,0-3.71,1.8A7.31,7.31,0,0,0,1376,345a7.08,7.08,0,0,0,1.35,4.45,4.42,4.42,0,0,0,3.69,1.74,5.14,5.14,0,0,0,2.54-.63,11.4,11.4,0,0,0,2.61-2.25l2.59,2.2a11.24,11.24,0,0,1-3.56,3.15,9.21,9.21,0,0,1-4.22.92,8.63,8.63,0,0,1-6.55-2.61,11,11,0,0,1,0-14,8.7,8.7,0,0,1,6.58-2.62,9.45,9.45,0,0,1,4,.79A10.88,10.88,0,0,1,1388.51,338.86Z"/><path class="cls-16" d="M1399.35,335.41a8.76,8.76,0,0,1,6.61,2.68,10.59,10.59,0,0,1,0,13.83,9.54,9.54,0,0,1-13.25,0,10.6,10.6,0,0,1,0-13.86A8.8,8.8,0,0,1,1399.35,335.41Zm0,3.34a4.65,4.65,0,0,0-3.78,1.71,8.06,8.06,0,0,0,0,9.08,5,5,0,0,0,7.53,0,8.06,8.06,0,0,0,0-9.08A4.62,4.62,0,0,0,1399.35,338.75Z"/><path class="cls-16" d="M513.75,577.37a11.35,11.35,0,0,1,9,3.74,15.4,15.4,0,0,1,0,19.23,11.35,11.35,0,0,1-9,3.74,11.58,11.58,0,0,1-9-3.76,15.24,15.24,0,0,1,0-19.19A11.58,11.58,0,0,1,513.75,577.37Zm5.84,6.39a7.75,7.75,0,0,0-11.67,0,12.13,12.13,0,0,0,0,13.93,7.75,7.75,0,0,0,11.67,0,12.17,12.17,0,0,0,0-13.93Z"/><path class="cls-16" d="M538.09,580.79a2.39,2.39,0,0,0-1.87.64,3.23,3.23,0,0,0-.58,2.13v1.87h3.5v3h-3.5v15.09h-4V588.42h-3.2v-3h3.2v-2.16a5.84,5.84,0,0,1,1.46-4.3,5.73,5.73,0,0,1,4.23-1.46,10.87,10.87,0,0,1,3.75.65l-.72,3A8.24,8.24,0,0,0,538.09,580.79Zm11.92,0a2.32,2.32,0,0,0-1.84.61,3.47,3.47,0,0,0-.5,2.13v1.87h4.18v3h-4.18v15.09h-4V588.42h-2.92v-3h2.92v-2.16q0-5.76,5.47-5.76a11.42,11.42,0,0,1,3.1.43l-.5,3.06A12.42,12.42,0,0,0,550,580.82Zm4.61-2.59h4v4.07h-4Zm0,25.28V585.43h4v18.08Z"/><path class="cls-16" d="M578.49,588.31,576,590.72a9.19,9.19,0,0,0-2.48-2,5.57,5.57,0,0,0-2.45-.54,4.3,4.3,0,0,0-3.71,1.8,7.31,7.31,0,0,0-1.33,4.47,7.08,7.08,0,0,0,1.35,4.45,4.42,4.42,0,0,0,3.69,1.74,5.14,5.14,0,0,0,2.54-.63,11.19,11.19,0,0,0,2.61-2.25l2.59,2.2a11.14,11.14,0,0,1-3.56,3.15,9.21,9.21,0,0,1-4.22.92,8.63,8.63,0,0,1-6.55-2.61,11,11,0,0,1,0-14,8.71,8.71,0,0,1,6.59-2.62,9.44,9.44,0,0,1,4,.79A10.77,10.77,0,0,1,578.49,588.31Z"/><path class="cls-16" d="M595.09,598l2.27,2.41a12.59,12.59,0,0,1-3.8,2.79,10.06,10.06,0,0,1-4.19.85,9,9,0,0,1-6.74-2.59,9.47,9.47,0,0,1-2.52-6.88,10.14,10.14,0,0,1,2.43-7,8.27,8.27,0,0,1,6.47-2.71,8,8,0,0,1,6.14,2.35,9.29,9.29,0,0,1,2.18,6.54c0,.46,0,1-.08,1.62H584a6.22,6.22,0,0,0,1.62,3.89,5.1,5.1,0,0,0,3.82,1.44,5.92,5.92,0,0,0,2.77-.58A14.07,14.07,0,0,0,595.09,598Zm-6.19-10a4.42,4.42,0,0,0-3.15,1.17,5.91,5.91,0,0,0-1.64,3.33h9.33a4.9,4.9,0,0,0-1.3-3.3A4.35,4.35,0,0,0,588.9,588Z"/><path class="cls-16" d="M627.5,577.94H630v25.57h-2.91L619,591.3q-4-6-6.62-10.26.14,3.78.14,9.76v12.71H610V577.94H613l8,12.17,1.37,2.13q3.6,5.5,5.29,8.21c-.09-2.52-.14-5.78-.14-9.76Z"/><path class="cls-16" d="M642.91,585.65A7.88,7.88,0,0,1,649,588.2a10.51,10.51,0,0,1,0,13.22,8.48,8.48,0,0,1-12.14,0,10.51,10.51,0,0,1,0-13.22A7.84,7.84,0,0,1,642.91,585.65Zm4.34,3.94a5.69,5.69,0,0,0-8.66,0,8.06,8.06,0,0,0-1.62,5.24,7.93,7.93,0,0,0,1.64,5.17,5.67,5.67,0,0,0,8.64,0,7.93,7.93,0,0,0,1.64-5.17A8,8,0,0,0,647.25,589.59Z"/><path class="cls-16" d="M657.6,600.19v3.32h-3v-3.32Z"/><path class="cls-16" d="M683.92,595.55h3.79v2.05h-3.79v5.91h-2.37V597.6H668.84v-2.12L679.31,579h2.74L671.5,595.55h10v-5.83h2.37Z"/><path class="cls-16" d="M696.71,579h1.8v24.49h-2.42V582.15l-5.65,4-1.19-1.69Z"/><path class="cls-16" d="M714.39,578.48a8.25,8.25,0,0,1,6.46,2.63,9.67,9.67,0,0,1,2.36,6.7,13.87,13.87,0,0,1-1.88,7.06,30.49,30.49,0,0,1-5.79,6.87l-1.87,1.77h-3.28v0l3.78-3.42a23.93,23.93,0,0,0,6-7.71,7.83,7.83,0,0,1-6.27,2.63,7.74,7.74,0,0,1-5.9-2.39,8.47,8.47,0,0,1,.12-11.67A8.44,8.44,0,0,1,714.39,578.48Zm-.18,14.41a6.39,6.39,0,0,0,4.68-1.75,6.47,6.47,0,0,0,.05-8.82,6.2,6.2,0,0,0-10.75,4.41,6.19,6.19,0,0,0,1.62,4.44A5.78,5.78,0,0,0,714.21,592.89Z"/><path class="cls-16" d="M730.37,600.19v3.32l-1.94,4.14H727l1.7-4.14h-1.52v-3.32Z"/><path class="cls-16" d="M759.61,603.51,757,596.34H745.39l-2.56,7.17h-2.59l9.33-25.57h3.31l9.33,25.57Zm-13.43-9.33h10.05L755,590.65l-.54-1.44q-2.46-6.91-3.24-9.4-.84,2.75-3.32,9.65l-.43,1.19Z"/><path class="cls-16" d="M773.66,577.4a13.46,13.46,0,0,1,5,.87,15.71,15.71,0,0,1,4.44,2.77l-1.47,1.76a13.56,13.56,0,0,0-3.84-2.46,10.65,10.65,0,0,0-4-.74,7.65,7.65,0,0,0-4.59,1.29,3.94,3.94,0,0,0-1.78,3.32q0,2.6,3.09,3.67a43,43,0,0,0,4.25,1.15q4.86,1.15,6.81,2.76a5.54,5.54,0,0,1,1.94,4.55,6.89,6.89,0,0,1-2.55,5.58,9.91,9.91,0,0,1-6.56,2.13,14,14,0,0,1-5.38-1,20.53,20.53,0,0,1-5.13-3.26l1.48-1.8a18.32,18.32,0,0,0,4.82,3.06,11,11,0,0,0,4.21.79,7.29,7.29,0,0,0,4.77-1.48,4.81,4.81,0,0,0,1.82-4q0-2.94-3.2-4.1a30.47,30.47,0,0,0-4.25-1.15c-3.29-.75-5.52-1.58-6.7-2.51a5.49,5.49,0,0,1-1.87-4.37,5.91,5.91,0,0,1,2.56-5A10.12,10.12,0,0,1,773.66,577.4Z"/><path class="cls-16" d="M788.2,577.94h10.41a8.84,8.84,0,0,1,6,2,7.85,7.85,0,0,1,0,11,8.7,8.7,0,0,1-6,2h-7.85v10.62H788.2Zm10.08,2.13h-7.52v10.69h7.52a6.55,6.55,0,0,0,4.45-1.39,5.7,5.7,0,0,0,0-7.92A6.6,6.6,0,0,0,798.28,580.07Z"/><path class="cls-16" d="M830,577.4a11.7,11.7,0,0,1,4.39.81,16.9,16.9,0,0,1,4.36,2.76l-1.44,1.72q-3.78-3.09-7.31-3.09a8.58,8.58,0,0,0-6.92,3.09,13.76,13.76,0,0,0,0,16,8.17,8.17,0,0,0,6.66,3.13,8.32,8.32,0,0,0,4-.92,19.48,19.48,0,0,0,4-3.08l1.58,1.7a18.29,18.29,0,0,1-4.61,3.49,11,11,0,0,1-4.9,1,10.79,10.79,0,0,1-8.62-3.71,16.11,16.11,0,0,1,0-19.27A11.17,11.17,0,0,1,830,577.4Z"/><path class="cls-16" d="M850.17,585.65a7.88,7.88,0,0,1,6.09,2.55,10.51,10.51,0,0,1,0,13.22,8.48,8.48,0,0,1-12.14,0,10.51,10.51,0,0,1,0-13.22A7.84,7.84,0,0,1,850.17,585.65Zm4.34,3.94a5.69,5.69,0,0,0-8.66,0,8.06,8.06,0,0,0-1.62,5.24,7.93,7.93,0,0,0,1.64,5.17,5.67,5.67,0,0,0,8.64,0,7.93,7.93,0,0,0,1.64-5.17A8,8,0,0,0,854.51,589.59Z"/><path class="cls-16" d="M880.42,585.65a5.34,5.34,0,0,1,5.79,5.72v12.14h-2.37V592q0-4.39-3.86-4.39A4,4,0,0,0,876.8,589a5,5,0,0,0-1.21,3.47v11.06h-2.38V592q0-4.39-3.85-4.39a4.2,4.2,0,0,0-3,1.13,4.54,4.54,0,0,0-1.36,3v11.78h-2.38V586.12h2.23v2.12a5.51,5.51,0,0,1,5-2.59q3.68,0,5,2.91A6.06,6.06,0,0,1,880.42,585.65Z"/><path class="cls-16" d="M899.72,585.68a6.92,6.92,0,0,1,5.51,2.56,11.07,11.07,0,0,1,0,13.14,6.89,6.89,0,0,1-5.51,2.56,6.55,6.55,0,0,1-6-3V610h-2.37V586.12h2.23V589A6.61,6.61,0,0,1,899.72,585.68Zm-.22,16.24a4.69,4.69,0,0,0,3.94-2,9.65,9.65,0,0,0,0-10.3,4.68,4.68,0,0,0-4-2,5.34,5.34,0,0,0-4.28,1.91,9.18,9.18,0,0,0,0,10.43A5.36,5.36,0,0,0,899.5,601.92Z"/><path class="cls-16" d="M914,577.94v25.57H911.6V577.94Z"/><path class="cls-16" d="M932.48,598.83l1.52,1.44a12.28,12.28,0,0,1-3.59,2.86,9,9,0,0,1-3.94.85,7.86,7.86,0,0,1-6.09-2.49,9.35,9.35,0,0,1-2.26-6.55,9.89,9.89,0,0,1,2.23-6.72,7.4,7.4,0,0,1,5.87-2.57,7.3,7.3,0,0,1,5.63,2.23,8.49,8.49,0,0,1,2.07,6,9.71,9.71,0,0,1-.07,1.12H920.53a8.77,8.77,0,0,0,1.58,5,5.08,5.08,0,0,0,4.36,2,6.15,6.15,0,0,0,3-.69A13.64,13.64,0,0,0,932.48,598.83Zm-6.26-11.24a5.23,5.23,0,0,0-3.8,1.46,6.72,6.72,0,0,0-1.82,4.16h10.95a6.06,6.06,0,0,0-1.48-4.11A5,5,0,0,0,926.22,587.59Z"/><path class="cls-16" d="M951,603.51h-2.67l-5-7.49-5.11,7.49h-2.63l6.3-9.08-5.83-8.31h2.66l4.61,6.69,4.54-6.69h2.59l-5.72,8.21Z"/><path class="cls-16" d="M519.73,644l-9.25-13.65-4.83,4.93V644h-2.56V618.45h2.56v13.76L519,618.45h3.14L512.2,628.6,522.65,644Z"/><path class="cls-16" d="M532.3,626.16a7.88,7.88,0,0,1,6.08,2.55,10.51,10.51,0,0,1,0,13.22,8.49,8.49,0,0,1-12.13,0,10.51,10.51,0,0,1,0-13.22A7.83,7.83,0,0,1,532.3,626.16Zm4.34,3.94a5.35,5.35,0,0,0-4.34-2,5.29,5.29,0,0,0-4.32,2,8.06,8.06,0,0,0-1.62,5.24,7.92,7.92,0,0,0,1.63,5.17,5.69,5.69,0,0,0,8.65,0,7.92,7.92,0,0,0,1.63-5.17A8,8,0,0,0,536.64,630.1Z"/><path class="cls-16" d="M551.31,626.44A8.61,8.61,0,0,1,554,627l-.46,1.91a7.87,7.87,0,0,0-2.27-.36,3.6,3.6,0,0,0-3,1.56,7.07,7.07,0,0,0-1.15,4.27V644h-2.38v-17.4H547v2.71a4.7,4.7,0,0,1,1.71-2.11A4.47,4.47,0,0,1,551.31,626.44Z"/><path class="cls-16" d="M568.59,618.45H571V644h-2.23v-3a6.59,6.59,0,0,1-6.16,3.39,6.89,6.89,0,0,1-5.51-2.56,11,11,0,0,1,0-13.14,7,7,0,0,1,5.54-2.56,6.47,6.47,0,0,1,5.94,3Zm-5.83,24a5.36,5.36,0,0,0,4.3-1.91,7.7,7.7,0,0,0,1.64-5.18,7.88,7.88,0,0,0-1.62-5.24,5.38,5.38,0,0,0-4.32-1.93,4.68,4.68,0,0,0-3.91,2,8.43,8.43,0,0,0-1.49,5.19,8.35,8.35,0,0,0,1.47,5.13A4.68,4.68,0,0,0,562.76,642.43Z"/><path class="cls-16" d="M589.37,639.33l1.51,1.45a12.42,12.42,0,0,1-3.58,2.86,9,9,0,0,1-3.95.84,7.81,7.81,0,0,1-6.08-2.48,9.35,9.35,0,0,1-2.27-6.55,9.94,9.94,0,0,1,2.23-6.72,7.39,7.39,0,0,1,5.87-2.57,7.31,7.31,0,0,1,5.64,2.23,8.49,8.49,0,0,1,2.07,6c0,.31,0,.69-.07,1.12H577.41a8.78,8.78,0,0,0,1.59,5,5,5,0,0,0,4.35,2,6.21,6.21,0,0,0,3-.68A13.67,13.67,0,0,0,589.37,639.33ZM583.1,628.1a5.24,5.24,0,0,0-3.8,1.46,6.72,6.72,0,0,0-1.81,4.16h10.94a6.11,6.11,0,0,0-1.47-4.11A5,5,0,0,0,583.1,628.1Z"/><path class="cls-16" d="M600.64,626.16a11,11,0,0,1,3.71.57,12.72,12.72,0,0,1,3.31,1.91l-1.33,1.62a12.71,12.71,0,0,0-2.88-1.71,7.72,7.72,0,0,0-2.74-.45,5.11,5.11,0,0,0-3.08.85,2.58,2.58,0,0,0-1.17,2.18c0,.93.67,1.62,2,2,.45.17,1.44.43,2.95.79a13.3,13.3,0,0,1,5,1.94,3.9,3.9,0,0,1,1.48,3.28,4.66,4.66,0,0,1-1.87,3.84,7.76,7.76,0,0,1-4.9,1.45,10.52,10.52,0,0,1-4-.72,14.33,14.33,0,0,1-3.79-2.48l1.44-1.58a14.24,14.24,0,0,0,3.27,2.19,7.66,7.66,0,0,0,3.1.61,5.39,5.39,0,0,0,3.19-.88,2.74,2.74,0,0,0,1.24-2.32,2.35,2.35,0,0,0-1.19-2.13,13.45,13.45,0,0,0-4-1.29,14.65,14.65,0,0,1-4.91-1.71,3.4,3.4,0,0,1-1.35-3,4.43,4.43,0,0,1,1.83-3.68A7.69,7.69,0,0,1,600.64,626.16Z"/><path class="cls-16" d="M620.41,641.82l.43,1.87a9.79,9.79,0,0,1-3.42.61,4.4,4.4,0,0,1-3.24-1,4.15,4.15,0,0,1-1-3V628.39h-3.31v-1.77h3.31v-6.08h2.38v6.08h5v1.77h-5v11.52a2.65,2.65,0,0,0,.5,1.84,2.24,2.24,0,0,0,1.69.54A8.75,8.75,0,0,0,620.41,641.82Z"/><path class="cls-16" d="M630.85,626.16a7.64,7.64,0,0,1,5,1.53,5.06,5.06,0,0,1,1.84,4.08V644h-2.2v-2.27c-1.18,1.87-3.19,2.81-6,2.81a7.57,7.57,0,0,1-4.56-1.23,4.14,4.14,0,0,1-1.67-3.56,4.55,4.55,0,0,1,2-4,19.79,19.79,0,0,1,6.34-2.07l3.78-.72v-1a3.48,3.48,0,0,0-1.21-2.82,4.82,4.82,0,0,0-3.25-1,6.37,6.37,0,0,0-3,.67,10.83,10.83,0,0,0-2.9,2.36l-1.52-1.37A9.42,9.42,0,0,1,630.85,626.16Zm-1.26,16.42a6.37,6.37,0,0,0,4.19-1.35,4.25,4.25,0,0,0,1.64-3.44v-2.92l-3.28.65a20.82,20.82,0,0,0-5,1.55,3.07,3.07,0,0,0-1.51,2.66,2.44,2.44,0,0,0,1.06,2.09A5,5,0,0,0,629.59,642.58Z"/><path class="cls-16" d="M650.69,626.16a6.2,6.2,0,0,1,4.59,1.63,5.85,5.85,0,0,1,1.64,4.31V644h-2.38V632.89q0-4.75-4.39-4.75a4.93,4.93,0,0,0-4.94,4.93V644h-2.37v-17.4h2.23V629A6.06,6.06,0,0,1,650.69,626.16Z"/><path class="cls-16" d="M690.69,618.45V644h-2.55V631.88H673.37V644h-2.55V618.45h2.55v11.31h14.77V618.45Z"/><path class="cls-16" d="M716,626.59h2.44L713.52,644H710.6l-1.76-6c-1.18-4.13-2-7-2.34-8.6-.5,2.16-1.29,5.05-2.34,8.67L702.47,644h-2.88l-4.94-17.43h2.45l1.87,6.84c.65,2.42,1.36,5.27,2.13,8.53q1.29-5,2.3-8.53l2-6.84h2.31l2,6.84q.51,1.65,2.09,7.67l.22.86q.86-3.78,2.16-8.53Z"/><path class="cls-16" d="M733,626.62h2.42l-7.1,20a9.83,9.83,0,0,1-1.85,3.35,4.5,4.5,0,0,1-3,.94,10.26,10.26,0,0,1-2.34-.29l.39-1.87a9.89,9.89,0,0,0,1.8.22,2.39,2.39,0,0,0,1.77-.65,6.77,6.77,0,0,0,1.26-2.38l.32-1-6.52-18.37h2.52l2.16,6.34.73,2.13,2.26,6.8,3.06-9Z"/><path class="cls-16" d="M739.16,640.7V644h-3V640.7Z"/><path class="cls-16" d="M746.72,640.7V644l-1.94,4.14H743.3L745,644h-1.51V640.7Z"/><path class="cls-16" d="M776.39,618.45v2.13h-8.21V644h-2.56V620.58h-8.24v-2.13Z"/><path class="cls-16" d="M789.42,639.33l1.52,1.45a12.45,12.45,0,0,1-3.59,2.86,8.94,8.94,0,0,1-3.94.84,7.81,7.81,0,0,1-6.08-2.48,9.31,9.31,0,0,1-2.27-6.55,9.89,9.89,0,0,1,2.23-6.72,7.37,7.37,0,0,1,5.87-2.57,7.29,7.29,0,0,1,5.63,2.23,8.49,8.49,0,0,1,2.08,6,10.11,10.11,0,0,1-.08,1.12H777.47a8.77,8.77,0,0,0,1.58,5,5.08,5.08,0,0,0,4.36,2,6.14,6.14,0,0,0,3-.68A13.45,13.45,0,0,0,789.42,639.33Zm-6.26-11.23a5.23,5.23,0,0,0-3.8,1.46,6.72,6.72,0,0,0-1.82,4.16h11a6.06,6.06,0,0,0-1.48-4.11A5,5,0,0,0,783.16,628.1Z"/><path class="cls-16" d="M802.86,626.16a6.14,6.14,0,0,1,4.59,1.67,5.86,5.86,0,0,1,1.63,4.27V644h-2.37V632.89c0-3.17-1.47-4.75-4.39-4.75a4.92,4.92,0,0,0-4.94,4.93V644H795V618.45h2.37v10.33A6.08,6.08,0,0,1,802.86,626.16Z"/><path class="cls-16" d="M820.75,626.44a8.66,8.66,0,0,1,2.74.51l-.47,1.91a7.82,7.82,0,0,0-2.27-.36,3.57,3.57,0,0,0-3,1.56,7.07,7.07,0,0,0-1.16,4.27V644H814.2v-17.4h2.23v2.71a4.7,4.7,0,0,1,1.71-2.11A4.51,4.51,0,0,1,820.75,626.44Z"/><path class="cls-16" d="M832.74,626.16a7.62,7.62,0,0,1,5,1.53,5,5,0,0,1,1.84,4.08V644h-2.2v-2.27q-1.75,2.81-6,2.81a7.51,7.51,0,0,1-4.55-1.23,4.12,4.12,0,0,1-1.68-3.56,4.55,4.55,0,0,1,2.06-4,19.62,19.62,0,0,1,6.33-2.07l3.78-.72v-1a3.5,3.5,0,0,0-1.2-2.82,4.85,4.85,0,0,0-3.26-1,6.4,6.4,0,0,0-3,.67,11,11,0,0,0-2.9,2.36l-1.51-1.37A9.41,9.41,0,0,1,832.74,626.16Zm-1.26,16.42a6.4,6.4,0,0,0,4.2-1.35,4.27,4.27,0,0,0,1.63-3.44v-2.92l-3.27.65a20.52,20.52,0,0,0-5,1.55,3.05,3.05,0,0,0-1.52,2.66,2.42,2.42,0,0,0,1.07,2.09A5,5,0,0,0,831.48,642.58Z"/><path class="cls-16" d="M852.58,626.16a6.2,6.2,0,0,1,4.59,1.63,5.85,5.85,0,0,1,1.64,4.31V644h-2.38V632.89q0-4.75-4.39-4.75a4.92,4.92,0,0,0-4.93,4.93V644h-2.38v-17.4H847V629A6.07,6.07,0,0,1,852.58,626.16Z"/><path class="cls-16" d="M889.74,623.49v8.36h8.32v2h-8.32v8.36h-2.09v-8.36h-8.32v-2h8.32v-8.36Z"/><path class="cls-16" d="M909.8,619a8.25,8.25,0,0,1,6.46,2.63,9.65,9.65,0,0,1,2.36,6.7,13.93,13.93,0,0,1-1.87,7,30.86,30.86,0,0,1-5.8,6.88L909.08,644H905.8v0l3.78-3.42a23.93,23.93,0,0,0,6-7.71,8.64,8.64,0,0,1-12.17.24,8.17,8.17,0,0,1-2.27-5.82,8.06,8.06,0,0,1,2.39-5.85A8.44,8.44,0,0,1,909.8,619Zm-.18,14.4a6.39,6.39,0,0,0,4.68-1.74,6.47,6.47,0,0,0,.05-8.82,6.2,6.2,0,0,0-10.75,4.41,6.19,6.19,0,0,0,1.62,4.44A5.78,5.78,0,0,0,909.62,633.39Z"/><path class="cls-16" d="M935.29,630.73a7.24,7.24,0,0,1,3.6,2.54,6.67,6.67,0,0,1,1.3,4.08,6.43,6.43,0,0,1-2.45,5.17,11.55,11.55,0,0,1-13.11,0,6.43,6.43,0,0,1-2.45-5.17,6.67,6.67,0,0,1,1.3-4.08,7.24,7.24,0,0,1,3.6-2.54,5.56,5.56,0,0,1-3.6-5.37,5.69,5.69,0,0,1,2.16-4.59,9.53,9.53,0,0,1,11.09,0,5.69,5.69,0,0,1,2.16,4.59A5.56,5.56,0,0,1,935.29,630.73ZM926.45,641a8.5,8.5,0,0,0,9.47,0,4.59,4.59,0,0,0,1.78-3.75,5,5,0,0,0-1.76-4,8.33,8.33,0,0,0-9.51,0,5,5,0,0,0-1.76,4A4.59,4.59,0,0,0,926.45,641Zm-.59-15.7a4.07,4.07,0,0,0,1.47,3.26,6.61,6.61,0,0,0,7.71,0,4.07,4.07,0,0,0,1.47-3.26,3.85,3.85,0,0,0-1.44-3.13,6.94,6.94,0,0,0-7.77,0A3.85,3.85,0,0,0,925.86,625.33Z"/><path class="cls-16" d="M945.66,641.93h14.69V644H943.28v-.87a8.82,8.82,0,0,1,3.32-7.2,34.51,34.51,0,0,1,4-2.77,16.44,16.44,0,0,1,1.8-1,32.24,32.24,0,0,0,3-1.9,7.13,7.13,0,0,0,1.64-1.77,4.81,4.81,0,0,0,.71-2.63,4.3,4.3,0,0,0-1.51-3.47,5.67,5.67,0,0,0-3.78-1.28,6.94,6.94,0,0,0-3.85,1,17.27,17.27,0,0,0-3.6,3.49l-1.77-1.3a14.06,14.06,0,0,1,4.11-4,9.57,9.57,0,0,1,5-1.32,8.29,8.29,0,0,1,5.62,1.91,6.12,6.12,0,0,1,2.19,4.82,7.09,7.09,0,0,1-3,5.95,39.87,39.87,0,0,1-3.57,2.3l-1.65,1c-1.78,1.11-2.94,1.86-3.5,2.27a8.51,8.51,0,0,0-1.87,1.91A6,6,0,0,0,945.66,641.93Z"/><path class="cls-16" d="M972,619.53h1.8V644h-2.41V622.66l-5.65,4-1.19-1.7Z"/><path class="cls-16" d="M1002.59,630.73a7.33,7.33,0,0,1,3.6,2.54,6.66,6.66,0,0,1,1.29,4.08,6.42,6.42,0,0,1-2.44,5.17,11.55,11.55,0,0,1-13.11,0,6.43,6.43,0,0,1-2.45-5.17,6.61,6.61,0,0,1,1.3-4.08,7.24,7.24,0,0,1,3.6-2.54,5.56,5.56,0,0,1-3.6-5.37,5.69,5.69,0,0,1,2.16-4.59,9.53,9.53,0,0,1,11.09,0,5.69,5.69,0,0,1,2.16,4.59A5.56,5.56,0,0,1,1002.59,630.73ZM993.75,641a8.5,8.5,0,0,0,9.47,0,4.59,4.59,0,0,0,1.78-3.75,5,5,0,0,0-1.76-4,8.33,8.33,0,0,0-9.51,0,5,5,0,0,0-1.77,4A4.6,4.6,0,0,0,993.75,641Zm-.6-15.7a4.08,4.08,0,0,0,1.48,3.26,6.61,6.61,0,0,0,7.71,0,4.07,4.07,0,0,0,1.47-3.26,3.85,3.85,0,0,0-1.44-3.13,7,7,0,0,0-7.78,0A3.85,3.85,0,0,0,993.15,625.33Z"/><path class="cls-16" d="M1024.19,630.73a7.24,7.24,0,0,1,3.6,2.54,6.61,6.61,0,0,1,1.3,4.08,6.43,6.43,0,0,1-2.45,5.17,11.55,11.55,0,0,1-13.11,0,6.43,6.43,0,0,1-2.45-5.17,6.67,6.67,0,0,1,1.3-4.08,7.33,7.33,0,0,1,3.6-2.54,5.56,5.56,0,0,1-3.6-5.37,5.69,5.69,0,0,1,2.16-4.59,9.53,9.53,0,0,1,11.09,0,5.69,5.69,0,0,1,2.16,4.59A5.56,5.56,0,0,1,1024.19,630.73Zm-8.84,10.3a8.5,8.5,0,0,0,9.47,0,4.59,4.59,0,0,0,1.78-3.75,5,5,0,0,0-1.76-4,8.33,8.33,0,0,0-9.51,0,5,5,0,0,0-1.76,4A4.59,4.59,0,0,0,1015.35,641Zm-.59-15.7a4.07,4.07,0,0,0,1.47,3.26,6.61,6.61,0,0,0,7.71,0,4.08,4.08,0,0,0,1.48-3.26,3.85,3.85,0,0,0-1.44-3.13,7,7,0,0,0-7.78,0A3.85,3.85,0,0,0,1014.76,625.33Z"/><path class="cls-16" d="M1049.61,619a7.67,7.67,0,0,1,7.28,4.43,21,21,0,0,1,0,16.71,8.19,8.19,0,0,1-14.55,0,21,21,0,0,1,0-16.71A7.67,7.67,0,0,1,1049.61,619Zm0,2.09a5.43,5.43,0,0,0-5.15,3.46,19.92,19.92,0,0,0,0,14.47,5.56,5.56,0,0,0,10.3,0,19.79,19.79,0,0,0,0-14.47A5.41,5.41,0,0,0,1049.61,621.08Z"/><path class="cls-16" d="M1077.16,636.06h3.78v2.05h-3.78V644h-2.38v-5.91h-12.71V636l10.48-16.46h2.74l-10.55,16.53h10v-5.83h2.38Z"/><path class="cls-16" d="M1098.69,636.06h3.78v2.05h-3.78V644h-2.38v-5.91H1083.6V636l10.48-16.46h2.74l-10.55,16.53h10v-5.83h2.38Z"/><path class="cls-16" d="M1127.78,636.06h3.79v2.05h-3.79V644h-2.37v-5.91H1112.7V636l10.48-16.46h2.73l-10.55,16.53h10.05v-5.83h2.37Z"/><path class="cls-16" d="M1141.9,619a8.24,8.24,0,0,1,6.46,2.63,9.65,9.65,0,0,1,2.36,6.7,13.83,13.83,0,0,1-1.87,7,30.59,30.59,0,0,1-5.8,6.88l-1.87,1.77h-3.28v0l3.78-3.42a23.79,23.79,0,0,0,6-7.71,8.64,8.64,0,0,1-12.17.24,8.17,8.17,0,0,1-2.27-5.82,8,8,0,0,1,2.4-5.85A8.42,8.42,0,0,1,1141.9,619Zm-.18,14.4a6.39,6.39,0,0,0,4.68-1.74,6,6,0,0,0,1.76-4.41,6.23,6.23,0,1,0-12.45,0,6.19,6.19,0,0,0,1.62,4.44A5.75,5.75,0,0,0,1141.72,633.39Z"/><path class="cls-16" d="M1163.65,619a7.67,7.67,0,0,1,7.27,4.43,21,21,0,0,1,0,16.71,8.19,8.19,0,0,1-14.55,0,21,21,0,0,1,0-16.71A7.67,7.67,0,0,1,1163.65,619Zm0,2.09a5.41,5.41,0,0,0-5.15,3.46,19.79,19.79,0,0,0,0,14.47,5.56,5.56,0,0,0,10.3,0,19.92,19.92,0,0,0,0-14.47A5.43,5.43,0,0,0,1163.65,621.08Z"/><path class="cls-16" d="M520.27,677v3.6H507v7.6h12.35v3.6H507v10.77h-4.29V677Z"/><path class="cls-16" d="M530.71,683.88a8.48,8.48,0,0,1,5.64,1.69,5.73,5.73,0,0,1,2,4.61v12.35h-3.57v-2q-1.8,2.63-6,2.62a7.85,7.85,0,0,1-4.7-1.29,4.45,4.45,0,0,1-1.78-3.82,4.72,4.72,0,0,1,2-4.12,16,16,0,0,1,6.08-2.22l4.14-.75v-.65a2.78,2.78,0,0,0-1-2.29,4.28,4.28,0,0,0-2.74-.81,6.11,6.11,0,0,0-2.9.67,13.35,13.35,0,0,0-2.9,2.32l-2.48-2.3A10.25,10.25,0,0,1,530.71,683.88Zm-1.33,16.06a5.7,5.7,0,0,0,3.73-1.21,4,4,0,0,0,1.45-3.3v-1.65l-3.13.65a14.32,14.32,0,0,0-4,1.31,2.25,2.25,0,0,0-1.19,2,1.8,1.8,0,0,0,.85,1.58A4.1,4.1,0,0,0,529.38,699.94Z"/><path class="cls-16" d="M558.26,687.33l-2.52,2.42a8.87,8.87,0,0,0-2.49-2,5.54,5.54,0,0,0-2.45-.54,4.28,4.28,0,0,0-3.7,1.8,7.27,7.27,0,0,0-1.34,4.46,7.08,7.08,0,0,0,1.35,4.45,4.42,4.42,0,0,0,3.69,1.74,5.12,5.12,0,0,0,2.54-.63A11,11,0,0,0,556,696.8l2.6,2.2a11.26,11.26,0,0,1-3.57,3.15,9.17,9.17,0,0,1-4.21.92,8.65,8.65,0,0,1-6.56-2.61,11,11,0,0,1,0-14,8.72,8.72,0,0,1,6.59-2.62,9.49,9.49,0,0,1,4,.79A10.88,10.88,0,0,1,558.26,687.33Z"/><path class="cls-16" d="M571.44,699.11l.5,3.13a11.55,11.55,0,0,1-3.89.68,4.23,4.23,0,0,1-4.93-4.86V687.44h-3.28v-3h3.28v-5.83h4v5.83h4.57v3h-4.57V697.6a2,2,0,0,0,.47,1.47,2.1,2.1,0,0,0,1.47.43A10.3,10.3,0,0,0,571.44,699.11Z"/><path class="cls-16" d="M582.46,683.88a8.73,8.73,0,0,1,6.6,2.68,10.56,10.56,0,0,1,0,13.83,9.54,9.54,0,0,1-13.25,0,10.63,10.63,0,0,1,0-13.86A8.82,8.82,0,0,1,582.46,683.88Zm0,3.35a4.65,4.65,0,0,0-3.79,1.71,8,8,0,0,0,0,9.07,5,5,0,0,0,7.53,0,8,8,0,0,0,0-9.07A4.61,4.61,0,0,0,582.46,687.23Z"/><path class="cls-16" d="M603.27,684.24a9.18,9.18,0,0,1,2.84.54l-.72,3.38a8.69,8.69,0,0,0-2.3-.36,3.53,3.53,0,0,0-3,1.46,6.48,6.48,0,0,0-1.1,4v9.26h-4V684.45h3.67v2.7A4.76,4.76,0,0,1,603.27,684.24Z"/><path class="cls-16" d="M620.88,684.45h4l-7.1,20.31a7.72,7.72,0,0,1-2.19,3.67,5.75,5.75,0,0,1-3.71,1.08,12.63,12.63,0,0,1-3.17-.39l.65-3a13.82,13.82,0,0,0,2.05.22,2.82,2.82,0,0,0,1.8-.58,4,4,0,0,0,1.15-2l.11-.29-6.8-19h4.17l1.77,5.3c1.24,3.74,2.17,6.54,2.77,8.39,1-3.37,1.93-6.17,2.7-8.43Z"/><path class="cls-16" d="M654.22,677h2.48v25.57h-2.91l-8.07-12.21q-4-6-6.63-10.26.15,3.78.15,9.76v12.71h-2.49V677h2.92l8,12.17,1.37,2.13q3.6,5.5,5.29,8.21c-.09-2.52-.14-5.78-.14-9.76Z"/><path class="cls-16" d="M669.63,684.67a7.85,7.85,0,0,1,6.08,2.56,10.49,10.49,0,0,1,0,13.21,8.46,8.46,0,0,1-12.13,0,10.49,10.49,0,0,1,0-13.21A7.81,7.81,0,0,1,669.63,684.67Zm4.34,3.94a5.69,5.69,0,0,0-8.66,0,8.06,8.06,0,0,0-1.62,5.24,7.85,7.85,0,0,0,1.64,5.17,5.67,5.67,0,0,0,8.64,0,7.91,7.91,0,0,0,1.64-5.17A8,8,0,0,0,674,688.61Z"/><path class="cls-16" d="M684.32,699.22v3.31h-3v-3.31Z"/><path class="cls-16" d="M705.46,686.76a8.13,8.13,0,0,1,5.9,2.18,7.55,7.55,0,0,1,2.27,5.7,8.33,8.33,0,0,1-2.39,5.89,8.09,8.09,0,0,1-6.14,2.54,12.31,12.31,0,0,1-4.54-.72A22.72,22.72,0,0,1,696,699.9l1.23-1.84a21,21,0,0,0,4,2.31,10,10,0,0,0,3.56.61,6,6,0,0,0,4.58-1.82,6.25,6.25,0,0,0,1.73-4.48,5.73,5.73,0,0,0-1.59-4.27,6,6,0,0,0-4.39-1.56,7.55,7.55,0,0,0-5.55,2.19l-2-.25L698.65,678h13.83v2.09H700.7l-.68,8.39A8.25,8.25,0,0,1,705.46,686.76Z"/><path class="cls-16" d="M721.05,699.22v3.31l-1.95,4.14h-1.47l1.69-4.14h-1.51v-3.31Z"/><path class="cls-16" d="M751.47,677H754v25.57H751L743,690.32c-2.65-4-4.85-7.45-6.63-10.26.1,2.52.14,5.77.14,9.76v12.71H734V677h2.92l8,12.17,1.36,2.13q3.6,5.5,5.3,8.21c-.1-2.52-.15-5.78-.15-9.76Z"/><path class="cls-16" d="M761.3,677.9v3.38h-2.37V677.9Zm0,7.24v17.39h-2.37V685.14Z"/><path class="cls-16" d="M772.5,684.67a7.62,7.62,0,0,1,5,1.53,5,5,0,0,1,1.84,4.09v12.24h-2.2v-2.27q-1.75,2.81-6,2.81a7.53,7.53,0,0,1-4.55-1.23,4.12,4.12,0,0,1-1.68-3.56,4.55,4.55,0,0,1,2.06-4,20.22,20.22,0,0,1,6.33-2.07l3.79-.72v-1a3.53,3.53,0,0,0-1.21-2.83,4.9,4.9,0,0,0-3.26-1,6.43,6.43,0,0,0-3,.67,11,11,0,0,0-2.9,2.36l-1.51-1.37A9.41,9.41,0,0,1,772.5,684.67Zm-1.26,16.42a6.4,6.4,0,0,0,4.2-1.35,4.28,4.28,0,0,0,1.64-3.44v-2.92l-3.28.65a20.52,20.52,0,0,0-5,1.55,3,3,0,0,0-1.51,2.66,2.41,2.41,0,0,0,1.06,2.09A4.91,4.91,0,0,0,771.24,701.09Z"/><path class="cls-16" d="M796.3,685.14v1.69l-10.87,13.72H796.3v2H782.48v-1.77l10.83-13.68H783.16v-1.94Z"/><path class="cls-16" d="M802.14,677.9v3.38h-2.38V677.9Zm0,7.24v17.39h-2.38V685.14Z"/><path class="cls-16" d="M817.47,677v25.57h-2.55V677Z"/><path class="cls-16" d="M830.54,684.67a6.21,6.21,0,0,1,4.6,1.64,5.81,5.81,0,0,1,1.63,4.3v11.92H834.4V691.4q0-4.75-4.4-4.75a4.92,4.92,0,0,0-4.93,4.93v10.95H822.7V685.14h2.23v2.37A6.07,6.07,0,0,1,830.54,684.67Z"/><path class="cls-16" d="M853.77,677h2.38v25.57h-2.24v-2.95a6.58,6.58,0,0,1-6.15,3.38,6.87,6.87,0,0,1-5.51-2.56,11,11,0,0,1,0-13.14,7,7,0,0,1,5.55-2.56,6.47,6.47,0,0,1,5.94,3Zm-5.83,24a5.4,5.4,0,0,0,4.3-1.9,7.73,7.73,0,0,0,1.64-5.19,7.89,7.89,0,0,0-1.62-5.24,5.37,5.37,0,0,0-4.32-1.92,4.68,4.68,0,0,0-3.91,2A9.72,9.72,0,0,0,844,699,4.67,4.67,0,0,0,847.94,700.94Z"/><path class="cls-16" d="M872,685.14h2.38v17.39H872.1v-2.31a5.65,5.65,0,0,1-5.33,2.78,6.41,6.41,0,0,1-4.65-1.55,5.64,5.64,0,0,1-1.58-4.21v-12.1h2.38v11.59a4.3,4.3,0,0,0,1,3.13,3.92,3.92,0,0,0,2.95,1.08,4.76,4.76,0,0,0,5-5.15Z"/><path class="cls-16" d="M884.34,684.67a11,11,0,0,1,3.71.57,13,13,0,0,1,3.31,1.91L890,688.77a12.71,12.71,0,0,0-2.88-1.71,7.72,7.72,0,0,0-2.74-.45,5.18,5.18,0,0,0-3.08.85,2.58,2.58,0,0,0-1.17,2.18c0,.93.67,1.62,2,2.05.45.17,1.44.43,3,.79a13.12,13.12,0,0,1,5,1.95,3.9,3.9,0,0,1,1.48,3.27,4.65,4.65,0,0,1-1.87,3.84,7.76,7.76,0,0,1-4.9,1.46,10.43,10.43,0,0,1-4-.72,14.27,14.27,0,0,1-3.8-2.49l1.44-1.58a13.92,13.92,0,0,0,3.27,2.19,7.66,7.66,0,0,0,3.1.62,5.37,5.37,0,0,0,3.19-.89,2.73,2.73,0,0,0,1.24-2.32,2.34,2.34,0,0,0-1.19-2.12,13.3,13.3,0,0,0-4-1.3,14.21,14.21,0,0,1-4.91-1.71,3.4,3.4,0,0,1-1.35-3,4.4,4.4,0,0,1,1.83-3.67A7.63,7.63,0,0,1,884.34,684.67Z"/><path class="cls-16" d="M903.39,700.33l.43,1.87a9.76,9.76,0,0,1-3.42.62,4.4,4.4,0,0,1-3.24-1,4.18,4.18,0,0,1-1-3V686.9h-3.31v-1.76h3.31v-6.09h2.38v6.09h5v1.76h-5v11.52a2.65,2.65,0,0,0,.5,1.84,2.24,2.24,0,0,0,1.69.54A8.75,8.75,0,0,0,903.39,700.33Z"/><path class="cls-16" d="M912.89,685a8.63,8.63,0,0,1,2.74.5l-.47,1.91a7.82,7.82,0,0,0-2.27-.36,3.56,3.56,0,0,0-3,1.57,7,7,0,0,0-1.15,4.26v9.69h-2.38V685.14h2.23v2.7a4.89,4.89,0,0,1,1.71-2.11A4.5,4.5,0,0,1,912.89,685Z"/><path class="cls-16" d="M920.27,677.9v3.38H917.9V677.9Zm0,7.24v17.39H917.9V685.14Z"/><path class="cls-16" d="M931.47,684.67a7.62,7.62,0,0,1,5,1.53,5,5,0,0,1,1.84,4.09v12.24h-2.2v-2.27q-1.75,2.81-6,2.81a7.53,7.53,0,0,1-4.55-1.23,4.11,4.11,0,0,1-1.67-3.56,4.52,4.52,0,0,1,2-4,20.22,20.22,0,0,1,6.33-2.07l3.79-.72v-1a3.53,3.53,0,0,0-1.21-2.83,4.88,4.88,0,0,0-3.26-1,6.43,6.43,0,0,0-3,.67,11,11,0,0,0-2.9,2.36l-1.51-1.37A9.41,9.41,0,0,1,931.47,684.67Zm-1.26,16.42a6.4,6.4,0,0,0,4.2-1.35,4.28,4.28,0,0,0,1.64-3.44v-2.92l-3.28.65a20.52,20.52,0,0,0-5,1.55,3,3,0,0,0-1.51,2.66,2.41,2.41,0,0,0,1.06,2.09A4.93,4.93,0,0,0,930.21,701.09Z"/><path class="cls-16" d="M945.23,677v25.57h-2.38V677Z"/><path class="cls-16" d="M968.45,676.42a11.63,11.63,0,0,1,4.39.81A16.73,16.73,0,0,1,977.2,680l-1.44,1.73q-3.78-3.11-7.31-3.1a8.54,8.54,0,0,0-6.91,3.1,12.07,12.07,0,0,0-2.59,8,12.25,12.25,0,0,0,2.55,8A8.76,8.76,0,0,0,972.12,700a18.86,18.86,0,0,0,4-3.07l1.59,1.69a18.29,18.29,0,0,1-4.61,3.49,11,11,0,0,1-4.9,1,10.77,10.77,0,0,1-8.62-3.71,16.11,16.11,0,0,1,0-19.26A11.15,11.15,0,0,1,968.45,676.42Z"/><path class="cls-16" d="M987.9,684.67a7.85,7.85,0,0,1,6.08,2.56,10.49,10.49,0,0,1,0,13.21,8.46,8.46,0,0,1-12.13,0,10.49,10.49,0,0,1,0-13.21A7.8,7.8,0,0,1,987.9,684.67Zm4.33,3.94a5.69,5.69,0,0,0-8.66,0,8.06,8.06,0,0,0-1.62,5.24,7.91,7.91,0,0,0,1.64,5.17,5.67,5.67,0,0,0,8.64,0,7.85,7.85,0,0,0,1.64-5.17A8,8,0,0,0,992.23,688.61Z"/><path class="cls-16" d="M1017.42,684.67a5.34,5.34,0,0,1,5.8,5.72v12.14h-2.38V691q0-4.39-3.85-4.39a4.08,4.08,0,0,0-3.19,1.35,5,5,0,0,0-1.2,3.47v11.06h-2.38V691q0-4.39-3.85-4.39a4.18,4.18,0,0,0-3,1.13,4.6,4.6,0,0,0-1.37,3v11.78h-2.38V685.14h2.24v2.12a5.51,5.51,0,0,1,5-2.59q3.68,0,5,2.91A6,6,0,0,1,1017.42,684.67Z"/><path class="cls-16" d="M1036,684.7a6.92,6.92,0,0,1,5.51,2.56,11.07,11.07,0,0,1,0,13.14A6.89,6.89,0,0,1,1036,703a6.55,6.55,0,0,1-6-3V709h-2.38V685.14h2.23v2.91A6.61,6.61,0,0,1,1036,684.7Zm-.21,16.24a4.71,4.71,0,0,0,3.94-2,9.68,9.68,0,0,0,0-10.29,4.7,4.7,0,0,0-4-2,5.35,5.35,0,0,0-4.29,1.9,9.16,9.16,0,0,0,0,10.43A5.34,5.34,0,0,0,1035.79,700.94Z"/><path class="cls-16" d="M1049.54,677v25.57h-2.38V677Z"/><path class="cls-16" d="M1067.33,697.85l1.51,1.44a12.25,12.25,0,0,1-3.58,2.86,9,9,0,0,1-4,.85,7.82,7.82,0,0,1-6.08-2.49A9.34,9.34,0,0,1,1053,694a9.94,9.94,0,0,1,2.23-6.72,7.42,7.42,0,0,1,5.87-2.57,7.31,7.31,0,0,1,5.64,2.23,8.49,8.49,0,0,1,2.07,6c0,.32,0,.69-.07,1.12h-13.33a8.75,8.75,0,0,0,1.59,5,5.05,5.05,0,0,0,4.35,2,6.21,6.21,0,0,0,3-.69A13.58,13.58,0,0,0,1067.33,697.85Zm-6.27-11.24a5.24,5.24,0,0,0-3.8,1.46,6.72,6.72,0,0,0-1.81,4.16h10.94a6.11,6.11,0,0,0-1.47-4.11A5.05,5.05,0,0,0,1061.06,686.61Z"/><path class="cls-16" d="M1085.15,702.53h-2.66l-5-7.49-5.12,7.49h-2.63l6.31-9.08-5.84-8.31h2.67l4.61,6.69,4.53-6.69h2.6l-5.73,8.21Z"/><path class="cls-16" d="M520.09,743l-2.59-7.17H505.87L503.31,743h-2.59L510,717.47h3.32L522.68,743Zm-13.43-9.33h10.05l-1.26-3.53-.54-1.44q-2.46-6.91-3.25-9.4-.82,2.74-3.31,9.65l-.43,1.19Z"/><path class="cls-16" d="M538.53,717.47h2.37V743h-2.23v-3a6.59,6.59,0,0,1-6.16,3.39,6.89,6.89,0,0,1-5.51-2.56,11,11,0,0,1,0-13.14,7,7,0,0,1,5.54-2.56,6.48,6.48,0,0,1,5.95,3Zm-5.84,24a5.39,5.39,0,0,0,4.31-1.91,7.69,7.69,0,0,0,1.63-5.18,7.88,7.88,0,0,0-1.62-5.24,5.38,5.38,0,0,0-4.32-1.93,4.65,4.65,0,0,0-3.9,2,8.37,8.37,0,0,0-1.5,5.19,8.28,8.28,0,0,0,1.48,5.13A4.65,4.65,0,0,0,532.69,741.45Z"/><path class="cls-16" d="M559.3,738.36l1.51,1.44a12.12,12.12,0,0,1-3.58,2.86,9,9,0,0,1-3.94.85A7.84,7.84,0,0,1,547.2,741a9.35,9.35,0,0,1-2.26-6.55,9.89,9.89,0,0,1,2.23-6.72,7.4,7.4,0,0,1,5.87-2.57,7.3,7.3,0,0,1,5.63,2.23,8.49,8.49,0,0,1,2.07,6,9.71,9.71,0,0,1-.07,1.12H547.35a8.77,8.77,0,0,0,1.58,5,5.08,5.08,0,0,0,4.36,2,6.14,6.14,0,0,0,3-.68A13.64,13.64,0,0,0,559.3,738.36ZM553,727.12a5.21,5.21,0,0,0-3.8,1.46,6.72,6.72,0,0,0-1.82,4.16h11a6.06,6.06,0,0,0-1.48-4.11A5,5,0,0,0,553,727.12Z"/><path class="cls-16" d="M571.44,725.47a8.57,8.57,0,0,1,2.73.5l-.46,1.91a7.87,7.87,0,0,0-2.27-.36,3.6,3.6,0,0,0-3,1.56,7.07,7.07,0,0,0-1.15,4.27V743h-2.38V725.65h2.24v2.7a4.75,4.75,0,0,1,1.71-2.11A4.46,4.46,0,0,1,571.44,725.47Z"/><path class="cls-16" d="M583.43,725.18a7.66,7.66,0,0,1,5,1.53,5,5,0,0,1,1.83,4.08V743h-2.19v-2.27c-1.18,1.87-3.19,2.81-6.05,2.81a7.57,7.57,0,0,1-4.56-1.23,4.14,4.14,0,0,1-1.67-3.56,4.55,4.55,0,0,1,2-4,20,20,0,0,1,6.34-2.07L588,732v-1a3.48,3.48,0,0,0-1.21-2.82,4.82,4.82,0,0,0-3.25-1,6.44,6.44,0,0,0-3,.67,11,11,0,0,0-2.89,2.36l-1.52-1.37A9.42,9.42,0,0,1,583.43,725.18Zm-1.26,16.42a6.37,6.37,0,0,0,4.19-1.35,4.28,4.28,0,0,0,1.64-3.44v-2.92l-3.28.65a20.67,20.67,0,0,0-5,1.55,3.07,3.07,0,0,0-1.51,2.66,2.41,2.41,0,0,0,1.06,2.09A5,5,0,0,0,582.17,741.6Z"/><path class="cls-16" d="M603.27,725.18a6.2,6.2,0,0,1,4.59,1.64,5.81,5.81,0,0,1,1.64,4.3V743h-2.38V731.91q0-4.75-4.39-4.75a4.92,4.92,0,0,0-4.94,4.93V743h-2.37V725.65h2.23V728A6.07,6.07,0,0,1,603.27,725.18Z"/><path class="cls-16" d="M642.59,743h-2.92l-7.2-10.62H626V743h-2.56V717.47h10.12a8.68,8.68,0,0,1,6,2,6.94,6.94,0,0,1,2.23,5.48,7.13,7.13,0,0,1-1.74,5,7.59,7.59,0,0,1-4.7,2.36ZM626,719.6v10.69h7.17a6.6,6.6,0,0,0,4.48-1.39,5.68,5.68,0,0,0,0-7.92,6.73,6.73,0,0,0-4.5-1.38Z"/><path class="cls-16" d="M658.5,717.47h2.38V743h-2.23v-3a6.59,6.59,0,0,1-6.16,3.39,6.89,6.89,0,0,1-5.51-2.56,11,11,0,0,1,0-13.14,7,7,0,0,1,5.54-2.56,6.47,6.47,0,0,1,5.94,3Zm-5.83,24a5.36,5.36,0,0,0,4.3-1.91,7.7,7.7,0,0,0,1.64-5.18,7.88,7.88,0,0,0-1.62-5.24,5.38,5.38,0,0,0-4.32-1.93,4.68,4.68,0,0,0-3.91,2,8.43,8.43,0,0,0-1.49,5.19,8.35,8.35,0,0,0,1.47,5.13A4.68,4.68,0,0,0,652.67,741.45Z"/><path class="cls-16" d="M668.66,739.72V743h-3v-3.32Z"/><path class="cls-16" d="M676.22,739.72V743l-2,4.14H672.8l1.69-4.14H673v-3.32Z"/><path class="cls-16" d="M697,716.93a13.39,13.39,0,0,1,5,.87,15.61,15.61,0,0,1,4.45,2.77l-1.47,1.76a13.7,13.7,0,0,0-3.84-2.46,10.73,10.73,0,0,0-4.05-.74,7.65,7.65,0,0,0-4.59,1.29,3.94,3.94,0,0,0-1.78,3.32q0,2.6,3.09,3.67a43,43,0,0,0,4.25,1.15q4.86,1.16,6.81,2.76a5.57,5.57,0,0,1,1.94,4.55,6.89,6.89,0,0,1-2.55,5.58,9.91,9.91,0,0,1-6.56,2.13,13.94,13.94,0,0,1-5.38-1,20.53,20.53,0,0,1-5.13-3.26l1.47-1.8a18.35,18.35,0,0,0,4.83,3.06,11,11,0,0,0,4.21.79,7.29,7.29,0,0,0,4.77-1.48,4.83,4.83,0,0,0,1.82-4q0-2.94-3.2-4.1a30.47,30.47,0,0,0-4.25-1.15c-3.29-.75-5.52-1.58-6.7-2.51a5.46,5.46,0,0,1-1.87-4.37,5.93,5.93,0,0,1,2.55-5A10.14,10.14,0,0,1,697,716.93Z"/><path class="cls-16" d="M718.89,725.18a6.17,6.17,0,0,1,4.59,1.67,5.87,5.87,0,0,1,1.64,4.27V743h-2.38V731.91c0-3.17-1.47-4.75-4.39-4.75a4.92,4.92,0,0,0-4.94,4.93V743H711V717.47h2.37v10.34A6.06,6.06,0,0,1,718.89,725.18Z"/><path class="cls-16" d="M737,725.18a7.62,7.62,0,0,1,5,1.53,5,5,0,0,1,1.84,4.08V743h-2.2v-2.27q-1.75,2.81-6,2.81a7.51,7.51,0,0,1-4.55-1.23,4.12,4.12,0,0,1-1.68-3.56,4.55,4.55,0,0,1,2.06-4,19.87,19.87,0,0,1,6.33-2.07l3.78-.72v-1a3.5,3.5,0,0,0-1.2-2.82,4.85,4.85,0,0,0-3.26-1,6.37,6.37,0,0,0-3,.67,11,11,0,0,0-2.9,2.36l-1.51-1.37A9.41,9.41,0,0,1,737,725.18ZM735.7,741.6a6.4,6.4,0,0,0,4.2-1.35,4.27,4.27,0,0,0,1.63-3.44v-2.92l-3.27.65a20.52,20.52,0,0,0-5,1.55,3.05,3.05,0,0,0-1.52,2.66,2.42,2.42,0,0,0,1.07,2.09A5,5,0,0,0,735.7,741.6Z"/><path class="cls-16" d="M756.8,725.18a6.14,6.14,0,0,1,4.59,1.67,5.87,5.87,0,0,1,1.64,4.27V743h-2.38V731.91q0-4.75-4.39-4.75a4.92,4.92,0,0,0-4.93,4.93V743H749V717.47h2.38v10.34A6,6,0,0,1,756.8,725.18Z"/><path class="cls-16" d="M774.7,725.47a8.57,8.57,0,0,1,2.73.5l-.46,1.91a7.87,7.87,0,0,0-2.27-.36,3.6,3.6,0,0,0-3,1.56,7.07,7.07,0,0,0-1.15,4.27V743h-2.38V725.65h2.24v2.7a4.75,4.75,0,0,1,1.71-2.11A4.46,4.46,0,0,1,774.7,725.47Z"/><path class="cls-16" d="M782.8,718.41v3.38h-2.38v-3.38Zm0,7.24V743h-2.38V725.65Z"/><path class="cls-16" d="M794.72,725.18a7.66,7.66,0,0,1,5,1.53,5,5,0,0,1,1.83,4.08V743H799.4v-2.27q-1.77,2.81-6,2.81a7.57,7.57,0,0,1-4.56-1.23,4.14,4.14,0,0,1-1.67-3.56,4.55,4.55,0,0,1,2-4,20,20,0,0,1,6.34-2.07l3.78-.72v-1a3.48,3.48,0,0,0-1.21-2.82,4.83,4.83,0,0,0-3.26-1,6.43,6.43,0,0,0-3,.67,11,11,0,0,0-2.89,2.36l-1.52-1.37A9.42,9.42,0,0,1,794.72,725.18Zm-1.26,16.42a6.37,6.37,0,0,0,4.19-1.35,4.28,4.28,0,0,0,1.64-3.44v-2.92l-3.28.65a20.52,20.52,0,0,0-5,1.55,3,3,0,0,0-1.51,2.66,2.41,2.41,0,0,0,1.06,2.09A5,5,0,0,0,793.46,741.6Z"/><path class="cls-16" d="M813.26,725.47a8.63,8.63,0,0,1,2.74.5l-.47,1.91a7.82,7.82,0,0,0-2.27-.36,3.57,3.57,0,0,0-3,1.56,7.07,7.07,0,0,0-1.16,4.27V743h-2.37V725.65h2.23v2.7a4.75,4.75,0,0,1,1.71-2.11A4.5,4.5,0,0,1,813.26,725.47Z"/><path class="cls-16" d="M505.9,776v25.57h-2.55V776Z"/><path class="cls-16" d="M519.69,783.69a6.21,6.21,0,0,1,4.59,1.64,5.77,5.77,0,0,1,1.64,4.3v11.92h-2.37V790.42q0-4.75-4.4-4.75a4.92,4.92,0,0,0-4.93,4.93v10.95h-2.38V784.16h2.24v2.37A6.07,6.07,0,0,1,519.69,783.69Z"/><path class="cls-16" d="M536.58,783.69a10.71,10.71,0,0,1,3.71.58,12.51,12.51,0,0,1,3.31,1.9l-1.33,1.62a13.1,13.1,0,0,0-2.88-1.71,7.72,7.72,0,0,0-2.74-.45,5.18,5.18,0,0,0-3.08.85,2.58,2.58,0,0,0-1.17,2.18c0,.94.68,1.62,2,2.05.46.17,1.44.43,3,.79a13.12,13.12,0,0,1,5,2,3.9,3.9,0,0,1,1.48,3.27,4.62,4.62,0,0,1-1.87,3.84,7.76,7.76,0,0,1-4.9,1.46,10.43,10.43,0,0,1-4-.72,14.43,14.43,0,0,1-3.8-2.49l1.44-1.58a14.22,14.22,0,0,0,3.27,2.2,7.83,7.83,0,0,0,3.1.61,5.44,5.44,0,0,0,3.19-.88,2.73,2.73,0,0,0,1.24-2.33,2.34,2.34,0,0,0-1.19-2.12,13.61,13.61,0,0,0-4-1.3,14.2,14.2,0,0,1-4.92-1.71,3.37,3.37,0,0,1-1.35-3,4.39,4.39,0,0,1,1.84-3.67A7.64,7.64,0,0,1,536.58,783.69Z"/><path class="cls-16" d="M556.35,799.35l.43,1.88a9.94,9.94,0,0,1-3.42.61,4.36,4.36,0,0,1-3.24-1,4.18,4.18,0,0,1-1-3V785.92H545.8v-1.76h3.31v-6.09h2.38v6.09h5v1.76h-5v11.52a2.7,2.7,0,0,0,.5,1.84,2.24,2.24,0,0,0,1.69.54A8.45,8.45,0,0,0,556.35,799.35Z"/><path class="cls-16" d="M566.79,783.69a7.62,7.62,0,0,1,5,1.53,5,5,0,0,1,1.84,4.09v12.24h-2.2v-2.27c-1.18,1.87-3.19,2.81-6.05,2.81a7.58,7.58,0,0,1-4.55-1.22,4.15,4.15,0,0,1-1.68-3.57,4.54,4.54,0,0,1,2.06-4,20.13,20.13,0,0,1,6.33-2.07l3.78-.72v-1a3.52,3.52,0,0,0-1.2-2.83,4.9,4.9,0,0,0-3.26-1,6.49,6.49,0,0,0-3,.67,11,11,0,0,0-2.9,2.36l-1.51-1.37A9.41,9.41,0,0,1,566.79,783.69Zm-1.26,16.42a6.42,6.42,0,0,0,4.2-1.35,4.27,4.27,0,0,0,1.63-3.44V792.4l-3.27.65a21,21,0,0,0-5,1.55,3.05,3.05,0,0,0-1.52,2.66,2.42,2.42,0,0,0,1.07,2.09A4.91,4.91,0,0,0,565.53,800.11Z"/><path class="cls-16" d="M591.31,784.16h2.23v17.21a6.76,6.76,0,0,1-2,5.17,7.86,7.86,0,0,1-5.58,1.89,13.22,13.22,0,0,1-7.71-2.56l1.22-1.76a19.88,19.88,0,0,0,3.39,1.76,8.74,8.74,0,0,0,3.1.54,5.44,5.44,0,0,0,3.85-1.31,5.09,5.09,0,0,0,1.4-3.91v-2.88a6.35,6.35,0,0,1-5.83,3.13A6.87,6.87,0,0,1,579.9,799a10.61,10.61,0,0,1,0-12.75,6.82,6.82,0,0,1,5.47-2.52,6.27,6.27,0,0,1,5.94,3.31Zm-9.65,13.39a4.72,4.72,0,0,0,4,1.88,5,5,0,0,0,4.07-1.91,8.69,8.69,0,0,0,0-9.91,5,5,0,0,0-4.07-1.94,4.7,4.7,0,0,0-4,1.89,8.09,8.09,0,0,0-1.44,5A7.91,7.91,0,0,0,581.66,797.55Z"/><path class="cls-16" d="M605.28,784a8.92,8.92,0,0,1,2.74.5l-.47,1.91a7.82,7.82,0,0,0-2.27-.36,3.56,3.56,0,0,0-3,1.57,7,7,0,0,0-1.15,4.26v9.69h-2.38V784.16H601v2.7a4.82,4.82,0,0,1,1.71-2.11A4.58,4.58,0,0,1,605.28,784Z"/><path class="cls-16" d="M617.27,783.69a7.62,7.62,0,0,1,5,1.53,5,5,0,0,1,1.84,4.09v12.24H622v-2.27q-1.76,2.81-6.05,2.81a7.6,7.6,0,0,1-4.55-1.22,4.15,4.15,0,0,1-1.68-3.57,4.57,4.57,0,0,1,2.06-4,20.22,20.22,0,0,1,6.33-2.07l3.79-.72v-1a3.53,3.53,0,0,0-1.21-2.83,4.9,4.9,0,0,0-3.26-1,6.55,6.55,0,0,0-3,.67,11.19,11.19,0,0,0-2.9,2.36L610,787.29A9.41,9.41,0,0,1,617.27,783.69ZM616,800.11a6.4,6.4,0,0,0,4.2-1.35,4.28,4.28,0,0,0,1.64-3.44V792.4l-3.28.65a21,21,0,0,0-5,1.55,3,3,0,0,0-1.51,2.66,2.41,2.41,0,0,0,1.06,2.09A4.93,4.93,0,0,0,616,800.11Z"/><path class="cls-16" d="M647.05,783.69a5.35,5.35,0,0,1,5.8,5.73v12.13h-2.38V790.06q0-4.39-3.85-4.39a4.08,4.08,0,0,0-3.19,1.35,5,5,0,0,0-1.2,3.48v11h-2.38V790.06c0-2.93-1.29-4.39-3.85-4.39a4.18,4.18,0,0,0-3,1.13,4.6,4.6,0,0,0-1.37,3v11.77h-2.38V784.16h2.24v2.12a5.51,5.51,0,0,1,5-2.59,5.06,5.06,0,0,1,5,2.92A6,6,0,0,1,647.05,783.69Z"/><path class="cls-16" d="M678.77,784.16H681v17.21a6.77,6.77,0,0,1-2,5.17,7.84,7.84,0,0,1-5.58,1.89,13.24,13.24,0,0,1-7.71-2.56l1.23-1.76a19.48,19.48,0,0,0,3.38,1.76,8.74,8.74,0,0,0,3.1.54,5.43,5.43,0,0,0,3.85-1.31,5.1,5.1,0,0,0,1.41-3.91v-2.88a6.37,6.37,0,0,1-5.84,3.13,6.89,6.89,0,0,1-5.47-2.48,10.61,10.61,0,0,1,0-12.75,6.83,6.83,0,0,1,5.47-2.52,6.27,6.27,0,0,1,5.94,3.31Zm-9.65,13.39a4.72,4.72,0,0,0,4,1.88,5,5,0,0,0,4.07-1.91,8.69,8.69,0,0,0,0-9.91,5,5,0,0,0-4.07-1.94,4.7,4.7,0,0,0-4,1.89,8.09,8.09,0,0,0-1.44,5A7.91,7.91,0,0,0,669.12,797.55Z"/><path class="cls-16" d="M699.41,796.87l1.51,1.44a12.28,12.28,0,0,1-3.59,2.86,8.81,8.81,0,0,1-3.94.85,7.82,7.82,0,0,1-6.08-2.49A9.29,9.29,0,0,1,685,793a9.89,9.89,0,0,1,2.23-6.72,7.4,7.4,0,0,1,5.87-2.57,7.32,7.32,0,0,1,5.64,2.23,8.52,8.52,0,0,1,2.07,6,10,10,0,0,1-.08,1.11H687.45a8.68,8.68,0,0,0,1.59,5,5,5,0,0,0,4.35,2,6.15,6.15,0,0,0,3-.69A13.59,13.59,0,0,0,699.41,796.87Zm-6.27-11.24a5.23,5.23,0,0,0-3.8,1.46,6.72,6.72,0,0,0-1.82,4.16h11a6,6,0,0,0-1.48-4.1A5,5,0,0,0,693.14,785.63Z"/><path class="cls-16" d="M710.67,783.69a10.67,10.67,0,0,1,3.71.58,12.71,12.71,0,0,1,3.32,1.9l-1.34,1.62a12.66,12.66,0,0,0-2.88-1.71,7.66,7.66,0,0,0-2.73-.45,5.15,5.15,0,0,0-3.08.85,2.58,2.58,0,0,0-1.17,2.18c0,.94.67,1.62,2,2.05.46.17,1.45.43,3,.79a13.26,13.26,0,0,1,5,2,3.92,3.92,0,0,1,1.47,3.27,4.62,4.62,0,0,1-1.87,3.84,7.76,7.76,0,0,1-4.9,1.46,10.43,10.43,0,0,1-4-.72,14.59,14.59,0,0,1-3.8-2.49l1.44-1.58a14,14,0,0,0,3.28,2.2,7.78,7.78,0,0,0,3.09.61,5.44,5.44,0,0,0,3.19-.88,2.73,2.73,0,0,0,1.24-2.33,2.33,2.33,0,0,0-1.18-2.12,13.81,13.81,0,0,0-4-1.3,14.2,14.2,0,0,1-4.92-1.71,3.37,3.37,0,0,1-1.35-3,4.41,4.41,0,0,1,1.84-3.67A7.68,7.68,0,0,1,710.67,783.69Z"/><path class="cls-16" d="M727.45,783.69a10.67,10.67,0,0,1,3.71.58,12.71,12.71,0,0,1,3.32,1.9l-1.34,1.62a13.1,13.1,0,0,0-2.88-1.71,7.66,7.66,0,0,0-2.73-.45,5.15,5.15,0,0,0-3.08.85,2.58,2.58,0,0,0-1.17,2.18c0,.94.67,1.62,2,2.05.46.17,1.44.43,3,.79a13.26,13.26,0,0,1,5,2,3.92,3.92,0,0,1,1.47,3.27,4.62,4.62,0,0,1-1.87,3.84A7.76,7.76,0,0,1,728,802a10.43,10.43,0,0,1-4-.72,14.59,14.59,0,0,1-3.8-2.49l1.44-1.58a14,14,0,0,0,3.28,2.2A7.78,7.78,0,0,0,728,800a5.44,5.44,0,0,0,3.19-.88,2.73,2.73,0,0,0,1.24-2.33,2.33,2.33,0,0,0-1.18-2.12,13.81,13.81,0,0,0-4-1.3,14.2,14.2,0,0,1-4.92-1.71,3.37,3.37,0,0,1-1.35-3,4.39,4.39,0,0,1,1.84-3.67A7.68,7.68,0,0,1,727.45,783.69Z"/><path class="cls-16" d="M745.57,783.69a7.66,7.66,0,0,1,5,1.53,5.06,5.06,0,0,1,1.83,4.09v12.24h-2.19v-2.27q-1.77,2.81-6,2.81a7.64,7.64,0,0,1-4.56-1.22A4.17,4.17,0,0,1,738,797.3a4.54,4.54,0,0,1,2-4,20.3,20.3,0,0,1,6.34-2.07l3.78-.72v-1a3.5,3.5,0,0,0-1.21-2.83,4.88,4.88,0,0,0-3.26-1,6.55,6.55,0,0,0-3,.67,11.36,11.36,0,0,0-2.9,2.36l-1.51-1.37A9.41,9.41,0,0,1,745.57,783.69Zm-1.26,16.42a6.37,6.37,0,0,0,4.19-1.35,4.28,4.28,0,0,0,1.64-3.44V792.4l-3.28.65a21,21,0,0,0-5,1.55,3,3,0,0,0-1.51,2.66,2.41,2.41,0,0,0,1.06,2.09A5,5,0,0,0,744.31,800.11Z"/><path class="cls-16" d="M760.15,798.24v3.31h-3v-3.31Z"/><path class="cls-16" d="M778.4,787l-1.62,1.37a10.31,10.31,0,0,0-2.59-2.15,5.66,5.66,0,0,0-2.7-.63,4.8,4.8,0,0,0-4.16,2.13,8.7,8.7,0,0,0-1.49,5.11,8.34,8.34,0,0,0,1.51,5.06A5,5,0,0,0,771.6,800a5.42,5.42,0,0,0,2.66-.63A11.56,11.56,0,0,0,777,797l1.58,1.34a10.58,10.58,0,0,1-3.2,2.84,8,8,0,0,1-3.75.83,7.68,7.68,0,0,1-6-2.5,11,11,0,0,1,0-13.29,7.53,7.53,0,0,1,5.92-2.54,8.58,8.58,0,0,1,3.78.77A9.41,9.41,0,0,1,778.4,787Z"/><path class="cls-16" d="M789,783.69a7.85,7.85,0,0,1,6.08,2.56,10.49,10.49,0,0,1,0,13.21,8.46,8.46,0,0,1-12.13,0,10.49,10.49,0,0,1,0-13.21A7.8,7.8,0,0,1,789,783.69Zm4.33,3.94a5.69,5.69,0,0,0-8.66,0,8.08,8.08,0,0,0-1.62,5.24,7.91,7.91,0,0,0,1.64,5.17,5.67,5.67,0,0,0,8.64,0,7.85,7.85,0,0,0,1.64-5.17A8,8,0,0,0,793.29,787.63Z"/></g></svg>