<?xml version="1.0" encoding="utf-8"?>
<!-- Generator: Adobe Illustrator 25.0.0, SVG Export Plug-In . SVG Version: 6.00 Build 0)  -->
<svg version="1.1" id="Layer_1" xmlns="http://www.w3.org/2000/svg" xmlns:xlink="http://www.w3.org/1999/xlink" x="0px" y="0px"
	 viewBox="0 0 1920 1080" style="enable-background:new 0 0 1920 1080;" xml:space="preserve">
<style type="text/css">
	.st0{fill:#B8B8B8;}
	.st1{enable-background:new    ;}
	.st2{fill:#FFFFFF;}
	.st3{fill:#7F7F7F;}
</style>
<g id="Layer_1_1_">
	<g id="Layer_2-2">
		<rect class="st0" width="1920" height="1080"/>
	</g>
	<g class="st1">
		<path class="st2" d="M718.8,774.1h11.2c2.6,0,4.6,0.7,6.1,2.1s2.3,3.3,2.3,5.7s-0.8,4.3-2.3,5.7c-1.5,1.4-3.6,2.1-6.1,2.1h-7.8
			V800h-3.4V774.1z M729.4,776.9h-7.3v9.9h7.3c1.8,0,3.1-0.4,4.1-1.3c1-0.9,1.5-2.1,1.5-3.7s-0.5-2.8-1.5-3.6
			C732.5,777.3,731.2,776.9,729.4,776.9z"/>
		<path class="st2" d="M762.7,800h-3.8l-6.9-10.4h-6.1V800h-3.4v-25.9h10.9c2.5,0,4.5,0.7,6,2.1c1.6,1.4,2.4,3.3,2.4,5.6
			c0,2-0.6,3.7-1.7,5c-1.1,1.3-2.6,2.2-4.6,2.6L762.7,800z M745.9,776.9v9.9h7c1.8,0,3.1-0.4,4.1-1.3c1-0.9,1.5-2.1,1.5-3.7
			s-0.5-2.8-1.5-3.6c-1-0.9-2.4-1.3-4.1-1.3H745.9z"/>
		<path class="st2" d="M784.1,774.1v2.8h-13.9v8.3h12.9v2.8h-12.9v9.1h14.2v2.8h-17.6v-25.9H784.1z"/>
		<path class="st2" d="M797.3,773.5c1.9,0,3.7,0.3,5.2,0.9c1.5,0.6,3,1.6,4.6,2.9l-2,2.3c-1.4-1.2-2.6-2-3.8-2.5
			c-1.2-0.5-2.5-0.7-4-0.7c-1.8,0-3.2,0.4-4.3,1.2c-1.1,0.8-1.7,1.8-1.7,3c0,1.6,1,2.7,3,3.4c0.9,0.3,2.3,0.7,4.2,1.1
			c3.4,0.8,5.7,1.7,7,2.8c1.3,1,2,2.6,2,4.7c0,2.4-0.9,4.3-2.7,5.8c-1.8,1.5-4.1,2.2-6.9,2.2c-2.2,0-4-0.4-5.6-1.1
			c-1.7-0.7-3.5-1.9-5.3-3.4l2-2.4c1.8,1.5,3.4,2.5,4.7,3.1c1.3,0.6,2.7,0.8,4.2,0.8c1.8,0,3.3-0.4,4.4-1.3c1.1-0.9,1.7-2.1,1.7-3.6
			c0-1.8-1-3-3.1-3.7c-0.9-0.3-2.3-0.7-4.2-1.1c-3.4-0.8-5.7-1.6-6.9-2.6c-1.3-1-1.9-2.5-1.9-4.5c0-2.1,0.9-3.8,2.7-5.2
			C792.5,774.2,794.7,773.5,797.3,773.5z"/>
		<path class="st2" d="M829.2,774.1v2.8h-13.9v8.3h12.9v2.8h-12.9v9.1h14.2v2.8H812v-25.9H829.2z"/>
		<path class="st2" d="M851.6,774.1h3.3V800h-3.7l-7.7-11.8c-0.6-0.9-1.1-1.7-1.6-2.4c-2.3-3.5-3.9-6-4.7-7.5
			c0.1,3,0.2,6.3,0.2,10.1V800h-3.3v-25.9h3.8l7.8,12c0.1,0.2,0.3,0.5,0.5,0.7c0.2,0.3,0.3,0.4,0.3,0.5c1.5,2.3,2.3,3.5,2.3,3.6
			c0.8,1.2,1.8,2.8,2.9,4.8c-0.1-2.4-0.1-5.7-0.1-9.8V774.1z"/>
		<path class="st2" d="M871.8,773.5c1.7,0,3.2,0.3,4.6,0.9c1.4,0.6,2.9,1.5,4.4,2.9l-1.9,2.3c-1.3-1.1-2.6-1.9-3.7-2.4
			c-1.1-0.5-2.3-0.7-3.5-0.7c-2.7,0-4.9,1-6.6,2.9s-2.4,4.5-2.4,7.6c0,3.1,0.8,5.7,2.4,7.6s3.7,3,6.3,3c1.4,0,2.7-0.3,3.8-0.9
			c1.1-0.6,2.4-1.6,4-2.9l2,2.3c-1.7,1.6-3.2,2.8-4.7,3.5c-1.5,0.7-3.2,1-5,1c-3.8,0-6.8-1.3-9-3.8s-3.3-5.8-3.3-9.8
			c0-4,1.1-7.3,3.3-9.8C864.9,774.8,867.9,773.5,871.8,773.5z"/>
		<path class="st2" d="M902.3,774.1v2.8h-13.9v8.3h12.9v2.8h-12.9v9.1h14.2v2.8h-17.6v-25.9H902.3z"/>
		<path class="st2" d="M919.2,774.1V800h-3.4v-25.9H919.2z"/>
		<path class="st2" d="M942.9,774.1h3.3V800h-3.7l-7.7-11.8c-0.6-0.9-1.1-1.7-1.6-2.4c-2.3-3.5-3.9-6-4.7-7.5
			c0.1,3,0.2,6.3,0.2,10.1V800h-3.3v-25.9h3.8l7.8,12c0.1,0.2,0.3,0.5,0.5,0.7c0.2,0.3,0.3,0.4,0.3,0.5c1.5,2.3,2.3,3.5,2.3,3.6
			c0.8,1.2,1.8,2.8,2.9,4.8c-0.1-2.4-0.1-5.7-0.1-9.8V774.1z"/>
		<path class="st2" d="M977.6,774.1v2.8h-13.9v8.3h12.9v2.8h-12.9v9.1h14.2v2.8h-17.6v-25.9H977.6z"/>
		<path class="st2" d="M998.6,774.1h3.5l-8.8,25.9H989l-8.8-25.9h3.5l4.3,12.8c1.3,3.9,2.4,7.3,3.2,10.1c0.8-2.7,1.8-6,3.1-10.1
			L998.6,774.1z"/>
		<path class="st2" d="M1022.9,774.1v2.8H1009v8.3h12.9v2.8H1009v9.1h14.2v2.8h-17.6v-25.9H1022.9z"/>
		<path class="st2" d="M1048,800h-3.8l-6.9-10.4h-6.1V800h-3.4v-25.9h10.9c2.5,0,4.5,0.7,6,2.1c1.6,1.4,2.4,3.3,2.4,5.6
			c0,2-0.6,3.7-1.7,5c-1.1,1.3-2.6,2.2-4.6,2.6L1048,800z M1031.2,776.9v9.9h7c1.8,0,3.1-0.4,4.1-1.3c1-0.9,1.5-2.1,1.5-3.7
			s-0.5-2.8-1.5-3.6c-1-0.9-2.4-1.3-4.1-1.3H1031.2z"/>
		<path class="st2" d="M1067.3,774.1h3.6l-9.2,14.8v11h-3.4v-11.1l-9.1-14.8h3.7l7.1,11.8L1067.3,774.1z"/>
		<path class="st2" d="M1081.9,774.1h9.7c3.6,0,6.4,1.2,8.4,3.6c2,2.4,3,5.5,3,9.4s-1,7-3,9.4c-2,2.4-4.8,3.6-8.4,3.6h-9.7V774.1z
			 M1091.1,776.9h-5.8v20.3h5.8c2.7,0,4.8-0.9,6.3-2.7c1.5-1.8,2.2-4.3,2.2-7.5c0-3.2-0.8-5.6-2.3-7.4
			C1095.9,777.8,1093.8,776.9,1091.1,776.9z"/>
		<path class="st2" d="M1124.8,774.1v2.8h-13.9v8.3h12.9v2.8h-12.9v9.1h14.2v2.8h-17.6v-25.9H1124.8z"/>
		<path class="st2" d="M1147.5,774.1v2.8h-8.1v23h-3.4v-23h-8.1v-2.8H1147.5z"/>
		<path class="st2" d="M1166,800l-2.4-6.6H1152l-2.4,6.6h-3.4l9.4-25.9h4.4l9.4,25.9H1166z M1153,790.5h9.6l-1.2-3.4
			c-1.6-4.5-2.8-8-3.6-10.5c-0.6,1.8-1.1,3.3-1.5,4.6c-0.2,0.6-0.4,1.3-0.7,2.1s-0.5,1.4-0.6,1.7l-0.8,2.2L1153,790.5z"/>
		<path class="st2" d="M1176.6,774.1V800h-3.4v-25.9H1176.6z"/>
		<path class="st2" d="M1186.2,774.1v23h12.1v2.8h-15.5v-25.9H1186.2z"/>
	</g>
	<path class="st2" d="M1362.2,462l-56.8,156h28.7l10.9-30h70.6l10.9,30h28.7l-56.8-156H1362.2z M1354.9,561l25.5-70l25.5,70H1354.9z
		"/>
	<polygon class="st2" points="819.8,489 819.8,462 705.8,462 705.8,618 819.8,618 819.8,591 738.8,591 738.8,549 807.8,549 
		807.8,522 738.8,522 738.8,489 	"/>
	<path class="st2" d="M619.7,543l-85.3-15l-4.7,26.6l42.4,7.5c-5.5,18.7-19.6,32-42.4,32c-30,0-45-21-45-54s15-54,45-54
		c21.3,0,35.1,10.6,41.2,28.7l30.1-11c-11.9-28.6-38.4-44.7-71.4-44.7c-45,0-78,30-78,81s33,81,78,81c18.5,0,34.3-7.9,45.8-20.7
		l2.2,17.7h21v-51.3l16.4,2.9L619.7,543z"/>
	<path class="st2" d="M992.3,528.9l-26.7-4.7c-14-2.5-23.4-8.2-23.4-20.1s10.9-18,25.5-18c12.5,0,23,6.6,25.7,14.2l29.8-10.8
		c-7.4-17.3-27.7-30.4-55.5-30.4l0,0c-35.2,0-58.5,18-58.5,45c0,27,20.5,41.2,43.6,45.3l24.5,4.3c13.1,2.3,21.9,10.2,21.9,19.4
		c0,15-13.7,21-31.5,21c-14.9,0-27.8-8.7-31.3-16.8l-30.2,11c7.9,19.3,30.9,32.8,61.5,32.8c38.1,0,64.5-18,64.5-48
		C1032.3,549,1016.5,533.1,992.3,528.9z"/>
	<path class="st2" d="M1196.3,528.9l-26.7-4.7c-14-2.5-23.4-8.2-23.4-20.1s10.9-18,25.5-18c12.5,0,23,6.6,25.7,14.2l29.8-10.8
		c-7.4-17.3-27.7-30.4-55.5-30.4l0,0c-35.2,0-58.5,18-58.5,45c0,27,20.5,41.2,43.6,45.3l24.5,4.3c13.1,2.3,21.9,10.2,21.9,19.4
		c0,15-13.7,21-31.5,21c-14.9,0-27.8-8.7-31.3-16.8l-30.2,11c7.9,19.3,30.9,32.8,61.5,32.8c38.1,0,64.5-18,64.5-48
		C1236.3,549,1220.5,533.1,1196.3,528.9z"/>
	<path class="st3" d="M363.7,544.8h-2.5l-3-4.4l-3,4.4h-2.5l4.1-6l-3.7-5.3h2.5l2.5,3.8l2.5-3.8h2.5l-3.7,5.3L363.7,544.8z"/>
	<rect x="385.4" y="462" class="st3" width="5.9" height="156"/>
	<path class="st3" d="M369.6,700.8h-2.5l-3-4.4l-3,4.4h-2.5l4.1-6l-3.7-5.3h2.5l2.5,3.8l2.5-3.8h2.5l-3.7,5.3L369.6,700.8z"/>
	<rect x="391.3" y="618" class="st3" width="5.9" height="156"/>
	<rect x="1918" y="461.5" class="st3" width="2" height="1"/>
	<path class="st3" d="M1915,462.5h-4v-1h4V462.5z M1908,462.5h-4v-1h4V462.5z M1901,462.5h-4v-1h4V462.5z M1894,462.5h-4v-1h4V462.5
		z M1887,462.5h-4v-1h4V462.5z M1880,462.5h-4v-1h4V462.5z M1873,462.5h-4v-1h4V462.5z M1866,462.5h-4v-1h4V462.5z M1859,462.5h-4
		v-1h4V462.5z M1852,462.5h-4v-1h4V462.5z M1845,462.5h-4v-1h4V462.5z M1838,462.5h-4v-1h4V462.5z M1831,462.5h-4v-1h4V462.5z
		 M1824,462.5h-4v-1h4V462.5z M1817,462.5h-4v-1h4V462.5z M1810,462.5h-4v-1h4V462.5z M1803,462.5h-4v-1h4V462.5z M1796,462.5h-4v-1
		h4V462.5z M1789,462.5h-4v-1h4V462.5z M1782,462.5h-4v-1h4V462.5z M1775,462.5h-4v-1h4V462.5z M1768,462.5h-4v-1h4V462.5z
		 M1761,462.5h-4v-1h4V462.5z M1754,462.5h-4v-1h4V462.5z M1747,462.5h-4v-1h4V462.5z M1740,462.5h-4v-1h4V462.5z M1733,462.5h-4v-1
		h4V462.5z M1726,462.5h-4v-1h4V462.5z M1719,462.5h-4v-1h4V462.5z M1712,462.5h-4v-1h4V462.5z M1705,462.5h-4v-1h4V462.5z
		 M1698,462.5h-4v-1h4V462.5z M1691,462.5h-4v-1h4V462.5z M1684,462.5h-4v-1h4V462.5z M1677,462.5h-4v-1h4V462.5z M1670,462.5h-4v-1
		h4V462.5z M1663,462.5h-4v-1h4V462.5z M1656,462.5h-4v-1h4V462.5z M1649,462.5h-4v-1h4V462.5z M1642,462.5h-4v-1h4V462.5z
		 M1635,462.5h-4v-1h4V462.5z M1628,462.5h-4v-1h4V462.5z M1621,462.5h-4v-1h4V462.5z M1614,462.5h-4v-1h4V462.5z M1607,462.5h-4v-1
		h4V462.5z M1600,462.5h-4v-1h4V462.5z M1593,462.5h-4v-1h4V462.5z M1586,462.5h-4v-1h4V462.5z M1579,462.5h-4v-1h4V462.5z
		 M1572,462.5h-4v-1h4V462.5z M1565,462.5h-4v-1h4V462.5z M1558,462.5h-4v-1h4V462.5z M1551,462.5h-4v-1h4V462.5z M1544,462.5h-4v-1
		h4V462.5z M1537,462.5h-4v-1h4V462.5z M1530,462.5h-4v-1h4V462.5z M1523,462.5h-4v-1h4V462.5z M1516,462.5h-4v-1h4V462.5z
		 M1509,462.5h-4v-1h4V462.5z M1502,462.5h-4v-1h4V462.5z M1495,462.5h-4v-1h4V462.5z M1488,462.5h-4v-1h4V462.5z M1481,462.5h-4v-1
		h4V462.5z M1474,462.5h-4v-1h4V462.5z M1467,462.5h-4v-1h4V462.5z M1460,462.5h-4v-1h4V462.5z M1453,462.5h-4v-1h4V462.5z
		 M1446,462.5h-4v-1h4V462.5z M1439,462.5h-4v-1h4V462.5z M1432,462.5h-4v-1h4V462.5z M1425,462.5h-4v-1h4V462.5z M1418,462.5h-4v-1
		h4V462.5z M1411,462.5h-4v-1h4V462.5z M1404,462.5h-4v-1h4V462.5z M1397,462.5h-4v-1h4V462.5z M1390,462.5h-4v-1h4V462.5z
		 M1383,462.5h-4v-1h4V462.5z M1376,462.5h-4v-1h4V462.5z M1369,462.5h-4v-1h4V462.5z M1362,462.5h-4v-1h4V462.5z M1355,462.5h-4v-1
		h4V462.5z M1348,462.5h-4v-1h4V462.5z M1341,462.5h-4v-1h4V462.5z M1334,462.5h-4v-1h4V462.5z M1327,462.5h-4v-1h4V462.5z
		 M1320,462.5h-4v-1h4V462.5z M1313,462.5h-4v-1h4V462.5z M1306,462.5h-4v-1h4V462.5z M1299,462.5h-4v-1h4V462.5z M1292,462.5h-4v-1
		h4V462.5z M1285,462.5h-4v-1h4V462.5z M1278,462.5h-4v-1h4V462.5z M1271,462.5h-4v-1h4V462.5z M1264,462.5h-4v-1h4V462.5z
		 M1257,462.5h-4v-1h4V462.5z M1250,462.5h-4v-1h4V462.5z M1243,462.5h-4v-1h4V462.5z M1236,462.5h-4v-1h4V462.5z M1229,462.5h-4v-1
		h4V462.5z M1222,462.5h-4v-1h4V462.5z M1215,462.5h-4v-1h4V462.5z M1208,462.5h-4v-1h4V462.5z M1201,462.5h-4v-1h4V462.5z
		 M1194,462.5h-4v-1h4V462.5z M1187,462.5h-4v-1h4V462.5z M1180,462.5h-4v-1h4V462.5z M1173,462.5h-4v-1h4V462.5z M1166,462.5h-4v-1
		h4V462.5z M1159,462.5h-4v-1h4V462.5z M1152,462.5h-4v-1h4V462.5z M1145,462.5h-4v-1h4V462.5z M1138,462.5h-4v-1h4V462.5z
		 M1131,462.5h-4v-1h4V462.5z M1124,462.5h-4v-1h4V462.5z M1117,462.5h-4v-1h4V462.5z M1110,462.5h-4v-1h4V462.5z M1103,462.5h-4v-1
		h4V462.5z M1096,462.5h-4v-1h4V462.5z M1089,462.5h-4v-1h4V462.5z M1082,462.5h-4v-1h4V462.5z M1075,462.5h-4v-1h4V462.5z
		 M1068,462.5h-4v-1h4V462.5z M1061,462.5h-4v-1h4V462.5z M1054,462.5h-4v-1h4V462.5z M1047,462.5h-4v-1h4V462.5z M1040,462.5h-4v-1
		h4V462.5z M1033,462.5h-4v-1h4V462.5z M1026,462.5h-4v-1h4V462.5z M1019,462.5h-4v-1h4V462.5z M1012,462.5h-4v-1h4V462.5z
		 M1005,462.5h-4v-1h4V462.5z M998,462.5h-4v-1h4V462.5z M991,462.5h-4v-1h4V462.5z M984,462.5h-4v-1h4V462.5z M977,462.5h-4v-1h4
		V462.5z M970,462.5h-4v-1h4V462.5z M963,462.5h-4v-1h4V462.5z M956,462.5h-4v-1h4V462.5z M949,462.5h-4v-1h4V462.5z M942,462.5h-4
		v-1h4V462.5z M935,462.5h-4v-1h4V462.5z M928,462.5h-4v-1h4V462.5z M921,462.5h-4v-1h4V462.5z M914,462.5h-4v-1h4V462.5z
		 M907,462.5h-4v-1h4V462.5z M900,462.5h-4v-1h4V462.5z M893,462.5h-4v-1h4V462.5z M886,462.5h-4v-1h4V462.5z M879,462.5h-4v-1h4
		V462.5z M872,462.5h-4v-1h4V462.5z M865,462.5h-4v-1h4V462.5z M858,462.5h-4v-1h4V462.5z M851,462.5h-4v-1h4V462.5z M844,462.5h-4
		v-1h4V462.5z M837,462.5h-4v-1h4V462.5z M830,462.5h-4v-1h4V462.5z M823,462.5h-4v-1h4V462.5z M816,462.5h-4v-1h4V462.5z
		 M809,462.5h-4v-1h4V462.5z M802,462.5h-4v-1h4V462.5z M795,462.5h-4v-1h4V462.5z M788,462.5h-4v-1h4V462.5z M781,462.5h-4v-1h4
		V462.5z M774,462.5h-4v-1h4V462.5z M767,462.5h-4v-1h4V462.5z M760,462.5h-4v-1h4V462.5z M753,462.5h-4v-1h4V462.5z M746,462.5h-4
		v-1h4V462.5z M739,462.5h-4v-1h4V462.5z M732,462.5h-4v-1h4V462.5z M725,462.5h-4v-1h4V462.5z M718,462.5h-4v-1h4V462.5z
		 M711,462.5h-4v-1h4V462.5z M704,462.5h-4v-1h4V462.5z M697,462.5h-4v-1h4V462.5z M690,462.5h-4v-1h4V462.5z M683,462.5h-4v-1h4
		V462.5z M676,462.5h-4v-1h4V462.5z M669,462.5h-4v-1h4V462.5z M662,462.5h-4v-1h4V462.5z M655,462.5h-4v-1h4V462.5z M648,462.5h-4
		v-1h4V462.5z M641,462.5h-4v-1h4V462.5z M634,462.5h-4v-1h4V462.5z M627,462.5h-4v-1h4V462.5z M620,462.5h-4v-1h4V462.5z
		 M613,462.5h-4v-1h4V462.5z M606,462.5h-4v-1h4V462.5z M599,462.5h-4v-1h4V462.5z M592,462.5h-4v-1h4V462.5z M585,462.5h-4v-1h4
		V462.5z M578,462.5h-4v-1h4V462.5z M571,462.5h-4v-1h4V462.5z M564,462.5h-4v-1h4V462.5z M557,462.5h-4v-1h4V462.5z M550,462.5h-4
		v-1h4V462.5z M543,462.5h-4v-1h4V462.5z M536,462.5h-4v-1h4V462.5z M529,462.5h-4v-1h4V462.5z M522,462.5h-4v-1h4V462.5z
		 M515,462.5h-4v-1h4V462.5z M508,462.5h-4v-1h4V462.5z M501,462.5h-4v-1h4V462.5z M494,462.5h-4v-1h4V462.5z M487,462.5h-4v-1h4
		V462.5z M480,462.5h-4v-1h4V462.5z M473,462.5h-4v-1h4V462.5z M466,462.5h-4v-1h4V462.5z M459,462.5h-4v-1h4V462.5z M452,462.5h-4
		v-1h4V462.5z M445,462.5h-4v-1h4V462.5z M438,462.5h-4v-1h4V462.5z M431,462.5h-4v-1h4V462.5z M424,462.5h-4v-1h4V462.5z
		 M417,462.5h-4v-1h4V462.5z M410,462.5h-4v-1h4V462.5z M403,462.5h-4v-1h4V462.5z M396,462.5h-4v-1h4V462.5z M389,462.5h-4v-1h4
		V462.5z M382,462.5h-4v-1h4V462.5z M375,462.5h-4v-1h4V462.5z M368,462.5h-4v-1h4V462.5z M361,462.5h-4v-1h4V462.5z M354,462.5h-4
		v-1h4V462.5z M347,462.5h-4v-1h4V462.5z M340,462.5h-4v-1h4V462.5z M333,462.5h-4v-1h4V462.5z M326,462.5h-4v-1h4V462.5z
		 M319,462.5h-4v-1h4V462.5z M312,462.5h-4v-1h4V462.5z M305,462.5h-4v-1h4V462.5z M298,462.5h-4v-1h4V462.5z M291,462.5h-4v-1h4
		V462.5z M284,462.5h-4v-1h4V462.5z M277,462.5h-4v-1h4V462.5z M270,462.5h-4v-1h4V462.5z M263,462.5h-4v-1h4V462.5z M256,462.5h-4
		v-1h4V462.5z M249,462.5h-4v-1h4V462.5z M242,462.5h-4v-1h4V462.5z M235,462.5h-4v-1h4V462.5z M228,462.5h-4v-1h4V462.5z
		 M221,462.5h-4v-1h4V462.5z M214,462.5h-4v-1h4V462.5z M207,462.5h-4v-1h4V462.5z M200,462.5h-4v-1h4V462.5z M193,462.5h-4v-1h4
		V462.5z M186,462.5h-4v-1h4V462.5z M179,462.5h-4v-1h4V462.5z M172,462.5h-4v-1h4V462.5z M165,462.5h-4v-1h4V462.5z M158,462.5h-4
		v-1h4V462.5z M151,462.5h-4v-1h4V462.5z M144,462.5h-4v-1h4V462.5z M137,462.5h-4v-1h4V462.5z M130,462.5h-4v-1h4V462.5z
		 M123,462.5h-4v-1h4V462.5z M116,462.5h-4v-1h4V462.5z M109,462.5h-4v-1h4V462.5z M102,462.5h-4v-1h4V462.5z M95,462.5h-4v-1h4
		V462.5z M88,462.5h-4v-1h4V462.5z M81,462.5h-4v-1h4V462.5z M74,462.5h-4v-1h4V462.5z M67,462.5h-4v-1h4V462.5z M60,462.5h-4v-1h4
		V462.5z M53,462.5h-6v-1h4L53,462.5z M46,462.5h-6v-1h4L46,462.5z M39,462.5h-6v-1h4L39,462.5z M32,462.5h-6v-1h4L32,462.5z
		 M25,462.5h-6v-1h4L25,462.5z M18,462.5h-6v-1h4L18,462.5z M11,462.5H5v-1h4L11,462.5z"/>
	<rect y="461.5" class="st3" width="2" height="1"/>
	<rect x="1918" y="617.5" class="st3" width="2" height="1"/>
	<path class="st3" d="M1915,618.5h-4v-1h4V618.5z M1908,618.5h-4v-1h4V618.5z M1901,618.5h-4v-1h4V618.5z M1894,618.5h-4v-1h4V618.5
		z M1887,618.5h-4v-1h4V618.5z M1880,618.5h-4v-1h4V618.5z M1873,618.5h-4v-1h4V618.5z M1866,618.5h-4v-1h4V618.5z M1859,618.5h-4
		v-1h4V618.5z M1852,618.5h-4v-1h4V618.5z M1845,618.5h-4v-1h4V618.5z M1838,618.5h-4v-1h4V618.5z M1831,618.5h-4v-1h4V618.5z
		 M1824,618.5h-4v-1h4V618.5z M1817,618.5h-4v-1h4V618.5z M1810,618.5h-4v-1h4V618.5z M1803,618.5h-4v-1h4V618.5z M1796,618.5h-4v-1
		h4V618.5z M1789,618.5h-4v-1h4V618.5z M1782,618.5h-4v-1h4V618.5z M1775,618.5h-4v-1h4V618.5z M1768,618.5h-4v-1h4V618.5z
		 M1761,618.5h-4v-1h4V618.5z M1754,618.5h-4v-1h4V618.5z M1747,618.5h-4v-1h4V618.5z M1740,618.5h-4v-1h4V618.5z M1733,618.5h-4v-1
		h4V618.5z M1726,618.5h-4v-1h4V618.5z M1719,618.5h-4v-1h4V618.5z M1712,618.5h-4v-1h4V618.5z M1705,618.5h-4v-1h4V618.5z
		 M1698,618.5h-4v-1h4V618.5z M1691,618.5h-4v-1h4V618.5z M1684,618.5h-4v-1h4V618.5z M1677,618.5h-4v-1h4V618.5z M1670,618.5h-4v-1
		h4V618.5z M1663,618.5h-4v-1h4V618.5z M1656,618.5h-4v-1h4V618.5z M1649,618.5h-4v-1h4V618.5z M1642,618.5h-4v-1h4V618.5z
		 M1635,618.5h-4v-1h4V618.5z M1628,618.5h-4v-1h4V618.5z M1621,618.5h-4v-1h4V618.5z M1614,618.5h-4v-1h4V618.5z M1607,618.5h-4v-1
		h4V618.5z M1600,618.5h-4v-1h4V618.5z M1593,618.5h-4v-1h4V618.5z M1586,618.5h-4v-1h4V618.5z M1579,618.5h-4v-1h4V618.5z
		 M1572,618.5h-4v-1h4V618.5z M1565,618.5h-4v-1h4V618.5z M1558,618.5h-4v-1h4V618.5z M1551,618.5h-4v-1h4V618.5z M1544,618.5h-4v-1
		h4V618.5z M1537,618.5h-4v-1h4V618.5z M1530,618.5h-4v-1h4V618.5z M1523,618.5h-4v-1h4V618.5z M1516,618.5h-4v-1h4V618.5z
		 M1509,618.5h-4v-1h4V618.5z M1502,618.5h-4v-1h4V618.5z M1495,618.5h-4v-1h4V618.5z M1488,618.5h-4v-1h4V618.5z M1481,618.5h-4v-1
		h4V618.5z M1474,618.5h-4v-1h4V618.5z M1467,618.5h-4v-1h4V618.5z M1460,618.5h-4v-1h4V618.5z M1453,618.5h-4v-1h4V618.5z
		 M1446,618.5h-4v-1h4V618.5z M1439,618.5h-4v-1h4V618.5z M1432,618.5h-4v-1h4V618.5z M1425,618.5h-4v-1h4V618.5z M1418,618.5h-4v-1
		h4V618.5z M1411,618.5h-4v-1h4V618.5z M1404,618.5h-4v-1h4V618.5z M1397,618.5h-4v-1h4V618.5z M1390,618.5h-4v-1h4V618.5z
		 M1383,618.5h-4v-1h4V618.5z M1376,618.5h-4v-1h4V618.5z M1369,618.5h-4v-1h4V618.5z M1362,618.5h-4v-1h4V618.5z M1355,618.5h-4v-1
		h4V618.5z M1348,618.5h-4v-1h4V618.5z M1341,618.5h-4v-1h4V618.5z M1334,618.5h-4v-1h4V618.5z M1327,618.5h-4v-1h4V618.5z
		 M1320,618.5h-4v-1h4V618.5z M1313,618.5h-4v-1h4V618.5z M1306,618.5h-4v-1h4V618.5z M1299,618.5h-4v-1h4V618.5z M1292,618.5h-4v-1
		h4V618.5z M1285,618.5h-4v-1h4V618.5z M1278,618.5h-4v-1h4V618.5z M1271,618.5h-4v-1h4V618.5z M1264,618.5h-4v-1h4V618.5z
		 M1257,618.5h-4v-1h4V618.5z M1250,618.5h-4v-1h4V618.5z M1243,618.5h-4v-1h4V618.5z M1236,618.5h-4v-1h4V618.5z M1229,618.5h-4v-1
		h4V618.5z M1222,618.5h-4v-1h4V618.5z M1215,618.5h-4v-1h4V618.5z M1208,618.5h-4v-1h4V618.5z M1201,618.5h-4v-1h4V618.5z
		 M1194,618.5h-4v-1h4V618.5z M1187,618.5h-4v-1h4V618.5z M1180,618.5h-4v-1h4V618.5z M1173,618.5h-4v-1h4V618.5z M1166,618.5h-4v-1
		h4V618.5z M1159,618.5h-4v-1h4V618.5z M1152,618.5h-4v-1h4V618.5z M1145,618.5h-4v-1h4V618.5z M1138,618.5h-4v-1h4V618.5z
		 M1131,618.5h-4v-1h4V618.5z M1124,618.5h-4v-1h4V618.5z M1117,618.5h-4v-1h4V618.5z M1110,618.5h-4v-1h4V618.5z M1103,618.5h-4v-1
		h4V618.5z M1096,618.5h-4v-1h4V618.5z M1089,618.5h-4v-1h4V618.5z M1082,618.5h-4v-1h4V618.5z M1075,618.5h-4v-1h4V618.5z
		 M1068,618.5h-4v-1h4V618.5z M1061,618.5h-4v-1h4V618.5z M1054,618.5h-4v-1h4V618.5z M1047,618.5h-4v-1h4V618.5z M1040,618.5h-4v-1
		h4V618.5z M1033,618.5h-4v-1h4V618.5z M1026,618.5h-4v-1h4V618.5z M1019,618.5h-4v-1h4V618.5z M1012,618.5h-4v-1h4V618.5z
		 M1005,618.5h-4v-1h4V618.5z M998,618.5h-4v-1h4V618.5z M991,618.5h-4v-1h4V618.5z M984,618.5h-4v-1h4V618.5z M977,618.5h-4v-1h4
		V618.5z M970,618.5h-4v-1h4V618.5z M963,618.5h-4v-1h4V618.5z M956,618.5h-4v-1h4V618.5z M949,618.5h-4v-1h4V618.5z M942,618.5h-4
		v-1h4V618.5z M935,618.5h-4v-1h4V618.5z M928,618.5h-4v-1h4V618.5z M921,618.5h-4v-1h4V618.5z M914,618.5h-4v-1h4V618.5z
		 M907,618.5h-4v-1h4V618.5z M900,618.5h-4v-1h4V618.5z M893,618.5h-4v-1h4V618.5z M886,618.5h-4v-1h4V618.5z M879,618.5h-4v-1h4
		V618.5z M872,618.5h-4v-1h4V618.5z M865,618.5h-4v-1h4V618.5z M858,618.5h-4v-1h4V618.5z M851,618.5h-4v-1h4V618.5z M844,618.5h-4
		v-1h4V618.5z M837,618.5h-4v-1h4V618.5z M830,618.5h-4v-1h4V618.5z M823,618.5h-4v-1h4V618.5z M816,618.5h-4v-1h4V618.5z
		 M809,618.5h-4v-1h4V618.5z M802,618.5h-4v-1h4V618.5z M795,618.5h-4v-1h4V618.5z M788,618.5h-4v-1h4V618.5z M781,618.5h-4v-1h4
		V618.5z M774,618.5h-4v-1h4V618.5z M767,618.5h-4v-1h4V618.5z M760,618.5h-4v-1h4V618.5z M753,618.5h-4v-1h4V618.5z M746,618.5h-4
		v-1h4V618.5z M739,618.5h-4v-1h4V618.5z M732,618.5h-4v-1h4V618.5z M725,618.5h-4v-1h4V618.5z M718,618.5h-4v-1h4V618.5z
		 M711,618.5h-4v-1h4V618.5z M704,618.5h-4v-1h4V618.5z M697,618.5h-4v-1h4V618.5z M690,618.5h-4v-1h4V618.5z M683,618.5h-4v-1h4
		V618.5z M676,618.5h-4v-1h4V618.5z M669,618.5h-4v-1h4V618.5z M662,618.5h-4v-1h4V618.5z M655,618.5h-4v-1h4V618.5z M648,618.5h-4
		v-1h4V618.5z M641,618.5h-4v-1h4V618.5z M634,618.5h-4v-1h4V618.5z M627,618.5h-4v-1h4V618.5z M620,618.5h-4v-1h4V618.5z
		 M613,618.5h-4v-1h4V618.5z M606,618.5h-4v-1h4V618.5z M599,618.5h-4v-1h4V618.5z M592,618.5h-4v-1h4V618.5z M585,618.5h-4v-1h4
		V618.5z M578,618.5h-4v-1h4V618.5z M571,618.5h-4v-1h4V618.5z M564,618.5h-4v-1h4V618.5z M557,618.5h-4v-1h4V618.5z M550,618.5h-4
		v-1h4V618.5z M543,618.5h-4v-1h4V618.5z M536,618.5h-4v-1h4V618.5z M529,618.5h-4v-1h4V618.5z M522,618.5h-4v-1h4V618.5z
		 M515,618.5h-4v-1h4V618.5z M508,618.5h-4v-1h4V618.5z M501,618.5h-4v-1h4V618.5z M494,618.5h-4v-1h4V618.5z M487,618.5h-4v-1h4
		V618.5z M480,618.5h-4v-1h4V618.5z M473,618.5h-4v-1h4V618.5z M466,618.5h-4v-1h4V618.5z M459,618.5h-4v-1h4V618.5z M452,618.5h-4
		v-1h4V618.5z M445,618.5h-4v-1h4V618.5z M438,618.5h-4v-1h4V618.5z M431,618.5h-4v-1h4V618.5z M424,618.5h-4v-1h4V618.5z
		 M417,618.5h-4v-1h4V618.5z M410,618.5h-4v-1h4V618.5z M403,618.5h-4v-1h4V618.5z M396,618.5h-4v-1h4V618.5z M389,618.5h-4v-1h4
		V618.5z M382,618.5h-4v-1h4V618.5z M375,618.5h-4v-1h4V618.5z M368,618.5h-4v-1h4V618.5z M361,618.5h-4v-1h4V618.5z M354,618.5h-4
		v-1h4V618.5z M347,618.5h-4v-1h4V618.5z M340,618.5h-4v-1h4V618.5z M333,618.5h-4v-1h4V618.5z M326,618.5h-4v-1h4V618.5z
		 M319,618.5h-4v-1h4V618.5z M312,618.5h-4v-1h4V618.5z M305,618.5h-4v-1h4V618.5z M298,618.5h-4v-1h4V618.5z M291,618.5h-4v-1h4
		V618.5z M284,618.5h-4v-1h4V618.5z M277,618.5h-4v-1h4V618.5z M270,618.5h-4v-1h4V618.5z M263,618.5h-4v-1h4V618.5z M256,618.5h-4
		v-1h4V618.5z M249,618.5h-4v-1h4V618.5z M242,618.5h-4v-1h4V618.5z M235,618.5h-4v-1h4V618.5z M228,618.5h-4v-1h4V618.5z
		 M221,618.5h-4v-1h4V618.5z M214,618.5h-4v-1h4V618.5z M207,618.5h-4v-1h4V618.5z M200,618.5h-4v-1h4V618.5z M193,618.5h-4v-1h4
		V618.5z M186,618.5h-4v-1h4V618.5z M179,618.5h-4v-1h4V618.5z M172,618.5h-4v-1h4V618.5z M165,618.5h-4v-1h4V618.5z M158,618.5h-4
		v-1h4V618.5z M151,618.5h-4v-1h4V618.5z M144,618.5h-4v-1h4V618.5z M137,618.5h-4v-1h4V618.5z M130,618.5h-4v-1h4V618.5z
		 M123,618.5h-4v-1h4V618.5z M116,618.5h-4v-1h4V618.5z M109,618.5h-4v-1h4V618.5z M102,618.5h-4v-1h4V618.5z M95,618.5h-4v-1h4
		V618.5z M88,618.5h-4v-1h4V618.5z M81,618.5h-4v-1h4V618.5z M74,618.5h-4v-1h4V618.5z M67,618.5h-4v-1h4V618.5z M60,618.5h-4v-1h4
		V618.5z M53,618.5h-6v-1h4L53,618.5z M46,618.5h-6v-1h4L46,618.5z M39,618.5h-6v-1h4L39,618.5z M32,618.5h-6v-1h4L32,618.5z
		 M25,618.5h-6v-1h4L25,618.5z M18,618.5h-6v-1h4L18,618.5z M11,618.5H5v-1h4L11,618.5z"/>
	<rect y="617.5" class="st3" width="2" height="1"/>
	<rect x="1918" y="773.6" class="st3" width="2" height="1"/>
	<path class="st3" d="M1915,774.6h-4v-1h4V774.6z M1908,774.6h-4v-1h4V774.6z M1901,774.6h-4v-1h4V774.6z M1894,774.6h-4v-1h4V774.6
		z M1887,774.6h-4v-1h4V774.6z M1880,774.6h-4v-1h4V774.6z M1873,774.6h-4v-1h4V774.6z M1866,774.6h-4v-1h4V774.6z M1859,774.6h-4
		v-1h4V774.6z M1852,774.6h-4v-1h4V774.6z M1845,774.6h-4v-1h4V774.6z M1838,774.6h-4v-1h4V774.6z M1831,774.6h-4v-1h4V774.6z
		 M1824,774.6h-4v-1h4V774.6z M1817,774.6h-4v-1h4V774.6z M1810,774.6h-4v-1h4V774.6z M1803,774.6h-4v-1h4V774.6z M1796,774.6h-4v-1
		h4V774.6z M1789,774.6h-4v-1h4V774.6z M1782,774.6h-4v-1h4V774.6z M1775,774.6h-4v-1h4V774.6z M1768,774.6h-4v-1h4V774.6z
		 M1761,774.6h-4v-1h4V774.6z M1754,774.6h-4v-1h4V774.6z M1747,774.6h-4v-1h4V774.6z M1740,774.6h-4v-1h4V774.6z M1733,774.6h-4v-1
		h4V774.6z M1726,774.6h-4v-1h4V774.6z M1719,774.6h-4v-1h4V774.6z M1712,774.6h-4v-1h4V774.6z M1705,774.6h-4v-1h4V774.6z
		 M1698,774.6h-4v-1h4V774.6z M1691,774.6h-4v-1h4V774.6z M1684,774.6h-4v-1h4V774.6z M1677,774.6h-4v-1h4V774.6z M1670,774.6h-4v-1
		h4V774.6z M1663,774.6h-4v-1h4V774.6z M1656,774.6h-4v-1h4V774.6z M1649,774.6h-4v-1h4V774.6z M1642,774.6h-4v-1h4V774.6z
		 M1635,774.6h-4v-1h4V774.6z M1628,774.6h-4v-1h4V774.6z M1621,774.6h-4v-1h4V774.6z M1614,774.6h-4v-1h4V774.6z M1607,774.6h-4v-1
		h4V774.6z M1600,774.6h-4v-1h4V774.6z M1593,774.6h-4v-1h4V774.6z M1586,774.6h-4v-1h4V774.6z M1579,774.6h-4v-1h4V774.6z
		 M1572,774.6h-4v-1h4V774.6z M1565,774.6h-4v-1h4V774.6z M1558,774.6h-4v-1h4V774.6z M1551,774.6h-4v-1h4V774.6z M1544,774.6h-4v-1
		h4V774.6z M1537,774.6h-4v-1h4V774.6z M1530,774.6h-4v-1h4V774.6z M1523,774.6h-4v-1h4V774.6z M1516,774.6h-4v-1h4V774.6z
		 M1509,774.6h-4v-1h4V774.6z M1502,774.6h-4v-1h4V774.6z M1495,774.6h-4v-1h4V774.6z M1488,774.6h-4v-1h4V774.6z M1481,774.6h-4v-1
		h4V774.6z M1474,774.6h-4v-1h4V774.6z M1467,774.6h-4v-1h4V774.6z M1460,774.6h-4v-1h4V774.6z M1453,774.6h-4v-1h4V774.6z
		 M1446,774.6h-4v-1h4V774.6z M1439,774.6h-4v-1h4V774.6z M1432,774.6h-4v-1h4V774.6z M1425,774.6h-4v-1h4V774.6z M1418,774.6h-4v-1
		h4V774.6z M1411,774.6h-4v-1h4V774.6z M1404,774.6h-4v-1h4V774.6z M1397,774.6h-4v-1h4V774.6z M1390,774.6h-4v-1h4V774.6z
		 M1383,774.6h-4v-1h4V774.6z M1376,774.6h-4v-1h4V774.6z M1369,774.6h-4v-1h4V774.6z M1362,774.6h-4v-1h4V774.6z M1355,774.6h-4v-1
		h4V774.6z M1348,774.6h-4v-1h4V774.6z M1341,774.6h-4v-1h4V774.6z M1334,774.6h-4v-1h4V774.6z M1327,774.6h-4v-1h4V774.6z
		 M1320,774.6h-4v-1h4V774.6z M1313,774.6h-4v-1h4V774.6z M1306,774.6h-4v-1h4V774.6z M1299,774.6h-4v-1h4V774.6z M1292,774.6h-4v-1
		h4V774.6z M1285,774.6h-4v-1h4V774.6z M1278,774.6h-4v-1h4V774.6z M1271,774.6h-4v-1h4V774.6z M1264,774.6h-4v-1h4V774.6z
		 M1257,774.6h-4v-1h4V774.6z M1250,774.6h-4v-1h4V774.6z M1243,774.6h-4v-1h4V774.6z M1236,774.6h-4v-1h4V774.6z M1229,774.6h-4v-1
		h4V774.6z M1222,774.6h-4v-1h4V774.6z M1215,774.6h-4v-1h4V774.6z M1208,774.6h-4v-1h4V774.6z M1201,774.6h-4v-1h4V774.6z
		 M1194,774.6h-4v-1h4V774.6z M1187,774.6h-4v-1h4V774.6z M1180,774.6h-4v-1h4V774.6z M1173,774.6h-4v-1h4V774.6z M1166,774.6h-4v-1
		h4V774.6z M1159,774.6h-4v-1h4V774.6z M1152,774.6h-4v-1h4V774.6z M1145,774.6h-4v-1h4V774.6z M1138,774.6h-4v-1h4V774.6z
		 M1131,774.6h-4v-1h4V774.6z M1124,774.6h-4v-1h4V774.6z M1117,774.6h-4v-1h4V774.6z M1110,774.6h-4v-1h4V774.6z M1103,774.6h-4v-1
		h4V774.6z M1096,774.6h-4v-1h4V774.6z M1089,774.6h-4v-1h4V774.6z M1082,774.6h-4v-1h4V774.6z M1075,774.6h-4v-1h4V774.6z
		 M1068,774.6h-4v-1h4V774.6z M1061,774.6h-4v-1h4V774.6z M1054,774.6h-4v-1h4V774.6z M1047,774.6h-4v-1h4V774.6z M1040,774.6h-4v-1
		h4V774.6z M1033,774.6h-4v-1h4V774.6z M1026,774.6h-4v-1h4V774.6z M1019,774.6h-4v-1h4V774.6z M1012,774.6h-4v-1h4V774.6z
		 M1005,774.6h-4v-1h4V774.6z M998,774.6h-4v-1h4V774.6z M991,774.6h-4v-1h4V774.6z M984,774.6h-4v-1h4V774.6z M977,774.6h-4v-1h4
		V774.6z M970,774.6h-4v-1h4V774.6z M963,774.6h-4v-1h4V774.6z M956,774.6h-4v-1h4V774.6z M949,774.6h-4v-1h4V774.6z M942,774.6h-4
		v-1h4V774.6z M935,774.6h-4v-1h4V774.6z M928,774.6h-4v-1h4V774.6z M921,774.6h-4v-1h4V774.6z M914,774.6h-4v-1h4V774.6z
		 M907,774.6h-4v-1h4V774.6z M900,774.6h-4v-1h4V774.6z M893,774.6h-4v-1h4V774.6z M886,774.6h-4v-1h4V774.6z M879,774.6h-4v-1h4
		V774.6z M872,774.6h-4v-1h4V774.6z M865,774.6h-4v-1h4V774.6z M858,774.6h-4v-1h4V774.6z M851,774.6h-4v-1h4V774.6z M844,774.6h-4
		v-1h4V774.6z M837,774.6h-4v-1h4V774.6z M830,774.6h-4v-1h4V774.6z M823,774.6h-4v-1h4V774.6z M816,774.6h-4v-1h4V774.6z
		 M809,774.6h-4v-1h4V774.6z M802,774.6h-4v-1h4V774.6z M795,774.6h-4v-1h4V774.6z M788,774.6h-4v-1h4V774.6z M781,774.6h-4v-1h4
		V774.6z M774,774.6h-4v-1h4V774.6z M767,774.6h-4v-1h4V774.6z M760,774.6h-4v-1h4V774.6z M753,774.6h-4v-1h4V774.6z M746,774.6h-4
		v-1h4V774.6z M739,774.6h-4v-1h4V774.6z M732,774.6h-4v-1h4V774.6z M725,774.6h-4v-1h4V774.6z M718,774.6h-4v-1h4V774.6z
		 M711,774.6h-4v-1h4V774.6z M704,774.6h-4v-1h4V774.6z M697,774.6h-4v-1h4V774.6z M690,774.6h-4v-1h4V774.6z M683,774.6h-4v-1h4
		V774.6z M676,774.6h-4v-1h4V774.6z M669,774.6h-4v-1h4V774.6z M662,774.6h-4v-1h4V774.6z M655,774.6h-4v-1h4V774.6z M648,774.6h-4
		v-1h4V774.6z M641,774.6h-4v-1h4V774.6z M634,774.6h-4v-1h4V774.6z M627,774.6h-4v-1h4V774.6z M620,774.6h-4v-1h4V774.6z
		 M613,774.6h-4v-1h4V774.6z M606,774.6h-4v-1h4V774.6z M599,774.6h-4v-1h4V774.6z M592,774.6h-4v-1h4V774.6z M585,774.6h-4v-1h4
		V774.6z M578,774.6h-4v-1h4V774.6z M571,774.6h-4v-1h4V774.6z M564,774.6h-4v-1h4V774.6z M557,774.6h-4v-1h4V774.6z M550,774.6h-4
		v-1h4V774.6z M543,774.6h-4v-1h4V774.6z M536,774.6h-4v-1h4V774.6z M529,774.6h-4v-1h4V774.6z M522,774.6h-4v-1h4V774.6z
		 M515,774.6h-4v-1h4V774.6z M508,774.6h-4v-1h4V774.6z M501,774.6h-4v-1h4V774.6z M494,774.6h-4v-1h4V774.6z M487,774.6h-4v-1h4
		V774.6z M480,774.6h-4v-1h4V774.6z M473,774.6h-4v-1h4V774.6z M466,774.6h-4v-1h4V774.6z M459,774.6h-4v-1h4V774.6z M452,774.6h-4
		v-1h4V774.6z M445,774.6h-4v-1h4V774.6z M438,774.6h-4v-1h4V774.6z M431,774.6h-4v-1h4V774.6z M424,774.6h-4v-1h4V774.6z
		 M417,774.6h-4v-1h4V774.6z M410,774.6h-4v-1h4V774.6z M403,774.6h-4v-1h4V774.6z M396,774.6h-4v-1h4V774.6z M389,774.6h-4v-1h4
		V774.6z M382,774.6h-4v-1h4V774.6z M375,774.6h-4v-1h4V774.6z M368,774.6h-4v-1h4V774.6z M361,774.6h-4v-1h4V774.6z M354,774.6h-4
		v-1h4V774.6z M347,774.6h-4v-1h4V774.6z M340,774.6h-4v-1h4V774.6z M333,774.6h-4v-1h4V774.6z M326,774.6h-4v-1h4V774.6z
		 M319,774.6h-4v-1h4V774.6z M312,774.6h-4v-1h4V774.6z M305,774.6h-4v-1h4V774.6z M298,774.6h-4v-1h4V774.6z M291,774.6h-4v-1h4
		V774.6z M284,774.6h-4v-1h4V774.6z M277,774.6h-4v-1h4V774.6z M270,774.6h-4v-1h4V774.6z M263,774.6h-4v-1h4V774.6z M256,774.6h-4
		v-1h4V774.6z M249,774.6h-4v-1h4V774.6z M242,774.6h-4v-1h4V774.6z M235,774.6h-4v-1h4V774.6z M228,774.6h-4v-1h4V774.6z
		 M221,774.6h-4v-1h4V774.6z M214,774.6h-4v-1h4V774.6z M207,774.6h-4v-1h4V774.6z M200,774.6h-4v-1h4V774.6z M193,774.6h-4v-1h4
		V774.6z M186,774.6h-4v-1h4V774.6z M179,774.6h-4v-1h4V774.6z M172,774.6h-4v-1h4V774.6z M165,774.6h-4v-1h4V774.6z M158,774.6h-4
		v-1h4V774.6z M151,774.6h-4v-1h4V774.6z M144,774.6h-4v-1h4V774.6z M137,774.6h-4v-1h4V774.6z M130,774.6h-4v-1h4V774.6z
		 M123,774.6h-4v-1h4V774.6z M116,774.6h-4v-1h4V774.6z M109,774.6h-4v-1h4V774.6z M102,774.6h-4v-1h4V774.6z M95,774.6h-4v-1h4
		V774.6z M88,774.6h-4v-1h4V774.6z M81,774.6h-4v-1h4V774.6z M74,774.6h-4v-1h4V774.6z M67,774.6h-4v-1h4V774.6z M60,774.6h-4v-1h4
		V774.6z M53,774.6h-6v-1h4L53,774.6z M46,774.6h-6v-1h4L46,774.6z M39,774.6h-6v-1h4L39,774.6z M32,774.6h-6v-1h4L32,774.6z
		 M25,774.6h-6v-1h4L25,774.6z M18,774.6h-6v-1h4L18,774.6z M11,774.6H5v-1h4L11,774.6z"/>
	<rect y="773.6" class="st3" width="2" height="1"/>
	<g id="Layer_3">
		<path class="st3" d="M841.3,618.5h-157v-157h157V618.5z M685.3,617.5h155v-155h-155V617.5z"/>
		<path class="st3" d="M614.2,618.5h-157v-157h157V618.5z M458.2,617.5h155v-155h-155V617.5z"/>
		<path class="st3" d="M1047.8,618.5h-157v-157h157V618.5z M891.8,617.5h155v-155h-155V617.5z"/>
		<path class="st3" d="M1251.8,618.5h-157v-157h157V618.5z M1095.8,617.5h155v-155h-155V617.5z"/>
		<path class="st3" d="M1458.8,618.5h-157v-157h157V618.5z M1302.8,617.5h155v-155h-155V617.5z"/>
	</g>
</g>
</svg>
