<svg xmlns="http://www.w3.org/2000/svg" xmlns:xlink="http://www.w3.org/1999/xlink" viewBox="0 0 1920 1080"><defs><style>.cls-1,.cls-10,.cls-11,.cls-12,.cls-4,.cls-5,.cls-6,.cls-7,.cls-8,.cls-9{fill:none;}.cls-2{fill:#fff;}.cls-3{clip-path:url(#clip-path);}.cls-10,.cls-11,.cls-12,.cls-4,.cls-5,.cls-6,.cls-7,.cls-8,.cls-9{stroke:#000;stroke-miterlimit:10;}.cls-4{stroke-width:8px;}.cls-5{stroke-width:9px;}.cls-7{stroke-width:2px;}.cls-8{stroke-width:3px;}.cls-9{stroke-width:4px;}.cls-10{stroke-width:5px;}.cls-11{stroke-width:6px;}.cls-12{stroke-width:7px;}</style><clipPath id="clip-path"><rect class="cls-1" x="-1940" y="-1100" width="1920" height="1080"/></clipPath></defs><g id="Layer_2" data-name="Layer 2"><rect class="cls-2" width="1920" height="1080"/></g><g id="Layer_1" data-name="Layer 1"><g class="cls-3"><polyline class="cls-4" points="-2.33 6.69 -2.33 60.66 46.71 60.66"/><polyline class="cls-5" points="46.71 -47.28 46.71 6.69 95.76 6.69"/><polyline class="cls-6" points="-2.33 384.48 -2.33 438.45 46.71 438.45"/><polyline class="cls-7" points="46.71 330.51 46.71 384.48 95.76 384.48"/><polyline class="cls-8" points="95.76 276.54 95.76 330.51 144.8 330.51"/><polyline class="cls-9" points="144.8 222.57 144.8 276.54 193.85 276.54"/><polyline class="cls-10" points="193.85 168.6 193.85 222.57 242.89 222.57"/><polyline class="cls-11" points="242.89 114.63 242.89 168.6 291.94 168.6"/><polyline class="cls-12" points="291.94 60.66 291.94 114.63 340.98 114.63"/><polyline class="cls-4" points="340.98 6.69 340.98 60.66 390.03 60.66"/><polyline class="cls-5" points="390.03 -47.28 390.03 6.69 439.07 6.69"/><polyline class="cls-6" points="340.98 384.48 340.98 438.45 390.03 438.45"/><polyline class="cls-7" points="390.03 330.51 390.03 384.48 439.07 384.48"/><polyline class="cls-8" points="439.07 276.54 439.07 330.51 488.12 330.51"/><polyline class="cls-9" points="488.12 222.57 488.12 276.54 537.16 276.54"/><polyline class="cls-10" points="537.16 168.6 537.16 222.57 586.21 222.57"/><polyline class="cls-11" points="586.21 114.63 586.21 168.6 635.25 168.6"/><polyline class="cls-12" points="635.25 60.66 635.25 114.63 684.3 114.63"/><polyline class="cls-4" points="684.3 6.69 684.3 60.66 733.35 60.66"/><polyline class="cls-5" points="733.35 -47.28 733.35 6.69 782.39 6.69"/><polyline class="cls-6" points="684.3 384.48 684.3 438.45 733.35 438.45"/><polyline class="cls-7" points="733.35 330.51 733.35 384.48 782.39 384.48"/><polyline class="cls-8" points="782.39 276.54 782.39 330.51 831.44 330.51"/><polyline class="cls-9" points="831.44 222.57 831.44 276.54 880.48 276.54"/><polyline class="cls-10" points="880.48 168.6 880.48 222.57 929.53 222.57"/><polyline class="cls-11" points="929.53 114.63 929.53 168.6 978.57 168.6"/><polyline class="cls-12" points="978.57 60.66 978.57 114.63 1027.62 114.63"/><polyline class="cls-4" points="1027.62 6.69 1027.62 60.66 1076.66 60.66"/><polyline class="cls-5" points="1076.66 -47.28 1076.66 6.69 1125.71 6.69"/><polyline class="cls-6" points="1027.62 384.48 1027.62 438.45 1076.66 438.45"/><polyline class="cls-7" points="1076.66 330.51 1076.66 384.48 1125.71 384.48"/><polyline class="cls-8" points="1125.71 276.54 1125.71 330.51 1174.75 330.51"/><polyline class="cls-9" points="1174.75 222.57 1174.75 276.54 1223.8 276.54"/><polyline class="cls-10" points="1223.8 168.6 1223.8 222.57 1272.84 222.57"/><polyline class="cls-11" points="1272.84 114.63 1272.84 168.6 1321.89 168.6"/><polyline class="cls-12" points="1321.89 60.66 1321.89 114.63 1370.93 114.63"/><polyline class="cls-4" points="1370.93 6.69 1370.93 60.66 1419.98 60.66"/><polyline class="cls-5" points="1419.98 -47.28 1419.98 6.69 1469.03 6.69"/><polyline class="cls-6" points="1370.93 384.48 1370.93 438.45 1419.98 438.45"/><polyline class="cls-7" points="1419.98 330.51 1419.98 384.48 1469.03 384.48"/><polyline class="cls-8" points="1469.03 276.54 1469.03 330.51 1518.07 330.51"/><polyline class="cls-9" points="1518.07 222.57 1518.07 276.54 1567.12 276.54"/><polyline class="cls-10" points="1567.12 168.6 1567.12 222.57 1616.16 222.57"/><polyline class="cls-11" points="1616.16 114.63 1616.16 168.6 1665.21 168.6"/><polyline class="cls-12" points="1665.21 60.66 1665.21 114.63 1714.25 114.63"/><polyline class="cls-4" points="1714.25 6.69 1714.25 60.66 1763.3 60.66"/><polyline class="cls-5" points="1763.3 -47.28 1763.3 6.69 1812.34 6.69"/><polyline class="cls-6" points="1714.25 384.48 1714.25 438.45 1763.3 438.45"/><polyline class="cls-7" points="1763.3 330.51 1763.3 384.48 1812.34 384.48"/><polyline class="cls-8" points="1812.34 276.54 1812.34 330.51 1861.39 330.51"/><polyline class="cls-9" points="1861.39 222.57 1861.39 276.54 1910.43 276.54"/><polyline class="cls-10" points="1910.43 168.6 1910.43 222.57 1959.48 222.57"/></g><polygon points="618.97 198.97 618.97 881.03 1301.03 881.03 1301.03 319.24 618.97 198.97"/><path class="cls-2" d="M1009.48,654.61,854,627.19l-8.54,48.47,77.32,13.64c-10,34.16-35.72,58.29-77.35,58.29-54.69,0-82-38.29-82-98.45s27.35-98.45,82-98.45c38.92,0,64,19.39,75.2,52.25l54.8-20c-21.59-52.2-69.92-81.53-130-81.53-82,0-142.2,54.7-142.2,147.68s60.16,147.67,142.2,147.67c33.72,0,62.51-14.32,83.47-37.75l4,32.28h38.3v-93.5l29.74,5.24Z"/></g></svg>