<svg xmlns="http://www.w3.org/2000/svg" viewBox="0 0 1920 1080"><defs><style>.cls-1{fill:#fff;}.cls-2{fill:#d8d8d8;}.cls-3{fill:#b8b8b8;}.cls-4{fill:#20221d;}</style></defs><g id="Layer_2" data-name="Layer 2"><rect class="cls-1" width="1920" height="1080"/></g><g id="Layer_1" data-name="Layer 1"><rect class="cls-2" x="423.58" y="201.29" width="1097.01" height="701.58"/><rect class="cls-3" x="408.96" y="189.14" width="1097.24" height="701.73"/><path d="M749.92,719.47l-30,82.32h15.16L740.88,786h37.25l5.76,15.83h15.16l-30-82.32Zm-3.85,52.24L759.5,734.8l13.44,36.91Z"/><polygon points="572.67 610.25 572.67 596 512.52 596 512.52 678.32 572.67 678.32 572.67 664.07 529.93 664.07 529.93 641.91 566.34 641.91 566.34 627.66 529.93 627.66 529.93 610.25 572.67 610.25"/><path d="M586.92,515.26l-45-7.93-2.47,14,22.38,3.94c-2.88,9.89-10.34,16.87-22.39,16.87-15.83,0-23.74-11.08-23.74-28.49s7.91-28.49,23.74-28.49c11.26,0,18.52,5.61,21.77,15.12l15.86-5.77c-6.25-15.11-20.24-23.6-37.63-23.6-23.74,0-41.16,15.83-41.16,42.74s17.42,42.74,41.16,42.74a31.87,31.87,0,0,0,24.16-10.92l1.17,9.34h11.08V527.78l8.61,1.51Z"/><path d="M554.76,754.75l-14.08-2.48c-7.37-1.3-12.33-4.3-12.33-10.63s5.77-9.5,13.46-9.5c6.61,0,12.14,3.51,13.56,7.51l15.72-5.72c-3.88-9.13-14.63-16-29.28-16h0c-18.57,0-30.87,9.5-30.87,23.75s10.79,21.76,23,23.91l12.9,2.28c6.9,1.21,11.58,5.4,11.58,10.22,0,7.91-7.23,11.08-16.62,11.08-7.89,0-14.65-4.57-16.51-8.85l-15.94,5.8c4.18,10.17,16.32,17.29,32.45,17.29,20.11,0,34-9.49,34-25.32C575.84,765.38,567.52,757,554.76,754.75Z"/><path d="M662.4,754.75l-14.08-2.48C641,751,636,748,636,741.64s5.77-9.5,13.46-9.5c6.61,0,12.14,3.51,13.56,7.51l15.72-5.72c-3.88-9.13-14.63-16-29.28-16h0c-18.57,0-30.87,9.5-30.87,23.75s10.8,21.76,23,23.91l12.91,2.28c6.9,1.21,11.57,5.4,11.57,10.22,0,7.91-7.22,11.08-16.62,11.08-7.89,0-14.65-4.57-16.51-8.85L617,786.08c4.18,10.17,16.32,17.29,32.45,17.29,20.11,0,34-9.49,34-25.32C683.48,765.38,675.16,757,662.4,754.75Z"/><path class="cls-4" d="M1021.86,304l-8.14-12.64-4.25,4.43V304h-4.28V278.45h4.28v12.21l11.42-12.21h5.22l-9.51,9.94L1026.68,304Z"/><path class="cls-4" d="M1038.28,285.36a6.45,6.45,0,0,1,4.77,1.72,6.14,6.14,0,0,1,1.71,4.55V304h-4V292.85a4.38,4.38,0,0,0-1-3,3.58,3.58,0,0,0-2.78-1.06,3.9,3.9,0,0,0-2.91,1.19,4.16,4.16,0,0,0-1.16,3V304h-4V278.45h4v9.29A6.19,6.19,0,0,1,1038.28,285.36Z"/><path class="cls-4" d="M1056.82,285.36a8.48,8.48,0,0,1,5.64,1.7,5.73,5.73,0,0,1,2,4.61V304h-3.57V302c-1.2,1.76-3.19,2.63-6,2.63a7.85,7.85,0,0,1-4.7-1.29,4.45,4.45,0,0,1-1.78-3.82,4.72,4.72,0,0,1,2-4.12,16,16,0,0,1,6.08-2.22l4.14-.75v-.65a2.77,2.77,0,0,0-1-2.29,4.28,4.28,0,0,0-2.74-.81,6,6,0,0,0-2.9.67,13.35,13.35,0,0,0-2.9,2.32l-2.48-2.3A10.26,10.26,0,0,1,1056.82,285.36Zm-1.33,16.06a5.7,5.7,0,0,0,3.73-1.2,4.06,4.06,0,0,0,1.45-3.3v-1.65l-3.13.65a14.32,14.32,0,0,0-4,1.31,2.24,2.24,0,0,0-1.19,2,1.81,1.81,0,0,0,.85,1.59A4.08,4.08,0,0,0,1055.49,301.42Z"/><path class="cls-4" d="M1075.47,285.36a12.14,12.14,0,0,1,4,.62,12,12,0,0,1,3.59,2.12l-2.16,2.63a11.38,11.38,0,0,0-2.83-1.71,7.72,7.72,0,0,0-2.72-.45,4.52,4.52,0,0,0-2.52.61,1.85,1.85,0,0,0-.94,1.59c0,.76.58,1.3,1.73,1.62.34.12,1.26.36,2.78.72a14.23,14.23,0,0,1,5.4,2.07,4.26,4.26,0,0,1,1.55,3.58,5.05,5.05,0,0,1-2.06,4.19,8.64,8.64,0,0,1-5.47,1.61,12.39,12.39,0,0,1-4.47-.76,14.38,14.38,0,0,1-4.1-2.63l2.3-2.59a14.81,14.81,0,0,0,3.28,2.18,7.7,7.7,0,0,0,3.06.59,4.76,4.76,0,0,0,2.56-.63,1.94,1.94,0,0,0,1-1.71,2,2,0,0,0-1-1.66,20.75,20.75,0,0,0-3.69-1,13.85,13.85,0,0,1-5.24-2,4.13,4.13,0,0,1-1.39-3.42,4.86,4.86,0,0,1,2-4A8.41,8.41,0,0,1,1075.47,285.36Z"/><path class="cls-4" d="M1096,285.36a6.45,6.45,0,0,1,4.77,1.72,6.14,6.14,0,0,1,1.71,4.55V304h-4V292.85a4.34,4.34,0,0,0-1-3,3.56,3.56,0,0,0-2.77-1.06,3.9,3.9,0,0,0-2.92,1.19,4.15,4.15,0,0,0-1.15,3V304h-4V278.45h4v9.29A6.17,6.17,0,0,1,1096,285.36Z"/><path class="cls-4" d="M1114.51,285.36a8.45,8.45,0,0,1,5.63,1.7,5.73,5.73,0,0,1,2,4.61V304h-3.56V302c-1.21,1.76-3.2,2.63-6,2.63a7.83,7.83,0,0,1-4.7-1.29,4.43,4.43,0,0,1-1.78-3.82,4.73,4.73,0,0,1,2-4.12,16.1,16.1,0,0,1,6.09-2.22l4.14-.75v-.65a2.77,2.77,0,0,0-1-2.29,4.24,4.24,0,0,0-2.74-.81,5.93,5.93,0,0,0-2.89.67,13.12,13.12,0,0,0-2.9,2.32l-2.49-2.3A10.28,10.28,0,0,1,1114.51,285.36Zm-1.34,16.06a5.66,5.66,0,0,0,3.73-1.2,4.06,4.06,0,0,0,1.46-3.3v-1.65l-3.13.65a14.41,14.41,0,0,0-4,1.31,2.24,2.24,0,0,0-1.19,2,1.84,1.84,0,0,0,.85,1.59A4.13,4.13,0,0,0,1113.17,301.42Z"/><path class="cls-4" d="M1137.48,285.94h4l-7.09,20.31a7.81,7.81,0,0,1-2.2,3.67,5.73,5.73,0,0,1-3.71,1.08,12.69,12.69,0,0,1-3.17-.39l.65-3a13.69,13.69,0,0,0,2,.21,2.81,2.81,0,0,0,1.8-.57,4,4,0,0,0,1.16-2l.11-.29-6.81-19.05h4.18l1.76,5.29q1.88,5.63,2.77,8.39,1.56-5,2.7-8.42Z"/><path class="cls-4" d="M1151.67,285.36a8.45,8.45,0,0,1,5.63,1.7,5.73,5.73,0,0,1,2,4.61V304h-3.56V302c-1.21,1.76-3.2,2.63-6,2.63a7.83,7.83,0,0,1-4.7-1.29,4.43,4.43,0,0,1-1.78-3.82,4.73,4.73,0,0,1,2-4.12,16.16,16.16,0,0,1,6.09-2.22l4.14-.75v-.65a2.77,2.77,0,0,0-1-2.29,4.24,4.24,0,0,0-2.74-.81,5.93,5.93,0,0,0-2.89.67,13.12,13.12,0,0,0-2.9,2.32l-2.49-2.3A10.28,10.28,0,0,1,1151.67,285.36Zm-1.34,16.06a5.66,5.66,0,0,0,3.73-1.2,4.06,4.06,0,0,0,1.46-3.3v-1.65l-3.13.65a14.41,14.41,0,0,0-4,1.31,2.23,2.23,0,0,0-1.18,2,1.83,1.83,0,0,0,.84,1.59A4.13,4.13,0,0,0,1150.33,301.42Z"/><path class="cls-4" d="M1171.94,285.72a9.18,9.18,0,0,1,2.84.54l-.72,3.39a8.69,8.69,0,0,0-2.3-.36,3.53,3.53,0,0,0-3,1.46,6.54,6.54,0,0,0-1.1,4V304h-4V285.94h3.67v2.7A4.77,4.77,0,0,1,1171.94,285.72Z"/><path class="cls-4" d="M1201.32,290.55a6.89,6.89,0,0,1,3.6,2.29,6.21,6.21,0,0,1,1.26,4,6.74,6.74,0,0,1-2.14,5.26,8.2,8.2,0,0,1-5.74,1.95h-12.39V278.45h11.77a8.37,8.37,0,0,1,5.51,1.73,5.92,5.92,0,0,1,2.09,4.82,5.76,5.76,0,0,1-1,3.48A5.89,5.89,0,0,1,1201.32,290.55Zm-11.13-8.75V289h6.52a4.89,4.89,0,0,0,3.28-1,3.39,3.39,0,0,0,1.15-2.72q0-3.5-4.39-3.49Zm0,18.87h6.67a5.79,5.79,0,0,0,3.76-1.08,3.75,3.75,0,0,0,1.31-3.06,3.81,3.81,0,0,0-1.31-3.08,5.73,5.73,0,0,0-3.76-1.1h-6.67Z"/><path class="cls-4" d="M1217.56,285.36a8.45,8.45,0,0,1,5.63,1.7,5.7,5.7,0,0,1,2,4.61V304h-3.56V302c-1.2,1.76-3.19,2.63-6,2.63a7.85,7.85,0,0,1-4.7-1.29,4.43,4.43,0,0,1-1.78-3.82,4.72,4.72,0,0,1,2-4.12,16,16,0,0,1,6.08-2.22l4.14-.75v-.65a2.74,2.74,0,0,0-1-2.29,4.23,4.23,0,0,0-2.73-.81,6,6,0,0,0-2.9.67,13.12,13.12,0,0,0-2.9,2.32l-2.48-2.3A10.25,10.25,0,0,1,1217.56,285.36Zm-1.33,16.06a5.65,5.65,0,0,0,3.72-1.2,4,4,0,0,0,1.46-3.3v-1.65l-3.13.65a14.2,14.2,0,0,0-4,1.31,2.22,2.22,0,0,0-1.19,2,1.83,1.83,0,0,0,.84,1.59A4.14,4.14,0,0,0,1216.23,301.42Z"/><path class="cls-4" d="M1242,304l-5.58-8.68-2.85,2.92V304h-4V278.45h4v15.41l7.53-7.92h4.61l-6.56,6.84L1246.4,304Z"/><path class="cls-4" d="M1258,285.36a6.45,6.45,0,0,1,4.77,1.72,6.14,6.14,0,0,1,1.71,4.55V304h-4V292.85a4.34,4.34,0,0,0-1-3,3.54,3.54,0,0,0-2.77-1.06,3.9,3.9,0,0,0-2.92,1.19,4.19,4.19,0,0,0-1.15,3V304h-4V278.45h4v9.29A6.19,6.19,0,0,1,1258,285.36Z"/><path class="cls-4" d="M1278.56,300.6l.5,3.13a11.81,11.81,0,0,1-3.89.68,4.24,4.24,0,0,1-4.93-4.86V288.93H1267v-3h3.28v-5.83h4v5.83h4.57v3h-4.57v10.15a1.92,1.92,0,0,0,.47,1.48,2.1,2.1,0,0,0,1.47.43A10.3,10.3,0,0,0,1278.56,300.6Z"/><path class="cls-4" d="M1285.94,278.74v4.07h-4v-4.07Zm0,7.2V304h-4V285.94Z"/><path class="cls-4" d="M1298,285.36a8.45,8.45,0,0,1,5.63,1.7,5.7,5.7,0,0,1,2,4.61V304h-3.56V302c-1.2,1.76-3.19,2.63-6,2.63a7.85,7.85,0,0,1-4.7-1.29,4.43,4.43,0,0,1-1.78-3.82,4.72,4.72,0,0,1,2-4.12,16,16,0,0,1,6.08-2.22l4.14-.75v-.65a2.74,2.74,0,0,0-1-2.29,4.23,4.23,0,0,0-2.73-.81,6,6,0,0,0-2.9.67,13.12,13.12,0,0,0-2.9,2.32l-2.48-2.3A10.25,10.25,0,0,1,1298,285.36Zm-1.33,16.06a5.65,5.65,0,0,0,3.72-1.2,4,4,0,0,0,1.46-3.3v-1.65l-3.13.65a14.2,14.2,0,0,0-4,1.31,2.22,2.22,0,0,0-1.19,2,1.83,1.83,0,0,0,.84,1.59A4.14,4.14,0,0,0,1296.67,301.42Z"/><path class="cls-4" d="M1318.27,285.72a9.18,9.18,0,0,1,2.85.54l-.72,3.39a8.82,8.82,0,0,0-2.31-.36,3.53,3.53,0,0,0-3,1.46,6.54,6.54,0,0,0-1.1,4V304h-4V285.94h3.67v2.7A4.78,4.78,0,0,1,1318.27,285.72Z"/><path class="cls-4" d="M1327.67,278.74v4.07h-4v-4.07Zm0,7.2V304h-4V285.94Z"/><path class="cls-4" d="M1341.35,285.36a6.45,6.45,0,0,1,4.77,1.72,6.14,6.14,0,0,1,1.71,4.55V304h-4V292.85a4.34,4.34,0,0,0-1-3,3.56,3.56,0,0,0-2.77-1.06,3.9,3.9,0,0,0-2.92,1.19,4.15,4.15,0,0,0-1.15,3V304h-4V285.94h3.67v2.16A6.29,6.29,0,0,1,1341.35,285.36Z"/><path class="cls-4" d="M1366.2,298.51l2.27,2.41a12.72,12.72,0,0,1-3.8,2.79,10.23,10.23,0,0,1-4.2.85,9,9,0,0,1-6.73-2.6,9.43,9.43,0,0,1-2.52-6.87,10.14,10.14,0,0,1,2.43-7,8.24,8.24,0,0,1,6.46-2.72,8,8,0,0,1,6.14,2.36,9.29,9.29,0,0,1,2.18,6.54c0,.45,0,1-.07,1.62h-13.25a6.11,6.11,0,0,0,1.62,3.89,5.07,5.07,0,0,0,3.81,1.44,6,6,0,0,0,2.78-.58A14.07,14.07,0,0,0,1366.2,298.51Zm-6.2-10a4.42,4.42,0,0,0-3.15,1.17,5.91,5.91,0,0,0-1.64,3.33h9.33a4.85,4.85,0,0,0-1.3-3.3A4.35,4.35,0,0,0,1360,288.5Z"/><path class="cls-4" d="M1367.06,310.35l.72-3a14.27,14.27,0,0,0,2.23.29,1.91,1.91,0,0,0,1.62-.61,3.32,3.32,0,0,0,.47-2V285.94h4V305c0,3.92-1.8,5.87-5.4,5.87A11.34,11.34,0,0,1,1367.06,310.35Zm9-31.61v4.07h-4v-4.07Z"/><path class="cls-4" d="M1388.16,285.36a8.48,8.48,0,0,1,5.64,1.7,5.72,5.72,0,0,1,2,4.61V304h-3.56V302c-1.2,1.76-3.19,2.63-6,2.63a7.85,7.85,0,0,1-4.7-1.29,4.45,4.45,0,0,1-1.78-3.82,4.72,4.72,0,0,1,2-4.12,16,16,0,0,1,6.08-2.22l4.14-.75v-.65a2.77,2.77,0,0,0-1-2.29,4.28,4.28,0,0,0-2.74-.81,6,6,0,0,0-2.9.67,13.35,13.35,0,0,0-2.9,2.32l-2.48-2.3A10.26,10.26,0,0,1,1388.16,285.36Zm-1.33,16.06a5.7,5.7,0,0,0,3.73-1.2,4.06,4.06,0,0,0,1.45-3.3v-1.65l-3.13.65a14.2,14.2,0,0,0-4,1.31,2.24,2.24,0,0,0-1.19,2,1.81,1.81,0,0,0,.85,1.59A4.08,4.08,0,0,0,1386.83,301.42Z"/><path class="cls-4" d="M1412.93,278.45h4V304h-3.68v-2.56a6.63,6.63,0,0,1-6,3.06,7.2,7.2,0,0,1-5.75-2.65,11.61,11.61,0,0,1,0-13.79,7.27,7.27,0,0,1,5.74-2.64,6.55,6.55,0,0,1,5.65,2.59ZM1408,301.14a4.49,4.49,0,0,0,3.65-1.68,7.9,7.9,0,0,0,0-8.95,4.5,4.5,0,0,0-3.62-1.65,4.2,4.2,0,0,0-3.47,1.67,7,7,0,0,0-1.32,4.45,7.14,7.14,0,0,0,1.3,4.48A4.16,4.16,0,0,0,1408,301.14Z"/><path class="cls-4" d="M1016.13,327.42a11.71,11.71,0,0,1,4.4.81,16.86,16.86,0,0,1,4.35,2.76l-1.44,1.72c-2.52-2.06-5-3.09-7.31-3.09a8.56,8.56,0,0,0-6.91,3.09,12.1,12.1,0,0,0-2.59,8,12.26,12.26,0,0,0,2.55,8,8.2,8.2,0,0,0,6.67,3.13,8.38,8.38,0,0,0,4-.92,19.19,19.19,0,0,0,4-3.08l1.59,1.7a18.29,18.29,0,0,1-4.61,3.49,11,11,0,0,1-4.9,1,10.79,10.79,0,0,1-8.62-3.71,16.11,16.11,0,0,1,0-19.27A11.14,11.14,0,0,1,1016.13,327.42Z"/><path class="cls-4" d="M1045.91,328v2.13h-14v9.25h13v2.09h-13v10h14.3v2.13h-16.85V328Z"/><path class="cls-4" d="M1052.46,331.13a12,12,0,0,1,17.36,0,15.89,15.89,0,0,1,0,19.23,12,12,0,0,1-17.36,0,15.89,15.89,0,0,1,0-19.23Zm15.43,1.62a8.84,8.84,0,0,0-13.5,0,13.55,13.55,0,0,0,0,16,8.84,8.84,0,0,0,13.5,0,13.55,13.55,0,0,0,0-16Z"/></g></svg>