<svg xmlns="http://www.w3.org/2000/svg" viewBox="0 0 1920 1080"><g id="Graphics"><path d="M320.25,167.48a24.82,24.82,0,0,1-2.81,11.84,20.29,20.29,0,0,1-8.17,8.28,25.08,25.08,0,0,1-12.54,3q-10.62,0-15.85-5.7a31.65,31.65,0,0,1-7,4.21,18,18,0,0,1-7.22,1.49,19.34,19.34,0,0,1-9.77-2.81c.1,1.87.16,3.23.16,4.06q0,11.56-5.55,19.8a34.91,34.91,0,0,1-14.77,12.46,47.7,47.7,0,0,1-20.15,4.22q-10.86,0-18.28-4.06a26.39,26.39,0,0,1-11.06-11,33.44,33.44,0,0,1-3.63-15.71,54.91,54.91,0,0,1,1.95-14.18,61.43,61.43,0,0,1,5.63-13.94l8.67,5.15q-4.7,10.32-4.69,18.68,0,9.45,5.82,15.11t18.24,5.67a34.89,34.89,0,0,0,11.68-2,25,25,0,0,0,9.54-5.89,18.26,18.26,0,0,0,5-9.65,57.66,57.66,0,0,0-2-15,161.34,161.34,0,0,0-5.58-16.68l11.4-7.11a80.3,80.3,0,0,0,4.3,9.57,20.91,20.91,0,0,0,5.27,6.4,11.76,11.76,0,0,0,7.62,2.54,22.32,22.32,0,0,0,9.92-2.65c-.1-1.36-.15-2.4-.15-3.13a52.3,52.3,0,0,1,1.4-11l10.94-2.66a45.5,45.5,0,0,0-.78,8.12q0,5.47,2.34,8.4c1.56,2,4.14,2.93,7.74,2.93q7.65,0,10.78-4.69a43.46,43.46,0,0,0-1.37-8.12,45.62,45.62,0,0,0-3.24-9l11.4-7.19Q320.25,159.29,320.25,167.48Zm-53.36-30.86Q264,134.2,262,132.33q1.88-2.73,7-8.91a75.83,75.83,0,0,1,10.55,9.38q-1.73,2.34-7.35,8.59Zm3.67-23.35c1.72-2.3,4.09-5.26,7.11-8.91a74.86,74.86,0,0,1,10.55,9.37c-1.2,1.57-3.05,3.75-5.55,6.57l-1.79,2Q278.3,119.9,270.56,113.27Zm18,21.79q-1.25-1-3.75-3.2,3.36-4.53,7-8.83a64.41,64.41,0,0,1,10.55,9.38q-2.12,2.81-7.27,8.51Z"/><path d="M484.56,167.48a24.82,24.82,0,0,1-2.81,11.84,20.29,20.29,0,0,1-8.17,8.28,25.14,25.14,0,0,1-12.54,3q-10.62,0-15.86-5.7a31.37,31.37,0,0,1-7,4.21,18,18,0,0,1-7.22,1.49,19.31,19.31,0,0,1-9.77-2.81c.1,1.87.16,3.23.16,4.06q0,11.56-5.55,19.8A34.91,34.91,0,0,1,401,224.12a47.7,47.7,0,0,1-20.15,4.22q-10.86,0-18.28-4.06a26.39,26.39,0,0,1-11.06-11,33.44,33.44,0,0,1-3.63-15.71,54.91,54.91,0,0,1,1.95-14.18,61.43,61.43,0,0,1,5.63-13.94l8.67,5.15q-4.69,10.32-4.69,18.68,0,9.45,5.82,15.11t18.24,5.67a34.89,34.89,0,0,0,11.68-2,24.91,24.91,0,0,0,9.53-5.89,18.2,18.2,0,0,0,5-9.65,57.66,57.66,0,0,0-2-15,161.34,161.34,0,0,0-5.58-16.68l11.4-7.11a80.3,80.3,0,0,0,4.3,9.57,20.91,20.91,0,0,0,5.27,6.4,11.76,11.76,0,0,0,7.62,2.54,22.32,22.32,0,0,0,9.92-2.65c-.1-1.36-.15-2.4-.15-3.13a52.3,52.3,0,0,1,1.4-11l10.94-2.66a45.5,45.5,0,0,0-.78,8.12q0,5.47,2.34,8.4c1.56,2,4.14,2.93,7.74,2.93q7.65,0,10.78-4.69a43.46,43.46,0,0,0-1.37-8.12,45.62,45.62,0,0,0-3.24-9l11.4-7.19Q484.56,159.29,484.56,167.48Z"/><path d="M482.23,221.39l4.61-9.53a75.11,75.11,0,0,0,8.75.62,22.14,22.14,0,0,0,13.2-4.53,34.94,34.94,0,0,0,10.08-11.33,27.41,27.41,0,0,0,3.91-13,78.84,78.84,0,0,0-4.34-11,122.16,122.16,0,0,0-6.06-11.37l10.16-10.31a111.67,111.67,0,0,1,8.67,18.2,49.38,49.38,0,0,1,3.13,16.72,40.07,40.07,0,0,1-4.46,17.58,43.65,43.65,0,0,1-12.07,15.24,26,26,0,0,1-16.6,6.09A63.78,63.78,0,0,1,482.23,221.39Zm19.3-90.23q-2.89-2.43-4.93-4.3,1.88-2.73,7-8.91a75.26,75.26,0,0,1,10.55,9.38q-1.71,2.34-7.34,8.59Zm3.67-23.36q2.58-3.43,7.11-8.91a74.37,74.37,0,0,1,10.54,9.38q-1.8,2.34-5.54,6.56l-1.8,2Q512.93,114.45,505.2,107.8Zm18,21.79q-1.26-1-3.75-3.2,3.35-4.53,7-8.83A64.87,64.87,0,0,1,537,126.94q-2.1,2.81-7.26,8.51Z"/><path d="M531.85,221.39l4.61-9.53a75.25,75.25,0,0,0,8.75.62,22.12,22.12,0,0,0,13.2-4.53,34.94,34.94,0,0,0,10.08-11.33,27.41,27.41,0,0,0,3.91-13,78.84,78.84,0,0,0-4.34-11,124.6,124.6,0,0,0-6-11.37l10.15-10.31a111.67,111.67,0,0,1,8.67,18.2A49.14,49.14,0,0,1,584,185.84a40.19,40.19,0,0,1-4.45,17.58,43.88,43.88,0,0,1-12.07,15.24,26.05,26.05,0,0,1-16.61,6.09A63.78,63.78,0,0,1,531.85,221.39Zm26.72-94.61q1.88-2.58,7-8.83a66,66,0,0,1,10.47,9.38,109.54,109.54,0,0,1-7.27,8.51Z"/><path d="M581.47,221.39l4.61-9.53a75.25,75.25,0,0,0,8.75.62A22.15,22.15,0,0,0,608,208a35,35,0,0,0,10.07-11.33,27.3,27.3,0,0,0,3.91-13,77.61,77.61,0,0,0-4.34-11,124.6,124.6,0,0,0-6-11.37l10.16-10.31a113.36,113.36,0,0,1,8.67,18.2,49.36,49.36,0,0,1,3.12,16.72,40.05,40.05,0,0,1-4.45,17.58,43.77,43.77,0,0,1-12.07,15.24,26,26,0,0,1-16.6,6.09A63.84,63.84,0,0,1,581.47,221.39Z"/><path d="M667.11,187.41q-6-4.53-6-14.38a45.27,45.27,0,0,1,1.64-11.56l9.69,1.95a38.76,38.76,0,0,0-.23,3.91q0,5.7,3.12,8t10.47,2.3a36.63,36.63,0,0,0,12.34-2,13.54,13.54,0,0,0,8-6.53c-.15-3.74-1.53-7.85-4.14-12.3a62.31,62.31,0,0,0-10.5-13.09,82.76,82.76,0,0,0-14.73-11.32l6.8-12A79.75,79.75,0,0,1,701,133.58,63.1,63.1,0,0,1,713.2,150.3a40.27,40.27,0,0,1,4.46,18,18.73,18.73,0,0,1-4.77,12.93,29,29,0,0,1-12.23,8A46.33,46.33,0,0,1,685,191.94Q673.12,191.94,667.11,187.41ZM671,96.23c1.25-1.71,3.59-4.66,7-8.82a65.91,65.91,0,0,1,10.47,9.37,111,111,0,0,1-7.27,8.52Z"/><path d="M751.34,187.41q-6-4.53-6-14.38A44.83,44.83,0,0,1,747,161.47l9.68,1.95a38.76,38.76,0,0,0-.23,3.91q0,5.7,3.12,8t10.47,2.3a36.73,36.73,0,0,0,12.35-2,13.6,13.6,0,0,0,8-6.53c-.16-3.74-1.54-7.85-4.15-12.3a62.31,62.31,0,0,0-10.5-13.09A82,82,0,0,0,761,132.41l6.8-12a79.28,79.28,0,0,1,17.46,13.13,62.88,62.88,0,0,1,12.22,16.72,40.27,40.27,0,0,1,4.46,18,18.73,18.73,0,0,1-4.77,12.93,29.06,29.06,0,0,1-12.22,8,46.43,46.43,0,0,1-15.67,2.66Q757.35,191.94,751.34,187.41Z"/><path d="M907.37,231.7l.86,1.33-5.94,13.05a148.39,148.39,0,0,1-20.94,1.56q-16.17,0-27-5.12t-16.09-13.59A35,35,0,0,1,833,210.14a43.12,43.12,0,0,1,5-19.73,56.47,56.47,0,0,1,15.2-18.08A73.79,73.79,0,0,1,878,159.59l-1.71-.54q-8.37-2.75-13.79-4.07a43.6,43.6,0,0,0-10.28-1.32,12.27,12.27,0,0,0-5.5,1.13,12,12,0,0,0-4,3.16,45.73,45.73,0,0,0-3.71,5.39l-9.45-4.76q4.46-9,10-13.83t14.14-4.84A46.83,46.83,0,0,1,865,141.27c3.67.92,8.24,2.28,13.71,4.11q9.06,3,15.54,4.57a64.12,64.12,0,0,0,14,1.75l-2.58,13.68a78.16,78.16,0,0,0-27.93,6.17,67.46,67.46,0,0,0-23.79,15.78q-9.45,9.91-9.45,21.64a20.27,20.27,0,0,0,9.84,18q9.84,6.36,29.46,6.36A181.89,181.89,0,0,0,907.37,231.7ZM844.32,118q1.88-2.58,7-8.83a65.18,65.18,0,0,1,10.47,9.38,107.78,107.78,0,0,1-7.26,8.52Z"/><path d="M1013.63,231.7l.86,1.33-5.94,13.05a148.36,148.36,0,0,1-20.93,1.56q-16.18,0-27-5.12t-16.09-13.59a35,35,0,0,1-5.23-18.79,43.23,43.23,0,0,1,5-19.73,56.47,56.47,0,0,1,15.2-18.08,73.84,73.84,0,0,1,24.77-12.74l-1.72-.54q-8.37-2.75-13.79-4.07a43.6,43.6,0,0,0-10.28-1.32,12.27,12.27,0,0,0-5.5,1.13,12,12,0,0,0-4,3.16,45.73,45.73,0,0,0-3.71,5.39l-9.45-4.76q4.45-9,10-13.83T960,139.91a46.77,46.77,0,0,1,11.29,1.36c3.67.92,8.24,2.28,13.71,4.11q9.06,3,15.55,4.57a63.94,63.94,0,0,0,14,1.75l-2.58,13.68A78.16,78.16,0,0,0,984,171.55a67.56,67.56,0,0,0-23.79,15.78q-9.45,9.91-9.45,21.64a20.27,20.27,0,0,0,9.84,18q9.85,6.36,29.46,6.36A181.77,181.77,0,0,0,1013.63,231.7Z"/><path d="M1119.89,231.7l.86,1.33-5.93,13.05a148.61,148.61,0,0,1-20.94,1.56q-16.17,0-27-5.12t-16.1-13.59a35,35,0,0,1-5.23-18.79,43.12,43.12,0,0,1,5-19.73,56.43,56.43,0,0,1,15.19-18.08,73.84,73.84,0,0,1,24.77-12.74l-1.72-.54q-8.35-2.75-13.79-4.07a43.52,43.52,0,0,0-10.27-1.32,12.31,12.31,0,0,0-5.51,1.13,11.91,11.91,0,0,0-4,3.16,44.55,44.55,0,0,0-3.71,5.39l-9.46-4.76q4.45-9,10-13.83t14.14-4.84a46.71,46.71,0,0,1,11.29,1.36c3.67.92,8.24,2.28,13.71,4.11q9.06,3,15.55,4.57a63.94,63.94,0,0,0,14,1.75l-2.57,13.68a78.07,78.07,0,0,0-27.93,6.17,67.46,67.46,0,0,0-23.79,15.78Q1057,197.25,1057,209t9.85,18q9.84,6.36,29.45,6.36A181.77,181.77,0,0,0,1119.89,231.7Zm-33.43-31.95q-1.65,2.12-7,8.05c-1-1-3-2.84-6.17-5.55l-3.44-3.05q3.36-4.53,6.57-8.28A70.89,70.89,0,0,1,1086.46,199.75Zm6.17,25c-.21-.16-2.14-1.87-5.78-5.16l-3.91-3.43c1.88-2.4,4.11-5.19,6.72-8.36a62.85,62.85,0,0,1,9.84,8.82Q1097.87,218.89,1092.63,224.75Zm8.36-17.34q-3-3-9.61-8.52,2.26-3.21,6.56-8.44a59.55,59.55,0,0,1,9.92,8.91Q1106.22,201.55,1101,207.41Z"/><path d="M1226.16,231.7,1227,233l-5.94,13.05a148.39,148.39,0,0,1-20.94,1.56q-16.17,0-27-5.12T1157,228.93a35,35,0,0,1-5.24-18.79,43.12,43.12,0,0,1,5-19.73,56.34,56.34,0,0,1,15.2-18.08,73.79,73.79,0,0,1,24.76-12.74l-1.72-.54q-8.36-2.75-13.79-4.07a43.52,43.52,0,0,0-10.27-1.32,12.31,12.31,0,0,0-5.51,1.13,12,12,0,0,0-4,3.16,45.73,45.73,0,0,0-3.71,5.39l-9.46-4.76q4.46-9,10-13.83t14.14-4.84a46.71,46.71,0,0,1,11.29,1.36c3.68.92,8.25,2.28,13.71,4.11q9.07,3,15.55,4.57a64,64,0,0,0,14,1.75l-2.58,13.68a78.12,78.12,0,0,0-27.93,6.17,67.46,67.46,0,0,0-23.79,15.78q-9.45,9.91-9.45,21.64a20.27,20.27,0,0,0,9.84,18q9.84,6.36,29.45,6.36A181.92,181.92,0,0,0,1226.16,231.7ZM1188,204.75q1.88-2.73,7-8.91a67.57,67.57,0,0,1,10.47,9.46,106.39,106.39,0,0,1-7.26,8.51Q1195.69,211.47,1188,204.75Z"/><path d="M1256.44,152a58,58,0,0,1,5.51-12.86l8.36,5.24q-4.14,10.54-4.14,16.64,0,7.58,4.53,11.52a23.57,23.57,0,0,0,11.33,5.24,85.42,85.42,0,0,0,15.78,1.29h23.83a94.89,94.89,0,0,0,22.15-2.23q9.09-2.22,11.91-7-.46-7.89-10.16-23.75l12-7.66a81.53,81.53,0,0,1,7,16.1,50.84,50.84,0,0,1,2.69,14.76,17.22,17.22,0,0,1-8.94,15.78,52.15,52.15,0,0,1-20.28,6.76,188.2,188.2,0,0,1-23.75,1.45h-15.23a131,131,0,0,1-22.73-1.65,28.16,28.16,0,0,1-15.43-8q-6.3-6.33-6.29-19.38A45,45,0,0,1,1256.44,152Zm37.93-16.29q-2.89-2.43-4.92-4.3,1.88-2.73,7-8.91a75.83,75.83,0,0,1,10.55,9.38q-1.72,2.34-7.35,8.59Zm3.67-23.36q2.58-3.43,7.11-8.91a74.38,74.38,0,0,1,10.55,9.38q-1.8,2.34-5.55,6.56l-1.79,2Q1305.78,119,1298,112.33Zm18,21.79q-1.24-1-3.75-3.2,3.36-4.53,7-8.83a64.89,64.89,0,0,1,10.55,9.38q-2.11,2.81-7.26,8.51Z"/><path d="M1396.77,152a57.49,57.49,0,0,1,5.51-12.86l8.35,5.24q-4.14,10.54-4.14,16.64,0,7.58,4.54,11.52a23.49,23.49,0,0,0,11.32,5.24,85.42,85.42,0,0,0,15.78,1.29H1462a94.83,94.83,0,0,0,22.15-2.23q9.11-2.22,11.92-7-.48-7.89-10.16-23.75l12-7.66a81,81,0,0,1,7,16.1,50.56,50.56,0,0,1,2.7,14.76,17.21,17.21,0,0,1-8.95,15.78,52.1,52.1,0,0,1-20.27,6.76,188.32,188.32,0,0,1-23.75,1.45h-15.24a131,131,0,0,1-22.73-1.65,28.19,28.19,0,0,1-15.43-8q-6.29-6.33-6.29-19.38A44.66,44.66,0,0,1,1396.77,152Zm37.3-16.84-4.29-3.83q1.88-2.58,7-8.83a72.53,72.53,0,0,1,10.54,9.38q-1.71,2.34-7.34,8.59Zm18.52-4.22q2.42-3.36,7-8.9a72.63,72.63,0,0,1,10.55,9.37q-2.12,2.82-7.27,8.59Q1459.15,136.55,1452.59,130.92Z"/><path d="M1537.09,152a58,58,0,0,1,5.51-12.86l8.36,5.24q-4.14,10.54-4.14,16.64,0,7.58,4.53,11.52a23.57,23.57,0,0,0,11.33,5.24,85.42,85.42,0,0,0,15.78,1.29h23.83a94.89,94.89,0,0,0,22.15-2.23q9.09-2.22,11.91-7-.46-7.89-10.16-23.75l12-7.66a81,81,0,0,1,7,16.1,50.84,50.84,0,0,1,2.69,14.76,17.22,17.22,0,0,1-8.94,15.78,52.15,52.15,0,0,1-20.28,6.76,188.32,188.32,0,0,1-23.75,1.45h-15.23a131.21,131.21,0,0,1-22.74-1.65,28.22,28.22,0,0,1-15.43-8q-6.29-6.33-6.28-19.38A45,45,0,0,1,1537.09,152Zm37.07,67.38-4.06-3.59q1.64-2.19,5.78-7.35l1.25-1.56a80.56,80.56,0,0,1,10.55,9.45q-1,1.41-5.63,6.72l-1.72,1.88Q1577.92,222.65,1574.16,219.36Zm12.81,17-3-2.58q2.57-3.51,7.11-8.9a71.22,71.22,0,0,1,10.46,9.45q-2.1,2.8-6.17,7.34l-1.09,1.25C1591.71,240.56,1589.27,238.37,1587,236.39Zm8.91-18.44-3-2.57q3-4.06,7-8.91a68.86,68.86,0,0,1,10.55,9.45c-1.41,1.88-3.46,4.32-6.17,7.35l-1.1,1.25Q1599.32,220.92,1595.88,218Z"/><path d="M1677.42,152a57.91,57.91,0,0,1,5.5-12.86l8.36,5.24q-4.14,10.54-4.14,16.64,0,7.58,4.53,11.52a23.62,23.62,0,0,0,11.33,5.24,85.42,85.42,0,0,0,15.78,1.29h23.83a94.83,94.83,0,0,0,22.15-2.23q9.1-2.22,11.91-7-.47-7.89-10.15-23.75l12-7.66a81,81,0,0,1,7,16.1,50.56,50.56,0,0,1,2.7,14.76,17.23,17.23,0,0,1-9,15.78,52.1,52.1,0,0,1-20.27,6.76,188.32,188.32,0,0,1-23.75,1.45H1720a131,131,0,0,1-22.73-1.65,28.19,28.19,0,0,1-15.43-8q-6.28-6.33-6.29-19.38A44.66,44.66,0,0,1,1677.42,152Zm44.33,63.4q1.88-2.74,7-8.91a67.57,67.57,0,0,1,10.47,9.37q-1.32,1.88-5.62,6.72l-1,1.1a8.12,8.12,0,0,0-.66.78Q1729.41,222.1,1721.75,215.38Z"/><path d="M1793.72,89.91q3.83-12.66,15.62-12.66a27.14,27.14,0,0,1,4.11.35c1.48.24,3,.48,4.41.74,2,.42,3.68.73,5.12.94a29.24,29.24,0,0,0,4.25.31,17.53,17.53,0,0,0,6.8-1.36,25.32,25.32,0,0,0,6.72-4.34l5.08,5a74.77,74.77,0,0,1-11.25,7.38,22.8,22.8,0,0,1-10.47,2.46,28.58,28.58,0,0,1-4.57-.35c-1.49-.23-3.37-.58-5.66-1a34.59,34.59,0,0,0-5.63-.86q-6,0-8.13,6.87ZM1815.28,190a119.79,119.79,0,0,0,1.17-16.48q-.08-11.1-.47-32.3t-.7-38.09l11.56-4.84q.78,57,.78,73.12a103.15,103.15,0,0,1-.62,10.51q-.63,6.06-1.48,11Z"/><path d="M209.22,335.66A54.37,54.37,0,0,1,219,355a74.79,74.79,0,0,1,3.28,20.55,46.94,46.94,0,0,1-4.26,19.14,41,41,0,0,1-12.19,15.86,28.8,28.8,0,0,1-18.32,6.25q-9.91,0-23.28-5.08l4.77-9.69a50.68,50.68,0,0,0,14.53,2.42,22.79,22.79,0,0,0,13.36-4.33,32.71,32.71,0,0,0,9.88-11,29.23,29.23,0,0,0,3.94-13.24A86.68,86.68,0,0,1,188.63,379q-9.37,0-15-3.75t-5.58-13a40.51,40.51,0,0,1,3.47-16.06,37.72,37.72,0,0,1,9.34-13.36q5.86-5.26,12.58-5.27Q202.69,327.61,209.22,335.66Zm-26.91,27.69c1.77,1.28,4.73,1.92,8.9,1.92a59.56,59.56,0,0,0,8.25-.59q4.17-.58,9.41-1.68A52.44,52.44,0,0,0,202,347.69q-4.34-6.4-9.72-6.41a9.5,9.5,0,0,0-6.41,2.54,18,18,0,0,0-4.57,6.29,17.25,17.25,0,0,0-1.68,7Q179.65,361.45,182.31,363.35Z"/><path d="M266.42,398.78a29.33,29.33,0,0,1-12.23-11.09A29.83,29.83,0,0,1,250,372.06a54.86,54.86,0,0,1,2-14.26,59.89,59.89,0,0,1,5.62-13.86l8.67,5.15q-4.68,10.17-4.68,18.68a19.21,19.21,0,0,0,3,10.7,20.48,20.48,0,0,0,9,7.38,34.83,34.83,0,0,0,14.41,2.7,41.4,41.4,0,0,0,12.5-2,30.67,30.67,0,0,0,10.94-5.93,16.49,16.49,0,0,0,5.7-9.57,57.66,57.66,0,0,0-2-15,159.22,159.22,0,0,0-5.59-16.68L321,332.3q7.74,21.33,7.73,34.14a31.83,31.83,0,0,1-6.21,19.72,38.67,38.67,0,0,1-16.17,12.46,53.09,53.09,0,0,1-21,4.22Q274.42,402.84,266.42,398.78Zm13.09-67.58q1.88-2.58,7-8.82A65.41,65.41,0,0,1,297,331.75a111,111,0,0,1-7.27,8.52Z"/><path d="M410,329.37a99.8,99.8,0,0,1,14.1,22.77l-8.28,14.06q-4.45-.78-11.37-1.44t-11.68-.67a50.37,50.37,0,0,0-10.93,1.1,28.59,28.59,0,0,0-8.36,3.12,10.7,10.7,0,0,0-4.22,4.3,13.07,13.07,0,0,0-1.25,5.94q0,1.4,1,15.31c.11,1.72.44,6.73,1,15s.86,14.31.86,18a84,84,0,0,1-.94,12.73L359,434.09a57.71,57.71,0,0,0,.32-6.25q0-4.75-.43-11.6t-1-13.55c-.37-4.74-.7-9.57-1-14.49s-.47-9.13-.47-12.62A21.86,21.86,0,0,1,359.91,363a24.94,24.94,0,0,1,9.77-8.32,44.83,44.83,0,0,1-.71-7.81,41.62,41.62,0,0,1,2.15-13.29A24.12,24.12,0,0,1,378,323a17.26,17.26,0,0,1,12-4.18Q401.31,318.86,410,329.37ZM412.57,352a52,52,0,0,0-11.33-14.29q-6.33-5.4-11.95-5.39a7.29,7.29,0,0,0-6.53,3.43c-1.48,2.3-2.22,5.39-2.22,9.3A38.34,38.34,0,0,0,381,351a74.63,74.63,0,0,1,12.74-1.09A85.25,85.25,0,0,1,412.57,352Z"/><path d="M466.41,406.63a26.21,26.21,0,0,1-11.06-10.93A33.38,33.38,0,0,1,451.72,380a54.91,54.91,0,0,1,1.95-14.18,61.43,61.43,0,0,1,5.63-13.94L468,357q-4.7,10.32-4.69,18.68,0,9.45,5.82,15.11t18.24,5.67a36.07,36.07,0,0,0,11.84-2,26.82,26.82,0,0,0,9.84-5.9,17.44,17.44,0,0,0,5.2-9.53q0-3.36-1.64-68.13-.17-5.94-.28-12.66t-.35-13.9l11.57-4.69q-.16-8.13.78,40.08.86,41.25.86,54.61,0,11.57-5.55,19.76a34.83,34.83,0,0,1-14.77,12.39,48.3,48.3,0,0,1-20.15,4.18Q473.83,410.66,466.41,406.63Z"/><path d="M574.66,380.93a28.69,28.69,0,0,1-15.51-8q-6.33-6.33-6.32-19.3a45.07,45.07,0,0,1,1.83-12.3,57.22,57.22,0,0,1,5.51-12.85l8.36,5.15q-4.14,10.25-4.14,16.65,0,7.58,4.53,11.56a23.11,23.11,0,0,0,11.33,5.23,87.94,87.94,0,0,0,15.86,1.25h29.22q6.4,0,9.88-1.48a9.92,9.92,0,0,0,5.12-4.69q-5.33-11.56-40.47-48.67l1.64-16.41,52.58-17.42-1.57,13.75L611.58,307l5.46,6q12.74,14.07,19.5,22.11a113.63,113.63,0,0,1,10.93,15.12q4.18,7.06,4.18,12.38a15.53,15.53,0,0,1-4.57,11.6,26.18,26.18,0,0,1-11.56,6.45,54.25,54.25,0,0,1-14.65,1.95H597.36A129,129,0,0,1,574.66,380.93Zm34.42-101.29,36.56-12.34-.78,7.42L608.37,287Z"/><path d="M701.31,380.93a28.66,28.66,0,0,1-15.5-8q-6.33-6.33-6.33-19.3a45.07,45.07,0,0,1,1.83-12.3,57.69,57.69,0,0,1,5.51-12.85l8.36,5.15Q691,343.87,691,350.27q0,7.58,4.53,11.56a23.11,23.11,0,0,0,11.33,5.23,88,88,0,0,0,15.86,1.25H752q6.4,0,9.88-1.48a9.92,9.92,0,0,0,5.12-4.69q-5.31-11.56-40.47-48.67l1.64-16.41,52.58-17.42-1.56,13.75L738.23,307l5.47,6q12.74,14.07,19.49,22.11a114.69,114.69,0,0,1,10.94,15.12q4.17,7.06,4.18,12.38a15.57,15.57,0,0,1-4.57,11.6,26.28,26.28,0,0,1-11.57,6.45,54.23,54.23,0,0,1-14.64,1.95H724A129,129,0,0,1,701.31,380.93Z"/><path d="M879.65,340.34a56.48,56.48,0,0,1,10.23,20.55,85.6,85.6,0,0,1,3.44,23.2,31.71,31.71,0,0,1-6.41,19.85,39.49,39.49,0,0,1-17.22,12.65,64.29,64.29,0,0,1-24,4.3q-12.59,0-21.52-4.34a31.16,31.16,0,0,1-13.52-11.87,32,32,0,0,1-4.57-16.91,47,47,0,0,1,2-12.86,63,63,0,0,1,5.63-13.39l8.67,5a95.94,95.94,0,0,0-3.44,9.25,26.61,26.61,0,0,0-1.25,7.7,21,21,0,0,0,3.48,12,22.83,22.83,0,0,0,10.55,8.16q7.06,3,17.38,3a50.06,50.06,0,0,0,21-4.21q9.21-4.23,11.71-13.29a82.16,82.16,0,0,0-.46-9,85.85,85.85,0,0,1-22.74,3.28q-9.45,0-15-3.75t-5.55-13a40.42,40.42,0,0,1,3.48-16,37.52,37.52,0,0,1,9.34-13.4q5.85-5.28,12.5-5.28Q872.85,332,879.65,340.34ZM845,314.88l-4.3-3.83q1.88-2.58,7-8.83a72.36,72.36,0,0,1,10.55,9.37q-1.72,2.36-7.34,8.6Zm24.57,54.21q4.26-.61,9.57-1.79a51.88,51.88,0,0,0-4.65-11.53,26.26,26.26,0,0,0-5.94-7.46,9.91,9.91,0,0,0-6.21-2.58,9.58,9.58,0,0,0-6.4,2.5,17.74,17.74,0,0,0-4.57,6.22,17.14,17.14,0,0,0-1.68,7.07c0,2.86.89,4.94,2.69,6.25s4.75,2,8.87,2A56.81,56.81,0,0,0,869.53,369.09Zm-6.06-58.43q2.43-3.36,7-8.91a72.67,72.67,0,0,1,10.54,9.37c-1.4,1.88-3.83,4.75-7.26,8.6Q870,316.28,863.47,310.66Z"/><path d="M1020,313a56.76,56.76,0,0,1,10.2,20.55,85.52,85.52,0,0,1,3.43,23.2,27.79,27.79,0,0,1-2.69,12.73,20.39,20.39,0,0,1-8.63,8.6,52,52,0,0,1-19.07,5.78,186.41,186.41,0,0,1-23.2,1.41H965.52a131,131,0,0,1-22.73-1.65,28.37,28.37,0,0,1-15.47-8Q921,369.33,921,356.28a45,45,0,0,1,1.83-12.3,58,58,0,0,1,5.51-12.86l8.36,5.24q-4.14,10.23-4.14,16.64,0,7.58,4.53,11.52a23.59,23.59,0,0,0,11.37,5.24,86.11,86.11,0,0,0,15.82,1.29h24.3a88.49,88.49,0,0,0,21.44-2.31q9.18-2.3,12.15-7a81.94,81.94,0,0,0-.47-9A86.25,86.25,0,0,1,999,356.05q-9.37,0-15-3.75t-5.59-13a40,40,0,0,1,3.52-16.06,38,38,0,0,1,9.37-13.36q5.87-5.27,12.5-5.27Q1013.25,304.64,1020,313Zm-.66,26.95a50.13,50.13,0,0,0-4.57-11.52,26.26,26.26,0,0,0-5.94-7.46,9.91,9.91,0,0,0-6.21-2.58,9.57,9.57,0,0,0-6.41,2.5,17.8,17.8,0,0,0-4.57,6.21,17,17,0,0,0-1.68,7q0,4.38,2.7,6.29c1.79,1.28,4.78,1.92,8.94,1.92A84.82,84.82,0,0,0,1019.35,340Zm-27-56.25q1.88-2.58,7-8.82a65,65,0,0,1,10.46,9.37,107.78,107.78,0,0,1-7.26,8.52Z"/><path d="M1136.55,425,1130.61,438a162.42,162.42,0,0,1-20.94,1.64q-16.1,0-27-5.12t-16.13-13.63a35.26,35.26,0,0,1-5.24-18.83,39.69,39.69,0,0,1,5.47-20.43,57.07,57.07,0,0,1,15.08-16.6q-11.33-3-11.33-14,0-6.49,3.2-15.24a44.35,44.35,0,0,1,9.11-15.11q5.9-6.37,13.71-6.37a21.29,21.29,0,0,1,11.72,3.71,32.11,32.11,0,0,1,9.68,10l-7.5,6.17a24.17,24.17,0,0,0-6.4-4.8,14.62,14.62,0,0,0-6.49-1.53,11.91,11.91,0,0,0-7.26,2.66,20.29,20.29,0,0,0-5.67,6.6,15.81,15.81,0,0,0-2.15,7.54c0,3.59,1.22,6.07,3.64,7.42a16.85,16.85,0,0,0,8.4,2,23.24,23.24,0,0,0,5.7-.74q3-.74,7.66-2.31a131.2,131.2,0,0,1,16.17-4.37l.7.86-2.34,12.81a87.69,87.69,0,0,0-24.89,8.56,56.68,56.68,0,0,0-18,14.29q-6.67,8.33-6.67,17.62a20.34,20.34,0,0,0,9.84,18.09q9.84,6.36,29.45,6.36a178.86,178.86,0,0,0,23.52-1.64Zm-50.63-133.43q1.88-2.58,7-8.83a65,65,0,0,1,10.47,9.37,107.78,107.78,0,0,1-7.26,8.52Z"/><path d="M1227.65,425,1221.72,438a162.42,162.42,0,0,1-20.94,1.64q-16.1,0-27-5.12t-16.14-13.63a35.25,35.25,0,0,1-5.23-18.83,39.69,39.69,0,0,1,5.47-20.43A56.93,56.93,0,0,1,1173,365q-11.34-3-11.33-14,0-6.49,3.2-15.24a44.49,44.49,0,0,1,9.1-15.11q5.89-6.37,13.71-6.37a21.26,21.26,0,0,1,11.72,3.71,32.24,32.24,0,0,1,9.69,10l-7.5,6.17a24.2,24.2,0,0,0-6.41-4.8,14.55,14.55,0,0,0-6.48-1.53,12,12,0,0,0-7.27,2.66,20.38,20.38,0,0,0-5.66,6.6,15.81,15.81,0,0,0-2.15,7.54c0,3.59,1.21,6.07,3.63,7.42a16.88,16.88,0,0,0,8.4,2,23.32,23.32,0,0,0,5.71-.74c2-.49,4.53-1.26,7.65-2.31a132.16,132.16,0,0,1,16.17-4.37l.71.86-2.35,12.81a87.73,87.73,0,0,0-24.88,8.56,56.46,56.46,0,0,0-18,14.29q-6.67,8.33-6.68,17.62a20.33,20.33,0,0,0,9.85,18.09q9.84,6.36,29.45,6.36a178.83,178.83,0,0,0,23.51-1.64Z"/><path d="M1331.14,333.31A25.75,25.75,0,0,1,1340.4,344a33.33,33.33,0,0,1,3.13,14.37q0,8.67-5.55,14.1a31.86,31.86,0,0,1-13.67,7.78,58.76,58.76,0,0,1-16.33,2.34h-58.36l-6.09-13,.85-1.33h18.44a33,33,0,0,0,4.34-7.22,23.55,23.55,0,0,0,1.37-8.79q0-9.45-1.18-68.05l11.57-4.61v70.63a98,98,0,0,1,19.25-15.55q9.27-5.48,18.09-5.47A26.33,26.33,0,0,1,1331.14,333.31Zm-11.79,33.6q8-1.41,12.61-5.32-.15-8.43-4.33-13.63t-12.31-5.19q-8.67,0-18.4,6.79a119.93,119.93,0,0,0-20.35,18.75h24.14A109.82,109.82,0,0,0,1319.35,366.91Zm-14.65-61.1q1.88-2.58,7-8.83a66,66,0,0,1,10.47,9.38,111,111,0,0,1-7.27,8.52Z"/><path d="M1458.81,333.31a25.82,25.82,0,0,1,9.26,10.71,33.32,33.32,0,0,1,3.12,14.37q0,8.67-5.54,14.1a31.84,31.84,0,0,1-13.68,7.78,58.64,58.64,0,0,1-16.32,2.34h-58.36l-6.1-13,.86-1.33h18.44a33.36,33.36,0,0,0,4.34-7.22,23.57,23.57,0,0,0,1.36-8.79q0-9.45-1.17-68.05l11.56-4.61v70.63a98.36,98.36,0,0,1,19.26-15.55q9.26-5.48,18.09-5.47A26.33,26.33,0,0,1,1458.81,333.31Zm-11.8,33.6q8-1.41,12.62-5.32-.15-8.43-4.34-13.63t-12.3-5.19q-8.67,0-18.4,6.79a119.93,119.93,0,0,0-20.35,18.75h24.14A109.7,109.7,0,0,0,1447,366.91Z"/><path d="M1638.28,335.34a22.77,22.77,0,0,1,8.39,9.85,31.74,31.74,0,0,1,2.74,13.2q0,8.67-5.55,14.1a31.8,31.8,0,0,1-13.67,7.78,58.47,58.47,0,0,1-16.25,2.34h-29.37a23.6,23.6,0,0,1-12.5-3.13,42.84,42.84,0,0,1,.23,4.38q0,11.56-5.55,19.8A35,35,0,0,1,1552,416.12a47.78,47.78,0,0,1-20.16,4.22q-10.86,0-18.28-4.06a26.36,26.36,0,0,1-11-11,33.33,33.33,0,0,1-3.64-15.71,54.5,54.5,0,0,1,2-14.18,61.4,61.4,0,0,1,5.62-13.94l8.67,5.15q-4.68,10.32-4.69,18.68,0,9.45,5.83,15.11t18.24,5.67a35,35,0,0,0,11.68-2,25,25,0,0,0,9.53-5.89,18.2,18.2,0,0,0,5-9.65,58.09,58.09,0,0,0-2-15,161.59,161.59,0,0,0-5.59-16.68l11.41-7.11a60.68,60.68,0,0,0,5.74,11.95,14.51,14.51,0,0,0,6.76,5.7q9.29-11.08,16.91-18.71a84.9,84.9,0,0,1,15.35-12.38q7.74-4.77,14.92-4.77Q1632.62,331.59,1638.28,335.34ZM1625.19,367c5.36-.92,9.58-2.67,12.66-5.28q-.09-8.91-4.1-12.73a14.45,14.45,0,0,0-10.36-3.83q-6.17,0-13.51,5.08t-18.52,18.12h15A113.93,113.93,0,0,0,1625.19,367ZM1607,309.41q1.88-2.58,7-8.83a65.91,65.91,0,0,1,10.47,9.37,109,109,0,0,1-7.27,8.52Z"/><path d="M1816.49,335.34a22.72,22.72,0,0,1,8.4,9.85,31.9,31.9,0,0,1,2.73,13.2q0,8.67-5.54,14.1a31.86,31.86,0,0,1-13.67,7.78,58.52,58.52,0,0,1-16.25,2.34h-29.38a23.62,23.62,0,0,1-12.5-3.13,40.18,40.18,0,0,1,.24,4.38q0,11.56-5.55,19.8a34.91,34.91,0,0,1-14.77,12.46,47.7,47.7,0,0,1-20.15,4.22q-10.86,0-18.28-4.06a26.39,26.39,0,0,1-11.06-11,33.44,33.44,0,0,1-3.63-15.71,54.91,54.91,0,0,1,2-14.18,61.43,61.43,0,0,1,5.63-13.94l8.67,5.15q-4.69,10.32-4.69,18.68,0,9.45,5.82,15.11t18.24,5.67a34.89,34.89,0,0,0,11.68-2,24.91,24.91,0,0,0,9.53-5.89,18.2,18.2,0,0,0,5-9.65,57.66,57.66,0,0,0-2-15,161.34,161.34,0,0,0-5.58-16.68l11.4-7.11a61.25,61.25,0,0,0,5.74,11.95,14.51,14.51,0,0,0,6.76,5.7q9.3-11.08,16.92-18.71a84.56,84.56,0,0,1,15.35-12.38q7.73-4.77,14.92-4.77Q1810.82,331.59,1816.49,335.34ZM1803.41,367c5.36-.92,9.58-2.67,12.65-5.28q-.07-8.91-4.1-12.73a14.4,14.4,0,0,0-10.35-3.83q-6.18,0-13.52,5.08t-18.51,18.12h15A114,114,0,0,0,1803.41,367Z"/><path d="M1701,532.15q8,10,8,20.74a22.21,22.21,0,0,1-3.87,13.09,24.86,24.86,0,0,1-10,8.36,29.71,29.71,0,0,1-12.73,2.85A25,25,0,0,1,1672,575a18.11,18.11,0,0,1-7.7-6.52,18.87,18.87,0,0,1-2.89-10.67q0-6.72,3.87-15a73.12,73.12,0,0,1,10.12-15.74l-4.53-3.05,7.42-11.56Q1693,522.19,1701,532.15Zm-8.32,28.32a10,10,0,0,0,4.84-7,17.11,17.11,0,0,0-3.47-9.53,52.31,52.31,0,0,0-9.65-10,63,63,0,0,0-8.36,11q-3.12,5.36-3.13,9.57a7.12,7.12,0,0,0,3.17,6.29,13.46,13.46,0,0,0,7.77,2.15A16.72,16.72,0,0,0,1692.69,560.47Z"/><path d="M1754.15,590.78a30.18,30.18,0,0,1-13.2-12.42,35.8,35.8,0,0,1-4.26-17.42,49,49,0,0,1,1.87-13.21,53.15,53.15,0,0,1,5.55-12.89l8.67,5.08q-4.53,9.45-4.53,17.42a21.57,21.57,0,0,0,3.67,12.54,23.71,23.71,0,0,0,10.78,8.32,44.3,44.3,0,0,0,17.11,3,54.42,54.42,0,0,0,14.3-1.95,50.59,50.59,0,0,0,13.05-5.51,26.76,26.76,0,0,0,8.9-8.32q-1.63-.24-9.61-1.17a135.39,135.39,0,0,1-16-2.31,23.08,23.08,0,0,1-10.63-5.35q-4.45-4-4.45-11.48,0-8,5.27-16A45,45,0,0,1,1794,515.82q8.05-5.19,15.63-5.2,8.67,0,12.65,5.2t4,13.16a42.66,42.66,0,0,1-1.17,9.54l-10.55-2.35c0-.41.1-.8.16-1.17a8.56,8.56,0,0,0,.07-1.17q0-4.61-2.11-7.07t-6.32-2.46a15.68,15.68,0,0,0-8.64,3.08,28.89,28.89,0,0,0-7.65,7.54q-3.09,4.46-3.09,8.13a4.84,4.84,0,0,0,2.42,4.33,16.94,16.94,0,0,0,6,2.19q3.56.66,9.73,1.29,7.41.78,11.87,1.64a18.14,18.14,0,0,1,7.58,3.2,7.92,7.92,0,0,1,3.12,6.72q0,7.5-7.18,15.2t-19,12.73a63,63,0,0,1-25,5Q1763.1,595.39,1754.15,590.78Z"/><path d="M1176.63,766.77c0-1.2.08-2.74.08-4.61q0-36-17.58-84.07l11.56-12q18.13,49.7,18.13,86.64a147.2,147.2,0,0,1-1.1,17.82Z"/><path d="M1254.68,669q-1.25,16-8.08,25.24t-19.49,9.22a43.31,43.31,0,0,1-7.82-.79q6.81,27.66,6.8,50.08a147.18,147.18,0,0,1-1.09,17.82l-11.1-3.75c.06-1.2.08-2.74.08-4.61a191.25,191.25,0,0,0-4.33-38.87,334.26,334.26,0,0,0-13.17-45.2l11.49-12a128.59,128.59,0,0,0,5.35,12.46,23.38,23.38,0,0,0,6,7.54,14.26,14.26,0,0,0,9.34,3.05q6.94,0,10.08-5.47t4.45-15.55Z"/><path d="M1336.18,671.53a52.11,52.11,0,0,1-4.73,21q-4.34,9-15.2,9-6.32,0-15.39-3.2a16.15,16.15,0,0,1-12.26,4.92,36,36,0,0,1-8.28-1.17q6.95,27.66,7,50.62a149.24,149.24,0,0,1-1.09,17.82l-11.1-3.75c.05-1.2.08-2.74.08-4.61a191.3,191.3,0,0,0-4.34-38.87,334.13,334.13,0,0,0-13.16-45.2l11.48-12,.71,1.8q2.49,6.25,4.69,10.47a26.08,26.08,0,0,0,5.7,7.42,11.86,11.86,0,0,0,8.28,3.2,6.09,6.09,0,0,0,5.66-3.16,18.14,18.14,0,0,0,2.27-7.34q.42-4.19.51-10.36l11.56,1.18a77,77,0,0,1-1.33,15.46,31.8,31.8,0,0,0,5,1.88,16.22,16.22,0,0,0,4.3.7,5.65,5.65,0,0,0,5-2.54,15.13,15.13,0,0,0,2.3-6,86.51,86.51,0,0,0,.9-8.83Z"/><path d="M1382.59,721.22a35.57,35.57,0,0,1-14.3-2.66,191.27,191.27,0,0,1,3.36,34.14,147.18,147.18,0,0,1-1.09,17.82l-11.18-3.75c.11-2.4.16-3.94.16-4.61q0-36-17.58-84.07l11.57-12q3.75,10.32,6.48,19.14a40.66,40.66,0,0,1,11.13-14.45,23.71,23.71,0,0,1,15.28-5.78q9.91,0,17.89,9.84l-6.8,6.64a26.15,26.15,0,0,0-10.78-2.73,18.38,18.38,0,0,0-10,2.93,23.57,23.57,0,0,0-7.46,7.34,16.15,16.15,0,0,0-2.82,8.71c0,3.08,1.5,5.39,4.5,7s7,2.34,11.91,2.34a46.1,46.1,0,0,0,12.38-1.84,51.91,51.91,0,0,0,12.46-5.27l4.61,8.52Q1398.91,721.22,1382.59,721.22Z"/><path d="M1479,698.68q13.37,18.95,13.36,40.51a35.19,35.19,0,0,1-2.54,13.2,24,24,0,0,1-7.81,10.35,21.05,21.05,0,0,1-13.17,4,28.83,28.83,0,0,1-6.95-.79,40.89,40.89,0,0,1-7.73-3q-5.23,5-14.22,5-12.12,0-17.89-6.68t-5.78-17.54a64.06,64.06,0,0,1,3.43-20.32,120.62,120.62,0,0,1,8.87-20.15q5.43-9.84,13.4-21.88c-1.77-1.19-3.65-2.37-5.63-3.51l8.36-13.36A146.52,146.52,0,0,1,1479,698.68ZM1477.55,749q3.33-3.56,3.33-11a41.9,41.9,0,0,0-3.4-15.24,78.52,78.52,0,0,0-10.08-17.5,97.56,97.56,0,0,0-16.21-16.87,159.71,159.71,0,0,0-16.64,26.21q-6.72,13.39-6.72,24.41,0,6.79,2.81,10.74c1.88,2.63,4.84,4,8.91,4a9,9,0,0,0,7.5-3.36q2.65-3.36,3-10.55l11.48,1.25a55.78,55.78,0,0,1-1,9.69,27,27,0,0,0,8.75,1.8A10.9,10.9,0,0,0,1477.55,749Z"/><path d="M1552.6,706q6.4-3.26,14.69-8.4,4.37-2.82,5.54-3.36l-.62,16.64a144.45,144.45,0,0,0-25.08,15.7A140.29,140.29,0,0,0,1524.75,748a82,82,0,0,0-14.34,24L1500,766.61a107.93,107.93,0,0,1,13.2-24.18,133.71,133.71,0,0,1,18.36-20.82q-17.19-3.6-17.18-17.19,0-6.79,3.43-16.13a47.38,47.38,0,0,1,9.77-16.13q6.33-6.81,14.61-6.8a21.86,21.86,0,0,1,11.09,3.12,31.85,31.85,0,0,1,9.53,8.68l-8.43,7.26q-5.48-5.24-11.25-5.23a12.21,12.21,0,0,0-7.86,3.24,26.82,26.82,0,0,0-6.36,7.85,17.72,17.72,0,0,0-2.5,8.28,8.11,8.11,0,0,0,2.3,5.78,14.39,14.39,0,0,0,5.78,3.64,21.35,21.35,0,0,0,7,1.21Q1546.19,709.19,1552.6,706Z"/><path d="M1647.22,679.19c-.84,1.35-1.44,2.37-1.8,3q-12.11,20.09-18.48,32.23a147.49,147.49,0,0,0-10.54,26,128.4,128.4,0,0,0-5,30.58l-11.18-3.75a66.1,66.1,0,0,0,.32-7.89,89,89,0,0,0-3.79-26.13,129.43,129.43,0,0,0-10.08-23.95q-6.29-11.55-18.32-30.93l8.52-14.22q22.88,36.72,31.32,62.73A273.48,273.48,0,0,1,1622,694.85q8.4-16.61,16.6-29.88Z"/><path d="M1709.57,770.28q-8.21-13.2-16.61-29.88a280.78,280.78,0,0,1-13.86-32.07q-8.52,26.08-31.33,62.73l-8.52-14.29q12-19.23,18.29-30.86a130.34,130.34,0,0,0,10.11-24,88.63,88.63,0,0,0,3.79-26.13,67.89,67.89,0,0,0-.31-7.89l11.17-3.67a128.06,128.06,0,0,0,5,30.43,148.67,148.67,0,0,0,10.47,25.93q6.29,12.08,18.4,32.31l2,3.2Z"/><path d="M1772.38,771.06a119,119,0,0,1-6.91-26.09q-2-13.51-2.93-30.24a65.19,65.19,0,0,1-16.48,2.58q-9,0-14.61-3.9t-5.63-12.74a48.86,48.86,0,0,1,13.64-31.76q6.43-6.36,14.49-6.36,7.8,0,11.76,5.11a29.36,29.36,0,0,1,5.31,13.17q1.37,8,2.38,23,.86,12.11,1.8,20.5a171.18,171.18,0,0,0,3,17.93,106.65,106.65,0,0,0,5.79,18.28Zm-10.62-69.84a115.29,115.29,0,0,0-1.56-13.67,20.74,20.74,0,0,0-3.21-8.25,6.94,6.94,0,0,0-5.93-3q-3.36,0-6.57,3.16a24.77,24.77,0,0,0-5.19,7.66,20,20,0,0,0-2,7.93q0,8,11.17,8A65.21,65.21,0,0,0,1761.76,701.22Z"/><path d="M1800.36,718.64l4.76-6.09a107.45,107.45,0,0,1,17.5,15.31,209.45,209.45,0,0,1-13.28,16.87l-17.65-14.92Q1795.67,724.5,1800.36,718.64Z"/><path d="M991.1,971q-5.39-7-5.39-18.2V940.48q0-7.18-3-10.86c-2-2.44-5-3.72-8.91-3.82v-9.92c3.91-.11,6.87-1.4,8.91-3.87s3-6.08,3-10.82v-13q.24-10.86,5.59-17.74t15.9-10l2.73,7.66q-10.78,4-10.94,20.08v13q0,13.59-11.56,19.61,11.57,6,11.56,19.84v13q.07,15.78,10.94,19.92l-2.73,7.66Q996.49,978,991.1,971Z"/><path d="M1007.05,973.53q10.62-4,10.93-19.45v-13.6q0-13.82,12.35-19.68Q1018,915.1,1018,901.19v-13q0-8-2.73-13a15,15,0,0,0-8.13-7.07l2.66-7.66q21.16,6.1,21.49,28v12.74q0,14.22,11.87,14.61v9.92q-11.88.39-11.87,14.61v12.81q-.09,10.93-5.47,17.85t-16,10.12Z"/><path d="M1053.77,847.59H1080v7.58h-14.69v125H1080v7.58h-26.25Z"/><path d="M1091.59,987.75v-7.58h14.77v-125h-14.77v-7.58h26.25V987.75Z"/><path d="M1129.41,963.22a40.87,40.87,0,0,0,8.79-11.17,25.67,25.67,0,0,0,0-24.42,39.71,39.71,0,0,0-8.79-11.13l6.09-6a52.19,52.19,0,0,1,12.93,14.22,28.76,28.76,0,0,1,0,30.32,49.94,49.94,0,0,1-13,14.14Zm26,1.48a43.27,43.27,0,0,0,9.29-11.87,27.83,27.83,0,0,0,3.28-13q0-13-12.57-24.92l6.09-6.41A52.6,52.6,0,0,1,1175,923.65a32.84,32.84,0,0,1,4.45,16.21q0,17-18,31.33Z"/><path d="M1191.06,939.86a32.47,32.47,0,0,1,4.49-16.21,53,53,0,0,1,13.55-15.12l6.1,6.41a46,46,0,0,0-9.3,12,27.28,27.28,0,0,0,0,25.94,43.81,43.81,0,0,0,9.3,11.83l-6.1,6.49Q1191.05,956.81,1191.06,939.86Zm31,15.16a28.82,28.82,0,0,1,0-30.32,51.78,51.78,0,0,1,13-14.22l6,6a40.58,40.58,0,0,0-8.71,11.09,25.9,25.9,0,0,0,0,24.5,41.8,41.8,0,0,0,8.71,11.13l-6,5.94A49.88,49.88,0,0,1,1222.07,955Z"/><path d="M1292.55,947.2l-16.41-16.4-16.48,16.48-6.88-6.95,16.41-16.49-16.41-16.4,7-6.88L1276.14,917l16.41-16.49,6.87,7-16.4,16.4,16.48,16.49Z"/><path d="M1311.07,918.69h51.33V929h-51.33Zm20.66-12.7a7.69,7.69,0,0,1,0-9.84,7.47,7.47,0,0,1,10,0,7.69,7.69,0,0,1,0,9.84,7.82,7.82,0,0,1-10.08,0Zm0,45.55a7.69,7.69,0,0,1,0-9.84,7.47,7.47,0,0,1,10,0,7.69,7.69,0,0,1,0,9.84,7.82,7.82,0,0,1-10.08,0Z"/><path d="M1374,958.53l40.39-90.47,10.23,5.71-40.39,90Zm3.47-77.54a7.54,7.54,0,0,1-1.91-5.43,7.76,7.76,0,0,1,1.91-5.39,7.08,7.08,0,0,1,5.51-2.11,7.25,7.25,0,0,1,5.51,2.11,7.54,7.54,0,0,1,2,5.39A6.83,6.83,0,0,1,1383,883,7.28,7.28,0,0,1,1377.44,881Zm33.21,80.2a8.59,8.59,0,0,1,0-10.86,8.14,8.14,0,0,1,11,0,8.41,8.41,0,0,1,0,10.82,7.35,7.35,0,0,1-5.55,2A7.2,7.2,0,0,1,1410.65,961.19Z"/><path d="M1462.09,914.77v8.64H1432V912.05Zm5.92-6.88-5.13,5-23.19-19.36,8.8-9Zm-5.13,15.52,5.13,5-19.52,23.2-8.48-8.8Zm6.73,5.44h6.88l2.72,30.24h-12.33Zm6.88-21.6h-6.88L1467,877h12.17Zm6.55,5.44-5.11-5,19.68-23.2,8.32,8.8Zm-5.11,15.52,5.28-4.8,23.2,19.2-8.8,9Zm5.92-6.72v-6.88l30.24-1.92v11.36Z"/><path d="M1524.78,934.62l39.38-15-39.38-14.68V891.58l52.89,22.5v11.33l-52.89,22.73Z"/><path d="M1579.71,925.41V914.16l51.56-22.66v13.75l-38,14.69,38,14.53v13.59Z"/><path d="M1655.5,948.34q-8.6-16.53-8.6-32.54t8.6-32.62q8.6-16.53,26.79-33l7,7q-14.54,15.48-21.29,29.81a64.92,64.92,0,0,0,0,57.69q6.75,14.31,21.29,29.77l-7,7Q1664.1,964.86,1655.5,948.34Z"/><path d="M1700.82,974.39q14.52-15.54,21.29-29.84a64.77,64.77,0,0,0,0-57.58q-6.77-14.29-21.29-29.85l7-7q18.2,16.49,26.8,33t8.59,32.62q0,16-8.59,32.54t-26.8,33Z"/><path d="M1756.6,957.4a6.9,6.9,0,0,1-1.87-5,7.27,7.27,0,1,1,14.53,0,6.91,6.91,0,0,1-1.88,5,8.56,8.56,0,0,1-10.78,0Zm-1.25-88.4h12.89l-1,63.83h-10.94Z"/><path d="M1806.3,926.81a33.77,33.77,0,0,0,.78-7,12.66,12.66,0,0,0-1.6-6.48,15.56,15.56,0,0,0-3.91-4.53,73.26,73.26,0,0,0-6.37-4.3,69.55,69.55,0,0,1-7.54-5.24,19.09,19.09,0,0,1-6.83-15.39,29.57,29.57,0,0,1,3.16-12.73,30,30,0,0,1,9-11.09,21.43,21.43,0,0,1,13.4-4.46,20.3,20.3,0,0,1,11.64,4,32.9,32.9,0,0,1,9.6,10.58l-7.81,6.41a22.35,22.35,0,0,0-6-5.27,13,13,0,0,0-6.68-1.92,14.4,14.4,0,0,0-6.8,1.84,16.41,16.41,0,0,0-5.7,5,11.45,11.45,0,0,0-2.27,6.83,7.34,7.34,0,0,0,2.27,5.4,44,44,0,0,0,7.18,5.39,77.12,77.12,0,0,1,8.52,6.13,24.24,24.24,0,0,1,5.78,7.58,25.09,25.09,0,0,1,2.42,11.52,47.6,47.6,0,0,1-2.18,13.2Zm.19,30.59a8.08,8.08,0,0,1,0-10.24,7.78,7.78,0,0,1,10.39,0,8,8,0,0,1,0,10.24,8,8,0,0,1-10.39,0Z"/></g></svg>