<svg xmlns="http://www.w3.org/2000/svg" viewBox="0 0 1920 1080"><defs><style>.cls-1,.cls-3{fill:#fff;}.cls-2{fill:#d8d8d8;}.cls-3{stroke:#b8b8b8;}.cls-3,.cls-4{stroke-miterlimit:10;}.cls-4{fill:none;stroke:#20221d;stroke-width:0.25px;}.cls-5{fill:#20221d;}</style></defs><g id="Layer_2" data-name="Layer 2"><rect class="cls-1" width="1920" height="1080"/></g><g id="Layer_1" data-name="Layer 1"><rect class="cls-2" x="409.77" y="289.01" width="1127.4" height="521.27"/><rect class="cls-3" x="396.3" y="275.54" width="1127.4" height="521.27"/><line class="cls-4" x1="750.15" y1="436.53" x2="1432.78" y2="436.53"/><line class="cls-4" x1="750.15" y1="506.61" x2="1432.78" y2="506.61"/><line class="cls-4" x1="750.15" y1="366.46" x2="1432.78" y2="366.46"/><path d="M691.61,639l-24.34,66.85h12.32L684.27,693h30.24l4.68,12.85h12.32L707.17,639Zm-3.13,42.42,10.91-30,10.91,30Z"/><polygon points="547.65 550.32 547.65 538.75 498.79 538.75 498.79 605.61 547.65 605.61 547.65 594.03 512.93 594.03 512.93 576.03 542.51 576.03 542.51 564.46 512.93 564.46 512.93 550.32 547.65 550.32"/><path d="M559.22,473.18l-36.56-6.45-2,11.4,18.18,3.2c-2.34,8-8.4,13.7-18.18,13.7-12.86,0-19.29-9-19.29-23.14s6.43-23.14,19.29-23.14c9.15,0,15,4.56,17.68,12.28l12.88-4.69c-5.08-12.27-16.44-19.16-30.56-19.16-19.29,0-33.43,12.85-33.43,34.71s14.14,34.72,33.43,34.72a25.89,25.89,0,0,0,19.62-8.88l1,7.59h9v-22l7,1.23Z"/><path d="M533.1,667.69l-11.44-2c-6-1-10-3.49-10-8.63s4.68-7.72,10.93-7.72c5.37,0,9.86,2.85,11,6.11l12.77-4.65c-3.15-7.42-11.88-13-23.78-13h0c-15.08,0-25.07,7.71-25.07,19.29s8.76,17.67,18.69,19.42l10.48,1.85c5.6,1,9.4,4.39,9.4,8.3,0,6.43-5.87,9-13.5,9-6.41,0-11.9-3.71-13.41-7.19l-12.95,4.71c3.4,8.26,13.26,14,26.36,14,16.33,0,27.64-7.71,27.64-20.57C550.22,676.32,543.46,669.52,533.1,667.69Z"/><path d="M620.52,667.69l-11.43-2c-6-1-10-3.49-10-8.63s4.69-7.72,10.93-7.72c5.37,0,9.87,2.85,11,6.11l12.76-4.65c-3.15-7.42-11.88-13-23.78-13h0c-15.08,0-25.07,7.71-25.07,19.29s8.77,17.67,18.69,19.42l10.48,1.85c5.61,1,9.4,4.39,9.4,8.3,0,6.43-5.86,9-13.5,9-6.4,0-11.89-3.71-13.41-7.19l-12.94,4.71c3.39,8.26,13.25,14,26.35,14,16.34,0,27.65-7.71,27.65-20.57C637.65,676.32,630.89,669.52,620.52,667.69Z"/><path class="cls-5" d="M1317.57,697a3.05,3.05,0,0,1,2.27.82,2.92,2.92,0,0,1,.81,2.16v5.88h-1.88v-5.3a2.07,2.07,0,0,0-.46-1.44,1.7,1.7,0,0,0-1.32-.51,1.85,1.85,0,0,0-1.39.57,2,2,0,0,0-.54,1.43v5.25h-1.89V693.75h1.89v4.41A2.92,2.92,0,0,1,1317.57,697Z"/><path class="cls-5" d="M1329.37,703.28l1.08,1.14a6,6,0,0,1-1.8,1.33,4.83,4.83,0,0,1-2,.4,4.27,4.27,0,0,1-3.2-1.23,4.52,4.52,0,0,1-1.19-3.27,4.77,4.77,0,0,1,1.15-3.32,3.9,3.9,0,0,1,3.07-1.3,3.8,3.8,0,0,1,2.92,1.12,4.42,4.42,0,0,1,1,3.11c0,.22,0,.47,0,.77h-6.3a3,3,0,0,0,.77,1.85,2.45,2.45,0,0,0,1.82.68,2.86,2.86,0,0,0,1.31-.27A6.66,6.66,0,0,0,1329.37,703.28Zm-2.94-4.76a2.13,2.13,0,0,0-1.5.56,2.78,2.78,0,0,0-.77,1.58h4.43a2.36,2.36,0,0,0-.62-1.57A2.08,2.08,0,0,0,1326.43,698.52Z"/><path class="cls-5" d="M1334,693.75v12.14h-1.88V693.75Z"/><path class="cls-5" d="M1338.11,693.75v12.14h-1.88V693.75Z"/><path class="cls-5" d="M1344.15,697a4.15,4.15,0,0,1,3.14,1.28,5,5,0,0,1,0,6.57,4.54,4.54,0,0,1-6.29,0,5,5,0,0,1,0-6.59A4.19,4.19,0,0,1,1344.15,697Zm0,1.59a2.2,2.2,0,0,0-1.79.82,3.8,3.8,0,0,0,0,4.31,2.37,2.37,0,0,0,3.57,0,3.8,3.8,0,0,0,0-4.31A2.19,2.19,0,0,0,1344.15,698.62Z"/><path class="cls-5" d="M1361.24,697.8l-1,4.54a3.69,3.69,0,0,0-.1.87,1,1,0,0,0,1.15,1.16,1.64,1.64,0,0,0,1.43-1,4.89,4.89,0,0,0,.55-2.49,5.3,5.3,0,0,0-1.6-4.14,6.6,6.6,0,0,0-8.65.34,6.54,6.54,0,0,0-1.67,4.64,5.9,5.9,0,0,0,1.67,4.43,6.48,6.48,0,0,0,4.76,1.64h3.83v1.3h-4.19a7.6,7.6,0,0,1-5.58-2,7.2,7.2,0,0,1-2.07-5.38,7.63,7.63,0,0,1,2.1-5.6,7.2,7.2,0,0,1,5.55-2.17,7.33,7.33,0,0,1,5.3,1.91,6.48,6.48,0,0,1,2,5,5.42,5.42,0,0,1-1,3.39,3.13,3.13,0,0,1-2.59,1.28c-1.32,0-2.11-.51-2.37-1.52a3.1,3.1,0,0,1-2.76,1.52,2.57,2.57,0,0,1-2-.74,2.87,2.87,0,0,1-.69-2.05,5.94,5.94,0,0,1,.49-2.38,5.12,5.12,0,0,1,1.46-2,3,3,0,0,1,2.09-.75,2.47,2.47,0,0,1,1.34.34,1.65,1.65,0,0,1,.73.92l.19-1.13Zm-4.92,6.42a1.82,1.82,0,0,0,1.44-.64,4,4,0,0,0,.89-1.52,4.76,4.76,0,0,0,.25-1.55,1.68,1.68,0,0,0-.31-1.13,1.22,1.22,0,0,0-1-.36,2,2,0,0,0-1.81,1.14,4.43,4.43,0,0,0-.74,2.52C1355.07,703.71,1355.48,704.22,1356.32,704.22Z"/><path class="cls-5" d="M1372.63,697.31h1.75v8.26a3.4,3.4,0,0,1-1.1,2.68,4.38,4.38,0,0,1-3,1,7,7,0,0,1-4-1.25l.93-1.36a9.88,9.88,0,0,0,1.63.82,4.25,4.25,0,0,0,1.43.24,2.27,2.27,0,0,0,1.64-.57,2.17,2.17,0,0,0,.6-1.67v-.91a3,3,0,0,1-2.62,1.23,3.44,3.44,0,0,1-2.7-1.22,4.61,4.61,0,0,1-1.06-3.14,4.56,4.56,0,0,1,1.06-3.12,3.42,3.42,0,0,1,2.7-1.23,3,3,0,0,1,2.72,1.37Zm-2.32,6.84a2,2,0,0,0,1.64-.77,3.05,3.05,0,0,0,.63-2,3,3,0,0,0-.63-2,2.05,2.05,0,0,0-1.64-.76,2,2,0,0,0-1.64.75,3,3,0,0,0-.62,2,3.06,3.06,0,0,0,.62,2A2,2,0,0,0,1370.31,704.15Z"/><path class="cls-5" d="M1383.12,703.28l1.08,1.14a6.11,6.11,0,0,1-1.81,1.33,4.75,4.75,0,0,1-2,.4,4.27,4.27,0,0,1-3.2-1.23,4.48,4.48,0,0,1-1.2-3.27,4.78,4.78,0,0,1,1.16-3.32,3.89,3.89,0,0,1,3.07-1.3,3.81,3.81,0,0,1,2.92,1.12,4.42,4.42,0,0,1,1,3.11c0,.22,0,.47,0,.77h-6.3a3,3,0,0,0,.77,1.85,2.45,2.45,0,0,0,1.82.68,2.86,2.86,0,0,0,1.31-.27A6.66,6.66,0,0,0,1383.12,703.28Zm-2.94-4.76a2.11,2.11,0,0,0-1.5.56,2.85,2.85,0,0,0-.78,1.58h4.43a2.35,2.35,0,0,0-.61-1.57A2.08,2.08,0,0,0,1380.18,698.52Z"/><path class="cls-5" d="M1389,697a5.15,5.15,0,0,1,3.63,1.3l-1,1.25a5.22,5.22,0,0,0-1.34-.81,3.75,3.75,0,0,0-1.29-.21,2.09,2.09,0,0,0-1.2.29.86.86,0,0,0-.45.75c0,.36.28.62.82.77.16.06.6.17,1.32.34a6.81,6.81,0,0,1,2.57,1,2,2,0,0,1,.73,1.71,2.4,2.4,0,0,1-1,2,4.1,4.1,0,0,1-2.6.76,5.78,5.78,0,0,1-2.12-.36,6.62,6.62,0,0,1-1.95-1.25l1.09-1.23a7.08,7.08,0,0,0,1.56,1,3.75,3.75,0,0,0,1.45.28,2.27,2.27,0,0,0,1.22-.3.92.92,0,0,0,.48-.81.94.94,0,0,0-.49-.79,9.64,9.64,0,0,0-1.76-.5,6.32,6.32,0,0,1-2.48-.94,1.94,1.94,0,0,1-.66-1.62,2.27,2.27,0,0,1,1-1.89A3.94,3.94,0,0,1,1389,697Z"/><path class="cls-5" d="M1397.51,697a5.87,5.87,0,0,1,1.92.29,5.8,5.8,0,0,1,1.7,1l-1,1.25a5.25,5.25,0,0,0-1.35-.81,3.71,3.71,0,0,0-1.29-.21,2.13,2.13,0,0,0-1.2.29.87.87,0,0,0-.44.75c0,.36.27.62.82.77.16.06.6.17,1.32.34a6.75,6.75,0,0,1,2.56,1,2,2,0,0,1,.74,1.71,2.39,2.39,0,0,1-1,2,4.08,4.08,0,0,1-2.6.76,5.85,5.85,0,0,1-2.12-.36,6.88,6.88,0,0,1-2-1.25l1.1-1.23a7.06,7.06,0,0,0,1.55,1,3.8,3.8,0,0,0,1.46.28,2.24,2.24,0,0,0,1.21-.3.9.9,0,0,0,0-1.6,9.2,9.2,0,0,0-1.75-.5,6.38,6.38,0,0,1-2.49-.94,1.94,1.94,0,0,1-.66-1.62,2.29,2.29,0,0,1,1-1.89A4,4,0,0,1,1397.51,697Z"/><path class="cls-5" d="M1406.54,697a4,4,0,0,1,2.68.81,2.71,2.71,0,0,1,1,2.19v5.86h-1.7v-1a3.19,3.19,0,0,1-2.84,1.25,3.71,3.71,0,0,1-2.23-.62,2.08,2.08,0,0,1-.85-1.81,2.24,2.24,0,0,1,1-2,7.63,7.63,0,0,1,2.89-1l2-.36v-.31a1.29,1.29,0,0,0-.48-1.08,2,2,0,0,0-1.3-.39,2.93,2.93,0,0,0-1.38.32,6.35,6.35,0,0,0-1.37,1.1l-1.18-1.09A4.86,4.86,0,0,1,1406.54,697Zm-.63,7.63a2.72,2.72,0,0,0,1.77-.57,1.92,1.92,0,0,0,.69-1.57v-.78l-1.49.31a7,7,0,0,0-1.92.62,1.06,1.06,0,0,0-.56,1,.85.85,0,0,0,.4.75A2,2,0,0,0,1405.91,704.66Z"/><path class="cls-5" d="M1414.24,703.71v2.18h-2.12v-2.18Z"/><path class="cls-5" d="M1423.27,698.68l-1.2,1.14a4.46,4.46,0,0,0-1.18-.94,2.63,2.63,0,0,0-1.16-.26,2,2,0,0,0-1.76.86,3.42,3.42,0,0,0-.64,2.12,3.38,3.38,0,0,0,.64,2.11,2.1,2.1,0,0,0,1.76.83,2.43,2.43,0,0,0,1.2-.3,5,5,0,0,0,1.24-1.07l1.24,1.05a5.3,5.3,0,0,1-1.7,1.49,4.24,4.24,0,0,1-2,.44,4.07,4.07,0,0,1-3.11-1.24,5.23,5.23,0,0,1,0-6.63,4.17,4.17,0,0,1,3.14-1.25,4.5,4.5,0,0,1,1.9.38A5.15,5.15,0,0,1,1423.27,698.68Z"/><path class="cls-5" d="M1428.42,697a4.17,4.17,0,0,1,3.14,1.28,5,5,0,0,1,0,6.57,4.16,4.16,0,0,1-3.14,1.27,4.22,4.22,0,0,1-3.16-1.26,5.06,5.06,0,0,1,0-6.59A4.23,4.23,0,0,1,1428.42,697Zm0,1.59a2.23,2.23,0,0,0-1.8.82,3.85,3.85,0,0,0,0,4.31,2.22,2.22,0,0,0,1.8.81,2.2,2.2,0,0,0,1.78-.81,3.85,3.85,0,0,0,0-4.31A2.21,2.21,0,0,0,1428.42,698.62Z"/></g></svg>