<?xml version="1.0" encoding="utf-8"?>
<!-- Generator: Adobe Illustrator 25.0.0, SVG Export Plug-In . SVG Version: 6.00 Build 0)  -->
<svg version="1.1" id="Layer_1" xmlns="http://www.w3.org/2000/svg" xmlns:xlink="http://www.w3.org/1999/xlink" x="0px" y="0px"
	 viewBox="0 0 1920 1080" style="enable-background:new 0 0 1920 1080;" xml:space="preserve">
<style type="text/css">
	.st0{fill:#FFFFFF;}
	.st1{enable-background:new    ;}
</style>
<g id="Layer_2_1_">
	<rect class="st0" width="1920" height="1080"/>
</g>
<g id="Layer_1_1_">
	<g class="st1">
		<path d="M718.8,774.1h11.2c2.6,0,4.6,0.7,6.1,2.1s2.3,3.3,2.3,5.7s-0.8,4.3-2.3,5.7c-1.5,1.4-3.6,2.1-6.1,2.1h-7.8V800h-3.4V774.1
			z M729.4,776.9h-7.3v9.9h7.3c1.8,0,3.1-0.4,4.1-1.3c1-0.9,1.5-2.1,1.5-3.7s-0.5-2.8-1.5-3.6C732.5,777.3,731.2,776.9,729.4,776.9z
			"/>
		<path d="M762.7,800h-3.8l-6.9-10.4h-6.1V800h-3.4v-25.9h10.9c2.5,0,4.5,0.7,6,2.1c1.6,1.4,2.4,3.3,2.4,5.6c0,2-0.6,3.7-1.7,5
			c-1.1,1.3-2.6,2.2-4.6,2.6L762.7,800z M745.9,776.9v9.9h7c1.8,0,3.1-0.4,4.1-1.3c1-0.9,1.5-2.1,1.5-3.7s-0.5-2.8-1.5-3.6
			c-1-0.9-2.4-1.3-4.1-1.3H745.9z"/>
		<path d="M784.1,774.1v2.8h-13.9v8.3h12.9v2.8h-12.9v9.1h14.2v2.8h-17.6v-25.9H784.1z"/>
		<path d="M797.3,773.5c1.9,0,3.7,0.3,5.2,0.9c1.5,0.6,3,1.6,4.6,2.9l-2,2.3c-1.4-1.2-2.6-2-3.8-2.5c-1.2-0.5-2.5-0.7-4-0.7
			c-1.8,0-3.2,0.4-4.3,1.2c-1.1,0.8-1.7,1.8-1.7,3c0,1.6,1,2.7,3,3.4c0.9,0.3,2.3,0.7,4.2,1.1c3.4,0.8,5.7,1.7,7,2.8
			c1.3,1,2,2.6,2,4.7c0,2.4-0.9,4.3-2.7,5.8c-1.8,1.5-4.1,2.2-6.9,2.2c-2.2,0-4-0.4-5.6-1.1c-1.7-0.7-3.5-1.9-5.3-3.4l2-2.4
			c1.8,1.5,3.4,2.5,4.7,3.1c1.3,0.6,2.7,0.8,4.2,0.8c1.8,0,3.3-0.4,4.4-1.3c1.1-0.9,1.7-2.1,1.7-3.6c0-1.8-1-3-3.1-3.7
			c-0.9-0.3-2.3-0.7-4.2-1.1c-3.4-0.8-5.7-1.6-6.9-2.6c-1.3-1-1.9-2.5-1.9-4.5c0-2.1,0.9-3.8,2.7-5.2
			C792.5,774.2,794.7,773.5,797.3,773.5z"/>
		<path d="M829.2,774.1v2.8h-13.9v8.3h12.9v2.8h-12.9v9.1h14.2v2.8H812v-25.9H829.2z"/>
		<path d="M851.6,774.1h3.3V800h-3.7l-7.7-11.8c-0.6-0.9-1.1-1.7-1.6-2.4c-2.3-3.5-3.9-6-4.7-7.5c0.1,3,0.2,6.3,0.2,10.1V800h-3.3
			v-25.9h3.8l7.8,12c0.1,0.2,0.3,0.5,0.5,0.7c0.2,0.3,0.3,0.4,0.3,0.5c1.5,2.3,2.3,3.5,2.3,3.6c0.8,1.2,1.8,2.8,2.9,4.8
			c-0.1-2.4-0.1-5.7-0.1-9.8V774.1z"/>
		<path d="M871.8,773.5c1.7,0,3.2,0.3,4.6,0.9c1.4,0.6,2.9,1.5,4.4,2.9l-1.9,2.3c-1.3-1.1-2.6-1.9-3.7-2.4c-1.1-0.5-2.3-0.7-3.5-0.7
			c-2.7,0-4.9,1-6.6,2.9s-2.4,4.5-2.4,7.6c0,3.1,0.8,5.7,2.4,7.6s3.7,3,6.3,3c1.4,0,2.7-0.3,3.8-0.9c1.1-0.6,2.4-1.6,4-2.9l2,2.3
			c-1.7,1.6-3.2,2.8-4.7,3.5c-1.5,0.7-3.2,1-5,1c-3.8,0-6.8-1.3-9-3.8s-3.3-5.8-3.3-9.8c0-4,1.1-7.3,3.3-9.8
			C864.9,774.8,867.9,773.5,871.8,773.5z"/>
		<path d="M902.3,774.1v2.8h-13.9v8.3h12.9v2.8h-12.9v9.1h14.2v2.8h-17.6v-25.9H902.3z"/>
		<path d="M919.2,774.1V800h-3.4v-25.9H919.2z"/>
		<path d="M942.9,774.1h3.3V800h-3.7l-7.7-11.8c-0.6-0.9-1.1-1.7-1.6-2.4c-2.3-3.5-3.9-6-4.7-7.5c0.1,3,0.2,6.3,0.2,10.1V800h-3.3
			v-25.9h3.8l7.8,12c0.1,0.2,0.3,0.5,0.5,0.7c0.2,0.3,0.3,0.4,0.3,0.5c1.5,2.3,2.3,3.5,2.3,3.6c0.8,1.2,1.8,2.8,2.9,4.8
			c-0.1-2.4-0.1-5.7-0.1-9.8V774.1z"/>
		<path d="M977.6,774.1v2.8h-13.9v8.3h12.9v2.8h-12.9v9.1h14.2v2.8h-17.6v-25.9H977.6z"/>
		<path d="M998.6,774.1h3.5l-8.8,25.9H989l-8.8-25.9h3.5l4.3,12.8c1.3,3.9,2.4,7.3,3.2,10.1c0.8-2.7,1.8-6,3.1-10.1L998.6,774.1z"/>
		<path d="M1022.9,774.1v2.8H1009v8.3h12.9v2.8H1009v9.1h14.2v2.8h-17.6v-25.9H1022.9z"/>
		<path d="M1048,800h-3.8l-6.9-10.4h-6.1V800h-3.4v-25.9h10.9c2.5,0,4.5,0.7,6,2.1c1.6,1.4,2.4,3.3,2.4,5.6c0,2-0.6,3.7-1.7,5
			c-1.1,1.3-2.6,2.2-4.6,2.6L1048,800z M1031.2,776.9v9.9h7c1.8,0,3.1-0.4,4.1-1.3c1-0.9,1.5-2.1,1.5-3.7s-0.5-2.8-1.5-3.6
			c-1-0.9-2.4-1.3-4.1-1.3H1031.2z"/>
		<path d="M1067.3,774.1h3.6l-9.2,14.8v11h-3.4v-11.1l-9.1-14.8h3.7l7.1,11.8L1067.3,774.1z"/>
		<path d="M1081.9,774.1h9.7c3.6,0,6.4,1.2,8.4,3.6c2,2.4,3,5.5,3,9.4s-1,7-3,9.4c-2,2.4-4.8,3.6-8.4,3.6h-9.7V774.1z M1091.1,776.9
			h-5.8v20.3h5.8c2.7,0,4.8-0.9,6.3-2.7c1.5-1.8,2.2-4.3,2.2-7.5c0-3.2-0.8-5.6-2.3-7.4C1095.9,777.8,1093.8,776.9,1091.1,776.9z"/>
		<path d="M1124.8,774.1v2.8h-13.9v8.3h12.9v2.8h-12.9v9.1h14.2v2.8h-17.6v-25.9H1124.8z"/>
		<path d="M1147.5,774.1v2.8h-8.1v23h-3.4v-23h-8.1v-2.8H1147.5z"/>
		<path d="M1166,800l-2.4-6.6H1152l-2.4,6.6h-3.4l9.4-25.9h4.4l9.4,25.9H1166z M1153,790.5h9.6l-1.2-3.4c-1.6-4.5-2.8-8-3.6-10.5
			c-0.6,1.8-1.1,3.3-1.5,4.6c-0.2,0.6-0.4,1.3-0.7,2.1s-0.5,1.4-0.6,1.7l-0.8,2.2L1153,790.5z"/>
		<path d="M1176.6,774.1V800h-3.4v-25.9H1176.6z"/>
		<path d="M1186.2,774.1v23h12.1v2.8h-15.5v-25.9H1186.2z"/>
	</g>
	<path d="M1362.2,462l-56.8,156h28.7l10.9-30h70.6l10.9,30h28.7l-56.8-156H1362.2z M1354.9,561l25.5-70l25.5,70H1354.9z"/>
	<polygon points="819.8,489 819.8,462 705.8,462 705.8,618 819.8,618 819.8,591 738.8,591 738.8,549 807.8,549 807.8,522 738.8,522 
		738.8,489 	"/>
	<path d="M619.7,543l-85.3-15l-4.7,26.6l42.4,7.5c-5.5,18.7-19.6,32-42.4,32c-30,0-45-21-45-54s15-54,45-54
		c21.3,0,35.1,10.6,41.2,28.7l30.1-11c-11.9-28.6-38.4-44.7-71.3-44.7c-45,0-78,30-78,81s33,81,78,81c18.5,0,34.3-7.9,45.8-20.7
		l2.2,17.7h21v-51.3l16.4,2.9L619.7,543z"/>
	<path d="M992.3,528.9l-26.7-4.7c-14-2.5-23.4-8.2-23.4-20.1s10.9-18,25.5-18c12.5,0,23,6.6,25.7,14.2l29.8-10.8
		c-7.4-17.3-27.7-30.4-55.5-30.4l0,0c-35.2,0-58.5,18-58.5,45c0,27,20.5,41.2,43.6,45.3l24.5,4.3c13.1,2.3,21.9,10.2,21.9,19.4
		c0,15-13.7,21-31.5,21c-14.9,0-27.8-8.7-31.3-16.8l-30.2,11c7.9,19.3,30.9,32.8,61.5,32.8c38.1,0,64.5-18,64.5-48
		C1032.3,549,1016.5,533.1,992.3,528.9z"/>
	<path d="M1196.3,528.9l-26.7-4.7c-14-2.5-23.4-8.2-23.4-20.1s10.9-18,25.5-18c12.5,0,23,6.6,25.7,14.2l29.8-10.8
		c-7.4-17.3-27.7-30.4-55.5-30.4l0,0c-35.2,0-58.5,18-58.5,45c0,27,20.5,41.2,43.6,45.3l24.5,4.3c13.1,2.3,21.9,10.2,21.9,19.4
		c0,15-13.7,21-31.5,21c-14.9,0-27.8-8.7-31.3-16.8l-30.2,11c7.9,19.3,30.9,32.8,61.5,32.8c38.1,0,64.5-18,64.5-48
		C1236.3,549,1220.5,533.1,1196.3,528.9z"/>
</g>
</svg>
