<svg xmlns="http://www.w3.org/2000/svg" viewBox="0 0 1920 1080"><defs><style>.cls-1{fill:#fff;}.cls-2,.cls-3{fill:none;stroke:#7f7f7f;stroke-miterlimit:10;}.cls-3{stroke-dasharray:5 5;}.cls-4{fill:#7f7f7f;}</style></defs><g id="Layer_1" data-name="Layer 1"><path class="cls-1" d="M1147.37,696l-56.78,156h28.73l10.92-30h70.58l10.92,30h28.73l-56.78-156Zm-7.3,99,25.46-70L1191,795Z"/><polygon class="cls-1" points="811.47 489 811.47 462 697.47 462 697.47 618 811.47 618 811.47 591 730.47 591 730.47 549 799.47 549 799.47 522 730.47 522 730.47 489 811.47 489"/><path class="cls-1" d="M838.47,309l-85.3-15-4.69,26.59L790.89,328c-5.45,18.74-19.59,32-42.42,32-30,0-45-21-45-54s15-54,45-54c21.35,0,35.09,10.64,41.25,28.66l30-10.94C807.93,241.09,781.42,225,748.47,225c-45,0-78,30-78,81s33,81,78,81c18.49,0,34.28-7.86,45.78-20.7l2.21,17.7h21V332.71l16.31,2.88Z"/><path class="cls-1" d="M777.52,762.86l-26.68-4.71c-14-2.46-23.37-8.15-23.37-20.15s10.93-18,25.5-18c12.53,0,23,6.65,25.71,14.24l29.78-10.84C801.11,706.09,780.74,693,753,693h0c-35.18,0-58.5,18-58.5,45s20.46,41.24,43.61,45.32l24.46,4.31c13.07,2.31,21.93,10.25,21.93,19.37,0,15-13.69,21-31.5,21-14.94,0-27.76-8.65-31.29-16.78l-30.2,11C699.4,841.49,722.41,855,753,855c38.11,0,64.5-18,64.5-48C817.47,783,801.7,767.12,777.52,762.86Z"/><path class="cls-1" d="M981.51,762.86l-26.68-4.71c-14-2.46-23.37-8.15-23.37-20.15s10.93-18,25.5-18c12.53,0,23,6.65,25.71,14.24l29.78-10.84C1005.1,706.09,984.73,693,957,693h0c-35.18,0-58.5,18-58.5,45s20.46,41.24,43.62,45.32l24.45,4.31c13.07,2.31,21.93,10.25,21.93,19.37,0,15-13.69,21-31.5,21-14.94,0-27.76-8.65-31.28-16.78l-30.21,11C903.39,841.49,926.4,855,957,855c38.12,0,64.5-18,64.5-48C1021.46,783,1005.69,767.12,981.51,762.86Z"/><rect class="cls-2" x="1087.53" y="696" width="156" height="156"/><rect class="cls-2" x="880.47" y="696" width="156" height="156"/><rect class="cls-2" x="676.47" y="696" width="156" height="156"/><rect class="cls-2" x="676.47" y="462" width="156" height="156"/><rect class="cls-2" x="676.47" y="228" width="156" height="156"/><rect class="cls-2" x="676.47" y="228" width="567.06" height="624"/><line class="cls-3" y1="696" x2="676.47" y2="696"/><line class="cls-3" y1="852" x2="676.47" y2="852"/><path class="cls-4" d="M573,778.76h-2.51l-3-4.4-3,4.4H562l4.13-6-3.7-5.33H565l2.54,3.76L570,767.4h2.5l-3.72,5.34Z"/><rect class="cls-4" x="594.64" y="696" width="5.94" height="156"/><line class="cls-3" y1="462" x2="676.47" y2="462"/><line class="cls-3" y1="618" x2="676.47" y2="618"/><path class="cls-4" d="M573,544.76h-2.51l-3-4.4-3,4.4H562l4.13-6-3.7-5.33H565l2.54,3.76L570,533.4h2.5l-3.72,5.34Z"/><rect class="cls-4" x="594.64" y="462" width="5.94" height="156"/><line class="cls-3" y1="228" x2="676.47" y2="228"/><line class="cls-3" y1="384" x2="676.47" y2="384"/><path class="cls-4" d="M573,310.76h-2.51l-3-4.4-3,4.4H562l4.13-6-3.7-5.33H565l2.54,3.76L570,299.4h2.5l-3.72,5.34Z"/><rect class="cls-4" x="594.64" y="228" width="5.94" height="156"/></g></svg>