<svg xmlns="http://www.w3.org/2000/svg" xmlns:xlink="http://www.w3.org/1999/xlink" viewBox="0 0 1920 1080"><defs><style>.cls-1,.cls-5,.cls-6,.cls-7,.cls-8,.cls-9{fill:none;}.cls-2{fill:#fff;}.cls-3{fill:#d8d8d8;}.cls-4{clip-path:url(#clip-path);}.cls-5,.cls-6,.cls-7,.cls-8,.cls-9{stroke:#000;stroke-miterlimit:10;}.cls-5{stroke-width:5px;}.cls-6{stroke-width:6px;}.cls-7{stroke-width:7px;}.cls-8{stroke-width:8px;}.cls-9{stroke-width:9px;}.cls-10{fill:#020905;}.cls-11{clip-path:url(#clip-path-2);}</style><clipPath id="clip-path"><rect class="cls-1" x="-3880" y="-1100" width="1920" height="1080"/></clipPath><clipPath id="clip-path-2"><rect class="cls-1" x="396.3" y="275.54" width="1127.4" height="521.27"/></clipPath></defs><g id="Layer_2" data-name="Layer 2"><rect class="cls-2" width="1920" height="1080"/></g><g id="Layer_1" data-name="Layer 1"><rect class="cls-3" x="409.77" y="289.01" width="1127.4" height="521.27"/><g class="cls-4"><polyline class="cls-5" points="-29.57 168.6 -29.57 222.57 19.48 222.57"/><polyline class="cls-6" points="19.48 114.63 19.48 168.6 68.52 168.6"/><polyline class="cls-7" points="68.52 60.66 68.52 114.63 117.57 114.63"/><polyline class="cls-8" points="117.57 6.69 117.57 60.66 166.62 60.66"/><polyline class="cls-9" points="166.62 -47.28 166.62 6.69 215.66 6.69"/></g><rect class="cls-10" x="396.3" y="275.54" width="1127.4" height="521.27"/><g class="cls-11"><path class="cls-2" d="M533.24,237.94h31.35L525.52,399.21H489L473.05,337q-8.4-34.29-12.95-55.65Q455.33,303.6,446.93,337L431,399.21H394.69L355.4,237.94h32.25l16.13,69.51q7,30.89,10.67,52.69,8.18-36.79,12.49-52.69l18.4-69.51h30.89l17.94,69.51q5.68,21.8,12.27,53.6,5.67-32.48,10.68-53.6Z"/><path class="cls-2" d="M620,237.94V399.21H588.21V237.94Z"/><path class="cls-2" d="M770.59,237.94V265.2H723.12v134h-31.8v-134H643.85V237.94Z"/><path class="cls-2" d="M928.45,237.94V399.21h-31.8V327.89h-72v71.32h-31.8V237.94h31.8v63.15h72V237.94Z"/><path class="cls-2" d="M437.85,450.52q17.94,0,31.57,5.56t28.39,18.51l-18.63,22q-11.81-10.23-21.12-14.2a51.53,51.53,0,0,0-20.44-4q-22,0-34.87,15.33t-12.83,41q0,25.66,12.95,41.22t34.29,15.56q12.49,0,21.58-4.77,8.86-4.32,22.94-15.9l18.63,21.58q-15.22,14.31-29.76,20.67t-32.93,6.36q-36.57,0-58.37-23.85t-21.81-61.1q0-37,21.58-60.53T437.85,450.52Z"/><path class="cls-2" d="M586.84,450.52q35.67-.45,57.81,23.85T666.34,535q.45,36.35-21.69,60.65t-57.81,23.85q-36.11,0-57.91-23.85T507.12,535q0-36.79,21.81-60.64T586.84,450.52Zm0,28.16q-21.35,0-34.18,15.45T539.83,535q0,25.44,12.83,40.89t34.18,15.44q21.13,0,34-15.44T633.63,535q0-25.43-12.83-40.88T586.84,478.68Z"/><path class="cls-2" d="M814.89,454.38h49.28V615.64H833.28V533.88q0-4.1.46-36.8l.22-17.94q-4.08,15-16.58,54.74l-25.89,81.76H763.78l-26.35-81.76q-1.81-5.46-6.81-20.9-5-15-10.45-33.16.68,26.81.68,54.06v81.76H690.42V454.38h50L761.51,520q10.44,32.49,16.35,55,5.22-21.12,16.13-55Z"/><path class="cls-2" d="M896.88,454.38h77.68q24.3,0,38.73,14t14.42,36.91q0,22.93-14.42,36.79t-38.73,13.86H928.68v59.73h-31.8Zm72,26.35h-40.2v48.83h40.2q12.72,0,20-6.36t7.27-17.94q0-11.58-7.16-18.06T968.88,480.73Z"/><path class="cls-2" d="M1083.36,454.38v134h71.32v27.25H1051.56V454.38Z"/><path class="cls-2" d="M1211.23,454.38V615.64h-31.8V454.38Z"/><path class="cls-2" d="M1310.94,536.38V563h-70.41V536.38Z"/><path class="cls-2" d="M490.54,670.82h49.29V832.08H508.94V750.31q0-4.08.45-36.79l.23-17.95q-4.1,15-16.58,54.74l-25.89,81.77H439.44l-26.35-81.77q-1.83-5.44-6.82-20.89-5-15-10.44-33.16.68,26.79.68,54v81.77H366.07V670.82h50l21.12,65.64q10.45,32.47,16.36,55,5.22-21.12,16.12-55Z"/><path class="cls-2" d="M685.87,670.82v26.8H604.33v37.7h76.32v26.8H604.33v43.16h84v26.8H572.54V670.82Z"/><path class="cls-2" d="M820.33,670.82h30.9V832.08H817.38L776.5,766.67,772,759.4q-19.08-30.89-27.26-45.65,1.37,28.39,1.36,62.68v55.65H715.17V670.82H749.7l43.38,69.5,6.13,10.22q14.09,22.71,22.26,37-1.14-23.85-1.14-58.14Z"/><path class="cls-2" d="M1000.22,670.82v27.25H952.75v134H921v-134H873.48V670.82Z"/><path class="cls-2" d="M1074.5,667.18q20,0,34.29,5.68,14.31,5.91,30.21,19.31l-18.62,22.26q-14.09-11.8-23.63-15.68-9.76-4.08-22.94-4.08-13.39,0-21.46,5.45t-8.06,14.31A12.71,12.71,0,0,0,1048,724q3.75,3.63,11.7,6.13,10,3.18,23.85,6.36,32.25,7.95,44.52,17.49T1141,783.48q0,23.16-17.37,37.81t-46.45,14.65q-21.12,0-37.25-6.81-16.12-6.58-34.3-22.94l19.08-22.49Q1041.12,798,1052.24,803a61.72,61.72,0,0,0,25.66,5.22q14.31,0,22.94-6t8.63-16.24q0-11.12-14.08-16.12-6.59-2.05-19.08-4.77l-7.72-1.82q-32-7.72-43.84-18.06t-11.81-29.87q0-20.43,17.26-34.29T1074.5,667.18Z"/></g></g></svg>