<svg xmlns="http://www.w3.org/2000/svg" xmlns:xlink="http://www.w3.org/1999/xlink" viewBox="0 0 1920 1080"><defs><style>.cls-1,.cls-10,.cls-11,.cls-12,.cls-13,.cls-14,.cls-15,.cls-3,.cls-4,.cls-7,.cls-8,.cls-9{fill:none;}.cls-2{fill:#fff;}.cls-3,.cls-4{stroke:#7f7f7f;}.cls-10,.cls-11,.cls-12,.cls-13,.cls-14,.cls-15,.cls-3,.cls-4,.cls-7,.cls-8,.cls-9{stroke-miterlimit:10;}.cls-3{stroke-dasharray:5 5;}.cls-5{fill:#7f7f7f;}.cls-6{clip-path:url(#clip-path);}.cls-10,.cls-11,.cls-12,.cls-13,.cls-14,.cls-15,.cls-7,.cls-8,.cls-9{stroke:#000;}.cls-7{stroke-width:5px;}.cls-8{stroke-width:4px;}.cls-9{stroke-width:3px;}.cls-10{stroke-width:2px;}.cls-12{stroke-width:9px;}.cls-13{stroke-width:8px;}.cls-14{stroke-width:7px;}.cls-15{stroke-width:6px;}</style><clipPath id="clip-path"><rect class="cls-1" x="-3880" y="1100" width="1920" height="1080"/></clipPath></defs><g id="Layer_1" data-name="Layer 1"><path class="cls-2" d="M1128,546,957.4,515.92,948,569.1l84.81,14.95c-10.9,37.48-39.17,64-84.84,64-60,0-90-42-90-108s30-108,90-108c42.69,0,70.18,21.28,82.49,57.32l60.11-21.88C1066.93,410.17,1013.9,378,948,378c-90,0-156,60-156,162s66,162,156,162c37,0,68.57-15.71,91.56-41.41L1044,696h42V593.43l32.62,5.75Z"/><line class="cls-3" y1="864.38" x2="1920" y2="165.57"/><line class="cls-3" x1="1920" y1="685.65" y2="347.1"/><line class="cls-3" x1="1920" y1="740.49" y2="401.95"/><line class="cls-4" x1="526.08" y1="439.87" x2="649.65" y2="439.87"/><line class="cls-4" x1="526.08" y1="673.14" x2="649.65" y2="673.14"/><path class="cls-5" d="M638.25,444.55h1.68v10.88h-2.16v-8.24l-1.87,1.29L634.84,447Z"/><path class="cls-5" d="M646.63,444.28a3.67,3.67,0,0,1,3.49,2.09,9.09,9.09,0,0,1,0,7.23,3.94,3.94,0,0,1-7,0,9,9,0,0,1,0-7.23A3.65,3.65,0,0,1,646.63,444.28Zm0,1.84a1.65,1.65,0,0,0-1.58,1.12,8.45,8.45,0,0,0,0,5.5,1.68,1.68,0,0,0,3.17,0,8.45,8.45,0,0,0,0-5.5A1.65,1.65,0,0,0,646.63,446.12Z"/><path class="cls-5" d="M654.79,443.83a2.44,2.44,0,0,1,1.78.7,2.47,2.47,0,0,1,0,3.49,2.59,2.59,0,0,1-3.54,0,2.45,2.45,0,0,1,0-3.49A2.42,2.42,0,0,1,654.79,443.83Zm.89,1.55a1.16,1.16,0,0,0-.89-.35,1.14,1.14,0,0,0-.88.35,1.32,1.32,0,0,0,0,1.79,1.14,1.14,0,0,0,.88.35,1.16,1.16,0,0,0,.89-.35,1.32,1.32,0,0,0,0-1.79Z"/><path class="cls-5" d="M639.74,654.86l-.48.29a8.54,8.54,0,0,0-1.3.88,1.65,1.65,0,0,0-.53.83h5.89v1.79h-8.14v-.85a3.86,3.86,0,0,1,1.52-3.2c.39-.3,1-.68,1.71-1.15l.77-.45a13.17,13.17,0,0,0,1.18-.73,2.6,2.6,0,0,0,.61-.63,1.46,1.46,0,0,0,.26-.88,1.31,1.31,0,0,0-.45-1,1.77,1.77,0,0,0-1.17-.38,2.42,2.42,0,0,0-1.38.43,6.75,6.75,0,0,0-1.44,1.42l-1.58-1.12a5.11,5.11,0,0,1,4.35-2.57,4,4,0,0,1,2.79.93,3,3,0,0,1,1,2.3,3.16,3.16,0,0,1-1.31,2.67,16.17,16.17,0,0,1-1.62,1Z"/><path class="cls-5" d="M648.94,647.5a3.69,3.69,0,0,1,3.49,2.09,9.11,9.11,0,0,1,0,7.24,4,4,0,0,1-7,0,9.11,9.11,0,0,1,0-7.24A3.69,3.69,0,0,1,648.94,647.5Zm0,1.84a1.65,1.65,0,0,0-1.59,1.12,8.45,8.45,0,0,0,0,5.5,1.68,1.68,0,0,0,3.17,0,8.28,8.28,0,0,0,0-5.5A1.65,1.65,0,0,0,648.94,649.34Z"/><path class="cls-5" d="M657.1,647.05a2.47,2.47,0,0,1,1.77.7,2.47,2.47,0,0,1,0,3.49,2.56,2.56,0,0,1-3.54,0,2.45,2.45,0,0,1,0-3.49A2.47,2.47,0,0,1,657.1,647.05Zm.89,1.55a1.21,1.21,0,0,0-.89-.35,1.2,1.2,0,0,0-.89.35,1.25,1.25,0,0,0-.34.9,1.21,1.21,0,0,0,.34.89,1.17,1.17,0,0,0,.89.36,1.18,1.18,0,0,0,.89-.36,1.25,1.25,0,0,0,.34-.89A1.29,1.29,0,0,0,658,648.6Z"/><g class="cls-6"><polyline class="cls-7" points="-29.57 857.43 -29.57 911.4 19.48 911.4"/><polyline class="cls-8" points="19.48 803.46 19.48 857.43 68.52 857.43"/><polyline class="cls-9" points="68.52 749.49 68.52 803.46 117.57 803.46"/><polyline class="cls-10" points="117.57 695.52 117.57 749.49 166.62 749.49"/><polyline class="cls-11" points="166.62 641.55 166.62 695.52 215.66 695.52"/><polyline class="cls-12" points="117.57 1073.31 117.57 1127.28 166.62 1127.28"/><polyline class="cls-13" points="166.62 1019.34 166.62 1073.31 215.66 1073.31"/><polyline class="cls-14" points="215.66 965.37 215.66 1019.34 264.71 1019.34"/><polyline class="cls-15" points="264.71 911.4 264.71 965.37 313.75 965.37"/><polyline class="cls-7" points="313.75 857.43 313.75 911.4 362.8 911.4"/><polyline class="cls-8" points="362.8 803.46 362.8 857.43 411.84 857.43"/><polyline class="cls-9" points="411.84 749.49 411.84 803.46 460.89 803.46"/><polyline class="cls-10" points="460.89 695.52 460.89 749.49 509.93 749.49"/><polyline class="cls-11" points="509.93 641.55 509.93 695.52 558.98 695.52"/><polyline class="cls-12" points="460.89 1073.31 460.89 1127.28 509.93 1127.28"/><polyline class="cls-13" points="509.93 1019.34 509.93 1073.31 558.98 1073.31"/><polyline class="cls-14" points="558.98 965.37 558.98 1019.34 608.02 1019.34"/><polyline class="cls-15" points="608.02 911.4 608.02 965.37 657.07 965.37"/><polyline class="cls-7" points="657.07 857.43 657.07 911.4 706.11 911.4"/><polyline class="cls-8" points="706.11 803.46 706.11 857.43 755.16 857.43"/><polyline class="cls-9" points="755.16 749.49 755.16 803.46 804.21 803.46"/><polyline class="cls-10" points="804.21 695.52 804.21 749.49 853.25 749.49"/><polyline class="cls-11" points="853.25 641.55 853.25 695.52 902.29 695.52"/><polyline class="cls-12" points="804.21 1073.31 804.21 1127.28 853.25 1127.28"/><polyline class="cls-13" points="853.25 1019.34 853.25 1073.31 902.29 1073.31"/><polyline class="cls-14" points="902.29 965.37 902.29 1019.34 951.34 1019.34"/><polyline class="cls-15" points="951.34 911.4 951.34 965.37 1000.39 965.37"/><polyline class="cls-7" points="1000.39 857.43 1000.39 911.4 1049.43 911.4"/><polyline class="cls-8" points="1049.43 803.46 1049.43 857.43 1098.48 857.43"/><polyline class="cls-9" points="1098.48 749.49 1098.48 803.46 1147.52 803.46"/><polyline class="cls-10" points="1147.52 695.52 1147.52 749.49 1196.57 749.49"/><polyline class="cls-11" points="1196.57 641.55 1196.57 695.52 1245.61 695.52"/><polyline class="cls-12" points="1147.52 1073.31 1147.52 1127.28 1196.57 1127.28"/><polyline class="cls-13" points="1196.57 1019.34 1196.57 1073.31 1245.61 1073.31"/><polyline class="cls-14" points="1245.61 965.37 1245.61 1019.34 1294.66 1019.34"/><polyline class="cls-15" points="1294.66 911.4 1294.66 965.37 1343.7 965.37"/><polyline class="cls-7" points="1343.7 857.43 1343.7 911.4 1392.75 911.4"/><polyline class="cls-8" points="1392.75 803.46 1392.75 857.43 1441.79 857.43"/><polyline class="cls-9" points="1441.79 749.49 1441.79 803.46 1490.84 803.46"/><polyline class="cls-10" points="1490.84 695.52 1490.84 749.49 1539.88 749.49"/><polyline class="cls-11" points="1539.88 641.55 1539.88 695.52 1588.93 695.52"/></g></g></svg>