<svg xmlns="http://www.w3.org/2000/svg" viewBox="0 0 1920 1080"><defs><style>.cls-1{fill:#b8b8b8;}.cls-2{fill:#fff;}.cls-3{fill:#7f7f7f;}</style></defs><g id="Layer_2" data-name="Layer 2"><rect class="cls-1" width="1920" height="1080"/></g><g id="Layer_1" data-name="Layer 1"><rect class="cls-2" x="919.62" y="456" width="156" height="60"/><rect class="cls-2" x="799.62" y="768" width="156" height="60"/><polygon class="cls-2" points="883.62 720 730.3 501.03 680.35 544.77 803.05 720 883.62 720"/><polygon class="cls-2" points="798.77 360 604.38 554.39 643.62 600 883.62 360 798.77 360"/><path class="cls-2" d="M1321.62,786a42,42,0,1,1-42-42,42,42,0,0,1,42,42"/><rect class="cls-2" x="505.62" y="654" width="251.21" height="66"/><rect class="cls-2" x="1123.62" y="360" width="72" height="360"/><rect class="cls-2" x="1243.62" y="564" width="72" height="156"/><rect class="cls-2" x="883.62" y="564" width="72" height="156"/><rect class="cls-2" x="1003.62" y="564" width="72" height="156"/><rect class="cls-3" y="719.5" width="3.5" height="1"/><path class="cls-3" d="M1909.5,720.5h-7v-1h7Zm-14,0h-7v-1h7Zm-14,0h-7v-1h7Zm-14,0h-7v-1h7Zm-14,0h-7v-1h7Zm-14,0h-7v-1h7Zm-14,0h-7v-1h7Zm-14,0h-7v-1h7Zm-14,0h-7v-1h7Zm-14,0h-7v-1h7Zm-14,0h-7v-1h7Zm-14,0h-7v-1h7Zm-14,0h-7v-1h7Zm-14,0h-7v-1h7Zm-14,0h-7v-1h7Zm-14,0h-7v-1h7Zm-14,0h-7v-1h7Zm-14,0h-7v-1h7Zm-14,0h-7v-1h7Zm-14,0h-7v-1h7Zm-14,0h-7v-1h7Zm-14,0h-7v-1h7Zm-14,0h-7v-1h7Zm-14,0h-7v-1h7Zm-14,0h-7v-1h7Zm-14,0h-7v-1h7Zm-14,0h-7v-1h7Zm-14,0h-7v-1h7Zm-14,0h-7v-1h7Zm-14,0h-7v-1h7Zm-14,0h-7v-1h7Zm-14,0h-7v-1h7Zm-14,0h-7v-1h7Zm-14,0h-7v-1h7Zm-14,0h-7v-1h7Zm-14,0h-7v-1h7Zm-14,0h-7v-1h7Zm-14,0h-7v-1h7Zm-14,0h-7v-1h7Zm-14,0h-7v-1h7Zm-14,0h-7v-1h7Zm-14,0h-7v-1h7Zm-14,0h-7v-1h7Zm-14,0h-7v-1h7Zm-14,0h-7v-1h7Zm-14,0h-7v-1h7Zm-14,0h-7v-1h7Zm-14,0h-7v-1h7Zm-14,0h-7v-1h7Zm-14,0h-7v-1h7Zm-14,0h-7v-1h7Zm-14,0h-7v-1h7Zm-14,0h-7v-1h7Zm-14,0h-7v-1h7Zm-14,0h-7v-1h7Zm-14,0h-7v-1h7Zm-14,0h-7v-1h7Zm-14,0h-7v-1h7Zm-14,0h-7v-1h7Zm-14,0h-7v-1h7Zm-14,0h-7v-1h7Zm-14,0h-7v-1h7Zm-14,0h-7v-1h7Zm-14,0h-7v-1h7Zm-14,0h-7v-1h7Zm-14,0h-7v-1h7Zm-14,0h-7v-1h7Zm-14,0h-7v-1h7Zm-14,0h-7v-1h7Zm-14,0h-7v-1h7Zm-14,0h-7v-1h7Zm-14,0h-7v-1h7Zm-14,0h-7v-1h7Zm-14,0h-7v-1h7Zm-14,0h-7v-1h7Zm-14,0h-7v-1h7Zm-14,0h-7v-1h7Zm-14,0h-7v-1h7Zm-14,0h-7v-1h7Zm-14,0h-7v-1h7Zm-14,0h-7v-1h7Zm-14,0h-7v-1h7Zm-14,0h-7v-1h7Zm-14,0h-7v-1h7Zm-14,0h-7v-1h7Zm-14,0h-7v-1h7Zm-14,0h-7v-1h7Zm-14,0h-7v-1h7Zm-14,0h-7v-1h7Zm-14,0h-7v-1h7Zm-14,0h-7v-1h7Zm-14,0h-7v-1h7Zm-14,0h-7v-1h7Zm-14,0h-7v-1h7Zm-14,0h-7v-1h7Zm-14,0h-7v-1h7Zm-14,0h-7v-1h7Zm-14,0h-7v-1h7Zm-14,0h-7v-1h7Zm-14,0h-7v-1h7Zm-14,0h-7v-1h7Zm-14,0h-7v-1h7Zm-14,0h-7v-1h7Zm-14,0h-7v-1h7Zm-14,0h-7v-1h7Zm-14,0h-7v-1h7Zm-14,0h-7v-1h7Zm-14,0h-7v-1h7Zm-14,0h-7v-1h7Zm-14,0h-7v-1h7Zm-14,0h-7v-1h7Zm-14,0h-7v-1h7Zm-14,0h-7v-1h7Zm-14,0h-7v-1h7Zm-14,0h-7v-1h7Zm-14,0h-7v-1h7Zm-14,0h-7v-1h7Zm-14,0h-7v-1h7Zm-14,0h-7v-1h7Zm-14,0h-7v-1h7Zm-14,0h-7v-1h7Zm-14,0h-7v-1h7Zm-14,0h-7v-1h7Zm-14,0h-7v-1h7Zm-14,0h-7v-1h7Zm-14,0h-7v-1h7Zm-14,0h-7v-1h7Zm-14,0h-7v-1h7Zm-14,0h-7v-1h7Zm-14,0h-7v-1h7Zm-14,0h-7v-1h7Zm-14,0h-7v-1h7Zm-14,0h-7v-1h7Zm-14,0h-7v-1h7Zm-14,0h-7v-1h7Zm-14,0h-7v-1h7Z"/><rect class="cls-3" x="1916.5" y="719.5" width="3.5" height="1"/><rect class="cls-3" y="359.5" width="3.5" height="1"/><path class="cls-3" d="M1909.5,360.5h-7v-1h7Zm-14,0h-7v-1h7Zm-14,0h-7v-1h7Zm-14,0h-7v-1h7Zm-14,0h-7v-1h7Zm-14,0h-7v-1h7Zm-14,0h-7v-1h7Zm-14,0h-7v-1h7Zm-14,0h-7v-1h7Zm-14,0h-7v-1h7Zm-14,0h-7v-1h7Zm-14,0h-7v-1h7Zm-14,0h-7v-1h7Zm-14,0h-7v-1h7Zm-14,0h-7v-1h7Zm-14,0h-7v-1h7Zm-14,0h-7v-1h7Zm-14,0h-7v-1h7Zm-14,0h-7v-1h7Zm-14,0h-7v-1h7Zm-14,0h-7v-1h7Zm-14,0h-7v-1h7Zm-14,0h-7v-1h7Zm-14,0h-7v-1h7Zm-14,0h-7v-1h7Zm-14,0h-7v-1h7Zm-14,0h-7v-1h7Zm-14,0h-7v-1h7Zm-14,0h-7v-1h7Zm-14,0h-7v-1h7Zm-14,0h-7v-1h7Zm-14,0h-7v-1h7Zm-14,0h-7v-1h7Zm-14,0h-7v-1h7Zm-14,0h-7v-1h7Zm-14,0h-7v-1h7Zm-14,0h-7v-1h7Zm-14,0h-7v-1h7Zm-14,0h-7v-1h7Zm-14,0h-7v-1h7Zm-14,0h-7v-1h7Zm-14,0h-7v-1h7Zm-14,0h-7v-1h7Zm-14,0h-7v-1h7Zm-14,0h-7v-1h7Zm-14,0h-7v-1h7Zm-14,0h-7v-1h7Zm-14,0h-7v-1h7Zm-14,0h-7v-1h7Zm-14,0h-7v-1h7Zm-14,0h-7v-1h7Zm-14,0h-7v-1h7Zm-14,0h-7v-1h7Zm-14,0h-7v-1h7Zm-14,0h-7v-1h7Zm-14,0h-7v-1h7Zm-14,0h-7v-1h7Zm-14,0h-7v-1h7Zm-14,0h-7v-1h7Zm-14,0h-7v-1h7Zm-14,0h-7v-1h7Zm-14,0h-7v-1h7Zm-14,0h-7v-1h7Zm-14,0h-7v-1h7Zm-14,0h-7v-1h7Zm-14,0h-7v-1h7Zm-14,0h-7v-1h7Zm-14,0h-7v-1h7Zm-14,0h-7v-1h7Zm-14,0h-7v-1h7Zm-14,0h-7v-1h7Zm-14,0h-7v-1h7Zm-14,0h-7v-1h7Zm-14,0h-7v-1h7Zm-14,0h-7v-1h7Zm-14,0h-7v-1h7Zm-14,0h-7v-1h7Zm-14,0h-7v-1h7Zm-14,0h-7v-1h7Zm-14,0h-7v-1h7Zm-14,0h-7v-1h7Zm-14,0h-7v-1h7Zm-14,0h-7v-1h7Zm-14,0h-7v-1h7Zm-14,0h-7v-1h7Zm-14,0h-7v-1h7Zm-14,0h-7v-1h7Zm-14,0h-7v-1h7Zm-14,0h-7v-1h7Zm-14,0h-7v-1h7Zm-14,0h-7v-1h7Zm-14,0h-7v-1h7Zm-14,0h-7v-1h7Zm-14,0h-7v-1h7Zm-14,0h-7v-1h7Zm-14,0h-7v-1h7Zm-14,0h-7v-1h7Zm-14,0h-7v-1h7Zm-14,0h-7v-1h7Zm-14,0h-7v-1h7Zm-14,0h-7v-1h7Zm-14,0h-7v-1h7Zm-14,0h-7v-1h7Zm-14,0h-7v-1h7Zm-14,0h-7v-1h7Zm-14,0h-7v-1h7Zm-14,0h-7v-1h7Zm-14,0h-7v-1h7Zm-14,0h-7v-1h7Zm-14,0h-7v-1h7Zm-14,0h-7v-1h7Zm-14,0h-7v-1h7Zm-14,0h-7v-1h7Zm-14,0h-7v-1h7Zm-14,0h-7v-1h7Zm-14,0h-7v-1h7Zm-14,0h-7v-1h7Zm-14,0h-7v-1h7Zm-14,0h-7v-1h7Zm-14,0h-7v-1h7Zm-14,0h-7v-1h7Zm-14,0h-7v-1h7Zm-14,0h-7v-1h7Zm-14,0h-7v-1h7Zm-14,0h-7v-1h7Zm-14,0h-7v-1h7Zm-14,0h-7v-1h7Zm-14,0h-7v-1h7Zm-14,0h-7v-1h7Zm-14,0h-7v-1h7Zm-14,0h-7v-1h7Zm-14,0h-7v-1h7Zm-14,0h-7v-1h7Zm-14,0h-7v-1h7Zm-14,0h-7v-1h7Zm-14,0h-7v-1h7Z"/><rect class="cls-3" x="1916.5" y="359.5" width="3.5" height="1"/><rect class="cls-3" y="455.5" width="3.5" height="1"/><path class="cls-3" d="M1909.5,456.5h-7v-1h7Zm-14,0h-7v-1h7Zm-14,0h-7v-1h7Zm-14,0h-7v-1h7Zm-14,0h-7v-1h7Zm-14,0h-7v-1h7Zm-14,0h-7v-1h7Zm-14,0h-7v-1h7Zm-14,0h-7v-1h7Zm-14,0h-7v-1h7Zm-14,0h-7v-1h7Zm-14,0h-7v-1h7Zm-14,0h-7v-1h7Zm-14,0h-7v-1h7Zm-14,0h-7v-1h7Zm-14,0h-7v-1h7Zm-14,0h-7v-1h7Zm-14,0h-7v-1h7Zm-14,0h-7v-1h7Zm-14,0h-7v-1h7Zm-14,0h-7v-1h7Zm-14,0h-7v-1h7Zm-14,0h-7v-1h7Zm-14,0h-7v-1h7Zm-14,0h-7v-1h7Zm-14,0h-7v-1h7Zm-14,0h-7v-1h7Zm-14,0h-7v-1h7Zm-14,0h-7v-1h7Zm-14,0h-7v-1h7Zm-14,0h-7v-1h7Zm-14,0h-7v-1h7Zm-14,0h-7v-1h7Zm-14,0h-7v-1h7Zm-14,0h-7v-1h7Zm-14,0h-7v-1h7Zm-14,0h-7v-1h7Zm-14,0h-7v-1h7Zm-14,0h-7v-1h7Zm-14,0h-7v-1h7Zm-14,0h-7v-1h7Zm-14,0h-7v-1h7Zm-14,0h-7v-1h7Zm-14,0h-7v-1h7Zm-14,0h-7v-1h7Zm-14,0h-7v-1h7Zm-14,0h-7v-1h7Zm-14,0h-7v-1h7Zm-14,0h-7v-1h7Zm-14,0h-7v-1h7Zm-14,0h-7v-1h7Zm-14,0h-7v-1h7Zm-14,0h-7v-1h7Zm-14,0h-7v-1h7Zm-14,0h-7v-1h7Zm-14,0h-7v-1h7Zm-14,0h-7v-1h7Zm-14,0h-7v-1h7Zm-14,0h-7v-1h7Zm-14,0h-7v-1h7Zm-14,0h-7v-1h7Zm-14,0h-7v-1h7Zm-14,0h-7v-1h7Zm-14,0h-7v-1h7Zm-14,0h-7v-1h7Zm-14,0h-7v-1h7Zm-14,0h-7v-1h7Zm-14,0h-7v-1h7Zm-14,0h-7v-1h7Zm-14,0h-7v-1h7Zm-14,0h-7v-1h7Zm-14,0h-7v-1h7Zm-14,0h-7v-1h7Zm-14,0h-7v-1h7Zm-14,0h-7v-1h7Zm-14,0h-7v-1h7Zm-14,0h-7v-1h7Zm-14,0h-7v-1h7Zm-14,0h-7v-1h7Zm-14,0h-7v-1h7Zm-14,0h-7v-1h7Zm-14,0h-7v-1h7Zm-14,0h-7v-1h7Zm-14,0h-7v-1h7Zm-14,0h-7v-1h7Zm-14,0h-7v-1h7Zm-14,0h-7v-1h7Zm-14,0h-7v-1h7Zm-14,0h-7v-1h7Zm-14,0h-7v-1h7Zm-14,0h-7v-1h7Zm-14,0h-7v-1h7Zm-14,0h-7v-1h7Zm-14,0h-7v-1h7Zm-14,0h-7v-1h7Zm-14,0h-7v-1h7Zm-14,0h-7v-1h7Zm-14,0h-7v-1h7Zm-14,0h-7v-1h7Zm-14,0h-7v-1h7Zm-14,0h-7v-1h7Zm-14,0h-7v-1h7Zm-14,0h-7v-1h7Zm-14,0h-7v-1h7Zm-14,0h-7v-1h7Zm-14,0h-7v-1h7Zm-14,0h-7v-1h7Zm-14,0h-7v-1h7Zm-14,0h-7v-1h7Zm-14,0h-7v-1h7Zm-14,0h-7v-1h7Zm-14,0h-7v-1h7Zm-14,0h-7v-1h7Zm-14,0h-7v-1h7Zm-14,0h-7v-1h7Zm-14,0h-7v-1h7Zm-14,0h-7v-1h7Zm-14,0h-7v-1h7Zm-14,0h-7v-1h7Zm-14,0h-7v-1h7Zm-14,0h-7v-1h7Zm-14,0h-7v-1h7Zm-14,0h-7v-1h7Zm-14,0h-7v-1h7Zm-14,0h-7v-1h7Zm-14,0h-7v-1h7Zm-14,0h-7v-1h7Zm-14,0h-7v-1h7Zm-14,0h-7v-1h7Zm-14,0h-7v-1h7Zm-14,0h-7v-1h7Zm-14,0h-7v-1h7Zm-14,0h-7v-1h7Zm-14,0h-7v-1h7Zm-14,0h-7v-1h7Zm-14,0h-7v-1h7Z"/><rect class="cls-3" x="1916.5" y="455.5" width="3.5" height="1"/><path class="cls-3" d="M119.68,1079.82l-.71-.71,5-4.95.71.71Zm9.9-9.9-.71-.71,4.95-5,.71.71Zm9.9-9.9-.71-.71,4.95-5,.71.71Zm9.9-9.9-.71-.71,5-5,.71.71Zm9.9-9.9-.71-.71,5-5,.71.71Zm9.9-9.9-.71-.71,4.95-4.95.71.71Zm9.9-9.9-.71-.71,4.95-5,.7.71Zm9.89-9.9-.7-.71,4.95-4.95.7.71Zm9.9-9.9-.7-.71,5-4.95.7.71Zm9.9-9.9-.7-.71,5-5,.7.71Zm9.9-9.9-.7-.71,4.95-5,.7.71Zm9.9-9.9-.7-.71,4.95-5,.7.71Zm9.9-9.9-.7-.71,4.94-4.94.71.7Zm9.9-9.9-.71-.7,5-4.95.71.7Zm9.9-9.9-.71-.7,4.95-4.95.71.7Zm9.9-9.9-.71-.7,5-5,.71.7Zm9.9-9.9-.71-.7,4.95-5,.71.7Zm9.9-9.9-.71-.7,4.95-5,.71.7Zm9.9-9.9-.71-.7,4.95-4.95.71.71Zm9.9-9.89-.71-.71,4.95-4.95.71.71Zm9.9-9.9-.71-.71,5-5,.71.71Zm9.9-9.9-.71-.71,4.95-5,.71.71Zm9.9-9.9-.71-.71,4.95-5,.71.71Zm9.9-9.9-.71-.71,4.95-4.95.71.71Zm9.9-9.9-.71-.71,4.95-4.95.71.71Zm9.9-9.9-.71-.71,5-5,.71.71Zm9.89-9.9-.7-.71,4.95-5,.7.71Zm9.9-9.9-.7-.71,4.95-5,.7.71Zm9.9-9.9-.7-.71,4.95-4.95.7.71Zm9.9-9.9-.7-.71,4.95-4.95.7.71Zm9.9-9.9-.7-.71,5-5,.7.71Zm9.9-9.9-.7-.71,4.95-4.94.7.7Zm9.9-9.9-.71-.7,4.95-5,.71.7Zm9.9-9.9-.71-.7,5-4.95.71.7Zm9.9-9.9-.71-.7,4.95-4.95.71.7Zm9.9-9.9-.71-.7,4.95-5,.71.7Zm9.9-9.9-.71-.7,4.95-5,.71.7Zm9.9-9.89-.71-.71,4.95-5,.71.71Zm9.9-9.9-.71-.71,5-4.95.71.71Zm9.9-9.9-.71-.71,4.95-4.95.71.71Zm9.9-9.9-.71-.71,4.95-5,.71.71Zm9.9-9.9-.71-.71,4.95-5,.71.71Zm9.9-9.9-.71-.71,5-5,.71.71Zm9.9-9.9-.71-.71,5-4.95.71.71Zm9.9-9.9-.71-.71,5-4.95.71.71Zm9.9-9.9-.71-.71,4.95-5,.7.71Zm9.89-9.9-.7-.71,4.95-5,.7.71Zm9.9-9.9-.7-.71,5-5,.7.71Zm9.9-9.9-.7-.71,5-4.95.7.71Zm9.9-9.9-.7-.71,5-4.95.7.71Zm9.9-9.9-.7-.71,4.95-4.94.7.7Zm9.9-9.9-.71-.7,4.95-5,.71.7Zm9.9-9.9-.71-.7,5-5,.71.7Zm9.9-9.9-.71-.7,5-5,.71.7Zm9.9-9.9-.71-.7,5-4.95.71.7Zm9.9-9.9-.71-.7,4.95-4.95.71.7Zm9.9-9.89-.71-.71,4.95-5,.71.71Zm9.9-9.9-.71-.71,5-5,.71.71Zm9.9-9.9-.71-.71,5-4.95.71.71Zm9.9-9.9L703,495l5-5,.71.71Zm9.9-9.9-.71-.71,4.95-4.95.71.71Zm9.9-9.9-.71-.71,4.95-4.95.71.71Zm9.9-9.9-.71-.71,5-4.95.71.71Zm9.9-9.9-.71-.71,5-4.95.71.71Zm9.9-9.9-.71-.71,5-5,.7.71Zm9.89-9.9-.7-.71,4.95-4.95.7.71Zm9.9-9.9-.7-.71,4.95-4.95.7.71Zm9.9-9.9-.7-.71,5-4.95.7.71Zm9.9-9.9-.7-.71,5-4.95.7.71Zm9.9-9.9L802,396l5-5,.7.71Zm9.9-9.9-.7-.7,4.94-4.95.71.7Zm9.9-9.9-.71-.7,4.95-4.95.71.7Zm9.9-9.9-.71-.7,4.95-5,.71.7Zm9.9-9.9-.71-.7,5-4.95.71.7Zm9.9-9.9-.71-.7,5-4.95.71.7Zm9.9-9.9-.71-.7,5-4.95.71.71Zm9.9-9.89-.71-.71,4.95-4.95.71.71Zm9.9-9.9-.71-.71,4.95-5,.71.71Zm9.9-9.9-.71-.71,5-4.95.71.71Zm9.9-9.9-.71-.71,5-4.95.71.71Zm9.9-9.9-.71-.71,5-4.95.71.71Zm9.9-9.9-.71-.71,4.95-4.95.71.71Zm9.9-9.9-.71-.71,4.95-5,.71.71Zm9.9-9.9-.71-.71,5-4.95.71.71Zm9.89-9.9-.7-.71,5-5,.7.71Zm9.9-9.9-.7-.71,5-5,.7.71Zm9.9-9.9-.7-.71,4.95-4.95.7.71Zm9.9-9.9-.7-.71,4.95-4.95.7.71Zm9.9-9.9-.7-.71,5-4.95.7.71Zm9.9-9.9-.7-.71,5-4.94.7.7Zm9.9-9.9-.71-.7,5-4.95.7.7Zm9.9-9.9-.71-.7,4.95-4.95.71.7Zm9.9-9.9-.71-.7,5-5,.71.7Zm9.9-9.9-.71-.7,5-5,.71.7Zm9.9-9.9-.71-.7,5-4.95.71.7Zm9.9-9.9-.71-.7,4.95-4.95.71.71Zm9.9-9.89-.71-.71,5-4.95.71.71Zm9.9-9.9-.71-.71,5-5,.71.71Zm9.9-9.9-.71-.71,5-4.95.71.71Zm9.9-9.9-.71-.71,5-5,.71.71Zm9.9-9.9-.71-.71,4.95-5,.71.71Zm9.9-9.9-.71-.71,5-5,.71.71Zm9.9-9.9-.71-.71,5-5,.71.71Zm9.9-9.9-.71-.71,5-5,.71.71Zm9.89-9.9-.7-.71,5-5,.7.71Z"/><path class="cls-3" d="M506.12,1080h-1v-2h1Zm0-9h-1v-7h1Zm0-14h-1v-7h1Zm0-14h-1v-7h1Zm0-14h-1v-7h1Zm0-14h-1v-7h1Zm0-14h-1v-7h1Zm0-14h-1v-7h1Zm0-14h-1v-7h1Zm0-14h-1v-7h1Zm0-14h-1v-7h1Zm0-14h-1v-7h1Zm0-14h-1v-7h1Zm0-14h-1v-7h1Zm0-14h-1v-7h1Zm0-14h-1v-7h1Zm0-14h-1v-7h1Zm0-14h-1v-7h1Zm0-14h-1v-7h1Zm0-14h-1v-7h1Zm0-14h-1v-7h1Zm0-14h-1v-7h1Zm0-14h-1v-7h1Zm0-14h-1v-7h1Zm0-14h-1v-7h1Zm0-14h-1v-7h1Zm0-14h-1v-7h1Zm0-14h-1v-7h1Zm0-14h-1v-7h1Zm0-14h-1v-7h1Zm0-14h-1v-7h1Zm0-14h-1v-7h1Zm0-14h-1v-7h1Zm0-14h-1v-7h1Zm0-14h-1v-7h1Zm0-14h-1v-7h1Zm0-14h-1v-7h1Zm0-14h-1v-7h1Zm0-14h-1v-7h1Zm0-14h-1v-7h1Zm0-14h-1v-7h1Zm0-14h-1v-7h1Zm0-14h-1v-7h1Zm0-14h-1v-7h1Zm0-14h-1v-7h1Zm0-14h-1v-7h1Zm0-14h-1v-7h1Zm0-14h-1v-7h1Zm0-14h-1v-7h1Zm0-14h-1v-7h1Zm0-14h-1v-7h1Zm0-14h-1v-7h1Zm0-14h-1v-7h1Zm0-14h-1v-7h1Zm0-14h-1v-7h1Zm0-14h-1v-7h1Zm0-14h-1v-7h1Zm0-14h-1v-7h1Zm0-14h-1v-7h1Zm0-14h-1v-7h1Zm0-14h-1v-7h1Zm0-14h-1v-7h1Zm0-14h-1v-7h1Zm0-14h-1v-7h1Zm0-14h-1v-7h1Zm0-14h-1v-7h1Zm0-14h-1v-7h1Zm0-14h-1v-7h1Zm0-14h-1v-7h1Zm0-14h-1v-7h1Zm0-14h-1V98h1Zm0-14h-1V84h1Zm0-14h-1V70h1Zm0-14h-1V56h1Zm0-14h-1V42h1Zm0-14h-1V28h1Zm0-14h-1V14h1Zm0-14h-1V0h1Z"/><path class="cls-3" d="M1316.12,1080h-1v-2h1Zm0-9h-1v-7h1Zm0-14h-1v-7h1Zm0-14h-1v-7h1Zm0-14h-1v-7h1Zm0-14h-1v-7h1Zm0-14h-1v-7h1Zm0-14h-1v-7h1Zm0-14h-1v-7h1Zm0-14h-1v-7h1Zm0-14h-1v-7h1Zm0-14h-1v-7h1Zm0-14h-1v-7h1Zm0-14h-1v-7h1Zm0-14h-1v-7h1Zm0-14h-1v-7h1Zm0-14h-1v-7h1Zm0-14h-1v-7h1Zm0-14h-1v-7h1Zm0-14h-1v-7h1Zm0-14h-1v-7h1Zm0-14h-1v-7h1Zm0-14h-1v-7h1Zm0-14h-1v-7h1Zm0-14h-1v-7h1Zm0-14h-1v-7h1Zm0-14h-1v-7h1Zm0-14h-1v-7h1Zm0-14h-1v-7h1Zm0-14h-1v-7h1Zm0-14h-1v-7h1Zm0-14h-1v-7h1Zm0-14h-1v-7h1Zm0-14h-1v-7h1Zm0-14h-1v-7h1Zm0-14h-1v-7h1Zm0-14h-1v-7h1Zm0-14h-1v-7h1Zm0-14h-1v-7h1Zm0-14h-1v-7h1Zm0-14h-1v-7h1Zm0-14h-1v-7h1Zm0-14h-1v-7h1Zm0-14h-1v-7h1Zm0-14h-1v-7h1Zm0-14h-1v-7h1Zm0-14h-1v-7h1Zm0-14h-1v-7h1Zm0-14h-1v-7h1Zm0-14h-1v-7h1Zm0-14h-1v-7h1Zm0-14h-1v-7h1Zm0-14h-1v-7h1Zm0-14h-1v-7h1Zm0-14h-1v-7h1Zm0-14h-1v-7h1Zm0-14h-1v-7h1Zm0-14h-1v-7h1Zm0-14h-1v-7h1Zm0-14h-1v-7h1Zm0-14h-1v-7h1Zm0-14h-1v-7h1Zm0-14h-1v-7h1Zm0-14h-1v-7h1Zm0-14h-1v-7h1Zm0-14h-1v-7h1Zm0-14h-1v-7h1Zm0-14h-1v-7h1Zm0-14h-1v-7h1Zm0-14h-1v-7h1Zm0-14h-1V98h1Zm0-14h-1V84h1Zm0-14h-1V70h1Zm0-14h-1V56h1Zm0-14h-1V42h1Zm0-14h-1V28h1Zm0-14h-1V14h1Zm0-14h-1V0h1Z"/></g></svg>