<svg xmlns="http://www.w3.org/2000/svg" viewBox="0 0 1920 1080"><defs><style>.cls-1{fill:#fff;}</style></defs><g id="Layer_2" data-name="Layer 2"><rect width="1920" height="1080"/></g><g id="Layer_1" data-name="Layer 1"><path class="cls-1" d="M236.69,258.46l-8.45-23.53H186.9l-8.45,23.53H166.36l33.41-92.3H215.5L249,258.46Zm-46.28-33.67h34.32l-4.29-12.09q-8.72-24-13-37.57-3,9.63-5.33,16.51c-.7,2-1.56,4.53-2.6,7.61s-1.74,5.05-2.08,5.91l-2.73,7.67Z"/><path class="cls-1" d="M315.07,209.71A25,25,0,0,1,328,218q4.61,5.85,4.61,14.56,0,12-7.73,18.92t-20.61,6.95H261.64v-92.3h40.82q12.36,0,19.63,6.11t7.28,17.29a21.17,21.17,0,0,1-3.77,12.68A20.21,20.21,0,0,1,315.07,209.71Zm-41.34-33.93v29.51H300q8.33,0,13-4t4.68-11.12q0-7-4.61-10.72T300,175.78Zm0,73.06h26.78q9.75,0,14.95-4.48t5.2-12.42q0-7.8-5.33-12.41t-14.69-4.62H273.73Z"/><path class="cls-1" d="M387.61,164.08a43.48,43.48,0,0,1,16.51,3.06A59,59,0,0,1,420,177.34l-6.89,8.19A49.77,49.77,0,0,0,400,177a33.1,33.1,0,0,0-12.55-2.41q-14.69,0-23.4,10.47t-8.71,27.23q0,16.65,8.71,27.17A28,28,0,0,0,386.7,250a29.22,29.22,0,0,0,13.52-3q6-3.06,14.17-10.47l7.28,8.06q-8.84,8.72-16.77,12.35A42.44,42.44,0,0,1,387,260.54q-20.15,0-32-13.45t-11.83-34.91q0-21.45,11.83-34.77T387.61,164.08Z"/><path class="cls-1" d="M434.93,166.16h34.58q19.11,0,30,12.68t10.85,33.47q0,20.81-10.85,33.48t-30,12.67H434.93Zm32.63,10H447v72.28h20.54q14.56,0,22.56-9.55t8-26.59q0-16.89-8.06-26.52T467.56,176.17Z"/><path class="cls-1" d="M587.68,166.16v10h-49.4v29.77h46v10h-46v32.5h50.57v10H526.19v-92.3Z"/><path class="cls-1" d="M666.85,166.16v10h-49.4v31.72h45.63v10H617.45v40.56H605.36v-92.3Z"/><path class="cls-1" d="M717.29,220.24V210.1H758v48.36h-9.36l-.91-11.83q-8.44,13.78-28.86,13.78-20,0-31.65-13.26t-11.64-34.84q0-21.06,12.16-34.58t32.56-13.52a46.68,46.68,0,0,1,20.15,4.23q9,4.23,17.68,13.32l-7.67,7.8q-8.33-8.06-15-11.44a33.51,33.51,0,0,0-15.28-3.38q-14.56,0-23.46,10.34t-8.91,27.23q0,17.3,8.52,27.5T719.5,250q12.35,0,19.83-7.08t7.47-19.05v-3.64Z"/><path class="cls-1" d="M850.8,166.16v92.3H838.71v-42.9H789.18v42.9H777.09v-92.3h12.09v39.39h49.53V166.16Z"/><path class="cls-1" d="M884.86,166.16v92.3H872.77v-92.3Z"/><path class="cls-1" d="M946.48,166.16v68.51q0,25.35-25,25.35A49.77,49.77,0,0,1,898,253.91l4.16-9.36q11.7,4.95,19,4.94,13.38,0,13.39-15.86V166.16Z"/><path class="cls-1" d="M1027.21,258.46l-31.59-47.58-16.51,16.9v30.68H967v-92.3h12.09v47.19l45-47.19h14.82l-35.23,36.27,37.18,56Z"/><path class="cls-1" d="M1064.38,166.16v82.16h43.16v10.14h-55.25v-92.3Z"/><path class="cls-1" d="M1194.25,166.16h19.24v92.3h-11.7V212.31q0-4.94.26-37.44-3.9,11.58-8.19,23.53l-4.81,13.91-16.12,46.15h-10.66l-16.51-46.15a10.81,10.81,0,0,0-.45-1.36q-.46-1.23-1.63-4.55t-2.34-6.57q-.51-1.43-4-11.44-2.85-8.05-4.55-13.39.27,16.38.26,37.44v46h-11.44v-92.3h19.24l14.43,40.69q8.19,22.62,12.48,37.18,3.39-11.82,12.22-37.18Z"/><path class="cls-1" d="M1296.82,166.16h11.7v92.3h-13.26l-27.43-42q-3-4.93-5.59-8.71-12.35-19-16.64-26.65.64,15.87.65,35.88v41.47h-11.7v-92.3h13.52l27.69,42.64c.43.78,1,1.67,1.69,2.67s1.08,1.58,1.17,1.75q7.94,12.36,8.32,12.87,4.15,6.51,10.4,17.16-.52-13-.52-35Z"/><path class="cls-1" d="M1336.41,177.67q12-13.59,31.91-13.59t31.85,13.59q12,13.59,12,34.64t-12,34.65q-12,13.59-31.85,13.58T1336.41,247q-12-13.59-12-34.65T1336.41,177.67Zm31.91-3.06a28.42,28.42,0,0,0-22.88,10.6q-8.85,10.59-8.84,27.1t8.78,27.17q8.76,10.53,22.94,10.53t22.88-10.46q8.7-10.47,8.71-27.24t-8.71-27.17Q1382.49,174.61,1368.32,174.61Z"/><path class="cls-1" d="M1428,166.16h39.78q13.77,0,21.9,7.35t8.13,20.21q0,12.87-8.19,20.28t-21.84,7.41h-27.69v37H1428Zm38,10h-25.87V211.4H1466q9.36,0,14.62-4.61t5.27-13.07q0-8.44-5.27-13T1466,176.17Z"/><path class="cls-1" d="M1595.17,212.31q0,25-15.34,38.09l7.93,10.53-8.71,6.11L1571,256.25a44.92,44.92,0,0,1-19.63,4.29q-19.89,0-31.92-13.58t-12-34.65q0-21.06,12-34.64t31.92-13.59q19.89,0,31.85,13.59T1595.17,212.31ZM1551.36,250a30.06,30.06,0,0,0,12.87-2.73L1552,231.16l8.58-6.11,12.22,16.12Q1582.95,231,1583,212.31q0-16.63-8.71-27.17t-22.88-10.53a28.42,28.42,0,0,0-22.88,10.6q-8.85,10.59-8.84,27.1t8.77,27.17Q1537.19,250,1551.36,250Z"/><path class="cls-1" d="M1682.92,258.46H1669.4l-24.7-37h-21.58v37H1611v-92.3h38.87q13.13,0,21.51,7.48t8.38,20.08q0,10.67-6,17.81t-16.25,9.1Zm-59.8-82.29V211.4H1648q9.36,0,14.62-4.61t5.26-13.07q0-8.44-5.33-13t-14.68-4.55Z"/><path class="cls-1" d="M204.19,324.21a50.05,50.05,0,0,1,18.46,3.19A58.68,58.68,0,0,1,239,337.73l-7,8.32a51.22,51.22,0,0,0-13.59-9,37.09,37.09,0,0,0-14.23-2.6q-9.36,0-15.28,4.23T183,349.56q0,8.58,10.53,12a111.54,111.54,0,0,0,14.82,3.9q17.94,4.29,24.83,9.88t7.15,16.64a25.57,25.57,0,0,1-9.56,20.67q-9.56,7.93-24.5,7.93-11.58,0-20-3.77a72.09,72.09,0,0,1-18.85-12.22l7.15-8.45q9.62,8.07,16.9,11a38.23,38.23,0,0,0,15,3q9.75,0,15.86-4.74a15.37,15.37,0,0,0,6.11-12.81q0-9.36-10.92-13.26-4.95-1.68-14.82-3.9-17.94-4-24.64-9.42t-6.69-16.19q0-11.18,9.49-18.39T204.19,324.21Z"/><path class="cls-1" d="M318.72,326.16V336.3h-29v82.16h-12V336.3h-29V326.16Z"/><path class="cls-1" d="M402.17,326.16v62.92q0,15.35-8.84,23.34t-26,8q-17,0-25.87-8t-8.84-23.34V326.16h12v62.27q0,10.53,5.79,16t17,5.46q11.19,0,17-5.46t5.78-16V326.16Z"/><path class="cls-1" d="M479.78,326.16h12.35l-31.33,92.3H445.59l-31.33-92.3h12.48L442,371.92q7.16,20.94,11.44,36,4-14.3,11.18-35.88Z"/><path class="cls-1" d="M600.42,326.16h11.83L590,418.46H575.33L564,376.08q-5.71-21.57-8.58-34.45-4.55,19.89-8.45,34.58l-11.44,42.25H520.73l-22.36-92.3h12.22l10.53,44.46q3,12.75,7.54,35.62,4.56-20.67,9-35.62l12.09-44.46h12.09l11.83,44.46q3.12,11.31,8.71,35.49l1.3-6.37q3.9-18.33,6.37-29.12Z"/><path class="cls-1" d="M698.44,418.46H684.92l-26.78-39.91-26.78,39.91H617.84l33-48.62-29.77-43.68h13.39l23.79,35.36,23.79-35.36h13.39L665.55,370Z"/><path class="cls-1" d="M767.08,326.16h13l-32.76,52.91v39.39h-12V378.94l-32.5-52.78h13.26l25.48,42.25Z"/><path class="cls-1" d="M857.56,326.16v9.62l-55.9,72.67h55.77v10H787.36v-9.62l55.9-72.67H789.83v-10Z"/><path class="cls-1" d="M198.73,512.68q12.21,0,19.11,5.79T224.73,534v44.46H214.59v-7.8q-6.63,9.89-21.71,9.88-10.53,0-16.71-4.55T170,562.6q0-10.26,7.8-15t22-7.28l14.3-2.6v-3.25a11.34,11.34,0,0,0-4.1-9.23q-4.09-3.37-10.85-3.38a22.38,22.38,0,0,0-10.47,2.41,46.05,46.05,0,0,0-10.59,8.38l-7.15-6.37Q182.48,512.68,198.73,512.68Zm-4.68,58.63q8.7,0,14.36-4.61a14.93,14.93,0,0,0,5.66-12.16v-8.45l-11.7,2.34q-12,2.48-16.45,5.07t-5,8.71a7.66,7.66,0,0,0,3.44,6.76Q187.81,571.31,194.05,571.31Z"/><path class="cls-1" d="M274.39,512.81a25.33,25.33,0,0,1,20.34,9.36q7.86,9.36,7.87,24.31t-8,24.31a25.45,25.45,0,0,1-20.21,9.36q-15.09,0-21.84-11.44v9.75H242v-92.3H253.2v37.31Q260.34,512.82,274.39,512.81Zm-1.69,57.72a16,16,0,0,0,13.39-6.63q5.07-6.63,5.07-17.42t-5.07-17.55a16,16,0,0,0-13.39-6.63,17.83,17.83,0,0,0-14.43,6.57q-5.46,6.57-5.46,17.61T258.27,564A17.89,17.89,0,0,0,272.7,570.53Z"/><path class="cls-1" d="M369.93,524.9l-7.28,6.76a34,34,0,0,0-9.23-7.47,20.64,20.64,0,0,0-9.36-2.15q-9.48,0-14.3,7.15-5.07,7.15-5.07,17.29t5.07,17.16q5.07,7.15,14.56,7.15a19.54,19.54,0,0,0,9.43-2.27q4.22-2.28,9.68-8.39l7.28,6.24q-6.24,7.68-12.22,10.79a30.23,30.23,0,0,1-14.17,3.12q-14,0-22.55-9.23t-8.52-24.57q0-15.21,8.58-24.5t22.49-9.3a32.55,32.55,0,0,1,13.91,2.8A35.9,35.9,0,0,1,369.93,524.9Z"/><path class="cls-1" d="M426.49,486.16h11.18v92.3H427.14v-10q-7,11.7-21.84,11.7A25.37,25.37,0,0,1,385,570.79q-7.93-9.36-7.93-24.31t8.06-24.31a25.76,25.76,0,0,1,20.41-9.36q13.9,0,20.93,10.27ZM407,570.66a17.83,17.83,0,0,0,14.43-6.56q5.46-6.57,5.46-17.62t-5.46-17.55a17.92,17.92,0,0,0-14.43-6.5,16,16,0,0,0-13.39,6.63q-5.07,6.63-5.07,17.42t5,17.55A16,16,0,0,0,407,570.66Z"/><path class="cls-1" d="M504.09,560.26l6.63,6.76q-6.89,7.29-13.26,10.27a34.08,34.08,0,0,1-14.69,3q-14.43,0-23-9.16t-8.58-24.25q0-15.07,8.39-24.63t22.16-9.56q13.65,0,21.26,8.19t7.6,22.62c0,1.22-.08,2.86-.26,4.94h-48.1q.52,10.14,5.85,16.32t14.82,6.17a22.41,22.41,0,0,0,10.4-2.34Q497.59,566.38,504.09,560.26ZM481.6,521.65a17.53,17.53,0,0,0-12.74,4.81q-4.94,4.81-6.24,13.65h36.92q-.39-8.58-5.13-13.52C491.24,523.3,487,521.65,481.6,521.65Z"/><path class="cls-1" d="M550.5,493.44q-5.32,0-7.6,2.67t-2.28,9v9.36h16.12V523H540.62v55.51H529.44V523H517.61V514.5h11.83V503.84q0-9.48,4.94-14.62t14.3-5.14a42.35,42.35,0,0,1,12.87,2.21l-2.21,8.58A42.65,42.65,0,0,0,550.5,493.44Z"/><path class="cls-1" d="M610.43,514.5h10.4V577q0,12.36-7.8,19.44t-21.19,7.08a49.12,49.12,0,0,1-29-9.49l5.59-8.19a66.43,66.43,0,0,0,12.22,6.31,32.34,32.34,0,0,0,11.05,1.88q8.46,0,13.26-4.48t4.81-13.46v-8.84q-6.63,10.41-20.41,10.4a25.49,25.49,0,0,1-20.15-9.16q-7.92-9.16-7.93-23.34t7.93-23.33a25.5,25.5,0,0,1,20.15-9.17q14.43,0,21.06,11.18Zm-32.69,47.39a16.28,16.28,0,0,0,13.45,6.3,16.68,16.68,0,0,0,13.65-6.43q5.2-6.43,5.2-16.58t-5.2-16.57a16.69,16.69,0,0,0-13.65-6.44,16.29,16.29,0,0,0-13.45,6.31q-5,6.3-5,16.7T577.74,561.89Z"/><path class="cls-1" d="M668.93,512.68q10.79,0,16.84,6.11t6,15.86v43.81H680.63v-40.3q0-7.8-3.77-11.89t-10.92-4.1a16.23,16.23,0,0,0-16.51,16.64v39.65H638.25v-92.3h11.18v35.62Q655.67,512.69,668.93,512.68Z"/><path class="cls-1" d="M720.28,488.5v13.39H709.1V488.5Zm0,26v64H709.1v-64Z"/><path class="cls-1" d="M718.85,601.47l2.21-8.58a33,33,0,0,0,8.84,1.3q4.54,0,6.37-2.53t1.82-8.26V514.5h11.18v68.9q0,20-18.07,20A41.25,41.25,0,0,1,718.85,601.47Zm30.42-113v13.39H738.09V488.5Z"/><path class="cls-1" d="M811,578.46l-21.45-32.11L778,558.05v20.41H766.82v-92.3H778v59.28l29.64-30.94h13.13l-23.53,24.57,26.13,39.39Z"/><path class="cls-1" d="M844.43,486.16v92.3H833.25v-92.3Z"/><path class="cls-1" d="M929.19,512.68q10.26,0,15.79,5.79t5.53,15.4v44.59H939.33V537q0-14.82-12.74-14.82a13.63,13.63,0,0,0-10.66,4.49q-4,4.49-4,11.63v40.17H900.72V537q0-14.82-12.74-14.82a13.68,13.68,0,0,0-10.08,4,15.88,15.88,0,0,0-4.48,10.33v42H862.24v-64h10.53v7.67q5.85-9.48,18.33-9.49,13.26,0,18.46,10.27Q915.92,512.69,929.19,512.68Z"/><path class="cls-1" d="M998.48,512.68q10.92,0,16.9,6.11t6,15.86v43.81h-11.18v-40.3q0-7.8-3.77-11.89t-10.92-4.1A16.21,16.21,0,0,0,979,538.81v39.65H967.8v-64h10.53v8.32Q984.69,512.68,998.48,512.68Z"/><path class="cls-1" d="M1043.59,522.11q8.84-9.42,22.75-9.43t22.81,9.43q8.91,9.42,8.91,24.37t-8.91,24.38q-8.91,9.42-22.81,9.42t-22.75-9.42q-8.85-9.42-8.84-24.38T1043.59,522.11Zm37.5,6.69a18.1,18.1,0,0,0-14.75-6.76q-9.24,0-14.69,6.7t-5.46,17.74q0,11.06,5.46,17.75t14.69,6.69a18.07,18.07,0,0,0,14.75-6.76q5.54-6.75,5.53-17.68T1081.09,528.8Z"/><path class="cls-1" d="M1144,512.81a25.4,25.4,0,0,1,20.28,9.36q7.92,9.36,7.93,24.18,0,15.09-7.93,24.44a25.4,25.4,0,0,1-20.28,9.36q-14.43,0-21.19-10.14v31.85h-11.18V514.5h10.53v10Q1129.13,512.81,1144,512.81Zm-1.69,57.72a16,16,0,0,0,13.39-6.63q5.07-6.63,5.07-17.55t-5-17.48a16,16,0,0,0-13.45-6.57,17.92,17.92,0,0,0-14.43,6.5q-5.46,6.51-5.46,17.55t5.46,17.68A17.89,17.89,0,0,0,1142.26,570.53Z"/><path class="cls-1" d="M1233.12,514.5h10.54v87.36h-11.19V569.75q-6.88,10.41-21,10.4a25.58,25.58,0,0,1-20.35-9.36q-8-9.36-8-24.31t8-24.31a25.58,25.58,0,0,1,20.35-9.36q15.07,0,21.7,11.44ZM1213,570.66a17.85,17.85,0,0,0,14.44-6.56q5.44-6.57,5.46-17.62t-5.46-17.61a18,18,0,0,0-14.44-6.44,16,16,0,0,0-13.39,6.63q-5.05,6.63-5.07,17.42t5.07,17.55A16,16,0,0,0,1213,570.66Z"/><path class="cls-1" d="M1287.46,513.85a34,34,0,0,1,10.14,1.82l-2.08,9.36a29.75,29.75,0,0,0-8.32-1.3,12.87,12.87,0,0,0-10.85,5.53q-4.1,5.52-4.1,14.88v34.32h-11.18v-64h10.53v9.75Q1276.55,513.86,1287.46,513.85Z"/><path class="cls-1" d="M1327.63,512.68a41.1,41.1,0,0,1,13.91,2.15,43.88,43.88,0,0,1,12.35,7.21l-6.11,7.54a40.81,40.81,0,0,0-10.2-6.17,28.44,28.44,0,0,0-9.95-1.63c-4.24,0-7.65.89-10.2,2.67a8,8,0,0,0-3.84,6.82q.53,4,3.38,5.53t13.78,4q13.26,3.12,18.72,7.35t5.46,12.28a17.39,17.39,0,0,1-7,14.43q-7,5.46-18.59,5.46a41.55,41.55,0,0,1-15.4-2.66,49,49,0,0,1-14.11-9.3l6.63-7.28a48.15,48.15,0,0,0,11.9,7.87,28.53,28.53,0,0,0,11.11,2.14,18.51,18.51,0,0,0,10.47-2.73,8.48,8.48,0,0,0,4.09-7.41,7.28,7.28,0,0,0-3.9-6.76q-3.9-2.21-14-4.42-13.65-3.12-18.33-6.56t-4.94-11.51a16.48,16.48,0,0,1,6.89-13.71Q1316.59,512.69,1327.63,512.68Z"/><path class="cls-1" d="M1401.08,568.58l1.69,8.84a38.89,38.89,0,0,1-13.13,2.21q-8.72,0-12.61-4t-3.9-12V523h-12V514.5h12V493.05h11.18V514.5h17.29V523h-17.29v39.39q0,4.29,1.76,6t5.78,1.75A35.78,35.78,0,0,0,1401.08,568.58Z"/><path class="cls-1" d="M1454.51,514.5h11.18v64h-10.4v-7.93q-5.85,9.75-19.37,9.75-11.31,0-17-5.59t-5.72-15.34V514.5h11.18v42.12q0,14,13.39,14,7.54,0,12.16-4.55t4.61-12.61Z"/><path class="cls-1" d="M1523.41,514.5h11.44l-22.23,64h-14.17l-22.1-64h11.7L1496,538q6.75,20.81,9.75,31.72,4.15-14.82,9.75-31.72Z"/><path class="cls-1" d="M1618.18,514.37h11.44l-17.94,64.09h-13.52l-6-20.54q-4.68-16.38-7.8-29.9-3.64,15.21-7.8,30L1571,578.46h-13.52l-17.94-64.09h11.57l6.37,23.92q3.24,12.23,7.28,30.42,4-16.5,7.8-30.42l6.76-23.92h10.53l6.76,23.92q3.38,11.44,7.93,30.55,2.6-12.74,7.28-30.55Z"/><path class="cls-1" d="M1693.19,578.46h-12.35l-17.29-25.74-17.42,25.74h-12.22l23.27-33.41-21.32-30.55h12.35l15.47,22.75,15.21-22.75h12.22l-20.93,30.16Z"/><path class="cls-1" d="M213.42,674.5h11.31l-25.61,72.8q-3.26,9.11-7.28,12.68t-12,3.57a34,34,0,0,1-9.88-1.3l1.95-8.58a31.66,31.66,0,0,0,6.89.78,9.1,9.1,0,0,0,6.43-2.21q2.4-2.21,4.36-7.93l.78-2.34-24-67.47h11.83l7.15,21.19q7.28,21.59,8.71,25.87l1.82,5.46,2.86-8.58q3.24-10.4,7.54-23Z"/><path class="cls-1" d="M283.48,674.5v8.19l-37.7,46.54h37.7v9.23H232v-8.32l37.7-46.54H234.34v-9.1Z"/><path class="cls-1" d="M195.74,810.06h8.71v88.4H193V824.62l-18.72,13.26L168.57,830Z"/><path class="cls-1" d="M240.59,888.71h51.48v9.75H228.89v-4.29q0-16.24,12.09-26a146.3,146.3,0,0,1,14.43-9.88l6.5-3.77A95.93,95.93,0,0,0,272.37,848,23.88,23.88,0,0,0,277.9,842a16.15,16.15,0,0,0,2.34-8.71q0-7.27-4.81-11.37t-12.35-4.1a23.62,23.62,0,0,0-13,3.58q-5.6,3.57-12.61,12.28l-8.45-6Q242.67,808,262.82,808q13,0,21,7.09a22.85,22.85,0,0,1,8,17.87q0,13.26-10.79,21.58a123.27,123.27,0,0,1-12.74,8.19l-6.11,3.64-2.47,1.43a115.09,115.09,0,0,0-10.34,6.7,26.17,26.17,0,0,0-5.65,5.91A16.61,16.61,0,0,0,240.59,888.71Z"/><path class="cls-1" d="M334.84,845.68l1.69-.13q12.87,0,21.19,7T366,871.68a28.07,28.07,0,0,1-8.45,20.15q-8.46,8.71-22.75,8.71-16.51,0-32.76-10.92l5.85-8.45a79.64,79.64,0,0,0,14.17,7.35,35.56,35.56,0,0,0,12.35,2.14q9,0,14.49-5.26a18,18,0,0,0,5.53-13.59q0-8.19-5.59-12.8t-15.6-4.62a27.11,27.11,0,0,0-10.53,1.69l-5.33-7.28,31.85-29H306.5v-9.75h56.94v9.49Z"/><path class="cls-1" d="M434,868.3h13.26v9.49H434v20.67H422.85V877.79H378v-10.4l36.66-57.33H427.4L390.22,868.3h32.63V848.15H434Z"/><path class="cls-1" d="M489.41,841.39q13,0,21.12,7.93t8.13,20.28a30.31,30.31,0,0,1-8.84,21.78q-8.85,9.17-22.62,9.16a50.29,50.29,0,0,1-16.77-2.6q-6.51-2.34-16.64-9.1l5.72-8.45q9.23,6.12,14.3,8.06a34.48,34.48,0,0,0,12.35,2.21q9.22,0,15.08-5.91a20,20,0,0,0,5.85-14.63q0-8.7-5.27-13.91T487.33,851q-10.92,0-18.07,7l-10-1,3.9-46.93H514.5v9.75H473l-2.34,27.43Q478.09,841.39,489.41,841.39Z"/><path class="cls-1" d="M567.15,840.61q13.13,0,21.31,8.58a30.7,30.7,0,0,1-.58,42.38q-8.77,8.85-23.21,8.84-15.07,0-23.85-9.62T532,866a50.35,50.35,0,0,1,6.76-25.35q6.76-11.82,20.41-24.57l6.37-6h15.34v.13l-14,12.87q-14.82,13.26-20.54,25.61Q554,840.62,567.15,840.61Zm-17.49,44.33q5.79,5.73,15,5.72T579.5,885q5.58-5.65,5.58-14.63t-5.39-14.49q-5.4-5.65-14.49-5.66-9.63,0-15.47,5.66a19.27,19.27,0,0,0-5.85,14.49A19.57,19.57,0,0,0,549.66,884.94Z"/><path class="cls-1" d="M601.21,810.06h63.44v8.32a180.69,180.69,0,0,0-22.88,37.31,144.16,144.16,0,0,0-13.13,42.77H616.16q2.73-19.62,12.74-40.82a227.31,227.31,0,0,1,22.49-38H601.21Z"/><path class="cls-1" d="M722,850.49a26.68,26.68,0,0,1,12.61,9.3A24.08,24.08,0,0,1,739,874.15a23.52,23.52,0,0,1-9,18.92q-9,7.47-24.24,7.47t-24.12-7.47a23.52,23.52,0,0,1-9-18.92A24,24,0,0,1,677,859.79a26.63,26.63,0,0,1,12.61-9.3q-12.48-5.85-12.48-19.24a20.63,20.63,0,0,1,7.93-16.83Q693,808,705.73,808t20.8,6.44a20.66,20.66,0,0,1,7.93,16.83Q734.46,844.65,722,850.49Zm-16.25,40.43q9.87,0,15.73-4.87a15.59,15.59,0,0,0,5.85-12.55,16.41,16.41,0,0,0-5.79-13.13q-5.79-4.93-15.79-4.94-9.75,0-15.6,4.94a16.33,16.33,0,0,0-5.85,13.13,15.59,15.59,0,0,0,5.85,12.55Q696,890.93,705.73,890.92Zm0-73.71q-7.93,0-12.74,4a12.74,12.74,0,0,0-4.81,10.33,13.36,13.36,0,0,0,4.87,10.66q4.88,4.17,12.68,4.16t12.8-4.16a13.37,13.37,0,0,0,4.88-10.66,12.77,12.77,0,0,0-4.81-10.33Q713.79,817.22,705.73,817.21Z"/><path class="cls-1" d="M780.34,808.11q15.09,0,23.86,9.62T813,842.56a50.2,50.2,0,0,1-6.76,25.35q-6.75,11.83-20.41,24.57l-6.37,6H764.22v-.13l14-12.87q14.7-13.38,20.54-25.61-7.66,8.07-20.92,8.06-13,0-21.26-8.64a30.39,30.39,0,0,1,.59-42.25Q766,808.11,780.34,808.11ZM780,858.29q9.48,0,15.33-5.65a19.25,19.25,0,0,0,5.86-14.5,19.61,19.61,0,0,0-5.79-14.56q-5.79-5.72-15-5.72t-14.81,5.66q-5.6,5.65-5.6,14.62t5.47,14.5Q770.86,858.3,780,858.29Z"/><path class="cls-1" d="M858.61,808q18.45,0,26.91,16.38,6.24,12.09,6.24,29.9t-6.24,29.9q-8.46,16.38-26.91,16.38T831.7,884.16q-6.24-12.09-6.24-29.9t6.24-29.9Q840.15,808,858.61,808Zm0,9.88q-11.31,0-16.77,11.44-4.68,9.63-4.68,25t4.68,25q5.46,11.44,16.77,11.44t16.77-11.44q4.68-9.62,4.68-25t-4.68-25Q869.92,817.87,858.61,817.86Z"/><path class="cls-1" d="M930.62,804.08q11.83,0,19.83,6.31t8,17.09a23.55,23.55,0,0,1-6.63,16.25q-3.39,3.39-7.54,7l-3,2.73a49.59,49.59,0,0,0-7.8,7.93,15,15,0,0,0-2.61,7.8L930.5,873h-9.23V868.3q0-7.53,2.14-11.44t9.82-10.66l2.34-2q6.24-5.07,8.64-8.51a13.65,13.65,0,0,0,2.41-8,11.81,11.81,0,0,0-4.42-9.68q-4.43-3.57-11.83-3.58a25.61,25.61,0,0,0-11,2.41,62.4,62.4,0,0,0-12.29,8.25l-6.76-7.67Q915.28,804.09,930.62,804.08Zm2.09,80.34v14H919.45v-14Z"/><path class="cls-1" d="M1014.61,806.16l-40.3,92.3H963.39l40.3-92.3Z"/><path class="cls-1" d="M1025.14,829.69l62.4,23.4v10.14l-62.4,23.4v-10.4l49.92-18.07-49.92-18.07Z"/><path class="cls-1" d="M1133,799.79v8.32h-14.57V908.73H1133v8.19h-25.22V799.79Z"/><path class="cls-1" d="M1142.53,799.79h25.22V916.92h-25.22v-8.19H1157V808.11h-14.43Z"/><path class="cls-1" d="M1223,799.79v8.32h-4.42q-7.93,0-8.58,4.94c-.18,1.91-.26,4.81-.26,8.71v19.89q0,7.41-2.67,11.25t-9.55,5v.26q6.88,1.17,9.55,5t2.67,11.24v26.52q0,4.68,2.08,6.24t6.76,1.56H1223v8.19h-6.89q-9.75,0-13.46-4t-3.7-15.73V876.1q0-7.14-2.73-9.94t-9.49-2.8V852.7q6.75,0,9.49-2.79T1199,840V819.55q0-11.7,3.7-15.73t13.46-4Z"/><path class="cls-1" d="M1232.49,799.79h6.89q9.75,0,13.45,4t3.71,15.73V840q0,7.15,2.73,9.95t9.49,2.79v10.66q-6.77,0-9.49,2.8t-2.73,9.94v21.06q0,11.7-3.71,15.73t-13.45,4h-6.89v-8.19H1237q7.92,0,8.58-4.94c.17-1.9.26-4.81.26-8.71V874.41q0-7.41,2.66-11.24t9.56-5v-.26q-6.9-1.17-9.56-5t-2.66-11.25V815.91c0-3.12-.7-5.2-2.08-6.24s-3.64-1.56-6.76-1.56h-4.55Z"/><path class="cls-1" d="M1310.88,796.67l7.15,6q-11.31,13.92-16.78,26.91a74.37,74.37,0,0,0-5.46,29,72.17,72.17,0,0,0,5.59,29q5.34,12.87,16.65,26.91l-7.15,6q-13.14-14.43-19.63-29.12a85.81,85.81,0,0,1,0-65.52Q1297.74,811.11,1310.88,796.67Z"/><path class="cls-1" d="M1326.87,920.3l-7.15-6q11.31-14.16,16.77-27a73.22,73.22,0,0,0,5.46-28.86,74.56,74.56,0,0,0-5.46-29.12q-5.6-12.74-16.77-26.78l7.15-6Q1340,811,1346.56,825.66a84.81,84.81,0,0,1,0,65.46Q1340,905.87,1326.87,920.3Z"/><path class="cls-1" d="M1383.16,884.42v14H1369.9v-14Z"/><path class="cls-1" d="M1415.53,884.42v14h-13.39v-14Zm-.65-78.26v27.69l-2.6,38.48h-6.89l-2.6-38.48V806.16Z"/></g></svg>