<?xml version="1.0" encoding="utf-8"?>
<!-- Generator: Adobe Illustrator 25.0.0, SVG Export Plug-In . SVG Version: 6.00 Build 0)  -->
<svg version="1.1" id="Layer_1" xmlns="http://www.w3.org/2000/svg" xmlns:xlink="http://www.w3.org/1999/xlink" x="0px" y="0px"
	 viewBox="0 0 1920 1080" style="enable-background:new 0 0 1920 1080;" xml:space="preserve">
<style type="text/css">
	.st0{fill:#FFFFFF;}
	.st1{fill:#B8B8B8;}
</style>
<rect class="st0" width="1920" height="1080"/>
<g id="Isolation_Mode">
	<polygon class="st1" points="805,323.6 705.4,283.3 558.1,283.3 458.6,323.6 349.7,412.1 405.1,512.5 469.9,490.1 469.9,815 
		793.6,815 793.6,490.1 858.3,512.5 913.8,412.1 	"/>
	<path d="M794.1,815.5H469.4V490.8l-64.5,22.4l-0.2-0.4L349,412l0.3-0.3l109-88.6h0.1l99.6-40.4h147.7l99.6,40.3l0.1,0L914.5,412
		l-55.9,101.1l-64.5-22.4V815.5z M470.4,814.5h322.7V489.4l65,22.5l55.1-99.7L804.7,324l-99.4-40.2H558.2L458.8,324l-108.5,88.2
		l55.1,99.7l65-22.5L470.4,814.5z"/>
	<path d="M470.4,490.1h-1v-89.8c0-27.8-11.2-76-11.3-76.5l1-0.2c0.1,0.5,11.4,48.8,11.4,76.7L470.4,490.1z"/>
	<path d="M794.1,490.1h-1v-89.8c0-27.9,11.2-76.2,11.3-76.7l1,0.2c-0.1,0.5-11.3,48.7-11.3,76.5L794.1,490.1z"/>
	<polygon points="643.9,458 619.6,458 619.6,347 620.7,347 620.7,456.9 642.8,456.9 642.8,347 643.9,347 	"/>
	<polygon class="st1" points="631.8,339.5 584.3,265 558.1,283.3 581.8,371.8 	"/>
	<path d="M581.5,372.6l-0.2-0.7l-23.9-88.8l26.9-18.9l48,75.4L581.5,372.6z M558.6,283.5l23.5,87.5l48.9-31.7l-46.9-73.6
		L558.6,283.5z"/>
	<polygon class="st1" points="631.8,339.5 679.2,265 705.4,283.3 681.7,371.8 	"/>
	<path d="M682,372.6l-50.9-33l0.3-0.4l47.7-74.9l26.9,18.9l-0.1,0.3L682,372.6z M632.5,339.3l48.9,31.7l23.5-87.5l-25.5-17.9
		L632.5,339.3z"/>
	<path class="st1" d="M679.2,265L679.2,265c-30,14.3-64.9,14.3-94.9,0l0,0l47.5,74.5L679.2,265z"/>
	<path d="M631.8,340.4l-48.8-76.6l1.6,0.8c29.9,14.3,64.6,14.3,94.5,0l1.6-0.8L631.8,340.4z M585.6,266.1l46.1,72.4l46.1-72.4
		C648.6,279.5,614.9,279.5,585.6,266.1L585.6,266.1z"/>
	<circle cx="631.8" cy="442.7" r="5.8"/>
	<circle cx="631.8" cy="416" r="5.8"/>
	<circle cx="631.8" cy="388.2" r="5.8"/>
	<polygon class="st1" points="1461.4,323.6 1361.9,283.3 1214.6,283.3 1115.1,323.6 1006.2,412.1 1061.7,512.5 1126.4,490.1 
		1126.4,815 1450.1,815 1450.1,490.1 1514.8,512.5 1570.3,412.1 	"/>
	<path d="M1450.6,815.5h-324.7V490.8l-64.5,22.4l-0.2-0.4L1005.5,412l0.3-0.3l109-88.6h0.1l99.6-40.3h147.7l99.6,40.3l0.1,0
		L1571,412l-55.9,101.1l-64.5-22.4L1450.6,815.5z M1126.9,814.5h322.7V489.4l65,22.5l55.1-99.7L1461.2,324l-99.4-40.2h-147.2
		l-99.4,40.2l-108.5,88.2l55.1,99.7l65-22.5V814.5z"/>
	<path d="M1126.9,490.1h-1v-89.8c0-27.8-11.2-76-11.3-76.5l1-0.2c0.1,0.5,11.3,48.8,11.3,76.7L1126.9,490.1z"/>
	<path d="M1450.6,490.1h-1v-89.8c0-27.9,11.2-76.2,11.3-76.7l1,0.2c-0.1,0.5-11.3,48.7-11.3,76.5L1450.6,490.1z"/>
	<path class="st1" d="M1361.9,283.3l-26.2-18.3l0.3,0.2c-30,15.4-65.6,15.4-95.6,0l0.3-0.2l-26.2,18.4l-0.4-0.2
		C1258.8,313.2,1317.2,313.3,1361.9,283.3L1361.9,283.3z"/>
	<path d="M1288.2,306.2c-26.5,0-52.4-7.9-74.4-22.7l0.5-0.9l0.1,0.1l26-18.2l0.2,0.2l0,0c29.9,15.3,65.2,15.3,95.1,0l0,0l0.2-0.2
		l0,0l26.3,18.5l0.4,0.5l-0.4,0.3C1340.3,298.5,1314.6,306.3,1288.2,306.2z M1215.4,283.3c44.1,29.2,101.5,29.2,145.6,0l-25-17.6
		c-30,15.3-65.5,15.3-95.5,0L1215.4,283.3z"/>
	<path d="M1327.9,463.3l-9.6,26.4h4.9l1.8-5.1h12l1.8,5.1h4.9l-9.6-26.4H1327.9z M1326.7,480.1l4.3-11.9l4.3,11.9H1326.7z"/>
	<polygon points="1271,428.3 1271,423.7 1251.7,423.7 1251.7,450.1 1271,450.1 1271,445.5 1257.3,445.5 1257.3,438.4 1269,438.4 
		1269,433.9 1257.3,433.9 1257.3,428.3 	"/>
	<path d="M1275.6,397.8l-14.4-2.5l-0.8,4.5l7.2,1.3c-0.8,3.3-3.8,5.6-7.2,5.4c-5.1,0-7.6-3.6-7.6-9.2s2.6-9.1,7.6-9.1
		c3.2-0.2,6.1,1.8,7,4.9l5.1-1.9c-2-4.9-6.5-7.6-12.1-7.6c-7.6,0-13.2,5.1-13.2,13.7s5.6,13.8,13.2,13.8c3,0,5.8-1.3,7.8-3.5l0.4,3
		h3.5v-8.7l2.8,0.5L1275.6,397.8z"/>
	<path d="M1265.2,474.7l-4.5-0.8c-2.4-0.4-4-1.4-4-3.4s1.8-3,4.3-3c2.1,0,3.9,1.1,4.4,2.4l5-1.8c-1.2-2.9-4.7-5.2-9.4-5.2l0,0
		c-6,0-9.9,3-9.9,7.6s3.5,7,7.4,7.7l4.2,0.7c2.2,0.4,3.7,1.7,3.7,3.3c0,2.5-2.3,3.6-5.3,3.6c-2.5,0-4.7-1.5-5.3-2.8l-5.1,1.9
		c1.3,3.3,5.2,5.6,10.4,5.6c6.5,0,10.9-3,10.9-8.1C1272,478.1,1269.3,475.4,1265.2,474.7z"/>
	<path d="M1299.8,474.7l-4.5-0.8c-2.4-0.4-4-1.4-4-3.4s1.8-3,4.3-3c2.1,0,3.9,1.1,4.3,2.4l5-1.8c-1.2-2.9-4.7-5.2-9.4-5.2l0,0
		c-6,0-9.9,3-9.9,7.6s3.5,7,7.4,7.7l4.2,0.7c2.2,0.4,3.7,1.7,3.7,3.3c0,2.5-2.3,3.6-5.3,3.6c-2.5,0-4.7-1.5-5.3-2.8l-5.1,1.9
		c1.3,3.3,5.2,5.6,10.4,5.6c6.5,0,10.9-3,10.9-8.1C1306.6,478.1,1303.9,475.4,1299.8,474.7z"/>
	<path d="M723.7,437.2l-8.2-1.4l-0.5,2.5l4.1,0.7c-0.4,1.9-2.2,3.2-4.1,3.1c-2.9,0-4.3-2-4.3-5.2s1.4-5.2,4.3-5.2
		c1.8-0.1,3.5,1,4,2.8l2.9-1c-1.1-2.7-3.9-4.5-6.8-4.3c-4.3,0-7.5,2.9-7.5,7.8s3.2,7.8,7.5,7.8c1.7,0,3.3-0.7,4.4-2l0.2,1.7h2v-4.9
		l1.6,0.3L723.7,437.2z"/>
</g>
</svg>
