<svg xmlns="http://www.w3.org/2000/svg" viewBox="0 0 1920 1080"><defs><style>.cls-1{fill:#fff;}.cls-2{fill:#d7d7d7;}.cls-3{fill:#b8b8b8;}.cls-4{fill:#20221d;}</style></defs><g id="Layer_2" data-name="Layer 2"><rect class="cls-1" width="1920" height="1080"/></g><g id="Layer_1" data-name="Layer 1"><rect class="cls-2" x="618.97" y="111.26" width="701.73" height="877.16" transform="translate(1519.67 -420) rotate(90)"/><rect class="cls-3" x="609.14" y="101.42" width="701.73" height="877.16" transform="translate(1500 -420) rotate(90)"/><path class="cls-4" d="M591.36,250.54a7.86,7.86,0,0,1,6.21,2.57,10.61,10.61,0,0,1,0,13.22,7.84,7.84,0,0,1-6.21,2.58,8,8,0,0,1-6.2-2.59,10.46,10.46,0,0,1,0-13.19A8,8,0,0,1,591.36,250.54Zm4,4.39a5.33,5.33,0,0,0-8,0,8.35,8.35,0,0,0,0,9.58,5.33,5.33,0,0,0,8,0,8.35,8.35,0,0,0,0-9.58Z"/><path class="cls-4" d="M608.1,252.89a1.63,1.63,0,0,0-1.29.45,2.18,2.18,0,0,0-.4,1.46v1.28h2.41v2.06h-2.41v10.37h-2.72V258.14h-2.2v-2.06h2.2V254.6a4.06,4.06,0,0,1,1-3,3.94,3.94,0,0,1,2.91-1,7.6,7.6,0,0,1,2.58.44l-.5,2.06A5.45,5.45,0,0,0,608.1,252.89Zm8.19,0a1.56,1.56,0,0,0-1.26.42,2.33,2.33,0,0,0-.35,1.46v1.28h2.87v2.06h-2.87v10.37H612V258.14h-2v-2.06h2V254.6q0-4,3.76-4a7.82,7.82,0,0,1,2.13.3l-.34,2.1A8.87,8.87,0,0,0,616.29,252.92Zm3.17-1.79h2.72v2.8h-2.72Zm0,17.38V256.08h2.72v12.43Z"/><path class="cls-4" d="M635.87,258.07l-1.73,1.65a6.42,6.42,0,0,0-1.71-1.36,3.76,3.76,0,0,0-1.68-.37,2.93,2.93,0,0,0-2.55,1.24,5,5,0,0,0-.92,3.07,4.85,4.85,0,0,0,.93,3.06,3,3,0,0,0,2.54,1.2,3.51,3.51,0,0,0,1.74-.44,7.77,7.77,0,0,0,1.8-1.54l1.78,1.51a7.7,7.7,0,0,1-2.45,2.16,6.29,6.29,0,0,1-2.9.63,5.91,5.91,0,0,1-4.5-1.79,7.54,7.54,0,0,1,0-9.59,6,6,0,0,1,4.53-1.81,6.53,6.53,0,0,1,2.76.54A7.47,7.47,0,0,1,635.87,258.07Z"/><path class="cls-4" d="M647.29,264.72l1.56,1.66a8.88,8.88,0,0,1-2.62,1.92,6.89,6.89,0,0,1-2.88.58,6.16,6.16,0,0,1-4.63-1.78,6.47,6.47,0,0,1-1.73-4.73,6.91,6.91,0,0,1,1.67-4.81,5.64,5.64,0,0,1,4.44-1.87,5.46,5.46,0,0,1,4.22,1.62,6.36,6.36,0,0,1,1.5,4.49c0,.32,0,.69-.05,1.12h-9.11a4.2,4.2,0,0,0,1.12,2.67,3.47,3.47,0,0,0,2.62,1,4.22,4.22,0,0,0,1.91-.39A10.16,10.16,0,0,0,647.29,264.72ZM643,257.84a3,3,0,0,0-2.17.81,4,4,0,0,0-1.12,2.29h6.41a3.39,3.39,0,0,0-.89-2.27A3,3,0,0,0,643,257.84Z"/><path class="cls-4" d="M669.57,250.94h1.7v17.57h-2l-5.55-8.39q-2.72-4.15-4.55-7.06c.06,1.74.1,4,.1,6.71v8.74h-1.71V250.94h2l5.52,8.36.95,1.46q2.47,3.8,3.63,5.65-.09-2.6-.09-6.71Z"/><path class="cls-4" d="M680.16,256.23a5.4,5.4,0,0,1,4.18,1.76,7.22,7.22,0,0,1,0,9.09,5.84,5.84,0,0,1-8.34,0,7.22,7.22,0,0,1,0-9.09A5.39,5.39,0,0,1,680.16,256.23Zm3,2.71a3.92,3.92,0,0,0-5.95,0,5.58,5.58,0,0,0-1.11,3.61,5.43,5.43,0,0,0,1.12,3.55,3.9,3.9,0,0,0,5.94,0,5.43,5.43,0,0,0,1.13-3.55A5.53,5.53,0,0,0,683.14,258.94Z"/><path class="cls-4" d="M690.26,266.23v2.28h-2.08v-2.28Z"/><path class="cls-4" d="M708.36,263H711v1.41h-2.6v4.06h-1.64v-4.06H698V263l7.21-11.31h1.88L699.82,263h6.9v-4h1.64Z"/><path class="cls-4" d="M717.14,251.68h1.24v16.83h-1.66V253.83l-3.88,2.77-.82-1.16Z"/><path class="cls-4" d="M729.3,251.31a5.67,5.67,0,0,1,4.44,1.8,6.65,6.65,0,0,1,1.62,4.61,9.48,9.48,0,0,1-1.28,4.85,21.13,21.13,0,0,1-4,4.73l-1.29,1.21h-2.25v0l2.6-2.35a16.49,16.49,0,0,0,4.11-5.3,5.41,5.41,0,0,1-4.31,1.81,5.34,5.34,0,0,1-4.06-1.65,5.6,5.6,0,0,1-1.56-4,5.5,5.5,0,0,1,1.65-4A5.78,5.78,0,0,1,729.3,251.31Zm-.12,9.9a4.37,4.37,0,0,0,3.21-1.2,4.08,4.08,0,0,0,1.22-3,4.29,4.29,0,1,0-7.45,3A3.92,3.92,0,0,0,729.18,261.21Z"/><path class="cls-4" d="M740.29,266.23v2.28L739,271.36h-1l1.16-2.85h-1v-2.28Z"/><path class="cls-4" d="M760.39,268.51l-1.78-4.92h-8l-1.75,4.92h-1.79l6.42-17.57h2.27l6.41,17.57Zm-9.23-6.41h6.91l-.87-2.43-.37-1c-1.13-3.16-1.87-5.32-2.23-6.46q-.57,1.89-2.28,6.64l-.3.81Z"/><path class="cls-4" d="M770.05,250.56a9.19,9.19,0,0,1,3.4.6,10.79,10.79,0,0,1,3.06,1.9l-1,1.22a9.34,9.34,0,0,0-2.63-1.7,7.45,7.45,0,0,0-2.79-.51,5.16,5.16,0,0,0-3.15.9,2.69,2.69,0,0,0-1.23,2.27c0,1.19.71,2,2.13,2.53a29,29,0,0,0,2.92.79,12.12,12.12,0,0,1,4.68,1.89,3.85,3.85,0,0,1,1.34,3.14,4.74,4.74,0,0,1-1.76,3.83,6.79,6.79,0,0,1-4.51,1.46,9.49,9.49,0,0,1-3.7-.68,14.11,14.11,0,0,1-3.53-2.24l1-1.24a12.54,12.54,0,0,0,3.32,2.11,7.62,7.62,0,0,0,2.89.54,5,5,0,0,0,3.28-1,3.32,3.32,0,0,0,1.25-2.72,2.87,2.87,0,0,0-2.2-2.83,21.4,21.4,0,0,0-2.92-.79,12.45,12.45,0,0,1-4.61-1.72,3.8,3.8,0,0,1-1.28-3,4.06,4.06,0,0,1,1.75-3.41A7,7,0,0,1,770.05,250.56Z"/><path class="cls-4" d="M780.05,250.94h7.15a6,6,0,0,1,4.12,1.35,4.72,4.72,0,0,1,1.55,3.77,4.79,4.79,0,0,1-1.55,3.79,6,6,0,0,1-4.12,1.36h-5.39v7.3h-1.76ZM787,252.4h-5.17v7.35H787a4.57,4.57,0,0,0,3.06-.95,3.45,3.45,0,0,0,1.1-2.74,3.4,3.4,0,0,0-1.1-2.71A4.52,4.52,0,0,0,787,252.4Z"/><path class="cls-4" d="M808.79,250.56a8.07,8.07,0,0,1,3,.56,11.39,11.39,0,0,1,3,1.9l-1,1.18a8,8,0,0,0-5-2.13A5.87,5.87,0,0,0,804,254.2a8.31,8.31,0,0,0-1.79,5.52,8.44,8.44,0,0,0,1.76,5.5,5.62,5.62,0,0,0,4.58,2.15,5.72,5.72,0,0,0,2.72-.63,13,13,0,0,0,2.75-2.11l1.09,1.16a12.27,12.27,0,0,1-3.17,2.4,7.59,7.59,0,0,1-3.37.69,7.4,7.4,0,0,1-5.92-2.55,11.08,11.08,0,0,1,0-13.24A7.68,7.68,0,0,1,808.79,250.56Z"/><path class="cls-4" d="M822.65,256.23a5.4,5.4,0,0,1,4.18,1.76,7.22,7.22,0,0,1,0,9.09,5.84,5.84,0,0,1-8.34,0,7.22,7.22,0,0,1,0-9.09A5.39,5.39,0,0,1,822.65,256.23Zm3,2.71a3.92,3.92,0,0,0-6,0,5.58,5.58,0,0,0-1.11,3.61,5.43,5.43,0,0,0,1.12,3.55,3.9,3.9,0,0,0,5.94,0,5.43,5.43,0,0,0,1.13-3.55A5.53,5.53,0,0,0,825.63,258.94Z"/><path class="cls-4" d="M843.45,256.23a3.68,3.68,0,0,1,4,3.94v8.34H845.8v-7.89c0-2-.89-3-2.65-3a2.78,2.78,0,0,0-2.19.92,3.43,3.43,0,0,0-.83,2.39v7.6h-1.64v-7.89c0-2-.88-3-2.64-3a2.83,2.83,0,0,0-2.06.78,3.13,3.13,0,0,0-.94,2v8.09h-1.63V256.56h1.53V258a3.8,3.8,0,0,1,3.47-1.79,3.47,3.47,0,0,1,3.46,2A4.16,4.16,0,0,1,843.45,256.23Z"/><path class="cls-4" d="M856.71,256.26A4.71,4.71,0,0,1,860.5,258a7.59,7.59,0,0,1,0,9,4.74,4.74,0,0,1-3.79,1.76,4.49,4.49,0,0,1-4.13-2.08V273H851V256.56h1.53v2A4.54,4.54,0,0,1,856.71,256.26Zm-.14,11.16a3.23,3.23,0,0,0,2.71-1.36,6.68,6.68,0,0,0,0-7.08,3.23,3.23,0,0,0-2.72-1.36,3.68,3.68,0,0,0-3,1.31,6.32,6.32,0,0,0,0,7.17A3.68,3.68,0,0,0,856.57,267.42Z"/><path class="cls-4" d="M866.52,250.94v17.57h-1.64V250.94Z"/><path class="cls-4" d="M879.24,265.29l1,1a8.36,8.36,0,0,1-2.46,2,6.12,6.12,0,0,1-2.71.58,5.43,5.43,0,0,1-4.19-1.7,6.43,6.43,0,0,1-1.56-4.51A6.82,6.82,0,0,1,870.9,258a5.56,5.56,0,0,1,7.91-.23,5.82,5.82,0,0,1,1.42,4.13c0,.22,0,.47-.05.77H871a6,6,0,0,0,1.09,3.42,3.5,3.5,0,0,0,3,1.38,4.21,4.21,0,0,0,2-.47A9.33,9.33,0,0,0,879.24,265.29Zm-4.31-7.72a3.59,3.59,0,0,0-2.61,1,4.66,4.66,0,0,0-1.25,2.86h7.53a4.15,4.15,0,0,0-1-2.82A3.43,3.43,0,0,0,874.93,257.57Z"/><path class="cls-4" d="M892,268.51h-1.83l-3.47-5.15-3.51,5.15h-1.81l4.33-6.24-4-5.71h1.83l3.17,4.6,3.12-4.6h1.78l-3.93,5.64Z"/><path class="cls-4" d="M595.47,296.36,589.11,287l-3.32,3.39v6H584V278.79h1.75v9.45l9.16-9.45h2.16l-6.81,7,7.18,10.59Z"/><path class="cls-4" d="M604.11,284.08a5.44,5.44,0,0,1,4.19,1.76,7.22,7.22,0,0,1,0,9.09,5.86,5.86,0,0,1-8.35,0,7.22,7.22,0,0,1,0-9.09A5.4,5.4,0,0,1,604.11,284.08Zm3,2.71a3.7,3.7,0,0,0-3-1.37,3.64,3.64,0,0,0-3,1.37A5.58,5.58,0,0,0,600,290.4a5.43,5.43,0,0,0,1.12,3.55,3.92,3.92,0,0,0,6,0,5.43,5.43,0,0,0,1.12-3.55A5.52,5.52,0,0,0,607.1,286.79Z"/><path class="cls-4" d="M617.18,284.28a6,6,0,0,1,1.88.35l-.32,1.31a5.18,5.18,0,0,0-1.56-.25,2.48,2.48,0,0,0-2.08,1.08,4.9,4.9,0,0,0-.79,2.93v6.66h-1.63v-12h1.53v1.86a3.38,3.38,0,0,1,1.18-1.45A3.14,3.14,0,0,1,617.18,284.28Z"/><path class="cls-4" d="M629.07,278.79h1.63v17.57h-1.54v-2a4.53,4.53,0,0,1-4.23,2.33,4.76,4.76,0,0,1-3.79-1.76,7.57,7.57,0,0,1,0-9,4.8,4.8,0,0,1,3.81-1.76,4.45,4.45,0,0,1,4.09,2.08Zm-4,16.48a3.68,3.68,0,0,0,3-1.31,5.28,5.28,0,0,0,1.13-3.56,5.47,5.47,0,0,0-1.11-3.61,3.71,3.71,0,0,0-3-1.32,3.2,3.2,0,0,0-2.69,1.36,5.75,5.75,0,0,0-1,3.57,5.68,5.68,0,0,0,1,3.52A3.19,3.19,0,0,0,625.06,295.27Z"/><path class="cls-4" d="M643.35,293.14l1,1a8.36,8.36,0,0,1-2.46,2,6.12,6.12,0,0,1-2.71.58A5.43,5.43,0,0,1,635,295a6.43,6.43,0,0,1-1.56-4.51,6.77,6.77,0,0,1,1.54-4.62,5.08,5.08,0,0,1,4-1.77,5,5,0,0,1,3.88,1.54,5.82,5.82,0,0,1,1.42,4.13c0,.22,0,.47-.05.77h-9.16a6,6,0,0,0,1.09,3.42,3.5,3.5,0,0,0,3,1.38,4.21,4.21,0,0,0,2-.47A9.33,9.33,0,0,0,643.35,293.14ZM639,285.42a3.57,3.57,0,0,0-2.61,1,4.66,4.66,0,0,0-1.25,2.86h7.53a4.2,4.2,0,0,0-1-2.82A3.45,3.45,0,0,0,639,285.42Z"/><path class="cls-4" d="M651.1,284.08a7.58,7.58,0,0,1,2.55.4,8.75,8.75,0,0,1,2.28,1.31l-.92,1.12a9,9,0,0,0-2-1.18,5.22,5.22,0,0,0-1.88-.31A3.52,3.52,0,0,0,649,286a1.77,1.77,0,0,0-.8,1.5q0,1,1.38,1.41c.32.12,1,.3,2,.55a9,9,0,0,1,3.47,1.33,2.71,2.71,0,0,1,1,2.25,3.2,3.2,0,0,1-1.28,2.64,5.32,5.32,0,0,1-3.37,1,7.19,7.19,0,0,1-2.76-.49,10,10,0,0,1-2.61-1.71l1-1.09a9.66,9.66,0,0,0,2.25,1.51,5.26,5.26,0,0,0,2.13.42,3.73,3.73,0,0,0,2.19-.6,1.88,1.88,0,0,0,.85-1.6,1.61,1.61,0,0,0-.81-1.46,9.22,9.22,0,0,0-2.75-.89,9.93,9.93,0,0,1-3.38-1.18,2.33,2.33,0,0,1-.93-2A3,3,0,0,1,647.9,285,5.34,5.34,0,0,1,651.1,284.08Z"/><path class="cls-4" d="M664.69,294.85l.3,1.29a6.79,6.79,0,0,1-2.36.42,3,3,0,0,1-2.22-.71,2.82,2.82,0,0,1-.7-2.09v-8.14h-2.28V284.4h2.28v-4.18h1.64v4.18h3.41v1.22h-3.41v7.92a1.85,1.85,0,0,0,.34,1.26,1.53,1.53,0,0,0,1.17.37A5.79,5.79,0,0,0,664.69,294.85Z"/><path class="cls-4" d="M671.87,284.08a5.19,5.19,0,0,1,3.46,1.06,3.46,3.46,0,0,1,1.27,2.8v8.42h-1.51V294.8a4.52,4.52,0,0,1-4.16,1.93,5.24,5.24,0,0,1-3.14-.84,2.87,2.87,0,0,1-1.15-2.45,3.11,3.11,0,0,1,1.41-2.73,13.81,13.81,0,0,1,4.36-1.43l2.6-.49v-.72a2.41,2.41,0,0,0-.83-1.94,3.34,3.34,0,0,0-2.24-.71,4.38,4.38,0,0,0-2,.46,7.36,7.36,0,0,0-2,1.62l-1-.94A6.46,6.46,0,0,1,671.87,284.08ZM671,295.37a4.37,4.37,0,0,0,2.88-.93,2.9,2.9,0,0,0,1.13-2.36v-2l-2.25.45a14.49,14.49,0,0,0-3.47,1.06,2.14,2.14,0,0,0-1,1.84,1.66,1.66,0,0,0,.73,1.43A3.41,3.41,0,0,0,671,295.37Z"/><path class="cls-4" d="M685.51,284.08a4.26,4.26,0,0,1,3.15,1.13,4,4,0,0,1,1.13,3v8.19h-1.63v-7.65q0-3.27-3-3.27a3.4,3.4,0,0,0-3.4,3.4v7.52h-1.63v-12h1.54V286A4.17,4.17,0,0,1,685.51,284.08Z"/><path class="cls-4" d="M713,278.79v17.57h-1.76V288H701.1v8.34h-1.76V278.79h1.76v7.77h10.15v-7.77Z"/><path class="cls-4" d="M730.41,284.38h1.69l-3.4,12h-2l-1.21-4.13q-1.22-4.26-1.61-5.92-.52,2.24-1.61,6l-1.17,4.08h-2l-3.39-12h1.69l1.28,4.7q.67,2.51,1.46,5.87.9-3.46,1.59-5.87l1.36-4.7h1.58l1.39,4.7q.34,1.14,1.44,5.28l.14.59q.6-2.59,1.49-5.87Z"/><path class="cls-4" d="M742.07,284.4h1.66l-4.88,13.77a6.83,6.83,0,0,1-1.27,2.3,3.07,3.07,0,0,1-2.09.64,7.13,7.13,0,0,1-1.61-.19l.27-1.29a6.53,6.53,0,0,0,1.24.15,1.63,1.63,0,0,0,1.21-.45,4.41,4.41,0,0,0,.87-1.63l.22-.67-4.48-12.63h1.73l1.49,4.36.49,1.46,1.56,4.68,2.11-6.19Z"/><path class="cls-4" d="M746.33,294.08v2.28h-2.08v-2.28Z"/><path class="cls-4" d="M751.53,294.08v2.28l-1.34,2.85h-1l1.16-2.85h-1v-2.28Z"/><path class="cls-4" d="M771.93,278.79v1.46h-5.65v16.11h-1.75V280.25h-5.67v-1.46Z"/><path class="cls-4" d="M780.89,293.14l1,1a8.36,8.36,0,0,1-2.46,2,6.17,6.17,0,0,1-2.72.58,5.4,5.4,0,0,1-4.18-1.7,6.43,6.43,0,0,1-1.56-4.51,6.77,6.77,0,0,1,1.54-4.62,5.06,5.06,0,0,1,4-1.77,5,5,0,0,1,3.88,1.54,5.87,5.87,0,0,1,1.42,4.13c0,.22,0,.47,0,.77h-9.16a6,6,0,0,0,1.09,3.42,3.48,3.48,0,0,0,3,1.38,4.22,4.22,0,0,0,2-.47A9.33,9.33,0,0,0,780.89,293.14Zm-4.31-7.72a3.56,3.56,0,0,0-2.61,1,4.6,4.6,0,0,0-1.25,2.86h7.53a4.2,4.2,0,0,0-1-2.82A3.45,3.45,0,0,0,776.58,285.42Z"/><path class="cls-4" d="M790.12,284.08a4.24,4.24,0,0,1,3.16,1.15,4,4,0,0,1,1.12,2.94v8.19h-1.63v-7.65q0-3.27-3-3.27a3.4,3.4,0,0,0-3.39,3.4v7.52h-1.63V278.79h1.63v7.1A4.19,4.19,0,0,1,790.12,284.08Z"/><path class="cls-4" d="M802.43,284.28a6.09,6.09,0,0,1,1.88.35l-.33,1.31a5.16,5.16,0,0,0-1.55-.25,2.45,2.45,0,0,0-2.08,1.08,4.83,4.83,0,0,0-.8,2.93v6.66h-1.63v-12h1.53v1.86a3.38,3.38,0,0,1,1.18-1.45A3.15,3.15,0,0,1,802.43,284.28Z"/><path class="cls-4" d="M810.67,284.08a5.19,5.19,0,0,1,3.46,1.06,3.43,3.43,0,0,1,1.27,2.8v8.42h-1.51V294.8a4.52,4.52,0,0,1-4.16,1.93,5.19,5.19,0,0,1-3.13-.84,2.84,2.84,0,0,1-1.15-2.45,3.09,3.09,0,0,1,1.41-2.73,13.64,13.64,0,0,1,4.35-1.43l2.6-.49v-.72a2.38,2.38,0,0,0-.83-1.94,3.34,3.34,0,0,0-2.24-.71,4.38,4.38,0,0,0-2,.46,7.36,7.36,0,0,0-2,1.62l-1-.94A6.46,6.46,0,0,1,810.67,284.08Zm-.87,11.29a4.4,4.4,0,0,0,2.89-.93,2.92,2.92,0,0,0,1.12-2.36v-2l-2.25.45a14.65,14.65,0,0,0-3.47,1.06,2.14,2.14,0,0,0-1,1.84,1.66,1.66,0,0,0,.73,1.43A3.41,3.41,0,0,0,809.8,295.37Z"/><path class="cls-4" d="M824.31,284.08a4.26,4.26,0,0,1,3.15,1.13,4,4,0,0,1,1.13,3v8.19H827v-7.65q0-3.27-3-3.27a3.4,3.4,0,0,0-3.39,3.4v7.52h-1.64v-12h1.54V286A4.18,4.18,0,0,1,824.31,284.08Z"/><path class="cls-4" d="M849.86,282.25V288h5.71v1.39h-5.71v5.74h-1.44v-5.74H842.7V288h5.72v-5.74Z"/><path class="cls-4" d="M863.64,279.16a5.68,5.68,0,0,1,4.45,1.8,6.65,6.65,0,0,1,1.62,4.61,9.49,9.49,0,0,1-1.29,4.85,21.33,21.33,0,0,1-4,4.73l-1.29,1.21H860.9v0l2.6-2.35a16.59,16.59,0,0,0,4.1-5.3,5.94,5.94,0,0,1-8.36.16,5.6,5.6,0,0,1-1.56-4,5.53,5.53,0,0,1,1.64-4A5.78,5.78,0,0,1,863.64,279.16Zm-.12,9.9a4.38,4.38,0,0,0,3.22-1.2,4.08,4.08,0,0,0,1.21-3,4.07,4.07,0,0,0-4.31-4.24,4.11,4.11,0,0,0-3.1,1.18,4.16,4.16,0,0,0-1.15,3.06,4.26,4.26,0,0,0,1.11,3.05A3.94,3.94,0,0,0,863.52,289.06Z"/><path class="cls-4" d="M881.17,287.23a5,5,0,0,1,2.48,1.74,4.62,4.62,0,0,1,.89,2.81,4.39,4.39,0,0,1-1.69,3.55,7.95,7.95,0,0,1-9,0,4.41,4.41,0,0,1-1.68-3.55,4.62,4.62,0,0,1,.89-2.81,5,5,0,0,1,2.48-1.74,3.83,3.83,0,0,1-2.48-3.69,3.92,3.92,0,0,1,1.49-3.16,6.56,6.56,0,0,1,7.62,0,3.92,3.92,0,0,1,1.49,3.16A3.83,3.83,0,0,1,881.17,287.23Zm-6.08,7.08a5.85,5.85,0,0,0,6.51,0,3.16,3.16,0,0,0,1.23-2.58,3.38,3.38,0,0,0-1.21-2.73,5.71,5.71,0,0,0-6.54,0,3.38,3.38,0,0,0-1.21,2.73A3.18,3.18,0,0,0,875.09,294.31Zm-.4-10.8a2.76,2.76,0,0,0,1,2.24,4.51,4.51,0,0,0,5.3,0,2.79,2.79,0,0,0,1-2.24,2.64,2.64,0,0,0-1-2.15,4.76,4.76,0,0,0-5.34,0A2.64,2.64,0,0,0,874.69,283.51Z"/><path class="cls-4" d="M888.3,294.93h10.1v1.43H886.67v-.59a6.07,6.07,0,0,1,2.27-4.95,23.48,23.48,0,0,1,2.78-1.91,9.23,9.23,0,0,1,1.23-.72,20.43,20.43,0,0,0,2.07-1.31,4.84,4.84,0,0,0,1.13-1.21,3.27,3.27,0,0,0,.49-1.81,3,3,0,0,0-1-2.39,3.91,3.91,0,0,0-2.6-.88,4.66,4.66,0,0,0-2.64.7,11.48,11.48,0,0,0-2.48,2.4l-1.21-.89a9.44,9.44,0,0,1,2.82-2.74,6.64,6.64,0,0,1,3.46-.9,5.67,5.67,0,0,1,3.87,1.31,4.22,4.22,0,0,1,1.51,3.32,4.88,4.88,0,0,1-2.08,4.08c-.55.41-1.36.94-2.45,1.59l-1.14.66q-1.83,1.14-2.4,1.56A5.41,5.41,0,0,0,889,293,4.11,4.11,0,0,0,888.3,294.93Z"/><path class="cls-4" d="M906.4,279.53h1.23v16.83H906V281.68l-3.89,2.77-.82-1.16Z"/><path class="cls-4" d="M927.44,287.23a5,5,0,0,1,2.47,1.74,4.55,4.55,0,0,1,.89,2.81,4.41,4.41,0,0,1-1.68,3.55,7.95,7.95,0,0,1-9,0,4.41,4.41,0,0,1-1.68-3.55,4.55,4.55,0,0,1,.89-2.81,5,5,0,0,1,2.47-1.74,3.82,3.82,0,0,1-2.47-3.69,3.91,3.91,0,0,1,1.48-3.16,6.57,6.57,0,0,1,7.63,0,3.91,3.91,0,0,1,1.48,3.16A3.82,3.82,0,0,1,927.44,287.23Zm-6.08,7.08a5.85,5.85,0,0,0,6.51,0,3.16,3.16,0,0,0,1.23-2.58,3.39,3.39,0,0,0-1.22-2.73,5.69,5.69,0,0,0-6.53,0,3.38,3.38,0,0,0-1.21,2.73A3.15,3.15,0,0,0,921.36,294.31Zm-.41-10.8a2.77,2.77,0,0,0,1,2.24,4.5,4.5,0,0,0,5.29,0,2.77,2.77,0,0,0,1-2.24,2.64,2.64,0,0,0-1-2.15,4.77,4.77,0,0,0-5.35,0A2.64,2.64,0,0,0,921,283.51Z"/><path class="cls-4" d="M942.29,287.23a5,5,0,0,1,2.48,1.74,4.62,4.62,0,0,1,.89,2.81,4.39,4.39,0,0,1-1.69,3.55,7.95,7.95,0,0,1-9,0,4.41,4.41,0,0,1-1.68-3.55,4.62,4.62,0,0,1,.89-2.81,5,5,0,0,1,2.48-1.74,3.83,3.83,0,0,1-2.48-3.69,3.92,3.92,0,0,1,1.49-3.16,6.56,6.56,0,0,1,7.62,0,3.92,3.92,0,0,1,1.49,3.16A3.83,3.83,0,0,1,942.29,287.23Zm-6.08,7.08a5.85,5.85,0,0,0,6.51,0,3.16,3.16,0,0,0,1.23-2.58,3.41,3.41,0,0,0-1.21-2.73,5.71,5.71,0,0,0-6.54,0,3.38,3.38,0,0,0-1.21,2.73A3.18,3.18,0,0,0,936.21,294.31Zm-.4-10.8a2.76,2.76,0,0,0,1,2.24,4.51,4.51,0,0,0,5.3,0,2.79,2.79,0,0,0,1-2.24,2.64,2.64,0,0,0-1-2.15,4.76,4.76,0,0,0-5.34,0A2.64,2.64,0,0,0,935.81,283.51Z"/><path class="cls-4" d="M959.77,279.16a5.26,5.26,0,0,1,5,3,14.46,14.46,0,0,1,0,11.49,5.63,5.63,0,0,1-10,0,14.46,14.46,0,0,1,0-11.49A5.25,5.25,0,0,1,959.77,279.16Zm0,1.43a3.72,3.72,0,0,0-3.54,2.38,13.64,13.64,0,0,0,0,9.95,3.82,3.82,0,0,0,7.08,0,13.64,13.64,0,0,0,0-9.95A3.72,3.72,0,0,0,959.77,280.59Z"/><path class="cls-4" d="M978.71,290.89h2.59v1.41h-2.59v4.06h-1.64V292.3h-8.74v-1.46l7.21-11.31h1.88l-7.25,11.36h6.9v-4h1.64Z"/><path class="cls-4" d="M993.51,290.89h2.6v1.41h-2.6v4.06h-1.64V292.3h-8.73v-1.46l7.2-11.31h1.88L985,290.89h6.9v-4h1.64Z"/><path class="cls-4" d="M1013.51,290.89h2.6v1.41h-2.6v4.06h-1.63V292.3h-8.74v-1.46l7.2-11.31h1.88L1005,290.89h6.91v-4h1.63Z"/><path class="cls-4" d="M1023.21,279.16a5.68,5.68,0,0,1,4.45,1.8,6.65,6.65,0,0,1,1.62,4.61,9.49,9.49,0,0,1-1.29,4.85,21.05,21.05,0,0,1-4,4.73l-1.29,1.21h-2.25v0l2.6-2.35a16.78,16.78,0,0,0,4.11-5.3,5.41,5.41,0,0,1-4.31,1.8,5.32,5.32,0,0,1-4.06-1.64,5.6,5.6,0,0,1-1.56-4,5.53,5.53,0,0,1,1.64-4A5.78,5.78,0,0,1,1023.21,279.16Zm-.12,9.9a4.38,4.38,0,0,0,3.22-1.2,4.08,4.08,0,0,0,1.21-3,4.07,4.07,0,0,0-4.31-4.24,4.12,4.12,0,0,0-3.1,1.18,4.16,4.16,0,0,0-1.15,3.06,4.26,4.26,0,0,0,1.11,3.05A3.94,3.94,0,0,0,1023.09,289.06Z"/><path class="cls-4" d="M1038.17,279.16a5.27,5.27,0,0,1,5,3,14.58,14.58,0,0,1,0,11.49,5.63,5.63,0,0,1-10,0,14.46,14.46,0,0,1,0-11.49A5.25,5.25,0,0,1,1038.17,279.16Zm0,1.43a3.72,3.72,0,0,0-3.54,2.38,13.64,13.64,0,0,0,0,9.95,3.82,3.82,0,0,0,7.08,0,13.64,13.64,0,0,0,0-9.95A3.72,3.72,0,0,0,1038.17,280.59Z"/><path class="cls-4" d="M595.84,319v2.48h-9.11v5.22h8.5v2.48h-8.5v7.4h-2.94V319Z"/><path class="cls-4" d="M603,323.77a5.82,5.82,0,0,1,3.88,1.16,4,4,0,0,1,1.37,3.17v8.49h-2.45v-1.41a4.62,4.62,0,0,1-4.11,1.81,5.33,5.33,0,0,1-3.23-.9,3,3,0,0,1-1.22-2.62,3.25,3.25,0,0,1,1.38-2.83,11.07,11.07,0,0,1,4.19-1.53l2.84-.52v-.44a1.9,1.9,0,0,0-.69-1.57,2.87,2.87,0,0,0-1.88-.56,4.13,4.13,0,0,0-2,.46,9.11,9.11,0,0,0-2,1.59l-1.71-1.58A7,7,0,0,1,603,323.77Zm-.91,11a3.9,3.9,0,0,0,2.56-.83,2.79,2.79,0,0,0,1-2.27v-1.14l-2.15.45a10,10,0,0,0-2.77.9,1.53,1.53,0,0,0-.82,1.4,1.24,1.24,0,0,0,.58,1.09A2.77,2.77,0,0,0,602.11,334.81Z"/><path class="cls-4" d="M622,326.14l-1.73,1.66a6.42,6.42,0,0,0-1.71-1.36,3.76,3.76,0,0,0-1.68-.37,2.93,2.93,0,0,0-2.55,1.24,5,5,0,0,0-.92,3.07,4.84,4.84,0,0,0,.93,3.05,3,3,0,0,0,2.54,1.2,3.51,3.51,0,0,0,1.74-.43,7.61,7.61,0,0,0,1.8-1.55l1.78,1.51a7.73,7.73,0,0,1-2.45,2.17,6.32,6.32,0,0,1-2.9.63,6,6,0,0,1-4.5-1.79,7.56,7.56,0,0,1,0-9.6,6,6,0,0,1,4.53-1.8,6.53,6.53,0,0,1,2.76.54A7.28,7.28,0,0,1,622,326.14Z"/><path class="cls-4" d="M631,334.24l.35,2.15a8.09,8.09,0,0,1-2.68.47,3.47,3.47,0,0,1-2.58-.82,3.44,3.44,0,0,1-.81-2.52v-7.3h-2.25v-2.06h2.25v-4H628v4h3.14v2.06H628v7a1.3,1.3,0,0,0,.32,1,1.43,1.43,0,0,0,1,.3A6.92,6.92,0,0,0,631,334.24Z"/><path class="cls-4" d="M638.6,323.77a6,6,0,0,1,4.54,1.84,7.27,7.27,0,0,1,0,9.51,6.57,6.57,0,0,1-9.11,0,7.3,7.3,0,0,1,0-9.53A6.07,6.07,0,0,1,638.6,323.77Zm0,2.3a3.19,3.19,0,0,0-2.6,1.17,4.77,4.77,0,0,0-1,3.14,4.7,4.7,0,0,0,1,3.1,3.17,3.17,0,0,0,2.6,1.18,3.14,3.14,0,0,0,2.57-1.18,4.75,4.75,0,0,0,1-3.1,4.83,4.83,0,0,0-1-3.14A3.16,3.16,0,0,0,638.6,326.07Z"/><path class="cls-4" d="M652.9,324a6.49,6.49,0,0,1,2,.37l-.49,2.33a6.32,6.32,0,0,0-1.59-.25,2.41,2.41,0,0,0-2,1,4.52,4.52,0,0,0-.76,2.76v6.36h-2.72V324.16h2.53V326A3.27,3.27,0,0,1,652.9,324Z"/><path class="cls-4" d="M665,324.16h2.77l-4.87,14a5.44,5.44,0,0,1-1.51,2.53,4,4,0,0,1-2.55.74,8.62,8.62,0,0,1-2.18-.27l.44-2.06a9.14,9.14,0,0,0,1.41.15,1.94,1.94,0,0,0,1.24-.39,2.71,2.71,0,0,0,.79-1.36l.08-.2L656,324.16h2.87L660,327.8q1.29,3.87,1.91,5.77,1.06-3.46,1.86-5.79Z"/><path class="cls-4" d="M687.93,319h1.71v17.58h-2l-5.55-8.39q-2.72-4.17-4.55-7.06c.06,1.74.1,4,.1,6.71v8.74h-1.71V319h2l5.52,8.37.94,1.46c1.65,2.53,2.87,4.41,3.64,5.65-.06-1.74-.1-4-.1-6.71Z"/><path class="cls-4" d="M698.53,324.31a5.41,5.41,0,0,1,4.18,1.76,7.21,7.21,0,0,1,0,9.08,5.82,5.82,0,0,1-8.34,0,7.21,7.21,0,0,1,0-9.08A5.39,5.39,0,0,1,698.53,324.31Zm3,2.71a3.92,3.92,0,0,0-6,0,5.57,5.57,0,0,0-1.12,3.6,5.44,5.44,0,0,0,1.13,3.56,3.9,3.9,0,0,0,5.94,0,5.44,5.44,0,0,0,1.13-3.56A5.52,5.52,0,0,0,701.51,327Z"/><path class="cls-4" d="M708.63,334.31v2.28h-2.08v-2.28Z"/><path class="cls-4" d="M723.16,325.75a5.64,5.64,0,0,1,4.06,1.49,5.2,5.2,0,0,1,1.56,3.93,5.74,5.74,0,0,1-1.65,4.05,5.53,5.53,0,0,1-4.22,1.74,8.51,8.51,0,0,1-3.12-.49,15.84,15.84,0,0,1-3.12-1.69l.85-1.26a14.27,14.27,0,0,0,2.77,1.58,6.89,6.89,0,0,0,2.45.42,4.11,4.11,0,0,0,3.14-1.25,4.26,4.26,0,0,0,1.19-3.08,3.93,3.93,0,0,0-1.09-2.93,4.09,4.09,0,0,0-3-1.08,5.2,5.2,0,0,0-3.81,1.51l-1.41-.17.74-8.76H728v1.43h-8.1l-.47,5.77A5.66,5.66,0,0,1,723.16,325.75Z"/><path class="cls-4" d="M733.88,334.31v2.28l-1.34,2.85h-1l1.16-2.85h-1v-2.28Z"/><path class="cls-4" d="M754.8,319h1.71v17.58h-2L749,328.2q-2.72-4.17-4.55-7.06c.07,1.74.1,4,.1,6.71v8.74h-1.71V319h2l5.52,8.37.94,1.46q2.47,3.8,3.64,5.65c-.07-1.74-.1-4-.1-6.71Z"/><path class="cls-4" d="M761.56,319.66V322h-1.64v-2.32Zm0,5v12h-1.64v-12Z"/><path class="cls-4" d="M769.25,324.31a5.27,5.27,0,0,1,3.47,1.05,3.48,3.48,0,0,1,1.26,2.81v8.42h-1.51V335a4.51,4.51,0,0,1-4.16,1.93,5.21,5.21,0,0,1-3.13-.84,2.84,2.84,0,0,1-1.15-2.45,3.14,3.14,0,0,1,1.41-2.74,13.92,13.92,0,0,1,4.36-1.42l2.6-.5v-.71a2.43,2.43,0,0,0-.83-1.95,3.34,3.34,0,0,0-2.24-.7,4.38,4.38,0,0,0-2,.46,7.38,7.38,0,0,0-2,1.62l-1-.94A6.49,6.49,0,0,1,769.25,324.31Zm-.86,11.29a4.37,4.37,0,0,0,2.88-.93,2.94,2.94,0,0,0,1.13-2.36v-2l-2.25.45a14,14,0,0,0-3.47,1.06,2.12,2.12,0,0,0-1,1.83,1.67,1.67,0,0,0,.73,1.44A3.41,3.41,0,0,0,768.39,335.6Z"/><path class="cls-4" d="M785.62,324.63v1.17l-7.48,9.43h7.48v1.36h-9.51v-1.21l7.45-9.41h-7v-1.34Z"/><path class="cls-4" d="M789.63,319.66V322H788v-2.32Zm0,5v12H788v-12Z"/><path class="cls-4" d="M800.17,319v17.58h-1.76V319Z"/><path class="cls-4" d="M809.16,324.31a4.26,4.26,0,0,1,3.15,1.13,4,4,0,0,1,1.13,3v8.19h-1.63v-7.65q0-3.27-3-3.27a3.38,3.38,0,0,0-3.39,3.39v7.53h-1.64v-12h1.54v1.64A4.16,4.16,0,0,1,809.16,324.31Z"/><path class="cls-4" d="M825.13,319h1.63v17.58h-1.54v-2a4.53,4.53,0,0,1-4.23,2.33,4.76,4.76,0,0,1-3.79-1.76,7.58,7.58,0,0,1,0-9,4.8,4.8,0,0,1,3.81-1.75,4.45,4.45,0,0,1,4.09,2.08Zm-4,16.49a3.71,3.71,0,0,0,3-1.31,5.31,5.31,0,0,0,1.13-3.57,5.42,5.42,0,0,0-1.11-3.6,3.72,3.72,0,0,0-3-1.32,3.19,3.19,0,0,0-2.68,1.36,6.64,6.64,0,0,0,0,7.09A3.19,3.19,0,0,0,821.11,335.5Z"/><path class="cls-4" d="M837.63,324.63h1.63v12h-1.53V335a3.87,3.87,0,0,1-3.67,1.91,4.37,4.37,0,0,1-3.19-1.06,3.86,3.86,0,0,1-1.09-2.9v-8.32h1.63v8a3,3,0,0,0,.72,2.16,2.72,2.72,0,0,0,2,.74,3.42,3.42,0,0,0,2.5-.94,3.48,3.48,0,0,0,1-2.6Z"/><path class="cls-4" d="M846.14,324.31a7.26,7.26,0,0,1,2.55.4A8.44,8.44,0,0,1,851,326l-.92,1.11a8.44,8.44,0,0,0-2-1.17,5.18,5.18,0,0,0-1.88-.31,3.49,3.49,0,0,0-2.11.58,1.78,1.78,0,0,0-.81,1.5c0,.64.46,1.11,1.39,1.41.31.11,1,.3,2,.54a9.09,9.09,0,0,1,3.46,1.34,2.69,2.69,0,0,1,1,2.25,3.19,3.19,0,0,1-1.29,2.64,5.32,5.32,0,0,1-3.37,1,7.19,7.19,0,0,1-2.76-.49,10,10,0,0,1-2.61-1.71l1-1.09a9.66,9.66,0,0,0,2.25,1.51,5.33,5.33,0,0,0,2.13.42,3.64,3.64,0,0,0,2.19-.61,1.86,1.86,0,0,0,.86-1.59,1.59,1.59,0,0,0-.82-1.46A9.36,9.36,0,0,0,846,331a9.75,9.75,0,0,1-3.38-1.17,2.35,2.35,0,0,1-.92-2,3,3,0,0,1,1.26-2.53A5.24,5.24,0,0,1,846.14,324.31Z"/><path class="cls-4" d="M859.24,335.08l.29,1.29a6.69,6.69,0,0,1-2.35.42,3,3,0,0,1-2.22-.71,2.84,2.84,0,0,1-.7-2.09v-8.14H852v-1.22h2.28v-4.18h1.64v4.18h3.41v1.22H855.9v7.92a1.85,1.85,0,0,0,.34,1.26,1.53,1.53,0,0,0,1.17.37A6.08,6.08,0,0,0,859.24,335.08Z"/><path class="cls-4" d="M865.77,324.51a5.76,5.76,0,0,1,1.88.35l-.32,1.31a5.18,5.18,0,0,0-1.56-.25,2.46,2.46,0,0,0-2.08,1.08,4.88,4.88,0,0,0-.79,2.93v6.66h-1.63v-12h1.53v1.86A3.38,3.38,0,0,1,864,325,3.14,3.14,0,0,1,865.77,324.51Z"/><path class="cls-4" d="M870.85,319.66V322h-1.64v-2.32Zm0,5v12h-1.64v-12Z"/><path class="cls-4" d="M878.55,324.31a5.24,5.24,0,0,1,3.46,1.05,3.48,3.48,0,0,1,1.26,2.81v8.42h-1.51V335a4.5,4.5,0,0,1-4.15,1.93,5.24,5.24,0,0,1-3.14-.84,2.87,2.87,0,0,1-1.15-2.45,3.14,3.14,0,0,1,1.41-2.74,14.11,14.11,0,0,1,4.36-1.42l2.6-.5v-.71a2.43,2.43,0,0,0-.83-1.95,3.34,3.34,0,0,0-2.24-.7,4.38,4.38,0,0,0-2,.46,7.36,7.36,0,0,0-2,1.62l-1-.94A6.46,6.46,0,0,1,878.55,324.31Zm-.87,11.29a4.37,4.37,0,0,0,2.88-.93,2.94,2.94,0,0,0,1.13-2.36v-2l-2.25.45a14,14,0,0,0-3.47,1.06,2.12,2.12,0,0,0-1,1.83,1.69,1.69,0,0,0,.73,1.44A3.41,3.41,0,0,0,877.68,335.6Z"/><path class="cls-4" d="M888,319v17.58h-1.63V319Z"/><path class="cls-4" d="M904,318.64a8.07,8.07,0,0,1,3,.56,11.59,11.59,0,0,1,3,1.89l-1,1.19a8,8,0,0,0-5-2.13,5.87,5.87,0,0,0-4.75,2.13,8.31,8.31,0,0,0-1.79,5.52,8.44,8.44,0,0,0,1.76,5.5,5.65,5.65,0,0,0,4.58,2.15,5.72,5.72,0,0,0,2.72-.63,13.06,13.06,0,0,0,2.75-2.12l1.09,1.17a12.5,12.5,0,0,1-3.17,2.4,7.57,7.57,0,0,1-3.36.69,7.4,7.4,0,0,1-5.93-2.55,11.08,11.08,0,0,1,0-13.24A7.64,7.64,0,0,1,904,318.64Z"/><path class="cls-4" d="M917.34,324.31a5.41,5.41,0,0,1,4.18,1.76,7.21,7.21,0,0,1,0,9.08,5.82,5.82,0,0,1-8.34,0,7.21,7.21,0,0,1,0-9.08A5.39,5.39,0,0,1,917.34,324.31Zm3,2.71a3.68,3.68,0,0,0-3-1.37,3.64,3.64,0,0,0-3,1.37,5.52,5.52,0,0,0-1.12,3.6,5.44,5.44,0,0,0,1.13,3.56,3.9,3.9,0,0,0,5.94,0,5.44,5.44,0,0,0,1.13-3.56A5.52,5.52,0,0,0,920.32,327Z"/><path class="cls-4" d="M937.64,324.31a3.68,3.68,0,0,1,4,3.94v8.34H940v-7.9c0-2-.89-3-2.65-3a2.78,2.78,0,0,0-2.19.93,3.48,3.48,0,0,0-.83,2.39v7.6h-1.63v-7.9c0-2-.89-3-2.65-3a2.87,2.87,0,0,0-2.06.78,3.15,3.15,0,0,0-.94,2v8.1h-1.63v-12h1.53v1.46a3.79,3.79,0,0,1,3.47-1.78,3.47,3.47,0,0,1,3.46,2A4.17,4.17,0,0,1,937.64,324.31Z"/><path class="cls-4" d="M950.41,324.34a4.75,4.75,0,0,1,3.79,1.75,7.64,7.64,0,0,1,0,9,4.76,4.76,0,0,1-3.79,1.76,4.49,4.49,0,0,1-4.13-2.08v6.24h-1.64V324.63h1.54v2A4.52,4.52,0,0,1,950.41,324.34Zm-.15,11.16a3.22,3.22,0,0,0,2.71-1.36,5.7,5.7,0,0,0,1-3.54,5.76,5.76,0,0,0-1-3.54,3.2,3.2,0,0,0-2.72-1.36,3.64,3.64,0,0,0-2.94,1.31,6.27,6.27,0,0,0,0,7.17A3.67,3.67,0,0,0,950.26,335.5Z"/><path class="cls-4" d="M959.72,319v17.58h-1.64V319Z"/><path class="cls-4" d="M972,333.37l1,1a8.52,8.52,0,0,1-2.47,2,6.09,6.09,0,0,1-2.71.58,5.38,5.38,0,0,1-4.18-1.71,6.42,6.42,0,0,1-1.56-4.5,6.81,6.81,0,0,1,1.53-4.62,5.1,5.1,0,0,1,4-1.77,5,5,0,0,1,3.87,1.54,5.83,5.83,0,0,1,1.43,4.13c0,.21,0,.47-.05.77h-9.16a6,6,0,0,0,1.09,3.41,3.45,3.45,0,0,0,3,1.39,4.27,4.27,0,0,0,2-.47A9.12,9.12,0,0,0,972,333.37Zm-4.31-7.72a3.56,3.56,0,0,0-2.61,1,4.6,4.6,0,0,0-1.25,2.86h7.52a4.15,4.15,0,0,0-1-2.82A3.43,3.43,0,0,0,967.64,325.65Z"/><path class="cls-4" d="M984.2,336.59h-1.83l-3.47-5.15-3.51,5.15h-1.81l4.33-6.24-4-5.72h1.83l3.17,4.61,3.12-4.61h1.78l-3.93,5.65Z"/><path class="cls-4" d="M595.72,364.44l-1.78-4.93h-8l-1.76,4.93H582.4l6.41-17.58h2.28l6.41,17.58ZM586.49,358h6.9l-.86-2.43-.37-1q-1.7-4.75-2.23-6.46c-.38,1.25-1.14,3.47-2.28,6.63l-.3.82Z"/><path class="cls-4" d="M608.4,346.86H610v17.58h-1.54v-2a4.53,4.53,0,0,1-4.23,2.33,4.76,4.76,0,0,1-3.79-1.76,6.75,6.75,0,0,1-1.48-4.51,6.68,6.68,0,0,1,1.51-4.53,4.8,4.8,0,0,1,3.81-1.75,4.46,4.46,0,0,1,4.09,2.07Zm-4,16.49a3.71,3.71,0,0,0,3-1.31,5.31,5.31,0,0,0,1.13-3.57,5.42,5.42,0,0,0-1.11-3.6,3.71,3.71,0,0,0-3-1.32,3.2,3.2,0,0,0-2.69,1.36,6.64,6.64,0,0,0,0,7.09A3.19,3.19,0,0,0,604.39,363.35Z"/><path class="cls-4" d="M622.68,361.22l1,1a8.36,8.36,0,0,1-2.46,2,6.17,6.17,0,0,1-2.72.58,5.39,5.39,0,0,1-4.18-1.71,6.42,6.42,0,0,1-1.56-4.5,6.77,6.77,0,0,1,1.54-4.62,5.06,5.06,0,0,1,4-1.77,5,5,0,0,1,3.88,1.54,5.87,5.87,0,0,1,1.42,4.13c0,.21,0,.47,0,.77h-9.16a6,6,0,0,0,1.09,3.41,3.46,3.46,0,0,0,3,1.39,4.34,4.34,0,0,0,2.05-.47A9.33,9.33,0,0,0,622.68,361.22Zm-4.31-7.72a3.57,3.57,0,0,0-2.61,1,4.6,4.6,0,0,0-1.25,2.86H622a4.2,4.2,0,0,0-1-2.82A3.41,3.41,0,0,0,618.37,353.5Z"/><path class="cls-4" d="M631,352.36a5.76,5.76,0,0,1,1.88.35l-.32,1.31a5.18,5.18,0,0,0-1.56-.25,2.46,2.46,0,0,0-2.08,1.08,4.81,4.81,0,0,0-.79,2.93v6.66h-1.63v-12h1.53v1.86a3.31,3.31,0,0,1,1.18-1.45A3.12,3.12,0,0,1,631,352.36Z"/><path class="cls-4" d="M639.26,352.16a5.27,5.27,0,0,1,3.47,1A3.48,3.48,0,0,1,644,356v8.42h-1.51v-1.56a4.51,4.51,0,0,1-4.16,1.93,5.21,5.21,0,0,1-3.13-.84,2.87,2.87,0,0,1-1.15-2.45,3.14,3.14,0,0,1,1.41-2.74,13.76,13.76,0,0,1,4.36-1.42l2.6-.5v-.71a2.43,2.43,0,0,0-.83-1.95,3.34,3.34,0,0,0-2.24-.7,4.38,4.38,0,0,0-2,.46,7.38,7.38,0,0,0-2,1.62l-1-.94A6.49,6.49,0,0,1,639.26,352.16Zm-.86,11.29a4.37,4.37,0,0,0,2.88-.93,2.94,2.94,0,0,0,1.13-2.36v-2l-2.25.45a14,14,0,0,0-3.47,1.06,2.12,2.12,0,0,0-1,1.83,1.67,1.67,0,0,0,.73,1.44A3.41,3.41,0,0,0,638.4,363.45Z"/><path class="cls-4" d="M652.9,352.16a4.27,4.27,0,0,1,3.16,1.13,4,4,0,0,1,1.13,3v8.19h-1.64v-7.65c0-2.18-1-3.27-3-3.27a3.38,3.38,0,0,0-3.39,3.39v7.53h-1.63v-12H649v1.64A4.17,4.17,0,0,1,652.9,352.16Z"/><path class="cls-4" d="M679.94,364.44h-2l-4.95-7.3H668.5v7.3h-1.76V346.86h7a6,6,0,0,1,4.11,1.36,4.8,4.8,0,0,1,1.53,3.77,4.93,4.93,0,0,1-1.2,3.43,5.25,5.25,0,0,1-3.23,1.62ZM668.5,348.32v7.36h4.93a4.54,4.54,0,0,0,3.08-1,3.41,3.41,0,0,0,1.1-2.73,3.37,3.37,0,0,0-1.11-2.71,4.62,4.62,0,0,0-3.1-1Z"/><path class="cls-4" d="M690.88,346.86h1.63v17.58H691v-2a4.53,4.53,0,0,1-4.24,2.33A4.74,4.74,0,0,1,683,363a7.56,7.56,0,0,1,0-9,4.82,4.82,0,0,1,3.81-1.75,4.46,4.46,0,0,1,4.09,2.07Zm-4,16.49a3.73,3.73,0,0,0,3-1.31,5.3,5.3,0,0,0,1.12-3.57,5.42,5.42,0,0,0-1.11-3.6,3.68,3.68,0,0,0-3-1.32,3.21,3.21,0,0,0-2.69,1.36,5.78,5.78,0,0,0-1,3.56,5.69,5.69,0,0,0,1,3.53A3.22,3.22,0,0,0,686.87,363.35Z"/><path class="cls-4" d="M697.86,362.16v2.28h-2.08v-2.28Z"/><path class="cls-4" d="M703.06,362.16v2.28l-1.34,2.85h-1l1.16-2.85h-1v-2.28Z"/><path class="cls-4" d="M717.34,346.49a9.24,9.24,0,0,1,3.41.6,10.75,10.75,0,0,1,3,1.9l-1,1.21a9.47,9.47,0,0,0-2.64-1.69,7.43,7.43,0,0,0-2.78-.51,5.28,5.28,0,0,0-3.16.89,2.71,2.71,0,0,0-1.22,2.28c0,1.19.7,2,2.12,2.53.78.26,1.75.52,2.93.79a12.13,12.13,0,0,1,4.67,1.89,3.81,3.81,0,0,1,1.34,3.13,4.75,4.75,0,0,1-1.76,3.84,6.82,6.82,0,0,1-4.5,1.46,9.64,9.64,0,0,1-3.7-.68,13.94,13.94,0,0,1-3.53-2.24l1-1.24a13,13,0,0,0,3.32,2.11,7.67,7.67,0,0,0,2.9.54,5.1,5.1,0,0,0,3.28-1,3.35,3.35,0,0,0,1.25-2.73,2.88,2.88,0,0,0-2.21-2.82,21,21,0,0,0-2.92-.79,12.56,12.56,0,0,1-4.6-1.72,3.79,3.79,0,0,1-1.29-3,4.1,4.1,0,0,1,1.76-3.42A7,7,0,0,1,717.34,346.49Z"/><path class="cls-4" d="M732.39,352.16a4.2,4.2,0,0,1,3.16,1.15,4,4,0,0,1,1.13,2.94v8.19H735v-7.65q0-3.27-3-3.27a3.38,3.38,0,0,0-3.39,3.39v7.53H727V346.86h1.63V354A4.17,4.17,0,0,1,732.39,352.16Z"/><path class="cls-4" d="M744.82,352.16a5.28,5.28,0,0,1,3.47,1,3.48,3.48,0,0,1,1.26,2.81v8.42H748v-1.56a4.52,4.52,0,0,1-4.16,1.93,5.21,5.21,0,0,1-3.13-.84,2.84,2.84,0,0,1-1.15-2.45,3.14,3.14,0,0,1,1.41-2.74,13.68,13.68,0,0,1,4.35-1.42l2.6-.5v-.71a2.4,2.4,0,0,0-.83-1.95,3.34,3.34,0,0,0-2.24-.7,4.38,4.38,0,0,0-2,.46,7.36,7.36,0,0,0-2,1.62l-1-.94A6.48,6.48,0,0,1,744.82,352.16ZM744,363.45a4.4,4.4,0,0,0,2.89-.93,2.93,2.93,0,0,0,1.12-2.36v-2l-2.25.45a13.92,13.92,0,0,0-3.46,1.06,2.1,2.1,0,0,0-1,1.83,1.67,1.67,0,0,0,.73,1.44A3.38,3.38,0,0,0,744,363.45Z"/><path class="cls-4" d="M758.46,352.16a4.23,4.23,0,0,1,3.16,1.15,4,4,0,0,1,1.12,2.94v8.19h-1.63v-7.65q0-3.27-3-3.27a3.38,3.38,0,0,0-3.39,3.39v7.53h-1.64V346.86h1.64V354A4.16,4.16,0,0,1,758.46,352.16Z"/><path class="cls-4" d="M770.76,352.36a5.76,5.76,0,0,1,1.88.35l-.32,1.31a5.18,5.18,0,0,0-1.56-.25,2.46,2.46,0,0,0-2.08,1.08,4.88,4.88,0,0,0-.79,2.93v6.66h-1.63v-12h1.53v1.86a3.38,3.38,0,0,1,1.18-1.45A3.14,3.14,0,0,1,770.76,352.36Z"/><path class="cls-4" d="M776.33,347.51v2.32H774.7v-2.32Zm0,5v12H774.7v-12Z"/><path class="cls-4" d="M784.53,352.16a5.24,5.24,0,0,1,3.46,1,3.48,3.48,0,0,1,1.26,2.81v8.42h-1.51v-1.56a4.5,4.5,0,0,1-4.15,1.93,5.24,5.24,0,0,1-3.14-.84,2.87,2.87,0,0,1-1.15-2.45,3.14,3.14,0,0,1,1.41-2.74,13.85,13.85,0,0,1,4.36-1.42l2.6-.5v-.71a2.43,2.43,0,0,0-.83-1.95,3.34,3.34,0,0,0-2.24-.7,4.38,4.38,0,0,0-2,.46,7.36,7.36,0,0,0-2,1.62l-1-.94A6.46,6.46,0,0,1,784.53,352.16Zm-.87,11.29a4.37,4.37,0,0,0,2.88-.93,2.94,2.94,0,0,0,1.13-2.36v-2l-2.25.45a14,14,0,0,0-3.47,1.06,2.12,2.12,0,0,0-1,1.83,1.69,1.69,0,0,0,.73,1.44A3.41,3.41,0,0,0,783.66,363.45Z"/><path class="cls-4" d="M797.28,352.36a5.81,5.81,0,0,1,1.88.35l-.33,1.31a5.16,5.16,0,0,0-1.55-.25,2.45,2.45,0,0,0-2.08,1.08,4.81,4.81,0,0,0-.8,2.93v6.66h-1.63v-12h1.53v1.86a3.38,3.38,0,0,1,1.18-1.45A3.15,3.15,0,0,1,797.28,352.36Z"/><path class="cls-4" d="M817.75,612.86a24.61,24.61,0,0,1,2.44,2.56,23.17,23.17,0,0,1,2,2.82,15,15,0,0,1,1.31,3,10,10,0,0,1,.47,3,4.51,4.51,0,0,1-.79,2.86,2.57,2.57,0,0,1-2.08,1,2.34,2.34,0,0,1-1.19-.34,2.18,2.18,0,0,1-.89-1.12,2.9,2.9,0,0,1-1,1.12,2.55,2.55,0,0,1-1.28.34,2.21,2.21,0,0,1-1.94-.9,3.88,3.88,0,0,1-.63-2.3,10.59,10.59,0,0,1,1-4,30.1,30.1,0,0,1,2.86-5.07l-1.14-1.12Zm1.11,3.64c-.66.94-1.21,1.81-1.66,2.61a22.64,22.64,0,0,0-1.07,2.18,10.26,10.26,0,0,0-.58,1.76,6.13,6.13,0,0,0-.18,1.35,1.77,1.77,0,0,0,.37,1.14,1.28,1.28,0,0,0,1,.44,1.35,1.35,0,0,0,1.27-.64,4,4,0,0,0,.49-1.69l1-.27a3.45,3.45,0,0,0,.44,1.92,1.36,1.36,0,0,0,1.17.68,1.31,1.31,0,0,0,1-.42,2,2,0,0,0,.39-1.36,6.13,6.13,0,0,0-.28-1.77,12.24,12.24,0,0,0-.75-2,15,15,0,0,0-1.18-2A20.06,20.06,0,0,0,818.86,616.5Z"/><path class="cls-4" d="M845.21,621a4.77,4.77,0,0,0-.78-.3,2.64,2.64,0,0,0-.78-.12,3.2,3.2,0,0,0-1.44.36,6.19,6.19,0,0,0-1.3.88,5.49,5.49,0,0,0-.95,1.12,2,2,0,0,0-.37,1.06.58.58,0,0,0,.33.5,5.92,5.92,0,0,0,1.11.29l1.32.23c.42.06.8.13,1.13.19a2.69,2.69,0,0,1,1.43.63,1.82,1.82,0,0,1,.4,1.28,2.78,2.78,0,0,1-.73,1.76,7.68,7.68,0,0,1-1.92,1.56,11.49,11.49,0,0,1-2.69,1.11,11.22,11.22,0,0,1-3.05.42,7.18,7.18,0,0,1-2.39-.37,5,5,0,0,1-1.83-1.08,4.76,4.76,0,0,1-1.18-1.72,5.93,5.93,0,0,1-.42-2.3,7.41,7.41,0,0,1,.32-2.25,8.84,8.84,0,0,1,1-2.08l1.13.54a9.07,9.07,0,0,0-.76,1.71,5.17,5.17,0,0,0-.28,1.66,3.75,3.75,0,0,0,1.19,2.93,4.84,4.84,0,0,0,3.37,1.08,9.82,9.82,0,0,0,2.54-.31,11.44,11.44,0,0,0,2.06-.74,7.06,7.06,0,0,0,1.44-.89,2.66,2.66,0,0,0,.67-.73.47.47,0,0,0-.24-.31,2.72,2.72,0,0,0-.83-.24l-2.27-.37a5.57,5.57,0,0,1-.91-.2,1.94,1.94,0,0,1-.7-.36,1.53,1.53,0,0,1-.46-.6,2.42,2.42,0,0,1-.16-1,4.34,4.34,0,0,1,.51-2,7.38,7.38,0,0,1,3.14-3.18,4.33,4.33,0,0,1,2-.52,3.29,3.29,0,0,1,1,.16,3.51,3.51,0,0,1,1,.54Z"/><path class="cls-4" d="M850.93,618.93a17.32,17.32,0,0,1,2.21,1.77,8.16,8.16,0,0,1,1.28,1.51,4.68,4.68,0,0,1,.59,1.32,5,5,0,0,1,.15,1.19,3.46,3.46,0,0,1-.22,1.25,2.85,2.85,0,0,1-.66,1,3,3,0,0,1-1.08.68,4,4,0,0,1-1.48.25,2.71,2.71,0,0,1-2.17-.82,2.83,2.83,0,0,1-.7-1.93,4.65,4.65,0,0,1,.07-.83,5.77,5.77,0,0,1,.26-.9,11.06,11.06,0,0,1,.5-1.1c.2-.4.47-.88.8-1.42l-.47-.33Zm.64,2.62a14.67,14.67,0,0,0-1,1.78,3.47,3.47,0,0,0-.39,1.46,1.27,1.27,0,0,0,.4.93,1.81,1.81,0,0,0,1.3.41,2.27,2.27,0,0,0,1.35-.37,1.36,1.36,0,0,0,.61-1,2.87,2.87,0,0,0-.48-1.5A7.12,7.12,0,0,0,851.57,621.55Z"/><path class="cls-4" d="M862.09,625.56a4.69,4.69,0,0,1-.49,2.1,8.24,8.24,0,0,1-1.37,2,15.07,15.07,0,0,1-2.05,1.87q-1.18.91-2.55,1.83l-1.26-1.21A31.1,31.1,0,0,0,857,630.3a20,20,0,0,0,2-1.71,7.67,7.67,0,0,0,1.23-1.5,2.41,2.41,0,0,0,.42-1.21,2.76,2.76,0,0,0-.12-.74,8.4,8.4,0,0,0-.34-.89,9.82,9.82,0,0,0-.49-1c-.19-.33-.39-.65-.61-1l1.26-1.27a10.21,10.21,0,0,1,1.34,2.42A6.15,6.15,0,0,1,862.09,625.56Z"/><path class="cls-4" d="M868.85,627.69a3.39,3.39,0,0,1-1.84-.42,2.6,2.6,0,0,1-1-1.09,4.3,4.3,0,0,1-.37-1.54c0-.57-.07-1.16-.09-1.75,0-.85-.05-1.76-.06-2.74s0-2,0-3-.05-2-.09-3.08-.08-2-.14-3l1.58-.74c0,1.34.08,2.53.1,3.59s0,2,0,3,0,1.81,0,2.65,0,1.72,0,2.62c0,.5,0,1,.06,1.4a3.72,3.72,0,0,0,.22,1.14,1.73,1.73,0,0,0,.58.77,1.91,1.91,0,0,0,1.12.28h.79v1.91Z"/><path class="cls-4" d="M881.28,627.69a2.11,2.11,0,0,1-1.43-.48,5.43,5.43,0,0,1-1-1.25,2.35,2.35,0,0,1-.67,1.46,1.67,1.67,0,0,1-1.12.49,3.6,3.6,0,0,1-.85-.12,7.27,7.27,0,0,1-1-.34,6.36,6.36,0,0,1-1-.52,7,7,0,0,1-.94-.68,3.42,3.42,0,0,1-1.38,1.14,4.43,4.43,0,0,1-1.69.3h-.4a.48.48,0,0,1-.42-.3,1.2,1.2,0,0,1-.17-.64,1.26,1.26,0,0,1,.17-.67.48.48,0,0,1,.42-.3h.4a4.69,4.69,0,0,0,1.42-.23,2.22,2.22,0,0,0,1.18-1.1c.29-.52.58-1,.85-1.45a9.12,9.12,0,0,1,.83-1.19,3.56,3.56,0,0,1,.88-.79,1.81,1.81,0,0,1,1-.29,1.83,1.83,0,0,1,1,.31,2.77,2.77,0,0,1,.81.88c.36.6.66,1.13.9,1.61a13.49,13.49,0,0,0,.68,1.21,2.8,2.8,0,0,0,.71.77,1.71,1.71,0,0,0,1,.27h.67v1.91Zm-5.15-5.15a1.41,1.41,0,0,0-1.08.66,9.18,9.18,0,0,0-1,1.67,5.77,5.77,0,0,0,1.59.94,4.06,4.06,0,0,0,1.38.29.77.77,0,0,0,.52-.22.67.67,0,0,0,.25-.49,3.8,3.8,0,0,0-.14-1,4.28,4.28,0,0,0-.36-.93,2.33,2.33,0,0,0-.53-.68A1,1,0,0,0,876.13,622.54Z"/><path class="cls-4" d="M892,626a3.31,3.31,0,0,1-1.16,1.26,3.44,3.44,0,0,1-1.81.42,3.7,3.7,0,0,1-1.77-.36,2.65,2.65,0,0,1-1.07-1.3,3,3,0,0,1-2.8,1.66h-1.29a.51.51,0,0,1-.42-.27,1.34,1.34,0,0,1-.17-.7,1.27,1.27,0,0,1,.17-.68.52.52,0,0,1,.42-.26h1.19a2.83,2.83,0,0,0,1.61-.44,1.87,1.87,0,0,0,.69-1.56v-1.14l1.39-.35a11,11,0,0,0,.1,1.66,2.86,2.86,0,0,0,.34,1.08,1.45,1.45,0,0,0,.65.58,3.1,3.1,0,0,0,2.73-.35,2.58,2.58,0,0,0,.59-1.78v-.84l1.38-.35a5.86,5.86,0,0,0,.45,2.7,1.67,1.67,0,0,0,1.61.79,3.13,3.13,0,0,0,.6-.06,2.38,2.38,0,0,0,.57-.18,1.09,1.09,0,0,0,.42-.33.71.71,0,0,0,.16-.47,3.27,3.27,0,0,0-.31-1.07,8.17,8.17,0,0,0-1-1.75l1.28-1.34a6.76,6.76,0,0,1,1.17,2,5.77,5.77,0,0,1,.37,1.89,3,3,0,0,1-1,2.33,3.44,3.44,0,0,1-2.37.86,3.21,3.21,0,0,1-1.73-.42A2.64,2.64,0,0,1,892,626Zm-1.7-6.12-1.44-1.21,1.07-1.26,1.43,1.21Zm1.14-2.9-1.39-1.13,1-1.24,1.36,1.19Zm1.83,2.9-1.44-1.21,1.07-1.26,1.43,1.21Z"/><path class="cls-4" d="M906.53,625a.94.94,0,0,1,.81.36,1.57,1.57,0,0,1,.26.93,1.38,1.38,0,0,1-.34,1,1.16,1.16,0,0,1-.9.36,1.05,1.05,0,0,1-.88-.41,1.81,1.81,0,0,1-.31-1.13,4.09,4.09,0,0,1,.63-2.21,7.59,7.59,0,0,1,1.85-1.94l.27.74a4.87,4.87,0,0,0-1.16,1.21,2.9,2.9,0,0,0-.5,1.11Z"/><path class="cls-4" d="M925,621a4.17,4.17,0,0,0-.78-.3,2.54,2.54,0,0,0-.78-.12,3.19,3.19,0,0,0-1.43.36,6.19,6.19,0,0,0-1.3.88,4.92,4.92,0,0,0-1,1.12,2,2,0,0,0-.37,1.06.55.55,0,0,0,.33.5,5.76,5.76,0,0,0,1.1.29c.46.09.9.16,1.33.23s.79.13,1.12.19a2.77,2.77,0,0,1,1.44.63,1.87,1.87,0,0,1,.39,1.28,2.72,2.72,0,0,1-.73,1.76,7.33,7.33,0,0,1-1.92,1.56,11.72,11.72,0,0,1-5.74,1.53,7.26,7.26,0,0,1-2.39-.37,4.86,4.86,0,0,1-3-2.8,5.93,5.93,0,0,1-.42-2.3,7.1,7.1,0,0,1,.33-2.25,9.18,9.18,0,0,1,1-2.08l1.14.54a9.13,9.13,0,0,0-.77,1.71,5.43,5.43,0,0,0-.27,1.66,3.75,3.75,0,0,0,1.19,2.93,4.81,4.81,0,0,0,3.36,1.08,9.77,9.77,0,0,0,2.54-.31,11.28,11.28,0,0,0,2.07-.74,7.67,7.67,0,0,0,1.44-.89,2.58,2.58,0,0,0,.66-.73.46.46,0,0,0-.23-.31,2.82,2.82,0,0,0-.83-.24l-2.28-.37a5.44,5.44,0,0,1-.9-.2,2.07,2.07,0,0,1-.71-.36,1.53,1.53,0,0,1-.46-.6,2.61,2.61,0,0,1-.16-1,4.34,4.34,0,0,1,.51-2,7.53,7.53,0,0,1,3.14-3.18,4.36,4.36,0,0,1,2-.52,3.35,3.35,0,0,1,1,.16,3.61,3.61,0,0,1,1,.54Z"/><path class="cls-4" d="M932.57,625.56a4.69,4.69,0,0,1-.49,2.1,8.19,8.19,0,0,1-1.36,2,15.18,15.18,0,0,1-2.06,1.87q-1.18.91-2.55,1.83l-1.26-1.21a31.1,31.1,0,0,0,2.65-1.82,20.19,20.19,0,0,0,2-1.71,8,8,0,0,0,1.22-1.5,2.41,2.41,0,0,0,.42-1.21,2.76,2.76,0,0,0-.12-.74,6.55,6.55,0,0,0-.33-.89,10,10,0,0,0-.5-1c-.19-.33-.39-.65-.61-1l1.27-1.27a10.15,10.15,0,0,1,1.33,2.42A6.15,6.15,0,0,1,932.57,625.56Zm-2.12-6.39-1.51-1.28,1.11-1.32,1.51,1.27Z"/><path class="cls-4" d="M939.33,627.69a3.41,3.41,0,0,1-1.84-.42,2.6,2.6,0,0,1-1-1.09,4.52,4.52,0,0,1-.37-1.54c0-.57-.07-1.16-.09-1.75,0-.85,0-1.76-.06-2.74s0-2,0-3-.05-2-.08-3.08-.09-2-.15-3l1.58-.74c.05,1.34.09,2.53.1,3.59s0,2,0,3,0,1.81,0,2.65,0,1.72,0,2.62c0,.5,0,1,.06,1.4a3.71,3.71,0,0,0,.23,1.14,1.6,1.6,0,0,0,.58.77,1.86,1.86,0,0,0,1.11.28h.79v1.91Z"/><path class="cls-4" d="M947.35,627.69a4,4,0,0,1-1.84-.37,2.59,2.59,0,0,1-1.15-1.26,3.16,3.16,0,0,1-1.23,1.23,3.74,3.74,0,0,1-1.84.4h-1a.51.51,0,0,1-.42-.27,1.34,1.34,0,0,1-.17-.7,1.27,1.27,0,0,1,.17-.68.52.52,0,0,1,.42-.26h1a2.84,2.84,0,0,0,1.79-.46,2.28,2.28,0,0,0,.66-1.74l0-.94,1.39-.35a11,11,0,0,0,.1,1.66,2.54,2.54,0,0,0,.37,1.08,1.49,1.49,0,0,0,.76.58,3.62,3.62,0,0,0,1.25.17h1v1.91Zm-4.45,4.53L941.44,631l1.06-1.27,1.44,1.22Zm2.94,0L944.41,631l1.09-1.27,1.41,1.22Z"/><path class="cls-4" d="M951.78,624.72a3.33,3.33,0,0,0-.29-1.05,8.17,8.17,0,0,0-1-1.75l1.26-1.34a6.76,6.76,0,0,1,1.17,2,5.77,5.77,0,0,1,.37,1.89,3,3,0,0,1-.95,2.37,4.45,4.45,0,0,1-3,.82h-.77a.51.51,0,0,1-.42-.27,1.25,1.25,0,0,1-.17-.7,1.18,1.18,0,0,1,.17-.68.52.52,0,0,1,.42-.26h.79a5.34,5.34,0,0,0,1.69-.24C951.54,625.37,951.78,625.1,951.78,624.72Zm-.09-6.07-1.51-1.28,1.11-1.32,1.51,1.27Z"/><path class="cls-4" d="M973.33,627.69l-1.49,0h-.94a4.15,4.15,0,0,0-1.38.16c-.29.11-.43.23-.43.36a.23.23,0,0,0,.15.22,3.61,3.61,0,0,0,.7.2l2.17.5a2.47,2.47,0,0,1,1.08.49,1.12,1.12,0,0,1,.36.89,2.32,2.32,0,0,1-.68,1.62,6,6,0,0,1-1.76,1.27,10.58,10.58,0,0,1-2.4.81,12.24,12.24,0,0,1-2.59.29,7.54,7.54,0,0,1-2.39-.37A5.22,5.22,0,0,1,961.9,633a4.86,4.86,0,0,1-1.17-1.72,6,6,0,0,1-.42-2.3,7.13,7.13,0,0,1,.32-2.26,9.18,9.18,0,0,1,1-2.08l1.14.55a9.83,9.83,0,0,0-.77,1.71,5.39,5.39,0,0,0-.27,1.66,3.78,3.78,0,0,0,1.19,2.93,4.82,4.82,0,0,0,3.37,1.08,11.18,11.18,0,0,0,2.25-.21,11.38,11.38,0,0,0,1.76-.51,6.87,6.87,0,0,0,1.19-.6,2.88,2.88,0,0,0,.59-.47,1.22,1.22,0,0,0-.29-.18,2.43,2.43,0,0,0-.53-.16l-2-.5a3.22,3.22,0,0,1-1.19-.53,1.29,1.29,0,0,1-.42-1.08,2.15,2.15,0,0,1,1-1.85,5.57,5.57,0,0,1,3.17-.7h1.78v1.91Z"/><path class="cls-4" d="M980.63,627.69a4,4,0,0,1-1.84-.37,2.66,2.66,0,0,1-1.16-1.26,3.13,3.13,0,0,1-1.22,1.23,3.78,3.78,0,0,1-1.85.4h-1a.5.5,0,0,1-.42-.27,1.25,1.25,0,0,1-.17-.7,1.18,1.18,0,0,1,.17-.68.51.51,0,0,1,.42-.26h1a2.87,2.87,0,0,0,1.8-.46,2.28,2.28,0,0,0,.66-1.74l0-.94,1.39-.35a11,11,0,0,0,.1,1.66,2.54,2.54,0,0,0,.37,1.08,1.5,1.5,0,0,0,.75.58,3.66,3.66,0,0,0,1.25.17h1v1.91Zm-4.41-7.3-1.46-1.22,1.07-1.26,1.43,1.21Zm2.95,0-1.44-1.22,1.09-1.26,1.41,1.21Z"/><path class="cls-4" d="M992.34,627.69a10.94,10.94,0,0,1-1.49-.09,6.6,6.6,0,0,1-1.18-.27,4.67,4.67,0,0,1-1-.47,8.59,8.59,0,0,1-.9-.66,7.64,7.64,0,0,1-2.65,1.18,12.63,12.63,0,0,1-2.82.31h-.42a.48.48,0,0,1-.42-.27,1.25,1.25,0,0,1-.18-.7,1.19,1.19,0,0,1,.18-.68.49.49,0,0,1,.42-.26h.49a17.15,17.15,0,0,0,2-.12,7.38,7.38,0,0,0,2.13-.62c-.44-.45-.94-.93-1.48-1.45s-1.08-1-1.59-1.47l.3-2c.26-.07.58-.14,1-.22s.78-.16,1.21-.24.84-.13,1.26-.17.82-.06,1.2-.06a5.06,5.06,0,0,1,2.72.57,1.88,1.88,0,0,1,.87,1.68,3,3,0,0,1-.65,1.67,7.45,7.45,0,0,1-2.1,1.84,3,3,0,0,0,1.47.55c.52,0,1,.07,1.57.07h1.61v1.91Zm-1.81-5.77a1.34,1.34,0,0,0-.6-.58,3.62,3.62,0,0,0-1.7-.29,11.71,11.71,0,0,0-1.72.14,13.21,13.21,0,0,0-1.55.31c.7.63,1.27,1.17,1.72,1.63s.88.89,1.28,1.27a13,13,0,0,0,1.72-1.27A2.32,2.32,0,0,0,990.53,621.92Z"/><path class="cls-4" d="M1001,627.69a4,4,0,0,1-1.84-.37,2.59,2.59,0,0,1-1.15-1.26,3.16,3.16,0,0,1-1.23,1.23,3.74,3.74,0,0,1-1.84.4h-1a.51.51,0,0,1-.42-.27,1.34,1.34,0,0,1-.17-.7,1.27,1.27,0,0,1,.17-.68.52.52,0,0,1,.42-.26h1a2.82,2.82,0,0,0,1.79-.46,2.28,2.28,0,0,0,.66-1.74l0-.94,1.39-.35a11,11,0,0,0,.1,1.66,2.69,2.69,0,0,0,.37,1.08,1.49,1.49,0,0,0,.76.58,3.62,3.62,0,0,0,1.25.17h1v1.91Zm-2.92-7.3-1.51-1.29,1.12-1.31,1.51,1.26Z"/><path class="cls-4" d="M1018.58,623.16a3.63,3.63,0,0,1-.59,2.08,4.49,4.49,0,0,1-1.58,1.41,7.47,7.47,0,0,1-2.25.79,13.43,13.43,0,0,1-2.64.25h-1.85a9.3,9.3,0,0,1-1.28-.08,2.89,2.89,0,0,1-.93-.26,1.9,1.9,0,0,1-.66-.49,3.35,3.35,0,0,1-.52-.8,3.23,3.23,0,0,1-1.2,1.23,3.17,3.17,0,0,1-1.6.4h-1.29a.51.51,0,0,1-.42-.27,1.34,1.34,0,0,1-.17-.7,1.27,1.27,0,0,1,.17-.68.52.52,0,0,1,.42-.26h1.19a2.77,2.77,0,0,0,1.6-.44,2,2,0,0,0,.7-1.56v-1.14l1.39-.35a10.1,10.1,0,0,0,.2,2.21,1.5,1.5,0,0,0,.86,1.18c.45-.59,1-1.23,1.53-1.9a16.72,16.72,0,0,1,1.8-1.86,11,11,0,0,1,2-1.4,4.29,4.29,0,0,1,2-.55,2.91,2.91,0,0,1,1.17.23,3.13,3.13,0,0,1,1,.66,3.19,3.19,0,0,1,.94,2.3Zm-1.56.32a1.67,1.67,0,0,0-.53-1.18,1.92,1.92,0,0,0-1.4-.53,4.11,4.11,0,0,0-2.48,1,21.79,21.79,0,0,0-3,3.05h2.18a12.21,12.21,0,0,0,1.91-.16,8.25,8.25,0,0,0,1.67-.46,3.51,3.51,0,0,0,1.17-.74A1.41,1.41,0,0,0,1017,623.48Z"/><path class="cls-4" d="M1035,627.69a10.94,10.94,0,0,1-1.49-.09,6.24,6.24,0,0,1-1.22-.28,4.83,4.83,0,0,1-1-.5,6.61,6.61,0,0,1-1-.72,11.59,11.59,0,0,0-2.42,2.43,4.78,4.78,0,0,0-.63,4.54,3.39,3.39,0,0,0,1,1.41,4.94,4.94,0,0,0,1.86,1,9.91,9.91,0,0,0,2.81.34,17.76,17.76,0,0,0,2.51-.16,14.84,14.84,0,0,0,2.24-.48l.45,1.58a18,18,0,0,1-2.84.76,15,15,0,0,1-2.63.23,11.35,11.35,0,0,1-2.79-.33,6.28,6.28,0,0,1-2.26-1,5,5,0,0,1-1.53-1.88,6.62,6.62,0,0,1-.55-2.85,6.3,6.3,0,0,1,1-3.54,12.87,12.87,0,0,1,2.71-2.92l-1.5-1.5c-.52-.52-1.07-1-1.64-1.52l.32-2c.26-.07.58-.14,1-.22s.78-.16,1.2-.24.85-.13,1.27-.17.82-.06,1.2-.06a5,5,0,0,1,2.71.57,1.89,1.89,0,0,1,.85,1.68,3,3,0,0,1-.6,1.56,8.47,8.47,0,0,1-2.15,1.95,3.24,3.24,0,0,0,1.49.55c.51,0,1,.07,1.56.07h1.63v1.91Zm-1.78-5.77a1.35,1.35,0,0,0-.62-.58,3.66,3.66,0,0,0-1.71-.29,13.31,13.31,0,0,0-1.72.13,9.59,9.59,0,0,0-1.54.32c.69.63,1.27,1.17,1.73,1.63s.89.89,1.29,1.27a16.73,16.73,0,0,0,1.7-1.29A2.43,2.43,0,0,0,1033.24,621.92Z"/><path class="cls-4" d="M1048.07,627.69a2.09,2.09,0,0,1-1.42-.48,5.21,5.21,0,0,1-1-1.25,2.3,2.3,0,0,1-.67,1.46,1.63,1.63,0,0,1-1.11.49,3.61,3.61,0,0,1-.86-.12,7.27,7.27,0,0,1-1-.34,6.36,6.36,0,0,1-1-.52,7.73,7.73,0,0,1-.94-.68,3.42,3.42,0,0,1-1.38,1.14,4.4,4.4,0,0,1-1.69.3h-.4a.51.51,0,0,1-.42-.3,1.3,1.3,0,0,1-.17-.64,1.36,1.36,0,0,1,.17-.67.51.51,0,0,1,.42-.3h.4a4.64,4.64,0,0,0,1.42-.23,2.22,2.22,0,0,0,1.18-1.1c.3-.52.58-1,.85-1.45a9.12,9.12,0,0,1,.83-1.19,3.56,3.56,0,0,1,.88-.79,1.83,1.83,0,0,1,1-.29,1.86,1.86,0,0,1,1,.31,2.86,2.86,0,0,1,.8.88c.36.6.66,1.13.9,1.61a13.49,13.49,0,0,0,.68,1.21,2.8,2.8,0,0,0,.71.77,1.77,1.77,0,0,0,1,.27h.67v1.91Zm-5.15-5.15a1.41,1.41,0,0,0-1.08.66,9.18,9.18,0,0,0-1,1.67,5.67,5.67,0,0,0,1.6.94,4,4,0,0,0,1.37.29.75.75,0,0,0,.52-.22.64.64,0,0,0,.25-.49,3.8,3.8,0,0,0-.14-1,4.28,4.28,0,0,0-.36-.93,2.17,2.17,0,0,0-.53-.68A1,1,0,0,0,1042.92,622.54Z"/><path class="cls-4" d="M1056,627.69a4,4,0,0,1-1.85-.37,2.59,2.59,0,0,1-1.15-1.26,3.16,3.16,0,0,1-1.23,1.23,3.74,3.74,0,0,1-1.84.4h-1a.51.51,0,0,1-.43-.27,1.34,1.34,0,0,1-.17-.7,1.27,1.27,0,0,1,.17-.68.52.52,0,0,1,.43-.26h1a2.87,2.87,0,0,0,1.8-.46,2.31,2.31,0,0,0,.65-1.74l0-.94,1.38-.35a11,11,0,0,0,.1,1.66,2.69,2.69,0,0,0,.37,1.08,1.53,1.53,0,0,0,.76.58,3.66,3.66,0,0,0,1.25.17h1v1.91Zm-4.41-7.3-1.46-1.22,1.06-1.26,1.44,1.21Zm2.94,0-1.43-1.22,1.09-1.26,1.41,1.21Z"/><path class="cls-4" d="M1069.73,627.69a7.16,7.16,0,0,1-1.32-.11,2.6,2.6,0,0,1-1-.42,2.86,2.86,0,0,1-.77-.87,7.38,7.38,0,0,1-.63-1.42q-1,.58-1.77,1.11a12.52,12.52,0,0,1-1.63.9,8.2,8.2,0,0,1-1.75.6,10,10,0,0,1-2.16.21h-1.46a.51.51,0,0,1-.42-.27,1.34,1.34,0,0,1-.17-.7,1.27,1.27,0,0,1,.17-.68.52.52,0,0,1,.42-.26h1.54a9.81,9.81,0,0,0,2.23-.2,8.35,8.35,0,0,0,1.64-.56c.52-.25,1.09-.56,1.7-.92s1.39-.78,2.35-1.24c-.59-.18-1.15-.37-1.66-.57l-1.39-.55-1.06-.44a2.24,2.24,0,0,0-.69-.17,1.56,1.56,0,0,0-.82.32,7.41,7.41,0,0,0-1.24,1.24l-1-.62c.2-.31.42-.64.67-1a8.7,8.7,0,0,1,.78-.9,4.19,4.19,0,0,1,.84-.66,1.78,1.78,0,0,1,.86-.24,3.6,3.6,0,0,1,1.41.37c.56.25,1.19.51,1.88.8s1.44.56,2.25.81a8.74,8.74,0,0,0,2.5.37h.5l-.4,1.86a7,7,0,0,0-1.6.26,8.36,8.36,0,0,0-1.32.48,3.34,3.34,0,0,0,.52.88,1.83,1.83,0,0,0,.58.45,1.9,1.9,0,0,0,.67.18l.78,0h1.93v1.91Zm-7.08,4.65-1.51-1.28,1.11-1.32,1.51,1.27Z"/><path class="cls-4" d="M1078.2,620.73a1.79,1.79,0,0,1,1.16.44,3.77,3.77,0,0,1,.89,1.1,5.57,5.57,0,0,1,.57,1.5,7.14,7.14,0,0,1,.2,1.64,2.24,2.24,0,0,1-.19.9,2.72,2.72,0,0,1-.48.81,2.78,2.78,0,0,1-.67.57,1.46,1.46,0,0,1-.77.22,3.6,3.6,0,0,1-.85-.12,7.27,7.27,0,0,1-1-.34,6.36,6.36,0,0,1-1-.52,7,7,0,0,1-.94-.68,3.47,3.47,0,0,1-1.37,1.14,4.34,4.34,0,0,1-1.7.3h-.4a.51.51,0,0,1-.42-.3,1.2,1.2,0,0,1-.17-.64,1.26,1.26,0,0,1,.17-.67.51.51,0,0,1,.42-.3h.4a4.69,4.69,0,0,0,1.42-.23,2.22,2.22,0,0,0,1.18-1.1c.29-.52.58-1,.85-1.45a9.12,9.12,0,0,1,.83-1.19,3.56,3.56,0,0,1,.88-.79A1.81,1.81,0,0,1,1078.2,620.73Zm-.2,1.81a1.41,1.41,0,0,0-1.08.66,9.18,9.18,0,0,0-1,1.67,5.67,5.67,0,0,0,1.6.94,4,4,0,0,0,1.37.29.77.77,0,0,0,.52-.22.67.67,0,0,0,.25-.49,3.8,3.8,0,0,0-.14-1,4.28,4.28,0,0,0-.36-.93,2.17,2.17,0,0,0-.53-.68A1,1,0,0,0,1078,622.54Z"/><path class="cls-4" d="M1089.47,625a.92.92,0,0,1,.8.36,1.57,1.57,0,0,1,.26.93,1.42,1.42,0,0,1-.33,1,1.2,1.2,0,0,1-.91.36,1.05,1.05,0,0,1-.88-.41,1.87,1.87,0,0,1-.31-1.13,4,4,0,0,1,.64-2.21,7.54,7.54,0,0,1,1.84-1.94l.27.74a5.05,5.05,0,0,0-1.16,1.21,3.06,3.06,0,0,0-.5,1.11Z"/><path class="cls-4" d="M1104.86,619.92a8.75,8.75,0,0,1,1.25,2.5,8.28,8.28,0,0,1,.41,2.55,7.91,7.91,0,0,1-.47,2.78,6.07,6.07,0,0,1-1.36,2.15,5.93,5.93,0,0,1-2.18,1.4,8.16,8.16,0,0,1-2.94.5,7.1,7.1,0,0,1-2.32-.37,5.22,5.22,0,0,1-1.81-1.08,4.9,4.9,0,0,1-1.17-1.73,6.11,6.11,0,0,1-.42-2.32,7.07,7.07,0,0,1,.32-2.23,9.72,9.72,0,0,1,1-2.1l1.14.57a8.22,8.22,0,0,0-.76,1.7,5.22,5.22,0,0,0-.28,1.67,3.74,3.74,0,0,0,1.19,2.92,4.75,4.75,0,0,0,3.29,1.06,6.66,6.66,0,0,0,2.16-.33,4.54,4.54,0,0,0,1.63-1,4.26,4.26,0,0,0,1-1.49,5,5,0,0,0,.37-2,6.28,6.28,0,0,0-.36-1.95,8.19,8.19,0,0,0-1.07-2.13Zm-5,.47-1.51-1.29,1.11-1.31,1.51,1.26Z"/><path class="cls-4" d="M1111.25,627.44l-1.58.37V611.1l1.58-.74Z"/><path class="cls-4" d="M1118.33,625.56a4.7,4.7,0,0,1-.5,2.1,8.19,8.19,0,0,1-1.36,2,15.07,15.07,0,0,1-2,1.87q-1.18.91-2.55,1.83l-1.26-1.21a31.1,31.1,0,0,0,2.65-1.82,20,20,0,0,0,2-1.71,7.67,7.67,0,0,0,1.23-1.5,2.41,2.41,0,0,0,.42-1.21,2.76,2.76,0,0,0-.12-.74,8.4,8.4,0,0,0-.34-.89,9.82,9.82,0,0,0-.49-1c-.19-.33-.4-.65-.61-1l1.26-1.27a10.21,10.21,0,0,1,1.34,2.42A6.15,6.15,0,0,1,1118.33,625.56Z"/><path class="cls-4" d="M1129.77,624.12a3.72,3.72,0,0,1-.44,1.91,3.12,3.12,0,0,1-1.15,1.16,5,5,0,0,1-1.66.59,12.31,12.31,0,0,1-2,.16,7.25,7.25,0,0,1-2-.25,3.49,3.49,0,0,1-1.53-1l.84-1.41a3.18,3.18,0,0,0,1.27.64,7.08,7.08,0,0,0,1.55.15,6.27,6.27,0,0,0,2.72-.47c.63-.31.95-.7.95-1.16a2.65,2.65,0,0,0-.19-.83,4.74,4.74,0,0,0-.63-1.14,9.91,9.91,0,0,0-1.2-1.36,14,14,0,0,0-1.9-1.5l.75-1.81a12.67,12.67,0,0,1,1.69,1.25,10.91,10.91,0,0,1,1.48,1.57,8.47,8.47,0,0,1,1,1.75A4.49,4.49,0,0,1,1129.77,624.12Z"/><path class="cls-4" d="M1137.17,608.55a3.7,3.7,0,0,1-1.31,1.13,3.29,3.29,0,0,1-1.49.38,5.35,5.35,0,0,1-1.39-.17,4.45,4.45,0,0,0-1.16-.17,1,1,0,0,0-.54.16,3.34,3.34,0,0,0-.65.5l-.69-.84a7,7,0,0,1,1-.94,1.5,1.5,0,0,1,.85-.27,4.28,4.28,0,0,1,1.18.2,4.75,4.75,0,0,0,1.32.2,2.89,2.89,0,0,0,1.16-.23,4.4,4.4,0,0,0,1.16-.81Zm-4,19.29q-.07-4-.14-7.92c0-2.63-.09-5.27-.13-7.93l1.58-.66v16.11Z"/><path class="cls-4" d="M1156.31,621a4.17,4.17,0,0,0-.78-.3,2.64,2.64,0,0,0-.78-.12,3.2,3.2,0,0,0-1.44.36,6.46,6.46,0,0,0-1.3.88,5.49,5.49,0,0,0-1,1.12,2,2,0,0,0-.37,1.06.58.58,0,0,0,.33.5,5.92,5.92,0,0,0,1.11.29l1.32.23c.42.06.8.13,1.13.19a2.69,2.69,0,0,1,1.43.63,1.82,1.82,0,0,1,.4,1.28,2.72,2.72,0,0,1-.73,1.76,7.68,7.68,0,0,1-1.92,1.56,11.49,11.49,0,0,1-2.69,1.11,11.17,11.17,0,0,1-3,.42,7.22,7.22,0,0,1-2.39-.37,5,5,0,0,1-1.83-1.08,4.76,4.76,0,0,1-1.18-1.72,5.93,5.93,0,0,1-.42-2.3,7.41,7.41,0,0,1,.32-2.25,9.25,9.25,0,0,1,1-2.08l1.13.54a9.07,9.07,0,0,0-.76,1.71,5.43,5.43,0,0,0-.27,1.66,3.74,3.74,0,0,0,1.18,2.93,4.86,4.86,0,0,0,3.37,1.08,9.82,9.82,0,0,0,2.54-.31,11.44,11.44,0,0,0,2.06-.74,7.06,7.06,0,0,0,1.44-.89,2.66,2.66,0,0,0,.67-.73.44.44,0,0,0-.24-.31,2.72,2.72,0,0,0-.83-.24l-2.27-.37a5.81,5.81,0,0,1-.91-.2,2,2,0,0,1-.7-.36,1.53,1.53,0,0,1-.46-.6,2.42,2.42,0,0,1-.16-1,4.34,4.34,0,0,1,.51-2,7.28,7.28,0,0,1,1.32-1.83,7.42,7.42,0,0,1,1.82-1.35,4.33,4.33,0,0,1,2-.52,3.29,3.29,0,0,1,1,.16,3.51,3.51,0,0,1,1,.54Z"/><path class="cls-4" d="M1162,618.93a17.32,17.32,0,0,1,2.21,1.77,8.16,8.16,0,0,1,1.28,1.51,4.42,4.42,0,0,1,.59,1.32,5,5,0,0,1,.15,1.19A3.46,3.46,0,0,1,1166,626a2.85,2.85,0,0,1-.66,1,3,3,0,0,1-1.07.68,4,4,0,0,1-1.49.25,2.71,2.71,0,0,1-2.17-.82,2.83,2.83,0,0,1-.7-1.93,4.65,4.65,0,0,1,.07-.83,5.77,5.77,0,0,1,.26-.9,11.06,11.06,0,0,1,.5-1.1c.2-.4.47-.88.8-1.42l-.47-.33Zm.64,2.62a16.11,16.11,0,0,0-1,1.78,3.47,3.47,0,0,0-.39,1.46,1.27,1.27,0,0,0,.4.93,1.81,1.81,0,0,0,1.3.41,2.27,2.27,0,0,0,1.35-.37,1.36,1.36,0,0,0,.61-1,2.87,2.87,0,0,0-.48-1.5A6.94,6.94,0,0,0,1162.67,621.55Z"/><path class="cls-4" d="M1177.7,624.12a3.72,3.72,0,0,1-.44,1.91,3.05,3.05,0,0,1-1.15,1.16,5,5,0,0,1-1.65.59,12.44,12.44,0,0,1-2,.16,7.25,7.25,0,0,1-2-.25,3.49,3.49,0,0,1-1.53-1l.84-1.41a3.15,3.15,0,0,0,1.28.64,6.92,6.92,0,0,0,1.54.15,6.35,6.35,0,0,0,2.73-.47c.62-.31.94-.7.94-1.16a2.4,2.4,0,0,0-.19-.83,4.74,4.74,0,0,0-.63-1.14,9.91,9.91,0,0,0-1.2-1.36,13.86,13.86,0,0,0-1.89-1.5l.74-1.81a12.06,12.06,0,0,1,1.69,1.25,10.91,10.91,0,0,1,1.48,1.57,8,8,0,0,1,1,1.75A4.49,4.49,0,0,1,1177.7,624.12Z"/><path class="cls-4" d="M1184.46,627.69a3.42,3.42,0,0,1-1.85-.42,2.51,2.51,0,0,1-1-1.09,4.52,4.52,0,0,1-.38-1.54c0-.57-.07-1.16-.08-1.75,0-.85-.06-1.76-.06-2.74s0-2-.05-3l-.09-3.08c0-1-.08-2-.15-3l1.59-.74c0,1.34.08,2.53.1,3.59s0,2,0,3,0,1.81,0,2.65,0,1.72,0,2.62c0,.5,0,1,.07,1.4a3.45,3.45,0,0,0,.22,1.14,1.67,1.67,0,0,0,.58.77,1.88,1.88,0,0,0,1.11.28h.8v1.91Z"/><path class="cls-4" d="M1198.24,623.68a7,7,0,0,0-2,.36,9.79,9.79,0,0,0-1.56.65c-.74.42-1.4.8-2,1.17a15.65,15.65,0,0,1-1.74.95,9.72,9.72,0,0,1-1.86.64,9.55,9.55,0,0,1-2.26.24h-1.46a.48.48,0,0,1-.42-.27,1.25,1.25,0,0,1-.18-.7,1.19,1.19,0,0,1,.18-.68.49.49,0,0,1,.42-.26h1.53a9.81,9.81,0,0,0,2.23-.2,8.2,8.2,0,0,0,1.65-.55c.52-.24,1.08-.53,1.69-.88s1.4-.74,2.35-1.19a17.24,17.24,0,0,1-1.64-.59l-1.37-.6-1.06-.46a2.17,2.17,0,0,0-.73-.18,1.59,1.59,0,0,0-.82.32,7.44,7.44,0,0,0-1.23,1.24l-1-.62c.19-.31.42-.64.66-1a8.7,8.7,0,0,1,.78-.9,4.54,4.54,0,0,1,.85-.66,1.72,1.72,0,0,1,.85-.24,3.7,3.7,0,0,1,1.46.39l1.91.88a20.53,20.53,0,0,0,2.22.88,7.87,7.87,0,0,0,2.46.4h.49Zm-7.45,8.66-1.51-1.28,1.12-1.32,1.51,1.27Z"/><path class="cls-4" d="M1207,625a.92.92,0,0,1,.8.36,1.51,1.51,0,0,1,.26.93,1.42,1.42,0,0,1-.33,1,1.18,1.18,0,0,1-.9.36,1,1,0,0,1-.88-.41,1.81,1.81,0,0,1-.31-1.13,4.09,4.09,0,0,1,.63-2.21,7.54,7.54,0,0,1,1.84-1.94l.27.74a5.05,5.05,0,0,0-1.16,1.21,3,3,0,0,0-.49,1.11Z"/><path class="cls-4" d="M1216.82,625.56a4.7,4.7,0,0,1-.5,2.1,8.19,8.19,0,0,1-1.36,2,15.69,15.69,0,0,1-2,1.87q-1.2.91-2.55,1.83l-1.27-1.21a29.59,29.59,0,0,0,2.65-1.82,20.19,20.19,0,0,0,2-1.71,8.06,8.06,0,0,0,1.23-1.5,2.41,2.41,0,0,0,.42-1.21,2.82,2.82,0,0,0-.13-.74,6.55,6.55,0,0,0-.33-.89,10,10,0,0,0-.5-1q-.29-.49-.6-1l1.26-1.27a10.58,10.58,0,0,1,1.34,2.42A6.15,6.15,0,0,1,1216.82,625.56Z"/><path class="cls-4" d="M1223.57,627.69a3.41,3.41,0,0,1-1.84-.42,2.6,2.6,0,0,1-1-1.09,4.52,4.52,0,0,1-.37-1.54c0-.57-.07-1.16-.08-1.75,0-.85-.06-1.76-.06-2.74s0-2,0-3l-.09-3.08c0-1-.08-2-.15-3l1.58-.74c0,1.34.09,2.53.1,3.59s0,2,0,3,0,1.81,0,2.65,0,1.72,0,2.62c0,.5,0,1,.06,1.4a3.71,3.71,0,0,0,.23,1.14,1.6,1.6,0,0,0,.58.77,1.86,1.86,0,0,0,1.11.28h.8v1.91Z"/><path class="cls-4" d="M1224,632.22l-1.47-1.21,1.07-1.27L1225,631Zm3.76-7.5a3.44,3.44,0,0,0-.3-1.05,8.51,8.51,0,0,0-1-1.75l1.26-1.34a6.72,6.72,0,0,1,1.16,2,5.77,5.77,0,0,1,.37,1.89,2.92,2.92,0,0,1-1,2.37,4.45,4.45,0,0,1-3,.82h-.77a.51.51,0,0,1-.42-.27,1.34,1.34,0,0,1-.17-.7,1.27,1.27,0,0,1,.17-.68.52.52,0,0,1,.42-.26h.8a5.32,5.32,0,0,0,1.68-.24C1227.47,625.37,1227.71,625.1,1227.71,624.72Zm-.82,7.5-1.43-1.21,1.08-1.27L1228,631Z"/><path class="cls-4" d="M1237.64,627.69a3.62,3.62,0,0,1-.82-.09,1.53,1.53,0,0,1-.74-.41,4.88,4.88,0,0,1-.59,2,8.17,8.17,0,0,1-1.36,1.86,17.72,17.72,0,0,1-2,1.78c-.76.59-1.59,1.18-2.48,1.77l-1.26-1.21a31.1,31.1,0,0,0,2.65-1.82,20.19,20.19,0,0,0,2-1.71,8.65,8.65,0,0,0,1.22-1.5,2.41,2.41,0,0,0,.42-1.21,3.68,3.68,0,0,0-.43-1.55,21.2,21.2,0,0,0-1.13-2l1.29-1.26c.38.68.7,1.24.95,1.7a7.54,7.54,0,0,0,.72,1.07,2.19,2.19,0,0,0,.67.56,1.86,1.86,0,0,0,.83.16h.72v1.91Z"/><path class="cls-4" d="M1248.38,627.69a6.21,6.21,0,0,0-1.08.09,2.67,2.67,0,0,0-.89.3,1.78,1.78,0,0,0-.62.6,1.65,1.65,0,0,0-.23.92,2.34,2.34,0,0,0,.28,1,3.2,3.2,0,0,0,1,1.1l-.47,1.51a14.83,14.83,0,0,1-2.07-.78,8.41,8.41,0,0,1-1.72-1.1,6.36,6.36,0,0,1-1.32-1.54,6.9,6.9,0,0,1-.86-2.1h-2.1a.48.48,0,0,1-.42-.27,1.25,1.25,0,0,1-.18-.7,1.19,1.19,0,0,1,.18-.68.49.49,0,0,1,.42-.26h1.9a11,11,0,0,1,.41-2.61,11.65,11.65,0,0,1,.84-2.14,6.52,6.52,0,0,1,1-1.45,1.41,1.41,0,0,1,.89-.53,1.16,1.16,0,0,1,.8.4,3.83,3.83,0,0,1,.75,1,8,8,0,0,1,.55,1.48,6.6,6.6,0,0,1,.23,1.72,3.69,3.69,0,0,1-1.06,2.64,4.54,4.54,0,0,1-2.91,1.3,4.91,4.91,0,0,0,1,1.89,5.43,5.43,0,0,0,2.22,1.57,3.07,3.07,0,0,1-.4-1.17,3.57,3.57,0,0,1,0-.81,3.33,3.33,0,0,1,1.2-2.47,4.18,4.18,0,0,1,2.71-.87h.77v1.91Zm-4-3.74a4.56,4.56,0,0,0-.13-1.11,5.21,5.21,0,0,0-.34-1,2.84,2.84,0,0,0-.42-.68c-.15-.17-.27-.26-.37-.26s-.25.14-.45.41a5.65,5.65,0,0,0-.58,1.09,10.07,10.07,0,0,0-.49,1.57,8,8,0,0,0-.21,1.86,1.7,1.7,0,0,0,.37,0,3.64,3.64,0,0,0,1.82-.53A1.63,1.63,0,0,0,1244.39,624Z"/><path class="cls-4" d="M1259.07,626a3.31,3.31,0,0,1-1.16,1.26,3.46,3.46,0,0,1-1.81.42,3.7,3.7,0,0,1-1.77-.36,2.66,2.66,0,0,1-1.08-1.3,3.18,3.18,0,0,1-1.2,1.26,3.13,3.13,0,0,1-1.59.4h-1.29a.5.5,0,0,1-.42-.27,1.25,1.25,0,0,1-.17-.7,1.18,1.18,0,0,1,.17-.68.51.51,0,0,1,.42-.26h1.19a2.83,2.83,0,0,0,1.61-.44,1.87,1.87,0,0,0,.69-1.56v-1.14l1.39-.35a11,11,0,0,0,.1,1.66,2.86,2.86,0,0,0,.34,1.08,1.45,1.45,0,0,0,.65.58,2.38,2.38,0,0,0,1,.17,2.41,2.41,0,0,0,1.74-.52,2.53,2.53,0,0,0,.58-1.78v-.84l1.39-.35a5.86,5.86,0,0,0,.45,2.7,1.66,1.66,0,0,0,1.6.79,3.23,3.23,0,0,0,.61-.06,2.38,2.38,0,0,0,.57-.18,1.26,1.26,0,0,0,.42-.33.71.71,0,0,0,.16-.47,3.27,3.27,0,0,0-.31-1.07,8.62,8.62,0,0,0-1-1.75l1.28-1.34a6.76,6.76,0,0,1,1.17,2,6,6,0,0,1,.37,1.89,2.94,2.94,0,0,1-1,2.33,3.4,3.4,0,0,1-2.36.86,3.19,3.19,0,0,1-1.73-.42A2.59,2.59,0,0,1,1259.07,626Zm-1.71-6.12-1.43-1.21,1.06-1.26,1.44,1.21Zm1.14-2.9-1.38-1.13,1-1.24,1.36,1.19Zm1.83,2.9-1.43-1.21,1.06-1.26,1.44,1.21Z"/><path class="cls-4" d="M1285.84,627.69a3.65,3.65,0,0,1-2.38-.67,4.12,4.12,0,0,1-1.24-2,4.73,4.73,0,0,1-1.3.59,5.36,5.36,0,0,1-1.54.22,2.53,2.53,0,0,1-1.8-.63,2.31,2.31,0,0,1-.68-1.77,4.31,4.31,0,0,1,.93-2.66,10.11,10.11,0,0,1,3-2.44l-.3-1.26,2-1.46,1.19,6.19c.12.59.23,1.09.32,1.48a2.86,2.86,0,0,0,.4,1,1.28,1.28,0,0,0,.66.5,3.16,3.16,0,0,0,1.07.15h.37v2.85Zm-4.61-7.2a7.84,7.84,0,0,0-.86.45,6.94,6.94,0,0,0-.77.55,3.57,3.57,0,0,0-.58.59,1.36,1.36,0,0,0-.29.61.44.44,0,0,0,.27.41,1.62,1.62,0,0,0,.7.13,2.8,2.8,0,0,0,.55-.05,4.13,4.13,0,0,0,.61-.13,3.78,3.78,0,0,0,.52-.2,2.47,2.47,0,0,0,.35-.21Z"/><path class="cls-4" d="M1289.67,624.17a1.08,1.08,0,0,0-.11-.42,4.69,4.69,0,0,0-.32-.63c-.14-.24-.3-.49-.47-.75a8.39,8.39,0,0,0-.56-.77l1.86-2a8.08,8.08,0,0,1,1.39,2.29,6.23,6.23,0,0,1,.44,2.12,3.54,3.54,0,0,1-1,2.71,4.3,4.3,0,0,1-3,.93h-1.32c-.18,0-.33-.13-.44-.38a2.49,2.49,0,0,1-.17-1,2.54,2.54,0,0,1,.17-1c.11-.27.26-.4.44-.4h1.32a4.28,4.28,0,0,0,1.31-.16C1289.51,624.57,1289.67,624.4,1289.67,624.17Zm-.12-5.84-1.88-1.58,1.51-1.79,1.88,1.59Z"/><path class="cls-4" d="M1298.86,627.69a3.55,3.55,0,0,1-1.86-.43,2.9,2.9,0,0,1-1.06-1.14,4.75,4.75,0,0,1-.5-1.61,18.46,18.46,0,0,1-.15-1.85c0-.76-.06-1.61-.07-2.55s0-1.9-.06-2.89-.06-2-.1-3-.1-1.92-.16-2.78l2.3-1.11c0,.92,0,1.88,0,2.86s0,2,0,2.93,0,1.94.07,2.9.05,1.86.07,2.72c0,.4,0,.78,0,1.15a4.08,4.08,0,0,0,.17,1,1.32,1.32,0,0,0,.49.68,1.62,1.62,0,0,0,1,.25h1v2.85Z"/><path class="cls-4" d="M1312.62,624.12a9.15,9.15,0,0,0-1.92.24,6.27,6.27,0,0,0-1.42.51q-1.11.58-2,1.11a17.48,17.48,0,0,1-1.68.9,8.68,8.68,0,0,1-1.71.6,9.19,9.19,0,0,1-2.08.21h-1.76c-.18,0-.33-.13-.45-.38a2.66,2.66,0,0,1-.17-1,2.72,2.72,0,0,1,.17-1c.12-.27.27-.4.45-.4h1.83a11.85,11.85,0,0,0,1.73-.1,6.55,6.55,0,0,0,1.34-.32c.43-.15.89-.34,1.39-.57l1.88-.86c-.38-.12-.75-.25-1.11-.4l-1-.41-.83-.32a1.8,1.8,0,0,0-.53-.14,1.24,1.24,0,0,0-.64.25,6.05,6.05,0,0,0-1.07,1.09l-1.58-.92A10.24,10.24,0,0,1,1303,620a2.36,2.36,0,0,1,1.68-.9,3.93,3.93,0,0,1,1.51.38l1.87.8a22.21,22.21,0,0,0,2.14.8,7.39,7.39,0,0,0,2.33.38h.69Zm-7.57-7.08-1.89-1.58,1.51-1.78,1.89,1.58Z"/><path class="cls-4" d="M1320.64,625.26a5.07,5.07,0,0,1-.49,2.19,8.29,8.29,0,0,1-1.35,2,15.39,15.39,0,0,1-2,1.88c-.78.61-1.62,1.21-2.53,1.79l-1.9-1.81c.91-.55,1.74-1.09,2.5-1.64a18,18,0,0,0,1.93-1.56,8.73,8.73,0,0,0,1.24-1.38,1.7,1.7,0,0,0,.32-1.77,6.58,6.58,0,0,0-.33-.84,9.73,9.73,0,0,0-.51-.94c-.2-.33-.41-.64-.62-1l1.86-1.85a11.68,11.68,0,0,1,1.47,2.71A6.54,6.54,0,0,1,1320.64,625.26Z"/><path class="cls-4" d="M1327.62,627.69a3.54,3.54,0,0,1-1.85-.43,2.93,2.93,0,0,1-1.07-1.14,4.74,4.74,0,0,1-.49-1.61,14,14,0,0,1-.15-1.85c0-.76-.06-1.61-.08-2.55s0-1.9-.06-2.89-.06-2-.1-3-.09-1.92-.16-2.78l2.3-1.11c0,.92,0,1.88,0,2.86s0,2,0,2.93,0,1.94.07,2.9.05,1.86.06,2.72c0,.4,0,.78,0,1.15a3.3,3.3,0,0,0,.17,1,1.37,1.37,0,0,0,.48.68,1.67,1.67,0,0,0,1,.25h1v2.85Z"/><path class="cls-4" d="M1340,614.1q-2.36,1-4.35,2c-1.33.68-2.41,1.28-3.25,1.79a14.56,14.56,0,0,1,2.52,2.84,5.09,5.09,0,0,1,.87,2.8,4,4,0,0,1-.36,1.73,4.08,4.08,0,0,1-1,1.3,4.5,4.5,0,0,1-1.55.82,6.6,6.6,0,0,1-2,.29h-2c-.19,0-.33-.13-.45-.38a2.49,2.49,0,0,1-.17-1,2.54,2.54,0,0,1,.17-1c.12-.27.26-.4.45-.4H1331a4.58,4.58,0,0,0,1.89-.3,1.79,1.79,0,0,0,.88-.74,3.34,3.34,0,0,0-.37-1,6.24,6.24,0,0,0-.77-1.07,15.27,15.27,0,0,0-1.21-1.22l-1.68-1.52a13.11,13.11,0,0,1,.23-1.79,1.33,1.33,0,0,1,.41-.79q1.71-1.14,4.27-2.5t5.68-2.8Z"/><path class="cls-4" d="M814.73,643.29a15.64,15.64,0,0,1,.86,1.59c.25.52.48,1,.67,1.5a4.29,4.29,0,0,1,.33-1.2,3.53,3.53,0,0,1,.65-1,3.36,3.36,0,0,1,1-.72,2.73,2.73,0,0,1,1.22-.27,3.31,3.31,0,0,1,1.38.32,3.82,3.82,0,0,1,1.24.92l-.59,1.11a4.64,4.64,0,0,0-1.08-.49,3.75,3.75,0,0,0-1-.13,1.72,1.72,0,0,0-.71.17,2,2,0,0,0-.64.44,2.37,2.37,0,0,0-.46.66,1.75,1.75,0,0,0-.17.79,1.25,1.25,0,0,0,.62,1,2.71,2.71,0,0,0,1.61.43,5.65,5.65,0,0,0,1.53-.21,5.19,5.19,0,0,0,1.46-.68l.55,1.24a3.82,3.82,0,0,1-.74.61,4.61,4.61,0,0,1-.94.48,7.11,7.11,0,0,1-1,.32,5,5,0,0,1-1.09.13,4.19,4.19,0,0,1-1.2-.17,2.19,2.19,0,0,1-1-.58,20,20,0,0,1,.7,4.4q.12,2.41.12,5.16h-1.14c0-1.52-.08-2.92-.18-4.2a27.24,27.24,0,0,0-.54-3.6,20.62,20.62,0,0,0-2.42-6.21Z"/><path class="cls-4" d="M826.91,643.29a21.19,21.19,0,0,1,1.82,3.72,20.74,20.74,0,0,1,1,3.74,31.59,31.59,0,0,1,.39,4c0,1.37.07,2.84.07,4.41H829c0-1.52-.08-2.92-.18-4.2a31.7,31.7,0,0,0-.51-3.61,20.06,20.06,0,0,0-.94-3.22,21.34,21.34,0,0,0-1.46-3Z"/><path class="cls-4" d="M840.05,659.25a7.35,7.35,0,0,1-1-1.67,12.1,12.1,0,0,1-.66-2,16.66,16.66,0,0,1-.38-2.19c-.08-.76-.13-1.53-.15-2.3l-.66,0h-.73a9.89,9.89,0,0,1-1.53-.11,3.07,3.07,0,0,1-1.14-.41,2,2,0,0,1-.72-.82,3.12,3.12,0,0,1-.25-1.31,5.51,5.51,0,0,1,.3-1.71,7.55,7.55,0,0,1,.79-1.7,5.39,5.39,0,0,1,1.15-1.3,2.26,2.26,0,0,1,1.4-.51,2.18,2.18,0,0,1,2,1.36,10.27,10.27,0,0,1,.7,4.4c0,.7,0,1.41,0,2.16a16.25,16.25,0,0,0,.23,2.2,11.06,11.06,0,0,0,.57,2.12,6.82,6.82,0,0,0,1.07,1.89Zm-2.13-9.92a14.63,14.63,0,0,0-.08-1.69,6.21,6.21,0,0,0-.28-1.32,2.25,2.25,0,0,0-.48-.87,1,1,0,0,0-.72-.31,1.38,1.38,0,0,0-.82.31,3,3,0,0,0-.72.77,4.14,4.14,0,0,0-.5,1,3.39,3.39,0,0,0-.18,1,1,1,0,0,0,.64.83,4.45,4.45,0,0,0,1.73.26h.77Z"/><path class="cls-4" d="M860.75,652a4.86,4.86,0,0,0-.78-.31,3,3,0,0,0-.78-.11,3.2,3.2,0,0,0-1.44.36,5.83,5.83,0,0,0-1.3.88,5.19,5.19,0,0,0-1,1.11,2.05,2.05,0,0,0-.37,1.06.57.57,0,0,0,.33.5,5.08,5.08,0,0,0,1.11.3l1.32.22c.42.07.8.13,1.13.2a2.54,2.54,0,0,1,1.43.63,1.79,1.79,0,0,1,.4,1.27,2.76,2.76,0,0,1-.73,1.76,7.26,7.26,0,0,1-1.92,1.56,11.94,11.94,0,0,1-2.69,1.12,11.22,11.22,0,0,1-3,.42,7.18,7.18,0,0,1-2.39-.38,4.81,4.81,0,0,1-3-2.79,6,6,0,0,1-.42-2.31,7.41,7.41,0,0,1,.32-2.25,8.84,8.84,0,0,1,1-2.08l1.13.55a8.79,8.79,0,0,0-.76,1.71,5.11,5.11,0,0,0-.28,1.65,3.78,3.78,0,0,0,1.19,2.94,4.84,4.84,0,0,0,3.37,1.07,10.28,10.28,0,0,0,2.54-.3,11.42,11.42,0,0,0,2.06-.75,6.65,6.65,0,0,0,1.44-.89,2.53,2.53,0,0,0,.67-.73.52.52,0,0,0-.24-.31,3.16,3.16,0,0,0-.83-.23l-2.27-.38a5.6,5.6,0,0,1-.91-.19,2.31,2.31,0,0,1-.7-.36,1.57,1.57,0,0,1-.46-.61,2.41,2.41,0,0,1-.16-1,4.31,4.31,0,0,1,.51-2,7.1,7.1,0,0,1,1.32-1.83,6.78,6.78,0,0,1,1.82-1.35,4.21,4.21,0,0,1,2-.52,3,3,0,0,1,1,.16,3.46,3.46,0,0,1,1,.53Z"/><path class="cls-4" d="M868,656.5a4.76,4.76,0,0,1-.49,2.11,8.71,8.71,0,0,1-1.36,2,17.37,17.37,0,0,1-2.06,1.87q-1.18.91-2.55,1.83l-1.26-1.22a31.12,31.12,0,0,0,2.65-1.81,25,25,0,0,0,2-1.71,8.65,8.65,0,0,0,1.22-1.5,2.44,2.44,0,0,0,.42-1.21,2.77,2.77,0,0,0-.12-.75,7.24,7.24,0,0,0-.34-.89c-.14-.31-.3-.63-.49-1s-.39-.65-.61-1L866.2,652a10.1,10.1,0,0,1,1.33,2.41A6.2,6.2,0,0,1,868,656.5Z"/><path class="cls-4" d="M874.36,658.63a3.41,3.41,0,0,1-1.84-.42,2.54,2.54,0,0,1-1-1.09,4.41,4.41,0,0,1-.37-1.53c0-.58-.07-1.17-.08-1.76,0-.84-.06-1.75-.07-2.73s0-2,0-3-.05-2.05-.08-3.08-.08-2-.15-3l1.58-.75c0,1.34.09,2.54.1,3.59s0,2.05,0,3,0,1.81,0,2.65,0,1.72,0,2.63c0,.49,0,1,.06,1.4a3.71,3.71,0,0,0,.23,1.13,1.56,1.56,0,0,0,.58.77,1.86,1.86,0,0,0,1.11.29h.79v1.9Z"/><path class="cls-4" d="M887.78,658.63a6.38,6.38,0,0,1-1.32-.11,2.38,2.38,0,0,1-1-.42,2.64,2.64,0,0,1-.77-.87,7.73,7.73,0,0,1-.63-1.42c-.65.4-1.24.77-1.77,1.12a16.38,16.38,0,0,1-1.62.9,8.88,8.88,0,0,1-1.76.59,10,10,0,0,1-2.16.21H875.3a.51.51,0,0,1-.42-.27,1.31,1.31,0,0,1-.17-.69,1.24,1.24,0,0,1,.17-.68.5.5,0,0,1,.42-.26h1.54a10.42,10.42,0,0,0,2.23-.2,7.77,7.77,0,0,0,1.64-.57c.52-.25,1.09-.55,1.7-.92s1.39-.77,2.35-1.23c-.59-.19-1.15-.38-1.66-.57l-1.38-.56c-.42-.17-.77-.32-1.07-.43a2.05,2.05,0,0,0-.69-.18,1.5,1.5,0,0,0-.82.33,7.24,7.24,0,0,0-1.24,1.23l-1-.62c.2-.31.42-.63.67-1a8.7,8.7,0,0,1,.78-.9,3.58,3.58,0,0,1,.84-.66,1.69,1.69,0,0,1,.86-.25,3.78,3.78,0,0,1,1.41.37l1.88.81c.69.29,1.44.55,2.25.8a8.46,8.46,0,0,0,2.5.37h.5l-.4,1.86a7.34,7.34,0,0,0-1.59.26,8.14,8.14,0,0,0-1.33.48,3.64,3.64,0,0,0,.52.88,1.87,1.87,0,0,0,.58.46,1.7,1.7,0,0,0,.67.17q.36,0,.78,0h1.93v1.9Zm-7.08,4.66L879.19,662l1.11-1.31,1.51,1.26Z"/><path class="cls-4" d="M892.91,655.66a3.44,3.44,0,0,0-.3-1,8.38,8.38,0,0,0-1-1.74l1.27-1.34a6.82,6.82,0,0,1,1.16,2,5.76,5.76,0,0,1,.37,1.88,3,3,0,0,1-.95,2.38,4.51,4.51,0,0,1-3,.81h-.77a.51.51,0,0,1-.42-.27,1.31,1.31,0,0,1-.17-.69,1.24,1.24,0,0,1,.17-.68.5.5,0,0,1,.42-.26h.79a5.32,5.32,0,0,0,1.69-.25C892.67,656.31,892.91,656,892.91,655.66Zm-1.59-6.06-1.46-1.22,1.06-1.26,1.44,1.21Zm2.95,0-1.44-1.22,1.09-1.26,1.41,1.21Z"/><path class="cls-4" d="M901.52,656a.92.92,0,0,1,.8.36,1.51,1.51,0,0,1,.26.93,1.4,1.4,0,0,1-.33,1,1.16,1.16,0,0,1-.9.36,1,1,0,0,1-.88-.41,1.78,1.78,0,0,1-.31-1.12,4.1,4.1,0,0,1,.63-2.22,7.88,7.88,0,0,1,1.84-1.94l.28.74a5,5,0,0,0-1.17,1.22,3,3,0,0,0-.49,1.11A.91.91,0,0,1,901.52,656Z"/><path class="cls-4" d="M907,655c0,.81.52,1.38,1.55,1.7a16.23,16.23,0,0,0,4.54.48c.73,0,1.47,0,2.23-.07s1.5-.12,2.21-.2,1.39-.18,2-.3a12.09,12.09,0,0,0,1.62-.39,4.82,4.82,0,0,0,1.4-.66,1.4,1.4,0,0,0,.46-.51,4.93,4.93,0,0,0-.3-1,8,8,0,0,0-1-1.68l1.29-1.33a6.74,6.74,0,0,1,1.06,1.94,5.7,5.7,0,0,1,.35,1.82,2.56,2.56,0,0,1-.38,1.41,3.44,3.44,0,0,1-1,1,5.41,5.41,0,0,1-1.41.67,11.48,11.48,0,0,1-1.58.41c-.55.13-1.14.25-1.79.35s-1.29.18-2,.25-1.3.11-1.93.13-1.18,0-1.66,0c-.92,0-1.82,0-2.67-.11a8.4,8.4,0,0,1-2.29-.5,3.56,3.56,0,0,1-1.6-1.14,3.12,3.12,0,0,1-.59-2,5.33,5.33,0,0,1,.17-1.24,5.59,5.59,0,0,1,.62-1.54l1.14.45a8.09,8.09,0,0,0-.4,1.16A3.69,3.69,0,0,0,907,655Zm4.7,7.18,1.09-1.28,1.42,1.23-1,1.27Zm1.89,2.8,1-1.21L916,665l-1,1.21Zm1.09-2.8,1.08-1.28,1.42,1.23-1,1.27Z"/><path class="cls-4" d="M932.61,656a8.22,8.22,0,0,0-.76,1.7,5.18,5.18,0,0,0-.28,1.67,3.74,3.74,0,0,0,1.19,2.92,4.75,4.75,0,0,0,3.29,1.06,6.66,6.66,0,0,0,2.16-.33,4.54,4.54,0,0,0,1.63-1,4.26,4.26,0,0,0,1-1.49,5,5,0,0,0,.37-1.95,6.08,6.08,0,0,0-.38-2,10.53,10.53,0,0,0-1-2.13l1.38-1.19.76,1.42a6.3,6.3,0,0,0,.69,1.08,2.58,2.58,0,0,0,.78.68,2.08,2.08,0,0,0,1,.24,2.47,2.47,0,0,0,1.73-.52,2.42,2.42,0,0,0,.57-1.79v-.84l1.41-.34a6,6,0,0,0,.44,2.7,1.67,1.67,0,0,0,1.59.79,3.23,3.23,0,0,0,.61-.06,2.93,2.93,0,0,0,.57-.19,1.23,1.23,0,0,0,.42-.32.71.71,0,0,0,.16-.47,3.61,3.61,0,0,0-.29-1.08,8.38,8.38,0,0,0-1-1.74l1.26-1.34a6.64,6.64,0,0,1,1.17,2,6,6,0,0,1,.37,1.88,3,3,0,0,1-.94,2.34,3.4,3.4,0,0,1-2.38.85,2.63,2.63,0,0,1-2.72-1.68,3.11,3.11,0,0,1-2.9,1.68,2.39,2.39,0,0,1-1.86-.69,3.43,3.43,0,0,1,.07.56,4.52,4.52,0,0,1,0,.53,7.27,7.27,0,0,1-.57,2.52,5.68,5.68,0,0,1-1.37,2,6.07,6.07,0,0,1-2.12,1.26,8.08,8.08,0,0,1-2.79.45,7.1,7.1,0,0,1-2.32-.37,5.22,5.22,0,0,1-1.81-1.08,4.9,4.9,0,0,1-1.17-1.73,6.11,6.11,0,0,1-.42-2.32,7.37,7.37,0,0,1,.32-2.23,9.5,9.5,0,0,1,1-2.1Z"/><path class="cls-4" d="M957.86,658.39l-1.58.37V642.05l1.58-.75Z"/><path class="cls-4" d="M968.86,639.5a3.7,3.7,0,0,1-1.32,1.12,3.24,3.24,0,0,1-1.48.39,5.35,5.35,0,0,1-1.39-.18,4.92,4.92,0,0,0-1.16-.17,1.08,1.08,0,0,0-.55.16,4.39,4.39,0,0,0-.64.51l-.69-.84a6.5,6.5,0,0,1,1-.94,1.51,1.51,0,0,1,.84-.28,4.29,4.29,0,0,1,1.19.2,4.69,4.69,0,0,0,1.31.2,2.94,2.94,0,0,0,1.17-.22,4.39,4.39,0,0,0,1.16-.82Zm-4,19.28q-.07-4-.13-7.92t-.14-7.92l1.59-.67v16.12Z"/><path class="cls-4" d="M985.59,658.63l-1.49,0-.94,0a4.44,4.44,0,0,0-1.38.16q-.42.16-.42.36a.25.25,0,0,0,.15.23,3.69,3.69,0,0,0,.69.19l2.18.5a2.43,2.43,0,0,1,1.07.49,1.16,1.16,0,0,1,.36.9,2.31,2.31,0,0,1-.68,1.62,6.16,6.16,0,0,1-1.76,1.26,10.26,10.26,0,0,1-2.4.82,12.19,12.19,0,0,1-2.58.28A7.22,7.22,0,0,1,976,665a5,5,0,0,1-1.83-1.08,4.76,4.76,0,0,1-1.18-1.72,5.93,5.93,0,0,1-.42-2.3,7.41,7.41,0,0,1,.32-2.25,8.65,8.65,0,0,1,1-2.08l1.13.54a9.07,9.07,0,0,0-.76,1.71,5.45,5.45,0,0,0-.28,1.66,3.75,3.75,0,0,0,1.19,2.93,4.86,4.86,0,0,0,3.37,1.08,11.11,11.11,0,0,0,2.25-.21,10.37,10.37,0,0,0,1.76-.51,6.92,6.92,0,0,0,1.19-.59,3.35,3.35,0,0,0,.59-.47.91.91,0,0,0-.28-.19,2.62,2.62,0,0,0-.53-.16l-2.06-.49a3.22,3.22,0,0,1-1.19-.54,1.28,1.28,0,0,1-.42-1.07,2.16,2.16,0,0,1,1-1.86,5.66,5.66,0,0,1,3.17-.69h1.78v1.9Z"/><path class="cls-4" d="M989,655.66a3.44,3.44,0,0,0-.3-1,8.38,8.38,0,0,0-1-1.74l1.27-1.34a6.82,6.82,0,0,1,1.16,2,5.76,5.76,0,0,1,.37,1.88,3,3,0,0,1-1,2.38,4.51,4.51,0,0,1-3,.81h-.77a.51.51,0,0,1-.42-.27,1.31,1.31,0,0,1-.17-.69,1.24,1.24,0,0,1,.17-.68.5.5,0,0,1,.42-.26h.79a5.32,5.32,0,0,0,1.69-.25C988.77,656.31,989,656,989,655.66Zm-.1-6.06-1.51-1.29,1.11-1.31,1.51,1.26Z"/><path class="cls-4" d="M999.82,658.63a6.66,6.66,0,0,1-.84,1.91,10.5,10.5,0,0,1-1.41,1.73,18.25,18.25,0,0,1-1.89,1.64c-.7.52-1.46,1.05-2.27,1.58l-1.24-1.19a33.17,33.17,0,0,0,4.29-3.19,7.25,7.25,0,0,0,2-2.65,7.5,7.5,0,0,1-1.32.26q-.63.06-1.05.06a2.71,2.71,0,0,1-1.86-.64,2.4,2.4,0,0,1-.74-1.93,5.25,5.25,0,0,1,.23-1.55,5.67,5.67,0,0,1,.64-1.41,3.91,3.91,0,0,1,1-1,2.09,2.09,0,0,1,1.24-.41,2.45,2.45,0,0,1,1.39.42,3.65,3.65,0,0,1,1,1.1,5.63,5.63,0,0,1,.65,1.58,9.19,9.19,0,0,1,.29,1.83h1.85v1.9Zm-1.26-1.88a6.48,6.48,0,0,0-.25-1.21,4.37,4.37,0,0,0-.43-1,2,2,0,0,0-.62-.68,1.35,1.35,0,0,0-.8-.25,1,1,0,0,0-.63.2,2.19,2.19,0,0,0-.51.5,2.58,2.58,0,0,0-.35.68,2.36,2.36,0,0,0-.12.72,1.17,1.17,0,0,0,.41,1,1.77,1.77,0,0,0,1.15.33,11.05,11.05,0,0,0,1.11-.06A6.48,6.48,0,0,0,998.56,656.75Z"/><path class="cls-4" d="M1013.76,658.63a3.8,3.8,0,0,1-1.19-.18,4.21,4.21,0,0,1-1.14-.65,12.37,12.37,0,0,1-1.33-1.22c-.5-.51-1.09-1.16-1.79-1.93a2.48,2.48,0,0,1-.07,1,3.15,3.15,0,0,1-1.47,2.22,5.56,5.56,0,0,1-3.08.8h-1.84a.51.51,0,0,1-.42-.27,1.31,1.31,0,0,1-.17-.69,1.24,1.24,0,0,1,.17-.68.5.5,0,0,1,.42-.26h2a4.21,4.21,0,0,0,2.42-.58,2.12,2.12,0,0,0,1-1.25,3.54,3.54,0,0,0-.33-1.17,6.17,6.17,0,0,0-.8-1.22,15.28,15.28,0,0,0-1.34-1.43c-.53-.51-1.17-1.09-1.92-1.75a8.23,8.23,0,0,1,.23-1.44,1.07,1.07,0,0,1,.34-.59c.5-.33,1.1-.71,1.8-1.12s1.47-.85,2.32-1.31,1.75-.93,2.7-1.41,1.91-1,2.89-1.41l-.23,2c-.82.37-1.65.75-2.47,1.15s-1.61.81-2.34,1.2-1.41.78-2,1.13-1.14.67-1.55,1c.56.5,1.14,1,1.72,1.65s1.17,1.21,1.76,1.83,1.16,1.24,1.73,1.85,1.12,1.16,1.65,1.65a4.91,4.91,0,0,0,1.26,1,2.71,2.71,0,0,0,1.22.29h.89v1.9Z"/><path class="cls-4" d="M1032.7,658.63a4,4,0,0,1-1.83-.37,2.4,2.4,0,0,1-1.14-1.29,2.85,2.85,0,0,1-2.65,1.66,2.54,2.54,0,0,1-1.45-.41,2.73,2.73,0,0,1-1-1.27,3.33,3.33,0,0,1-1.17,1.26,3.43,3.43,0,0,1-1.8.42,3.65,3.65,0,0,1-1.77-.36,2.57,2.57,0,0,1-1.08-1.3,3.28,3.28,0,0,1-1.2,1.27,3.24,3.24,0,0,1-1.6.39h-1.28a.48.48,0,0,1-.42-.27,1.22,1.22,0,0,1-.18-.69,1.16,1.16,0,0,1,.18-.68.47.47,0,0,1,.42-.26h1.18a2.73,2.73,0,0,0,1.61-.45,1.9,1.9,0,0,0,.7-1.56v-1.14l1.38-.34a12.62,12.62,0,0,0,.1,1.66,2.86,2.86,0,0,0,.35,1.07,1.37,1.37,0,0,0,.64.58,2.43,2.43,0,0,0,1,.18,2.49,2.49,0,0,0,1.75-.52,2.61,2.61,0,0,0,.58-1.79v-.84l1.39-.34a5.88,5.88,0,0,0,.44,2.7,1.5,1.5,0,0,0,1.39.79,1.94,1.94,0,0,0,1.28-.45,2,2,0,0,0,.6-1.56v-1.14l1.39-.34a11.78,11.78,0,0,0,.09,1.57,2.75,2.75,0,0,0,.38,1.09,1.52,1.52,0,0,0,.74.63,3.18,3.18,0,0,0,1.21.2h.89v1.9Z"/><path class="cls-4" d="M1040.35,651.68a1.76,1.76,0,0,1,1.16.43,3.91,3.91,0,0,1,.89,1.1,5.84,5.84,0,0,1,.57,1.5,7.16,7.16,0,0,1,.2,1.65,2.31,2.31,0,0,1-.19.9,2.79,2.79,0,0,1-.48.8,2.57,2.57,0,0,1-.67.57,1.43,1.43,0,0,1-.76.23,3.67,3.67,0,0,1-.86-.13,7.18,7.18,0,0,1-1-.33,7.33,7.33,0,0,1-1-.52,9.4,9.4,0,0,1-.94-.68,3.44,3.44,0,0,1-1.36,1.14,4.63,4.63,0,0,1-1.71.29h-.4a.51.51,0,0,1-.42-.29,1.34,1.34,0,0,1-.17-.65,1.36,1.36,0,0,1,.17-.67.51.51,0,0,1,.42-.29h.4a4.37,4.37,0,0,0,1.42-.24,2.15,2.15,0,0,0,1.18-1.1c.29-.51.58-1,.85-1.45a9.86,9.86,0,0,1,.83-1.19,3.77,3.77,0,0,1,.88-.79A1.82,1.82,0,0,1,1040.35,651.68Zm-.2,1.8a1.41,1.41,0,0,0-1.08.66,9.54,9.54,0,0,0-1,1.67,5.67,5.67,0,0,0,1.6.94,4,4,0,0,0,1.37.3.8.8,0,0,0,.52-.22.66.66,0,0,0,.25-.5,3.86,3.86,0,0,0-.14-1,4.72,4.72,0,0,0-.36-.93,2.29,2.29,0,0,0-.53-.68A1,1,0,0,0,1040.15,653.48Z"/><path class="cls-4" d="M1058.3,658.63a13.19,13.19,0,0,1-1.5-.08,6.13,6.13,0,0,1-1.21-.29,5.16,5.16,0,0,1-1-.49,6.72,6.72,0,0,1-.94-.72,11.19,11.19,0,0,0-2.43,2.43,4.66,4.66,0,0,0-.94,2.79,4.77,4.77,0,0,0,.31,1.75,3.62,3.62,0,0,0,1,1.41,5.16,5.16,0,0,0,1.86,1,9.92,9.92,0,0,0,2.81.35,19.27,19.27,0,0,0,2.51-.16,14.86,14.86,0,0,0,2.24-.49l.45,1.59a17,17,0,0,1-2.83.75,15.07,15.07,0,0,1-2.64.24,11.35,11.35,0,0,1-2.79-.33,6.55,6.55,0,0,1-2.26-1.06,5,5,0,0,1-1.52-1.88,6.41,6.41,0,0,1-.56-2.85,6.34,6.34,0,0,1,1-3.54,13.09,13.09,0,0,1,2.71-2.92l-1.5-1.49c-.52-.52-1.06-1-1.64-1.53l.32-2,1-.22c.38-.08.78-.16,1.2-.23s.84-.14,1.26-.18.82-.06,1.2-.06a5,5,0,0,1,2.71.57,1.89,1.89,0,0,1,.85,1.68,2.9,2.9,0,0,1-.6,1.56,8.39,8.39,0,0,1-2.14,2,3.3,3.3,0,0,0,1.48.54c.51.05,1,.08,1.56.08h1.64v1.9Zm-1.79-5.76a1.36,1.36,0,0,0-.62-.59,3.67,3.67,0,0,0-1.7-.28,13,13,0,0,0-1.72.12,11,11,0,0,0-1.55.32c.69.63,1.27,1.18,1.73,1.64s.89.88,1.29,1.26a18.13,18.13,0,0,0,1.71-1.29A2.45,2.45,0,0,0,1056.51,652.87Z"/><path class="cls-4" d="M1071.34,658.63a2.09,2.09,0,0,1-1.42-.48,5.25,5.25,0,0,1-1-1.25,2.25,2.25,0,0,1-.67,1.46,1.65,1.65,0,0,1-1.11.5,3.75,3.75,0,0,1-.86-.13,7.18,7.18,0,0,1-1-.33,8,8,0,0,1-1-.52,10.72,10.72,0,0,1-.94-.68,3.47,3.47,0,0,1-1.37,1.14,4.65,4.65,0,0,1-1.7.29h-.39a.51.51,0,0,1-.43-.29,1.34,1.34,0,0,1-.17-.65,1.36,1.36,0,0,1,.17-.67.51.51,0,0,1,.43-.29h.39a4.47,4.47,0,0,0,1.43-.24,2.1,2.1,0,0,0,1.17-1.1l.85-1.45a11.14,11.14,0,0,1,.83-1.19,4,4,0,0,1,.88-.79,1.82,1.82,0,0,1,1-.28,1.78,1.78,0,0,1,1,.31,2.75,2.75,0,0,1,.8.88c.37.59.67,1.13.91,1.6a11.65,11.65,0,0,0,.68,1.22,2.73,2.73,0,0,0,.7.76,1.7,1.7,0,0,0,1,.28h.67v1.9Zm-5.15-5.15a1.37,1.37,0,0,0-1.07.66,9.53,9.53,0,0,0-1,1.67,5.67,5.67,0,0,0,1.6.94,4.05,4.05,0,0,0,1.37.3.78.78,0,0,0,.52-.22.66.66,0,0,0,.25-.5,3.83,3.83,0,0,0-.13-1,6.41,6.41,0,0,0-.36-.93,2.32,2.32,0,0,0-.54-.68A1,1,0,0,0,1066.19,653.48Z"/><path class="cls-4" d="M1079.29,658.63a4.06,4.06,0,0,1-1.85-.37,2.64,2.64,0,0,1-1.15-1.26,3.3,3.3,0,0,1-1.22,1.24,3.9,3.9,0,0,1-1.85.39h-1a.48.48,0,0,1-.42-.27,1.22,1.22,0,0,1-.18-.69,1.16,1.16,0,0,1,.18-.68.47.47,0,0,1,.42-.26h1a2.94,2.94,0,0,0,1.8-.46,2.32,2.32,0,0,0,.65-1.75l0-.94,1.38-.34a12.62,12.62,0,0,0,.1,1.66,2.54,2.54,0,0,0,.38,1.07,1.45,1.45,0,0,0,.75.58,3.64,3.64,0,0,0,1.25.18h1v1.9Zm-4.41-7.3-1.46-1.21,1.07-1.27,1.43,1.22Zm2.95,0-1.44-1.21,1.09-1.27,1.41,1.22Z"/><path class="cls-4" d="M1093,658.63a6.38,6.38,0,0,1-1.32-.11,2.44,2.44,0,0,1-1-.42,2.64,2.64,0,0,1-.77-.87,7.73,7.73,0,0,1-.63-1.42l-1.77,1.12a16.38,16.38,0,0,1-1.62.9,8.88,8.88,0,0,1-1.76.59,10,10,0,0,1-2.15.21h-1.46a.51.51,0,0,1-.43-.27,1.31,1.31,0,0,1-.17-.69,1.24,1.24,0,0,1,.17-.68.5.5,0,0,1,.43-.26h1.53a10.42,10.42,0,0,0,2.23-.2,7.4,7.4,0,0,0,1.64-.57c.52-.25,1.09-.55,1.7-.92s1.4-.77,2.35-1.23c-.59-.19-1.14-.38-1.66-.57l-1.38-.56c-.42-.17-.77-.32-1.07-.43a2,2,0,0,0-.69-.18,1.53,1.53,0,0,0-.82.33,6.92,6.92,0,0,0-1.23,1.23l-1-.62c.19-.31.42-.63.66-1a8.7,8.7,0,0,1,.78-.9,3.84,3.84,0,0,1,.85-.66,1.63,1.63,0,0,1,.85-.25,3.78,3.78,0,0,1,1.41.37l1.88.81c.7.29,1.45.55,2.25.8a8.46,8.46,0,0,0,2.5.37h.5l-.4,1.86a7.34,7.34,0,0,0-1.59.26,8.14,8.14,0,0,0-1.33.48,3.64,3.64,0,0,0,.52.88,1.87,1.87,0,0,0,.58.46,1.7,1.7,0,0,0,.67.17q.36,0,.78,0h1.93v1.9Zm-7.08,4.66-1.51-1.29,1.12-1.31L1087,662Z"/><path class="cls-4" d="M1101.47,651.68a1.74,1.74,0,0,1,1.16.43,3.74,3.74,0,0,1,.89,1.1,5.84,5.84,0,0,1,.57,1.5,7.16,7.16,0,0,1,.2,1.65,2.31,2.31,0,0,1-.19.9,2.79,2.79,0,0,1-.48.8,2.57,2.57,0,0,1-.67.57,1.43,1.43,0,0,1-.76.23,3.67,3.67,0,0,1-.86-.13,7.18,7.18,0,0,1-1-.33,7.33,7.33,0,0,1-1-.52,10.72,10.72,0,0,1-.94-.68,3.44,3.44,0,0,1-1.36,1.14,4.63,4.63,0,0,1-1.71.29h-.4a.51.51,0,0,1-.42-.29,1.34,1.34,0,0,1-.17-.65,1.36,1.36,0,0,1,.17-.67.51.51,0,0,1,.42-.29h.4a4.37,4.37,0,0,0,1.42-.24,2.15,2.15,0,0,0,1.18-1.1l.85-1.45a9.86,9.86,0,0,1,.83-1.19,4,4,0,0,1,.88-.79A1.82,1.82,0,0,1,1101.47,651.68Zm-.2,1.8a1.41,1.41,0,0,0-1.08.66,10.2,10.2,0,0,0-1,1.67,5.67,5.67,0,0,0,1.6.94,4,4,0,0,0,1.37.3.8.8,0,0,0,.52-.22.66.66,0,0,0,.25-.5,3.86,3.86,0,0,0-.14-1,4.72,4.72,0,0,0-.36-.93,2.14,2.14,0,0,0-.53-.68A1,1,0,0,0,1101.27,653.48Z"/><path class="cls-4" d="M1111.42,656a1,1,0,0,1,.81.36,1.57,1.57,0,0,1,.26.93,1.41,1.41,0,0,1-.34,1,1.16,1.16,0,0,1-.9.36,1,1,0,0,1-.88-.41,1.78,1.78,0,0,1-.31-1.12,4.1,4.1,0,0,1,.63-2.22,7.88,7.88,0,0,1,1.84-1.94l.28.74a5,5,0,0,0-1.17,1.22,3,3,0,0,0-.49,1.11A.91.91,0,0,1,1111.42,656Z"/><path class="cls-4" d="M1126.47,650.86a8.88,8.88,0,0,1,1.25,2.5,8.64,8.64,0,0,1,.41,2.55,8,8,0,0,1-.47,2.79,6.07,6.07,0,0,1-1.36,2.15,6.15,6.15,0,0,1-2.18,1.4,8.18,8.18,0,0,1-2.95.49,6.83,6.83,0,0,1-2.31-.37,5.22,5.22,0,0,1-1.81-1.08,4.81,4.81,0,0,1-1.17-1.73,6,6,0,0,1-.42-2.31,7,7,0,0,1,.32-2.23,9.5,9.5,0,0,1,1-2.1l1.14.56a9.12,9.12,0,0,0-.77,1.7,5.55,5.55,0,0,0-.27,1.67,3.73,3.73,0,0,0,1.19,2.92,4.75,4.75,0,0,0,3.29,1.07,6.44,6.44,0,0,0,2.16-.34,4.61,4.61,0,0,0,1.63-1,4.21,4.21,0,0,0,1-1.5,4.86,4.86,0,0,0,.37-1.94,6.34,6.34,0,0,0-.36-2,8.86,8.86,0,0,0-1.07-2.13Zm-5,.47L1120,650l1.11-1.31,1.51,1.26Z"/><path class="cls-4" d="M1134.52,658.63a3.45,3.45,0,0,1-1.85-.42,2.52,2.52,0,0,1-1-1.09,4.2,4.2,0,0,1-.37-1.53c0-.58-.07-1.17-.09-1.76q0-1.26-.06-2.73c0-1,0-2,0-3l-.09-3.08c0-1-.08-2-.15-3l1.59-.75c0,1.34.08,2.54.1,3.59s0,2.05,0,3,0,1.81,0,2.65,0,1.72,0,2.63c0,.49,0,1,.06,1.4a3.72,3.72,0,0,0,.22,1.13,1.62,1.62,0,0,0,.58.77,1.91,1.91,0,0,0,1.12.29h.79v1.9Z"/><path class="cls-4" d="M1142.54,658.63a4.06,4.06,0,0,1-1.85-.37,2.64,2.64,0,0,1-1.15-1.26,3.3,3.3,0,0,1-1.22,1.24,3.9,3.9,0,0,1-1.85.39h-1a.48.48,0,0,1-.42-.27,1.22,1.22,0,0,1-.18-.69,1.16,1.16,0,0,1,.18-.68.47.47,0,0,1,.42-.26h1a2.94,2.94,0,0,0,1.8-.46,2.32,2.32,0,0,0,.65-1.75l0-.94,1.38-.34a12.62,12.62,0,0,0,.1,1.66,2.69,2.69,0,0,0,.37,1.07,1.52,1.52,0,0,0,.76.58,3.64,3.64,0,0,0,1.25.18h1v1.9Zm-4.41-7.3-1.46-1.21,1.07-1.27,1.43,1.22Zm2.95,0-1.44-1.21,1.09-1.27,1.41,1.22Z"/><path class="cls-4" d="M1153.68,657a3.33,3.33,0,0,1-1.17,1.26,3.43,3.43,0,0,1-1.8.42,3.65,3.65,0,0,1-1.77-.36,2.57,2.57,0,0,1-1.08-1.3,3.28,3.28,0,0,1-1.2,1.27,3.24,3.24,0,0,1-1.6.39h-1.28a.51.51,0,0,1-.43-.27,1.31,1.31,0,0,1-.17-.69,1.24,1.24,0,0,1,.17-.68.5.5,0,0,1,.43-.26H1145a2.73,2.73,0,0,0,1.61-.45,1.9,1.9,0,0,0,.7-1.56v-1.14l1.38-.34a12.62,12.62,0,0,0,.1,1.66,2.86,2.86,0,0,0,.35,1.07,1.37,1.37,0,0,0,.64.58,2.43,2.43,0,0,0,1,.18,2.49,2.49,0,0,0,1.75-.52,2.61,2.61,0,0,0,.58-1.79v-.84l1.38-.34a5.86,5.86,0,0,0,.45,2.7,1.7,1.7,0,0,0,1.61.79,3.23,3.23,0,0,0,.61-.06,3.47,3.47,0,0,0,.57-.19,1.23,1.23,0,0,0,.42-.32.76.76,0,0,0,.16-.47,3.51,3.51,0,0,0-.31-1.08,9,9,0,0,0-1-1.74l1.29-1.34a6.61,6.61,0,0,1,1.16,2,5.76,5.76,0,0,1,.37,1.88,3,3,0,0,1-1,2.34,3.41,3.41,0,0,1-2.36.85,3.25,3.25,0,0,1-1.74-.42A2.62,2.62,0,0,1,1153.68,657Z"/><path class="cls-4" d="M1170.81,655.07a3.71,3.71,0,0,1-.44,1.9,3.08,3.08,0,0,1-1.15,1.17,5,5,0,0,1-1.65.58,11.36,11.36,0,0,1-2,.16,6.89,6.89,0,0,1-2-.25,3.41,3.41,0,0,1-1.53-1l.84-1.41a3.18,3.18,0,0,0,1.28.65,7,7,0,0,0,1.54.14,6.2,6.2,0,0,0,2.73-.47c.62-.31.94-.7.94-1.16a2.45,2.45,0,0,0-.19-.83,4.74,4.74,0,0,0-.63-1.14,10.54,10.54,0,0,0-1.2-1.36,14.67,14.67,0,0,0-1.89-1.5l.74-1.8a10.66,10.66,0,0,1,1.69,1.25,10.41,10.41,0,0,1,1.48,1.57,7.76,7.76,0,0,1,1,1.74A4.53,4.53,0,0,1,1170.81,655.07Z"/><path class="cls-4" d="M1178.9,658.63a4.28,4.28,0,0,1-.81-.08,1.64,1.64,0,0,1-.75-.41,5,5,0,0,1-.58,2,8.68,8.68,0,0,1-1.36,1.85,17.76,17.76,0,0,1-2,1.79c-.76.58-1.59,1.17-2.48,1.77l-1.26-1.22a31.1,31.1,0,0,0,2.65-1.82,21.45,21.45,0,0,0,2-1.71,8.26,8.26,0,0,0,1.22-1.49,2.47,2.47,0,0,0,.42-1.22,3.65,3.65,0,0,0-.43-1.54,21,21,0,0,0-1.13-2l1.29-1.26.95,1.69a7.16,7.16,0,0,0,.72,1.08,2.22,2.22,0,0,0,.67.56,2,2,0,0,0,.83.16h.72v1.9Z"/><path class="cls-4" d="M1186.28,654.67a3.7,3.7,0,0,1-.36,1.65,3.76,3.76,0,0,1-1,1.25,4.27,4.27,0,0,1-1.53.79,6.9,6.9,0,0,1-2,.27h-1.88a.51.51,0,0,1-.43-.27,1.31,1.31,0,0,1-.17-.69,1.24,1.24,0,0,1,.17-.68.5.5,0,0,1,.43-.26h2a4.27,4.27,0,0,0,2.43-.58,2.14,2.14,0,0,0,.94-1.25,3.44,3.44,0,0,0-.34-1.14,6,6,0,0,0-.85-1.27,18.57,18.57,0,0,0-1.41-1.44c-.56-.52-1.23-1.1-2-1.72a11.73,11.73,0,0,1,.21-1.44,1,1,0,0,1,.36-.59c.43-.28.93-.6,1.51-.95l1.83-1.05,2-1.07c.68-.37,1.35-.71,2-1l-.25,2c-1.2.58-2.32,1.15-3.35,1.72s-1.91,1.1-2.64,1.57a20.21,20.21,0,0,1,3.26,3.35A4.88,4.88,0,0,1,1186.28,654.67Z"/><path class="cls-4" d="M1194.33,649.87a17.32,17.32,0,0,1,2.21,1.77,9,9,0,0,1,1.28,1.51,4.68,4.68,0,0,1,.59,1.32,5.1,5.1,0,0,1,.15,1.19,3.61,3.61,0,0,1-.22,1.25,2.89,2.89,0,0,1-.66,1,3.11,3.11,0,0,1-1.08.68,4.21,4.21,0,0,1-1.48.25A2.73,2.73,0,0,1,1193,658a2.87,2.87,0,0,1-.7-1.93,4.57,4.57,0,0,1,.07-.83,5.77,5.77,0,0,1,.26-.9,10,10,0,0,1,.5-1.11c.2-.4.47-.87.8-1.42l-.47-.32Zm.64,2.62a14.73,14.73,0,0,0-1,1.79,3.46,3.46,0,0,0-.4,1.46,1.32,1.32,0,0,0,.41.93,1.79,1.79,0,0,0,1.3.4,2.27,2.27,0,0,0,1.35-.37,1.36,1.36,0,0,0,.61-1,2.8,2.8,0,0,0-.49-1.5A6.87,6.87,0,0,0,1195,652.49Z"/><path class="cls-4" d="M1203,658.39l-1.58.37V642.05l1.58-.75Z"/><path class="cls-4" d="M1211.21,658.63a4.38,4.38,0,0,1-.82-.08,1.66,1.66,0,0,1-.74-.41,5.12,5.12,0,0,1-.58,2,8.74,8.74,0,0,1-1.37,1.85,16.91,16.91,0,0,1-2,1.79c-.76.58-1.58,1.17-2.47,1.77L1202,664.3a29.59,29.59,0,0,0,2.65-1.82,20.19,20.19,0,0,0,2-1.71,8,8,0,0,0,1.23-1.49,2.47,2.47,0,0,0,.42-1.22,3.68,3.68,0,0,0-.44-1.54,20.7,20.7,0,0,0-1.12-2l1.28-1.26,1,1.69a5.91,5.91,0,0,0,.72,1.08,2.19,2.19,0,0,0,.66.56,2,2,0,0,0,.83.16h.72v1.9Z"/><path class="cls-4" d="M1222.89,644.05c-.82.37-1.65.75-2.47,1.15s-1.61.81-2.34,1.2-1.41.78-2,1.13-1.14.67-1.55,1a20.89,20.89,0,0,1,3.07,3.32,5.06,5.06,0,0,1,1,2.92,3.66,3.66,0,0,1-.35,1.61,3.83,3.83,0,0,1-1,1.24,4.4,4.4,0,0,1-1.54.79,6.85,6.85,0,0,1-2,.27h-1.88a.51.51,0,0,1-.42-.27,1.22,1.22,0,0,1-.17-.69,1.16,1.16,0,0,1,.17-.68.5.5,0,0,1,.42-.26h2a4.21,4.21,0,0,0,2.42-.58,2.06,2.06,0,0,0,.94-1.25,3.33,3.33,0,0,0-.32-1.13,6.26,6.26,0,0,0-.8-1.24,16.64,16.64,0,0,0-1.34-1.43q-.81-.78-1.92-1.77a9.66,9.66,0,0,1,.22-1.44,1.14,1.14,0,0,1,.35-.59c.5-.33,1.09-.71,1.8-1.12s1.47-.85,2.32-1.31,1.75-.93,2.7-1.41,1.91-1,2.88-1.41Zm-2.13-2.2c-1.07.53-2.25,1.14-3.52,1.84s-2.58,1.48-3.88,2.32l.15-1.26q1.86-1.25,3.82-2.34c1.32-.74,2.52-1.37,3.61-1.9Z"/><path class="cls-4" d="M1225,656.5a4.77,4.77,0,0,1-.5,2.11,8.39,8.39,0,0,1-1.36,2,16.62,16.62,0,0,1-2.06,1.87c-.79.61-1.64,1.22-2.54,1.83l-1.27-1.22a29.6,29.6,0,0,0,2.65-1.81,23.32,23.32,0,0,0,2-1.71,8.21,8.21,0,0,0,1.22-1.5,2.37,2.37,0,0,0,.43-1.21,2.81,2.81,0,0,0-.13-.75,7.08,7.08,0,0,0-.33-.89c-.14-.31-.31-.63-.5-1s-.39-.65-.6-1l1.26-1.26a10.53,10.53,0,0,1,1.34,2.41A6.2,6.2,0,0,1,1225,656.5Z"/><path class="cls-4" d="M1233,658.63a4.47,4.47,0,0,1-.82-.08,1.66,1.66,0,0,1-.74-.41,5,5,0,0,1-.58,2,8.68,8.68,0,0,1-1.36,1.85,18.68,18.68,0,0,1-2,1.79c-.76.58-1.59,1.17-2.48,1.77l-1.26-1.22a31.1,31.1,0,0,0,2.65-1.82,20,20,0,0,0,2-1.71,8,8,0,0,0,1.23-1.49,2.47,2.47,0,0,0,.42-1.22,3.65,3.65,0,0,0-.43-1.54,21,21,0,0,0-1.13-2l1.29-1.26c.38.67.69,1.24,1,1.69a7.16,7.16,0,0,0,.72,1.08,2.1,2.1,0,0,0,.67.56,2,2,0,0,0,.83.16h.71v1.9Zm-3.64-7.15-1.51-1.29,1.12-1.31,1.51,1.26Z"/><path class="cls-4" d="M1236.88,655.66a3.44,3.44,0,0,0-.3-1,8.75,8.75,0,0,0-1-1.74l1.26-1.34a6.61,6.61,0,0,1,1.16,2,5.76,5.76,0,0,1,.37,1.88,3,3,0,0,1-.95,2.38,4.51,4.51,0,0,1-3,.81h-.77a.51.51,0,0,1-.42-.27,1.31,1.31,0,0,1-.17-.69,1.24,1.24,0,0,1,.17-.68.5.5,0,0,1,.42-.26h.8a5.3,5.3,0,0,0,1.68-.25C1236.64,656.31,1236.88,656,1236.88,655.66Zm-.87,7.63L1234.5,662l1.12-1.31,1.51,1.26Z"/><path class="cls-4" d="M1245.49,656a.94.94,0,0,1,.81.36,1.57,1.57,0,0,1,.26.93,1.36,1.36,0,0,1-.34,1,1.16,1.16,0,0,1-.9.36,1,1,0,0,1-.88-.41,1.78,1.78,0,0,1-.31-1.12,4.1,4.1,0,0,1,.63-2.22,7.75,7.75,0,0,1,1.85-1.94l.27.74a4.9,4.9,0,0,0-1.16,1.22,2.84,2.84,0,0,0-.5,1.11A1,1,0,0,1,1245.49,656Z"/><path class="cls-4" d="M1260.54,650.86a8.88,8.88,0,0,1,1.25,2.5,8.33,8.33,0,0,1,.41,2.55,7.78,7.78,0,0,1-.47,2.79,5.94,5.94,0,0,1-3.54,3.55,8.17,8.17,0,0,1-2.94.49,6.84,6.84,0,0,1-2.32-.37,5.22,5.22,0,0,1-1.81-1.08,4.81,4.81,0,0,1-1.17-1.73,6,6,0,0,1-.42-2.31,7.32,7.32,0,0,1,.32-2.23,9.5,9.5,0,0,1,1-2.1l1.14.56a8.46,8.46,0,0,0-.76,1.7,5.27,5.27,0,0,0-.28,1.67,3.73,3.73,0,0,0,1.19,2.92,4.75,4.75,0,0,0,3.29,1.07,6.4,6.4,0,0,0,2.16-.34,4.53,4.53,0,0,0,1.63-1,4.21,4.21,0,0,0,1-1.5,4.86,4.86,0,0,0,.37-1.94,6.34,6.34,0,0,0-.36-2,8.51,8.51,0,0,0-1.07-2.13Zm-5,.47-1.51-1.29,1.11-1.31,1.51,1.26Z"/><path class="cls-4" d="M1266.58,658.39l-1.58.37V642.05l1.58-.75Z"/><path class="cls-4" d="M1274.83,658.63a4.38,4.38,0,0,1-.82-.08,1.66,1.66,0,0,1-.74-.41,5.12,5.12,0,0,1-.58,2,8.74,8.74,0,0,1-1.37,1.85,16.91,16.91,0,0,1-2,1.79c-.76.58-1.58,1.17-2.47,1.77l-1.27-1.22a29.59,29.59,0,0,0,2.65-1.82,20.19,20.19,0,0,0,2-1.71,8,8,0,0,0,1.23-1.49,2.47,2.47,0,0,0,.42-1.22,3.68,3.68,0,0,0-.44-1.54,20.7,20.7,0,0,0-1.12-2l1.28-1.26,1,1.69a5.91,5.91,0,0,0,.72,1.08,2.19,2.19,0,0,0,.66.56,2,2,0,0,0,.83.16h.72v1.9Z"/><path class="cls-4" d="M1285.57,658.63a6.21,6.21,0,0,0-1.08.09,2.76,2.76,0,0,0-.89.31,1.94,1.94,0,0,0-.62.59,1.77,1.77,0,0,0-.23.92,2.34,2.34,0,0,0,.28,1,3.11,3.11,0,0,0,1,1.1l-.47,1.51a12.68,12.68,0,0,1-2.07-.78,8,8,0,0,1-1.72-1.1,6.5,6.5,0,0,1-1.32-1.53,7.34,7.34,0,0,1-.86-2.11h-2.1a.51.51,0,0,1-.42-.27,1.22,1.22,0,0,1-.17-.69,1.16,1.16,0,0,1,.17-.68.5.5,0,0,1,.42-.26h1.91a10.33,10.33,0,0,1,.41-2.61,11.08,11.08,0,0,1,.84-2.15,5.92,5.92,0,0,1,1-1.44,1.41,1.41,0,0,1,.89-.54,1.24,1.24,0,0,1,.81.4,3.81,3.81,0,0,1,.74,1.05,7.22,7.22,0,0,1,.55,1.49,6.49,6.49,0,0,1,.23,1.72,3.67,3.67,0,0,1-1,2.63,4.54,4.54,0,0,1-2.91,1.3,5,5,0,0,0,1,1.9,5.59,5.59,0,0,0,2.22,1.57,3.3,3.3,0,0,1-.4-1.18,3.48,3.48,0,0,1,0-.8,3.39,3.39,0,0,1,1.21-2.48,4.21,4.21,0,0,1,2.71-.86h.76v1.9Zm-4-3.73a5,5,0,0,0-.48-2.08,2.84,2.84,0,0,0-.42-.68c-.14-.18-.27-.26-.37-.26s-.24.13-.44.4a5.19,5.19,0,0,0-.58,1.09,10.38,10.38,0,0,0-.5,1.57,8.16,8.16,0,0,0-.21,1.86l.37,0a3.61,3.61,0,0,0,1.82-.54A1.66,1.66,0,0,0,1281.59,654.9Z"/><path class="cls-4" d="M1289.56,655.66a3.44,3.44,0,0,0-.3-1,8.38,8.38,0,0,0-1-1.74l1.27-1.34a6.82,6.82,0,0,1,1.16,2,5.76,5.76,0,0,1,.37,1.88,3,3,0,0,1-1,2.38,4.51,4.51,0,0,1-3,.81h-.77a.51.51,0,0,1-.42-.27,1.31,1.31,0,0,1-.17-.69,1.24,1.24,0,0,1,.17-.68.5.5,0,0,1,.42-.26h.8a5.3,5.3,0,0,0,1.68-.25C1289.32,656.31,1289.56,656,1289.56,655.66ZM1288,649.6l-1.46-1.22,1.07-1.26,1.43,1.21Zm3,0-1.44-1.22,1.09-1.26,1.41,1.21Z"/><path class="cls-4" d="M1307.79,658.63a5,5,0,0,1-.79-.06,1.38,1.38,0,0,1-.69-.33,5.33,5.33,0,0,1-.65,1.92,9.31,9.31,0,0,1-1.33,1.79,16.37,16.37,0,0,1-1.92,1.71c-.74.56-1.52,1.11-2.37,1.66l-1.9-1.81c.91-.54,1.74-1.09,2.5-1.63a20.89,20.89,0,0,0,1.93-1.56,9.21,9.21,0,0,0,1.24-1.39,2.14,2.14,0,0,0,.44-1.14,3.76,3.76,0,0,0-.44-1.42,15.76,15.76,0,0,0-1.14-2l1.88-1.88c.35.6.65,1.1.9,1.51a8.51,8.51,0,0,0,.71,1,2.24,2.24,0,0,0,.64.55,1.48,1.48,0,0,0,.72.18h1v2.84Z"/><path class="cls-4" d="M1315.44,658.63a3.88,3.88,0,0,1-1.68-.32,2.81,2.81,0,0,1-1.17-1.06,3.07,3.07,0,0,1-1.23,1,4.3,4.3,0,0,1-1.79.33h-1.06c-.18,0-.33-.12-.45-.38a2.66,2.66,0,0,1-.17-1,2.75,2.75,0,0,1,.17-1q.18-.39.45-.39h1a5.86,5.86,0,0,0,1-.07,1.56,1.56,0,0,0,.67-.24,1.12,1.12,0,0,0,.38-.52,2.55,2.55,0,0,0,.15-.86v-1l2.06-.52c0,.61,0,1.13.06,1.54a2.79,2.79,0,0,0,.26,1,1.13,1.13,0,0,0,.57.55,2.73,2.73,0,0,0,1,.16h1.17v2.84Zm-4.38-7.42-1.81-1.51,1.44-1.71,1.83,1.48Zm3.17,0-1.81-1.51,1.44-1.71,1.8,1.48Z"/><path class="cls-4" d="M1321,647.3a2.45,2.45,0,0,1,1.67.6,4.61,4.61,0,0,1,1.09,1.54,8.4,8.4,0,0,1,.58,2.06,15.49,15.49,0,0,1,.17,2.21,5,5,0,0,1-1.22,3.76,5.65,5.65,0,0,1-4,1.16h-2.47c-.18,0-.33-.12-.45-.38a2.66,2.66,0,0,1-.17-1,2.75,2.75,0,0,1,.17-1q.18-.39.45-.39h2.52a8.6,8.6,0,0,0,1.82-.2,2,2,0,0,0,1.23-.65.51.51,0,0,0,.08-.32c0-.15,0-.35,0-.62a4.77,4.77,0,0,1-1.09.26,6.39,6.39,0,0,1-.89.07c-1.85,0-2.78-1-2.78-2.93a4.95,4.95,0,0,1,.92-2.8,3.51,3.51,0,0,1,1-1A2.61,2.61,0,0,1,1321,647.3Zm-.13-1.56-1.88-1.59,1.51-1.78,1.88,1.58Zm-.12,4a1,1,0,0,0-.87.44,1.51,1.51,0,0,0-.34.94.82.82,0,0,0,.27.61,1.28,1.28,0,0,0,.89.26,4.32,4.32,0,0,0,.91-.09,3.48,3.48,0,0,0,.7-.21,3.23,3.23,0,0,0-.57-1.4A1.22,1.22,0,0,0,1320.79,649.75Z"/><path class="cls-4" d="M1335.74,654.85a4.37,4.37,0,0,1-.42,2,3.23,3.23,0,0,1-1.13,1.24,4.26,4.26,0,0,1-1.66.59,12.75,12.75,0,0,1-2,.15,6,6,0,0,1-2-.31,4.67,4.67,0,0,1-1.74-1.2l1.24-2.15a4.37,4.37,0,0,0,1.19.62,5,5,0,0,0,1.49.19,7,7,0,0,0,2.24-.28c.53-.19.8-.43.8-.73a3.1,3.1,0,0,0-.89-1.68,14,14,0,0,0-2.92-2.41l1.11-2.64a11.86,11.86,0,0,1,1.72,1.25,10.36,10.36,0,0,1,1.52,1.59,8.31,8.31,0,0,1,1.08,1.82A4.86,4.86,0,0,1,1335.74,654.85Z"/><rect class="cls-4" x="582.82" y="417.72" width="754.36" height="0.25"/><rect class="cls-4" x="582.82" y="484.17" width="754.36" height="0.25"/><rect class="cls-4" x="582.82" y="550.62" width="754.36" height="0.25"/><path d="M755.83,771.78l-20.6,56.59h10.43l4-10.88h25.6l4,10.88H789.6L769,771.78Zm-2.65,35.91,9.24-25.37,9.23,25.37Z"/><polygon points="633.97 696.68 633.97 686.89 592.62 686.89 592.62 743.48 633.97 743.48 633.97 733.69 604.59 733.69 604.59 718.45 629.62 718.45 629.62 708.66 604.59 708.66 604.59 696.68 633.97 696.68"/><path d="M643.77,631.38l-30.95-5.45-1.7,9.64,15.39,2.72c-2,6.8-7.11,11.6-15.39,11.6-10.89,0-16.33-7.62-16.33-19.59s5.44-19.59,16.33-19.59c7.74,0,12.73,3.86,15,10.39l10.9-4c-4.29-10.39-13.91-16.23-25.86-16.23-16.33,0-28.3,10.88-28.3,29.39s12,29.38,28.3,29.38a21.92,21.92,0,0,0,16.61-7.51l.8,6.42h7.62V640l5.92,1Z"/><path d="M621.65,796l-9.67-1.7c-5.07-.9-8.48-3-8.48-7.31s4-6.53,9.25-6.53c4.55,0,8.35,2.41,9.33,5.16l10.8-3.93c-2.67-6.28-10.06-11-20.13-11h0c-12.76,0-21.22,6.53-21.22,16.33s7.42,15,15.82,16.44l8.87,1.56c4.74.84,8,3.72,8,7,0,5.44-5,7.62-11.43,7.62-5.42,0-10.07-3.14-11.35-6.09l-11,4c2.88,7,11.22,11.89,22.31,11.89,13.83,0,23.4-6.53,23.4-17.41C636.15,803.34,630.43,797.58,621.65,796Z"/><path d="M695.66,796l-9.68-1.7c-5.07-.9-8.48-3-8.48-7.31s4-6.53,9.25-6.53c4.55,0,8.35,2.41,9.33,5.16l10.8-3.93c-2.66-6.28-10-11-20.13-11h0c-12.76,0-21.22,6.53-21.22,16.33s7.42,15,15.82,16.44l8.88,1.56c4.74.84,7.95,3.72,7.95,7,0,5.44-5,7.62-11.43,7.62-5.42,0-10.07-3.14-11.35-6.09l-10.95,4c2.87,7,11.22,11.89,22.3,11.89,13.83,0,23.4-6.53,23.4-17.41C710.15,803.34,704.43,797.58,695.66,796Z"/></g></svg>