<svg xmlns="http://www.w3.org/2000/svg" viewBox="0 0 1920 1080"><defs><style>.cls-1{fill:#fff;}</style></defs><g id="Layer_1" data-name="Layer 1"><path class="cls-1" d="M483.37,497.52c-14.38-15.59-34.15-25-58.5-25-45,0-85.5,40.5-85.5,103.5s40.5,103.5,85.5,103.5c24.35,0,44.12-9.43,58.5-25V675h54V477h-54Zm-45,137c-27,0-45-22.5-45-58.5s18-58.5,45-58.5,45,22.5,45,58.5S465.37,634.5,438.37,634.5Z"/><polygon class="cls-1" points="645.37 423 591.37 423 591.37 477 564.37 477 564.37 522 591.37 522 591.37 675 645.37 675 645.37 522 681.37 522 681.37 477 645.37 477 645.37 423"/><rect class="cls-1" x="708.37" y="477" width="54" height="198"/><circle class="cls-1" cx="735.37" cy="427.5" r="31.5"/><path class="cls-1" d="M268.58,511.34A67.5,67.5,0,0,0,213.37,405h-108V675h130.5v-.08c45.13-1.54,81-26.61,81-85.42C316.87,550.75,297.16,523.59,268.58,511.34ZM211.12,454.5a15.75,15.75,0,0,1,11.14,26.89h0l-62.89,62.88V454.5Zm15.75,171h-67.5V608l42-42c7-7,16.25-12.43,25.46-12.43,18,0,36,13.5,36,36S244.87,625.5,226.87,625.5Z"/><polygon class="cls-1" points="991.87 477 928.23 477 852.37 552.86 852.37 405 798.37 405 798.37 675 852.37 675 852.37 616.5 874.78 594.09 931.44 675 991.87 675 910.33 558.54 991.87 477"/><rect class="cls-1" x="1513.13" y="477" width="117" height="45"/><rect class="cls-1" x="1423.13" y="711" width="117" height="45"/><polygon class="cls-1" points="1486.13 675 1371.14 510.77 1333.68 543.58 1425.7 675 1486.13 675"/><polygon class="cls-1" points="1422.49 405 1276.7 550.79 1306.13 585 1486.13 405 1422.49 405"/><path class="cls-1" d="M1814.63,724.5a31.5,31.5,0,1,1-31.5-31.5,31.5,31.5,0,0,1,31.5,31.5"/><rect class="cls-1" x="1202.63" y="625.5" width="188.41" height="49.5"/><rect class="cls-1" x="1666.13" y="405" width="54" height="270"/><rect class="cls-1" x="1756.13" y="558" width="54" height="117"/><rect class="cls-1" x="1486.13" y="558" width="54" height="117"/><rect class="cls-1" x="1576.13" y="558" width="54" height="117"/></g></svg>