<svg xmlns="http://www.w3.org/2000/svg" viewBox="0 0 1920 1080"><defs><style>.cls-1{fill:#fff;}</style></defs><g id="Layer_2" data-name="Layer 2"><rect width="1920" height="1080"/></g><g id="Layer_1" data-name="Layer 1"><path class="cls-1" d="M296.72,222.88a27.5,27.5,0,0,1-4.44,15.25Q287.15,246,279.17,246q-10.95,0-16-7.48-4.17,7.28-11.65,7.28-7.69,0-9.71-2.85,0,16.78-10.33,27.81Q220.93,282,204.22,282t-25.1-10.54q-6.72-8.46-6.72-21.7,0-10.6,5.75-22.12L189,231.47q-3.83,9.85-3.82,15.26,0,9.28,5.62,14.28,5.41,4.78,14.84,4.78,10,0,16.64-5.61,7-5.9,7-15.74,0-9.49-6.86-18.72l12.2-11.44q4.44,8.81,5,9.64,4,5.61,9.5,5.61,9.91,0,9.92-9.15V215l10.05-3v7.07a11.24,11.24,0,0,0,2.64,7.63A9.08,9.08,0,0,0,279,230c4.06,0,6.1-1.92,6.1-5.76q0-5.34-4.72-9.7l9.92-11.1Q296.72,210.53,296.72,222.88Z"/><path class="cls-1" d="M374.94,230.36q0,13.74-13.59,26.42a77.25,77.25,0,0,1-24.62,15.53l-11-8.53q17.19-8.38,27.45-17.68,9.36-8.46,9.36-14a13.17,13.17,0,0,0-2.77-7.49l-5.62-7.49,10.75-12.55a55.22,55.22,0,0,1,7.35,11.3A35.62,35.62,0,0,1,374.94,230.36Zm-38.56-39.1,7.08-9.71,9.22,6.17,5.34-7.21,10.81,7.21-7.35,9.64-9.22-6.1-5,7.21Zm5.48-17.06,7.14-9.43,10,6.73-7,9.5Z"/><path class="cls-1" d="M453,230.36q0,13.74-13.59,26.42a77.25,77.25,0,0,1-24.62,15.53l-11-8.53Q421,255.4,431.24,246.1q9.36-8.46,9.36-14a13.17,13.17,0,0,0-2.77-7.49l-5.62-7.49L443,204.57a55.22,55.22,0,0,1,7.35,11.3A35.62,35.62,0,0,1,453,230.36Zm-8.74-44.58-8.6,11.37L424,189.39l8.6-11.51Z"/><path class="cls-1" d="M531.1,230.36q0,13.74-13.59,26.42a77.25,77.25,0,0,1-24.62,15.53l-11-8.53q17.19-8.38,27.46-17.68,9.36-8.46,9.36-14a13.19,13.19,0,0,0-2.78-7.49l-5.61-7.49L521,204.57a55.22,55.22,0,0,1,7.35,11.3A35.45,35.45,0,0,1,531.1,230.36Z"/><path class="cls-1" d="M620.13,223.43q0,11.65-7.69,18-7.16,5.89-19.07,5.89-15.95,0-22.74-8.8l6.65-12.28a20.06,20.06,0,0,0,13,5,72,72,0,0,0,11.78-.63q7.77-1.59,7.77-7,0-3.6-5.82-9.57a63.1,63.1,0,0,0-15.88-11.58L594.48,187Q620.13,202.56,620.13,223.43Zm-18.3-56.23-8.6,11.37-11.72-7.77,8.6-11.51Z"/><path class="cls-1" d="M704.73,223.43q0,11.65-7.7,18-7.14,5.89-19.06,5.89-16,0-22.75-8.8l6.66-12.28a20.06,20.06,0,0,0,13,5,72,72,0,0,0,11.78-.63q7.77-1.59,7.77-7,0-3.6-5.83-9.57a62.86,62.86,0,0,0-15.87-11.58L679.08,187Q704.73,202.56,704.73,223.43Z"/><path class="cls-1" d="M821.71,291.93a84.29,84.29,0,0,1-29.19,5.34q-21.57,0-33.77-8.11-14.49-9.63-14.49-30,0-13,11.3-24.75A73.61,73.61,0,0,1,778,218.72q-12.28-1.53-15.26-1.53-3.25,0-6.65,5.48a85.25,85.25,0,0,1-10.68-5.13q6.59-16.36,15.39-16.37a200,200,0,0,1,20.46,1.56A199.86,199.86,0,0,0,802,204.29a122.43,122.43,0,0,0,13.66-.69l-1.94,16.64q-17.13,0-35.09,11-19.41,11.92-19.41,26,0,23.85,35.64,23.85a80.56,80.56,0,0,0,22.46-3.05Zm-30-113-8.59,11.37-11.72-7.77L780,171Z"/><path class="cls-1" d="M929.81,291.73a84.27,84.27,0,0,1-29.19,5.33q-21.55,0-33.77-8.11-14.49-9.63-14.49-30,0-13,11.31-24.75a73.68,73.68,0,0,1,22.46-15.67Q873.86,217,870.88,217q-3.27,0-6.66,5.48a85.25,85.25,0,0,1-10.68-5.13Q860.13,201,868.93,201a199.58,199.58,0,0,1,20.46,1.56,200,200,0,0,0,20.66,1.56,122.28,122.28,0,0,0,13.66-.7L921.77,220q-17.13,0-35.09,11-19.41,11.92-19.41,26,0,23.85,35.64,23.85a80.51,80.51,0,0,0,22.46-3.05Z"/><path class="cls-1" d="M1037.91,291.73a84.19,84.19,0,0,1-29.19,5.33q-21.56,0-33.76-8.11-14.49-9.63-14.49-30,0-13,11.3-24.75a73.68,73.68,0,0,1,22.46-15.67Q982,217,979,217q-3.26,0-6.66,5.48a86.66,86.66,0,0,1-10.68-5.13Q968.24,201,977,201a199.63,199.63,0,0,1,20.45,1.56,200,200,0,0,0,20.66,1.56,122.28,122.28,0,0,0,13.66-.7L1029.87,220q-17.13,0-35.08,11-19.42,11.92-19.42,26,0,23.85,35.64,23.85a80.64,80.64,0,0,0,22.47-3.05Zm-18.37-44.59-7.07,9.71-9.22-6.17-5.34,7.21L987,250.68l7.42-9.64,9.22,6.1,5-7.28Zm-5.13,17-7.14,9.5-10-6.8,7-9.43Z"/><path class="cls-1" d="M1146,291.8a84.5,84.5,0,0,1-29.19,5.33q-21.57,0-33.77-8.11-14.49-9.63-14.49-30,0-13,11.3-24.75a73.61,73.61,0,0,1,22.47-15.67q-12.28-1.53-15.26-1.53-3.25,0-6.65,5.48a85.25,85.25,0,0,1-10.68-5.13q6.59-16.36,15.39-16.37a199.63,199.63,0,0,1,20.45,1.56,200.2,200.2,0,0,0,20.67,1.56,122.56,122.56,0,0,0,13.66-.69l-2,16.64q-17.12,0-35.08,11-19.41,11.93-19.41,26,0,23.85,35.64,23.85a80.56,80.56,0,0,0,22.46-3.05Zm-23.51-38.28-8.59,11.37-11.72-7.76,8.59-11.51Z"/><path class="cls-1" d="M1279.64,220q0,29.61-61.78,29.61-41.19,0-41.19-24.13,0-7.27,5.34-17.89l10.47,3.26q-3,6.66-3,9.5,0,5.9,4.51,8.74,6.72,4.23,24.68,4.23h8.6a106.39,106.39,0,0,0,28.7-3.75q12.48-3.47,12.48-6.72,0-2.5-7.07-11.44l9.15-13.18Q1279.63,207.62,1279.64,220Zm-69.83-27,7.08-9.71,9.22,6.18,5.34-7.22,10.81,7.22-7.35,9.63-9.22-6.1-5,7.21Zm5.48-17.05,7.14-9.43,10,6.72-7,9.5Z"/><path class="cls-1" d="M1421.92,220q0,29.61-61.78,29.61-41.17,0-41.18-24.13,0-7.27,5.34-17.89l10.47,3.26q-3.06,6.66-3,9.5,0,5.9,4.5,8.74,6.73,4.23,24.69,4.23h8.59a106.52,106.52,0,0,0,28.71-3.75q12.48-3.47,12.48-6.72,0-2.5-7.07-11.44l9.15-13.18A30.19,30.19,0,0,1,1421.92,220Zm-37.37,48.19-7.07,9.71-9.22-6.17-5.34,7.21L1352,271.76l7.42-9.64,9.22,6.1,5-7.28Zm-5.13,17-7.14,9.5-10-6.8,7-9.43Z"/><path class="cls-1" d="M1564.21,220q0,29.61-61.78,29.61-41.19,0-41.19-24.13,0-7.27,5.34-17.89l10.47,3.26q-3,6.66-3,9.5,0,5.9,4.51,8.74,6.72,4.23,24.68,4.23h8.6a106.39,106.39,0,0,0,28.7-3.75q12.48-3.47,12.48-6.72,0-2.5-7.07-11.44l9.15-13.18A30.16,30.16,0,0,1,1564.21,220Zm-42.64,49.79-8.6,11.37-11.72-7.77,8.6-11.51Z"/><path class="cls-1" d="M1615.46,244l-10.54,3.82-4-81.75,14.57-5.69Z"/><path class="cls-1" d="M238.27,379.41q0,19.14-8.46,30.3-9.44,12.48-28.08,12.48-13.95,0-21.5-8-7.35-7.84-7.35-21.78a49.15,49.15,0,0,1,5.34-21.49l10.89,3.81A37,37,0,0,0,185.29,390q0,15.94,18.31,15.94,21.84,0,21.84-22.81c0-1,0-2-.07-3L222.87,326l15.4-5.69Z"/><path class="cls-1" d="M400.59,318.05l-2.15,15.6q-10.89,2.57-19.21,4.78-20.79,5.55-27.94,8.88c-1.66.78-1.92,1.55-.76,2.28q25.65,16.52,25.65,31,0,29.19-54.84,29.19-43.2,0-43.2-25.17,0-8,5.55-18.93l11,3.47q-3.18,6.86-3.19,9.91,0,6.31,4.72,9.5,7.14,4.79,25.93,4.79h3a152.77,152.77,0,0,0,21.57-1.46q17.61-2.49,17.61-8.25,0-4.71-6.45-10.68-1.74-1.59-12.69-10-7.49-5.76-8.87-9.09a35.88,35.88,0,0,1,1.45-7.76q1.67-5.55,3.47-6.52Q359.41,330,400.59,318.05Zm.9-15.05-.9,8q-13.93,4.38-23.37,7.49-25.17,8.33-35,12.83l1.94-7.63Q356.92,317.77,401.49,303Z"/><path class="cls-1" d="M557.5,317.08l-2.14,16.57q-10.62,2.43-19.56,4.78-20.94,5.47-28.29,8.88c-1.48.69-1.71,1.43-.69,2.21q13,9.93,14.7,11.45,11.58,10.74,11.58,19.62,0,29.19-54.85,29.19-43.19,0-43.19-25.17,0-8,5.54-18.93l11,3.47q-3.19,6.86-3.19,9.91,0,6.31,4.71,9.5,7.16,4.79,25.94,4.79h3a152.53,152.53,0,0,0,21.56-1.46q17.61-2.49,17.61-8.25,0-5.47-12.69-15.39-13.86-10.83-15.32-14.36a35.81,35.81,0,0,1,1.66-8.73c1.16-3.79,2.25-6,3.26-6.52Q516.11,329.21,557.5,317.08Z"/><path class="cls-1" d="M664.92,392.65q0,20-10.06,31.13-10.47,11.58-30.3,11.58-16.42,0-25.44-10.54-7.71-8.94-7.7-21.77,0-10.32,5.68-22.12l10.61,3.82a39,39,0,0,0-2.08,6.65,38.06,38.06,0,0,0-1.45,8.6q0,9.3,6.31,14.42,5.82,4.72,15.32,4.72,12.13,0,20.11-4.86,9.71-6,9-17.33-4.23,3.68-11.09,3.68c-5.37,0-9.36-1.64-12-4.93a13.32,13.32,0,0,1-3-8.66,32.84,32.84,0,0,1,4-15q5-9.78,12.83-9.78,9.28,0,14.77,11.1A43,43,0,0,1,664.92,392.65ZM658,342.94l-7.63,10.33-9.43-6.66-5.54,7.77-11.93-8.11,7.63-10.33,10,6.86,5.48-7.77Zm-6.72,40.91a10.42,10.42,0,0,0-2.36-4.93,6,6,0,0,0-4.65-2.56,5.14,5.14,0,0,0-3.71,2,6,6,0,0,0-1.83,3.92q0,4.57,5.68,4.72C648,387.13,650.33,386.06,651.26,383.85Z"/><path class="cls-1" d="M806.23,377.88q0,31.75-61.78,31.76-41.19,0-41.18-24.13,0-7.27,5.33-17.89l10.47,3.26q-3,6.66-3.05,9.5,0,5.89,4.51,8.74,6.72,4.23,24.68,4.23h8.6q17.19,0,29.68-3.75,13.44-4,13-10.19-2.62,3-10.47,3-6.24,0-9.91-3.33t-3.68-9.43q0-6,4.09-13.45,5-9,11.93-9,8.6,0,13.73,11.65A47,47,0,0,1,806.23,377.88Zm-12.69-50.82-8.6,11.37-11.71-7.76,8.59-11.51Zm-.28,40.35a13.51,13.51,0,0,0-2.35-4.5c-1.34-1.71-2.71-2.57-4.09-2.57a4.82,4.82,0,0,0-3.23,1.84,5.16,5.16,0,0,0-1.77,3.36q0,4.92,5.34,4.92C790.3,370.46,792.34,369.45,793.26,367.41Z"/><path class="cls-1" d="M917.45,452.35q-10.74,4.57-24.82,4.58-19.49,0-31.69-7.63-14.62-9.15-14.63-27.46,0-17.67,19.49-32.1-9.64-6.66-9.64-17.47a21.54,21.54,0,0,1,7.11-16.19,23.3,23.3,0,0,1,16.6-6.76,20.81,20.81,0,0,1,8.74,2.11,17.47,17.47,0,0,1,6.93,5.31l-3.67,9.15a27.2,27.2,0,0,0-13-3.05,16.47,16.47,0,0,0-7.21,1.66c-2.86,1.34-4.3,3.12-4.3,5.34q0,4,5.62,7.14a19,19,0,0,0,9.36,2.84q1.88,0,10.68-2.08l11.44-2.7V389q-44.65,9.36-44.66,31.89,0,11,13,16.16,9.29,3.68,22.12,3.67,11,0,17.75-2.49Zm-30.57-126-8.6,11.37L866.56,330l8.6-11.51Z"/><path class="cls-1" d="M1014.88,452.35a62.94,62.94,0,0,1-24.82,4.58q-19.48,0-31.69-7.63-14.62-9.15-14.63-27.46,0-17.67,19.48-32.1-9.63-6.66-9.64-17.47a21.54,21.54,0,0,1,7.11-16.19,23.32,23.32,0,0,1,16.61-6.76,20.8,20.8,0,0,1,8.73,2.11,17.51,17.51,0,0,1,6.94,5.31l-3.68,9.15a27.16,27.16,0,0,0-13-3.05,16.44,16.44,0,0,0-7.21,1.66q-4.3,2-4.3,5.34,0,4,5.61,7.14a19,19,0,0,0,9.36,2.84q1.88,0,10.68-2.08l11.44-2.7V389q-44.65,9.36-44.65,31.89,0,11,13,16.16,9.28,3.68,22.11,3.67,11,0,17.75-2.49Z"/><path class="cls-1" d="M1113.14,375.6q0,14.83-13.59,23.08-11.65,7.08-28.92,7.08h-11.09q-17.68,0-23.85-8.95l5.34-10.33a20.8,20.8,0,0,0,10.4,2.71q7.9,0,9.84-7.49.63-2.56.63-14.08a415.42,415.42,0,0,0-2.57-41.6l14.77-5.69v48.12q11-10,20.94-10,7.83,0,12.9,4.58A16.26,16.26,0,0,1,1113.14,375.6Zm-11.44,4.22q0-5.88-9.92-5.89-6.37,0-14.21,6.45-1.18,1-9.43,9.15H1075a66.83,66.83,0,0,0,15.32-1.87Q1101.69,384.89,1101.7,379.82Zm2.77-44.92-8.6,11.37-11.72-7.77,8.6-11.51Z"/><path class="cls-1" d="M1225.19,375.6q0,14.83-13.59,23.08-11.65,7.08-28.91,7.08h-11.1q-17.67,0-23.85-8.95l5.34-10.33a20.83,20.83,0,0,0,10.4,2.71q7.9,0,9.85-7.49.62-2.56.62-14.08a415,415,0,0,0-2.56-41.6l14.76-5.69v48.12q11-10,20.94-10,7.85,0,12.9,4.58A16.22,16.22,0,0,1,1225.19,375.6Zm-11.44,4.22q0-5.88-9.92-5.89-6.37,0-14.21,6.45-1.18,1-9.43,9.15h6.87a66.9,66.9,0,0,0,15.32-1.87Q1213.75,384.89,1213.75,379.82Z"/><path class="cls-1" d="M1399.09,375.6q0,14.83-13.17,23.08-11.31,7.08-27.46,7.08h-9.91q-11.1,0-13.73-2.85,0,16.79-10.33,27.81Q1313.95,442,1297.24,442t-25.1-10.54q-6.72-8.46-6.73-21.7,0-10.61,5.76-22.12l10.82,3.81q-3.83,9.86-3.82,15.26,0,9.28,5.62,14.28,5.4,4.78,14.84,4.78,10,0,16.64-5.61,7-5.9,7-15.74,0-9.49-6.86-18.72l12.2-11.44q7.14,15,11.58,15a5.65,5.65,0,0,0,3.19-.69,35,35,0,0,0,3.12-3.47q21.76-26.68,35.5-26.69,7.83,0,12.89,4.58A16.22,16.22,0,0,1,1399.09,375.6ZM1356.45,342l-8.6,11.37-11.71-7.77,8.59-11.51Zm31.2,37.85q0-5.88-9.91-5.89-6.32,0-14.22,6.45-1.51,1.25-9.43,9.15H1361a66.83,66.83,0,0,0,15.32-1.87Q1387.65,384.89,1387.65,379.82Z"/><path class="cls-1" d="M1572.51,375.6q0,14.83-13.17,23.08-11.31,7.08-27.46,7.08H1522q-11.1,0-13.73-2.85,0,16.79-10.33,27.81Q1487.37,442,1470.66,442t-25.1-10.54q-6.74-8.46-6.73-21.7,0-10.61,5.76-22.12l10.81,3.81q-3.81,9.86-3.81,15.26,0,9.28,5.62,14.28,5.4,4.78,14.83,4.78,10.07,0,16.64-5.61,7-5.9,7-15.74,0-9.49-6.87-18.72L1501,374.28q7.14,15,11.58,15a5.61,5.61,0,0,0,3.18-.69,33.32,33.32,0,0,0,3.13-3.47q21.76-26.68,35.5-26.69,7.83,0,12.89,4.58A16.22,16.22,0,0,1,1572.51,375.6Zm-11.44,4.22q0-5.88-9.91-5.89-6.32,0-14.22,6.45-1.53,1.25-9.43,9.15h6.87a66.9,66.9,0,0,0,15.32-1.87Q1561.07,384.89,1561.07,379.82Z"/><path class="cls-1" d="M1733.17,381.56a27.48,27.48,0,0,1-4.44,15.25q-5.13,7.85-13.1,7.84-11,0-16-7.49-4.15,7.27-11.65,7.28-7.7,0-9.7-2.84,0,16.77-10.33,27.8-10.54,11.3-27.25,11.3t-25.1-10.54q-6.74-8.46-6.73-21.7,0-10.6,5.76-22.12l10.81,3.82q-3.81,9.84-3.81,15.25,0,9.29,5.62,14.28,5.4,4.79,14.83,4.79,10.07,0,16.64-5.62,7-5.89,7-15.74,0-9.5-6.87-18.72L1671.05,373q4.42,8.81,5,9.64,4,5.61,9.5,5.61,9.92,0,9.91-9.15v-5.34l10.06-3.05v7.07a11.22,11.22,0,0,0,2.63,7.63,9.11,9.11,0,0,0,7.28,3.26q6.11,0,6.1-5.75,0-5.34-4.71-9.71l9.91-11.1Q1733.17,369.23,1733.17,381.56Zm-49.92-29.33,7.07-9.71,9.22,6.17,5.34-7.21,10.82,7.21-7.35,9.64-9.22-6.1-5,7.21Zm5.48-17.06,7.14-9.43,10,6.73-7,9.5Z"/><path class="cls-1" d="M213.37,546.13q0,9.17-5.68,15t-14.77,5.83q-7.77,0-12.27-3.54-5.07-3.89-5.06-11.37,0-8.46,8-21.15l-3-1.39,7.63-13.1a42.82,42.82,0,0,1,17.33,11.09Q213.37,535.94,213.37,546.13Zm-10.88.91q0-6.45-10.61-11.58-5.2,6.85-5.2,10.67,0,5.68,6.66,5.69a16,16,0,0,0,5.61-1Q202.49,549.4,202.49,547Z"/><path class="cls-1" d="M336.18,521.1,332.5,535q-4-1.72-11.79-1.73a18.25,18.25,0,0,0-11.37,3.81c-3,2.27-4.43,4.48-4.43,6.66a2.29,2.29,0,0,0,1.87,2.35q1.32.42,12.41,1.32,14.49,1.18,14.49,11.65,0,15-14,25-13,9.23-30.64,9.22-35.64,0-35.64-30,0-11.09,6.73-22.67l11.23,3.81a27.69,27.69,0,0,0-4.58,15.05q0,17.61,24.2,17.61A57.48,57.48,0,0,0,305.25,575q11.1-2.91,16.57-8.39a3.51,3.51,0,0,0,1.25-2.43c0-1.29-.85-2-2.56-2.22q-3-.35-18.31-1.59-9.7-2-9.7-11,0-11.72,9.91-21.77t21.56-10a25.08,25.08,0,0,1,6.45.62A24,24,0,0,1,336.18,521.1Z"/><path class="cls-1" d="M410.93,553q0,13.31-11.23,26.42-10.47,12.2-23.79,16.84L366,586.77a78.32,78.32,0,0,0,22.46-13.66q9.92-8.46,10.82-13.94A20.93,20.93,0,0,1,390.2,561q-15,0-15-14.35A31.41,31.41,0,0,1,379,532.61q4.73-9.36,11.93-9.36,10.61,0,15.88,10.13Q410.93,541.35,410.93,553Zm-12-6.8a11.6,11.6,0,0,0-2.35-6.1C395,538,393.18,537,391.1,537a5.4,5.4,0,0,0-4.16,2,6.54,6.54,0,0,0-1.8,4.4c0,2.82,2.35,4.23,7.07,4.23A13.07,13.07,0,0,0,398.93,546.2Z"/><path class="cls-1" d="M519.1,545q0,17.46-10.68,27.73T480.2,583q-15.1,0-23.47-8.25t-8.35-23.23a42.76,42.76,0,0,1,1.91-10.92,43.87,43.87,0,0,1,4-10.29l10.4,3.81A33.43,33.43,0,0,0,461,548.56q0,9,5.82,13.8,5.34,4.36,14.56,4.37,10.41,0,16.78-4.86,7.08-5.4,7.07-15.39,0-9.08-6.44-17.82l12-9.84Q519.11,528.59,519.1,545Zm-27.73-41-8.6,11.37-11.72-7.77,8.6-11.51Z"/><path class="cls-1" d="M609.45,543.57q0,4.5-4,11.23-4.23,7.35-8.39,7.35c-.83,0-2.06-.08-3.67-.24l-5.13-.52-5.13-.52c-1.62-.16-2.85-.24-3.68-.24a13.35,13.35,0,0,0-4.09.52,5.7,5.7,0,0,0-2.57,1.62,6.43,6.43,0,0,0-1.35,2.88,20.86,20.86,0,0,0-.38,4.27v49.29H559.6q-1.11-26.9-1.63-40.42t-.52-13.66a23.33,23.33,0,0,1,1-6.69,21.12,21.12,0,0,1,2.71-5.79,17.3,17.3,0,0,1,4.09-4.3,13,13,0,0,1,5.2-2.29,30.61,30.61,0,0,1,3.33-14q4-8,10.88-8t15.6,6.24Q609.45,537,609.45,543.57Zm-24-6.17a4.82,4.82,0,0,0-2.21.52,6.08,6.08,0,0,0-1.81,1.35,6.3,6.3,0,0,0-1.21,1.94,6.23,6.23,0,0,0-.45,2.36c0,.23,0,.48,0,.76s.06.56.11.83l13,1.53a5.71,5.71,0,0,0,2.53-.38,1.37,1.37,0,0,0,.66-1.29,4,4,0,0,0-1.18-2.53,14.78,14.78,0,0,0-2.84-2.49,17.67,17.67,0,0,0-3.47-1.87A8.46,8.46,0,0,0,585.46,537.4Z"/><path class="cls-1" d="M214.76,745.15h-12q0-44.92-18.45-69.33l9.09-19.9q12,14.21,17.05,38Q214.77,714,214.76,745.15Z"/><path class="cls-1" d="M303.65,655q0,40.9-25.65,40.91,4.15,19.33,4.16,49.29H270.3q0-44.64-18.44-69.33l8.94-19.9q6.87,12,10.47,15.53a13.3,13.3,0,0,0,9.71,3.81q7.2,0,9.91-4.57,2.08-3.54,2.08-11.37Z"/><path class="cls-1" d="M387.75,654.74q.28,3.46.28,6.73,0,15.1-6,23.78-5.26,7.62-13,7.62a12.92,12.92,0,0,1-8.73-3.39q-5.21,6.38-12.21,6.38,4.23,20,4.23,49.29h-12q0-44.92-18.45-69.33l9.09-19.9q7.27,12.75,9.64,15.53a9.7,9.7,0,0,0,7.69,3.81c3.51,0,5.76-1.73,6.73-5.2q.62-2.22.62-9.63l8-4.3a43.72,43.72,0,0,0,1.39,11.37q2.15,7.75,6.73,7.76,6.65,0,6.65-10.81a39.42,39.42,0,0,0-.41-5.41Z"/><path class="cls-1" d="M461.74,680.88q-8.75,15.87-28,15.88a36.7,36.7,0,0,1-8-.9q4.15,18.93,4.16,49.29H418q0-44.64-18.44-69.33l8.95-19.9A92.3,92.3,0,0,1,419,671.24a19.74,19.74,0,0,1,4.57-11.51,17.7,17.7,0,0,1,14.7-7.14q9.28,0,14.49,6.93l-3.33,6.94a20.85,20.85,0,0,0-10.47-2.71,12.29,12.29,0,0,0-6.93,2,8.33,8.33,0,0,0-3.95,7.42q0,7.29,11.79,7.28A26.29,26.29,0,0,0,457.78,674Z"/><path class="cls-1" d="M537.38,719.29q0,10.68-5.68,18.1-5.21,6.72-11.58,6.72-7.9,0-12.14-5.13-5.34,7.42-13.66,7.42-8.86,0-13.38-7-3.74-5.89-3.74-15.25,0-19.9,20.1-45.91l-4.16-4.09,8.39-17.75a101.83,101.83,0,0,1,24.83,27.74Q537.39,702.23,537.38,719.29Zm-11.58-.83q0-7.43-7.21-18.37a81.37,81.37,0,0,0-13.59-16q-16.58,21.84-16.57,33.14a11.77,11.77,0,0,0,2,6.73,6.85,6.85,0,0,0,5.82,3.33,12.24,12.24,0,0,0,10.89-6.11,8.6,8.6,0,0,0,3.54,4,9.33,9.33,0,0,0,5.06,1.87Q525.8,727.06,525.8,718.46Z"/><path class="cls-1" d="M612.89,683.24,608,704.38q-17,8.26-27.87,19.7-8.12,8.52-16.36,23.15l-9.85-4a119.93,119.93,0,0,1,22.68-35.71q-19.77-2.36-19.77-20,0-7.76,9.23-18.51,10.05-11.72,20.17-11.72a22,22,0,0,1,9.36,2.36,24.07,24.07,0,0,1,8,5.76l-5.62,9.15q-7.77-3.39-12.34-3.4-6.37,0-12.41,4.86-5.48,4.36-5.48,7.76,0,3.6,7.35,5.89a42.5,42.5,0,0,0,12.69,1.88,40.41,40.41,0,0,0,11.3-2.08A56.29,56.29,0,0,0,612.89,683.24Z"/><path class="cls-1" d="M693.39,678q-8.32,7.83-16.44,25.37-10.26,22.26-10.26,42.85H654.07q0-20.79-10.61-42.85-7.49-15.6-16.22-25.1L634,658.07a127.52,127.52,0,0,1,16.71,26.62,156.35,156.35,0,0,1,9.7,30q8.46-38.35,26.07-56.79Q688.61,661.67,693.39,678Z"/><path class="cls-1" d="M769,725.6l-6.72,20.18a128.37,128.37,0,0,1-16.64-26.7,151.45,151.45,0,0,1-9.71-30q-8.46,38.07-26.07,56.93-2.22-4-6.93-20.25,8.25-7.77,16.36-25.38,10.26-22.26,10.26-42.78H742.2q0,20.6,10.68,42.78Q760.37,716,769,725.6Z"/><path class="cls-1" d="M838.37,727.68,828,745.57q-14.49-16.44-14.49-40.49-27.81,0-27.81-20,0-7.56,6.8-18.58,7.69-12.48,15.6-12.48,11.64,0,15.25,12,2,6.38,1.94,21.77,0,13,2.29,21.43a34.11,34.11,0,0,0,5.2,11.58Q833.3,721.44,838.37,727.68ZM813.2,687c0-.88,0-2.21.07-4s.07-3.1.07-4q0-5-1.39-7.07-1.8-2.57-6.59-2.57-3.6,0-6.24,4.3a14.51,14.51,0,0,0-2.35,7.69c0,2.08,1.85,3.66,5.54,4.72a30.13,30.13,0,0,0,8.05,1A26.55,26.55,0,0,0,813.2,687Z"/><path class="cls-1" d="M900.56,713.47,885.1,728.93l-15.6-15.46,15.6-15.6Z"/><path class="cls-1" d="M192.71,876.82h-2.42a43.67,43.67,0,0,1,.58-9.74,38.41,38.41,0,0,1,3.82-8.91,50.92,50.92,0,0,0,4.09-9.11,30.71,30.71,0,0,0,1-8.5q0-7.83-3.05-11.51a9.11,9.11,0,0,0-7.21-3.67,8.77,8.77,0,0,0-5.41,1.66,3.48,3.48,0,0,0-1.59,2.71,7.71,7.71,0,0,0,1.11,3q2.49,4.44,2.49,7.62a6.57,6.57,0,0,1-1.94,4.86,6.67,6.67,0,0,1-4.92,1.94,7.37,7.37,0,0,1-5.51-2.32,8.46,8.46,0,0,1-2.25-6.14q0-6.93,6-12.2t16.82-5.27q11.37,0,17.33,5.44a17.21,17.21,0,0,1,6,13.21,18.65,18.65,0,0,1-3,10.3q-3,4.74-11.85,10.5-5.83,3.89-7.7,6.93T192.71,876.82Zm-.62,8.6a9.24,9.24,0,0,1,6.72,2.74,9.5,9.5,0,1,1-13.45,0A9.24,9.24,0,0,1,192.09,885.42Z"/><path class="cls-1" d="M274.39,815.53l-32.45,99.85h-8.32L266,815.53Z"/><path class="cls-1" d="M355.1,872,299.21,898.8v-9.29l43.41-20.59-43.41-20.45v-9.29L355.1,865.8Z"/><path class="cls-1" d="M378.12,924.81V823.09h23.71v2.5h-2.71c-2.58,0-4.32.25-5.2.76a4.7,4.7,0,0,0-2,2.36q-.66,1.59-.66,7.55v75.86a49,49,0,0,0,.21,6.44,5.19,5.19,0,0,0,2,3.13c.95.64,2.83,1,5.65,1h2.71v2.15Z"/><path class="cls-1" d="M433.24,823.09V924.81H409.66v-2.22h2.64c2.59,0,4.32-.26,5.2-.77a4.83,4.83,0,0,0,2-2.35q.69-1.61.69-7.42V836a52.29,52.29,0,0,0-.2-6.45,5.75,5.75,0,0,0-2.05-3c-.95-.7-2.83-1-5.65-1h-2.64v-2.36Z"/><path class="cls-1" d="M488.22,821.22v2.7q-5.89,1.19-8.7,4.16a9.82,9.82,0,0,0-2.81,6.94,43.64,43.64,0,0,0,1.39,9.74A45.42,45.42,0,0,1,479.49,855a16.62,16.62,0,0,1-2.33,8.12,20.09,20.09,0,0,1-6.83,7.07,37.13,37.13,0,0,1-9.91,4q7.27,2.22,10.61,4.44a20.92,20.92,0,0,1,6.48,7.11,16.26,16.26,0,0,1,2.18,7.66,41.6,41.6,0,0,1-1.45,9.43A43.37,43.37,0,0,0,476.78,913a10.59,10.59,0,0,0,2.71,7.28q2.7,3,8.73,4.23v2.7h-2.08a23.44,23.44,0,0,1-11.4-2.77,20.19,20.19,0,0,1-8.08-7.28,16.47,16.47,0,0,1-2.71-8.53,49.06,49.06,0,0,1,1.74-11.16,37.42,37.42,0,0,0,1.38-9.36,11.47,11.47,0,0,0-2.91-7.91q-2.91-3.25-8.6-4.23v-3.53q5.69-1,8.6-4.37a12.27,12.27,0,0,0,2.91-8.25,36.77,36.77,0,0,0-1.31-9.08A45.65,45.65,0,0,1,464,840.08a15.3,15.3,0,0,1,2.33-7.77A20.61,20.61,0,0,1,472,825.9a23.21,23.21,0,0,1,7.59-3.57A42.75,42.75,0,0,1,488.22,821.22Z"/><path class="cls-1" d="M498.69,927.16v-2.7q5.82-1.11,8.67-4.13a9.79,9.79,0,0,0,2.84-6.9,41.6,41.6,0,0,0-1.45-9.77,42.38,42.38,0,0,1-1.46-10.19,16.49,16.49,0,0,1,2.36-8.19,20.23,20.23,0,0,1,6.93-7.07q3-2,9.92-3.88-7.29-2.3-10.61-4.58a19.39,19.39,0,0,1-6.56-7,16.5,16.5,0,0,1-2.18-7.7,41.19,41.19,0,0,1,1.46-9.39,43.26,43.26,0,0,0,1.45-10.23,10.5,10.5,0,0,0-2.67-7.18q-2.67-3-8.7-4.26v-2.77h2.08A23.49,23.49,0,0,1,512.14,824a20.24,20.24,0,0,1,8.11,7.25,16.47,16.47,0,0,1,2.71,8.7,48,48,0,0,1-1.8,11,39.14,39.14,0,0,0-1.32,9.36,11.54,11.54,0,0,0,2.88,7.91q2.87,3.25,8.63,4.16V876q-5.76,1-8.63,4.37a12.35,12.35,0,0,0-2.88,8.25,35.73,35.73,0,0,0,1.32,9.08,48.74,48.74,0,0,1,1.73,10.54,15.41,15.41,0,0,1-2.29,7.87,20.27,20.27,0,0,1-5.72,6.38,23.21,23.21,0,0,1-7.59,3.57A38.37,38.37,0,0,1,498.69,927.16Z"/><path class="cls-1" d="M581.69,913.71a87.69,87.69,0,0,0-7.56,5.2q-21.78-25.38-21.77-52.21a68,68,0,0,1,4.37-23.23,92.11,92.11,0,0,1,17.4-29.12,50.74,50.74,0,0,0,7.56,5.2q-16.1,24.21-16.09,46.94Q565.6,889.52,581.69,913.71Z"/><path class="cls-1" d="M622.46,866.7q0,26.91-21.78,52.21a46.91,46.91,0,0,0-7.55-5.2q16.15-24.19,16.15-47.22,0-22.74-16.15-46.94a85.66,85.66,0,0,0,7.55-5.2,90.38,90.38,0,0,1,17.41,29.12A69,69,0,0,1,622.46,866.7Z"/><path class="cls-1" d="M646,902.41a7.9,7.9,0,0,1-5.79-2.39,8,8,0,0,1-2.39-5.86,8.23,8.23,0,0,1,8.18-8.25,8.08,8.08,0,0,1,5.89,2.39,7.9,7.9,0,0,1,2.43,5.86,8.16,8.16,0,0,1-8.32,8.25Z"/><path class="cls-1" d="M691.79,839.38,687.63,883h-9.22L674,839.38V819.07h17.82Zm-.41,65.73H674.8V888.47h16.58Z"/></g></svg>