<svg xmlns="http://www.w3.org/2000/svg" viewBox="0 0 1920 1080"><defs><style>.cls-1{fill:#fff;}</style></defs><g id="Layer_2" data-name="Layer 2"><rect width="1920" height="1080"/></g><g id="Layer_1" data-name="Layer 1"><path class="cls-1" d="M303.23,223.67a33.26,33.26,0,0,1,2.49,11.65,20.93,20.93,0,0,1-1.56,8.23,19.24,19.24,0,0,1-4.26,6.32,18.51,18.51,0,0,1-6.46,4,22.88,22.88,0,0,1-8.17,1.42q-11.64,0-15.9-9.09a18.69,18.69,0,0,1-6.61,6.82,18.51,18.51,0,0,1-9.44,2.27,17,17,0,0,1-5.25-.78,9.76,9.76,0,0,1-4-2.34,37.46,37.46,0,0,1,0,6.53,39.94,39.94,0,0,1-3.62,13.49,32.16,32.16,0,0,1-7.81,10.43A34.26,34.26,0,0,1,221,289.35a46.19,46.19,0,0,1-15.06,2.34,40.74,40.74,0,0,1-13.49-2.13A29,29,0,0,1,182,283.38a27.44,27.44,0,0,1-6.75-10.08,36.62,36.62,0,0,1-2.41-13.7,39.47,39.47,0,0,1,2.06-13.14A65.51,65.51,0,0,1,181,233.9l8.81,3.83a46,46,0,0,0-4.62,10.58,33.35,33.35,0,0,0-1.35,8.73q0,9.81,6.11,15.06t17.32,5.25q11.79,0,18.89-6.32t7.1-17.11A31.63,31.63,0,0,0,231,243.13a62.85,62.85,0,0,0-6.11-12.07l10.23-8.66q2.4,4.54,4.33,7.95a39.5,39.5,0,0,0,3.83,5.75,13.79,13.79,0,0,0,4.19,3.55,11.72,11.72,0,0,0,5.54,1.21q6.81,0,9.3-2.7t2.48-8.95v-4.83l10.37-2.55q0,10.08,2,14.55t8.23,4.48a16.65,16.65,0,0,0,6.39-1.07c1.71-.71,2.56-1.82,2.56-3.34,0-1.23-.74-3.31-2.2-6.24a53.37,53.37,0,0,0-5.89-9.09L295.78,211A45.84,45.84,0,0,1,303.23,223.67Z"/><path class="cls-1" d="M381.83,242A28.32,28.32,0,0,1,379,254.42a50.47,50.47,0,0,1-7.74,11.43,86.15,86.15,0,0,1-11.64,10.79q-6.75,5.25-14.56,10.37l-9.8-9.38q8.1-4.83,14.63-9.65A125.55,125.55,0,0,0,361,258.82a45.92,45.92,0,0,0,7.1-8.17c1.65-2.55,2.48-4.78,2.48-6.67q0-3.27-2.62-8.8a81.2,81.2,0,0,0-6.32-10.94l9.51-9.51a61,61,0,0,1,8.24,15A37.93,37.93,0,0,1,381.83,242Zm-22.58-36.35-9.37-7.95,7.53-8.95,9.51,7.95Zm7.1-18-9.09-7.53,7.25-8.66,8.94,7.67Zm10.51,18-9.37-7.95,7.38-8.95,9.66,7.95Z"/><path class="cls-1" d="M457.94,242a28.32,28.32,0,0,1-2.84,12.43,50.47,50.47,0,0,1-7.74,11.43,86.75,86.75,0,0,1-11.64,10.79Q429,281.89,421.16,287l-9.8-9.38q8.1-4.83,14.63-9.65a125.55,125.55,0,0,0,11.15-9.16,45.92,45.92,0,0,0,7.1-8.17c1.65-2.55,2.48-4.78,2.48-6.67q0-3.27-2.63-8.8a80.06,80.06,0,0,0-6.31-10.94l9.51-9.51a61,61,0,0,1,8.24,15A37.93,37.93,0,0,1,457.94,242Zm-13.63-36.35-9.94-8.38,7.81-9.23,10.08,8.24Z"/><path class="cls-1" d="M534.05,242a28.32,28.32,0,0,1-2.84,12.43,50.47,50.47,0,0,1-7.74,11.43,86.75,86.75,0,0,1-11.64,10.79q-6.75,5.25-14.56,10.37l-9.8-9.38q8.1-4.83,14.63-9.65a125.55,125.55,0,0,0,11.15-9.16,45.92,45.92,0,0,0,7.1-8.17c1.65-2.55,2.48-4.78,2.48-6.67q0-3.27-2.63-8.8a79.11,79.11,0,0,0-6.32-10.94l9.52-9.51a60.63,60.63,0,0,1,8.23,15A37.71,37.71,0,0,1,534.05,242Z"/><path class="cls-1" d="M625.92,234q0,7.1-2.41,11.57a17.85,17.85,0,0,1-6.54,7,26,26,0,0,1-9.51,3.34,72.56,72.56,0,0,1-11.36.85,38.24,38.24,0,0,1-11.79-1.63,22.73,22.73,0,0,1-9.51-6.61l6.25-10.93a21.93,21.93,0,0,0,7.1,3.62,31.4,31.4,0,0,0,8.66,1.07q8.94,0,13.77-2.06c3.22-1.37,4.83-3,4.83-4.9q0-3.69-4.9-10.23T593.4,210.47l5.68-13.78a67.31,67.31,0,0,1,9.8,7.25,65.36,65.36,0,0,1,8.59,9.15,49.12,49.12,0,0,1,6.11,10.3A26.64,26.64,0,0,1,625.92,234ZM600.5,186.47l-9.94-8.38,7.81-9.23,10.08,8.24Z"/><path class="cls-1" d="M717.79,234q0,7.1-2.41,11.57a17.83,17.83,0,0,1-6.53,7,26.12,26.12,0,0,1-9.52,3.34,72.56,72.56,0,0,1-11.36.85,38.13,38.13,0,0,1-11.78-1.63,22.7,22.7,0,0,1-9.52-6.61l6.25-10.93a22,22,0,0,0,7.1,3.62,31.4,31.4,0,0,0,8.66,1.07q9,0,13.78-2.06c3.21-1.37,4.82-3,4.82-4.9q0-3.69-4.89-10.23t-17.12-14.62L691,196.69a67.24,67.24,0,0,1,9.79,7.25,65.36,65.36,0,0,1,8.59,9.15,48.69,48.69,0,0,1,6.11,10.3A26.64,26.64,0,0,1,717.79,234Z"/><path class="cls-1" d="M801.43,227.08a127.46,127.46,0,0,1-14.06-3,37.78,37.78,0,0,0-8.38-1.7,6.18,6.18,0,0,0-4.61,2.2,40.09,40.09,0,0,0-4.76,6.74l-8.52-4q4.39-9.81,8.17-14.28a11.4,11.4,0,0,1,9-4.47,32,32,0,0,1,8.66,1.49q5.12,1.5,11,3.27t12.35,3.27a57.88,57.88,0,0,0,13,1.49h3.33c.9,0,2,0,3.34-.15l-3.41,14.06A67.49,67.49,0,0,0,815,233.76a82.33,82.33,0,0,0-12.35,3.9,83.92,83.92,0,0,0-11.86,5.89,50.3,50.3,0,0,0-10,7.81,38,38,0,0,0-7,9.66,25.74,25.74,0,0,0-.71,21.09,18.73,18.73,0,0,0,6.18,7.66,32.68,32.68,0,0,0,11.07,5.05,65.61,65.61,0,0,0,16.76,1.84,102.3,102.3,0,0,0,13.91-.92,109.62,109.62,0,0,0,12.64-2.49l3.55,11.93A81.54,81.54,0,0,1,821,309.51a102.46,102.46,0,0,1-16.33,1.35,74.2,74.2,0,0,1-17.75-2A38.22,38.22,0,0,1,773,302.55a29.87,29.87,0,0,1-9.16-11.28q-3.35-7-3.34-16.9a40.29,40.29,0,0,1,2.7-14.56,43.73,43.73,0,0,1,7.95-13.06A63.41,63.41,0,0,1,784,235.67,82,82,0,0,1,801.43,227.08Zm-17.33-32.8-9.93-8.38,7.8-9.23,10.09,8.24Z"/><path class="cls-1" d="M913.61,227.08a127,127,0,0,1-14.06-3,37.89,37.89,0,0,0-8.38-1.7,6.22,6.22,0,0,0-4.62,2.2,40.14,40.14,0,0,0-4.75,6.74l-8.52-4q4.4-9.81,8.16-14.28a11.44,11.44,0,0,1,9-4.47,32.08,32.08,0,0,1,8.66,1.49q5.11,1.5,11,3.27t12.35,3.27a57.86,57.86,0,0,0,13,1.49h3.34c.9,0,2,0,3.34-.15l-3.41,14.06a67.35,67.35,0,0,0-11.57,1.71,82.81,82.81,0,0,0-12.36,3.9A83.81,83.81,0,0,0,903,243.55a50.65,50.65,0,0,0-10,7.81,38.16,38.16,0,0,0-7,9.66,25.74,25.74,0,0,0-.71,21.09,18.62,18.62,0,0,0,6.17,7.66,32.74,32.74,0,0,0,11.08,5.05,65.55,65.55,0,0,0,16.76,1.84,102.41,102.41,0,0,0,13.91-.92,110,110,0,0,0,12.64-2.49l3.55,11.93a81.54,81.54,0,0,1-16.19,4.33,102.65,102.65,0,0,1-16.33,1.35,74.14,74.14,0,0,1-17.75-2,38.22,38.22,0,0,1-13.91-6.32,29.77,29.77,0,0,1-9.16-11.28q-3.34-7-3.34-16.9a40.29,40.29,0,0,1,2.7-14.56,43.73,43.73,0,0,1,8-13.06,63.41,63.41,0,0,1,12.85-11.08A81.55,81.55,0,0,1,913.61,227.08Z"/><path class="cls-1" d="M1025.78,227.08a127.46,127.46,0,0,1-14.06-3,37.83,37.83,0,0,0-8.37-1.7,6.19,6.19,0,0,0-4.62,2.2,40.68,40.68,0,0,0-4.76,6.74l-8.52-4q4.41-9.81,8.17-14.28a11.42,11.42,0,0,1,9-4.47,32.08,32.08,0,0,1,8.66,1.49q5.12,1.5,11,3.27t12.36,3.27a57.72,57.72,0,0,0,13,1.49H1051q1.35,0,3.33-.15l-3.4,14.06a67.59,67.59,0,0,0-11.58,1.71,83.06,83.06,0,0,0-12.35,3.9,84.46,84.46,0,0,0-11.86,5.89,50.58,50.58,0,0,0-10,7.81,38,38,0,0,0-7,9.66,25.84,25.84,0,0,0-.71,21.09,18.73,18.73,0,0,0,6.18,7.66,32.65,32.65,0,0,0,11.08,5.05,65.47,65.47,0,0,0,16.75,1.84,102.45,102.45,0,0,0,13.92-.92,110,110,0,0,0,12.64-2.49l3.55,11.93a81.72,81.72,0,0,1-16.19,4.33,102.65,102.65,0,0,1-16.33,1.35,74.08,74.08,0,0,1-17.75-2,38.19,38.19,0,0,1-13.92-6.32,30,30,0,0,1-9.16-11.28q-3.33-7-3.33-16.9a40.49,40.49,0,0,1,2.69-14.56,43.56,43.56,0,0,1,8-13.06,63.14,63.14,0,0,1,12.85-11.08A81.7,81.7,0,0,1,1025.78,227.08Zm-13.2,35.79,7.1-8.52,9.08,7.52-7.1,8.66Zm10.36,16.75,6.82-8.09,8.66,7.24-7,8.09Zm6.39-16.75,7.1-8.52,9.09,7.52-7.1,8.66Z"/><path class="cls-1" d="M1138,227.08a127.46,127.46,0,0,1-14.06-3,37.78,37.78,0,0,0-8.38-1.7,6.18,6.18,0,0,0-4.61,2.2,40.09,40.09,0,0,0-4.76,6.74l-8.52-4q4.39-9.81,8.17-14.28a11.4,11.4,0,0,1,9-4.47,32,32,0,0,1,8.66,1.49q5.12,1.5,11,3.27t12.35,3.27a57.88,57.88,0,0,0,13,1.49h3.33c.9,0,2,0,3.34-.15l-3.41,14.06a67.49,67.49,0,0,0-11.57,1.71,82.33,82.33,0,0,0-12.35,3.9,83.92,83.92,0,0,0-11.86,5.89,50.3,50.3,0,0,0-10,7.81,38,38,0,0,0-7,9.66,25.74,25.74,0,0,0-.71,21.09,18.73,18.73,0,0,0,6.18,7.66,32.68,32.68,0,0,0,11.07,5.05,65.61,65.61,0,0,0,16.76,1.84,102.3,102.3,0,0,0,13.91-.92,109.62,109.62,0,0,0,12.64-2.49l3.55,11.93a81.36,81.36,0,0,1-16.19,4.33,102.46,102.46,0,0,1-16.33,1.35,74.2,74.2,0,0,1-17.75-2,38.22,38.22,0,0,1-13.91-6.32,29.87,29.87,0,0,1-9.16-11.28q-3.35-7-3.34-16.9a40.29,40.29,0,0,1,2.7-14.56,43.73,43.73,0,0,1,8-13.06,63.41,63.41,0,0,1,12.85-11.08A82,82,0,0,1,1138,227.08Zm3.41,50-9.94-8.38,7.81-9.37,10.08,8.37Z"/><path class="cls-1" d="M1220.46,233.33a6.39,6.39,0,0,0,2.34,5.11,17.53,17.53,0,0,0,6.53,3.2,49.52,49.52,0,0,0,9.94,1.63q5.76.42,12.71.43,5.54,0,11.58-.36c4-.23,8-.57,11.92-1s7.65-.93,11.15-1.49a88.77,88.77,0,0,0,9.37-2,27.79,27.79,0,0,0,6.18-2.7,13.89,13.89,0,0,0,2.77-2.27,33.55,33.55,0,0,0-2.27-5.61,52.85,52.85,0,0,0-5.54-8.45l9.51-9.94a46.3,46.3,0,0,1,6.75,11.93,32.6,32.6,0,0,1,2.2,11.22,16.66,16.66,0,0,1-2.13,8.59,19.51,19.51,0,0,1-5.82,6.17,32.42,32.42,0,0,1-9,4.19,82.81,82.81,0,0,1-11.36,2.63,92.56,92.56,0,0,1-9.16,1.63c-3.26.43-6.56.78-9.87,1.07s-6.55.49-9.72.64-6.09.21-8.74.21c-5.2,0-10.25-.21-15.12-.64a45,45,0,0,1-12.92-2.91,20.86,20.86,0,0,1-9-6.75q-3.4-4.47-3.41-12a31.29,31.29,0,0,1,1.28-8,38.88,38.88,0,0,1,4.12-9.51l8.8,3.12a66.44,66.44,0,0,0-2.41,6.89A18.59,18.59,0,0,0,1220.46,233.33Zm32.09-14.91-9.37-7.95,7.53-8.95,9.51,7.95Zm7.1-18-9.09-7.53,7.24-8.66,9,7.67Zm10.51,18-9.37-7.95,7.38-8.95,9.66,7.95Z"/><path class="cls-1" d="M1369.56,233.33a6.39,6.39,0,0,0,2.34,5.11,17.53,17.53,0,0,0,6.53,3.2,49.52,49.52,0,0,0,9.94,1.63q5.76.42,12.71.43,5.54,0,11.57-.36c4-.23,8-.57,11.93-1s7.64-.93,11.15-1.49a89.32,89.32,0,0,0,9.37-2,27.79,27.79,0,0,0,6.18-2.7,13.89,13.89,0,0,0,2.77-2.27,32.9,32.9,0,0,0-2.28-5.61,52,52,0,0,0-5.53-8.45l9.51-9.94a46.3,46.3,0,0,1,6.75,11.93,32.6,32.6,0,0,1,2.2,11.22,16.66,16.66,0,0,1-2.13,8.59,19.43,19.43,0,0,1-5.83,6.17,32.22,32.22,0,0,1-8.94,4.19,83.16,83.16,0,0,1-11.36,2.63c-2.84.66-5.9,1.21-9.16,1.63s-6.56.78-9.87,1.07-6.56.49-9.73.64-6.08.21-8.73.21q-7.82,0-15.12-.64a44.89,44.89,0,0,1-12.92-2.91,20.8,20.8,0,0,1-9-6.75q-3.41-4.47-3.41-12a31.29,31.29,0,0,1,1.28-8,38.88,38.88,0,0,1,4.12-9.51l8.8,3.12a64.14,64.14,0,0,0-2.41,6.89A18.59,18.59,0,0,0,1369.56,233.33Zm22.29,42.32,7.53-8.95,9.51,7.95-7.53,9.09Zm10.93,17.6,7.1-8.52,9.09,7.67-7.24,8.52Zm6.68-17.6,7.52-8.95,9.52,7.95-7.53,9.09Z"/><path class="cls-1" d="M1518.66,233.33a6.39,6.39,0,0,0,2.34,5.11,17.53,17.53,0,0,0,6.53,3.2,49.52,49.52,0,0,0,9.94,1.63q5.74.42,12.71.43,5.53,0,11.57-.36c4-.23,8-.57,11.93-1s7.64-.93,11.15-1.49a89.32,89.32,0,0,0,9.37-2,27.79,27.79,0,0,0,6.18-2.7,13.77,13.77,0,0,0,2.76-2.27,31.9,31.9,0,0,0-2.27-5.61,51.49,51.49,0,0,0-5.54-8.45l9.52-9.94a46.25,46.25,0,0,1,6.74,11.93,32.36,32.36,0,0,1,2.2,11.22,16.76,16.76,0,0,1-2.12,8.59,19.54,19.54,0,0,1-5.83,6.17,32.22,32.22,0,0,1-8.94,4.19,83.16,83.16,0,0,1-11.36,2.63c-2.84.66-5.9,1.21-9.16,1.63s-6.56.78-9.87,1.07-6.56.49-9.73.64-6.08.21-8.73.21q-7.82,0-15.12-.64a45,45,0,0,1-12.93-2.91,20.83,20.83,0,0,1-9-6.75q-3.42-4.47-3.41-12a30.85,30.85,0,0,1,1.28-8,39.22,39.22,0,0,1,4.11-9.51l8.81,3.12a64.14,64.14,0,0,0-2.41,6.89A18.59,18.59,0,0,0,1518.66,233.33Zm40.61,51.12-9.94-8.38,7.81-9.37,10.08,8.38Z"/><path class="cls-1" d="M1669.31,253.35l-11.92,2.7V161.62l11.92-5.68Z"/><path class="cls-1" d="M204.19,437.49a35.55,35.55,0,0,1-12.43-2.13,27.46,27.46,0,0,1-16.54-16.26,36.62,36.62,0,0,1-2.41-13.7,39.47,39.47,0,0,1,2.06-13.14A65.51,65.51,0,0,1,181,379.7l8.81,3.69a48.58,48.58,0,0,0-4.62,10.72,33.35,33.35,0,0,0-1.35,8.73q0,9.81,5.83,15.06t15.47,5.25q12.78,0,19.39-7t6.6-21.3c0-2.36,0-6.25-.14-11.64s-.22-11.72-.36-19-.28-15.17-.42-23.78-.27-17.28-.36-26l11.79-5.68.57,85.34q0,21.45-10,32.38T204.19,437.49Z"/><path class="cls-1" d="M373.59,391.63A19.55,19.55,0,0,1,371,401.85a23.3,23.3,0,0,1-6.75,7.17,38.62,38.62,0,0,1-9.58,4.76,68.78,68.78,0,0,1-11,2.77q-5.61.92-11,1.27t-9.66.36q-7.82,0-15.12-.64A45,45,0,0,1,295,414.63a20.86,20.86,0,0,1-9-6.75q-3.41-4.47-3.41-12a31.29,31.29,0,0,1,1.28-8,38.88,38.88,0,0,1,4.12-9.51l8.8,3.12a66.44,66.44,0,0,0-2.41,6.89,18.59,18.59,0,0,0-.71,4.9,6.39,6.39,0,0,0,2.34,5.11,17.53,17.53,0,0,0,6.53,3.2,49.52,49.52,0,0,0,9.94,1.63q5.76.42,12.71.43,5.54,0,11.72-.57a86.12,86.12,0,0,0,11.64-1.85A43.32,43.32,0,0,0,358,398a10.46,10.46,0,0,0,5.26-5q-.86-6-7.1-12.57t-18.89-16.26a67.27,67.27,0,0,1,1.35-9.51q.78-3.13,2.34-4.12,4.41-2.83,9.87-6.11T362.09,338q5.82-3.19,11.72-6.25t11-5.61l-1.7,15.34q-9.66,4.41-17.75,8.66t-14.77,8.38Q373.6,377.29,373.59,391.63ZM381,322.47q-9,4.54-18.82,9.94t-20.8,12.5l1.14-9.37q10.65-6.82,20.59-12.5t19.17-10.37Z"/><path class="cls-1" d="M506.93,391.63a19.55,19.55,0,0,1-2.55,10.22,23.3,23.3,0,0,1-6.75,7.17,38.51,38.51,0,0,1-9.59,4.76,68.4,68.4,0,0,1-11,2.77q-5.61.92-11,1.27t-9.66.36q-7.81,0-15.12-.64a45,45,0,0,1-12.93-2.91,20.83,20.83,0,0,1-9-6.75q-3.42-4.47-3.41-12a30.85,30.85,0,0,1,1.28-8,39.22,39.22,0,0,1,4.11-9.51l8.81,3.12a64.14,64.14,0,0,0-2.41,6.89,18.62,18.62,0,0,0-.72,4.9,6.4,6.4,0,0,0,2.35,5.11,17.53,17.53,0,0,0,6.53,3.2,49.52,49.52,0,0,0,9.94,1.63q5.74.42,12.71.43,5.53,0,11.71-.57a86.28,86.28,0,0,0,11.65-1.85,43.32,43.32,0,0,0,9.44-3.26,10.44,10.44,0,0,0,5.25-5q-.84-6-7.1-12.57t-18.88-16.26a67.27,67.27,0,0,1,1.35-9.51q.78-3.13,2.34-4.12,4.39-2.83,9.87-6.11T495.43,338q5.82-3.19,11.71-6.25t11-5.61l-1.7,15.34q-9.66,4.41-17.75,8.66t-14.77,8.38Q506.92,377.29,506.93,391.63Z"/><path class="cls-1" d="M603.2,360.1a15,15,0,0,1,8.52,2.56,21.18,21.18,0,0,1,6.54,7.24,39,39,0,0,1,4.11,11.36,71.64,71.64,0,0,1,1.42,14.91q0,19.88-10.58,30.6t-30.45,10.72a40.66,40.66,0,0,1-13.49-2.13,29.16,29.16,0,0,1-10.44-6.17,27.56,27.56,0,0,1-6.75-10.09,36.62,36.62,0,0,1-2.41-13.7,39.72,39.72,0,0,1,2.06-13.14,65,65,0,0,1,6.18-12.56l8.8,3.83a46,46,0,0,0-4.62,10.58,33.3,33.3,0,0,0-1.34,8.73q0,9.81,6.1,15.06t17.33,5.25q12.06,0,19.24-5.18A21.07,21.07,0,0,0,612,403.41q.13-1,.21-1.92c0-.61.07-1.3.07-2.05a19.91,19.91,0,0,1-6.74,2.13,48.59,48.59,0,0,1-5.47.42,16,16,0,0,1-11-3.83q-4.33-3.84-4.34-11.5A34.55,34.55,0,0,1,590,368.55a21.28,21.28,0,0,1,5.82-6.11A12.77,12.77,0,0,1,603.2,360.1Zm-8.37-7.52-9.52-8,7.53-8.94,9.51,7.95Zm17.32,34.08a20.41,20.41,0,0,0-3.41-9.23,8.06,8.06,0,0,0-6.81-3.84,5.44,5.44,0,0,0-3,.92,10.52,10.52,0,0,0-2.48,2.28,9.73,9.73,0,0,0-1.63,3,10.34,10.34,0,0,0-.57,3.27,5.11,5.11,0,0,0,2,4.26,9,9,0,0,0,5.68,1.56,22.7,22.7,0,0,0,5.61-.71A28,28,0,0,0,612.15,386.66Zm.14-34.08-9.37-8,7.53-8.94,9.51,7.95Z"/><path class="cls-1" d="M752.87,352a12.93,12.93,0,0,1,9.23,3.48,26.79,26.79,0,0,1,6,8.8A46.86,46.86,0,0,1,771.47,376a79.88,79.88,0,0,1,1,12.21,27.33,27.33,0,0,1-2.28,11.85,20,20,0,0,1-6.53,7.81,35,35,0,0,1-10.36,4.9,96.78,96.78,0,0,1-13.63,3,160.22,160.22,0,0,1-16.34,1.84q-8.8.57-16.18.57-7.81,0-15.13-.64a45,45,0,0,1-12.92-2.91,20.92,20.92,0,0,1-9-6.75q-3.41-4.47-3.4-12a30.85,30.85,0,0,1,1.28-8,39.22,39.22,0,0,1,4.11-9.51l8.81,3.12a66.91,66.91,0,0,0-2.42,6.89,19,19,0,0,0-.71,4.9,6.37,6.37,0,0,0,2.35,5.11,17.46,17.46,0,0,0,6.53,3.2,49.39,49.39,0,0,0,9.94,1.63q5.74.42,12.71.43,5,0,10.86-.29t11.71-.85q5.83-.57,11.29-1.49a69.79,69.79,0,0,0,9.66-2.27,29.3,29.3,0,0,0,6.74-3c1.71-1.08,2.61-2.34,2.7-3.76v-2.7a33.3,33.3,0,0,1-6.46,1.78,34.56,34.56,0,0,1-5.47.5q-7.66,0-11.57-4.26t-3.9-12.22a26.27,26.27,0,0,1,1.35-8.23,26.69,26.69,0,0,1,3.76-7.46,20,20,0,0,1,5.75-5.39A13.42,13.42,0,0,1,752.87,352Zm-.57-9.8-9.94-8.38,7.81-9.23,10.08,8.24Zm-.71,22.58a6.51,6.51,0,0,0-5.39,2.77,9.86,9.86,0,0,0-2.13,6.17,5.37,5.37,0,0,0,1.7,4c1.14,1.09,2.93,1.63,5.4,1.63a26.23,26.23,0,0,0,5.68-.56,32,32,0,0,0,4.4-1.28,22.79,22.79,0,0,0-3.55-9.16C756,366,754,364.79,751.59,364.79Z"/><path class="cls-1" d="M858.66,371.32a43.06,43.06,0,0,0-7.74-2.84,31.81,31.81,0,0,0-7.6-.85,13.19,13.19,0,0,0-8.73,2.77,8.19,8.19,0,0,0-3.34,6.46,7.65,7.65,0,0,0,1.42,4.54,14.1,14.1,0,0,0,3.48,3.41,15.57,15.57,0,0,0,4.4,2.13,15.19,15.19,0,0,0,4.33.71,21.5,21.5,0,0,0,4.83-.78c2.08-.52,4.41-1.18,7-2s5.21-1.65,8-2.56l7.67-2.48v13.63a112.29,112.29,0,0,0-21.65,8.17,66.16,66.16,0,0,0-14.56,9.87,34.6,34.6,0,0,0-8.24,10.86,27.05,27.05,0,0,0-2.55,11.29,22,22,0,0,0,1.84,9.09,18.89,18.89,0,0,0,5.76,7.17,28.51,28.51,0,0,0,10,4.75,54.69,54.69,0,0,0,14.62,1.71,111.84,111.84,0,0,0,13.78-.78A90.91,90.91,0,0,0,884.22,453l3.12,12.21a94.32,94.32,0,0,1-16,4.33,90.8,90.8,0,0,1-15.48,1.35,65.32,65.32,0,0,1-16.19-1.92,35.33,35.33,0,0,1-13.06-6.17,29.11,29.11,0,0,1-8.66-10.94,37.84,37.84,0,0,1-3.13-16.18,43.31,43.31,0,0,1,4.76-19.88,56.4,56.4,0,0,1,13.84-17.19,27.51,27.51,0,0,1-9.51-8.3,21,21,0,0,1-3.55-12.43,24.14,24.14,0,0,1,1.85-9.51,23.21,23.21,0,0,1,5-7.6,24.25,24.25,0,0,1,7.31-5,20.93,20.93,0,0,1,8.66-1.85,26.71,26.71,0,0,1,10.23,2,49.26,49.26,0,0,1,9.93,5.68Zm-16.19-29.39-9.94-8.38,7.81-9.23,10.08,8.23Z"/><path class="cls-1" d="M958.34,371.32a43.06,43.06,0,0,0-7.74-2.84,31.81,31.81,0,0,0-7.6-.85,13.2,13.2,0,0,0-8.73,2.77,8.19,8.19,0,0,0-3.34,6.46,7.65,7.65,0,0,0,1.42,4.54,14.1,14.1,0,0,0,3.48,3.41,15.57,15.57,0,0,0,4.4,2.13,15.2,15.2,0,0,0,4.34.71,21.51,21.51,0,0,0,4.82-.78c2.08-.52,4.41-1.18,7-2s5.21-1.65,7.95-2.56l7.67-2.48v13.63a112.29,112.29,0,0,0-21.65,8.17,66.16,66.16,0,0,0-14.56,9.87,34.4,34.4,0,0,0-8.23,10.86A26.91,26.91,0,0,0,925,433.66a21.86,21.86,0,0,0,1.85,9.09,18.77,18.77,0,0,0,5.75,7.17,28.51,28.51,0,0,0,10,4.75,54.69,54.69,0,0,0,14.62,1.71A111.84,111.84,0,0,0,971,455.6,90.91,90.91,0,0,0,983.9,453L987,465.18a94.32,94.32,0,0,1-16,4.33,90.8,90.8,0,0,1-15.48,1.35,65.32,65.32,0,0,1-16.19-1.92,35.33,35.33,0,0,1-13.06-6.17,29.11,29.11,0,0,1-8.66-10.94,37.84,37.84,0,0,1-3.13-16.18,43.31,43.31,0,0,1,4.76-19.88,56.4,56.4,0,0,1,13.84-17.19,27.6,27.6,0,0,1-9.51-8.3A21,21,0,0,1,920,377.85a24.14,24.14,0,0,1,1.85-9.51,23.36,23.36,0,0,1,5-7.6,24.25,24.25,0,0,1,7.31-5,20.93,20.93,0,0,1,8.66-1.85,26.71,26.71,0,0,1,10.23,2,49.59,49.59,0,0,1,9.94,5.68Z"/><path class="cls-1" d="M1092.39,387.93a22.08,22.08,0,0,1-3.48,12.57,27.53,27.53,0,0,1-9.23,8.52,43,43,0,0,1-13.14,4.83,77.54,77.54,0,0,1-15.33,1.49h-7.39a78.49,78.49,0,0,1-18.32-1.92,39,39,0,0,1-12.78-5.18l3.7-10.65a39.22,39.22,0,0,0,7.59,2.27,66.46,66.46,0,0,0,7.88,1,58.62,58.62,0,0,0,5.75-7.81,12.82,12.82,0,0,0,1.92-6.54q0-4.68-.14-12.49c-.1-5.21-.21-10.84-.36-16.9s-.28-12.21-.42-18.46-.26-11.93-.36-17l11.93-5.68v65a56,56,0,0,1,11.93-9,24.45,24.45,0,0,1,11.64-3.12,18.74,18.74,0,0,1,7,1.34,18.28,18.28,0,0,1,5.9,3.84,19.21,19.21,0,0,1,5.68,13.84Zm-11.93,2.42a7.14,7.14,0,0,0-2.7-5.4,10.25,10.25,0,0,0-7.1-2.41q-5.12,0-11.86,4.61t-15.69,14.56h10.08a67.32,67.32,0,0,0,9.59-.71,44,44,0,0,0,8.8-2.13,20.51,20.51,0,0,0,6.39-3.55A6.39,6.39,0,0,0,1080.46,390.35Zm-5.26-36.07-9.94-8.38,7.81-9.23,10.09,8.24Z"/><path class="cls-1" d="M1212.8,387.93a22,22,0,0,1-3.48,12.57,27.44,27.44,0,0,1-9.23,8.52,42.87,42.87,0,0,1-13.13,4.83,77.72,77.72,0,0,1-15.34,1.49h-7.38a78.49,78.49,0,0,1-18.32-1.92,39,39,0,0,1-12.78-5.18l3.69-10.65a39.51,39.51,0,0,0,7.6,2.27,65.93,65.93,0,0,0,7.88,1,60.47,60.47,0,0,0,5.75-7.81,12.82,12.82,0,0,0,1.92-6.54q0-4.68-.15-12.49t-.35-16.9q-.21-9.09-.43-18.46t-.35-17l11.93-5.68v65a55.92,55.92,0,0,1,11.92-9,24.48,24.48,0,0,1,11.65-3.12,18.78,18.78,0,0,1,7,1.34,18.24,18.24,0,0,1,5.89,3.84,19.11,19.11,0,0,1,5.68,13.84Zm-11.93,2.42a7.14,7.14,0,0,0-2.7-5.4,10.22,10.22,0,0,0-7.1-2.41c-3.4,0-7.36,1.54-11.85,4.61s-9.73,7.93-15.69,14.56h10.08a67.18,67.18,0,0,0,9.58-.71,44.08,44.08,0,0,0,8.81-2.13,20.62,20.62,0,0,0,6.39-3.55A6.4,6.4,0,0,0,1200.87,390.35Z"/><path class="cls-1" d="M1391,387.93a22,22,0,0,1-3.48,12.57,27.53,27.53,0,0,1-9.23,8.52,42.87,42.87,0,0,1-13.13,4.83,77.72,77.72,0,0,1-15.34,1.49H1342a46.13,46.13,0,0,1-8.45-.71,14.86,14.86,0,0,1-6.74-3.12,25.89,25.89,0,0,1,.07,5c-.15,1.6-.31,3.21-.5,4.82q-2,14.2-11.86,22.3t-25.77,8.09a40.74,40.74,0,0,1-13.49-2.13,29.12,29.12,0,0,1-10.44-6.18,27.42,27.42,0,0,1-6.74-10.08,36.61,36.61,0,0,1-2.42-13.7,39.72,39.72,0,0,1,2.06-13.14,65,65,0,0,1,6.18-12.56l8.8,3.83a46,46,0,0,0-4.61,10.58,33.35,33.35,0,0,0-1.35,8.73q0,9.81,6.11,15.06t17.32,5.25q11.79,0,18.89-6.32t7.1-17.11a31.43,31.43,0,0,0-2.28-10.79,62.79,62.79,0,0,0-6.1-12.07L1318,382.4a124.92,124.92,0,0,0,6.89,12.21,17,17,0,0,0,6,5.82q3.84-5.12,8.59-10.72a87.46,87.46,0,0,1,10.23-10.23,60.92,60.92,0,0,1,11.22-7.59,24.61,24.61,0,0,1,11.43-3,19,19,0,0,1,7,1.34,18.12,18.12,0,0,1,6,3.84,19.11,19.11,0,0,1,5.68,13.84Zm-12.07,2.42a7.22,7.22,0,0,0-2.63-5.4,10.18,10.18,0,0,0-7.17-2.41q-5.12,0-11.64,4.61T1342,401.71h9.8a64.34,64.34,0,0,0,9.44-.71,45.72,45.72,0,0,0,8.73-2.13,20.35,20.35,0,0,0,6.46-3.55A6.39,6.39,0,0,0,1378.94,390.35Zm-13.63-33.23-9.94-8.38,7.81-9.23,10.08,8.24Z"/><path class="cls-1" d="M1569.22,387.93a22,22,0,0,1-3.48,12.57,27.53,27.53,0,0,1-9.23,8.52,43,43,0,0,1-13.14,4.83,77.54,77.54,0,0,1-15.33,1.49h-7.81a46,46,0,0,1-8.45-.71,15,15,0,0,1-6.75-3.12,24.37,24.37,0,0,1,.07,5c-.14,1.6-.3,3.21-.49,4.82q-2,14.2-11.86,22.3T1467,451.69a40.7,40.7,0,0,1-13.49-2.13,29.12,29.12,0,0,1-10.44-6.18,27.3,27.3,0,0,1-6.74-10.08,36.42,36.42,0,0,1-2.42-13.7,39.72,39.72,0,0,1,2.06-13.14,65,65,0,0,1,6.18-12.56l8.8,3.83a45.53,45.53,0,0,0-4.61,10.58A33.35,33.35,0,0,0,1445,417q0,9.81,6.1,15.06t17.33,5.25q11.77,0,18.88-6.32t7.1-17.11a31.63,31.63,0,0,0-2.27-10.79,62.79,62.79,0,0,0-6.1-12.07l10.22-8.66a122.85,122.85,0,0,0,6.89,12.21,17,17,0,0,0,6,5.82q3.84-5.12,8.59-10.72A86.7,86.7,0,0,1,1528,379.48a61.19,61.19,0,0,1,11.21-7.59,24.68,24.68,0,0,1,11.44-3,18.91,18.91,0,0,1,7,1.34,18.06,18.06,0,0,1,6,3.84,19.11,19.11,0,0,1,5.68,13.84Zm-12.07,2.42a7.22,7.22,0,0,0-2.63-5.4,10.18,10.18,0,0,0-7.17-2.41q-5.11,0-11.64,4.61t-15.48,14.56h9.8a64.34,64.34,0,0,0,9.44-.71,45.72,45.72,0,0,0,8.73-2.13,20.46,20.46,0,0,0,6.46-3.55A6.39,6.39,0,0,0,1557.15,390.35Z"/><path class="cls-1" d="M1735.07,371a46.14,46.14,0,0,1,7.46,12.63,33.45,33.45,0,0,1,2.48,11.65,20.93,20.93,0,0,1-1.56,8.23,18.94,18.94,0,0,1-4.26,6.32,18.42,18.42,0,0,1-6.46,4.05,22.88,22.88,0,0,1-8.17,1.42q-11.64,0-15.9-9.09a18.75,18.75,0,0,1-6.6,6.82,18.55,18.55,0,0,1-9.45,2.27,17,17,0,0,1-5.25-.78,9.76,9.76,0,0,1-4-2.34,37.46,37.46,0,0,1,0,6.53,39.94,39.94,0,0,1-3.62,13.49,32.16,32.16,0,0,1-7.81,10.43,34.17,34.17,0,0,1-11.71,6.68,46.13,46.13,0,0,1-15,2.34,40.7,40.7,0,0,1-13.49-2.13,29,29,0,0,1-10.44-6.18,27.44,27.44,0,0,1-6.75-10.08,36.62,36.62,0,0,1-2.41-13.7,39.72,39.72,0,0,1,2.06-13.14,65,65,0,0,1,6.18-12.56l8.8,3.83a45.53,45.53,0,0,0-4.61,10.58,32.93,32.93,0,0,0-1.35,8.73q0,9.81,6.1,15.06t17.33,5.25q11.78,0,18.88-6.32t7.1-17.11a31.63,31.63,0,0,0-2.27-10.79,62.85,62.85,0,0,0-6.11-12.07l10.23-8.66q2.41,4.55,4.33,8a41.2,41.2,0,0,0,3.83,5.75,13.91,13.91,0,0,0,4.19,3.55,11.75,11.75,0,0,0,5.54,1.21q6.81,0,9.3-2.7t2.49-9v-4.83l10.36-2.55q0,10.08,2,14.55t8.24,4.48a16.72,16.72,0,0,0,6.39-1.07c1.7-.71,2.55-1.82,2.55-3.34q0-1.84-2.2-6.24a53.37,53.37,0,0,0-5.89-9.09Zm-38.2-.43-9.37-7.95,7.53-9,9.51,8Zm7.1-18-9.08-7.53,7.24-8.66,8.94,7.67Zm10.51,18-9.37-7.95,7.38-9,9.66,8Z"/><path class="cls-1" d="M185.3,522.8a96.08,96.08,0,0,1,13.49,10.51,48.56,48.56,0,0,1,7.6,9.09,25.49,25.49,0,0,1,3.41,8,34.35,34.35,0,0,1,.78,7.1,20.51,20.51,0,0,1-1.28,7.24,17.26,17.26,0,0,1-3.83,6,18.34,18.34,0,0,1-6.46,4.19,24.64,24.64,0,0,1-9.16,1.57,19.44,19.44,0,0,1-7.6-1.35,15.85,15.85,0,0,1-5.32-3.55,13.52,13.52,0,0,1-3.13-5.12,19,19,0,0,1-1-6.17,25.81,25.81,0,0,1,.42-4.69,32.21,32.21,0,0,1,1.42-5,53.62,53.62,0,0,1,2.63-5.89q1.64-3.19,4.05-7.46l-3-1.84Zm4,19a63.8,63.8,0,0,0-4.83,8.16,16.4,16.4,0,0,0-2,7,5.78,5.78,0,0,0,2,4.4c1.33,1.24,3.46,1.85,6.39,1.85a11.7,11.7,0,0,0,6.32-1.56,7,7,0,0,0,3.2-4.26,13.66,13.66,0,0,0-2.56-7.74A32.36,32.36,0,0,0,189.28,541.83Z"/><path class="cls-1" d="M333.12,539a19.92,19.92,0,0,0-9.08-2.7,18.58,18.58,0,0,0-7.53,1.63,28.52,28.52,0,0,0-6.68,4.12,25.2,25.2,0,0,0-4.82,5.25,9.22,9.22,0,0,0-1.85,4.9,2.52,2.52,0,0,0,1.56,2.21,22,22,0,0,0,4.69,1.2c2.74.48,5.35.9,7.81,1.28s4.64.76,6.53,1.14q6,1.13,8.45,3.9c1.66,1.85,2.49,4.66,2.49,8.45a16.92,16.92,0,0,1-4.19,10.72,41,41,0,0,1-10.94,9.23,64.27,64.27,0,0,1-15.26,6.53A61.49,61.49,0,0,1,287,599.34a41.85,41.85,0,0,1-13.7-2.13A27.6,27.6,0,0,1,256,580.88a36.53,36.53,0,0,1-2.42-13.78A39.7,39.7,0,0,1,255.66,554a64.79,64.79,0,0,1,6.18-12.57l8.8,3.84A45.91,45.91,0,0,0,266,555.81a33.78,33.78,0,0,0-1.35,8.88q0,9.66,6.11,15T288.25,585a56.2,56.2,0,0,0,12.57-1.35,61.63,61.63,0,0,0,10.51-3.34,51.75,51.75,0,0,0,7.74-4,16.92,16.92,0,0,0,4.26-3.62,5.48,5.48,0,0,0-1.71-1.13,17.25,17.25,0,0,0-3.55-.86l-11.93-1.84A34.39,34.39,0,0,1,301,567.6a12.45,12.45,0,0,1-4.19-2.27,10,10,0,0,1-2.77-3.84,15.62,15.62,0,0,1-1-6A26.75,26.75,0,0,1,296,543.67a41.89,41.89,0,0,1,17.89-18.53,24.54,24.54,0,0,1,11.58-3q6.24,0,12.35,4.83Z"/><path class="cls-1" d="M401,527.2a14.88,14.88,0,0,1,8.59,2.56,21.65,21.65,0,0,1,6.32,6.74,34.43,34.43,0,0,1,3.9,9.59,46.09,46.09,0,0,1,1.35,11.22,38.62,38.62,0,0,1-2.7,14.62,46.7,46.7,0,0,1-7.73,12.64,82.22,82.22,0,0,1-12,11.43,167.09,167.09,0,0,1-15.48,10.72l-9.66-8.94q7.25-4.41,13.35-8.67t10.93-8.3a70.58,70.58,0,0,0,8-7.67,26.8,26.8,0,0,0,4.4-6.6,20,20,0,0,1-6.75,2.13,48.45,48.45,0,0,1-5.46.42,16.22,16.22,0,0,1-11.15-3.83q-4.33-3.84-4.33-11.5a34.66,34.66,0,0,1,5.25-18.11,21.28,21.28,0,0,1,5.82-6.11A12.82,12.82,0,0,1,401,527.2Zm-1.14,13.49a5.32,5.32,0,0,0-3.05.92,11,11,0,0,0-2.41,2.28,10,10,0,0,0-1.64,3.05,10.34,10.34,0,0,0-.57,3.27,5.19,5.19,0,0,0,1.92,4.26,8.72,8.72,0,0,0,5.61,1.56,22.38,22.38,0,0,0,5.68-.71,34.74,34.74,0,0,0,4.69-1.56,22.23,22.23,0,0,0-3.48-9.23A7.9,7.9,0,0,0,399.86,540.69Z"/><path class="cls-1" d="M526,528.48a51.87,51.87,0,0,1,7.66,14.84,48.4,48.4,0,0,1,2.56,15,45.65,45.65,0,0,1-2.7,16.05,35,35,0,0,1-7.67,12.35,33.88,33.88,0,0,1-12.28,7.95,45,45,0,0,1-16.4,2.84,40.74,40.74,0,0,1-13.49-2.13,29.25,29.25,0,0,1-10.44-6.17,27.66,27.66,0,0,1-6.74-10.09A36.61,36.61,0,0,1,464,565.4a39.72,39.72,0,0,1,2.06-13.14,65,65,0,0,1,6.18-12.56l8.8,3.83a46.4,46.4,0,0,0-4.61,10.58,33.35,33.35,0,0,0-1.35,8.73q0,9.81,6.11,15.06t17.32,5.25q11.79,0,18.89-6.32t7.1-17.11a32,32,0,0,0-2.2-10.72A50.92,50.92,0,0,0,516,537.14Zm-27.84,4.12-9.94-8.38L496,515l10.08,8.24Z"/><path class="cls-1" d="M628.34,555.32a13.47,13.47,0,0,1-1,4.83,17.52,17.52,0,0,1-2.77,4.75,15.53,15.53,0,0,1-4.11,3.62,9.56,9.56,0,0,1-5,1.42H598q-5.12,0-6.53,2.84c-.95,1.9-1.42,4.83-1.42,8.81v50.12H579.92q-.3-13.35-.43-22.57T579.28,594c0-3.93-.07-6.88-.07-8.87v-4q0-10.65,2.48-15.9a14.71,14.71,0,0,1,8.16-7.53,50.73,50.73,0,0,1,.86-9.09,33.09,33.09,0,0,1,2.7-8.52,18.17,18.17,0,0,1,4.89-6.32,11.47,11.47,0,0,1,7.46-2.48,16.88,16.88,0,0,1,8.16,2.2,28.72,28.72,0,0,1,7.25,5.61,29.26,29.26,0,0,1,5.18,7.67A20.08,20.08,0,0,1,628.34,555.32Zm-9.94,0a9.86,9.86,0,0,0-1.57-3.69,17.26,17.26,0,0,0-3.12-3.63,18,18,0,0,0-4.05-2.69,9.6,9.6,0,0,0-4.19-1.07q-2.84,0-4.47,3.48t-1.77,9.73c1,.09,2.29.16,3.76.21s3,.07,4.47.07h7.39a4.07,4.07,0,0,0,2.27-.64A2.85,2.85,0,0,0,618.4,555.32Z"/><path class="cls-1" d="M179.77,663.3a99.54,99.54,0,0,1,10.57,20.8A122.48,122.48,0,0,1,196,705.69a181.93,181.93,0,0,1,2.28,23.14q.42,12,.42,25.35h-8.52Q190,741.4,189,730.61a166.23,166.23,0,0,0-3.06-20.17,117.56,117.56,0,0,0-5.32-17.68,103.32,103.32,0,0,0-8-16Z"/><path class="cls-1" d="M234,699.51a12.34,12.34,0,0,1-6.68-1.7,117,117,0,0,1,4,25.84q.7,14.21.85,30.53h-8.52q-.13-12.78-1.2-23.57a163.55,163.55,0,0,0-3.2-20.17,113.81,113.81,0,0,0-5.47-17.6,107.76,107.76,0,0,0-8-15.91l7.1-13.63q3,5.4,5.54,9.23a37.54,37.54,0,0,0,5,6.18,15.58,15.58,0,0,0,5.11,3.4,16.55,16.55,0,0,0,6.11,1.07q10.93,0,10.93-16.9l9.94-3a96.11,96.11,0,0,1-1.06,15.05,36.59,36.59,0,0,1-3.55,11.36,18.43,18.43,0,0,1-6.61,7.24A19,19,0,0,1,234,699.51Z"/><path class="cls-1" d="M279.59,663.3q3.12,5.82,5.47,9.58a42.43,42.43,0,0,0,4.47,6.11,13,13,0,0,0,4.26,3.27,12.13,12.13,0,0,0,4.83.92q7.67,0,7.67-15.76l8.23-2.56q1.14,9.79,3.13,14t5.82,4.19c2.36,0,4.14-1.44,5.32-4.33s1.78-7,1.78-12.43l9.8-3q0,18.47-4.41,27t-13.2,8.52a12.09,12.09,0,0,1-6.89-1.85,15.52,15.52,0,0,1-4.61-4.82q-4.41,7.38-11.93,7.38a12.73,12.73,0,0,1-2.63-.28,6.16,6.16,0,0,1-2.48-1.14,117.2,117.2,0,0,1,3.9,25.84q.64,14.07.78,30.25h-8.52q-.13-12.78-1.21-23.57A163.6,163.6,0,0,0,286,710.44a113.81,113.81,0,0,0-5.47-17.6,108.74,108.74,0,0,0-8-15.91Z"/><path class="cls-1" d="M364.5,663.3a102,102,0,0,1,8.67,16.33,24,24,0,0,1,2.06-6.39,20.21,20.21,0,0,1,3.76-5.47,18.07,18.07,0,0,1,5.25-3.76,15,15,0,0,1,6.53-1.42q8.67,0,15.91,7.95l-4.55,8.38a28.2,28.2,0,0,0-6.24-2.84,19.22,19.22,0,0,0-5.12-.71,8.82,8.82,0,0,0-3.4.71,10.93,10.93,0,0,0-3.13,2,9.88,9.88,0,0,0-2.27,3,7.83,7.83,0,0,0-.85,3.55c0,2.08,1.09,3.79,3.26,5.11a14.7,14.7,0,0,0,7.81,2,31.06,31.06,0,0,0,16.9-5.25l4.26,9.51a21.65,21.65,0,0,1-4.54,3.9A37.58,37.58,0,0,1,403,703a38.48,38.48,0,0,1-6.46,2.13,29,29,0,0,1-6.61.78,21.17,21.17,0,0,1-5.39-.71,12.73,12.73,0,0,1-4.69-2.27,70.49,70.49,0,0,1,2.2,10.79q.78,6,1.21,12.57t.57,13.7q.14,7.1.14,14.2H375.3q-.15-12.78-1.21-23.57a163.55,163.55,0,0,0-3.2-20.17,114.9,114.9,0,0,0-5.46-17.6,108.8,108.8,0,0,0-8-15.91Z"/><path class="cls-1" d="M442.6,665.86a146.79,146.79,0,0,1,14.06,14.27A107.14,107.14,0,0,1,468,695.82a81.68,81.68,0,0,1,7.46,16.54,55.74,55.74,0,0,1,2.69,17q0,11.22-4.68,17.61a15,15,0,0,1-12.78,6.39,13.1,13.1,0,0,1-6.46-1.78,12.75,12.75,0,0,1-5.19-6,16.48,16.48,0,0,1-5.89,6,14.32,14.32,0,0,1-7,1.85,15.33,15.33,0,0,1-7-1.49,13.23,13.23,0,0,1-4.82-4.19,18.72,18.72,0,0,1-2.84-6.25,30.8,30.8,0,0,1-.93-7.81,44.31,44.31,0,0,1,1.49-10.93,87.82,87.82,0,0,1,4.19-12.22,128.18,128.18,0,0,1,6.46-13.06q3.77-6.68,8.17-13.35l-5.4-5Zm5.12,23.57a142.43,142.43,0,0,0-13.14,23.14Q430,723.22,430,730.18a8.23,8.23,0,0,0,1.84,5.47,5.84,5.84,0,0,0,4.69,2.2q4.68,0,6.6-3.55a22.42,22.42,0,0,0,2.34-8.95l7.53-2q0,6.81,2.13,10.65t5.82,3.83q3.69,0,5.33-2.27c1.08-1.52,1.63-3.79,1.63-6.82a32.4,32.4,0,0,0-1.56-9.58A59.46,59.46,0,0,0,462.06,709a79.18,79.18,0,0,0-6.39-10.08A108.79,108.79,0,0,0,447.72,689.43Z"/><path class="cls-1" d="M548.11,704.2a88.2,88.2,0,0,0-15.12,9,90.07,90.07,0,0,0-12.43,11.22A106.63,106.63,0,0,0,510,738.06q-4.89,7.46-9.58,16.12l-8.1-3.69q2.56-5.54,5.33-11.15t6-10.93a120,120,0,0,1,7.1-10.3,78.16,78.16,0,0,1,8.38-9.23q-10.21-1-14.55-5.75a16.56,16.56,0,0,1-4.33-11.57,24.46,24.46,0,0,1,2.13-9.66,35,35,0,0,1,5.68-9.09,31.29,31.29,0,0,1,8.09-6.74,17.58,17.58,0,0,1,17.89-.36,37.07,37.07,0,0,1,8.1,5.68l-5.26,8.67a31.91,31.91,0,0,0-6.53-2.77,19.09,19.09,0,0,0-5-.78,11.84,11.84,0,0,0-4.9,1.13,17.74,17.74,0,0,0-4.47,2.91,18.59,18.59,0,0,0-3.34,3.91,7.7,7.7,0,0,0-1.35,4.12,4.79,4.79,0,0,0,1.21,3.33,8.09,8.09,0,0,0,3.27,2.13,21.38,21.38,0,0,0,4.54,1.14,35.07,35.07,0,0,0,5,.35,34.38,34.38,0,0,0,11.72-2.06q5.75-2.06,13.27-5.32Z"/><path class="cls-1" d="M570,662.45a142.91,142.91,0,0,1,18.1,29.75,128,128,0,0,1,9.59,33.44A111.28,111.28,0,0,1,607.54,692a166.67,166.67,0,0,1,17.82-29.53l5.39,14.77a111.35,111.35,0,0,0-11,16.82,147,147,0,0,0-8.52,19.1,152.24,152.24,0,0,0-8.73,41h-9.23a157.51,157.51,0,0,0-2.84-20.31,149.8,149.8,0,0,0-5.75-20.44A137.73,137.73,0,0,0,576,694.11a104.61,104.61,0,0,0-11.43-16.89Z"/><path class="cls-1" d="M664,692A109.18,109.18,0,0,1,654,725.57,176.76,176.76,0,0,1,636.29,755l-5.54-14.91a105.2,105.2,0,0,0,11-16.68,146.39,146.39,0,0,0,8.52-19.1A157.06,157.06,0,0,0,656.17,684a144.1,144.1,0,0,0,3-20.66h9.23a134.51,134.51,0,0,0,2.76,20.31,164,164,0,0,0,5.76,20.44,129.29,129.29,0,0,0,8.59,19.32,99.13,99.13,0,0,0,11.43,16.75L691.67,755a138.07,138.07,0,0,1-18.17-29.68A128.32,128.32,0,0,1,664,692Z"/><path class="cls-1" d="M737.82,754.89a56.93,56.93,0,0,1-9.65-20.16,104.44,104.44,0,0,1-3.27-24.29c-.85.1-1.77.17-2.77.22s-2,.07-3,.07a55.86,55.86,0,0,1-9.37-.71,18.28,18.28,0,0,1-7-2.56,11.77,11.77,0,0,1-4.33-5,19.26,19.26,0,0,1-1.49-8.16,33.8,33.8,0,0,1,1.7-10.09,42.89,42.89,0,0,1,4.69-10.08,29.81,29.81,0,0,1,7-7.74,13.54,13.54,0,0,1,8.37-3.05q8.1,0,12,7.81t3.91,24.42q0,6.39.28,12.5a80.26,80.26,0,0,0,1.42,11.86A60.33,60.33,0,0,0,739.6,731a39.13,39.13,0,0,0,6.18,10.23ZM725,697.1q0-9.37-1.77-14.7c-1.19-3.55-3.1-5.33-5.75-5.33a6.8,6.8,0,0,0-4.12,1.49,17.16,17.16,0,0,0-3.62,3.77,19,19,0,0,0-2.56,5,15.94,15.94,0,0,0-.92,5.11,5.5,5.5,0,0,0,3.62,3.69,25.29,25.29,0,0,0,8.73,1.14h3.27C723,697.24,724,697.19,725,697.1Z"/><path class="cls-1" d="M758.7,724.36a16.73,16.73,0,0,1,1.42-6.89,18.33,18.33,0,0,1,3.83-5.61,18.68,18.68,0,0,1,5.61-3.83,17.4,17.4,0,0,1,13.77,0,18.4,18.4,0,0,1,9.45,9.44,17.43,17.43,0,0,1,0,13.78,18.4,18.4,0,0,1-9.45,9.44,17.4,17.4,0,0,1-13.77,0,18.33,18.33,0,0,1-9.44-9.44A16.73,16.73,0,0,1,758.7,724.36Zm10.79,0a6.45,6.45,0,0,0,2.06,4.83,7,7,0,0,0,9.79,0,6.45,6.45,0,0,0,2.06-4.83,6.23,6.23,0,0,0-2.06-4.76,7.23,7.23,0,0,0-9.79,0A6.23,6.23,0,0,0,769.49,724.36Z"/><path class="cls-1" d="M171.1,834.52a36.2,36.2,0,0,1,9.3-6.1,29.67,29.67,0,0,1,12.71-2.56,27.49,27.49,0,0,1,8.95,1.42,21.63,21.63,0,0,1,7.1,4,18.13,18.13,0,0,1,4.69,6.25,19.48,19.48,0,0,1,1.7,8.23q0,6.68-2.77,10.79a30.43,30.43,0,0,1-6.25,6.89c-2.32,1.85-4.47,3.5-6.46,5a7.83,7.83,0,0,0-3.41,5.18l-1.27,8.81h-8.52l-.86-9.8a7.83,7.83,0,0,1,2.28-6.75,58.24,58.24,0,0,1,6.17-5.18,43.25,43.25,0,0,0,6.46-5.82,12.15,12.15,0,0,0,3-8.52,9.48,9.48,0,0,0-3.41-7.67A12.87,12.87,0,0,0,192,835.8a18.51,18.51,0,0,0-5.9.85,23.72,23.72,0,0,0-4.18,1.85,27.69,27.69,0,0,0-2.84,1.85,3.52,3.52,0,0,1-1.85.85,3.25,3.25,0,0,1-2.84-1.42ZM182.75,904a8.51,8.51,0,0,1,2.2-6,8.38,8.38,0,0,1,11.78,0,9.25,9.25,0,0,1,0,12A8.49,8.49,0,0,1,185,910,8.3,8.3,0,0,1,182.75,904Z"/><path class="cls-1" d="M267.1,822.88h11.78L243.38,918h-11.5Z"/><path class="cls-1" d="M298.05,855.68,346.47,882v8.1l-48.42,26.69-2-12.49,35.22-18.46L296.06,868Z"/><path class="cls-1" d="M393.19,922.28H363.8V812.94h29.39v9.66H375.3v90.17h17.89Z"/><path class="cls-1" d="M410.37,912.77h17.9V822.6h-17.9v-9.66h29.4V922.28h-29.4Z"/><path class="cls-1" d="M473.42,868.89q5.68,4.4,7.17,10.08a50.16,50.16,0,0,1,1.49,12.78v10.93a14.38,14.38,0,0,0,3,9.45q3,3.61,9.94,5.18v9.37q-13.22-2.41-19-9.94T470.3,897v-8.52a17.18,17.18,0,0,0-3.05-10.5q-3.06-4.12-10.16-4.83v-8.38q7.1-.71,10.16-4.83t3.05-10.65v-8.38q0-12.21,5.75-19.73t19-9.94v9.37q-7,1.42-9.94,5.11a14.64,14.64,0,0,0-3,9.51v10.94A50.16,50.16,0,0,1,480.59,859Q479.11,864.64,473.42,868.89Z"/><path class="cls-1" d="M533.77,868.89a19.79,19.79,0,0,1-4.54-4.62A20.3,20.3,0,0,1,526.6,859a27.06,27.06,0,0,1-1.21-6c-.19-2.13-.28-4.37-.28-6.74V835.23a14.64,14.64,0,0,0-3-9.51q-3-3.69-9.94-5.11v-9.37q13.2,2.41,18.95,9.94t5.76,19.73v8.38q0,6.54,3.05,10.65t10.15,4.83v8.38Q543,873.86,540,878a17.11,17.11,0,0,0-3.05,10.5V897q0,12.22-5.76,19.74t-18.95,9.94v-9.37q6.94-1.56,9.94-5.18a14.38,14.38,0,0,0,3-9.45V891.75q0-3.56.28-6.75a27.09,27.09,0,0,1,1.21-6,21.76,21.76,0,0,1,2.63-5.4A19.25,19.25,0,0,1,533.77,868.89Z"/><path class="cls-1" d="M599.09,818.76A97.7,97.7,0,0,0,584.32,843a65.21,65.21,0,0,0,0,49.21,98.28,98.28,0,0,0,14.77,24.21l-5.25,7.24a88.59,88.59,0,0,1-10.72-11.93,83.27,83.27,0,0,1-8.38-13.7,79.49,79.49,0,0,1-5.47-14.91,62,62,0,0,1-2-15.55,61.21,61.21,0,0,1,2-15.48,80.14,80.14,0,0,1,5.47-14.84,83.69,83.69,0,0,1,8.38-13.7,95.7,95.7,0,0,1,10.72-12.07Z"/><path class="cls-1" d="M621.53,811.52a97.29,97.29,0,0,1,10.72,12.07,84.39,84.39,0,0,1,8.38,13.7,79.39,79.39,0,0,1,5.46,14.84,61.21,61.21,0,0,1,2,15.48,62,62,0,0,1-2,15.55,78.77,78.77,0,0,1-5.46,14.91,84,84,0,0,1-8.38,13.7,90,90,0,0,1-10.72,11.93l-5.26-7.24A98.28,98.28,0,0,0,631,892.25,65.09,65.09,0,0,0,631,843a97.7,97.7,0,0,0-14.77-24.28Z"/><path class="cls-1" d="M674.07,912.34a7.94,7.94,0,0,1-6.32-2.7,9.44,9.44,0,0,1-2.34-6.39,9.71,9.71,0,0,1,2.34-6.46,8.59,8.59,0,0,1,12.64,0,9.71,9.71,0,0,1,2.34,6.46,9.44,9.44,0,0,1-2.34,6.39A8,8,0,0,1,674.07,912.34Z"/><path class="cls-1" d="M708.15,912.34a7.48,7.48,0,0,1-5.9-2.49,9,9,0,0,1-2.2-6.17,8.83,8.83,0,0,1,2.2-6,7.5,7.5,0,0,1,5.9-2.48,7.7,7.7,0,0,1,6,2.48,8.65,8.65,0,0,1,2.27,6,8.8,8.8,0,0,1-2.27,6.17A7.68,7.68,0,0,1,708.15,912.34Zm6.67-74.55q0,9.09-1.06,21.37t-2.2,27.05H705q-1.14-14.76-2.27-27.05t-1.13-21.23v-16a7,7,0,0,1,1.84-4.69,5.93,5.93,0,0,1,4.69-2.13,6.28,6.28,0,0,1,4.83,2,6.82,6.82,0,0,1,1.84,4.83Z"/></g></svg>